M48
;Layer_Color=9474304
;FILE_FORMAT=2:5
INCH,LZ
;TYPE=PLATED
T1F00S00C0.01500
T2F00S00C0.02800
T3F00S00C0.03200
T4F00S00C0.03800
T5F00S00C0.04000
T6F00S00C0.04200
T7F00S00C0.04600
T8F00S00C0.06000
T9F00S00C0.06200
%
T01
X01702Y03806
Y04175
X01653Y0418
X01593Y04174
X01487Y04242
X01708Y04351
X01759Y04347
X01848Y04343
X01842Y04212
X0178Y04183
X02009Y04188
X02056Y04202
X021281Y041439
X02152Y04346
X02035Y04391
X02183Y03688
X0336Y05445
X01Y0645
X008
X006
X00485Y06925
X00425Y0699
X00755Y07185
X0089Y07275
X009Y0745
X0084Y0755
X01104Y0726
X01095Y072
X01067Y0705
X01032Y06975
X0088Y06785
X00161Y06228
X012Y0645
X015
X017
X01692Y06516
X01664Y06722
X01619Y0674
X01661Y06884
X01788Y06931
X01751Y0697579
X0180984Y07035
X01927
X01932Y06966
X01882Y06975
X01832Y07162
X01763Y07164
X01695Y07056
X01486Y07007
X01463Y07234
X01583Y07236
X0176Y0737
X0181Y0741
X0187Y0745
X02015Y07305
X02125Y07205
X02138Y07104
X02317
X0228Y07016
X0225Y06747
X021Y0645
X019
X024
X026
X02245Y06167
X02335Y0743
X02478Y07308
X02578
X01126Y07127
X01177Y07051
X01179Y0698
X0132Y06919
X01198Y06773
X028Y0645
X03
X02978Y07308
X02878
X02778
X02678
X03078
X03178
T02
X00663Y0014
X00861Y001455
X01061
X01261
X01461
X01661Y00145
X01861Y001455
X02061Y00145
X02261Y001455
X02461Y00145
X02661Y001455
X02861Y00145
X0218Y0203
X0208
X0188
X0178
X0168
X01065Y04472
X00985
X00765
X00685
X00465
X00239Y03872
X01467Y03855
X01881Y03582
Y03325
X01922Y03188
X02365Y04472
X02585
X02665
X01285
X02885
X02965
X03185
X033Y04425
X03555Y04368
X03337Y0412
X03505Y04695
X03605
X03735Y04685
X0371Y04985
X03645Y0518
X0365Y053
X03575Y05305
X0352Y0523
X0347Y05555
X0374Y05675
X0344Y048
X00268Y05777
X00047
X-0002Y06045
Y06585
X0002Y06675
X00332Y06459
X0044Y0746
X01346Y06633
X01349Y06369
X02378Y06915
X0323Y069
X03285Y071525
X03635Y069
X0365Y0653
X03605Y06455
X03555Y0657
T03
X00107Y00868
Y00968
Y01068
X0041273Y01377
X0102818
X0072245Y01068
Y00968
Y00868
X0133791
Y00968
Y01068
X0164364Y01377
X0225909
X0195336Y01068
Y00968
Y00868
X0256882
Y00968
Y01068
X0287455Y01377
X0349
X0318427Y01068
Y00968
Y00868
X0349Y01477
Y01577
X0287455
Y01477
X02996Y02057
X03259Y02214
X03685Y02084
X0225909Y01577
Y01477
X0164364
Y01577
X0102818
Y01477
X0041273
Y01577
X00794Y01968
X00683Y02174
X00124Y02209
T04
X02183Y06778
Y06878
T05
X00548Y03705
X00698
X00848
X00998
Y03905
X00848
X00698
X00548
X01148
X01298
Y03705
X01148
X024Y037
X0255
Y039
X024
X027
X0285
X03
X0315
Y037
X03
X0285
X027
X03477Y03987
X03577
X03714Y0423
Y0433
X03422
Y0423
X0032Y06155
X0022
T06
X027Y04995
X028
X03
X031
X032
X033
Y05295
X032
X031
X03
X028
X027
X0275Y0575
X0285
X0295
X0305
Y0605
X0295
X0285
X0275
X0265
X0255
X0245
X0235
X0215
X0205
X0195
X0185
X0175
X0165
X0155
X0145
X0125
X0115
Y0575
X0125
X0145
X0155
X0165
X0175
X0185
X0195
X0205
X0215
X0235
X0245
X0255
X0265
X026Y05295
X025
X023
X022
X021
X02
X018
X017
X016
X015
X013
X012
Y04995
X013
X015
X016
X017
X018
X02
X021
X022
X023
X025
X026
X011
X01
X008
X007
X006
X005
Y05295
X006
X007
X008
X01
X011
X0105Y0575
X0095
X0085
X0075
X0065
X0055
Y0605
X0065
X0075
X0085
X0095
X0105
T07
X00053Y04001
X00253
Y04501
X00053
T08
X0076732Y00284
X0096417
X0116103
X0135787
X0155473
X0175158
X0194843
X0214528
X0234213
X0253898
X0273583
X0293268
T09
X0354Y02375
Y02525
Y02675
Y02825
Y02975
X0016
Y02825
Y02675
Y02525
Y02375
Y03125
Y03275
Y03425
Y03575
Y03725
X0354
Y03575
Y03425
Y03275
Y03125
M30
