%FSLAX25Y25*%
%MOIN*%
G70*
G01*
G75*
G04 Layer_Color=8388736*
%ADD10R,0.09000X0.06500*%
%ADD11R,0.07000X0.08000*%
%ADD12R,0.05906X0.05118*%
%ADD13R,0.12500X0.06000*%
%ADD14R,0.06000X0.12500*%
%ADD15R,0.05600X0.03600*%
%ADD16R,0.06299X0.07087*%
%ADD17R,0.10630X0.07087*%
%ADD18R,0.04331X0.03937*%
%ADD19R,0.05118X0.05906*%
%ADD20C,0.05000*%
%ADD21R,0.07087X0.06299*%
%ADD22R,0.03937X0.04331*%
%ADD23R,0.06000X0.08500*%
%ADD24R,0.01181X0.05118*%
%ADD25R,0.07087X0.08661*%
%ADD26O,0.01181X0.07087*%
%ADD27O,0.07087X0.01181*%
%ADD28R,0.14500X0.05000*%
%ADD29R,0.10000X0.07000*%
%ADD30R,0.20000X0.07000*%
%ADD31R,0.06000X0.05500*%
%ADD32C,0.00800*%
%ADD33C,0.01000*%
%ADD34C,0.05000*%
%ADD35C,0.02000*%
%ADD36C,0.08000*%
%ADD37C,0.02500*%
%ADD38C,0.01200*%
%ADD39C,0.13000*%
%ADD40C,0.10000*%
%ADD41C,0.06000*%
G04:AMPARAMS|DCode=42|XSize=60mil|YSize=60mil|CornerRadius=15mil|HoleSize=0mil|Usage=FLASHONLY|Rotation=90.000|XOffset=0mil|YOffset=0mil|HoleType=Round|Shape=RoundedRectangle|*
%AMROUNDEDRECTD42*
21,1,0.06000,0.03000,0,0,90.0*
21,1,0.03000,0.06000,0,0,90.0*
1,1,0.03000,0.01500,0.01500*
1,1,0.03000,0.01500,-0.01500*
1,1,0.03000,-0.01500,-0.01500*
1,1,0.03000,-0.01500,0.01500*
%
%ADD42ROUNDEDRECTD42*%
%ADD43R,0.06200X0.06200*%
%ADD44C,0.06200*%
%ADD45O,0.06000X0.06400*%
%ADD46R,0.06000X0.06400*%
%ADD47O,0.10000X0.12000*%
%ADD48C,0.23400*%
%ADD49R,0.06200X0.06200*%
%ADD50C,0.10000*%
%ADD51C,0.07500*%
G04:AMPARAMS|DCode=52|XSize=50mil|YSize=50mil|CornerRadius=12.5mil|HoleSize=0mil|Usage=FLASHONLY|Rotation=180.000|XOffset=0mil|YOffset=0mil|HoleType=Round|Shape=RoundedRectangle|*
%AMROUNDEDRECTD52*
21,1,0.05000,0.02500,0,0,180.0*
21,1,0.02500,0.05000,0,0,180.0*
1,1,0.02500,-0.01250,0.01250*
1,1,0.02500,0.01250,0.01250*
1,1,0.02500,0.01250,-0.01250*
1,1,0.02500,-0.01250,-0.01250*
%
%ADD52ROUNDEDRECTD52*%
%ADD53C,0.05500*%
G04:AMPARAMS|DCode=54|XSize=55mil|YSize=55mil|CornerRadius=13.75mil|HoleSize=0mil|Usage=FLASHONLY|Rotation=180.000|XOffset=0mil|YOffset=0mil|HoleType=Round|Shape=RoundedRectangle|*
%AMROUNDEDRECTD54*
21,1,0.05500,0.02750,0,0,180.0*
21,1,0.02750,0.05500,0,0,180.0*
1,1,0.02750,-0.01375,0.01375*
1,1,0.02750,0.01375,0.01375*
1,1,0.02750,0.01375,-0.01375*
1,1,0.02750,-0.01375,-0.01375*
%
%ADD54ROUNDEDRECTD54*%
%ADD55C,0.03000*%
%ADD56C,0.08000*%
%ADD57R,0.09000X0.10000*%
%ADD58R,0.06000X0.02500*%
%ADD59R,0.02500X0.06000*%
%ADD60R,0.11800X0.06300*%
%ADD61R,0.25590X0.23622*%
%ADD62C,0.03000*%
%ADD63C,0.02362*%
%ADD64C,0.00984*%
%ADD65C,0.00500*%
%ADD66C,0.01500*%
%ADD67C,0.00699*%
%ADD68C,0.00787*%
%ADD69C,0.01600*%
%ADD70R,0.19000X0.55500*%
%ADD71R,0.06000X0.06000*%
%ADD72P,0.09051X4X180.0*%
%ADD73O,0.10200X0.12200*%
%ADD74P,0.09051X4X90.0*%
%ADD75C,0.05106*%
G04:AMPARAMS|DCode=76|XSize=51.06mil|YSize=51.06mil|CornerRadius=12.77mil|HoleSize=0mil|Usage=FLASHONLY|Rotation=0.000|XOffset=0mil|YOffset=0mil|HoleType=Round|Shape=RoundedRectangle|*
%AMROUNDEDRECTD76*
21,1,0.05106,0.02553,0,0,0.0*
21,1,0.02553,0.05106,0,0,0.0*
1,1,0.02553,0.01277,-0.01277*
1,1,0.02553,-0.01277,-0.01277*
1,1,0.02553,-0.01277,0.01277*
1,1,0.02553,0.01277,0.01277*
%
%ADD76ROUNDEDRECTD76*%
%ADD77R,0.06890X0.08465*%
%ADD78R,0.09800X0.07300*%
%ADD79R,0.07800X0.08800*%
%ADD80R,0.06706X0.05918*%
%ADD81R,0.13300X0.06800*%
%ADD82R,0.06800X0.13300*%
%ADD83R,0.06400X0.04400*%
%ADD84R,0.07099X0.07887*%
%ADD85R,0.11430X0.07887*%
%ADD86R,0.05131X0.04737*%
%ADD87R,0.05918X0.06706*%
%ADD88R,0.07887X0.07099*%
%ADD89R,0.04737X0.05131*%
%ADD90R,0.06800X0.09300*%
%ADD91R,0.01481X0.05418*%
%ADD92R,0.07874X0.09449*%
%ADD93O,0.01481X0.07387*%
%ADD94O,0.07387X0.01481*%
%ADD95R,0.15300X0.05800*%
%ADD96R,0.10800X0.07800*%
%ADD97R,0.20800X0.07800*%
%ADD98R,0.06800X0.06300*%
%ADD99C,0.06800*%
G04:AMPARAMS|DCode=100|XSize=68mil|YSize=68mil|CornerRadius=19mil|HoleSize=0mil|Usage=FLASHONLY|Rotation=90.000|XOffset=0mil|YOffset=0mil|HoleType=Round|Shape=RoundedRectangle|*
%AMROUNDEDRECTD100*
21,1,0.06800,0.03000,0,0,90.0*
21,1,0.03000,0.06800,0,0,90.0*
1,1,0.03800,0.01500,0.01500*
1,1,0.03800,0.01500,-0.01500*
1,1,0.03800,-0.01500,-0.01500*
1,1,0.03800,-0.01500,0.01500*
%
%ADD100ROUNDEDRECTD100*%
%ADD101R,0.07000X0.07000*%
%ADD102C,0.07000*%
%ADD103O,0.06800X0.07200*%
%ADD104R,0.06800X0.07200*%
%ADD105O,0.10800X0.12800*%
%ADD106C,0.24200*%
%ADD107R,0.07000X0.07000*%
%ADD108C,0.10800*%
%ADD109C,0.08300*%
%ADD110C,0.05800*%
G04:AMPARAMS|DCode=111|XSize=58mil|YSize=58mil|CornerRadius=16.5mil|HoleSize=0mil|Usage=FLASHONLY|Rotation=180.000|XOffset=0mil|YOffset=0mil|HoleType=Round|Shape=RoundedRectangle|*
%AMROUNDEDRECTD111*
21,1,0.05800,0.02500,0,0,180.0*
21,1,0.02500,0.05800,0,0,180.0*
1,1,0.03300,-0.01250,0.01250*
1,1,0.03300,0.01250,0.01250*
1,1,0.03300,0.01250,-0.01250*
1,1,0.03300,-0.01250,-0.01250*
%
%ADD111ROUNDEDRECTD111*%
%ADD112C,0.06300*%
G04:AMPARAMS|DCode=113|XSize=63mil|YSize=63mil|CornerRadius=17.75mil|HoleSize=0mil|Usage=FLASHONLY|Rotation=180.000|XOffset=0mil|YOffset=0mil|HoleType=Round|Shape=RoundedRectangle|*
%AMROUNDEDRECTD113*
21,1,0.06300,0.02750,0,0,180.0*
21,1,0.02750,0.06300,0,0,180.0*
1,1,0.03550,-0.01375,0.01375*
1,1,0.03550,0.01375,0.01375*
1,1,0.03550,0.01375,-0.01375*
1,1,0.03550,-0.01375,-0.01375*
%
%ADD113ROUNDEDRECTD113*%
G54D50*
X370000Y755000D02*
D03*
X0D02*
D03*
X370000Y0D02*
D03*
X0Y0D02*
D03*
G54D78*
X372500Y675500D02*
D03*
Y705500D02*
D03*
X332500Y665500D02*
D03*
Y675500D02*
D03*
Y695500D02*
D03*
Y705500D02*
D03*
G54D79*
X364000Y542000D02*
D03*
X354000D02*
D03*
Y507000D02*
D03*
X344000Y542000D02*
D03*
X374000D02*
D03*
X344000Y507000D02*
D03*
X374000D02*
D03*
X364000D02*
D03*
Y490000D02*
D03*
X354000D02*
D03*
Y455000D02*
D03*
X344000Y490000D02*
D03*
X374000D02*
D03*
X344000Y455000D02*
D03*
X374000D02*
D03*
X364000D02*
D03*
G54D80*
X355500Y603750D02*
D03*
Y611250D02*
D03*
X346500D02*
D03*
Y603750D02*
D03*
X364500Y611250D02*
D03*
Y603750D02*
D03*
X369000Y592750D02*
D03*
Y585250D02*
D03*
X342000Y592750D02*
D03*
Y585250D02*
D03*
X324000Y592750D02*
D03*
Y585250D02*
D03*
X360000Y592750D02*
D03*
Y585250D02*
D03*
X328500Y611250D02*
D03*
Y603750D02*
D03*
X351000Y585250D02*
D03*
X337500Y603750D02*
D03*
X333000Y585250D02*
D03*
X57000Y685250D02*
D03*
Y677750D02*
D03*
X56500Y710750D02*
D03*
Y703250D02*
D03*
Y629750D02*
D03*
Y637250D02*
D03*
X76500Y629750D02*
D03*
Y637250D02*
D03*
X96500Y629750D02*
D03*
Y637250D02*
D03*
X116500Y629750D02*
D03*
Y637250D02*
D03*
X236500Y629750D02*
D03*
Y637250D02*
D03*
X256500Y629750D02*
D03*
Y637250D02*
D03*
X276500Y629750D02*
D03*
Y637250D02*
D03*
X296500Y629750D02*
D03*
Y637250D02*
D03*
X146500Y629750D02*
D03*
Y637250D02*
D03*
X166500Y629750D02*
D03*
Y637250D02*
D03*
X186500Y629750D02*
D03*
Y637250D02*
D03*
X206500Y629750D02*
D03*
Y637250D02*
D03*
X333000Y592750D02*
D03*
X337500Y611250D02*
D03*
X351000Y592750D02*
D03*
X55500Y730250D02*
D03*
Y737750D02*
D03*
X147500Y433550D02*
D03*
Y441050D02*
D03*
X319500Y611250D02*
D03*
Y603750D02*
D03*
G54D81*
X350250Y637000D02*
D03*
X370750D02*
D03*
G54D82*
X222000Y738250D02*
D03*
Y717750D02*
D03*
G54D83*
X118250Y733500D02*
D03*
X126750Y730000D02*
D03*
X118250Y726500D02*
D03*
G54D84*
X12000Y658000D02*
D03*
X23000D02*
D03*
X209500Y49900D02*
D03*
X220500D02*
D03*
X189500D02*
D03*
X200500D02*
D03*
X169500D02*
D03*
X180500D02*
D03*
X149500D02*
D03*
X160500D02*
D03*
X129500D02*
D03*
X140500D02*
D03*
X109500D02*
D03*
X120500D02*
D03*
X89500D02*
D03*
X100500D02*
D03*
X69500D02*
D03*
X80500D02*
D03*
X229500D02*
D03*
X240500D02*
D03*
X249500D02*
D03*
X260500D02*
D03*
X269500D02*
D03*
X280500D02*
D03*
X289500D02*
D03*
X300500D02*
D03*
G54D85*
X125000Y433750D02*
D03*
Y416250D02*
D03*
X110000Y433750D02*
D03*
Y416250D02*
D03*
X95000Y433750D02*
D03*
Y416250D02*
D03*
X80000Y433750D02*
D03*
Y416250D02*
D03*
X65000Y433750D02*
D03*
Y416250D02*
D03*
X50000Y433750D02*
D03*
Y416250D02*
D03*
X255000D02*
D03*
Y433750D02*
D03*
X240000D02*
D03*
Y416250D02*
D03*
X315000D02*
D03*
Y433750D02*
D03*
X300000Y416250D02*
D03*
Y433750D02*
D03*
X285000Y416250D02*
D03*
Y433750D02*
D03*
X270000D02*
D03*
Y416250D02*
D03*
G54D86*
X145750Y730000D02*
D03*
X216750Y442000D02*
D03*
X210250D02*
D03*
X146750Y622500D02*
D03*
X153250D02*
D03*
X166750D02*
D03*
X173250D02*
D03*
X186750D02*
D03*
X193250D02*
D03*
X206750D02*
D03*
X213250D02*
D03*
X236750D02*
D03*
X243250D02*
D03*
X256750D02*
D03*
X263250D02*
D03*
X276750D02*
D03*
X283250D02*
D03*
X296750D02*
D03*
X303250D02*
D03*
X56750D02*
D03*
X63250D02*
D03*
X76750D02*
D03*
X83250D02*
D03*
X96750D02*
D03*
X103250D02*
D03*
X116750D02*
D03*
X123250D02*
D03*
X119750Y682500D02*
D03*
X126250D02*
D03*
X124250Y697700D02*
D03*
X130750D02*
D03*
X124250Y705200D02*
D03*
X130750D02*
D03*
X10750Y640500D02*
D03*
X17250D02*
D03*
X139250Y730000D02*
D03*
X54750Y751000D02*
D03*
X48250D02*
D03*
Y757000D02*
D03*
X54750D02*
D03*
X124250Y720200D02*
D03*
X130750D02*
D03*
X124250Y712700D02*
D03*
X130750D02*
D03*
G54D87*
X206250Y560000D02*
D03*
X213750D02*
D03*
X186250D02*
D03*
X193750D02*
D03*
X166250D02*
D03*
X173750D02*
D03*
X146250D02*
D03*
X153750D02*
D03*
X303750D02*
D03*
X296250D02*
D03*
X283750D02*
D03*
X276250D02*
D03*
X263750D02*
D03*
X256250D02*
D03*
X243750D02*
D03*
X236250D02*
D03*
X123750D02*
D03*
X116250D02*
D03*
X103750D02*
D03*
X96250D02*
D03*
X83750D02*
D03*
X76250D02*
D03*
X63750D02*
D03*
X56250D02*
D03*
X157550Y440300D02*
D03*
X165050D02*
D03*
X174750Y441000D02*
D03*
X182250D02*
D03*
G54D88*
X68500Y674500D02*
D03*
Y685500D02*
D03*
Y700000D02*
D03*
Y711000D02*
D03*
X68000Y727000D02*
D03*
Y738000D02*
D03*
X139800Y203300D02*
D03*
Y214300D02*
D03*
G54D89*
X64000Y636750D02*
D03*
Y630250D02*
D03*
X84000Y636750D02*
D03*
Y630250D02*
D03*
X104000Y636750D02*
D03*
Y630250D02*
D03*
X124000Y636750D02*
D03*
Y630250D02*
D03*
X244000Y636750D02*
D03*
Y630250D02*
D03*
X264000Y636750D02*
D03*
Y630250D02*
D03*
X284000Y636750D02*
D03*
Y630250D02*
D03*
X304000Y636750D02*
D03*
Y630250D02*
D03*
X154000Y636750D02*
D03*
Y630250D02*
D03*
X174000Y636750D02*
D03*
Y630250D02*
D03*
X194000Y636750D02*
D03*
Y630250D02*
D03*
X214000Y636750D02*
D03*
Y630250D02*
D03*
G54D90*
X307700Y707900D02*
D03*
X317700D02*
D03*
X307700Y740400D02*
D03*
X317700D02*
D03*
X287700Y707900D02*
D03*
Y740400D02*
D03*
X297700Y707900D02*
D03*
Y740400D02*
D03*
X257700D02*
D03*
Y707900D02*
D03*
X247700Y740400D02*
D03*
Y707900D02*
D03*
X277700Y740400D02*
D03*
X267700D02*
D03*
X277700Y707900D02*
D03*
X267700D02*
D03*
G54D91*
X156457Y427798D02*
D03*
X158425D02*
D03*
X160394D02*
D03*
X162362D02*
D03*
X164331D02*
D03*
X166299D02*
D03*
X168268D02*
D03*
X170236D02*
D03*
X172205D02*
D03*
X174173D02*
D03*
X176142D02*
D03*
X178110D02*
D03*
X180079D02*
D03*
X182047D02*
D03*
X184016D02*
D03*
X185984D02*
D03*
X187953D02*
D03*
X189921D02*
D03*
X191890D02*
D03*
X193858D02*
D03*
X195827D02*
D03*
X197795D02*
D03*
X199764D02*
D03*
X201732D02*
D03*
X203701D02*
D03*
X205669D02*
D03*
X207638D02*
D03*
X209606D02*
D03*
X211575D02*
D03*
X213543D02*
D03*
G54D92*
X221024Y415002D02*
D03*
X148976D02*
D03*
G54D93*
X165236Y724350D02*
D03*
X167205D02*
D03*
X169173D02*
D03*
X171142D02*
D03*
X173110D02*
D03*
X175079D02*
D03*
X177047D02*
D03*
X179016D02*
D03*
X180984D02*
D03*
X182953D02*
D03*
X184921D02*
D03*
X186890D02*
D03*
X188858D02*
D03*
X190827D02*
D03*
X192795D02*
D03*
X194764D02*
D03*
Y680650D02*
D03*
X192795D02*
D03*
X190827D02*
D03*
X188858D02*
D03*
X186890D02*
D03*
X184921D02*
D03*
X182953D02*
D03*
X180984D02*
D03*
X179016D02*
D03*
X177047D02*
D03*
X175079D02*
D03*
X173110D02*
D03*
X171142D02*
D03*
X169173D02*
D03*
X167205D02*
D03*
X165236D02*
D03*
G54D94*
X201850Y717264D02*
D03*
Y715295D02*
D03*
Y713327D02*
D03*
Y711358D02*
D03*
Y709390D02*
D03*
Y707421D02*
D03*
Y705453D02*
D03*
Y703484D02*
D03*
Y701516D02*
D03*
Y699547D02*
D03*
Y697579D02*
D03*
Y695610D02*
D03*
Y693642D02*
D03*
Y691673D02*
D03*
Y689705D02*
D03*
Y687736D02*
D03*
X158150D02*
D03*
Y689705D02*
D03*
Y691673D02*
D03*
Y693642D02*
D03*
Y695610D02*
D03*
Y697579D02*
D03*
Y699547D02*
D03*
Y701516D02*
D03*
Y703484D02*
D03*
Y705453D02*
D03*
Y707421D02*
D03*
Y709390D02*
D03*
Y711358D02*
D03*
Y713327D02*
D03*
Y715295D02*
D03*
Y717264D02*
D03*
G54D95*
X28450Y696400D02*
D03*
Y706400D02*
D03*
Y676400D02*
D03*
Y686400D02*
D03*
X8950Y696400D02*
D03*
Y706400D02*
D03*
Y676400D02*
D03*
Y686400D02*
D03*
G54D96*
X107000Y203300D02*
D03*
X124000D02*
D03*
G54D97*
X283250Y211400D02*
D03*
X250750D02*
D03*
G54D98*
X57000Y213100D02*
D03*
Y193100D02*
D03*
X23000Y213100D02*
D03*
Y193100D02*
D03*
G54D99*
X10700Y96800D02*
D03*
Y106800D02*
D03*
X41273Y147700D02*
D03*
Y157700D02*
D03*
X102818Y147700D02*
D03*
Y157700D02*
D03*
X133791Y96800D02*
D03*
Y106800D02*
D03*
X164364Y147700D02*
D03*
Y157700D02*
D03*
X195336Y96800D02*
D03*
Y106800D02*
D03*
X225909Y147700D02*
D03*
Y157700D02*
D03*
X287455Y147700D02*
D03*
Y157700D02*
D03*
X318427Y96800D02*
D03*
Y106800D02*
D03*
X349000Y147700D02*
D03*
Y157700D02*
D03*
X256882Y96800D02*
D03*
Y106800D02*
D03*
X72245Y96800D02*
D03*
Y106800D02*
D03*
G54D100*
X10700Y86800D02*
D03*
X41273Y137700D02*
D03*
X102818D02*
D03*
X133791Y86800D02*
D03*
X164364Y137700D02*
D03*
X195336Y86800D02*
D03*
X225909Y137700D02*
D03*
X287455D02*
D03*
X318427Y86800D02*
D03*
X349000Y137700D02*
D03*
X256882Y86800D02*
D03*
X5300Y400100D02*
D03*
Y450100D02*
D03*
X25300Y400100D02*
D03*
Y450100D02*
D03*
X72245Y86800D02*
D03*
G54D101*
X371400Y423000D02*
D03*
X342200Y433000D02*
D03*
G54D102*
X371400D02*
D03*
X342200Y423000D02*
D03*
X315000Y390000D02*
D03*
Y370000D02*
D03*
X300000D02*
D03*
Y390000D02*
D03*
X285000D02*
D03*
Y370000D02*
D03*
X270000Y390000D02*
D03*
Y370000D02*
D03*
X255000Y390000D02*
D03*
Y370000D02*
D03*
X240000Y390000D02*
D03*
Y370000D02*
D03*
X54800Y370500D02*
D03*
Y390500D02*
D03*
X69800Y370500D02*
D03*
Y390500D02*
D03*
X84800Y370500D02*
D03*
Y390500D02*
D03*
X99800Y370500D02*
D03*
Y390500D02*
D03*
X114800Y370500D02*
D03*
Y390500D02*
D03*
X129800Y370500D02*
D03*
Y390500D02*
D03*
X32000Y615500D02*
D03*
X347700Y398700D02*
D03*
G54D103*
X235000Y605000D02*
D03*
X295000D02*
D03*
X265000D02*
D03*
X295000Y575000D02*
D03*
X265000D02*
D03*
X255000Y605000D02*
D03*
X245000D02*
D03*
X285000D02*
D03*
X275000D02*
D03*
X305000D02*
D03*
X245000Y575000D02*
D03*
X255000D02*
D03*
X285000D02*
D03*
X275000D02*
D03*
X305000D02*
D03*
X145000Y605000D02*
D03*
X205000D02*
D03*
X175000D02*
D03*
X205000Y575000D02*
D03*
X175000D02*
D03*
X165000Y605000D02*
D03*
X155000D02*
D03*
X195000D02*
D03*
X185000D02*
D03*
X215000D02*
D03*
X155000Y575000D02*
D03*
X165000D02*
D03*
X195000D02*
D03*
X185000D02*
D03*
X215000D02*
D03*
X55000Y605000D02*
D03*
X115000D02*
D03*
X85000D02*
D03*
X115000Y575000D02*
D03*
X85000D02*
D03*
X75000Y605000D02*
D03*
X65000D02*
D03*
X105000D02*
D03*
X95000D02*
D03*
X125000D02*
D03*
X65000Y575000D02*
D03*
X75000D02*
D03*
X105000D02*
D03*
X95000D02*
D03*
X125000D02*
D03*
X320000Y499500D02*
D03*
Y529500D02*
D03*
X330000Y499500D02*
D03*
X300000D02*
D03*
X310000D02*
D03*
X300000Y529500D02*
D03*
X310000D02*
D03*
X270000Y499500D02*
D03*
Y529500D02*
D03*
X280000Y499500D02*
D03*
X250000D02*
D03*
X260000D02*
D03*
X250000Y529500D02*
D03*
X260000D02*
D03*
X220000Y499500D02*
D03*
Y529500D02*
D03*
X230000Y499500D02*
D03*
X200000D02*
D03*
X210000D02*
D03*
X200000Y529500D02*
D03*
X210000D02*
D03*
X170000Y499500D02*
D03*
Y529500D02*
D03*
X180000Y499500D02*
D03*
X150000D02*
D03*
X160000D02*
D03*
X150000Y529500D02*
D03*
X160000D02*
D03*
X120000Y499500D02*
D03*
Y529500D02*
D03*
X130000Y499500D02*
D03*
X100000D02*
D03*
X110000D02*
D03*
X100000Y529500D02*
D03*
X110000D02*
D03*
X70000Y499500D02*
D03*
Y529500D02*
D03*
X80000Y499500D02*
D03*
X50000D02*
D03*
X60000D02*
D03*
X50000Y529500D02*
D03*
X60000D02*
D03*
G54D104*
X235000Y575000D02*
D03*
X145000D02*
D03*
X55000D02*
D03*
X330000Y529500D02*
D03*
X280000D02*
D03*
X230000D02*
D03*
X180000D02*
D03*
X130000D02*
D03*
X80000D02*
D03*
G54D105*
X234213Y28400D02*
D03*
X273583D02*
D03*
X293268D02*
D03*
X253898D02*
D03*
X175158D02*
D03*
X116103D02*
D03*
X214528D02*
D03*
X194843D02*
D03*
X155473D02*
D03*
X135787D02*
D03*
X96417D02*
D03*
X76732D02*
D03*
G54D106*
X350000Y735000D02*
D03*
X20000D02*
D03*
X350000Y20000D02*
D03*
X20000D02*
D03*
G54D107*
X22000Y615500D02*
D03*
X357700Y398700D02*
D03*
G54D108*
X16000Y237500D02*
D03*
Y267500D02*
D03*
Y297500D02*
D03*
Y252500D02*
D03*
Y282500D02*
D03*
Y312500D02*
D03*
Y372500D02*
D03*
Y342500D02*
D03*
Y357500D02*
D03*
Y327500D02*
D03*
X354000Y237500D02*
D03*
Y267500D02*
D03*
Y297500D02*
D03*
Y252500D02*
D03*
Y282500D02*
D03*
Y312500D02*
D03*
Y372500D02*
D03*
Y342500D02*
D03*
Y357500D02*
D03*
Y327500D02*
D03*
G54D109*
X-2400Y425100D02*
D03*
X33000D02*
D03*
G54D110*
X168000Y203000D02*
D03*
X178000D02*
D03*
X188000D02*
D03*
X208000D02*
D03*
G54D111*
X218000D02*
D03*
G54D112*
X218300Y687800D02*
D03*
G54D113*
Y677800D02*
D03*
M02*
