%FSLAX25Y25*%
%MOIN*%
G70*
G01*
G75*
G04 Layer_Color=16711935*
%ADD10R,0.09000X0.06500*%
%ADD11R,0.07000X0.08000*%
%ADD12R,0.05906X0.05118*%
%ADD13R,0.12500X0.06000*%
%ADD14R,0.06000X0.12500*%
%ADD15R,0.05600X0.03600*%
%ADD16R,0.06299X0.07087*%
%ADD17R,0.10630X0.07087*%
%ADD18R,0.04331X0.03937*%
%ADD19R,0.05118X0.05906*%
%ADD20C,0.05000*%
%ADD21R,0.07087X0.06299*%
%ADD22R,0.03937X0.04331*%
%ADD23R,0.06000X0.08500*%
%ADD24R,0.01181X0.05118*%
%ADD25R,0.07087X0.08661*%
%ADD26O,0.01181X0.07087*%
%ADD27O,0.07087X0.01181*%
%ADD28R,0.14500X0.05000*%
%ADD29R,0.10000X0.07000*%
%ADD30R,0.20000X0.07000*%
%ADD31R,0.06000X0.05500*%
%ADD32C,0.00800*%
%ADD33C,0.01000*%
%ADD34C,0.05000*%
%ADD35C,0.02000*%
%ADD36C,0.08000*%
%ADD37C,0.02500*%
%ADD38C,0.01200*%
%ADD39C,0.13000*%
%ADD40C,0.10000*%
%ADD41C,0.06000*%
G04:AMPARAMS|DCode=42|XSize=60mil|YSize=60mil|CornerRadius=15mil|HoleSize=0mil|Usage=FLASHONLY|Rotation=90.000|XOffset=0mil|YOffset=0mil|HoleType=Round|Shape=RoundedRectangle|*
%AMROUNDEDRECTD42*
21,1,0.06000,0.03000,0,0,90.0*
21,1,0.03000,0.06000,0,0,90.0*
1,1,0.03000,0.01500,0.01500*
1,1,0.03000,0.01500,-0.01500*
1,1,0.03000,-0.01500,-0.01500*
1,1,0.03000,-0.01500,0.01500*
%
%ADD42ROUNDEDRECTD42*%
%ADD43R,0.06200X0.06200*%
%ADD44C,0.06200*%
%ADD45O,0.06000X0.06400*%
%ADD46R,0.06000X0.06400*%
%ADD47O,0.10000X0.12000*%
%ADD48C,0.23400*%
%ADD49R,0.06200X0.06200*%
%ADD50C,0.10000*%
%ADD51C,0.07500*%
G04:AMPARAMS|DCode=52|XSize=50mil|YSize=50mil|CornerRadius=12.5mil|HoleSize=0mil|Usage=FLASHONLY|Rotation=180.000|XOffset=0mil|YOffset=0mil|HoleType=Round|Shape=RoundedRectangle|*
%AMROUNDEDRECTD52*
21,1,0.05000,0.02500,0,0,180.0*
21,1,0.02500,0.05000,0,0,180.0*
1,1,0.02500,-0.01250,0.01250*
1,1,0.02500,0.01250,0.01250*
1,1,0.02500,0.01250,-0.01250*
1,1,0.02500,-0.01250,-0.01250*
%
%ADD52ROUNDEDRECTD52*%
%ADD53C,0.05500*%
G04:AMPARAMS|DCode=54|XSize=55mil|YSize=55mil|CornerRadius=13.75mil|HoleSize=0mil|Usage=FLASHONLY|Rotation=180.000|XOffset=0mil|YOffset=0mil|HoleType=Round|Shape=RoundedRectangle|*
%AMROUNDEDRECTD54*
21,1,0.05500,0.02750,0,0,180.0*
21,1,0.02750,0.05500,0,0,180.0*
1,1,0.02750,-0.01375,0.01375*
1,1,0.02750,0.01375,0.01375*
1,1,0.02750,0.01375,-0.01375*
1,1,0.02750,-0.01375,-0.01375*
%
%ADD54ROUNDEDRECTD54*%
%ADD55C,0.03000*%
%ADD56C,0.08000*%
%ADD57R,0.09000X0.10000*%
%ADD58R,0.06000X0.02500*%
%ADD59R,0.02500X0.06000*%
%ADD60R,0.11800X0.06300*%
%ADD61R,0.25590X0.23622*%
%ADD62C,0.03000*%
%ADD63C,0.02362*%
%ADD64C,0.00984*%
%ADD65C,0.00500*%
%ADD66C,0.01500*%
%ADD67C,0.00699*%
%ADD68C,0.00787*%
%ADD69C,0.01600*%
%ADD70R,0.19000X0.55500*%
%ADD71R,0.06000X0.06000*%
%ADD72P,0.09051X4X180.0*%
%ADD73O,0.10200X0.12200*%
%ADD74P,0.09051X4X90.0*%
%ADD75C,0.05106*%
G04:AMPARAMS|DCode=76|XSize=51.06mil|YSize=51.06mil|CornerRadius=12.77mil|HoleSize=0mil|Usage=FLASHONLY|Rotation=0.000|XOffset=0mil|YOffset=0mil|HoleType=Round|Shape=RoundedRectangle|*
%AMROUNDEDRECTD76*
21,1,0.05106,0.02553,0,0,0.0*
21,1,0.02553,0.05106,0,0,0.0*
1,1,0.02553,0.01277,-0.01277*
1,1,0.02553,-0.01277,-0.01277*
1,1,0.02553,-0.01277,0.01277*
1,1,0.02553,0.01277,0.01277*
%
%ADD76ROUNDEDRECTD76*%
%ADD77R,0.06890X0.08465*%
%ADD78R,0.09800X0.07300*%
%ADD79R,0.07800X0.08800*%
%ADD80R,0.06706X0.05918*%
%ADD81R,0.13300X0.06800*%
%ADD82R,0.06800X0.13300*%
%ADD83R,0.06400X0.04400*%
%ADD84R,0.07099X0.07887*%
%ADD85R,0.11430X0.07887*%
%ADD86R,0.05131X0.04737*%
%ADD87R,0.05918X0.06706*%
%ADD88R,0.07887X0.07099*%
%ADD89R,0.04737X0.05131*%
%ADD90R,0.06800X0.09300*%
%ADD91R,0.01481X0.05418*%
%ADD92R,0.07874X0.09449*%
%ADD93O,0.01481X0.07387*%
%ADD94O,0.07387X0.01481*%
%ADD95R,0.15300X0.05800*%
%ADD96R,0.10800X0.07800*%
%ADD97R,0.20800X0.07800*%
%ADD98R,0.06800X0.06300*%
%ADD99C,0.06800*%
G04:AMPARAMS|DCode=100|XSize=68mil|YSize=68mil|CornerRadius=19mil|HoleSize=0mil|Usage=FLASHONLY|Rotation=90.000|XOffset=0mil|YOffset=0mil|HoleType=Round|Shape=RoundedRectangle|*
%AMROUNDEDRECTD100*
21,1,0.06800,0.03000,0,0,90.0*
21,1,0.03000,0.06800,0,0,90.0*
1,1,0.03800,0.01500,0.01500*
1,1,0.03800,0.01500,-0.01500*
1,1,0.03800,-0.01500,-0.01500*
1,1,0.03800,-0.01500,0.01500*
%
%ADD100ROUNDEDRECTD100*%
%ADD101R,0.07000X0.07000*%
%ADD102C,0.07000*%
%ADD103O,0.06800X0.07200*%
%ADD104R,0.06800X0.07200*%
%ADD105O,0.10800X0.12800*%
%ADD106C,0.24200*%
%ADD107R,0.07000X0.07000*%
%ADD108C,0.10800*%
%ADD109C,0.08300*%
%ADD110C,0.05800*%
G04:AMPARAMS|DCode=111|XSize=58mil|YSize=58mil|CornerRadius=16.5mil|HoleSize=0mil|Usage=FLASHONLY|Rotation=180.000|XOffset=0mil|YOffset=0mil|HoleType=Round|Shape=RoundedRectangle|*
%AMROUNDEDRECTD111*
21,1,0.05800,0.02500,0,0,180.0*
21,1,0.02500,0.05800,0,0,180.0*
1,1,0.03300,-0.01250,0.01250*
1,1,0.03300,0.01250,0.01250*
1,1,0.03300,0.01250,-0.01250*
1,1,0.03300,-0.01250,-0.01250*
%
%ADD111ROUNDEDRECTD111*%
%ADD112C,0.06300*%
G04:AMPARAMS|DCode=113|XSize=63mil|YSize=63mil|CornerRadius=17.75mil|HoleSize=0mil|Usage=FLASHONLY|Rotation=180.000|XOffset=0mil|YOffset=0mil|HoleType=Round|Shape=RoundedRectangle|*
%AMROUNDEDRECTD113*
21,1,0.06300,0.02750,0,0,180.0*
21,1,0.02750,0.06300,0,0,180.0*
1,1,0.03550,-0.01375,0.01375*
1,1,0.03550,0.01375,0.01375*
1,1,0.03550,0.01375,-0.01375*
1,1,0.03550,-0.01375,-0.01375*
%
%ADD113ROUNDEDRECTD113*%
%ADD114R,0.09800X0.10800*%
%ADD115R,0.06800X0.03300*%
%ADD116R,0.03300X0.06800*%
%ADD117R,0.12600X0.07100*%
%ADD118R,0.26391X0.24422*%
G54D50*
X370000Y755000D02*
D03*
X0D02*
D03*
X370000Y0D02*
D03*
X0D02*
D03*
G54D80*
X357000Y552750D02*
D03*
Y560250D02*
D03*
X368000Y552750D02*
D03*
Y560250D02*
D03*
X341500Y455250D02*
D03*
Y447750D02*
D03*
X159500Y399750D02*
D03*
Y407250D02*
D03*
X354000Y495750D02*
D03*
Y503250D02*
D03*
X364000Y495750D02*
D03*
Y503250D02*
D03*
G54D82*
X267500Y715250D02*
D03*
Y694750D02*
D03*
G54D83*
X209250Y301500D02*
D03*
X200750Y298000D02*
D03*
X209250Y294500D02*
D03*
G54D84*
X160000Y428000D02*
D03*
X171000D02*
D03*
G54D86*
X207250Y313500D02*
D03*
X200750D02*
D03*
X182750Y724000D02*
D03*
X176250D02*
D03*
X163750Y700500D02*
D03*
X157250D02*
D03*
X179250Y686000D02*
D03*
X172750D02*
D03*
X89250Y712500D02*
D03*
X95750D02*
D03*
X89250Y720000D02*
D03*
X95750D02*
D03*
X89250Y705000D02*
D03*
X95750D02*
D03*
X89250Y697500D02*
D03*
X95750D02*
D03*
X195250Y439000D02*
D03*
X188750D02*
D03*
G54D87*
X157250Y741500D02*
D03*
X164750D02*
D03*
X196750Y427000D02*
D03*
X189250D02*
D03*
X14550Y413600D02*
D03*
X22050D02*
D03*
X188050Y690100D02*
D03*
X195550D02*
D03*
G54D88*
X15000Y593000D02*
D03*
Y582000D02*
D03*
X295500Y13900D02*
D03*
Y2900D02*
D03*
X275500Y13900D02*
D03*
Y2900D02*
D03*
X255500Y13900D02*
D03*
Y2900D02*
D03*
X235500Y13900D02*
D03*
Y2900D02*
D03*
X155500Y13900D02*
D03*
Y2900D02*
D03*
X175500Y13900D02*
D03*
Y2900D02*
D03*
X195500Y13900D02*
D03*
Y2900D02*
D03*
X215500Y13900D02*
D03*
Y2900D02*
D03*
X135500Y13900D02*
D03*
Y2900D02*
D03*
X115500Y13900D02*
D03*
Y2900D02*
D03*
X95500Y13900D02*
D03*
Y2900D02*
D03*
X75500Y13900D02*
D03*
Y2900D02*
D03*
X295000Y621500D02*
D03*
Y632500D02*
D03*
X32000Y637000D02*
D03*
Y626000D02*
D03*
X219000Y378000D02*
D03*
Y389000D02*
D03*
X195000Y399500D02*
D03*
Y410500D02*
D03*
X205500Y399500D02*
D03*
Y410500D02*
D03*
X177000Y400000D02*
D03*
Y411000D02*
D03*
X168000Y400000D02*
D03*
Y411000D02*
D03*
X151000Y400500D02*
D03*
Y411500D02*
D03*
G54D89*
X34000Y684250D02*
D03*
Y690750D02*
D03*
X208000Y703750D02*
D03*
Y697250D02*
D03*
X203500Y433750D02*
D03*
Y427250D02*
D03*
X119500Y665250D02*
D03*
Y671750D02*
D03*
X287900Y746250D02*
D03*
Y739750D02*
D03*
X297900Y746250D02*
D03*
Y739750D02*
D03*
X307900Y746250D02*
D03*
Y739750D02*
D03*
X317900Y746250D02*
D03*
Y739750D02*
D03*
X247900Y746250D02*
D03*
Y739750D02*
D03*
X257900Y746250D02*
D03*
Y739750D02*
D03*
X267900Y746250D02*
D03*
Y739750D02*
D03*
X277900Y746250D02*
D03*
Y739750D02*
D03*
X157000Y373750D02*
D03*
Y380250D02*
D03*
X214500Y408250D02*
D03*
Y401750D02*
D03*
G54D99*
X10700Y96800D02*
D03*
Y106800D02*
D03*
X41273Y147700D02*
D03*
Y157700D02*
D03*
X102818Y147700D02*
D03*
Y157700D02*
D03*
X133791Y96800D02*
D03*
Y106800D02*
D03*
X164364Y147700D02*
D03*
Y157700D02*
D03*
X195336Y96800D02*
D03*
Y106800D02*
D03*
X225909Y147700D02*
D03*
Y157700D02*
D03*
X287455Y147700D02*
D03*
Y157700D02*
D03*
X318427Y96800D02*
D03*
Y106800D02*
D03*
X349000Y147700D02*
D03*
Y157700D02*
D03*
X256882Y96800D02*
D03*
Y106800D02*
D03*
X72245Y96800D02*
D03*
Y106800D02*
D03*
G54D100*
X10700Y86800D02*
D03*
X41273Y137700D02*
D03*
X102818D02*
D03*
X133791Y86800D02*
D03*
X164364Y137700D02*
D03*
X195336Y86800D02*
D03*
X225909Y137700D02*
D03*
X287455D02*
D03*
X318427Y86800D02*
D03*
X349000Y137700D02*
D03*
X256882Y86800D02*
D03*
X5300Y400100D02*
D03*
Y450100D02*
D03*
X25300Y400100D02*
D03*
Y450100D02*
D03*
X72245Y86800D02*
D03*
G54D101*
X371400Y423000D02*
D03*
X342200Y433000D02*
D03*
G54D102*
X371400D02*
D03*
X342200Y423000D02*
D03*
X315000Y390000D02*
D03*
Y370000D02*
D03*
X300000D02*
D03*
Y390000D02*
D03*
X285000D02*
D03*
Y370000D02*
D03*
X270000Y390000D02*
D03*
Y370000D02*
D03*
X255000Y390000D02*
D03*
Y370000D02*
D03*
X240000Y390000D02*
D03*
Y370000D02*
D03*
X54800Y370500D02*
D03*
Y390500D02*
D03*
X69800Y370500D02*
D03*
Y390500D02*
D03*
X84800Y370500D02*
D03*
Y390500D02*
D03*
X99800Y370500D02*
D03*
Y390500D02*
D03*
X114800Y370500D02*
D03*
Y390500D02*
D03*
X129800Y370500D02*
D03*
Y390500D02*
D03*
X32000Y615500D02*
D03*
X347700Y398700D02*
D03*
G54D103*
X235000Y605000D02*
D03*
X295000D02*
D03*
X265000D02*
D03*
X295000Y575000D02*
D03*
X265000D02*
D03*
X255000Y605000D02*
D03*
X245000D02*
D03*
X285000D02*
D03*
X275000D02*
D03*
X305000D02*
D03*
X245000Y575000D02*
D03*
X255000D02*
D03*
X285000D02*
D03*
X275000D02*
D03*
X305000D02*
D03*
X145000Y605000D02*
D03*
X205000D02*
D03*
X175000D02*
D03*
X205000Y575000D02*
D03*
X175000D02*
D03*
X165000Y605000D02*
D03*
X155000D02*
D03*
X195000D02*
D03*
X185000D02*
D03*
X215000D02*
D03*
X155000Y575000D02*
D03*
X165000D02*
D03*
X195000D02*
D03*
X185000D02*
D03*
X215000D02*
D03*
X55000Y605000D02*
D03*
X115000D02*
D03*
X85000D02*
D03*
X115000Y575000D02*
D03*
X85000D02*
D03*
X75000Y605000D02*
D03*
X65000D02*
D03*
X105000D02*
D03*
X95000D02*
D03*
X125000D02*
D03*
X65000Y575000D02*
D03*
X75000D02*
D03*
X105000D02*
D03*
X95000D02*
D03*
X125000D02*
D03*
X320000Y499500D02*
D03*
Y529500D02*
D03*
X330000Y499500D02*
D03*
X300000D02*
D03*
X310000D02*
D03*
X300000Y529500D02*
D03*
X310000D02*
D03*
X270000Y499500D02*
D03*
Y529500D02*
D03*
X280000Y499500D02*
D03*
X250000D02*
D03*
X260000D02*
D03*
X250000Y529500D02*
D03*
X260000D02*
D03*
X220000Y499500D02*
D03*
Y529500D02*
D03*
X230000Y499500D02*
D03*
X200000D02*
D03*
X210000D02*
D03*
X200000Y529500D02*
D03*
X210000D02*
D03*
X170000Y499500D02*
D03*
Y529500D02*
D03*
X180000Y499500D02*
D03*
X150000D02*
D03*
X160000D02*
D03*
X150000Y529500D02*
D03*
X160000D02*
D03*
X120000Y499500D02*
D03*
Y529500D02*
D03*
X130000Y499500D02*
D03*
X100000D02*
D03*
X110000D02*
D03*
X100000Y529500D02*
D03*
X110000D02*
D03*
X70000Y499500D02*
D03*
Y529500D02*
D03*
X80000Y499500D02*
D03*
X50000D02*
D03*
X60000D02*
D03*
X50000Y529500D02*
D03*
X60000D02*
D03*
G54D104*
X235000Y575000D02*
D03*
X145000D02*
D03*
X55000D02*
D03*
X330000Y529500D02*
D03*
X280000D02*
D03*
X230000D02*
D03*
X180000D02*
D03*
X130000D02*
D03*
X80000D02*
D03*
G54D105*
X234213Y28400D02*
D03*
X273583D02*
D03*
X293268D02*
D03*
X253898D02*
D03*
X175158D02*
D03*
X116103D02*
D03*
X214528D02*
D03*
X194843D02*
D03*
X155473D02*
D03*
X135787D02*
D03*
X96417D02*
D03*
X76732D02*
D03*
G54D106*
X350000Y735000D02*
D03*
X20000D02*
D03*
X350000Y20000D02*
D03*
X20000D02*
D03*
G54D107*
X22000Y615500D02*
D03*
X357700Y398700D02*
D03*
G54D108*
X16000Y237500D02*
D03*
Y267500D02*
D03*
Y297500D02*
D03*
Y252500D02*
D03*
Y282500D02*
D03*
Y312500D02*
D03*
Y372500D02*
D03*
Y342500D02*
D03*
Y357500D02*
D03*
Y327500D02*
D03*
X354000Y237500D02*
D03*
Y267500D02*
D03*
Y297500D02*
D03*
Y252500D02*
D03*
Y282500D02*
D03*
Y312500D02*
D03*
Y372500D02*
D03*
Y342500D02*
D03*
Y357500D02*
D03*
Y327500D02*
D03*
G54D109*
X-2400Y425100D02*
D03*
X33000D02*
D03*
G54D110*
X168000Y203000D02*
D03*
X178000D02*
D03*
X188000D02*
D03*
X208000D02*
D03*
G54D111*
X218000D02*
D03*
G54D112*
X218300Y687800D02*
D03*
G54D113*
Y677800D02*
D03*
G54D114*
X355000Y690000D02*
D03*
Y673000D02*
D03*
X301000D02*
D03*
Y690000D02*
D03*
G54D115*
X24750Y682500D02*
D03*
Y692500D02*
D03*
Y687500D02*
D03*
X3250Y682500D02*
D03*
Y692500D02*
D03*
Y687500D02*
D03*
X24750Y697500D02*
D03*
X3250D02*
D03*
G54D116*
X365500Y479750D02*
D03*
X355500D02*
D03*
X360500D02*
D03*
X365500Y458250D02*
D03*
X355500D02*
D03*
X360500D02*
D03*
X350500Y479750D02*
D03*
Y458250D02*
D03*
G54D117*
X170197Y389055D02*
D03*
Y370945D02*
D03*
G54D118*
X194803Y380000D02*
D03*
M02*
