%FSLAX25Y25*%
%MOIN*%
G70*
G01*
G75*
G04 Layer_Physical_Order=2*
G04 Layer_Color=16711680*
%ADD10R,0.09000X0.06500*%
%ADD11R,0.07000X0.08000*%
%ADD12R,0.05906X0.05118*%
%ADD13R,0.12500X0.06000*%
%ADD14R,0.06000X0.12500*%
%ADD15R,0.05600X0.03600*%
%ADD16R,0.06299X0.07087*%
%ADD17R,0.10630X0.07087*%
%ADD18R,0.04331X0.03937*%
%ADD19R,0.05118X0.05906*%
%ADD20C,0.05000*%
%ADD21R,0.07087X0.06299*%
%ADD22R,0.03937X0.04331*%
%ADD23R,0.06000X0.08500*%
%ADD24R,0.01181X0.05118*%
%ADD25R,0.07087X0.08661*%
%ADD26O,0.01181X0.07087*%
%ADD27O,0.07087X0.01181*%
%ADD28R,0.14500X0.05000*%
%ADD29R,0.10000X0.07000*%
%ADD30R,0.20000X0.07000*%
%ADD31R,0.06000X0.05500*%
%ADD32C,0.00800*%
%ADD33C,0.01000*%
%ADD34C,0.05000*%
%ADD35C,0.02000*%
%ADD36C,0.08000*%
%ADD37C,0.02500*%
%ADD38C,0.01200*%
%ADD39C,0.13000*%
%ADD40C,0.10000*%
%ADD41C,0.06000*%
G04:AMPARAMS|DCode=42|XSize=60mil|YSize=60mil|CornerRadius=15mil|HoleSize=0mil|Usage=FLASHONLY|Rotation=90.000|XOffset=0mil|YOffset=0mil|HoleType=Round|Shape=RoundedRectangle|*
%AMROUNDEDRECTD42*
21,1,0.06000,0.03000,0,0,90.0*
21,1,0.03000,0.06000,0,0,90.0*
1,1,0.03000,0.01500,0.01500*
1,1,0.03000,0.01500,-0.01500*
1,1,0.03000,-0.01500,-0.01500*
1,1,0.03000,-0.01500,0.01500*
%
%ADD42ROUNDEDRECTD42*%
%ADD43R,0.06200X0.06200*%
%ADD44C,0.06200*%
%ADD45O,0.06000X0.06400*%
%ADD46R,0.06000X0.06400*%
%ADD47O,0.10000X0.12000*%
%ADD48C,0.23400*%
%ADD49R,0.06200X0.06200*%
%ADD50C,0.10000*%
%ADD51C,0.07500*%
G04:AMPARAMS|DCode=52|XSize=50mil|YSize=50mil|CornerRadius=12.5mil|HoleSize=0mil|Usage=FLASHONLY|Rotation=180.000|XOffset=0mil|YOffset=0mil|HoleType=Round|Shape=RoundedRectangle|*
%AMROUNDEDRECTD52*
21,1,0.05000,0.02500,0,0,180.0*
21,1,0.02500,0.05000,0,0,180.0*
1,1,0.02500,-0.01250,0.01250*
1,1,0.02500,0.01250,0.01250*
1,1,0.02500,0.01250,-0.01250*
1,1,0.02500,-0.01250,-0.01250*
%
%ADD52ROUNDEDRECTD52*%
%ADD53C,0.05500*%
G04:AMPARAMS|DCode=54|XSize=55mil|YSize=55mil|CornerRadius=13.75mil|HoleSize=0mil|Usage=FLASHONLY|Rotation=180.000|XOffset=0mil|YOffset=0mil|HoleType=Round|Shape=RoundedRectangle|*
%AMROUNDEDRECTD54*
21,1,0.05500,0.02750,0,0,180.0*
21,1,0.02750,0.05500,0,0,180.0*
1,1,0.02750,-0.01375,0.01375*
1,1,0.02750,0.01375,0.01375*
1,1,0.02750,0.01375,-0.01375*
1,1,0.02750,-0.01375,-0.01375*
%
%ADD54ROUNDEDRECTD54*%
%ADD55C,0.03000*%
%ADD56C,0.08000*%
%ADD57R,0.09000X0.10000*%
%ADD58R,0.06000X0.02500*%
%ADD59R,0.02500X0.06000*%
%ADD60R,0.11800X0.06300*%
%ADD61R,0.25590X0.23622*%
%ADD62C,0.03000*%
G36*
X366000Y751000D02*
X367706Y750360D01*
X368089Y749726D01*
X368089D01*
X368089Y749726D01*
Y742133D01*
X367289Y741974D01*
X366768Y743232D01*
X358232Y751768D01*
X356464Y752500D01*
X343536D01*
X341768Y751768D01*
X333232Y743232D01*
X332500Y741465D01*
Y728536D01*
X333232Y726768D01*
X341768Y718232D01*
X343536Y717500D01*
X356464D01*
X358232Y718232D01*
X366768Y726768D01*
X367289Y728026D01*
X368089Y727867D01*
Y708200D01*
X370000D01*
Y654094D01*
X369200Y654041D01*
X369189Y654122D01*
X368756Y655168D01*
X368067Y656067D01*
X367169Y656756D01*
X366123Y657189D01*
X365000Y657337D01*
X363878Y657189D01*
X362831Y656756D01*
X361933Y656067D01*
X361244Y655168D01*
X360811Y654122D01*
X360663Y653000D01*
X360811Y651877D01*
X361244Y650832D01*
X361488Y650514D01*
X361055Y649764D01*
X360500Y649837D01*
X359378Y649689D01*
X358331Y649256D01*
X357433Y648567D01*
X356744Y647669D01*
X356311Y646623D01*
X356163Y645500D01*
X356265Y644726D01*
X355270Y643730D01*
X354739Y642936D01*
X354708Y642781D01*
X354553Y642000D01*
Y564609D01*
X352247D01*
Y555891D01*
Y548391D01*
X354424D01*
Y533554D01*
X353744Y532668D01*
X353311Y531623D01*
X353163Y530500D01*
X353311Y529378D01*
X353610Y528655D01*
X352932Y528202D01*
X351337Y529797D01*
Y555500D01*
X351189Y556623D01*
X350756Y557668D01*
X350067Y558567D01*
X349169Y559256D01*
X348123Y559689D01*
X347000Y559837D01*
X345878Y559689D01*
X345742Y559633D01*
X345076Y560077D01*
Y644226D01*
X353871Y653020D01*
X354378Y652811D01*
X355500Y652663D01*
X356623Y652811D01*
X357669Y653244D01*
X358567Y653933D01*
X359256Y654832D01*
X359689Y655877D01*
X359837Y657000D01*
Y666200D01*
X361300D01*
Y679800D01*
X348700D01*
Y666200D01*
X351163D01*
Y659014D01*
X339825Y647675D01*
X339336Y647038D01*
X339029Y646296D01*
X338924Y645500D01*
Y547378D01*
X338860Y547319D01*
X338124Y547030D01*
X337664Y547382D01*
X337329Y547521D01*
X317076Y567774D01*
Y583000D01*
X317076Y583000D01*
X316971Y583796D01*
X316664Y584538D01*
X316175Y585175D01*
X308175Y593175D01*
X307538Y593664D01*
X306796Y593971D01*
X306000Y594076D01*
X299274D01*
X298076Y595274D01*
Y601110D01*
X298423Y601377D01*
X299193Y602379D01*
X299584Y603325D01*
X300416D01*
X300807Y602379D01*
X301577Y601377D01*
X302579Y600607D01*
X303747Y600124D01*
X305000Y599959D01*
X306253Y600124D01*
X307421Y600607D01*
X308423Y601377D01*
X309193Y602379D01*
X309677Y603547D01*
X309841Y604800D01*
Y605200D01*
X309677Y606453D01*
X309193Y607621D01*
X308423Y608623D01*
X307421Y609393D01*
X306253Y609876D01*
X305000Y610041D01*
X303747Y609876D01*
X302579Y609393D01*
X301577Y608623D01*
X300807Y607621D01*
X300525Y606940D01*
X299676Y606889D01*
X299337Y607373D01*
Y616550D01*
X300343D01*
Y626450D01*
X289657D01*
Y616550D01*
X290663D01*
Y607272D01*
X290416Y606675D01*
X289584D01*
X289193Y607621D01*
X288423Y608623D01*
X287421Y609393D01*
X286253Y609876D01*
X285000Y610041D01*
X283747Y609876D01*
X282579Y609393D01*
X281577Y608623D01*
X280807Y607621D01*
X280416Y606675D01*
X279584D01*
X279193Y607621D01*
X278423Y608623D01*
X277421Y609393D01*
X276253Y609876D01*
X275000Y610041D01*
X273747Y609876D01*
X272579Y609393D01*
X271577Y608623D01*
X270807Y607621D01*
X270416Y606675D01*
X269584D01*
X269193Y607621D01*
X268423Y608623D01*
X267421Y609393D01*
X266253Y609876D01*
X265000Y610041D01*
X263747Y609876D01*
X262579Y609393D01*
X261577Y608623D01*
X260807Y607621D01*
X260416Y606675D01*
X259584D01*
X259193Y607621D01*
X258423Y608623D01*
X257421Y609393D01*
X256253Y609876D01*
X255000Y610041D01*
X253747Y609876D01*
X252579Y609393D01*
X251577Y608623D01*
X250807Y607621D01*
X250416Y606675D01*
X249584D01*
X249193Y607621D01*
X248423Y608623D01*
X247421Y609393D01*
X246253Y609876D01*
X245000Y610041D01*
X243747Y609876D01*
X242579Y609393D01*
X241577Y608623D01*
X240807Y607621D01*
X240416Y606675D01*
X239584D01*
X239193Y607621D01*
X238423Y608623D01*
X237421Y609393D01*
X236253Y609876D01*
X235000Y610041D01*
X233747Y609876D01*
X232579Y609393D01*
X231577Y608623D01*
X230807Y607621D01*
X230324Y606453D01*
X230159Y605200D01*
Y604800D01*
X230324Y603547D01*
X230807Y602379D01*
X231577Y601377D01*
X232579Y600607D01*
X233747Y600124D01*
X235000Y599959D01*
X236253Y600124D01*
X237421Y600607D01*
X238423Y601377D01*
X239193Y602379D01*
X239584Y603325D01*
X240416D01*
X240807Y602379D01*
X241577Y601377D01*
X242579Y600607D01*
X243747Y600124D01*
X245000Y599959D01*
X246253Y600124D01*
X247421Y600607D01*
X248423Y601377D01*
X249193Y602379D01*
X249584Y603325D01*
X250416D01*
X250807Y602379D01*
X251577Y601377D01*
X252579Y600607D01*
X253747Y600124D01*
X255000Y599959D01*
X256253Y600124D01*
X257421Y600607D01*
X258423Y601377D01*
X259193Y602379D01*
X259584Y603325D01*
X260416D01*
X260807Y602379D01*
X261577Y601377D01*
X262579Y600607D01*
X263747Y600124D01*
X265000Y599959D01*
X266253Y600124D01*
X267421Y600607D01*
X268423Y601377D01*
X269193Y602379D01*
X269584Y603325D01*
X270416D01*
X270807Y602379D01*
X271577Y601377D01*
X272579Y600607D01*
X273747Y600124D01*
X275000Y599959D01*
X276253Y600124D01*
X277421Y600607D01*
X278423Y601377D01*
X279193Y602379D01*
X279584Y603325D01*
X280416D01*
X280807Y602379D01*
X281577Y601377D01*
X282579Y600607D01*
X283747Y600124D01*
X285000Y599959D01*
X286253Y600124D01*
X287421Y600607D01*
X288423Y601377D01*
X289193Y602379D01*
X289584Y603325D01*
X290416D01*
X290807Y602379D01*
X291577Y601377D01*
X291924Y601110D01*
Y594000D01*
X292028Y593204D01*
X292336Y592462D01*
X292825Y591825D01*
X295825Y588825D01*
X296462Y588336D01*
X297204Y588028D01*
X298000Y587924D01*
X304726D01*
X310924Y581726D01*
Y566500D01*
X311029Y565704D01*
X311336Y564962D01*
X311825Y564325D01*
X332979Y543171D01*
X333118Y542836D01*
X332692Y542076D01*
X317274D01*
X298076Y561274D01*
Y571110D01*
X298423Y571377D01*
X299193Y572379D01*
X299584Y573325D01*
X300416D01*
X300807Y572379D01*
X301577Y571377D01*
X302579Y570607D01*
X303747Y570123D01*
X305000Y569959D01*
X306253Y570123D01*
X307421Y570607D01*
X308423Y571377D01*
X309193Y572379D01*
X309677Y573547D01*
X309841Y574800D01*
Y575200D01*
X309677Y576453D01*
X309193Y577621D01*
X308423Y578623D01*
X307421Y579393D01*
X306253Y579877D01*
X305000Y580041D01*
X303747Y579877D01*
X302579Y579393D01*
X301577Y578623D01*
X300807Y577621D01*
X300416Y576675D01*
X299584D01*
X299193Y577621D01*
X298423Y578623D01*
X297421Y579393D01*
X296253Y579877D01*
X295000Y580041D01*
X293747Y579877D01*
X292579Y579393D01*
X291577Y578623D01*
X290807Y577621D01*
X290416Y576675D01*
X289584D01*
X289193Y577621D01*
X288423Y578623D01*
X287421Y579393D01*
X286253Y579877D01*
X285000Y580041D01*
X283747Y579877D01*
X282579Y579393D01*
X281577Y578623D01*
X280807Y577621D01*
X280416Y576675D01*
X279584D01*
X279193Y577621D01*
X278423Y578623D01*
X277421Y579393D01*
X276253Y579877D01*
X275000Y580041D01*
X273747Y579877D01*
X272579Y579393D01*
X271577Y578623D01*
X270807Y577621D01*
X270416Y576675D01*
X269584D01*
X269193Y577621D01*
X268423Y578623D01*
X267421Y579393D01*
X266253Y579877D01*
X265000Y580041D01*
X263747Y579877D01*
X262579Y579393D01*
X261577Y578623D01*
X260807Y577621D01*
X260416Y576675D01*
X259584D01*
X259193Y577621D01*
X258423Y578623D01*
X257421Y579393D01*
X256253Y579877D01*
X255000Y580041D01*
X253747Y579877D01*
X252579Y579393D01*
X251577Y578623D01*
X250807Y577621D01*
X250416Y576675D01*
X249584D01*
X249193Y577621D01*
X248423Y578623D01*
X247421Y579393D01*
X246253Y579877D01*
X245000Y580041D01*
X243747Y579877D01*
X242579Y579393D01*
X241577Y578623D01*
X240807Y577621D01*
X240600Y577120D01*
X239800Y577280D01*
Y580000D01*
X230200D01*
Y570000D01*
X231924D01*
Y567200D01*
X232029Y566404D01*
X232336Y565662D01*
X232825Y565025D01*
X238724Y559126D01*
Y542172D01*
X237985Y541866D01*
X208445Y571405D01*
X209193Y572379D01*
X209584Y573325D01*
X210416D01*
X210807Y572379D01*
X211577Y571377D01*
X212579Y570607D01*
X213747Y570123D01*
X215000Y569959D01*
X216253Y570123D01*
X217421Y570607D01*
X218423Y571377D01*
X219193Y572379D01*
X219676Y573547D01*
X219841Y574800D01*
Y575200D01*
X219676Y576453D01*
X219193Y577621D01*
X218423Y578623D01*
X217421Y579393D01*
X216253Y579877D01*
X215000Y580041D01*
X213747Y579877D01*
X212579Y579393D01*
X211577Y578623D01*
X210807Y577621D01*
X210416Y576675D01*
X209584D01*
X209193Y577621D01*
X208423Y578623D01*
X207421Y579393D01*
X206253Y579877D01*
X205000Y580041D01*
X203747Y579877D01*
X202579Y579393D01*
X201577Y578623D01*
X200807Y577621D01*
X200416Y576675D01*
X199584D01*
X199193Y577621D01*
X198423Y578623D01*
X197421Y579393D01*
X196253Y579877D01*
X195000Y580041D01*
X193747Y579877D01*
X192579Y579393D01*
X191577Y578623D01*
X190807Y577621D01*
X190416Y576675D01*
X189584D01*
X189193Y577621D01*
X188423Y578623D01*
X187421Y579393D01*
X186253Y579877D01*
X185000Y580041D01*
X183747Y579877D01*
X183043Y579585D01*
X182243Y580102D01*
Y584371D01*
X185829Y587957D01*
X217100D01*
X217958Y588128D01*
X218686Y588614D01*
X225886Y595814D01*
X226372Y596542D01*
X226543Y597400D01*
Y614108D01*
X226854Y614346D01*
X227382Y615036D01*
X227715Y615838D01*
X227829Y616700D01*
X227715Y617561D01*
X227382Y618364D01*
X226854Y619054D01*
X226164Y619583D01*
X225361Y619915D01*
X224500Y620028D01*
X223639Y619915D01*
X222836Y619583D01*
X222146Y619054D01*
X221618Y618364D01*
X221285Y617561D01*
X221171Y616700D01*
X221285Y615838D01*
X221618Y615036D01*
X222057Y614463D01*
Y598329D01*
X216171Y592443D01*
X184900D01*
X184042Y592272D01*
X183314Y591786D01*
X178414Y586886D01*
X177928Y586158D01*
X177757Y585300D01*
Y580102D01*
X176957Y579585D01*
X176253Y579877D01*
X175000Y580041D01*
X173747Y579877D01*
X172579Y579393D01*
X171577Y578623D01*
X170807Y577621D01*
X170416Y576675D01*
X169584D01*
X169193Y577621D01*
X168423Y578623D01*
X167421Y579393D01*
X166253Y579877D01*
X165000Y580041D01*
X163747Y579877D01*
X162579Y579393D01*
X161577Y578623D01*
X160807Y577621D01*
X160416Y576675D01*
X159584D01*
X159193Y577621D01*
X158423Y578623D01*
X157421Y579393D01*
X156253Y579877D01*
X155000Y580041D01*
X153747Y579877D01*
X152579Y579393D01*
X151577Y578623D01*
X150807Y577621D01*
X150600Y577120D01*
X149800Y577280D01*
Y580000D01*
X140200D01*
Y570000D01*
X141924D01*
Y567074D01*
X139625Y564775D01*
X139136Y564138D01*
X138829Y563396D01*
X138724Y562600D01*
Y541172D01*
X137985Y540866D01*
X118076Y560774D01*
Y571110D01*
X118423Y571377D01*
X119193Y572379D01*
X119584Y573325D01*
X120416D01*
X120807Y572379D01*
X121577Y571377D01*
X122579Y570607D01*
X123747Y570123D01*
X125000Y569959D01*
X126253Y570123D01*
X127421Y570607D01*
X128423Y571377D01*
X129193Y572379D01*
X129676Y573547D01*
X129841Y574800D01*
Y575200D01*
X129676Y576453D01*
X129193Y577621D01*
X128423Y578623D01*
X127421Y579393D01*
X126253Y579877D01*
X125000Y580041D01*
X123747Y579877D01*
X122579Y579393D01*
X121577Y578623D01*
X120807Y577621D01*
X120416Y576675D01*
X119584D01*
X119193Y577621D01*
X118423Y578623D01*
X117421Y579393D01*
X116253Y579877D01*
X115000Y580041D01*
X113747Y579877D01*
X112579Y579393D01*
X111577Y578623D01*
X110807Y577621D01*
X110416Y576675D01*
X109584D01*
X109193Y577621D01*
X108423Y578623D01*
X107421Y579393D01*
X106253Y579877D01*
X105000Y580041D01*
X103747Y579877D01*
X102579Y579393D01*
X101577Y578623D01*
X100807Y577621D01*
X100416Y576675D01*
X99584D01*
X99193Y577621D01*
X98423Y578623D01*
X97421Y579393D01*
X96253Y579877D01*
X95000Y580041D01*
X93747Y579877D01*
X92579Y579393D01*
X91577Y578623D01*
X90807Y577621D01*
X90416Y576675D01*
X89584D01*
X89193Y577621D01*
X88423Y578623D01*
X87421Y579393D01*
X86253Y579877D01*
X85000Y580041D01*
X83747Y579877D01*
X82579Y579393D01*
X81577Y578623D01*
X80807Y577621D01*
X80416Y576675D01*
X79584D01*
X79193Y577621D01*
X78423Y578623D01*
X77421Y579393D01*
X76253Y579877D01*
X75000Y580041D01*
X73747Y579877D01*
X72579Y579393D01*
X71577Y578623D01*
X70807Y577621D01*
X70525Y576940D01*
X69676Y576889D01*
X69337Y577373D01*
Y579800D01*
X69207Y580792D01*
X69189Y580923D01*
X68756Y581969D01*
X68067Y582867D01*
X64167Y586767D01*
X63269Y587456D01*
X62222Y587889D01*
X61100Y588037D01*
X49529D01*
X49198Y588837D01*
X52414Y592053D01*
X131400D01*
X132181Y592208D01*
X132336Y592239D01*
X133130Y592770D01*
X136630Y596270D01*
X137161Y597064D01*
X137347Y598000D01*
Y633358D01*
X137967Y633833D01*
X138656Y634731D01*
X139089Y635778D01*
X139237Y636900D01*
X139089Y638023D01*
X138656Y639069D01*
X137967Y639967D01*
X137069Y640656D01*
X136022Y641089D01*
X134900Y641237D01*
X133777Y641089D01*
X132731Y640656D01*
X131833Y639967D01*
X131144Y639069D01*
X130711Y638023D01*
X130563Y636900D01*
X130711Y635778D01*
X131144Y634731D01*
X131833Y633833D01*
X132453Y633358D01*
Y599014D01*
X130386Y596947D01*
X51400D01*
X50464Y596761D01*
X50200Y596585D01*
X49670Y596230D01*
X31850Y578411D01*
X31006Y578698D01*
X30989Y578823D01*
X30556Y579869D01*
X29867Y580767D01*
X28969Y581456D01*
X27922Y581889D01*
X26800Y582037D01*
X20343D01*
Y586950D01*
X9657D01*
Y582037D01*
X4700D01*
X3577Y581889D01*
X2531Y581456D01*
X1633Y580767D01*
X944Y579869D01*
X800Y579521D01*
X0Y579680D01*
Y601623D01*
X496Y602004D01*
X1057Y602735D01*
X1410Y603586D01*
X1464Y604000D01*
X-2000D01*
Y605000D01*
X1464D01*
X1410Y605414D01*
X1057Y606265D01*
X496Y606996D01*
X0Y607377D01*
Y655623D01*
X496Y656004D01*
X1057Y656735D01*
X1410Y657586D01*
X1464Y658000D01*
X-2000D01*
Y659000D01*
X1464D01*
X1410Y659414D01*
X1057Y660265D01*
X496Y660996D01*
X0Y661377D01*
Y662954D01*
X665Y663399D01*
X878Y663311D01*
X2000Y663163D01*
X3122Y663311D01*
X4169Y663744D01*
X5067Y664433D01*
X5699Y665257D01*
X50000D01*
X50858Y665428D01*
X51586Y665914D01*
X65929Y680257D01*
X85209D01*
X85667Y679601D01*
X85641Y679457D01*
X85550Y679000D01*
X90450D01*
X90359Y679457D01*
X90333Y679601D01*
X90791Y680257D01*
X116941D01*
X117066Y680108D01*
X117296Y679457D01*
X116918Y678964D01*
X116585Y678161D01*
X116472Y677300D01*
X116575Y676515D01*
X116528Y676259D01*
X116165Y675715D01*
X115732D01*
Y667785D01*
X116532D01*
Y665750D01*
X122468D01*
Y667785D01*
X123268D01*
Y674962D01*
X123268Y675715D01*
Y675715D01*
X123042Y676424D01*
X123025Y676515D01*
X123128Y677300D01*
X123015Y678161D01*
X122682Y678964D01*
X122304Y679457D01*
X122535Y680108D01*
X122659Y680257D01*
X152471D01*
X158590Y674138D01*
X158572Y674000D01*
X158685Y673139D01*
X159018Y672336D01*
X159546Y671646D01*
X160236Y671117D01*
X161038Y670785D01*
X161900Y670672D01*
X162761Y670785D01*
X163319Y671016D01*
X163517Y670536D01*
X164046Y669846D01*
X164736Y669317D01*
X165539Y668985D01*
X166400Y668871D01*
X167262Y668985D01*
X168064Y669317D01*
X168754Y669846D01*
X169282Y670536D01*
X169615Y671339D01*
X169729Y672200D01*
X169686Y672522D01*
X170444Y672896D01*
X171953Y671386D01*
Y668514D01*
X169186Y665747D01*
X138142D01*
X137667Y666367D01*
X136769Y667056D01*
X135722Y667489D01*
X134600Y667637D01*
X133477Y667489D01*
X132431Y667056D01*
X131533Y666367D01*
X130844Y665469D01*
X130411Y664423D01*
X130263Y663300D01*
X130411Y662178D01*
X130844Y661131D01*
X131533Y660233D01*
X132431Y659544D01*
X133477Y659111D01*
X134600Y658963D01*
X135722Y659111D01*
X136769Y659544D01*
X137667Y660233D01*
X138142Y660853D01*
X170200D01*
X170981Y661008D01*
X171136Y661039D01*
X171930Y661570D01*
X176130Y665770D01*
X176661Y666564D01*
X176847Y667500D01*
Y672400D01*
X176661Y673336D01*
X176130Y674130D01*
X168829Y681431D01*
X169160Y682232D01*
X176715D01*
Y683032D01*
X178750D01*
Y686000D01*
Y688969D01*
X176715D01*
Y689769D01*
X169105D01*
X168983Y690064D01*
X168454Y690754D01*
X167764Y691283D01*
X166962Y691615D01*
X166100Y691728D01*
X165238Y691615D01*
X164436Y691283D01*
X163746Y690754D01*
X163217Y690064D01*
X162885Y689261D01*
X162797Y688595D01*
X162298Y688328D01*
X161980Y688280D01*
X155030Y695230D01*
X154236Y695761D01*
X154081Y695792D01*
X153378Y695931D01*
X153457Y696732D01*
X161215D01*
Y697532D01*
X163250D01*
Y700500D01*
Y703469D01*
X161215D01*
Y704269D01*
X153285D01*
Y702845D01*
X151114D01*
X150954Y703054D01*
X150945Y703060D01*
Y721100D01*
X150767Y721997D01*
X150258Y722758D01*
X149627Y723389D01*
X149628Y723400D01*
X149515Y724262D01*
X149436Y724453D01*
X149970Y725253D01*
X153186D01*
X154992Y723448D01*
X155085Y722739D01*
X155418Y721936D01*
X155946Y721246D01*
X156636Y720717D01*
X157439Y720385D01*
X158300Y720271D01*
X159161Y720385D01*
X159964Y720717D01*
X160654Y721246D01*
X161182Y721936D01*
X161515Y722739D01*
X161628Y723600D01*
X161515Y724462D01*
X161182Y725264D01*
X160654Y725954D01*
X159964Y726482D01*
X159161Y726815D01*
X158452Y726908D01*
X155930Y729430D01*
X155136Y729961D01*
X154981Y729992D01*
X154200Y730147D01*
X142800D01*
X142019Y729992D01*
X141864Y729961D01*
X141070Y729430D01*
X138670Y727030D01*
X138139Y726236D01*
X138108Y726081D01*
X137953Y725300D01*
Y699400D01*
X138108Y698619D01*
X138139Y698464D01*
X138670Y697670D01*
X144570Y691770D01*
X145364Y691239D01*
X145519Y691208D01*
X146300Y691053D01*
X152286D01*
X156320Y687019D01*
X155926Y686282D01*
X155618Y686343D01*
X152429D01*
X149686Y689086D01*
X148958Y689572D01*
X148100Y689743D01*
X135435D01*
X135010Y690543D01*
X135215Y691039D01*
X135328Y691900D01*
X135215Y692762D01*
X134882Y693564D01*
X134354Y694254D01*
X133664Y694782D01*
X132861Y695115D01*
X132000Y695228D01*
X131139Y695115D01*
X130336Y694782D01*
X129646Y694254D01*
X129118Y693564D01*
X128785Y692762D01*
X128672Y691900D01*
X128078Y691343D01*
X88029D01*
X86243Y693129D01*
Y694531D01*
X88750D01*
Y697500D01*
Y700468D01*
X86243D01*
Y702032D01*
X88750D01*
Y705000D01*
Y707969D01*
X86243D01*
Y709531D01*
X88750D01*
Y712500D01*
Y715469D01*
X86243D01*
Y717031D01*
X88750D01*
Y720000D01*
Y722968D01*
X86243D01*
Y725686D01*
X87043Y725929D01*
X87198Y725698D01*
X88024Y725145D01*
X88500Y725050D01*
Y727500D01*
Y729950D01*
X88024Y729855D01*
X87198Y729302D01*
X87043Y729071D01*
X86243Y729314D01*
Y743356D01*
X87043Y743515D01*
X87117Y743336D01*
X87646Y742646D01*
X88336Y742118D01*
X88671Y741979D01*
X91325Y739325D01*
X91325Y739325D01*
X91601Y739112D01*
X91962Y738836D01*
X92704Y738528D01*
X93500Y738424D01*
X93500Y738424D01*
X152891D01*
Y736747D01*
X169109D01*
Y738553D01*
X172351D01*
X172661Y738090D01*
X172771Y737753D01*
X172671Y737000D01*
X172785Y736138D01*
X173117Y735336D01*
X173646Y734646D01*
X174336Y734118D01*
X175138Y733785D01*
X176000Y733672D01*
X176862Y733785D01*
X177664Y734118D01*
X178232Y734553D01*
X182486D01*
X189053Y727986D01*
Y714500D01*
X189208Y713719D01*
X189239Y713564D01*
X189770Y712770D01*
X193770Y708770D01*
X194300Y708415D01*
X194564Y708239D01*
X195500Y708053D01*
X211441D01*
X211446Y708046D01*
X212136Y707517D01*
X212938Y707185D01*
X213800Y707071D01*
X214662Y707185D01*
X215464Y707517D01*
X216154Y708046D01*
X216683Y708736D01*
X217015Y709539D01*
X217128Y710400D01*
X217016Y711253D01*
X216995Y711424D01*
X217492Y712053D01*
X226586D01*
X228392Y710248D01*
X228440Y709876D01*
X227898Y709076D01*
X220000D01*
X220000Y709076D01*
X219204Y708972D01*
X218462Y708664D01*
X217825Y708175D01*
X211708Y702058D01*
X210968Y702364D01*
Y703250D01*
X205031D01*
Y701215D01*
X204232D01*
X204232Y701215D01*
Y701215D01*
X203462Y701254D01*
X203158Y701558D01*
X202397Y702067D01*
X201500Y702245D01*
X195757D01*
X195192Y703000D01*
X190217D01*
X189827Y702293D01*
X189653Y702216D01*
X188903Y702067D01*
X188142Y701558D01*
X187270Y700687D01*
X186536Y700383D01*
X185846Y699854D01*
X185318Y699164D01*
X184985Y698361D01*
X184871Y697500D01*
X184985Y696638D01*
X185318Y695836D01*
X185846Y695146D01*
X186229Y694853D01*
X185958Y694053D01*
X184491D01*
Y690600D01*
X188050D01*
Y690100D01*
X188550D01*
Y686147D01*
X191191D01*
Y685347D01*
X199909D01*
Y694853D01*
X197775D01*
X197717Y695147D01*
X197208Y695908D01*
X196527Y696589D01*
X196528Y696600D01*
X196508Y696755D01*
X197210Y697555D01*
X200529D01*
X202492Y695592D01*
X202492Y695592D01*
X203000Y695252D01*
X203253Y695083D01*
X204150Y694905D01*
X204232Y694135D01*
Y693285D01*
X211769D01*
Y694242D01*
X212046Y694278D01*
X212788Y694586D01*
X213425Y695075D01*
X221274Y702924D01*
X224198D01*
X224741Y702124D01*
X224672Y701600D01*
X224785Y700738D01*
X225117Y699936D01*
X225646Y699246D01*
X225655Y699240D01*
Y678671D01*
X225011Y678027D01*
X225000Y678028D01*
X224138Y677915D01*
X223336Y677583D01*
X222897Y677246D01*
X222115Y677572D01*
X222096Y677590D01*
Y679175D01*
X221912Y680102D01*
X221387Y680887D01*
X220602Y681412D01*
X219675Y681597D01*
X218800D01*
Y677800D01*
Y674004D01*
X219675D01*
X220602Y674188D01*
X220905Y674391D01*
X221763Y674002D01*
X221785Y673839D01*
X222117Y673036D01*
X222646Y672346D01*
X223336Y671817D01*
X224138Y671485D01*
X225000Y671372D01*
X225862Y671485D01*
X226664Y671817D01*
X227354Y672346D01*
X227883Y673036D01*
X228215Y673839D01*
X228328Y674700D01*
X228327Y674711D01*
X229658Y676042D01*
X230167Y676803D01*
X230345Y677700D01*
Y699240D01*
X230354Y699246D01*
X230883Y699936D01*
X231215Y700738D01*
X231304Y701414D01*
X231785Y701676D01*
X232118Y701731D01*
X234724Y699126D01*
Y694554D01*
X234044Y693669D01*
X233611Y692623D01*
X233463Y691500D01*
Y664896D01*
X224304Y655737D01*
X38700D01*
X37578Y655589D01*
X36531Y655156D01*
X36322Y654996D01*
X35633Y654467D01*
X30133Y648967D01*
X29444Y648069D01*
X29011Y647022D01*
X28863Y645900D01*
X29011Y644777D01*
X29444Y643731D01*
X30133Y642833D01*
X30242Y642750D01*
X29971Y641950D01*
X26657D01*
Y639522D01*
X26103Y639097D01*
X23503Y636497D01*
X23054Y635912D01*
X22855Y635430D01*
X22772Y635231D01*
X22676Y634500D01*
Y626170D01*
X22130Y625624D01*
X17940D01*
X17912Y625646D01*
X17231Y625928D01*
X17144Y625939D01*
X16962Y626015D01*
X16100Y626128D01*
X15238Y626015D01*
X14436Y625682D01*
X13746Y625154D01*
X13217Y624464D01*
X12885Y623662D01*
X12772Y622800D01*
X12885Y621939D01*
X13217Y621136D01*
X13746Y620446D01*
X14436Y619917D01*
X15238Y619585D01*
X16100Y619472D01*
X16300Y619498D01*
X17100Y618812D01*
Y610600D01*
X26900D01*
Y612918D01*
X27700Y613077D01*
X27720Y613029D01*
X28505Y612005D01*
X29529Y611220D01*
X30721Y610726D01*
X32000Y610558D01*
X33279Y610726D01*
X34471Y611220D01*
X35495Y612005D01*
X36280Y613029D01*
X36774Y614221D01*
X36942Y615500D01*
X36774Y616779D01*
X36280Y617971D01*
X35495Y618995D01*
X34824Y619509D01*
Y621050D01*
X37343D01*
Y630950D01*
X28324D01*
Y632050D01*
X37343D01*
Y641950D01*
X36429D01*
X36158Y642750D01*
X36267Y642833D01*
X40497Y647063D01*
X57410D01*
X57837Y646263D01*
X57645Y645975D01*
X57551Y645500D01*
X62450D01*
X62355Y645975D01*
X62163Y646263D01*
X62590Y647063D01*
X77409D01*
X77837Y646263D01*
X77645Y645975D01*
X77551Y645500D01*
X82450D01*
X82355Y645975D01*
X82163Y646263D01*
X82591Y647063D01*
X97409D01*
X97837Y646263D01*
X97645Y645975D01*
X97550Y645500D01*
X102450D01*
X102355Y645975D01*
X102163Y646263D01*
X102591Y647063D01*
X117410D01*
X117837Y646263D01*
X117645Y645975D01*
X117551Y645500D01*
X122450D01*
X122355Y645975D01*
X122163Y646263D01*
X122590Y647063D01*
X147409D01*
X147837Y646263D01*
X147645Y645975D01*
X147550Y645500D01*
X152450D01*
X152355Y645975D01*
X152163Y646263D01*
X152591Y647063D01*
X167410D01*
X167837Y646263D01*
X167645Y645975D01*
X167551Y645500D01*
X172450D01*
X172355Y645975D01*
X172163Y646263D01*
X172590Y647063D01*
X187409D01*
X187837Y646263D01*
X187645Y645975D01*
X187550Y645500D01*
X192449D01*
X192355Y645975D01*
X192163Y646263D01*
X192590Y647063D01*
X207410D01*
X207837Y646263D01*
X207645Y645975D01*
X207551Y645500D01*
X212450D01*
X212355Y645975D01*
X212163Y646263D01*
X212591Y647063D01*
X226100D01*
X227222Y647211D01*
X228269Y647644D01*
X229167Y648333D01*
X240867Y660033D01*
X241556Y660931D01*
X241989Y661977D01*
X242137Y663100D01*
Y687163D01*
X262700D01*
Y686700D01*
X272300D01*
Y687163D01*
X294700D01*
Y683200D01*
X307300D01*
Y685663D01*
X323000D01*
X324123Y685811D01*
X325169Y686244D01*
X326067Y686933D01*
X326756Y687831D01*
X327189Y688877D01*
X327337Y690000D01*
X327189Y691122D01*
X326756Y692169D01*
X326067Y693067D01*
X325169Y693756D01*
X324123Y694189D01*
X323000Y694337D01*
X307300D01*
Y696800D01*
X294700D01*
Y695837D01*
X272300D01*
Y702800D01*
X262700D01*
Y696084D01*
X262454Y695837D01*
X240876D01*
Y700400D01*
X240876Y700400D01*
X240772Y701196D01*
X240464Y701938D01*
X240188Y702299D01*
X239975Y702575D01*
X239975Y702575D01*
X234375Y708175D01*
X234343Y708423D01*
X234582Y708736D01*
X234915Y709539D01*
X235029Y710400D01*
X234915Y711262D01*
X234582Y712064D01*
X234054Y712754D01*
X233364Y713282D01*
X232561Y713615D01*
X231852Y713708D01*
X229330Y716230D01*
X228536Y716761D01*
X228381Y716792D01*
X227600Y716947D01*
X214539D01*
X214503Y717012D01*
X214333Y717747D01*
X214854Y718146D01*
X215383Y718836D01*
X215715Y719638D01*
X215828Y720500D01*
X215715Y721361D01*
X215383Y722164D01*
X214947Y722732D01*
Y734000D01*
X214792Y734781D01*
X214761Y734936D01*
X214230Y735730D01*
X199230Y750730D01*
X198436Y751261D01*
X198281Y751292D01*
X197500Y751447D01*
X189300D01*
Y755000D01*
X364500D01*
X366000Y751000D01*
D02*
G37*
G36*
X141571Y759710D02*
X141749Y759688D01*
X141927Y759655D01*
X142082Y759610D01*
X142382Y759488D01*
X142516Y759433D01*
X142627Y759366D01*
X142738Y759288D01*
X142827Y759233D01*
X142915Y759166D01*
X142982Y759110D01*
X143038Y759066D01*
X143071Y759033D01*
X143093Y759010D01*
X143104Y758999D01*
X143227Y758866D01*
X143327Y758710D01*
X143427Y758566D01*
X143504Y758411D01*
X143571Y758244D01*
X143627Y758088D01*
X143704Y757799D01*
X143738Y757655D01*
X143760Y757533D01*
X143771Y757411D01*
X143782Y757311D01*
X143793Y757233D01*
Y757177D01*
Y757133D01*
Y757122D01*
X143782Y756911D01*
X143760Y756722D01*
X143738Y756533D01*
X143693Y756355D01*
X143638Y756200D01*
X143582Y756044D01*
X143527Y755911D01*
X143460Y755789D01*
X143404Y755677D01*
X143349Y755577D01*
X143293Y755500D01*
X143238Y755422D01*
X143193Y755366D01*
X143171Y755333D01*
X143149Y755311D01*
X143138Y755300D01*
X143016Y755177D01*
X142882Y755078D01*
X142749Y754978D01*
X142604Y754900D01*
X142471Y754833D01*
X142338Y754777D01*
X142082Y754700D01*
X141971Y754666D01*
X141860Y754644D01*
X141771Y754633D01*
X141682Y754622D01*
X141616Y754611D01*
X141527D01*
X141316Y754622D01*
X141116Y754655D01*
X140938Y754700D01*
X140771Y754755D01*
X140649Y754800D01*
X140549Y754844D01*
X140482Y754878D01*
X140460Y754889D01*
X140282Y755000D01*
X140127Y755122D01*
X139994Y755244D01*
X139883Y755355D01*
X139805Y755466D01*
X139738Y755544D01*
X139694Y755600D01*
X139682Y755622D01*
Y755533D01*
Y755477D01*
Y755444D01*
Y755433D01*
X139694Y755211D01*
X139705Y755000D01*
X139727Y754811D01*
X139749Y754633D01*
X139783Y754489D01*
X139805Y754378D01*
X139816Y754333D01*
Y754300D01*
X139827Y754289D01*
Y754278D01*
X139883Y754078D01*
X139938Y753900D01*
X139994Y753744D01*
X140049Y753611D01*
X140094Y753511D01*
X140138Y753433D01*
X140160Y753378D01*
X140171Y753367D01*
X140260Y753244D01*
X140349Y753144D01*
X140438Y753055D01*
X140527Y752978D01*
X140594Y752911D01*
X140660Y752867D01*
X140705Y752844D01*
X140716Y752833D01*
X140838Y752767D01*
X140971Y752722D01*
X141094Y752689D01*
X141216Y752667D01*
X141316Y752656D01*
X141393Y752644D01*
X141471D01*
X141649Y752656D01*
X141816Y752689D01*
X141960Y752733D01*
X142082Y752789D01*
X142171Y752833D01*
X142249Y752878D01*
X142293Y752911D01*
X142305Y752922D01*
X142416Y753044D01*
X142504Y753189D01*
X142582Y753344D01*
X142638Y753500D01*
X142682Y753633D01*
X142716Y753755D01*
X142727Y753800D01*
Y753822D01*
X142738Y753844D01*
Y753855D01*
X143649Y753778D01*
X143582Y753455D01*
X143493Y753178D01*
X143382Y752933D01*
X143271Y752733D01*
X143160Y752578D01*
X143104Y752511D01*
X143060Y752456D01*
X143027Y752422D01*
X142993Y752389D01*
X142982Y752378D01*
X142971Y752367D01*
X142860Y752278D01*
X142738Y752200D01*
X142493Y752078D01*
X142249Y751989D01*
X142016Y751933D01*
X141805Y751889D01*
X141716Y751878D01*
X141638D01*
X141582Y751867D01*
X141493D01*
X141182Y751889D01*
X140905Y751933D01*
X140649Y752011D01*
X140438Y752100D01*
X140349Y752133D01*
X140260Y752178D01*
X140194Y752222D01*
X140127Y752255D01*
X140083Y752278D01*
X140049Y752300D01*
X140027Y752322D01*
X140016D01*
X139794Y752511D01*
X139594Y752722D01*
X139438Y752944D01*
X139305Y753155D01*
X139194Y753344D01*
X139149Y753433D01*
X139116Y753500D01*
X139094Y753567D01*
X139072Y753611D01*
X139060Y753633D01*
Y753644D01*
X139005Y753811D01*
X138949Y754000D01*
X138872Y754378D01*
X138816Y754777D01*
X138783Y755155D01*
X138760Y755322D01*
X138749Y755488D01*
Y755633D01*
X138738Y755755D01*
Y755855D01*
Y755933D01*
Y755989D01*
Y756000D01*
Y756255D01*
X138749Y756499D01*
X138771Y756722D01*
X138794Y756933D01*
X138816Y757122D01*
X138838Y757300D01*
X138872Y757466D01*
X138905Y757611D01*
X138938Y757733D01*
X138960Y757844D01*
X138994Y757944D01*
X139016Y758022D01*
X139038Y758077D01*
X139060Y758122D01*
X139072Y758144D01*
Y758155D01*
X139205Y758422D01*
X139349Y758655D01*
X139516Y758855D01*
X139660Y759022D01*
X139805Y759144D01*
X139916Y759233D01*
X139960Y759266D01*
X139994Y759288D01*
X140005Y759310D01*
X140016D01*
X140249Y759444D01*
X140482Y759544D01*
X140716Y759621D01*
X140927Y759666D01*
X141116Y759699D01*
X141193Y759710D01*
X141249D01*
X141305Y759722D01*
X141382D01*
X141571Y759710D01*
D02*
G37*
G36*
X152915Y759533D02*
X153037Y759355D01*
X153181Y759177D01*
X153314Y759022D01*
X153448Y758888D01*
X153548Y758777D01*
X153592Y758744D01*
X153626Y758710D01*
X153637Y758699D01*
X153648Y758688D01*
X153881Y758499D01*
X154114Y758322D01*
X154337Y758166D01*
X154559Y758044D01*
X154748Y757933D01*
X154825Y757888D01*
X154892Y757855D01*
X154948Y757822D01*
X154992Y757810D01*
X155014Y757788D01*
X155025D01*
Y756877D01*
X154859Y756944D01*
X154692Y757022D01*
X154525Y757099D01*
X154370Y757177D01*
X154237Y757244D01*
X154125Y757300D01*
X154059Y757344D01*
X154048Y757355D01*
X154037D01*
X153837Y757477D01*
X153659Y757599D01*
X153503Y757711D01*
X153381Y757810D01*
X153270Y757888D01*
X153203Y757955D01*
X153148Y757999D01*
X153137Y758010D01*
Y752000D01*
X152192D01*
Y759722D01*
X152803D01*
X152915Y759533D01*
D02*
G37*
G36*
X176879Y759799D02*
X177234Y759744D01*
X177545Y759677D01*
X177690Y759633D01*
X177823Y759588D01*
X177945Y759544D01*
X178056Y759499D01*
X178145Y759466D01*
X178234Y759433D01*
X178290Y759399D01*
X178334Y759377D01*
X178367Y759366D01*
X178379Y759355D01*
X178679Y759166D01*
X178934Y758944D01*
X179156Y758722D01*
X179345Y758499D01*
X179490Y758299D01*
X179545Y758211D01*
X179590Y758133D01*
X179634Y758077D01*
X179656Y758033D01*
X179667Y757999D01*
X179678Y757988D01*
X179834Y757644D01*
X179945Y757288D01*
X180023Y756933D01*
X180078Y756611D01*
X180101Y756466D01*
X180112Y756322D01*
X180123Y756211D01*
Y756100D01*
X180134Y756022D01*
Y755955D01*
Y755911D01*
Y755900D01*
X180112Y755500D01*
X180067Y755111D01*
X180012Y754766D01*
X179967Y754600D01*
X179934Y754455D01*
X179901Y754322D01*
X179856Y754200D01*
X179823Y754089D01*
X179801Y754000D01*
X179767Y753933D01*
X179756Y753878D01*
X179734Y753844D01*
Y753833D01*
X179567Y753500D01*
X179378Y753200D01*
X179179Y752944D01*
X179079Y752844D01*
X178990Y752744D01*
X178901Y752656D01*
X178812Y752578D01*
X178734Y752511D01*
X178667Y752467D01*
X178623Y752422D01*
X178579Y752389D01*
X178556Y752378D01*
X178545Y752367D01*
X178390Y752278D01*
X178234Y752200D01*
X177901Y752078D01*
X177568Y751989D01*
X177245Y751933D01*
X177090Y751911D01*
X176957Y751889D01*
X176834Y751878D01*
X176734D01*
X176646Y751867D01*
X176523D01*
X176301Y751878D01*
X176090Y751900D01*
X175890Y751922D01*
X175701Y751967D01*
X175523Y752022D01*
X175357Y752078D01*
X175201Y752133D01*
X175057Y752200D01*
X174934Y752255D01*
X174812Y752311D01*
X174723Y752367D01*
X174635Y752422D01*
X174579Y752467D01*
X174523Y752489D01*
X174501Y752511D01*
X174490Y752522D01*
X174335Y752656D01*
X174201Y752789D01*
X174079Y752944D01*
X173957Y753100D01*
X173757Y753411D01*
X173601Y753722D01*
X173535Y753866D01*
X173479Y754000D01*
X173435Y754122D01*
X173401Y754222D01*
X173368Y754311D01*
X173346Y754378D01*
X173335Y754422D01*
Y754433D01*
X174357Y754689D01*
X174401Y754511D01*
X174457Y754344D01*
X174512Y754189D01*
X174568Y754044D01*
X174635Y753911D01*
X174701Y753800D01*
X174779Y753689D01*
X174846Y753589D01*
X174901Y753500D01*
X174968Y753433D01*
X175023Y753367D01*
X175068Y753311D01*
X175112Y753278D01*
X175146Y753244D01*
X175157Y753233D01*
X175168Y753222D01*
X175279Y753133D01*
X175401Y753067D01*
X175646Y752944D01*
X175879Y752855D01*
X176112Y752800D01*
X176312Y752755D01*
X176390Y752744D01*
X176468D01*
X176534Y752733D01*
X176612D01*
X176868Y752744D01*
X177112Y752789D01*
X177334Y752844D01*
X177534Y752911D01*
X177690Y752978D01*
X177757Y753011D01*
X177812Y753033D01*
X177857Y753055D01*
X177890Y753078D01*
X177912Y753089D01*
X177923D01*
X178134Y753244D01*
X178312Y753411D01*
X178468Y753600D01*
X178590Y753778D01*
X178690Y753933D01*
X178756Y754067D01*
X178779Y754122D01*
X178801Y754155D01*
X178812Y754178D01*
Y754189D01*
X178901Y754478D01*
X178967Y754766D01*
X179023Y755055D01*
X179056Y755322D01*
X179068Y755444D01*
X179079Y755555D01*
Y755655D01*
X179090Y755733D01*
Y755800D01*
Y755855D01*
Y755889D01*
Y755900D01*
X179079Y756188D01*
X179056Y756455D01*
X179012Y756700D01*
X178967Y756922D01*
X178934Y757111D01*
X178912Y757188D01*
X178890Y757255D01*
X178879Y757311D01*
X178867Y757344D01*
X178856Y757366D01*
Y757377D01*
X178745Y757633D01*
X178623Y757866D01*
X178490Y758055D01*
X178345Y758222D01*
X178223Y758355D01*
X178123Y758444D01*
X178045Y758499D01*
X178034Y758522D01*
X178023D01*
X177790Y758666D01*
X177534Y758777D01*
X177290Y758855D01*
X177057Y758899D01*
X176846Y758933D01*
X176757Y758944D01*
X176679D01*
X176623Y758955D01*
X176534D01*
X176257Y758944D01*
X176001Y758899D01*
X175790Y758833D01*
X175601Y758766D01*
X175457Y758688D01*
X175346Y758633D01*
X175279Y758588D01*
X175257Y758566D01*
X175079Y758399D01*
X174912Y758211D01*
X174779Y758010D01*
X174668Y757810D01*
X174579Y757633D01*
X174546Y757544D01*
X174523Y757477D01*
X174501Y757422D01*
X174479Y757377D01*
X174468Y757355D01*
Y757344D01*
X173468Y757577D01*
X173535Y757777D01*
X173601Y757955D01*
X173690Y758122D01*
X173768Y758288D01*
X173857Y758433D01*
X173957Y758566D01*
X174046Y758699D01*
X174135Y758810D01*
X174223Y758899D01*
X174301Y758988D01*
X174379Y759066D01*
X174435Y759122D01*
X174490Y759177D01*
X174535Y759210D01*
X174557Y759222D01*
X174568Y759233D01*
X174723Y759333D01*
X174879Y759433D01*
X175034Y759510D01*
X175201Y759577D01*
X175534Y759677D01*
X175834Y759744D01*
X175979Y759777D01*
X176101Y759788D01*
X176223Y759799D01*
X176323Y759810D01*
X176401Y759821D01*
X176512D01*
X176879Y759799D01*
D02*
G37*
G36*
X137438Y752000D02*
X136461D01*
Y758033D01*
X132439Y752000D01*
X131383D01*
Y759688D01*
X132361D01*
Y753644D01*
X136394Y759688D01*
X137438D01*
Y752000D01*
D02*
G37*
G36*
X165413Y754311D02*
X162491D01*
Y755255D01*
X165413D01*
Y754311D01*
D02*
G37*
G36*
X188457Y480761D02*
Y470100D01*
X188628Y469242D01*
X189114Y468514D01*
X223457Y434171D01*
Y393950D01*
X221345D01*
Y415300D01*
X221167Y416197D01*
X220658Y416958D01*
X217858Y419758D01*
X217097Y420267D01*
X216200Y420445D01*
X210600D01*
X210600Y420445D01*
X209703Y420267D01*
X208867Y420670D01*
X208815Y421062D01*
X208483Y421864D01*
X207954Y422554D01*
X207772Y422693D01*
X207269Y423285D01*
X207269D01*
Y429785D01*
Y437715D01*
X207269D01*
X207276Y438310D01*
X208122Y438506D01*
X211890Y434738D01*
X211872Y434600D01*
X211985Y433739D01*
X212317Y432936D01*
X212846Y432246D01*
X213536Y431717D01*
X214338Y431385D01*
X215200Y431272D01*
X216061Y431385D01*
X216864Y431717D01*
X217554Y432246D01*
X218082Y432936D01*
X218415Y433739D01*
X218529Y434600D01*
X218415Y435462D01*
X218082Y436264D01*
X217554Y436954D01*
X216864Y437483D01*
X216061Y437815D01*
X215200Y437928D01*
X215062Y437910D01*
X208686Y444286D01*
X207958Y444772D01*
X207100Y444943D01*
X189600D01*
X188742Y444772D01*
X188014Y444286D01*
X186914Y443186D01*
X186635Y442768D01*
X184785D01*
Y436846D01*
X183825Y436655D01*
X182998Y436102D01*
X182445Y435276D01*
X182351Y434800D01*
X184800D01*
Y433800D01*
X182351D01*
X182445Y433324D01*
X182998Y432498D01*
X183825Y431945D01*
X184144Y431882D01*
X184800Y431751D01*
X184891Y430979D01*
Y425063D01*
X184338Y424510D01*
X184200Y424529D01*
X183338Y424415D01*
X182536Y424083D01*
X181846Y423554D01*
X181317Y422864D01*
X180985Y422061D01*
X180875Y421228D01*
X180773Y421153D01*
X180112Y420839D01*
X179664Y421182D01*
X178861Y421515D01*
X178000Y421629D01*
X177138Y421515D01*
X176336Y421182D01*
X175646Y420654D01*
X175118Y419964D01*
X174785Y419162D01*
X174671Y418300D01*
X174785Y417439D01*
X175070Y416750D01*
X174758Y415950D01*
X173850D01*
X173547Y416403D01*
X173430Y416750D01*
X173529Y417500D01*
X173415Y418362D01*
X173082Y419164D01*
X172554Y419854D01*
X171864Y420382D01*
X171062Y420715D01*
X170200Y420828D01*
X169339Y420715D01*
X168536Y420382D01*
X168374Y420259D01*
X167654Y420354D01*
X166964Y420883D01*
X166162Y421215D01*
X165300Y421328D01*
X164438Y421215D01*
X163636Y420883D01*
X162946Y420354D01*
X162574Y419868D01*
X161736Y419742D01*
X161604Y419792D01*
X160964Y420283D01*
X160161Y420615D01*
X159300Y420728D01*
X158439Y420615D01*
X157636Y420283D01*
X156946Y419754D01*
X156940Y419745D01*
X153600D01*
X153600Y419745D01*
X152703Y419567D01*
X152450Y419398D01*
X151942Y419058D01*
X151942Y419058D01*
X149342Y416458D01*
X149336Y416450D01*
X145657D01*
Y406550D01*
X154747D01*
Y404650D01*
X151500D01*
Y400500D01*
Y396350D01*
X155543D01*
X155547Y396191D01*
Y396191D01*
X159000D01*
Y399750D01*
X160000D01*
Y396191D01*
X163453D01*
X163457Y395850D01*
Y395850D01*
X167500D01*
Y400000D01*
Y404150D01*
X164253D01*
Y406050D01*
X182343D01*
Y415950D01*
X181242D01*
X180930Y416750D01*
X181215Y417439D01*
X181325Y418272D01*
X181427Y418347D01*
X182088Y418661D01*
X182536Y418318D01*
X183338Y417985D01*
X184200Y417872D01*
X185062Y417985D01*
X185864Y418318D01*
X186554Y418846D01*
X187083Y419536D01*
X187415Y420338D01*
X187529Y421200D01*
X187510Y421338D01*
X188419Y422247D01*
X192757D01*
Y415450D01*
X189657D01*
Y405550D01*
X210732D01*
Y404285D01*
X211531D01*
Y402250D01*
X214500D01*
Y401750D01*
X215000D01*
Y398585D01*
X216655D01*
Y393950D01*
X213657D01*
Y391824D01*
X209398D01*
Y393611D01*
X180208D01*
Y366389D01*
X209398D01*
Y386176D01*
X213657D01*
Y384050D01*
X223457D01*
Y382150D01*
X219500D01*
Y378000D01*
Y373850D01*
X223457D01*
Y304029D01*
X216171Y296743D01*
X213850D01*
Y297900D01*
Y305100D01*
X212579D01*
Y311500D01*
X212465Y312362D01*
X212299Y312763D01*
X212133Y313164D01*
X211604Y313854D01*
X211215Y314242D01*
Y317268D01*
X210578D01*
Y324750D01*
X210465Y325611D01*
X210133Y326414D01*
X209604Y327104D01*
X201854Y334854D01*
X201164Y335383D01*
X200832Y335520D01*
X200361Y335715D01*
X199500Y335828D01*
X191176D01*
Y355146D01*
X191856Y356031D01*
X192289Y357078D01*
X192437Y358200D01*
X192289Y359323D01*
X191856Y360369D01*
X191167Y361267D01*
X190269Y361956D01*
X189223Y362389D01*
X188100Y362537D01*
X186978Y362389D01*
X185931Y361956D01*
X185033Y361267D01*
X184344Y360369D01*
X183911Y359323D01*
X183763Y358200D01*
X183911Y357078D01*
X184344Y356031D01*
X185024Y355146D01*
Y335554D01*
X184344Y334669D01*
X183911Y333623D01*
X183763Y332500D01*
X183911Y331378D01*
X184344Y330331D01*
X185033Y329433D01*
X185931Y328744D01*
X186978Y328311D01*
X188100Y328163D01*
X189223Y328311D01*
X190269Y328744D01*
X190826Y329171D01*
X198121D01*
X203922Y323371D01*
Y317268D01*
X203285D01*
Y316469D01*
X201250D01*
Y313500D01*
Y310531D01*
X203285D01*
Y309732D01*
X205922D01*
Y305100D01*
X204650D01*
Y301559D01*
X204550Y300800D01*
X203850Y300800D01*
X201250D01*
Y298000D01*
Y295200D01*
X203850D01*
X204550Y295200D01*
X204650Y294441D01*
Y290900D01*
X213850D01*
Y292257D01*
X217100D01*
X217958Y292428D01*
X218686Y292914D01*
X224261Y298489D01*
X225000Y298183D01*
Y285000D01*
X185000D01*
Y315000D01*
X161156Y338844D01*
X160856Y339569D01*
X160167Y340467D01*
X142537Y358097D01*
Y382100D01*
X142389Y383223D01*
X142136Y383835D01*
X141956Y384269D01*
X141267Y385167D01*
X134517Y391917D01*
X134080Y392971D01*
X133295Y393995D01*
X132271Y394780D01*
X131217Y395217D01*
X126237Y400197D01*
Y442617D01*
X127037Y443152D01*
X127377Y443011D01*
X128500Y442863D01*
X129622Y443011D01*
X130669Y443444D01*
X131554Y444124D01*
X149500D01*
X150296Y444229D01*
X151038Y444536D01*
X151675Y445025D01*
X187718Y481067D01*
X188457Y480761D01*
D02*
G37*
G36*
X80785Y754139D02*
X81117Y753336D01*
X81646Y752646D01*
X81757Y752562D01*
Y692200D01*
X81928Y691342D01*
X82414Y690614D01*
X82546Y690482D01*
X82239Y689743D01*
X68429D01*
X59086Y699086D01*
X58358Y699572D01*
X57500Y699743D01*
X45731D01*
X45715Y699861D01*
X45382Y700664D01*
X44854Y701354D01*
X44164Y701883D01*
X43361Y702215D01*
X42500Y702328D01*
X41638Y702215D01*
X40836Y701883D01*
X40146Y701354D01*
X39617Y700664D01*
X39285Y699861D01*
X39171Y699000D01*
X39285Y698139D01*
X39617Y697336D01*
X40146Y696646D01*
X40360Y696483D01*
X40428Y696142D01*
X40439Y696124D01*
X40012Y695324D01*
X33272D01*
X32941Y696124D01*
X46158Y709342D01*
X46667Y710103D01*
X46845Y711000D01*
Y742763D01*
X47067Y742933D01*
X47756Y743831D01*
X48189Y744877D01*
X48337Y746000D01*
X48189Y747122D01*
X47756Y748169D01*
X47067Y749067D01*
X46169Y749756D01*
X45123Y750189D01*
X44000Y750337D01*
X42878Y750189D01*
X41831Y749756D01*
X40933Y749067D01*
X40244Y748169D01*
X39811Y747122D01*
X39663Y746000D01*
X39811Y744877D01*
X40244Y743831D01*
X40933Y742933D01*
X41831Y742244D01*
X42155Y742110D01*
Y711971D01*
X30350Y700166D01*
X29550Y700498D01*
Y700550D01*
X19950D01*
Y694450D01*
Y689450D01*
Y684450D01*
X20750D01*
Y683000D01*
X28750D01*
Y684450D01*
X29550D01*
Y686499D01*
X30231Y686785D01*
X30231Y686785D01*
Y686785D01*
X30231Y686785D01*
X31032D01*
Y684750D01*
X36968D01*
Y686785D01*
X37769D01*
Y689676D01*
X46760D01*
X46836Y689617D01*
X47638Y689285D01*
X48500Y689172D01*
X49362Y689285D01*
X50164Y689617D01*
X50854Y690146D01*
X51383Y690836D01*
X51715Y691639D01*
X51828Y692500D01*
X51715Y693362D01*
X51383Y694164D01*
X51158Y694457D01*
X51552Y695257D01*
X56571D01*
X65914Y685914D01*
X66469Y685543D01*
X66294Y684743D01*
X65000D01*
X64142Y684572D01*
X63414Y684086D01*
X49071Y669743D01*
X5699D01*
X5067Y670567D01*
X4169Y671256D01*
X3122Y671689D01*
X2000Y671837D01*
X878Y671689D01*
X665Y671601D01*
X0Y672046D01*
Y679450D01*
X8050D01*
Y684450D01*
Y689450D01*
Y694450D01*
Y700550D01*
X0D01*
Y749500D01*
X4000Y751000D01*
X5500Y755000D01*
X73053D01*
Y720732D01*
X72617Y720164D01*
X72285Y719361D01*
X72171Y718500D01*
X72285Y717638D01*
X72617Y716836D01*
X73146Y716146D01*
X73836Y715618D01*
X74638Y715285D01*
X75500Y715171D01*
X76362Y715285D01*
X77164Y715618D01*
X77854Y716146D01*
X78383Y716836D01*
X78715Y717638D01*
X78829Y718500D01*
X78715Y719361D01*
X78383Y720164D01*
X77947Y720732D01*
Y755000D01*
X80672D01*
X80785Y754139D01*
D02*
G37*
G36*
X944Y575531D02*
X1633Y574633D01*
X2531Y573944D01*
X3577Y573511D01*
X4700Y573363D01*
X25671D01*
X26002Y572563D01*
X23570Y570130D01*
X23039Y569336D01*
X23008Y569181D01*
X22853Y568400D01*
Y454780D01*
X22136Y454483D01*
X21446Y453954D01*
X20917Y453264D01*
X20585Y452461D01*
X20471Y451600D01*
Y448600D01*
X20585Y447739D01*
X20917Y446936D01*
X21446Y446246D01*
X22136Y445717D01*
X22939Y445385D01*
X23800Y445271D01*
X26800D01*
X27661Y445385D01*
X28464Y445717D01*
X29154Y446246D01*
X29682Y446936D01*
X30015Y447739D01*
X30128Y448600D01*
Y451600D01*
X30015Y452461D01*
X29682Y453264D01*
X29154Y453954D01*
X28464Y454483D01*
X27747Y454780D01*
Y567386D01*
X30363Y570002D01*
X31163Y569671D01*
Y446400D01*
X31311Y445278D01*
X31744Y444231D01*
X32433Y443333D01*
X40263Y435503D01*
Y380700D01*
X40411Y379577D01*
X40844Y378531D01*
X41533Y377633D01*
X50083Y369083D01*
X50520Y368029D01*
X50763Y367712D01*
Y356153D01*
X45000Y355000D01*
Y300000D01*
X21467D01*
X21013Y300850D01*
X20263Y301763D01*
X19350Y302513D01*
X18307Y303070D01*
X17176Y303413D01*
X16500Y303480D01*
Y297500D01*
X15500D01*
Y303480D01*
X14824Y303413D01*
X13693Y303070D01*
X12650Y302513D01*
X11737Y301763D01*
X10987Y300850D01*
X10533Y300000D01*
X0D01*
Y339721D01*
X739Y340027D01*
X1333Y339433D01*
X2231Y338744D01*
X3277Y338311D01*
X3408Y338294D01*
X4400Y338163D01*
X10763D01*
X11168Y337668D01*
X12204Y336819D01*
X13385Y336187D01*
X14667Y335798D01*
X16000Y335667D01*
X17333Y335798D01*
X18615Y336187D01*
X19796Y336819D01*
X20832Y337668D01*
X21681Y338704D01*
X22313Y339885D01*
X22702Y341167D01*
X22833Y342500D01*
X22702Y343833D01*
X22313Y345115D01*
X21681Y346296D01*
X20832Y347332D01*
X19796Y348181D01*
X18615Y348813D01*
X17333Y349202D01*
X16000Y349333D01*
X14667Y349202D01*
X13385Y348813D01*
X12204Y348181D01*
X11168Y347332D01*
X10763Y346837D01*
X6196D01*
X4137Y348897D01*
Y376304D01*
X17617Y389783D01*
X18306Y390681D01*
X18739Y391727D01*
X18887Y392850D01*
Y399248D01*
X19687Y399579D01*
X20471Y398795D01*
Y398600D01*
X20585Y397739D01*
X20917Y396936D01*
X21446Y396246D01*
X22136Y395718D01*
X22939Y395385D01*
X23800Y395271D01*
X26800D01*
X27661Y395385D01*
X28464Y395718D01*
X29154Y396246D01*
X29682Y396936D01*
X30015Y397739D01*
X30128Y398600D01*
Y401600D01*
X30015Y402461D01*
X29682Y403264D01*
X29154Y403954D01*
X28464Y404483D01*
X27661Y404815D01*
X26800Y404928D01*
X26605D01*
X26387Y405147D01*
Y408847D01*
X26409D01*
Y418353D01*
X10191D01*
Y408847D01*
X10213D01*
Y394647D01*
X739Y385173D01*
X0Y385479D01*
Y420087D01*
X399Y420252D01*
X1558Y421142D01*
X2448Y422301D01*
X3007Y423651D01*
X3198Y425100D01*
X3007Y426549D01*
X2448Y427899D01*
X1558Y429058D01*
X399Y429948D01*
X0Y430113D01*
Y575720D01*
X800Y575879D01*
X944Y575531D01*
D02*
G37*
G36*
X158892Y759533D02*
X159014Y759355D01*
X159158Y759177D01*
X159292Y759022D01*
X159425Y758888D01*
X159525Y758777D01*
X159569Y758744D01*
X159603Y758710D01*
X159614Y758699D01*
X159625Y758688D01*
X159858Y758499D01*
X160092Y758322D01*
X160314Y758166D01*
X160536Y758044D01*
X160725Y757933D01*
X160803Y757888D01*
X160869Y757855D01*
X160925Y757822D01*
X160969Y757810D01*
X160992Y757788D01*
X161003D01*
Y756877D01*
X160836Y756944D01*
X160669Y757022D01*
X160503Y757099D01*
X160347Y757177D01*
X160214Y757244D01*
X160103Y757300D01*
X160036Y757344D01*
X160025Y757355D01*
X160014D01*
X159814Y757477D01*
X159636Y757599D01*
X159481Y757711D01*
X159358Y757810D01*
X159247Y757888D01*
X159181Y757955D01*
X159125Y757999D01*
X159114Y758010D01*
Y752000D01*
X158170D01*
Y759722D01*
X158781D01*
X158892Y759533D01*
D02*
G37*
G36*
X370000Y651597D02*
Y564609D01*
X368947D01*
Y651259D01*
X369200Y651781D01*
X370000Y651597D01*
D02*
G37*
G36*
X367912Y436594D02*
X367905Y436495D01*
X367120Y435471D01*
X366626Y434279D01*
X366458Y433000D01*
X366626Y431721D01*
X367120Y430529D01*
X367905Y429505D01*
X368929Y428720D01*
X368977Y428700D01*
X368818Y427900D01*
X366500D01*
Y418100D01*
X366663D01*
Y380697D01*
X362804Y376837D01*
X359237D01*
X358832Y377332D01*
X357796Y378181D01*
X356615Y378813D01*
X355333Y379202D01*
X354000Y379333D01*
X352667Y379202D01*
X351385Y378813D01*
X350204Y378181D01*
X349168Y377332D01*
X348319Y376296D01*
X347687Y375115D01*
X347298Y373833D01*
X347167Y372500D01*
X347298Y371167D01*
X347687Y369885D01*
X348319Y368704D01*
X349168Y367668D01*
X350204Y366819D01*
X351385Y366187D01*
X352667Y365798D01*
X354000Y365667D01*
X355333Y365798D01*
X356615Y366187D01*
X357796Y366819D01*
X358832Y367668D01*
X359237Y368163D01*
X364600D01*
X365722Y368311D01*
X366769Y368744D01*
X367667Y369433D01*
X369261Y371027D01*
X370000Y370721D01*
Y331670D01*
X369200Y331326D01*
X368322Y331689D01*
X367200Y331837D01*
X359237D01*
X358832Y332332D01*
X357796Y333181D01*
X356615Y333813D01*
X355333Y334202D01*
X354000Y334333D01*
X352667Y334202D01*
X351385Y333813D01*
X350204Y333181D01*
X349168Y332332D01*
X348319Y331296D01*
X347687Y330115D01*
X347298Y328833D01*
X347167Y327500D01*
X347298Y326167D01*
X347687Y324885D01*
X348319Y323704D01*
X349168Y322668D01*
X350204Y321819D01*
X351385Y321187D01*
X352667Y320798D01*
X354000Y320667D01*
X355333Y320798D01*
X356615Y321187D01*
X357796Y321819D01*
X358832Y322668D01*
X359237Y323163D01*
X365404D01*
X366663Y321903D01*
Y300000D01*
X359467D01*
X359013Y300850D01*
X358263Y301763D01*
X357349Y302513D01*
X356307Y303070D01*
X355176Y303413D01*
X354500Y303480D01*
Y297500D01*
X353500D01*
Y303480D01*
X352824Y303413D01*
X351693Y303070D01*
X350651Y302513D01*
X349737Y301763D01*
X348987Y300850D01*
X348533Y300000D01*
X335000D01*
Y355000D01*
X330000Y360000D01*
X328837D01*
Y410413D01*
X329637Y410572D01*
X329944Y409831D01*
X330633Y408933D01*
X331531Y408244D01*
X332577Y407811D01*
X333700Y407663D01*
X334734Y407799D01*
X334902Y407631D01*
X335145Y407078D01*
X334633Y406567D01*
X333944Y405669D01*
X333511Y404623D01*
X333363Y403500D01*
Y365700D01*
X333511Y364578D01*
X333944Y363531D01*
X334633Y362633D01*
X342833Y354433D01*
X343731Y353744D01*
X344777Y353311D01*
X345900Y353163D01*
X348763D01*
X349168Y352668D01*
X350204Y351819D01*
X351385Y351187D01*
X352667Y350798D01*
X354000Y350667D01*
X355333Y350798D01*
X356615Y351187D01*
X357796Y351819D01*
X358832Y352668D01*
X359681Y353704D01*
X360313Y354885D01*
X360702Y356167D01*
X360833Y357500D01*
X360702Y358833D01*
X360313Y360115D01*
X359681Y361296D01*
X358832Y362332D01*
X357796Y363181D01*
X356615Y363813D01*
X355333Y364202D01*
X354000Y364333D01*
X352667Y364202D01*
X351385Y363813D01*
X350204Y363181D01*
X349168Y362332D01*
X348763Y361837D01*
X347696D01*
X342037Y367496D01*
Y398045D01*
X342837Y398097D01*
X342926Y397421D01*
X343420Y396229D01*
X344205Y395205D01*
X345229Y394420D01*
X346421Y393926D01*
X347700Y393758D01*
X348979Y393926D01*
X350171Y394420D01*
X351195Y395205D01*
X351980Y396229D01*
X352000Y396277D01*
X352800Y396118D01*
Y393800D01*
X362600D01*
Y403600D01*
X360524D01*
Y422300D01*
X360428Y423031D01*
X360345Y423230D01*
X360146Y423712D01*
X359697Y424297D01*
X353324Y430670D01*
Y432181D01*
X354124Y432716D01*
X354378Y432611D01*
X355500Y432463D01*
X356623Y432611D01*
X357669Y433044D01*
X358567Y433733D01*
X359256Y434631D01*
X359689Y435677D01*
X359837Y436800D01*
X359689Y437922D01*
X359256Y438969D01*
X358567Y439867D01*
X358324Y440053D01*
Y445050D01*
X359124Y445382D01*
X367912Y436594D01*
D02*
G37*
G36*
X187000Y752000D02*
X185978D01*
Y755122D01*
X184011D01*
X183723Y755133D01*
X183445Y755155D01*
X183200Y755189D01*
X182978Y755233D01*
X182767Y755277D01*
X182589Y755333D01*
X182423Y755400D01*
X182278Y755466D01*
X182156Y755522D01*
X182045Y755588D01*
X181956Y755644D01*
X181889Y755700D01*
X181834Y755733D01*
X181800Y755766D01*
X181778Y755789D01*
X181767Y755800D01*
X181656Y755933D01*
X181556Y756066D01*
X181478Y756200D01*
X181401Y756344D01*
X181334Y756488D01*
X181290Y756622D01*
X181212Y756877D01*
X181190Y756999D01*
X181167Y757111D01*
X181156Y757211D01*
X181145Y757288D01*
X181134Y757366D01*
Y757411D01*
Y757444D01*
Y757455D01*
X181145Y757666D01*
X181167Y757866D01*
X181212Y758044D01*
X181245Y758199D01*
X181290Y758333D01*
X181334Y758433D01*
X181356Y758488D01*
X181367Y758510D01*
X181456Y758677D01*
X181567Y758821D01*
X181667Y758955D01*
X181767Y759055D01*
X181856Y759133D01*
X181923Y759199D01*
X181967Y759233D01*
X181989Y759244D01*
X182134Y759333D01*
X182300Y759410D01*
X182456Y759477D01*
X182600Y759533D01*
X182734Y759566D01*
X182834Y759588D01*
X182912Y759610D01*
X182934D01*
X183100Y759633D01*
X183289Y759655D01*
X183489Y759666D01*
X183678Y759677D01*
X183845Y759688D01*
X187000D01*
Y752000D01*
D02*
G37*
G36*
X376901Y728445D02*
X376143D01*
Y730554D01*
X370500D01*
Y731405D01*
X376143D01*
Y733514D01*
X376901D01*
Y728445D01*
D02*
G37*
G36*
X374033Y740239D02*
X374357Y740202D01*
X374505Y740174D01*
X374653Y740137D01*
X374783Y740100D01*
X374903Y740072D01*
X375014Y740035D01*
X375116Y739998D01*
X375199Y739970D01*
X375273Y739933D01*
X375328Y739915D01*
X375365Y739896D01*
X375393Y739878D01*
X375402D01*
X375671Y739730D01*
X375911Y739554D01*
X376115Y739369D01*
X376281Y739203D01*
X376411Y739045D01*
X376466Y738972D01*
X376513Y738916D01*
X376540Y738861D01*
X376568Y738824D01*
X376577Y738805D01*
X376587Y738796D01*
X376660Y738657D01*
X376725Y738518D01*
X376836Y738250D01*
X376910Y737972D01*
X376957Y737732D01*
X376975Y737621D01*
X376993Y737510D01*
X377003Y737427D01*
Y737344D01*
X377012Y737279D01*
Y737232D01*
Y737205D01*
Y737195D01*
X377003Y736946D01*
X376975Y736715D01*
X376929Y736492D01*
X376873Y736280D01*
X376799Y736086D01*
X376725Y735900D01*
X376642Y735734D01*
X376559Y735586D01*
X376476Y735447D01*
X376392Y735327D01*
X376318Y735225D01*
X376244Y735142D01*
X376189Y735077D01*
X376143Y735022D01*
X376115Y734994D01*
X376105Y734985D01*
X375930Y734837D01*
X375745Y734707D01*
X375541Y734587D01*
X375338Y734494D01*
X375125Y734411D01*
X374921Y734337D01*
X374718Y734282D01*
X374524Y734245D01*
X374339Y734208D01*
X374163Y734180D01*
X374006Y734162D01*
X373876Y734143D01*
X373765D01*
X373682Y734134D01*
X373608D01*
X373293Y734152D01*
X373007Y734189D01*
X372729Y734245D01*
X372609Y734282D01*
X372489Y734319D01*
X372387Y734346D01*
X372294Y734383D01*
X372211Y734411D01*
X372137Y734439D01*
X372082Y734457D01*
X372045Y734476D01*
X372017Y734494D01*
X372008D01*
X371740Y734652D01*
X371508Y734818D01*
X371305Y735003D01*
X371138Y735179D01*
X371000Y735336D01*
X370944Y735401D01*
X370907Y735457D01*
X370870Y735512D01*
X370842Y735549D01*
X370833Y735568D01*
X370824Y735577D01*
X370750Y735715D01*
X370685Y735854D01*
X370574Y736132D01*
X370500Y736400D01*
X370444Y736650D01*
X370426Y736770D01*
X370417Y736872D01*
X370398Y736964D01*
Y737047D01*
X370389Y737103D01*
Y737158D01*
Y737186D01*
Y737195D01*
X370408Y737501D01*
X370454Y737787D01*
X370509Y738056D01*
X370546Y738176D01*
X370583Y738287D01*
X370620Y738389D01*
X370657Y738481D01*
X370685Y738555D01*
X370713Y738620D01*
X370741Y738675D01*
X370759Y738722D01*
X370778Y738740D01*
Y738750D01*
X370944Y739009D01*
X371129Y739230D01*
X371323Y739416D01*
X371508Y739573D01*
X371684Y739702D01*
X371749Y739748D01*
X371814Y739785D01*
X371869Y739822D01*
X371906Y739841D01*
X371934Y739859D01*
X371943D01*
X372091Y739933D01*
X372239Y739989D01*
X372535Y740091D01*
X372831Y740165D01*
X373099Y740211D01*
X373219Y740220D01*
X373330Y740239D01*
X373432Y740248D01*
X373516D01*
X373589Y740257D01*
X373682D01*
X374033Y740239D01*
D02*
G37*
G36*
Y722349D02*
X374357Y722312D01*
X374505Y722285D01*
X374653Y722248D01*
X374783Y722211D01*
X374903Y722183D01*
X375014Y722146D01*
X375116Y722109D01*
X375199Y722081D01*
X375273Y722044D01*
X375328Y722025D01*
X375365Y722007D01*
X375393Y721988D01*
X375402D01*
X375671Y721840D01*
X375911Y721665D01*
X376115Y721480D01*
X376281Y721313D01*
X376411Y721156D01*
X376466Y721082D01*
X376513Y721027D01*
X376540Y720971D01*
X376568Y720934D01*
X376577Y720916D01*
X376587Y720906D01*
X376660Y720767D01*
X376725Y720629D01*
X376836Y720361D01*
X376910Y720083D01*
X376957Y719842D01*
X376975Y719732D01*
X376993Y719621D01*
X377003Y719537D01*
Y719454D01*
X377012Y719389D01*
Y719343D01*
Y719315D01*
Y719306D01*
X377003Y719056D01*
X376975Y718825D01*
X376929Y718603D01*
X376873Y718390D01*
X376799Y718196D01*
X376725Y718011D01*
X376642Y717844D01*
X376559Y717697D01*
X376476Y717558D01*
X376392Y717438D01*
X376318Y717336D01*
X376244Y717252D01*
X376189Y717188D01*
X376143Y717132D01*
X376115Y717104D01*
X376105Y717095D01*
X375930Y716947D01*
X375745Y716818D01*
X375541Y716698D01*
X375338Y716605D01*
X375125Y716522D01*
X374921Y716448D01*
X374718Y716392D01*
X374524Y716355D01*
X374339Y716318D01*
X374163Y716291D01*
X374006Y716272D01*
X373876Y716254D01*
X373765D01*
X373682Y716244D01*
X373608D01*
X373293Y716263D01*
X373007Y716300D01*
X372729Y716355D01*
X372609Y716392D01*
X372489Y716429D01*
X372387Y716457D01*
X372294Y716494D01*
X372211Y716522D01*
X372137Y716549D01*
X372082Y716568D01*
X372045Y716586D01*
X372017Y716605D01*
X372008D01*
X371740Y716762D01*
X371508Y716929D01*
X371305Y717114D01*
X371138Y717289D01*
X371000Y717447D01*
X370944Y717512D01*
X370907Y717567D01*
X370870Y717623D01*
X370842Y717660D01*
X370833Y717678D01*
X370824Y717687D01*
X370750Y717826D01*
X370685Y717965D01*
X370574Y718242D01*
X370500Y718510D01*
X370444Y718760D01*
X370426Y718881D01*
X370417Y718982D01*
X370398Y719075D01*
Y719158D01*
X370389Y719213D01*
Y719269D01*
Y719297D01*
Y719306D01*
X370408Y719611D01*
X370454Y719898D01*
X370509Y720166D01*
X370546Y720287D01*
X370583Y720398D01*
X370620Y720499D01*
X370657Y720592D01*
X370685Y720666D01*
X370713Y720730D01*
X370741Y720786D01*
X370759Y720832D01*
X370778Y720851D01*
Y720860D01*
X370944Y721119D01*
X371129Y721341D01*
X371323Y721526D01*
X371508Y721683D01*
X371684Y721813D01*
X371749Y721859D01*
X371814Y721896D01*
X371869Y721933D01*
X371906Y721951D01*
X371934Y721970D01*
X371943D01*
X372091Y722044D01*
X372239Y722099D01*
X372535Y722201D01*
X372831Y722275D01*
X373099Y722322D01*
X373219Y722331D01*
X373330Y722349D01*
X373432Y722359D01*
X373516D01*
X373589Y722368D01*
X373682D01*
X374033Y722349D01*
D02*
G37*
G36*
X376901Y722978D02*
X376143D01*
Y725087D01*
X370500D01*
Y725938D01*
X376143D01*
Y728047D01*
X376901D01*
Y722978D01*
D02*
G37*
G36*
Y746288D02*
X372443Y744753D01*
X372202Y744669D01*
X371999Y744605D01*
X371823Y744540D01*
X371675Y744494D01*
X371564Y744457D01*
X371480Y744429D01*
X371434Y744420D01*
X371416Y744411D01*
X371545Y744374D01*
X371693Y744327D01*
X371850Y744272D01*
X372008Y744226D01*
X372147Y744179D01*
X372257Y744142D01*
X372304Y744124D01*
X372332Y744114D01*
X372350Y744105D01*
X372359D01*
X376901Y742588D01*
Y741321D01*
X370500D01*
Y742135D01*
X375948D01*
X370500Y743985D01*
Y744743D01*
X375856Y746612D01*
X370500D01*
Y747426D01*
X376901D01*
Y746288D01*
D02*
G37*
G36*
X172124Y752000D02*
X169191D01*
X168924Y752011D01*
X168691Y752022D01*
X168480Y752044D01*
X168302Y752067D01*
X168157Y752089D01*
X168046Y752100D01*
X167980Y752122D01*
X167957D01*
X167769Y752178D01*
X167613Y752233D01*
X167469Y752300D01*
X167346Y752367D01*
X167246Y752411D01*
X167169Y752456D01*
X167124Y752489D01*
X167113Y752500D01*
X166991Y752600D01*
X166880Y752722D01*
X166791Y752844D01*
X166702Y752955D01*
X166635Y753067D01*
X166591Y753144D01*
X166558Y753200D01*
X166546Y753222D01*
X166469Y753400D01*
X166413Y753578D01*
X166369Y753744D01*
X166347Y753900D01*
X166324Y754033D01*
X166313Y754144D01*
Y754211D01*
Y754222D01*
Y754233D01*
X166324Y754478D01*
X166369Y754700D01*
X166435Y754889D01*
X166502Y755066D01*
X166569Y755200D01*
X166635Y755300D01*
X166680Y755366D01*
X166691Y755389D01*
X166847Y755566D01*
X167013Y755711D01*
X167202Y755833D01*
X167369Y755933D01*
X167524Y756011D01*
X167657Y756055D01*
X167702Y756077D01*
X167735Y756088D01*
X167757Y756100D01*
X167769D01*
X167580Y756211D01*
X167413Y756322D01*
X167280Y756444D01*
X167169Y756555D01*
X167080Y756644D01*
X167013Y756733D01*
X166980Y756777D01*
X166969Y756800D01*
X166880Y756966D01*
X166813Y757122D01*
X166758Y757277D01*
X166724Y757422D01*
X166702Y757544D01*
X166691Y757644D01*
Y757699D01*
Y757722D01*
X166702Y757910D01*
X166735Y758099D01*
X166791Y758266D01*
X166847Y758422D01*
X166902Y758555D01*
X166958Y758644D01*
X166991Y758710D01*
X167002Y758733D01*
X167124Y758899D01*
X167257Y759055D01*
X167402Y759177D01*
X167535Y759277D01*
X167646Y759355D01*
X167746Y759410D01*
X167813Y759444D01*
X167824Y759455D01*
X167835D01*
X168046Y759533D01*
X168280Y759588D01*
X168513Y759633D01*
X168735Y759655D01*
X168935Y759677D01*
X169024D01*
X169102Y759688D01*
X172124D01*
Y752000D01*
D02*
G37*
G36*
X147559Y759699D02*
X147837Y759655D01*
X148071Y759577D01*
X148270Y759499D01*
X148437Y759410D01*
X148504Y759377D01*
X148559Y759333D01*
X148604Y759310D01*
X148637Y759288D01*
X148648Y759266D01*
X148659D01*
X148859Y759088D01*
X149026Y758877D01*
X149170Y758666D01*
X149282Y758466D01*
X149370Y758277D01*
X149415Y758199D01*
X149437Y758122D01*
X149459Y758066D01*
X149481Y758022D01*
X149493Y757999D01*
Y757988D01*
X149537Y757822D01*
X149582Y757655D01*
X149648Y757288D01*
X149704Y756922D01*
X149737Y756577D01*
X149748Y756411D01*
X149759Y756266D01*
Y756133D01*
X149770Y756011D01*
Y755922D01*
Y755844D01*
Y755800D01*
Y755789D01*
X149759Y755400D01*
X149737Y755033D01*
X149704Y754700D01*
X149648Y754389D01*
X149593Y754100D01*
X149526Y753844D01*
X149459Y753611D01*
X149393Y753411D01*
X149326Y753233D01*
X149248Y753078D01*
X149193Y752944D01*
X149137Y752844D01*
X149082Y752755D01*
X149048Y752700D01*
X149026Y752667D01*
X149015Y752656D01*
X148893Y752522D01*
X148759Y752400D01*
X148615Y752289D01*
X148470Y752200D01*
X148326Y752122D01*
X148182Y752056D01*
X148037Y752011D01*
X147904Y751967D01*
X147771Y751933D01*
X147648Y751911D01*
X147537Y751889D01*
X147448Y751878D01*
X147371Y751867D01*
X147259D01*
X146960Y751889D01*
X146682Y751933D01*
X146449Y752011D01*
X146248Y752089D01*
X146082Y752167D01*
X146026Y752211D01*
X145971Y752244D01*
X145926Y752267D01*
X145893Y752289D01*
X145882Y752311D01*
X145871D01*
X145671Y752500D01*
X145504Y752700D01*
X145360Y752922D01*
X145249Y753122D01*
X145160Y753311D01*
X145115Y753389D01*
X145093Y753467D01*
X145071Y753522D01*
X145049Y753567D01*
X145037Y753589D01*
Y753600D01*
X144982Y753766D01*
X144938Y753933D01*
X144871Y754289D01*
X144815Y754655D01*
X144782Y755011D01*
X144771Y755166D01*
X144760Y755311D01*
Y755444D01*
X144749Y755566D01*
Y755655D01*
Y755733D01*
Y755777D01*
Y755789D01*
Y756000D01*
X144760Y756200D01*
Y756377D01*
X144771Y756555D01*
X144793Y756711D01*
X144804Y756866D01*
X144815Y756999D01*
X144838Y757122D01*
X144849Y757233D01*
X144871Y757333D01*
X144882Y757411D01*
X144893Y757477D01*
X144904Y757533D01*
X144915Y757566D01*
X144926Y757588D01*
Y757599D01*
X144993Y757844D01*
X145071Y758066D01*
X145160Y758255D01*
X145226Y758422D01*
X145304Y758566D01*
X145349Y758666D01*
X145393Y758722D01*
X145404Y758744D01*
X145526Y758910D01*
X145649Y759055D01*
X145782Y759177D01*
X145904Y759288D01*
X146015Y759366D01*
X146104Y759421D01*
X146160Y759455D01*
X146171Y759466D01*
X146182D01*
X146360Y759555D01*
X146548Y759610D01*
X146726Y759655D01*
X146893Y759688D01*
X147037Y759710D01*
X147160Y759722D01*
X147259D01*
X147559Y759699D01*
D02*
G37*
G36*
X372563Y715329D02*
X372748Y715292D01*
X372905Y715236D01*
X373053Y715180D01*
X373164Y715125D01*
X373247Y715069D01*
X373303Y715032D01*
X373321Y715023D01*
X373469Y714894D01*
X373589Y714755D01*
X373691Y714598D01*
X373775Y714459D01*
X373839Y714329D01*
X373876Y714219D01*
X373895Y714182D01*
X373904Y714154D01*
X373913Y714135D01*
Y714126D01*
X374006Y714283D01*
X374098Y714422D01*
X374200Y714533D01*
X374292Y714626D01*
X374366Y714700D01*
X374441Y714755D01*
X374478Y714783D01*
X374496Y714792D01*
X374635Y714866D01*
X374764Y714922D01*
X374894Y714968D01*
X375014Y714995D01*
X375116Y715014D01*
X375199Y715023D01*
X375264D01*
X375421Y715014D01*
X375578Y714986D01*
X375717Y714940D01*
X375847Y714894D01*
X375957Y714848D01*
X376031Y714801D01*
X376087Y714774D01*
X376105Y714764D01*
X376244Y714663D01*
X376374Y714551D01*
X376476Y714431D01*
X376559Y714320D01*
X376624Y714228D01*
X376670Y714145D01*
X376697Y714089D01*
X376707Y714080D01*
Y714071D01*
X376771Y713895D01*
X376818Y713700D01*
X376855Y713506D01*
X376873Y713321D01*
X376892Y713155D01*
Y713081D01*
X376901Y713016D01*
Y712970D01*
Y712933D01*
Y712905D01*
Y712896D01*
Y710500D01*
X370500D01*
Y712942D01*
X370509Y713164D01*
X370518Y713358D01*
X370537Y713534D01*
X370555Y713682D01*
X370574Y713802D01*
X370583Y713895D01*
X370602Y713950D01*
Y713969D01*
X370648Y714126D01*
X370694Y714256D01*
X370750Y714376D01*
X370805Y714477D01*
X370842Y714561D01*
X370879Y714626D01*
X370907Y714663D01*
X370916Y714672D01*
X371000Y714774D01*
X371101Y714866D01*
X371203Y714940D01*
X371295Y715014D01*
X371388Y715069D01*
X371453Y715106D01*
X371499Y715134D01*
X371517Y715143D01*
X371666Y715208D01*
X371814Y715254D01*
X371952Y715292D01*
X372082Y715310D01*
X372193Y715329D01*
X372285Y715338D01*
X372359D01*
X372563Y715329D01*
D02*
G37*
%LPC*%
G36*
X199543Y403650D02*
X195500D01*
Y400000D01*
X199543D01*
Y403650D01*
D02*
G37*
G36*
X4800Y404149D02*
X3800D01*
X2825Y403955D01*
X1998Y403402D01*
X1445Y402575D01*
X1251Y401600D01*
Y400600D01*
X4800D01*
Y404149D01*
D02*
G37*
G36*
X205000Y403650D02*
X200957D01*
Y400000D01*
X205000D01*
Y403650D01*
D02*
G37*
G36*
X210043D02*
X206000D01*
Y400000D01*
X210043D01*
Y403650D01*
D02*
G37*
G36*
X181543Y404150D02*
X177500D01*
Y400500D01*
X181543D01*
Y404150D01*
D02*
G37*
G36*
X99500Y644500D02*
X97550D01*
X97645Y644025D01*
X98198Y643198D01*
X99024Y642645D01*
X99500Y642551D01*
Y644500D01*
D02*
G37*
G36*
X148200Y423700D02*
X146250D01*
X146345Y423224D01*
X146898Y422398D01*
X147724Y421845D01*
X148200Y421750D01*
Y423700D01*
D02*
G37*
G36*
X33000Y430698D02*
X31551Y430507D01*
X30201Y429948D01*
X29042Y429058D01*
X28152Y427899D01*
X27593Y426549D01*
X27402Y425100D01*
X27593Y423651D01*
X28152Y422301D01*
X29042Y421142D01*
X30201Y420252D01*
X31551Y419693D01*
X33000Y419502D01*
X34449Y419693D01*
X35799Y420252D01*
X36958Y421142D01*
X37848Y422301D01*
X38407Y423651D01*
X38598Y425100D01*
X38407Y426549D01*
X37848Y427899D01*
X36958Y429058D01*
X35799Y429948D01*
X34449Y430507D01*
X33000Y430698D01*
D02*
G37*
G36*
X6800Y404149D02*
X5800D01*
Y400600D01*
X9349D01*
Y401600D01*
X9155Y402575D01*
X8602Y403402D01*
X7775Y403955D01*
X6800Y404149D01*
D02*
G37*
G36*
X150500Y404650D02*
X146457D01*
Y401000D01*
X150500D01*
Y404650D01*
D02*
G37*
G36*
X210043Y399000D02*
X206000D01*
Y395350D01*
X210043D01*
Y399000D01*
D02*
G37*
G36*
X176500Y404150D02*
X168500D01*
Y400000D01*
Y395850D01*
X176500D01*
Y400000D01*
Y404150D01*
D02*
G37*
G36*
X205000Y399000D02*
X200957D01*
Y395350D01*
X205000D01*
Y399000D01*
D02*
G37*
G36*
X194500D02*
X190457D01*
Y395350D01*
X194500D01*
Y399000D01*
D02*
G37*
G36*
X199543D02*
X195500D01*
Y395350D01*
X199543D01*
Y399000D01*
D02*
G37*
G36*
X181543Y399500D02*
X177500D01*
Y395850D01*
X181543D01*
Y399500D01*
D02*
G37*
G36*
X214000Y401250D02*
X211531D01*
Y398585D01*
X214000D01*
Y401250D01*
D02*
G37*
G36*
X194500Y403650D02*
X190457D01*
Y400000D01*
X194500D01*
Y403650D01*
D02*
G37*
G36*
X150500Y400000D02*
X146457D01*
Y396350D01*
X150500D01*
Y400000D01*
D02*
G37*
G36*
X4800Y399600D02*
X1251D01*
Y398600D01*
X1445Y397624D01*
X1998Y396798D01*
X2825Y396245D01*
X3800Y396051D01*
X4800D01*
Y399600D01*
D02*
G37*
G36*
X9349D02*
X5800D01*
Y396051D01*
X6800D01*
X7775Y396245D01*
X8602Y396798D01*
X9155Y397624D01*
X9349Y398600D01*
Y399600D01*
D02*
G37*
G36*
X125000Y610041D02*
X123747Y609876D01*
X122579Y609393D01*
X121577Y608623D01*
X120807Y607621D01*
X120416Y606675D01*
X119584D01*
X119193Y607621D01*
X118423Y608623D01*
X117421Y609393D01*
X116253Y609876D01*
X115000Y610041D01*
X113747Y609876D01*
X112579Y609393D01*
X111577Y608623D01*
X110807Y607621D01*
X110416Y606675D01*
X109584D01*
X109193Y607621D01*
X108423Y608623D01*
X107421Y609393D01*
X106253Y609876D01*
X105000Y610041D01*
X103747Y609876D01*
X102579Y609393D01*
X101577Y608623D01*
X100807Y607621D01*
X100416Y606675D01*
X99584D01*
X99193Y607621D01*
X98423Y608623D01*
X97421Y609393D01*
X96253Y609876D01*
X95000Y610041D01*
X93747Y609876D01*
X92579Y609393D01*
X91577Y608623D01*
X90807Y607621D01*
X90416Y606675D01*
X89584D01*
X89193Y607621D01*
X88423Y608623D01*
X87421Y609393D01*
X86253Y609876D01*
X85000Y610041D01*
X83747Y609876D01*
X82579Y609393D01*
X81577Y608623D01*
X80807Y607621D01*
X80416Y606675D01*
X79584D01*
X79193Y607621D01*
X78423Y608623D01*
X77421Y609393D01*
X76253Y609876D01*
X75000Y610041D01*
X73747Y609876D01*
X72579Y609393D01*
X71577Y608623D01*
X70807Y607621D01*
X70416Y606675D01*
X69584D01*
X69193Y607621D01*
X68423Y608623D01*
X67421Y609393D01*
X66253Y609876D01*
X65000Y610041D01*
X63747Y609876D01*
X62579Y609393D01*
X61577Y608623D01*
X60807Y607621D01*
X60416Y606675D01*
X59584D01*
X59193Y607621D01*
X58423Y608623D01*
X57421Y609393D01*
X56253Y609876D01*
X55000Y610041D01*
X53747Y609876D01*
X52579Y609393D01*
X51577Y608623D01*
X50807Y607621D01*
X50324Y606453D01*
X50159Y605200D01*
Y604800D01*
X50324Y603547D01*
X50807Y602379D01*
X51577Y601377D01*
X52579Y600607D01*
X53747Y600124D01*
X55000Y599959D01*
X56253Y600124D01*
X57421Y600607D01*
X58423Y601377D01*
X59193Y602379D01*
X59584Y603325D01*
X60416D01*
X60807Y602379D01*
X61577Y601377D01*
X62579Y600607D01*
X63747Y600124D01*
X65000Y599959D01*
X66253Y600124D01*
X67421Y600607D01*
X68423Y601377D01*
X69193Y602379D01*
X69584Y603325D01*
X70416D01*
X70807Y602379D01*
X71577Y601377D01*
X72579Y600607D01*
X73747Y600124D01*
X75000Y599959D01*
X76253Y600124D01*
X77421Y600607D01*
X78423Y601377D01*
X79193Y602379D01*
X79584Y603325D01*
X80416D01*
X80807Y602379D01*
X81577Y601377D01*
X82579Y600607D01*
X83747Y600124D01*
X85000Y599959D01*
X86253Y600124D01*
X87421Y600607D01*
X88423Y601377D01*
X89193Y602379D01*
X89584Y603325D01*
X90416D01*
X90807Y602379D01*
X91577Y601377D01*
X92579Y600607D01*
X93747Y600124D01*
X95000Y599959D01*
X96253Y600124D01*
X97421Y600607D01*
X98423Y601377D01*
X99193Y602379D01*
X99584Y603325D01*
X100416D01*
X100807Y602379D01*
X101577Y601377D01*
X102579Y600607D01*
X103747Y600124D01*
X105000Y599959D01*
X106253Y600124D01*
X107421Y600607D01*
X108423Y601377D01*
X109193Y602379D01*
X109584Y603325D01*
X110416D01*
X110807Y602379D01*
X111577Y601377D01*
X112579Y600607D01*
X113747Y600124D01*
X115000Y599959D01*
X116253Y600124D01*
X117421Y600607D01*
X118423Y601377D01*
X119193Y602379D01*
X119584Y603325D01*
X120416D01*
X120807Y602379D01*
X121577Y601377D01*
X122579Y600607D01*
X123747Y600124D01*
X125000Y599959D01*
X126253Y600124D01*
X127421Y600607D01*
X128423Y601377D01*
X129193Y602379D01*
X129676Y603547D01*
X129841Y604800D01*
Y605200D01*
X129676Y606453D01*
X129193Y607621D01*
X128423Y608623D01*
X127421Y609393D01*
X126253Y609876D01*
X125000Y610041D01*
D02*
G37*
G36*
X215000D02*
X213747Y609876D01*
X212579Y609393D01*
X211577Y608623D01*
X210807Y607621D01*
X210416Y606675D01*
X209584D01*
X209193Y607621D01*
X208423Y608623D01*
X207421Y609393D01*
X206253Y609876D01*
X205000Y610041D01*
X203747Y609876D01*
X202579Y609393D01*
X201577Y608623D01*
X200807Y607621D01*
X200416Y606675D01*
X199584D01*
X199193Y607621D01*
X198423Y608623D01*
X197421Y609393D01*
X196253Y609876D01*
X195000Y610041D01*
X193747Y609876D01*
X192579Y609393D01*
X191577Y608623D01*
X190807Y607621D01*
X190416Y606675D01*
X189584D01*
X189193Y607621D01*
X188423Y608623D01*
X187421Y609393D01*
X186253Y609876D01*
X185000Y610041D01*
X183747Y609876D01*
X182579Y609393D01*
X181577Y608623D01*
X180807Y607621D01*
X180416Y606675D01*
X179584D01*
X179193Y607621D01*
X178423Y608623D01*
X177421Y609393D01*
X176253Y609876D01*
X175000Y610041D01*
X173747Y609876D01*
X172579Y609393D01*
X171577Y608623D01*
X170807Y607621D01*
X170416Y606675D01*
X169584D01*
X169193Y607621D01*
X168423Y608623D01*
X167421Y609393D01*
X166253Y609876D01*
X165000Y610041D01*
X163747Y609876D01*
X162579Y609393D01*
X161577Y608623D01*
X160807Y607621D01*
X160416Y606675D01*
X159584D01*
X159193Y607621D01*
X158423Y608623D01*
X157421Y609393D01*
X156253Y609876D01*
X155000Y610041D01*
X153747Y609876D01*
X152579Y609393D01*
X151577Y608623D01*
X150807Y607621D01*
X150416Y606675D01*
X149584D01*
X149193Y607621D01*
X148423Y608623D01*
X147421Y609393D01*
X146253Y609876D01*
X145000Y610041D01*
X143747Y609876D01*
X142579Y609393D01*
X141577Y608623D01*
X140807Y607621D01*
X140324Y606453D01*
X140159Y605200D01*
Y604800D01*
X140324Y603547D01*
X140807Y602379D01*
X141577Y601377D01*
X142579Y600607D01*
X143747Y600124D01*
X145000Y599959D01*
X146253Y600124D01*
X147421Y600607D01*
X148423Y601377D01*
X149193Y602379D01*
X149584Y603325D01*
X150416D01*
X150807Y602379D01*
X151577Y601377D01*
X152579Y600607D01*
X153747Y600124D01*
X155000Y599959D01*
X156253Y600124D01*
X157421Y600607D01*
X158423Y601377D01*
X159193Y602379D01*
X159584Y603325D01*
X160416D01*
X160807Y602379D01*
X161577Y601377D01*
X162579Y600607D01*
X163747Y600124D01*
X165000Y599959D01*
X166253Y600124D01*
X167421Y600607D01*
X168423Y601377D01*
X169193Y602379D01*
X169584Y603325D01*
X170416D01*
X170807Y602379D01*
X171577Y601377D01*
X172579Y600607D01*
X173747Y600124D01*
X175000Y599959D01*
X176253Y600124D01*
X177421Y600607D01*
X178423Y601377D01*
X179193Y602379D01*
X179584Y603325D01*
X180416D01*
X180807Y602379D01*
X181577Y601377D01*
X182579Y600607D01*
X183747Y600124D01*
X185000Y599959D01*
X186253Y600124D01*
X187421Y600607D01*
X188423Y601377D01*
X189193Y602379D01*
X189584Y603325D01*
X190416D01*
X190807Y602379D01*
X191577Y601377D01*
X192579Y600607D01*
X193747Y600124D01*
X195000Y599959D01*
X196253Y600124D01*
X197421Y600607D01*
X198423Y601377D01*
X199193Y602379D01*
X199584Y603325D01*
X200416D01*
X200807Y602379D01*
X201577Y601377D01*
X202579Y600607D01*
X203747Y600124D01*
X205000Y599959D01*
X206253Y600124D01*
X207421Y600607D01*
X208423Y601377D01*
X209193Y602379D01*
X209584Y603325D01*
X210416D01*
X210807Y602379D01*
X211577Y601377D01*
X212579Y600607D01*
X213747Y600124D01*
X215000Y599959D01*
X216253Y600124D01*
X217421Y600607D01*
X218423Y601377D01*
X219193Y602379D01*
X219676Y603547D01*
X219841Y604800D01*
Y605200D01*
X219676Y606453D01*
X219193Y607621D01*
X218423Y608623D01*
X217421Y609393D01*
X216253Y609876D01*
X215000Y610041D01*
D02*
G37*
G36*
X19543Y597150D02*
X15500D01*
Y593500D01*
X19543D01*
Y597150D01*
D02*
G37*
G36*
Y592500D02*
X15500D01*
Y588850D01*
X19543D01*
Y592500D01*
D02*
G37*
G36*
X14500Y597150D02*
X10457D01*
Y593500D01*
X14500D01*
Y597150D01*
D02*
G37*
G36*
X294500Y632000D02*
X290457D01*
Y628350D01*
X294500D01*
Y632000D01*
D02*
G37*
G36*
X299543Y636650D02*
X295500D01*
Y633000D01*
X299543D01*
Y636650D01*
D02*
G37*
G36*
X59500Y644500D02*
X57551D01*
X57645Y644025D01*
X58198Y643198D01*
X59025Y642645D01*
X59500Y642551D01*
Y644500D01*
D02*
G37*
G36*
X62450D02*
X60500D01*
Y642551D01*
X60975Y642645D01*
X61802Y643198D01*
X62355Y644025D01*
X62450Y644500D01*
D02*
G37*
G36*
X299543Y632000D02*
X295500D01*
Y628350D01*
X299543D01*
Y632000D01*
D02*
G37*
G36*
X294500Y636650D02*
X290457D01*
Y633000D01*
X294500D01*
Y636650D01*
D02*
G37*
G36*
X149200Y426650D02*
Y424700D01*
X151149D01*
X151055Y425176D01*
X150502Y426002D01*
X149676Y426555D01*
X149200Y426650D01*
D02*
G37*
G36*
X82450Y644500D02*
X80500D01*
Y642551D01*
X80976Y642645D01*
X81802Y643198D01*
X82355Y644025D01*
X82450Y644500D01*
D02*
G37*
G36*
X148200Y426650D02*
X147724Y426555D01*
X146898Y426002D01*
X146345Y425176D01*
X146250Y424700D01*
X148200D01*
Y426650D01*
D02*
G37*
G36*
X151149Y423700D02*
X149200D01*
Y421750D01*
X149676Y421845D01*
X150502Y422398D01*
X151055Y423224D01*
X151149Y423700D01*
D02*
G37*
G36*
X170800Y438428D02*
X169939Y438315D01*
X169136Y437983D01*
X168446Y437454D01*
X168362Y437343D01*
X162200D01*
X161342Y437172D01*
X160614Y436686D01*
X158714Y434786D01*
X158228Y434058D01*
X158085Y433343D01*
X155050D01*
Y422657D01*
X164950D01*
Y432857D01*
X166050D01*
Y422657D01*
X175950D01*
Y426877D01*
X178386Y429314D01*
X178872Y430042D01*
X179043Y430900D01*
Y433665D01*
X179115Y433839D01*
X179228Y434700D01*
X179115Y435562D01*
X178782Y436364D01*
X178254Y437054D01*
X177564Y437582D01*
X176761Y437915D01*
X175900Y438028D01*
X175039Y437915D01*
X174236Y437582D01*
X174127Y437499D01*
X173154Y437454D01*
X172464Y437983D01*
X171661Y438315D01*
X170800Y438428D01*
D02*
G37*
G36*
X4800Y449600D02*
X1251D01*
Y448600D01*
X1445Y447624D01*
X1998Y446798D01*
X2825Y446245D01*
X3800Y446051D01*
X4800D01*
Y449600D01*
D02*
G37*
G36*
X79500Y644500D02*
X77551D01*
X77645Y644025D01*
X78198Y643198D01*
X79024Y642645D01*
X79500Y642551D01*
Y644500D01*
D02*
G37*
G36*
X14500Y592500D02*
X10457D01*
Y588850D01*
X14500D01*
Y592500D01*
D02*
G37*
G36*
X6800Y454149D02*
X5800D01*
Y450600D01*
X9349D01*
Y451600D01*
X9155Y452575D01*
X8602Y453402D01*
X7775Y453955D01*
X6800Y454149D01*
D02*
G37*
G36*
X9349Y449600D02*
X5800D01*
Y446051D01*
X6800D01*
X7775Y446245D01*
X8602Y446798D01*
X9155Y447624D01*
X9349Y448600D01*
Y449600D01*
D02*
G37*
G36*
X4800Y454149D02*
X3800D01*
X2825Y453955D01*
X1998Y453402D01*
X1445Y452575D01*
X1251Y451600D01*
Y450600D01*
X4800D01*
Y454149D01*
D02*
G37*
G36*
X200250Y313000D02*
X197585D01*
Y310531D01*
X200250D01*
Y313000D01*
D02*
G37*
G36*
X15500Y318480D02*
X14824Y318413D01*
X13693Y318070D01*
X12650Y317513D01*
X11737Y316763D01*
X10987Y315849D01*
X10430Y314807D01*
X10087Y313676D01*
X10020Y313000D01*
X15500D01*
Y318480D01*
D02*
G37*
G36*
X359980Y312000D02*
X354500D01*
Y306520D01*
X355176Y306587D01*
X356307Y306930D01*
X357349Y307487D01*
X358263Y308237D01*
X359013Y309151D01*
X359570Y310193D01*
X359913Y311324D01*
X359980Y312000D01*
D02*
G37*
G36*
X21980D02*
X16500D01*
Y306520D01*
X17176Y306587D01*
X18307Y306930D01*
X19350Y307487D01*
X20263Y308237D01*
X21013Y309151D01*
X21570Y310193D01*
X21913Y311324D01*
X21980Y312000D01*
D02*
G37*
G36*
X353500D02*
X348020D01*
X348087Y311324D01*
X348430Y310193D01*
X348987Y309151D01*
X349737Y308237D01*
X350651Y307487D01*
X351693Y306930D01*
X352824Y306587D01*
X353500Y306520D01*
Y312000D01*
D02*
G37*
G36*
X16500Y318480D02*
Y313000D01*
X21980D01*
X21913Y313676D01*
X21570Y314807D01*
X21013Y315849D01*
X20263Y316763D01*
X19350Y317513D01*
X18307Y318070D01*
X17176Y318413D01*
X16500Y318480D01*
D02*
G37*
G36*
X191700Y318300D02*
X188736D01*
X188790Y317886D01*
X189143Y317035D01*
X189704Y316304D01*
X190435Y315743D01*
X191286Y315390D01*
X191700Y315336D01*
Y318300D01*
D02*
G37*
G36*
X195664D02*
X192700D01*
Y315336D01*
X193114Y315390D01*
X193965Y315743D01*
X194696Y316304D01*
X195257Y317035D01*
X195610Y317886D01*
X195664Y318300D01*
D02*
G37*
G36*
X200250Y316469D02*
X197585D01*
Y314000D01*
X200250D01*
Y316469D01*
D02*
G37*
G36*
X353500Y318480D02*
X352824Y318413D01*
X351693Y318070D01*
X350651Y317513D01*
X349737Y316763D01*
X348987Y315849D01*
X348430Y314807D01*
X348087Y313676D01*
X348020Y313000D01*
X353500D01*
Y318480D01*
D02*
G37*
G36*
X354500D02*
Y313000D01*
X359980D01*
X359913Y313676D01*
X359570Y314807D01*
X359013Y315849D01*
X358263Y316763D01*
X357349Y317513D01*
X356307Y318070D01*
X355176Y318413D01*
X354500Y318480D01*
D02*
G37*
G36*
X15500Y312000D02*
X10020D01*
X10087Y311324D01*
X10430Y310193D01*
X10987Y309151D01*
X11737Y308237D01*
X12650Y307487D01*
X13693Y306930D01*
X14824Y306587D01*
X15500Y306520D01*
Y312000D01*
D02*
G37*
G36*
X373821Y739388D02*
X373691D01*
X373469Y739378D01*
X373256Y739360D01*
X373053Y739332D01*
X372868Y739295D01*
X372702Y739240D01*
X372544Y739193D01*
X372396Y739138D01*
X372267Y739082D01*
X372156Y739018D01*
X372054Y738962D01*
X371971Y738916D01*
X371906Y738870D01*
X371850Y738824D01*
X371804Y738796D01*
X371786Y738777D01*
X371777Y738768D01*
X371656Y738648D01*
X371554Y738518D01*
X371471Y738389D01*
X371388Y738259D01*
X371323Y738130D01*
X371277Y737991D01*
X371231Y737871D01*
X371194Y737741D01*
X371166Y737630D01*
X371147Y737519D01*
X371129Y737427D01*
X371120Y737344D01*
Y737279D01*
X371111Y737232D01*
Y737195D01*
Y737186D01*
X371120Y737010D01*
X371138Y736844D01*
X371175Y736696D01*
X371212Y736548D01*
X371268Y736409D01*
X371323Y736280D01*
X371379Y736160D01*
X371444Y736049D01*
X371508Y735956D01*
X371564Y735873D01*
X371619Y735799D01*
X371675Y735734D01*
X371712Y735688D01*
X371749Y735651D01*
X371767Y735632D01*
X371777Y735623D01*
X371906Y735512D01*
X372045Y735420D01*
X372193Y735336D01*
X372341Y735262D01*
X372498Y735207D01*
X372646Y735151D01*
X372942Y735077D01*
X373072Y735059D01*
X373201Y735040D01*
X373312Y735022D01*
X373405Y735012D01*
X373488Y735003D01*
X373599D01*
X373858Y735012D01*
X374098Y735031D01*
X374329Y735059D01*
X374533Y735105D01*
X374718Y735151D01*
X374885Y735207D01*
X375042Y735272D01*
X375171Y735327D01*
X375291Y735392D01*
X375393Y735447D01*
X375477Y735503D01*
X375541Y735549D01*
X375597Y735595D01*
X375634Y735623D01*
X375652Y735641D01*
X375661Y735651D01*
X375773Y735771D01*
X375865Y735900D01*
X375948Y736030D01*
X376022Y736169D01*
X376078Y736298D01*
X376133Y736428D01*
X376207Y736668D01*
X376226Y736779D01*
X376244Y736881D01*
X376263Y736964D01*
X376272Y737047D01*
X376281Y737112D01*
Y737158D01*
Y737186D01*
Y737195D01*
X376272Y737427D01*
X376235Y737649D01*
X376180Y737843D01*
X376124Y738010D01*
X376059Y738148D01*
X376031Y738204D01*
X376013Y738250D01*
X375985Y738296D01*
X375976Y738324D01*
X375957Y738333D01*
Y738343D01*
X375828Y738518D01*
X375680Y738675D01*
X375532Y738814D01*
X375384Y738925D01*
X375255Y739009D01*
X375144Y739073D01*
X375107Y739092D01*
X375079Y739110D01*
X375060Y739119D01*
X375051D01*
X374829Y739212D01*
X374588Y739277D01*
X374366Y739323D01*
X374154Y739351D01*
X374052Y739369D01*
X373969Y739378D01*
X373885D01*
X373821Y739388D01*
D02*
G37*
G36*
X147337Y758944D02*
X147271D01*
X147148Y758933D01*
X147026Y758921D01*
X146915Y758888D01*
X146815Y758844D01*
X146626Y758744D01*
X146460Y758633D01*
X146337Y758510D01*
X146237Y758411D01*
X146204Y758366D01*
X146182Y758333D01*
X146160Y758322D01*
Y758311D01*
X146082Y758177D01*
X146015Y758022D01*
X145949Y757844D01*
X145904Y757655D01*
X145860Y757455D01*
X145826Y757244D01*
X145771Y756822D01*
X145749Y756611D01*
X145738Y756422D01*
X145726Y756244D01*
Y756100D01*
X145715Y755966D01*
Y755866D01*
Y755811D01*
Y755800D01*
Y755789D01*
Y755444D01*
X145738Y755133D01*
X145760Y754855D01*
X145782Y754589D01*
X145815Y754366D01*
X145860Y754155D01*
X145904Y753978D01*
X145937Y753811D01*
X145982Y753678D01*
X146026Y753567D01*
X146060Y753467D01*
X146104Y753389D01*
X146126Y753333D01*
X146149Y753300D01*
X146171Y753278D01*
Y753266D01*
X146260Y753155D01*
X146349Y753067D01*
X146437Y752978D01*
X146526Y752911D01*
X146715Y752800D01*
X146882Y752722D01*
X147037Y752678D01*
X147148Y752656D01*
X147193Y752644D01*
X147259D01*
X147382Y752656D01*
X147493Y752667D01*
X147704Y752744D01*
X147893Y752844D01*
X148059Y752955D01*
X148182Y753067D01*
X148282Y753167D01*
X148337Y753244D01*
X148359Y753255D01*
Y753266D01*
X148437Y753400D01*
X148504Y753555D01*
X148571Y753733D01*
X148615Y753922D01*
X148659Y754122D01*
X148693Y754333D01*
X148748Y754766D01*
X148770Y754966D01*
X148782Y755155D01*
X148793Y755333D01*
Y755477D01*
X148804Y755611D01*
Y755711D01*
Y755766D01*
Y755789D01*
X148793Y756133D01*
X148782Y756444D01*
X148759Y756733D01*
X148726Y756999D01*
X148693Y757233D01*
X148648Y757444D01*
X148604Y757633D01*
X148559Y757799D01*
X148515Y757944D01*
X148482Y758066D01*
X148437Y758166D01*
X148404Y758255D01*
X148371Y758311D01*
X148348Y758355D01*
X148326Y758377D01*
Y758388D01*
X148248Y758488D01*
X148171Y758577D01*
X148082Y758644D01*
X147993Y758710D01*
X147815Y758810D01*
X147648Y758877D01*
X147504Y758910D01*
X147382Y758933D01*
X147337Y758944D01*
D02*
G37*
G36*
X373821Y721498D02*
X373691D01*
X373469Y721489D01*
X373256Y721470D01*
X373053Y721443D01*
X372868Y721406D01*
X372702Y721350D01*
X372544Y721304D01*
X372396Y721248D01*
X372267Y721193D01*
X372156Y721128D01*
X372054Y721073D01*
X371971Y721027D01*
X371906Y720980D01*
X371850Y720934D01*
X371804Y720906D01*
X371786Y720888D01*
X371777Y720879D01*
X371656Y720758D01*
X371554Y720629D01*
X371471Y720499D01*
X371388Y720370D01*
X371323Y720240D01*
X371277Y720101D01*
X371231Y719981D01*
X371194Y719852D01*
X371166Y719741D01*
X371147Y719630D01*
X371129Y719537D01*
X371120Y719454D01*
Y719389D01*
X371111Y719343D01*
Y719306D01*
Y719297D01*
X371120Y719121D01*
X371138Y718955D01*
X371175Y718807D01*
X371212Y718658D01*
X371268Y718520D01*
X371323Y718390D01*
X371379Y718270D01*
X371444Y718159D01*
X371508Y718067D01*
X371564Y717983D01*
X371619Y717909D01*
X371675Y717844D01*
X371712Y717798D01*
X371749Y717761D01*
X371767Y717743D01*
X371777Y717733D01*
X371906Y717623D01*
X372045Y717530D01*
X372193Y717447D01*
X372341Y717373D01*
X372498Y717317D01*
X372646Y717262D01*
X372942Y717188D01*
X373072Y717169D01*
X373201Y717151D01*
X373312Y717132D01*
X373405Y717123D01*
X373488Y717114D01*
X373599D01*
X373858Y717123D01*
X374098Y717141D01*
X374329Y717169D01*
X374533Y717215D01*
X374718Y717262D01*
X374885Y717317D01*
X375042Y717382D01*
X375171Y717438D01*
X375291Y717502D01*
X375393Y717558D01*
X375477Y717613D01*
X375541Y717660D01*
X375597Y717706D01*
X375634Y717733D01*
X375652Y717752D01*
X375661Y717761D01*
X375773Y717881D01*
X375865Y718011D01*
X375948Y718141D01*
X376022Y718279D01*
X376078Y718409D01*
X376133Y718538D01*
X376207Y718779D01*
X376226Y718890D01*
X376244Y718992D01*
X376263Y719075D01*
X376272Y719158D01*
X376281Y719223D01*
Y719269D01*
Y719297D01*
Y719306D01*
X376272Y719537D01*
X376235Y719759D01*
X376180Y719953D01*
X376124Y720120D01*
X376059Y720259D01*
X376031Y720314D01*
X376013Y720361D01*
X375985Y720407D01*
X375976Y720435D01*
X375957Y720444D01*
Y720453D01*
X375828Y720629D01*
X375680Y720786D01*
X375532Y720925D01*
X375384Y721036D01*
X375255Y721119D01*
X375144Y721184D01*
X375107Y721202D01*
X375079Y721221D01*
X375060Y721230D01*
X375051D01*
X374829Y721322D01*
X374588Y721387D01*
X374366Y721433D01*
X374154Y721461D01*
X374052Y721480D01*
X373969Y721489D01*
X373885D01*
X373821Y721498D01*
D02*
G37*
G36*
X372415Y714468D02*
X372359D01*
X372248Y714459D01*
X372137Y714450D01*
X372045Y714431D01*
X371971Y714403D01*
X371906Y714376D01*
X371850Y714357D01*
X371823Y714348D01*
X371814Y714339D01*
X371730Y714283D01*
X371656Y714237D01*
X371601Y714172D01*
X371545Y714126D01*
X371508Y714080D01*
X371480Y714043D01*
X371462Y714015D01*
X371453Y714006D01*
X371379Y713848D01*
X371323Y713691D01*
X371305Y713626D01*
X371295Y713571D01*
X371286Y713534D01*
Y713525D01*
X371277Y713451D01*
X371268Y713368D01*
X371258Y713173D01*
Y713081D01*
Y713007D01*
Y712960D01*
Y712951D01*
Y712942D01*
Y711351D01*
X373460D01*
Y712822D01*
Y713034D01*
X373442Y713229D01*
X373423Y713386D01*
X373405Y713516D01*
X373386Y713617D01*
X373368Y713700D01*
X373358Y713737D01*
X373349Y713756D01*
X373303Y713876D01*
X373247Y713978D01*
X373183Y714071D01*
X373118Y714145D01*
X373062Y714200D01*
X373016Y714237D01*
X372979Y714265D01*
X372970Y714274D01*
X372868Y714339D01*
X372766Y714385D01*
X372664Y714422D01*
X372572Y714440D01*
X372489Y714459D01*
X372415Y714468D01*
D02*
G37*
G36*
X375218Y714191D02*
X375162D01*
X375042Y714182D01*
X374931Y714163D01*
X374838Y714135D01*
X374764Y714108D01*
X374699Y714080D01*
X374644Y714052D01*
X374616Y714034D01*
X374607Y714024D01*
X374533Y713960D01*
X374459Y713876D01*
X374404Y713793D01*
X374366Y713719D01*
X374329Y713645D01*
X374302Y713589D01*
X374292Y713553D01*
X374283Y713534D01*
X374265Y713432D01*
X374246Y713303D01*
X374237Y713173D01*
X374228Y713044D01*
X374219Y712923D01*
Y712822D01*
Y712785D01*
Y712757D01*
Y712739D01*
Y712729D01*
Y711351D01*
X376143D01*
Y712628D01*
Y712748D01*
Y712868D01*
X376124Y713071D01*
X376115Y713229D01*
X376096Y713368D01*
X376078Y713469D01*
X376068Y713534D01*
X376050Y713580D01*
Y713589D01*
X376013Y713691D01*
X375957Y713784D01*
X375902Y713858D01*
X375847Y713923D01*
X375800Y713969D01*
X375754Y714006D01*
X375726Y714024D01*
X375717Y714034D01*
X375624Y714089D01*
X375532Y714126D01*
X375440Y714154D01*
X375347Y714172D01*
X375273Y714182D01*
X375218Y714191D01*
D02*
G37*
G36*
X171102Y755555D02*
X169080D01*
X168846Y755533D01*
X168657Y755511D01*
X168502Y755488D01*
X168380Y755466D01*
X168280Y755444D01*
X168235Y755433D01*
X168213Y755422D01*
X168069Y755366D01*
X167946Y755300D01*
X167835Y755222D01*
X167746Y755144D01*
X167680Y755078D01*
X167635Y755022D01*
X167602Y754978D01*
X167591Y754966D01*
X167513Y754844D01*
X167457Y754722D01*
X167413Y754600D01*
X167391Y754489D01*
X167369Y754389D01*
X167358Y754300D01*
Y754255D01*
Y754233D01*
X167369Y754100D01*
X167380Y753967D01*
X167402Y753855D01*
X167435Y753766D01*
X167469Y753689D01*
X167491Y753622D01*
X167502Y753589D01*
X167513Y753578D01*
X167580Y753478D01*
X167635Y753389D01*
X167713Y753322D01*
X167769Y753255D01*
X167824Y753211D01*
X167869Y753178D01*
X167902Y753155D01*
X167913Y753144D01*
X168102Y753055D01*
X168291Y752989D01*
X168368Y752967D01*
X168435Y752955D01*
X168480Y752944D01*
X168491D01*
X168580Y752933D01*
X168680Y752922D01*
X168913Y752911D01*
X171102D01*
Y755555D01*
D02*
G37*
G36*
X200250Y297500D02*
X196950D01*
Y295200D01*
X200250D01*
Y297500D01*
D02*
G37*
G36*
Y300800D02*
X196950D01*
Y298500D01*
X200250D01*
Y300800D01*
D02*
G37*
G36*
X171102Y758777D02*
X169280D01*
X169035Y758755D01*
X168846Y758744D01*
X168680Y758722D01*
X168557Y758699D01*
X168480Y758688D01*
X168424Y758666D01*
X168413D01*
X168291Y758622D01*
X168180Y758555D01*
X168091Y758488D01*
X168013Y758422D01*
X167957Y758366D01*
X167913Y758311D01*
X167891Y758277D01*
X167880Y758266D01*
X167813Y758155D01*
X167769Y758044D01*
X167735Y757933D01*
X167713Y757822D01*
X167702Y757733D01*
X167691Y757666D01*
Y757622D01*
Y757599D01*
X167702Y757455D01*
X167724Y757322D01*
X167757Y757211D01*
X167791Y757122D01*
X167824Y757044D01*
X167858Y756977D01*
X167880Y756944D01*
X167891Y756933D01*
X167969Y756844D01*
X168069Y756755D01*
X168169Y756688D01*
X168257Y756644D01*
X168346Y756600D01*
X168413Y756566D01*
X168457Y756555D01*
X168480Y756544D01*
X168602Y756522D01*
X168757Y756499D01*
X168913Y756488D01*
X169069Y756477D01*
X169213Y756466D01*
X171102D01*
Y758777D01*
D02*
G37*
G36*
X141327Y758944D02*
X141149D01*
X141038Y758921D01*
X140838Y758866D01*
X140660Y758788D01*
X140505Y758710D01*
X140382Y758622D01*
X140294Y758544D01*
X140238Y758488D01*
X140216Y758477D01*
Y758466D01*
X140071Y758277D01*
X139960Y758066D01*
X139883Y757844D01*
X139838Y757633D01*
X139805Y757455D01*
X139794Y757377D01*
Y757300D01*
X139783Y757244D01*
Y757199D01*
Y757177D01*
Y757166D01*
X139805Y756877D01*
X139849Y756622D01*
X139916Y756411D01*
X139994Y756233D01*
X140083Y756088D01*
X140149Y755989D01*
X140194Y755922D01*
X140216Y755900D01*
X140382Y755744D01*
X140560Y755633D01*
X140738Y755555D01*
X140916Y755500D01*
X141060Y755466D01*
X141182Y755455D01*
X141227Y755444D01*
X141294D01*
X141527Y755466D01*
X141738Y755511D01*
X141927Y755588D01*
X142093Y755677D01*
X142216Y755755D01*
X142316Y755833D01*
X142371Y755877D01*
X142393Y755900D01*
X142538Y756077D01*
X142649Y756277D01*
X142716Y756477D01*
X142771Y756666D01*
X142804Y756833D01*
X142815Y756899D01*
Y756966D01*
X142827Y757022D01*
Y757055D01*
Y757077D01*
Y757088D01*
X142804Y757377D01*
X142760Y757644D01*
X142682Y757877D01*
X142593Y758066D01*
X142516Y758222D01*
X142438Y758333D01*
X142416Y758366D01*
X142393Y758399D01*
X142371Y758411D01*
Y758422D01*
X142282Y758510D01*
X142193Y758599D01*
X142005Y758722D01*
X141816Y758821D01*
X141638Y758877D01*
X141493Y758921D01*
X141371Y758933D01*
X141327Y758944D01*
D02*
G37*
G36*
X185978Y758777D02*
X183778D01*
X183578Y758766D01*
X183412Y758755D01*
X183278Y758744D01*
X183189Y758722D01*
X183123Y758710D01*
X183078Y758699D01*
X183067D01*
X182923Y758644D01*
X182800Y758577D01*
X182689Y758510D01*
X182589Y758433D01*
X182523Y758355D01*
X182467Y758299D01*
X182434Y758255D01*
X182423Y758244D01*
X182345Y758111D01*
X182278Y757977D01*
X182234Y757833D01*
X182212Y757711D01*
X182189Y757599D01*
X182178Y757499D01*
Y757444D01*
Y757433D01*
Y757422D01*
X182201Y757188D01*
X182245Y756988D01*
X182312Y756811D01*
X182389Y756666D01*
X182467Y756555D01*
X182534Y756466D01*
X182578Y756422D01*
X182600Y756400D01*
X182678Y756333D01*
X182778Y756277D01*
X182989Y756188D01*
X183223Y756122D01*
X183456Y756077D01*
X183667Y756055D01*
X183756Y756044D01*
X183834D01*
X183911Y756033D01*
X185978D01*
Y758777D01*
D02*
G37*
G36*
X177097Y375095D02*
X170697D01*
Y371445D01*
X177097D01*
Y375095D01*
D02*
G37*
G36*
X218500Y377500D02*
X214457D01*
Y373850D01*
X218500D01*
Y377500D01*
D02*
G37*
G36*
X169697Y375095D02*
X163297D01*
Y371445D01*
X169697D01*
Y375095D01*
D02*
G37*
G36*
X156500Y373250D02*
X154032D01*
Y370585D01*
X156500D01*
Y373250D01*
D02*
G37*
G36*
X159968D02*
X157500D01*
Y370585D01*
X159968D01*
Y373250D01*
D02*
G37*
G36*
X218500Y382150D02*
X214457D01*
Y378500D01*
X218500D01*
Y382150D01*
D02*
G37*
G36*
X146200Y388964D02*
X145786Y388910D01*
X144935Y388557D01*
X144204Y387996D01*
X143643Y387265D01*
X143290Y386414D01*
X143236Y386000D01*
X146200D01*
Y388964D01*
D02*
G37*
G36*
X147200D02*
Y386000D01*
X150164D01*
X150110Y386414D01*
X149757Y387265D01*
X149196Y387996D01*
X148465Y388557D01*
X147614Y388910D01*
X147200Y388964D01*
D02*
G37*
G36*
X177897Y394005D02*
X162497D01*
Y384105D01*
X162497Y384105D01*
X162497D01*
X162497Y384105D01*
X162209Y383424D01*
X160768D01*
Y384215D01*
X153232D01*
Y376285D01*
X154032D01*
Y374250D01*
X159968D01*
Y376285D01*
X160768D01*
Y377776D01*
X168460D01*
X168536Y377717D01*
X169339Y377385D01*
X170200Y377272D01*
X171062Y377385D01*
X171864Y377717D01*
X172554Y378246D01*
X173082Y378936D01*
X173415Y379738D01*
X173529Y380600D01*
X173415Y381462D01*
X173082Y382264D01*
X173021Y382344D01*
Y384105D01*
X177897D01*
Y394005D01*
D02*
G37*
G36*
X146200Y385000D02*
X143236D01*
X143290Y384586D01*
X143643Y383735D01*
X144204Y383004D01*
X144935Y382443D01*
X145786Y382090D01*
X146200Y382036D01*
Y385000D01*
D02*
G37*
G36*
X150164D02*
X147200D01*
Y382036D01*
X147614Y382090D01*
X148465Y382443D01*
X149196Y383004D01*
X149757Y383735D01*
X150110Y384586D01*
X150164Y385000D01*
D02*
G37*
G36*
X218800Y371250D02*
Y369300D01*
X220749D01*
X220655Y369776D01*
X220102Y370602D01*
X219275Y371155D01*
X218800Y371250D01*
D02*
G37*
G36*
X354000Y349333D02*
X352667Y349202D01*
X351385Y348813D01*
X350204Y348181D01*
X349168Y347332D01*
X348319Y346296D01*
X347687Y345115D01*
X347298Y343833D01*
X347167Y342500D01*
X347298Y341167D01*
X347687Y339885D01*
X348319Y338704D01*
X349168Y337668D01*
X350204Y336819D01*
X351385Y336187D01*
X352667Y335798D01*
X354000Y335667D01*
X355333Y335798D01*
X356615Y336187D01*
X357796Y336819D01*
X358832Y337668D01*
X359681Y338704D01*
X360313Y339885D01*
X360702Y341167D01*
X360833Y342500D01*
X360702Y343833D01*
X360313Y345115D01*
X359681Y346296D01*
X358832Y347332D01*
X357796Y348181D01*
X356615Y348813D01*
X355333Y349202D01*
X354000Y349333D01*
D02*
G37*
G36*
X23900Y391537D02*
X22777Y391389D01*
X21732Y390956D01*
X20833Y390267D01*
X20144Y389369D01*
X19711Y388322D01*
X19563Y387200D01*
X19711Y386077D01*
X20144Y385031D01*
X20833Y384133D01*
X21732Y383444D01*
X22777Y383011D01*
X23900Y382863D01*
X24203Y382903D01*
X24976Y382130D01*
Y362670D01*
X22916Y360609D01*
X21992Y360715D01*
X21681Y361296D01*
X20832Y362332D01*
X19796Y363181D01*
X18615Y363813D01*
X17333Y364202D01*
X16000Y364333D01*
X14667Y364202D01*
X13385Y363813D01*
X12204Y363181D01*
X11168Y362332D01*
X10319Y361296D01*
X9687Y360115D01*
X9298Y358833D01*
X9167Y357500D01*
X9298Y356167D01*
X9687Y354885D01*
X10319Y353704D01*
X11168Y352668D01*
X12204Y351819D01*
X13385Y351187D01*
X14667Y350798D01*
X16000Y350667D01*
X17333Y350798D01*
X18615Y351187D01*
X19796Y351819D01*
X20832Y352668D01*
X21681Y353704D01*
X22201Y354676D01*
X23800D01*
X24531Y354772D01*
X24730Y354855D01*
X25212Y355054D01*
X25797Y355503D01*
X29797Y359503D01*
X30246Y360088D01*
X30528Y360769D01*
X30624Y361500D01*
Y383300D01*
X30528Y384031D01*
X30387Y384371D01*
X30246Y384712D01*
X29797Y385297D01*
X28197Y386897D01*
X28237Y387200D01*
X28089Y388322D01*
X27656Y389369D01*
X26967Y390267D01*
X26068Y390956D01*
X25023Y391389D01*
X23900Y391537D01*
D02*
G37*
G36*
X16000Y334333D02*
X14667Y334202D01*
X13385Y333813D01*
X12204Y333181D01*
X11168Y332332D01*
X10319Y331296D01*
X9687Y330115D01*
X9298Y328833D01*
X9167Y327500D01*
X9298Y326167D01*
X9687Y324885D01*
X10319Y323704D01*
X11168Y322668D01*
X12204Y321819D01*
X13385Y321187D01*
X14667Y320798D01*
X16000Y320667D01*
X17333Y320798D01*
X18615Y321187D01*
X19796Y321819D01*
X20832Y322668D01*
X21681Y323704D01*
X22313Y324885D01*
X22702Y326167D01*
X22833Y327500D01*
X22702Y328833D01*
X22313Y330115D01*
X21681Y331296D01*
X20832Y332332D01*
X19796Y333181D01*
X18615Y333813D01*
X17333Y334202D01*
X16000Y334333D01*
D02*
G37*
G36*
X191700Y322264D02*
X191286Y322210D01*
X190435Y321857D01*
X189704Y321296D01*
X189143Y320565D01*
X188790Y319714D01*
X188736Y319300D01*
X191700D01*
Y322264D01*
D02*
G37*
G36*
X192700D02*
Y319300D01*
X195664D01*
X195610Y319714D01*
X195257Y320565D01*
X194696Y321296D01*
X193965Y321857D01*
X193114Y322210D01*
X192700Y322264D01*
D02*
G37*
G36*
X16000Y379333D02*
X14667Y379202D01*
X13385Y378813D01*
X12204Y378181D01*
X11168Y377332D01*
X10319Y376296D01*
X9687Y375115D01*
X9298Y373833D01*
X9167Y372500D01*
X9298Y371167D01*
X9687Y369885D01*
X10319Y368704D01*
X11168Y367668D01*
X12204Y366819D01*
X13385Y366187D01*
X14667Y365798D01*
X16000Y365667D01*
X17333Y365798D01*
X18615Y366187D01*
X19796Y366819D01*
X20832Y367668D01*
X21681Y368704D01*
X22313Y369885D01*
X22702Y371167D01*
X22833Y372500D01*
X22702Y373833D01*
X22313Y375115D01*
X21681Y376296D01*
X20832Y377332D01*
X19796Y378181D01*
X18615Y378813D01*
X17333Y379202D01*
X16000Y379333D01*
D02*
G37*
G36*
X177097Y370445D02*
X170697D01*
Y366795D01*
X177097D01*
Y370445D01*
D02*
G37*
G36*
X217800Y371250D02*
X217324Y371155D01*
X216498Y370602D01*
X215945Y369776D01*
X215850Y369300D01*
X217800D01*
Y371250D01*
D02*
G37*
G36*
X169697Y370445D02*
X163297D01*
Y366795D01*
X169697D01*
Y370445D01*
D02*
G37*
G36*
X217800Y368300D02*
X215850D01*
X215945Y367825D01*
X216498Y366998D01*
X217324Y366445D01*
X217800Y366351D01*
Y368300D01*
D02*
G37*
G36*
X220749D02*
X218800D01*
Y366351D01*
X219275Y366445D01*
X220102Y366998D01*
X220655Y367825D01*
X220749Y368300D01*
D02*
G37*
G36*
X102450Y644500D02*
X100500D01*
Y642551D01*
X100976Y642645D01*
X101802Y643198D01*
X102355Y644025D01*
X102450Y644500D01*
D02*
G37*
G36*
X183700Y718649D02*
Y716700D01*
X185650D01*
X185555Y717175D01*
X185002Y718002D01*
X184176Y718555D01*
X183700Y718649D01*
D02*
G37*
G36*
X26464Y752500D02*
X13536D01*
X11768Y751768D01*
X3232Y743232D01*
X2500Y741465D01*
Y728536D01*
X3232Y726768D01*
X11768Y718232D01*
X13536Y717500D01*
X26464D01*
X28232Y718232D01*
X36768Y726768D01*
X37500Y728536D01*
Y741465D01*
X36768Y743232D01*
X28232Y751768D01*
X26464Y752500D01*
D02*
G37*
G36*
X185915Y723500D02*
X183250D01*
Y721032D01*
X185915D01*
Y723500D01*
D02*
G37*
G36*
X328000Y718714D02*
X327586Y718660D01*
X326735Y718307D01*
X326004Y717746D01*
X325443Y717015D01*
X325090Y716164D01*
X325036Y715750D01*
X328000D01*
Y718714D01*
D02*
G37*
G36*
X329000D02*
Y715750D01*
X331964D01*
X331910Y716164D01*
X331557Y717015D01*
X330996Y717746D01*
X330265Y718307D01*
X329414Y718660D01*
X329000Y718714D01*
D02*
G37*
G36*
X182700Y718649D02*
X182225Y718555D01*
X181398Y718002D01*
X180845Y717175D01*
X180751Y716700D01*
X182700D01*
Y718649D01*
D02*
G37*
G36*
X112849Y725500D02*
X107950D01*
X108045Y725025D01*
X108598Y724198D01*
X108824Y724046D01*
X108639Y723215D01*
X107836Y722883D01*
X107146Y722354D01*
X107062Y722243D01*
X99715D01*
Y723769D01*
X91785D01*
Y722968D01*
X89750D01*
Y720000D01*
Y717031D01*
X91785D01*
Y716231D01*
Y715469D01*
X89750D01*
Y712500D01*
Y709531D01*
X91785D01*
Y708732D01*
Y707969D01*
X89750D01*
Y705000D01*
Y702032D01*
X91785D01*
Y701231D01*
Y700468D01*
X89750D01*
Y697500D01*
Y694531D01*
X91785D01*
Y693731D01*
X99715D01*
Y695257D01*
X100762D01*
X100846Y695146D01*
X101536Y694618D01*
X102339Y694285D01*
X103200Y694171D01*
X104061Y694285D01*
X104864Y694618D01*
X105554Y695146D01*
X105638Y695257D01*
X116054D01*
X116236Y695118D01*
X117039Y694785D01*
X117900Y694671D01*
X118762Y694785D01*
X119564Y695118D01*
X120254Y695646D01*
X120782Y696336D01*
X121115Y697139D01*
X121229Y698000D01*
X121115Y698862D01*
X120782Y699664D01*
X120254Y700354D01*
X119564Y700882D01*
X118898Y701159D01*
X118807Y701584D01*
X118861Y702009D01*
X119364Y702217D01*
X120054Y702746D01*
X120582Y703436D01*
X120915Y704239D01*
X121028Y705100D01*
X120915Y705962D01*
X120582Y706764D01*
X120054Y707454D01*
X119364Y707982D01*
X118561Y708315D01*
X117700Y708428D01*
X116839Y708315D01*
X116036Y707982D01*
X115346Y707454D01*
X115185Y707243D01*
X109138D01*
X109054Y707354D01*
X108364Y707882D01*
X107562Y708215D01*
X106700Y708328D01*
X105839Y708215D01*
X105036Y707882D01*
X104346Y707354D01*
X104262Y707243D01*
X99715D01*
Y708732D01*
Y710257D01*
X110363D01*
X110936Y709818D01*
X111739Y709485D01*
X112600Y709372D01*
X113461Y709485D01*
X114264Y709818D01*
X114954Y710346D01*
X115482Y711036D01*
X115815Y711838D01*
X115928Y712700D01*
X115815Y713561D01*
X115482Y714364D01*
X114954Y715054D01*
X114264Y715583D01*
X113461Y715915D01*
X112600Y716028D01*
X111739Y715915D01*
X110936Y715583D01*
X110246Y715054D01*
X110008Y714743D01*
X99715D01*
Y716231D01*
Y717757D01*
X107062D01*
X107146Y717646D01*
X107836Y717118D01*
X108639Y716785D01*
X109500Y716672D01*
X110362Y716785D01*
X111164Y717118D01*
X111854Y717646D01*
X112382Y718336D01*
X112715Y719138D01*
X112829Y720000D01*
X112715Y720861D01*
X112382Y721664D01*
X111854Y722354D01*
X111263Y722807D01*
X111261Y723233D01*
X111375Y723645D01*
X112202Y724198D01*
X112755Y725025D01*
X112849Y725500D01*
D02*
G37*
G36*
X110900Y728449D02*
Y726500D01*
X112849D01*
X112755Y726975D01*
X112202Y727802D01*
X111375Y728355D01*
X110900Y728449D01*
D02*
G37*
G36*
X250869Y745750D02*
X244932D01*
Y743715D01*
X244131D01*
Y735785D01*
X245557D01*
Y733238D01*
X245446Y733154D01*
X244917Y732464D01*
X244585Y731662D01*
X244472Y730800D01*
X244585Y729939D01*
X244917Y729136D01*
X245446Y728446D01*
X246136Y727917D01*
X246938Y727585D01*
X247800Y727471D01*
X248661Y727585D01*
X249464Y727917D01*
X250154Y728446D01*
X250682Y729136D01*
X251015Y729939D01*
X251129Y730800D01*
X251015Y731662D01*
X250682Y732464D01*
X250154Y733154D01*
X250043Y733238D01*
Y735785D01*
X251669D01*
Y743715D01*
X250869D01*
Y745750D01*
D02*
G37*
G36*
X260869D02*
X254931D01*
Y743715D01*
X254132D01*
Y735785D01*
X255557D01*
Y733238D01*
X255446Y733154D01*
X254918Y732464D01*
X254585Y731662D01*
X254471Y730800D01*
X254585Y729939D01*
X254918Y729136D01*
X255446Y728446D01*
X256136Y727917D01*
X256939Y727585D01*
X257800Y727471D01*
X258662Y727585D01*
X259464Y727917D01*
X260154Y728446D01*
X260683Y729136D01*
X261015Y729939D01*
X261128Y730800D01*
X261015Y731662D01*
X260683Y732464D01*
X260154Y733154D01*
X260043Y733238D01*
Y735785D01*
X261668D01*
Y743715D01*
X260869D01*
Y745750D01*
D02*
G37*
G36*
X185915Y726968D02*
X183250D01*
Y724500D01*
X185915D01*
Y726968D01*
D02*
G37*
G36*
X91449Y727000D02*
X89500D01*
Y725050D01*
X89976Y725145D01*
X90802Y725698D01*
X91355Y726524D01*
X91449Y727000D01*
D02*
G37*
G36*
X109900Y728449D02*
X109424Y728355D01*
X108598Y727802D01*
X108045Y726975D01*
X107950Y726500D01*
X109900D01*
Y728449D01*
D02*
G37*
G36*
X271500Y722500D02*
X268000D01*
Y715750D01*
X271500D01*
Y722500D01*
D02*
G37*
G36*
X210968Y706915D02*
X208500D01*
Y704250D01*
X210968D01*
Y706915D01*
D02*
G37*
G36*
X180215Y727769D02*
X172285D01*
Y720231D01*
X173905D01*
Y718700D01*
X173417Y718064D01*
X173085Y717262D01*
X172971Y716400D01*
X172998Y716195D01*
X172933Y716097D01*
X172755Y715200D01*
Y706152D01*
X171955Y706073D01*
X171855Y706575D01*
X171302Y707402D01*
X170475Y707955D01*
X170000Y708049D01*
Y705600D01*
Y703151D01*
X170475Y703245D01*
X171302Y703798D01*
X171855Y704625D01*
X171955Y705127D01*
X172755Y705048D01*
Y699939D01*
X172746Y699932D01*
X172218Y699243D01*
X171885Y698440D01*
X171772Y697579D01*
X171885Y696717D01*
X172218Y695915D01*
X172746Y695225D01*
X173436Y694696D01*
X174239Y694364D01*
X175100Y694250D01*
X175728Y694333D01*
X176241Y693876D01*
X176363Y693664D01*
X176350Y693600D01*
X181249D01*
X181155Y694075D01*
X180602Y694902D01*
X179776Y695455D01*
X178800Y695649D01*
X178733Y695636D01*
X178157Y696337D01*
X178315Y696717D01*
X178428Y697579D01*
X178315Y698440D01*
X177982Y699243D01*
X177454Y699932D01*
X177445Y699939D01*
Y713302D01*
X177964Y713518D01*
X178654Y714046D01*
X179183Y714736D01*
X179515Y715539D01*
X179629Y716400D01*
X179515Y717262D01*
X179183Y718064D01*
X178654Y718754D01*
X178595Y718798D01*
Y720231D01*
X180215D01*
Y721032D01*
X182250D01*
Y724000D01*
Y726968D01*
X180215D01*
Y727769D01*
D02*
G37*
G36*
X169000Y708049D02*
X168525Y707955D01*
X167698Y707402D01*
X167145Y706575D01*
X167051Y706100D01*
X169000D01*
Y708049D01*
D02*
G37*
G36*
X192200Y705949D02*
X191725Y705855D01*
X190898Y705302D01*
X190345Y704475D01*
X190251Y704000D01*
X192200D01*
Y705949D01*
D02*
G37*
G36*
X193200D02*
Y704000D01*
X195150D01*
X195055Y704475D01*
X194502Y705302D01*
X193675Y705855D01*
X193200Y705949D01*
D02*
G37*
G36*
X207500Y706915D02*
X205031D01*
Y704250D01*
X207500D01*
Y706915D01*
D02*
G37*
G36*
X267000Y714750D02*
X263500D01*
Y708000D01*
X267000D01*
Y714750D01*
D02*
G37*
G36*
X182700Y715700D02*
X180751D01*
X180845Y715225D01*
X181398Y714398D01*
X182225Y713845D01*
X182700Y713751D01*
Y715700D01*
D02*
G37*
G36*
X185650D02*
X183700D01*
Y713751D01*
X184176Y713845D01*
X185002Y714398D01*
X185555Y715225D01*
X185650Y715700D01*
D02*
G37*
G36*
X267000Y722500D02*
X263500D01*
Y715750D01*
X267000D01*
Y722500D01*
D02*
G37*
G36*
X271500Y714750D02*
X268000D01*
Y708000D01*
X271500D01*
Y714750D01*
D02*
G37*
G36*
X328000D02*
X325036D01*
X325090Y714336D01*
X325443Y713485D01*
X326004Y712754D01*
X326735Y712193D01*
X327586Y711840D01*
X328000Y711786D01*
Y714750D01*
D02*
G37*
G36*
X331964D02*
X329000D01*
Y711786D01*
X329414Y711840D01*
X330265Y712193D01*
X330996Y712754D01*
X331557Y713485D01*
X331910Y714336D01*
X331964Y714750D01*
D02*
G37*
G36*
X277400Y749415D02*
X274932D01*
Y746750D01*
X277400D01*
Y749415D01*
D02*
G37*
G36*
X280869D02*
X278400D01*
Y746750D01*
X280869D01*
Y749415D01*
D02*
G37*
G36*
X287400D02*
X284931D01*
Y746750D01*
X287400D01*
Y749415D01*
D02*
G37*
G36*
X260869D02*
X258400D01*
Y746750D01*
X260869D01*
Y749415D01*
D02*
G37*
G36*
X267400D02*
X264932D01*
Y746750D01*
X267400D01*
Y749415D01*
D02*
G37*
G36*
X270868D02*
X268400D01*
Y746750D01*
X270868D01*
Y749415D01*
D02*
G37*
G36*
X290868D02*
X288400D01*
Y746750D01*
X290868D01*
Y749415D01*
D02*
G37*
G36*
X310869D02*
X308400D01*
Y746750D01*
X310869D01*
Y749415D01*
D02*
G37*
G36*
X317400D02*
X314932D01*
Y746750D01*
X317400D01*
Y749415D01*
D02*
G37*
G36*
X320868D02*
X318400D01*
Y746750D01*
X320868D01*
Y749415D01*
D02*
G37*
G36*
X297400D02*
X294932D01*
Y746750D01*
X297400D01*
Y749415D01*
D02*
G37*
G36*
X300869D02*
X298400D01*
Y746750D01*
X300869D01*
Y749415D01*
D02*
G37*
G36*
X307400D02*
X304931D01*
Y746750D01*
X307400D01*
Y749415D01*
D02*
G37*
G36*
X257400D02*
X254931D01*
Y746750D01*
X257400D01*
Y749415D01*
D02*
G37*
G36*
X300869Y745750D02*
X294932D01*
Y743715D01*
X294131D01*
Y735785D01*
X295657D01*
Y733315D01*
X295446Y733154D01*
X294917Y732464D01*
X294585Y731662D01*
X294472Y730800D01*
X294585Y729939D01*
X294917Y729136D01*
X295446Y728446D01*
X296136Y727917D01*
X296938Y727585D01*
X297800Y727471D01*
X298661Y727585D01*
X299464Y727917D01*
X300154Y728446D01*
X300682Y729136D01*
X301015Y729939D01*
X301129Y730800D01*
X301015Y731662D01*
X300682Y732464D01*
X300154Y733154D01*
X300143Y733162D01*
Y735785D01*
X301669D01*
Y743715D01*
X300869D01*
Y745750D01*
D02*
G37*
G36*
X310869D02*
X304931D01*
Y743715D01*
X304132D01*
Y735785D01*
X305557D01*
Y733238D01*
X305446Y733154D01*
X304918Y732464D01*
X304585Y731662D01*
X304471Y730800D01*
X304585Y729939D01*
X304918Y729136D01*
X305446Y728446D01*
X306136Y727917D01*
X306939Y727585D01*
X307800Y727471D01*
X308662Y727585D01*
X309464Y727917D01*
X310154Y728446D01*
X310683Y729136D01*
X311015Y729939D01*
X311128Y730800D01*
X311015Y731662D01*
X310683Y732464D01*
X310154Y733154D01*
X310043Y733238D01*
Y735785D01*
X311668D01*
Y743715D01*
X310869D01*
Y745750D01*
D02*
G37*
G36*
X320868D02*
X314932D01*
Y743715D01*
X314131D01*
Y735785D01*
X315557D01*
Y733238D01*
X315446Y733154D01*
X314917Y732464D01*
X314585Y731662D01*
X314472Y730800D01*
X314585Y729939D01*
X314917Y729136D01*
X315446Y728446D01*
X316136Y727917D01*
X316938Y727585D01*
X317800Y727471D01*
X318661Y727585D01*
X319464Y727917D01*
X320154Y728446D01*
X320683Y729136D01*
X321015Y729939D01*
X321129Y730800D01*
X321015Y731662D01*
X320683Y732464D01*
X320154Y733154D01*
X320043Y733238D01*
Y735785D01*
X321669D01*
Y743715D01*
X320868D01*
Y745750D01*
D02*
G37*
G36*
X270868D02*
X264932D01*
Y743715D01*
X264131D01*
Y735785D01*
X265557D01*
Y733238D01*
X265446Y733154D01*
X264917Y732464D01*
X264585Y731662D01*
X264472Y730800D01*
X264585Y729939D01*
X264917Y729136D01*
X265446Y728446D01*
X266136Y727917D01*
X266938Y727585D01*
X267800Y727471D01*
X268661Y727585D01*
X269464Y727917D01*
X270154Y728446D01*
X270683Y729136D01*
X271015Y729939D01*
X271129Y730800D01*
X271015Y731662D01*
X270683Y732464D01*
X270154Y733154D01*
X270043Y733238D01*
Y735785D01*
X271669D01*
Y743715D01*
X270868D01*
Y745750D01*
D02*
G37*
G36*
X280869D02*
X274932D01*
Y743715D01*
X274131D01*
Y735785D01*
X275557D01*
Y733238D01*
X275446Y733154D01*
X274918Y732464D01*
X274585Y731662D01*
X274471Y730800D01*
X274585Y729939D01*
X274918Y729136D01*
X275446Y728446D01*
X276136Y727917D01*
X276939Y727585D01*
X277800Y727471D01*
X278661Y727585D01*
X279464Y727917D01*
X280154Y728446D01*
X280682Y729136D01*
X281015Y729939D01*
X281129Y730800D01*
X281015Y731662D01*
X280682Y732464D01*
X280154Y733154D01*
X280043Y733238D01*
Y735785D01*
X281668D01*
Y743715D01*
X280869D01*
Y745750D01*
D02*
G37*
G36*
X290868D02*
X284931D01*
Y743715D01*
X284132D01*
Y735785D01*
X285557D01*
Y733238D01*
X285446Y733154D01*
X284917Y732464D01*
X284585Y731662D01*
X284472Y730800D01*
X284585Y729939D01*
X284917Y729136D01*
X285446Y728446D01*
X286136Y727917D01*
X286939Y727585D01*
X287800Y727471D01*
X288662Y727585D01*
X289464Y727917D01*
X290154Y728446D01*
X290683Y729136D01*
X291015Y729939D01*
X291128Y730800D01*
X291015Y731662D01*
X290683Y732464D01*
X290154Y733154D01*
X290043Y733238D01*
Y735785D01*
X291669D01*
Y743715D01*
X290868D01*
Y745750D01*
D02*
G37*
G36*
X89500Y729950D02*
Y728000D01*
X91449D01*
X91355Y728476D01*
X90802Y729302D01*
X89976Y729855D01*
X89500Y729950D01*
D02*
G37*
G36*
X234000Y745449D02*
Y743500D01*
X235949D01*
X235855Y743975D01*
X235302Y744802D01*
X234475Y745355D01*
X234000Y745449D01*
D02*
G37*
G36*
X247400Y749415D02*
X244932D01*
Y746750D01*
X247400D01*
Y749415D01*
D02*
G37*
G36*
X250869D02*
X248400D01*
Y746750D01*
X250869D01*
Y749415D01*
D02*
G37*
G36*
X233000Y742500D02*
X231050D01*
X231145Y742025D01*
X231698Y741198D01*
X232524Y740645D01*
X233000Y740551D01*
Y742500D01*
D02*
G37*
G36*
X235949D02*
X234000D01*
Y740551D01*
X234475Y740645D01*
X235302Y741198D01*
X235855Y742025D01*
X235949Y742500D01*
D02*
G37*
G36*
X233000Y745449D02*
X232524Y745355D01*
X231698Y744802D01*
X231145Y743975D01*
X231050Y743500D01*
X233000D01*
Y745449D01*
D02*
G37*
G36*
X302449Y644500D02*
X300500D01*
Y642551D01*
X300975Y642645D01*
X301802Y643198D01*
X302355Y644025D01*
X302449Y644500D01*
D02*
G37*
G36*
X239500Y647449D02*
X239024Y647355D01*
X238198Y646802D01*
X237645Y645975D01*
X237550Y645500D01*
X239500D01*
Y647449D01*
D02*
G37*
G36*
X240500D02*
Y645500D01*
X242449D01*
X242355Y645975D01*
X241802Y646802D01*
X240975Y647355D01*
X240500Y647449D01*
D02*
G37*
G36*
X279500Y644500D02*
X277551D01*
X277645Y644025D01*
X278198Y643198D01*
X279025Y642645D01*
X279500Y642551D01*
Y644500D01*
D02*
G37*
G36*
X282450D02*
X280500D01*
Y642551D01*
X280976Y642645D01*
X281802Y643198D01*
X282355Y644025D01*
X282450Y644500D01*
D02*
G37*
G36*
X299500D02*
X297551D01*
X297645Y644025D01*
X298198Y643198D01*
X299025Y642645D01*
X299500Y642551D01*
Y644500D01*
D02*
G37*
G36*
X259500Y647449D02*
X259025Y647355D01*
X258198Y646802D01*
X257645Y645975D01*
X257551Y645500D01*
X259500D01*
Y647449D01*
D02*
G37*
G36*
X299500D02*
X299025Y647355D01*
X298198Y646802D01*
X297645Y645975D01*
X297551Y645500D01*
X299500D01*
Y647449D01*
D02*
G37*
G36*
X300500D02*
Y645500D01*
X302449D01*
X302355Y645975D01*
X301802Y646802D01*
X300975Y647355D01*
X300500Y647449D01*
D02*
G37*
G36*
X119000Y664750D02*
X116532D01*
Y662085D01*
X119000D01*
Y664750D01*
D02*
G37*
G36*
X260500Y647449D02*
Y645500D01*
X262450D01*
X262355Y645975D01*
X261802Y646802D01*
X260976Y647355D01*
X260500Y647449D01*
D02*
G37*
G36*
X279500D02*
X279025Y647355D01*
X278198Y646802D01*
X277645Y645975D01*
X277551Y645500D01*
X279500D01*
Y647449D01*
D02*
G37*
G36*
X280500D02*
Y645500D01*
X282450D01*
X282355Y645975D01*
X281802Y646802D01*
X280976Y647355D01*
X280500Y647449D01*
D02*
G37*
G36*
X262450Y644500D02*
X260500D01*
Y642551D01*
X260976Y642645D01*
X261802Y643198D01*
X262355Y644025D01*
X262450Y644500D01*
D02*
G37*
G36*
X152450D02*
X150500D01*
Y642551D01*
X150976Y642645D01*
X151802Y643198D01*
X152355Y644025D01*
X152450Y644500D01*
D02*
G37*
G36*
X169500D02*
X167551D01*
X167645Y644025D01*
X168198Y643198D01*
X169025Y642645D01*
X169500Y642551D01*
Y644500D01*
D02*
G37*
G36*
X172450D02*
X170500D01*
Y642551D01*
X170975Y642645D01*
X171802Y643198D01*
X172355Y644025D01*
X172450Y644500D01*
D02*
G37*
G36*
X119500D02*
X117551D01*
X117645Y644025D01*
X118198Y643198D01*
X119025Y642645D01*
X119500Y642551D01*
Y644500D01*
D02*
G37*
G36*
X122450D02*
X120500D01*
Y642551D01*
X120975Y642645D01*
X121802Y643198D01*
X122355Y644025D01*
X122450Y644500D01*
D02*
G37*
G36*
X149500D02*
X147550D01*
X147645Y644025D01*
X148198Y643198D01*
X149024Y642645D01*
X149500Y642551D01*
Y644500D01*
D02*
G37*
G36*
X189500D02*
X187550D01*
X187645Y644025D01*
X188198Y643198D01*
X189024Y642645D01*
X189500Y642551D01*
Y644500D01*
D02*
G37*
G36*
X239500D02*
X237550D01*
X237645Y644025D01*
X238198Y643198D01*
X239024Y642645D01*
X239500Y642551D01*
Y644500D01*
D02*
G37*
G36*
X242449D02*
X240500D01*
Y642551D01*
X240975Y642645D01*
X241802Y643198D01*
X242355Y644025D01*
X242449Y644500D01*
D02*
G37*
G36*
X259500D02*
X257551D01*
X257645Y644025D01*
X258198Y643198D01*
X259025Y642645D01*
X259500Y642551D01*
Y644500D01*
D02*
G37*
G36*
X192449D02*
X190500D01*
Y642551D01*
X190975Y642645D01*
X191802Y643198D01*
X192355Y644025D01*
X192449Y644500D01*
D02*
G37*
G36*
X209500D02*
X207551D01*
X207645Y644025D01*
X208198Y643198D01*
X209025Y642645D01*
X209500Y642551D01*
Y644500D01*
D02*
G37*
G36*
X212450D02*
X210500D01*
Y642551D01*
X210976Y642645D01*
X211802Y643198D01*
X212355Y644025D01*
X212450Y644500D01*
D02*
G37*
G36*
X182415Y688969D02*
X179750D01*
Y686500D01*
X182415D01*
Y688969D01*
D02*
G37*
G36*
X178300Y692600D02*
X176350D01*
X176445Y692125D01*
X176998Y691298D01*
X177824Y690745D01*
X178300Y690651D01*
Y692600D01*
D02*
G37*
G36*
X181249D02*
X179300D01*
Y690651D01*
X179776Y690745D01*
X180602Y691298D01*
X181155Y692125D01*
X181249Y692600D01*
D02*
G37*
G36*
X361300Y696800D02*
X348700D01*
Y683200D01*
X361300D01*
Y685663D01*
X363500D01*
X364622Y685811D01*
X365669Y686244D01*
X366567Y686933D01*
X367256Y687831D01*
X367689Y688877D01*
X367837Y690000D01*
X367689Y691122D01*
X367256Y692169D01*
X366567Y693067D01*
X365669Y693756D01*
X364622Y694189D01*
X363500Y694337D01*
X361300D01*
Y696800D01*
D02*
G37*
G36*
X218300Y692389D02*
X217112Y692233D01*
X216005Y691774D01*
X215055Y691045D01*
X214326Y690095D01*
X213867Y688988D01*
X213711Y687800D01*
X213867Y686612D01*
X214326Y685505D01*
X215055Y684555D01*
X216005Y683826D01*
X217112Y683367D01*
X218300Y683211D01*
X219488Y683367D01*
X220595Y683826D01*
X221545Y684555D01*
X222274Y685505D01*
X222733Y686612D01*
X222889Y687800D01*
X222733Y688988D01*
X222274Y690095D01*
X221545Y691045D01*
X220595Y691774D01*
X219488Y692233D01*
X218300Y692389D01*
D02*
G37*
G36*
X187550Y689600D02*
X184491D01*
Y686147D01*
X187550D01*
Y689600D01*
D02*
G37*
G36*
X166915Y700000D02*
X164250D01*
Y697532D01*
X166915D01*
Y700000D01*
D02*
G37*
G36*
X169000Y705100D02*
X167051D01*
X167145Y704625D01*
X167698Y703798D01*
X168525Y703245D01*
X169000Y703151D01*
Y705100D01*
D02*
G37*
G36*
X180484Y705949D02*
X180009Y705855D01*
X179182Y705302D01*
X178629Y704475D01*
X178535Y704000D01*
X180484D01*
Y705949D01*
D02*
G37*
G36*
X181484D02*
Y704000D01*
X183434D01*
X183339Y704475D01*
X182787Y705302D01*
X181960Y705855D01*
X181484Y705949D01*
D02*
G37*
G36*
X166915Y703469D02*
X164250D01*
Y701000D01*
X166915D01*
Y703469D01*
D02*
G37*
G36*
X180484Y703000D02*
X178535D01*
X178629Y702525D01*
X179182Y701698D01*
X180009Y701145D01*
X180484Y701051D01*
Y703000D01*
D02*
G37*
G36*
X183434D02*
X181484D01*
Y701051D01*
X181960Y701145D01*
X182787Y701698D01*
X183339Y702525D01*
X183434Y703000D01*
D02*
G37*
G36*
X182415Y685500D02*
X179750D01*
Y683032D01*
X182415D01*
Y685500D01*
D02*
G37*
G36*
X300500Y679000D02*
X295500D01*
Y673500D01*
X300500D01*
Y679000D01*
D02*
G37*
G36*
X306500D02*
X301500D01*
Y673500D01*
X306500D01*
Y679000D01*
D02*
G37*
G36*
X217800Y677300D02*
X214504D01*
Y676425D01*
X214688Y675498D01*
X215213Y674713D01*
X215998Y674188D01*
X216925Y674004D01*
X217800D01*
Y677300D01*
D02*
G37*
G36*
X122468Y664750D02*
X120000D01*
Y662085D01*
X122468D01*
Y664750D01*
D02*
G37*
G36*
X300500Y672500D02*
X295500D01*
Y667000D01*
X300500D01*
Y672500D01*
D02*
G37*
G36*
X306500D02*
X301500D01*
Y667000D01*
X306500D01*
Y672500D01*
D02*
G37*
G36*
X87500Y678000D02*
X85550D01*
X85645Y677525D01*
X86198Y676698D01*
X87024Y676145D01*
X87500Y676051D01*
Y678000D01*
D02*
G37*
G36*
X28750Y682000D02*
X25250D01*
Y680250D01*
X28750D01*
Y682000D01*
D02*
G37*
G36*
X33500Y683750D02*
X31032D01*
Y681085D01*
X33500D01*
Y683750D01*
D02*
G37*
G36*
X36968D02*
X34500D01*
Y681085D01*
X36968D01*
Y683750D01*
D02*
G37*
G36*
X90450Y678000D02*
X88500D01*
Y676051D01*
X88976Y676145D01*
X89802Y676698D01*
X90355Y677525D01*
X90450Y678000D01*
D02*
G37*
G36*
X217800Y681597D02*
X216925D01*
X215998Y681412D01*
X215213Y680887D01*
X214688Y680102D01*
X214504Y679175D01*
Y678300D01*
X217800D01*
Y681597D01*
D02*
G37*
G36*
X24250Y682000D02*
X20750D01*
Y680250D01*
X24250D01*
Y682000D01*
D02*
G37*
%LPD*%
G54D12*
X357000Y552750D02*
D03*
Y560250D02*
D03*
X368000Y552750D02*
D03*
Y560250D02*
D03*
X341500Y455250D02*
D03*
Y447750D02*
D03*
X159500Y399750D02*
D03*
Y407250D02*
D03*
X354000Y495750D02*
D03*
Y503250D02*
D03*
X364000Y495750D02*
D03*
Y503250D02*
D03*
G54D14*
X267500Y715250D02*
D03*
Y694750D02*
D03*
G54D15*
X209250Y301500D02*
D03*
X200750Y298000D02*
D03*
X209250Y294500D02*
D03*
G54D16*
X160000Y428000D02*
D03*
X171000D02*
D03*
G54D18*
X207250Y313500D02*
D03*
X200750D02*
D03*
X182750Y724000D02*
D03*
X176250D02*
D03*
X163750Y700500D02*
D03*
X157250D02*
D03*
X179250Y686000D02*
D03*
X172750D02*
D03*
X89250Y712500D02*
D03*
X95750D02*
D03*
X89250Y720000D02*
D03*
X95750D02*
D03*
X89250Y705000D02*
D03*
X95750D02*
D03*
X89250Y697500D02*
D03*
X95750D02*
D03*
X195250Y439000D02*
D03*
X188750D02*
D03*
G54D19*
X157250Y741500D02*
D03*
X164750D02*
D03*
X196750Y427000D02*
D03*
X189250D02*
D03*
X14550Y413600D02*
D03*
X22050D02*
D03*
X188050Y690100D02*
D03*
X195550D02*
D03*
G54D20*
X370000Y755000D02*
D03*
X0D02*
D03*
X370000Y0D02*
D03*
X0D02*
D03*
X168000Y203000D02*
D03*
X178000D02*
D03*
X188000D02*
D03*
X208000D02*
D03*
X146700Y385500D02*
D03*
X44000Y746000D02*
D03*
X323000Y690000D02*
D03*
X365000Y653000D02*
D03*
X360500Y645500D02*
D03*
X355500Y657000D02*
D03*
X374000Y567500D02*
D03*
X363500Y690000D02*
D03*
X371000Y498500D02*
D03*
X365000Y530000D02*
D03*
X357500Y530500D02*
D03*
X352000Y523000D02*
D03*
X347000Y555500D02*
D03*
X344000Y480000D02*
D03*
X364500Y518000D02*
D03*
X373500Y468500D02*
D03*
X328500Y715250D02*
D03*
X360500Y469500D02*
D03*
X350500D02*
D03*
X4700Y577700D02*
D03*
X188100Y358200D02*
D03*
Y332500D02*
D03*
X192200Y318800D02*
D03*
X86100Y14550D02*
D03*
X106100D02*
D03*
X126100D02*
D03*
X146100D02*
D03*
X166100Y14500D02*
D03*
X186100Y14550D02*
D03*
X206100Y14500D02*
D03*
X226100Y14550D02*
D03*
X246100Y14500D02*
D03*
X266100Y14550D02*
D03*
X286100Y14500D02*
D03*
X26800Y577700D02*
D03*
X-2000Y604500D02*
D03*
X33200Y645900D02*
D03*
X237800Y691500D02*
D03*
X68500Y447200D02*
D03*
X76500D02*
D03*
X46500D02*
D03*
X106500D02*
D03*
X98500D02*
D03*
X128500D02*
D03*
X330000Y442500D02*
D03*
X318500Y447200D02*
D03*
X288500D02*
D03*
X296500D02*
D03*
X236500D02*
D03*
X266500D02*
D03*
X258500D02*
D03*
X2000Y667500D02*
D03*
X-2000Y658500D02*
D03*
X23900Y387200D02*
D03*
X333700Y412000D02*
D03*
X355500Y436800D02*
D03*
X134900Y636900D02*
D03*
X134600Y663300D02*
D03*
X66300Y14000D02*
D03*
G54D21*
X15000Y593000D02*
D03*
Y582000D02*
D03*
X295500Y13900D02*
D03*
Y2900D02*
D03*
X275500Y13900D02*
D03*
Y2900D02*
D03*
X255500Y13900D02*
D03*
Y2900D02*
D03*
X235500Y13900D02*
D03*
Y2900D02*
D03*
X155500Y13900D02*
D03*
Y2900D02*
D03*
X175500Y13900D02*
D03*
Y2900D02*
D03*
X195500Y13900D02*
D03*
Y2900D02*
D03*
X215500Y13900D02*
D03*
Y2900D02*
D03*
X135500Y13900D02*
D03*
Y2900D02*
D03*
X115500Y13900D02*
D03*
Y2900D02*
D03*
X95500Y13900D02*
D03*
Y2900D02*
D03*
X75500Y13900D02*
D03*
Y2900D02*
D03*
X295000Y621500D02*
D03*
Y632500D02*
D03*
X32000Y637000D02*
D03*
Y626000D02*
D03*
X219000Y378000D02*
D03*
Y389000D02*
D03*
X195000Y399500D02*
D03*
Y410500D02*
D03*
X205500Y399500D02*
D03*
Y410500D02*
D03*
X177000Y400000D02*
D03*
Y411000D02*
D03*
X168000Y400000D02*
D03*
Y411000D02*
D03*
X151000Y400500D02*
D03*
Y411500D02*
D03*
G54D22*
X34000Y684250D02*
D03*
Y690750D02*
D03*
X208000Y703750D02*
D03*
Y697250D02*
D03*
X203500Y433750D02*
D03*
Y427250D02*
D03*
X119500Y665250D02*
D03*
Y671750D02*
D03*
X287900Y746250D02*
D03*
Y739750D02*
D03*
X297900Y746250D02*
D03*
Y739750D02*
D03*
X307900Y746250D02*
D03*
Y739750D02*
D03*
X317900Y746250D02*
D03*
Y739750D02*
D03*
X247900Y746250D02*
D03*
Y739750D02*
D03*
X257900Y746250D02*
D03*
Y739750D02*
D03*
X267900Y746250D02*
D03*
Y739750D02*
D03*
X277900Y746250D02*
D03*
Y739750D02*
D03*
X157000Y373750D02*
D03*
Y380250D02*
D03*
X214500Y408250D02*
D03*
Y401750D02*
D03*
G54D32*
X307800Y730800D02*
Y739750D01*
X83500Y755500D02*
X84000Y755000D01*
Y692200D02*
Y755000D01*
X224300Y616500D02*
X224500Y616700D01*
X180000Y585300D02*
X184900Y590200D01*
X180000Y562100D02*
Y585300D01*
Y562100D02*
X190700Y551400D01*
Y470100D02*
Y551400D01*
Y470100D02*
X225700Y435100D01*
Y303100D02*
Y435100D01*
X217100Y294500D02*
X225700Y303100D01*
X209250Y294500D02*
X217100D01*
X224300Y597400D02*
Y616500D01*
X217100Y590200D02*
X224300Y597400D01*
X184900Y590200D02*
X217100D01*
X87100Y689100D02*
X129200D01*
X159500Y412200D02*
X165300Y418000D01*
X159500Y407250D02*
Y412200D01*
X168000Y411000D02*
Y415300D01*
X170200Y417500D01*
X177000Y411000D02*
X178000Y412000D01*
Y418300D01*
X175900Y434700D02*
X176800Y433800D01*
Y430900D02*
Y433800D01*
X173900Y428000D02*
X176800Y430900D01*
X171000Y428000D02*
X173900D01*
X159500D02*
X160300Y428800D01*
Y433200D01*
X162200Y435100D01*
X170800D01*
X189600Y442700D02*
X207100D01*
X215200Y434600D01*
X153400Y682500D02*
X161900Y674000D01*
X166400Y672200D02*
Y673318D01*
X155618Y684100D02*
X166400Y673318D01*
X151500Y684100D02*
X155618D01*
X148100Y687500D02*
X151500Y684100D01*
X129200Y689100D02*
X132000Y691900D01*
X119800Y672050D02*
Y677300D01*
X103200Y697500D02*
X117400D01*
X117900Y698000D01*
X95750Y697500D02*
X103200D01*
X117600Y705000D02*
X117700Y705100D01*
X106700Y705000D02*
X117600D01*
X95750D02*
X106700D01*
X95750Y712500D02*
X112400D01*
X112600Y712700D01*
X95750Y720000D02*
X109500D01*
X317800Y730800D02*
Y739650D01*
X297900Y730900D02*
Y739750D01*
X297800Y730800D02*
X297900Y730900D01*
X287800Y730800D02*
Y739650D01*
X267800Y730800D02*
Y739650D01*
X267900Y739750D01*
X257800Y730800D02*
Y739650D01*
X257900Y739750D01*
X247800Y730800D02*
Y739650D01*
X247900Y739750D01*
X277800Y730800D02*
Y739650D01*
X277900Y739750D01*
X166700Y412300D02*
X168000Y411000D01*
X184200Y421200D02*
X188640Y425640D01*
Y426798D01*
X188250Y427187D02*
X188640Y426798D01*
X195000Y425250D02*
X196750Y427000D01*
X195000Y412000D02*
Y425250D01*
X214500Y408250D02*
Y412700D01*
X203500Y422300D02*
X205600Y420200D01*
X203500Y422300D02*
Y427250D01*
X195250Y439000D02*
X203400D01*
X203500Y439100D01*
Y433750D02*
Y439100D01*
X188500Y441600D02*
X189600Y442700D01*
X188500Y439250D02*
Y441600D01*
X188250Y427187D02*
Y439000D01*
X188500Y439250D01*
X212810Y414390D02*
X214500Y412700D01*
X84000Y692200D02*
X87100Y689100D01*
X43000Y697500D02*
X57500D01*
X42500Y697000D02*
X43000Y697500D01*
X57500D02*
X67500Y687500D01*
X148100D01*
X42500Y697000D02*
Y699000D01*
X50000Y667500D02*
X65000Y682500D01*
X2000Y667500D02*
X50000D01*
X65000Y682500D02*
X153400D01*
G54D33*
X88900Y697850D02*
X89250Y697500D01*
X44500Y711000D02*
Y745500D01*
X44000Y746000D02*
X44500Y745500D01*
X31000Y697500D02*
X44500Y711000D01*
X362500Y532500D02*
X365000Y530000D01*
X362500Y532500D02*
Y558500D01*
X360750Y560250D02*
X362500Y558500D01*
X357000Y560250D02*
X360750D01*
X146300Y723400D02*
X148600Y721100D01*
Y700700D02*
Y721100D01*
X150900Y422000D02*
X174400D01*
X148700Y424200D02*
X150900Y422000D01*
X146500D02*
X150900D01*
X174400D02*
X184800Y432400D01*
Y434300D01*
X153600Y417400D02*
X159300D01*
X151000Y414800D02*
X153600Y417400D01*
X151000Y411500D02*
Y414800D01*
Y411500D02*
Y413600D01*
X142600Y406200D02*
Y418100D01*
X146500Y422000D01*
X175100Y715200D02*
X176300Y716400D01*
X175100Y697579D02*
Y715200D01*
X178800Y693100D02*
Y701316D01*
X180984Y703500D01*
X179250Y686000D02*
Y692650D01*
X178800Y693100D02*
X179250Y692650D01*
X168500Y686000D02*
X172750D01*
X166100Y688400D02*
X168500Y686000D01*
X148600Y700700D02*
X148800Y700500D01*
X157250D01*
X164400D02*
X169500Y705600D01*
X163750Y700500D02*
X164400D01*
X176250Y716450D02*
Y724000D01*
X182750Y716650D02*
Y724000D01*
Y716650D02*
X183200Y716200D01*
X192950Y703750D02*
X208000D01*
X192700Y703500D02*
X192950Y703750D01*
X119500Y671750D02*
X119800Y672050D01*
X119500Y665250D02*
X119900Y664850D01*
X142600Y406200D02*
X148800Y400000D01*
X168000D02*
X177000D01*
X200900Y418800D02*
X203600Y416100D01*
X208600D02*
X210600Y418100D01*
X216200D01*
X219000Y389000D02*
Y415300D01*
X216200Y418100D02*
X219000Y415300D01*
X205500Y410500D02*
Y416100D01*
X203600D02*
X205500D01*
X208600D01*
X24750Y697500D02*
X31000D01*
X169500Y705600D02*
Y724700D01*
X178800Y693100D02*
X185050D01*
X188050Y690100D01*
X201500Y699900D02*
X204150Y697250D01*
X208000D01*
X188200Y697500D02*
Y698300D01*
X189800Y699900D01*
X201500D01*
X193200Y696600D02*
X195550Y694250D01*
Y690100D02*
Y694250D01*
X163700Y730500D02*
X169500Y724700D01*
X110400Y726000D02*
Y727100D01*
X113800Y730500D02*
X163700D01*
X110400Y727100D02*
X113800Y730500D01*
X228000Y677700D02*
Y701600D01*
X225000Y674700D02*
X228000Y677700D01*
X177000Y400500D02*
X213250D01*
G54D34*
X55100Y353400D02*
X68300Y340200D01*
X47900Y377600D02*
X55100Y370400D01*
X35500Y446400D02*
Y570100D01*
Y446400D02*
X44600Y437300D01*
Y380700D02*
Y437300D01*
Y380700D02*
X54800Y370500D01*
X55100Y353400D02*
Y370400D01*
X62400Y358100D02*
Y382500D01*
Y358100D02*
X85000Y335500D01*
X61900Y398400D02*
X69800Y390500D01*
X61900Y398400D02*
Y482600D01*
X77500Y358000D02*
Y382800D01*
X69800Y390500D02*
X77500Y382800D01*
Y358000D02*
X96417Y339083D01*
X84800Y390500D02*
X92100Y383200D01*
Y358400D02*
Y383200D01*
Y358400D02*
X115000Y335500D01*
X91300Y399000D02*
Y462000D01*
Y399000D02*
X99800Y390500D01*
X107100Y357400D02*
Y382500D01*
Y357400D02*
X135000Y329500D01*
X114800Y390500D02*
X122600Y382700D01*
Y357400D02*
Y382700D01*
Y357400D02*
X147100Y332900D01*
X145100Y384300D02*
Y384600D01*
Y384300D02*
X146700Y382700D01*
Y373800D02*
Y382700D01*
Y373800D02*
X149555Y370945D01*
X129800Y390500D02*
X138200Y382100D01*
Y356300D02*
Y382100D01*
Y356300D02*
X157100Y337400D01*
X282300Y147700D02*
X287455D01*
X277800Y152200D02*
X282300Y147700D01*
X277800Y152200D02*
Y382800D01*
X338400Y209900D02*
X349000Y199300D01*
Y157700D02*
Y199300D01*
X313400Y219500D02*
X339300Y193600D01*
Y151800D02*
Y193600D01*
X303500Y216600D02*
X330200Y189900D01*
Y102600D02*
Y189900D01*
X287455Y193554D02*
X299600Y205700D01*
X287455Y157700D02*
Y193554D01*
X262800Y265900D02*
X267600Y261100D01*
Y101200D02*
Y261100D01*
X237100Y147700D02*
X247400Y158000D01*
Y382400D01*
X210500Y177500D02*
X232000Y199000D01*
X210500Y105200D02*
Y177500D01*
X202100Y96800D02*
X210500Y105200D01*
X195336Y96800D02*
X202100D01*
X157100Y184100D02*
Y337400D01*
Y184100D02*
X176200Y165000D01*
Y151800D02*
Y165000D01*
X172100Y147700D02*
X176200Y151800D01*
X164364Y147700D02*
X172100D01*
X179100Y55000D02*
Y115700D01*
X188000Y124600D01*
X141700Y96800D02*
X147100Y102200D01*
X135000Y159900D02*
Y329500D01*
X122300Y147200D02*
X135000Y159900D01*
X81300Y100200D02*
Y161600D01*
X115000Y195300D01*
X41473Y147500D02*
X51600D01*
X96417Y192317D01*
X21600Y196900D02*
X31100Y206400D01*
X21600Y100900D02*
Y196900D01*
X133791Y96800D02*
X141700D01*
X77900D02*
X81300Y100200D01*
X72245Y96800D02*
X77900D01*
X41273Y147700D02*
X41473Y147500D01*
X10700Y96800D02*
X17500D01*
X21600Y100900D01*
X54800Y390500D02*
X62300Y383000D01*
X367000Y705000D02*
X372000Y700000D01*
Y569500D02*
Y700000D01*
Y569500D02*
X374000Y567500D01*
X315000Y370000D02*
X316500Y368500D01*
X50000Y487200D02*
Y499500D01*
X120000Y490700D02*
Y499500D01*
X150000Y475900D02*
Y499500D01*
X170000Y479600D02*
Y499500D01*
X33200Y645900D02*
X38700Y651400D01*
X301000Y690000D02*
X323000D01*
X355500Y657000D02*
Y672500D01*
X301000Y646000D02*
X341000Y686000D01*
Y706000D01*
X331750Y715250D02*
X341000Y706000D01*
X342000Y705000D01*
X367000D01*
X355000Y690000D02*
X363500D01*
X347000Y528000D02*
X352000Y523000D01*
X347000Y528000D02*
Y555500D01*
X355000Y673000D02*
X355500Y672500D01*
X328500Y715250D02*
X331750D01*
X323500D02*
X328500D01*
X267500D02*
X323500D01*
X264250Y691500D02*
X267500Y694750D01*
X237800Y691500D02*
X264250D01*
X295000Y645000D02*
X300000D01*
X280000D02*
X295000D01*
Y632500D02*
Y645000D01*
Y605000D02*
Y621500D01*
X324500Y437000D02*
X330000Y442500D01*
X324500Y296500D02*
Y437000D01*
X232000Y199000D02*
Y382000D01*
X240000Y390000D01*
X244800Y394800D02*
Y449000D01*
X240000Y390000D02*
X244800Y394800D01*
X251900Y393100D02*
Y452602D01*
Y393100D02*
X255000Y390000D01*
X274200Y394200D02*
Y455000D01*
X270000Y390000D02*
X274200Y394200D01*
X281300Y393700D02*
Y459600D01*
Y393700D02*
X285000Y390000D01*
X292600Y382600D02*
X300000Y390000D01*
X304800Y394800D02*
Y455500D01*
X300000Y390000D02*
X304800Y394800D01*
X311900Y393100D02*
Y473150D01*
Y393100D02*
X315000Y390000D01*
X307400Y382400D02*
X315000Y390000D01*
X277800Y382800D02*
X285000Y390000D01*
X262800Y265900D02*
Y382800D01*
X247400Y382400D02*
X255000Y390000D01*
X262800Y382800D02*
X270000Y390000D01*
X54800Y390500D02*
Y482400D01*
X84200Y390500D02*
Y466700D01*
X114800Y390500D02*
Y455500D01*
X121900Y398300D02*
Y451900D01*
X122000Y398300D02*
X129800Y390500D01*
X99800D02*
X107300Y383000D01*
X-2000Y604500D02*
X7400Y595100D01*
X260000Y645000D02*
X280000D01*
X268500Y691500D02*
X299500D01*
X301000Y690000D01*
X226100Y651400D02*
X237800Y663100D01*
Y691500D01*
X70000Y490700D02*
Y499500D01*
X320000Y481250D02*
Y499500D01*
X275500Y2900D02*
X295500D01*
X255500D02*
X275500D01*
X235500D02*
X255500D01*
X215500D02*
X235500D01*
X195500D02*
X215500D01*
X175500D02*
X195500D01*
X155500D02*
X175500D01*
X135500D02*
X155500D01*
X115500D02*
X135500D01*
X95500D02*
X115500D01*
X75500D02*
X95500D01*
X294975Y30825D02*
X295600Y30200D01*
X100000Y482500D02*
Y499500D01*
X250000Y497200D02*
Y499500D01*
X80000Y645000D02*
X100000D01*
X120000D01*
X150000D01*
X170000D01*
X190000D01*
X210000D01*
X240000D01*
X260000D01*
X26600Y595100D02*
X43500Y612000D01*
Y640900D01*
X47600Y645000D01*
X60000D01*
X80000D01*
X61900Y482600D02*
X70000Y490700D01*
X50000Y487200D02*
X54800Y482400D01*
X130700Y460700D02*
X151100D01*
X170000Y479600D01*
X121900Y451900D02*
X130700Y460700D01*
X143400Y469300D02*
X150000Y475900D01*
X128600Y469300D02*
X143400D01*
X114800Y455500D02*
X128600Y469300D01*
X91300Y462000D02*
X120000Y490700D01*
X84200Y466700D02*
X100000Y482500D01*
X200000Y493800D02*
Y499500D01*
X220000Y484502D02*
Y499500D01*
X200000Y493800D02*
X244800Y449000D01*
X220000Y484502D02*
X251900Y452602D01*
X250000Y479200D02*
Y499500D01*
Y479200D02*
X274200Y455000D01*
X270000Y470900D02*
Y499500D01*
Y470900D02*
X281300Y459600D01*
X300000Y460300D02*
X304800Y455500D01*
X300000Y460300D02*
Y499500D01*
X311900Y473150D02*
X320000Y481250D01*
X16000Y297500D02*
X16750Y298250D01*
X354000Y372500D02*
X364600D01*
X337700Y365700D02*
X345900Y357500D01*
X354000D01*
X337700Y365700D02*
Y403500D01*
X364600Y372500D02*
X371000Y378900D01*
X342200Y423000D02*
X343000Y422200D01*
X337700Y403500D02*
X343000Y408800D01*
Y422200D01*
X371000Y378900D02*
Y423000D01*
X22050Y403350D02*
Y413600D01*
Y403350D02*
X25300Y400100D01*
X14550Y392850D02*
Y413600D01*
X-200Y378100D02*
X14550Y392850D01*
X-200Y347100D02*
Y378100D01*
Y347100D02*
X4400Y342500D01*
X16000D01*
X65000Y575000D02*
Y579800D01*
X61100Y583700D02*
X65000Y579800D01*
X35500Y570100D02*
X49100Y583700D01*
X61100D01*
X7400Y595100D02*
X26600D01*
X149555Y370945D02*
X170197D01*
X4700Y577700D02*
X26800D01*
X38700Y651400D02*
X226100D01*
X62400Y2900D02*
X75500D01*
X58000Y7300D02*
X62400Y2900D01*
X600Y229600D02*
Y275300D01*
X7800Y282500D01*
X16000D01*
X324500Y296500D02*
X338400Y282600D01*
X316500Y290000D02*
Y368500D01*
X256882Y96800D02*
X263200D01*
X267600Y101200D01*
X225909Y147700D02*
X237100D01*
X147100Y102200D02*
Y332900D01*
X103318Y147200D02*
X122300D01*
X102818Y147700D02*
X103318Y147200D01*
X188000Y124600D02*
Y203000D01*
X167600Y43500D02*
X179100Y55000D01*
X66100Y43500D02*
X167600D01*
X58000Y35400D02*
X66100Y43500D01*
X58000Y7300D02*
Y35400D01*
X192200Y218800D02*
X208000Y203000D01*
X192200Y218800D02*
Y318800D01*
X85000Y217900D02*
Y335500D01*
X31100Y206400D02*
X73500D01*
X85000Y217900D01*
X68300Y217400D02*
Y340200D01*
X115000Y195300D02*
Y335500D01*
X96417Y192317D02*
Y339083D01*
X9300Y220900D02*
X12400D01*
X600Y229600D02*
X9300Y220900D01*
X325900Y221400D02*
Y280600D01*
X316500Y290000D02*
X325900Y280600D01*
X307400Y282300D02*
X313400Y276300D01*
X307400Y282300D02*
Y382400D01*
X339300Y151800D02*
X343400Y147700D01*
X349000D01*
X318427Y96800D02*
X324400D01*
X330200Y102600D01*
X292600Y285500D02*
X303500Y274600D01*
X292600Y285500D02*
Y382600D01*
X313400Y219500D02*
Y276300D01*
X303500Y216600D02*
Y274600D01*
X338400Y209900D02*
Y282600D01*
X368500Y208400D02*
X371000Y210900D01*
Y323700D01*
X367200Y327500D02*
X371000Y323700D01*
X354000Y327500D02*
X367200D01*
G54D35*
X233500Y743000D02*
X236750Y746250D01*
X247900D01*
X301000Y646000D02*
Y673000D01*
X360500Y448000D02*
Y458250D01*
X344500D02*
X350500D01*
X341500Y455250D02*
X344500Y458250D01*
X300000Y645000D02*
X301000Y646000D01*
X170197Y380603D02*
Y389055D01*
Y380603D02*
X170200Y380600D01*
X157350D02*
X170200D01*
X157000Y380250D02*
X157350Y380600D01*
X218300Y368800D02*
X219000Y369500D01*
Y378000D01*
X203803Y389000D02*
X219000D01*
X194803Y380000D02*
X203803Y389000D01*
X16100Y622800D02*
X16500Y623200D01*
X31900Y637100D02*
X32000Y637000D01*
Y615500D02*
Y626000D01*
X247900Y746250D02*
X248450Y746800D01*
X247900Y746250D02*
X257900D01*
X267900D01*
X277900D01*
X287900D01*
X297900D01*
X307900D01*
X317900D01*
X24750Y682500D02*
X32250D01*
X34000Y684250D01*
X16100Y622800D02*
X23300D01*
X25500Y625000D01*
Y634500D01*
X28100Y637100D01*
X31900D01*
X23900Y387200D02*
X27800Y383300D01*
Y361500D02*
Y383300D01*
X23800Y357500D02*
X27800Y361500D01*
X16000Y357500D02*
X23800D01*
X371400Y433000D02*
Y437100D01*
X360500Y448000D02*
X371400Y437100D01*
X350500Y429500D02*
Y458250D01*
Y429500D02*
X357700Y422300D01*
Y398700D02*
Y422300D01*
X355500Y436800D02*
Y458250D01*
X24750Y692500D02*
X48500D01*
G54D37*
X144100Y385600D02*
Y393600D01*
Y385600D02*
X145100Y384600D01*
X138200Y488700D02*
Y536300D01*
X115000Y559500D02*
X138200Y536300D01*
X115000Y559500D02*
Y575000D01*
X205000Y570500D02*
Y575000D01*
X337500Y493000D02*
Y535500D01*
X334000Y539000D02*
X337500Y535500D01*
X316000Y539000D02*
X334000D01*
X295000Y560000D02*
X316000Y539000D01*
X295000Y560000D02*
Y575000D01*
X88000Y665250D02*
X119500D01*
X58750D02*
X88000D01*
Y678500D01*
X89250Y698200D02*
Y705000D01*
Y712500D01*
Y720000D01*
Y727250D01*
X89000Y727500D02*
X89250Y727250D01*
X90000Y745000D02*
X93500Y741500D01*
X157250D01*
X-2000Y604500D02*
Y646000D01*
X12500Y660500D01*
X54000D01*
X58750Y665250D01*
X353500Y657000D02*
X355500D01*
X342000Y645500D02*
X353500Y657000D01*
X371000Y498500D02*
Y520500D01*
X367500Y524000D02*
X371000Y520500D01*
X361500Y524000D02*
X367500D01*
X354000Y503250D02*
Y516500D01*
X361500Y524000D01*
X371250Y552750D02*
X376000Y548000D01*
Y471000D02*
Y548000D01*
X373500Y468500D02*
X376000Y471000D01*
X295000Y594000D02*
Y605000D01*
Y594000D02*
X298000Y591000D01*
X306000D01*
X314000Y583000D01*
Y566500D02*
Y583000D01*
Y566500D02*
X336000Y544500D01*
X357000Y552750D02*
X357500Y552250D01*
Y530500D02*
Y552250D01*
X368000Y552750D02*
X371250D01*
X366500D02*
X368000D01*
X342000Y491300D02*
Y645500D01*
X338000Y487300D02*
X342000Y491300D01*
X344000Y485750D02*
X354000Y495750D01*
X344000Y480000D02*
Y485750D01*
X341000Y465000D02*
X348565D01*
X348615Y464950D02*
X355950D01*
X360500Y469500D01*
X348565Y465000D02*
X348615Y464950D01*
X328000Y483500D02*
X337500Y493000D01*
X328000Y456700D02*
Y483500D01*
X318500Y447200D02*
X328000Y456700D01*
X364000Y517500D02*
X364500Y518000D01*
X364000Y503250D02*
Y517500D01*
X323500Y715250D02*
Y743750D01*
X321000Y746250D02*
X323500Y743750D01*
X317900Y746250D02*
X321000D01*
X360000Y469500D02*
X360500D01*
X355500Y474000D02*
X360000Y469500D01*
X355500Y474000D02*
Y479750D01*
X350500Y469500D02*
Y479750D01*
X365500D02*
Y484000D01*
X366500Y485000D01*
Y493250D01*
X364000Y495750D02*
X366500Y493250D01*
X360500Y479750D02*
Y487000D01*
X354000Y493500D02*
X360500Y487000D01*
X354000Y493500D02*
Y495750D01*
X165000Y564200D02*
X187300Y541900D01*
Y485000D02*
Y541900D01*
X149500Y447200D02*
X187300Y485000D01*
X288500Y447200D02*
Y537000D01*
X255000Y570500D02*
X288500Y537000D01*
X188100Y332500D02*
Y358200D01*
X75400Y14550D02*
X75500Y14450D01*
X86100Y14550D02*
X95400D01*
X95500Y14450D01*
X106100Y14550D02*
X115400D01*
X115500Y14450D01*
X126100Y14550D02*
X135400D01*
X135500Y14450D01*
X146100Y14550D02*
X155400D01*
X155500Y14450D01*
X166100Y14500D02*
X175400D01*
X175500Y14400D01*
X186100Y14550D02*
X195400D01*
X195500Y14450D01*
X206100Y14500D02*
X215400D01*
X215500Y14400D01*
X226100Y14550D02*
X235400D01*
X235500Y14450D01*
X246100Y14500D02*
X255400D01*
X255500Y14400D01*
X266100Y14550D02*
X275400D01*
X275500Y14450D01*
X295400Y14500D02*
X295500Y14400D01*
X286100Y14500D02*
X295400D01*
X41800Y561800D02*
X55000Y575000D01*
X95000Y567200D02*
Y575000D01*
X91800Y564000D02*
X95000Y567200D01*
X75000Y563700D02*
X88200Y550500D01*
X75000Y563700D02*
Y575000D01*
X145000Y565800D02*
Y575000D01*
Y565500D02*
Y565800D01*
X141800Y562600D02*
X145000Y565800D01*
X165000Y564200D02*
Y575000D01*
X185000Y571200D02*
Y575000D01*
Y571200D02*
X194100Y562100D01*
X275000Y569400D02*
X291800Y552600D01*
X235000Y567200D02*
X241800Y560400D01*
X205000Y570500D02*
X238000Y537500D01*
X94900Y576000D02*
X95000Y575900D01*
Y575000D02*
Y575900D01*
X165000Y575000D02*
X165600Y574400D01*
X275000Y569400D02*
Y575000D01*
X254900Y574900D02*
X255000Y575000D01*
Y570500D02*
Y575000D01*
X235000Y567200D02*
Y575000D01*
X213250Y400500D02*
X214500Y401750D01*
X144100Y393600D02*
X151000Y400500D01*
X41800Y451900D02*
X46500Y447200D01*
X41800Y451900D02*
Y561800D01*
X128500Y447200D02*
X149500D01*
X141800Y493400D02*
Y495300D01*
Y562600D01*
Y483900D02*
Y495300D01*
X135900Y478000D02*
X141800Y483900D01*
X125000Y478000D02*
X135900D01*
X106500Y447200D02*
Y459500D01*
X125000Y478000D01*
X134400Y484900D02*
X138200Y488700D01*
X125200Y484900D02*
X134400D01*
X98500Y447200D02*
Y458200D01*
X125200Y484900D01*
X76500Y447200D02*
Y469100D01*
X91800Y484400D01*
Y564000D01*
X68500Y447200D02*
Y467700D01*
X88200Y487400D01*
Y550500D01*
X194100Y483500D02*
Y562100D01*
X241800Y478200D02*
Y560400D01*
X230400Y447200D02*
X236500D01*
X194100Y483500D02*
X230400Y447200D01*
X257700Y447700D02*
Y456000D01*
X238000Y475700D02*
X257700Y456000D01*
X238000Y475700D02*
Y537500D01*
X266500Y447200D02*
Y453500D01*
X241800Y478200D02*
X266500Y453500D01*
X291800Y451900D02*
Y552600D01*
Y451900D02*
X296500Y447200D01*
X24750Y679750D02*
Y682500D01*
X20500Y675500D02*
X24750Y679750D01*
X-3000Y675500D02*
X20500D01*
X-6000Y672500D02*
X-3000Y675500D01*
X-6000Y661500D02*
Y672500D01*
Y661500D02*
X-3000Y658500D01*
X-2000D01*
X333200Y462900D02*
X338000Y467700D01*
X333200Y450800D02*
Y462900D01*
Y450800D02*
X336250Y447750D01*
X341500D01*
X338000Y468000D02*
Y487300D01*
Y468000D02*
X341000Y465000D01*
X338000Y467700D02*
Y468000D01*
X339100Y445350D02*
X341500Y447750D01*
X333700Y434100D02*
X339100Y439500D01*
Y445350D01*
X333700Y412000D02*
Y434100D01*
X208000Y697250D02*
X211250D01*
X237800Y691500D02*
Y700400D01*
X211250Y697250D02*
X220000Y706000D01*
X232200D01*
X237800Y700400D01*
X151000Y400500D02*
X177000D01*
X66300Y14000D02*
X74850D01*
X75400Y14550D01*
G54D38*
X365500Y653000D02*
X366500Y652000D01*
Y561750D02*
Y652000D01*
Y561750D02*
X368000Y560250D01*
X75500Y718500D02*
Y756500D01*
X187000Y745000D02*
X201500Y730500D01*
X75500Y756500D02*
X79500Y760500D01*
X94000D01*
X105500Y749000D01*
X197500D01*
X212500Y734000D01*
Y720500D02*
Y734000D01*
X181000Y741000D02*
X183500D01*
X165250D02*
X181000D01*
X164750Y741500D02*
X165250Y741000D01*
X183500D02*
X194500Y730000D01*
Y717000D02*
Y730000D01*
Y717000D02*
X197000Y714500D01*
X176000Y737000D02*
X183500D01*
X191500Y729000D01*
Y714500D02*
Y729000D01*
X365000Y653000D02*
X365500D01*
X357000Y642000D02*
X360500Y645500D01*
X357000Y560250D02*
Y642000D01*
X25300Y450100D02*
Y568400D01*
X51400Y594500D01*
X131400D01*
X134900Y598000D01*
Y636900D01*
X134600Y663300D02*
X170200D01*
X174400Y667500D01*
Y672400D01*
X153300Y693500D02*
X174400Y672400D01*
X146300Y693500D02*
X153300D01*
X140400Y699400D02*
X146300Y693500D01*
X154200Y727700D02*
X158300Y723600D01*
X140400Y699400D02*
Y725300D01*
X142800Y727700D01*
X154200D01*
X191500Y714500D02*
X195500Y710500D01*
X197000Y714500D02*
X227600D01*
X231700Y710400D01*
X195500Y710500D02*
X213800D01*
G54D41*
X10700Y96800D02*
D03*
Y106800D02*
D03*
X41273Y147700D02*
D03*
Y157700D02*
D03*
X102818Y147700D02*
D03*
Y157700D02*
D03*
X133791Y96800D02*
D03*
Y106800D02*
D03*
X164364Y147700D02*
D03*
Y157700D02*
D03*
X195336Y96800D02*
D03*
Y106800D02*
D03*
X225909Y147700D02*
D03*
Y157700D02*
D03*
X287455Y147700D02*
D03*
Y157700D02*
D03*
X318427Y96800D02*
D03*
Y106800D02*
D03*
X349000Y147700D02*
D03*
Y157700D02*
D03*
X256882Y96800D02*
D03*
Y106800D02*
D03*
X72245Y96800D02*
D03*
Y106800D02*
D03*
G54D42*
X10700Y86800D02*
D03*
X41273Y137700D02*
D03*
X102818D02*
D03*
X133791Y86800D02*
D03*
X164364Y137700D02*
D03*
X195336Y86800D02*
D03*
X225909Y137700D02*
D03*
X287455D02*
D03*
X318427Y86800D02*
D03*
X349000Y137700D02*
D03*
X256882Y86800D02*
D03*
X5300Y400100D02*
D03*
Y450100D02*
D03*
X25300Y400100D02*
D03*
Y450100D02*
D03*
X72245Y86800D02*
D03*
G54D43*
X371400Y423000D02*
D03*
X342200Y433000D02*
D03*
G54D44*
X371400D02*
D03*
X342200Y423000D02*
D03*
X315000Y390000D02*
D03*
Y370000D02*
D03*
X300000D02*
D03*
Y390000D02*
D03*
X285000D02*
D03*
Y370000D02*
D03*
X270000Y390000D02*
D03*
Y370000D02*
D03*
X255000Y390000D02*
D03*
Y370000D02*
D03*
X240000Y390000D02*
D03*
Y370000D02*
D03*
X54800Y370500D02*
D03*
Y390500D02*
D03*
X69800Y370500D02*
D03*
Y390500D02*
D03*
X84800Y370500D02*
D03*
Y390500D02*
D03*
X99800Y370500D02*
D03*
Y390500D02*
D03*
X114800Y370500D02*
D03*
Y390500D02*
D03*
X129800Y370500D02*
D03*
Y390500D02*
D03*
X32000Y615500D02*
D03*
X347700Y398700D02*
D03*
G54D45*
X235000Y605000D02*
D03*
X295000D02*
D03*
X265000D02*
D03*
X295000Y575000D02*
D03*
X265000D02*
D03*
X255000Y605000D02*
D03*
X245000D02*
D03*
X285000D02*
D03*
X275000D02*
D03*
X305000D02*
D03*
X245000Y575000D02*
D03*
X255000D02*
D03*
X285000D02*
D03*
X275000D02*
D03*
X305000D02*
D03*
X145000Y605000D02*
D03*
X205000D02*
D03*
X175000D02*
D03*
X205000Y575000D02*
D03*
X175000D02*
D03*
X165000Y605000D02*
D03*
X155000D02*
D03*
X195000D02*
D03*
X185000D02*
D03*
X215000D02*
D03*
X155000Y575000D02*
D03*
X165000D02*
D03*
X195000D02*
D03*
X185000D02*
D03*
X215000D02*
D03*
X55000Y605000D02*
D03*
X115000D02*
D03*
X85000D02*
D03*
X115000Y575000D02*
D03*
X85000D02*
D03*
X75000Y605000D02*
D03*
X65000D02*
D03*
X105000D02*
D03*
X95000D02*
D03*
X125000D02*
D03*
X65000Y575000D02*
D03*
X75000D02*
D03*
X105000D02*
D03*
X95000D02*
D03*
X125000D02*
D03*
X320000Y499500D02*
D03*
Y529500D02*
D03*
X330000Y499500D02*
D03*
X300000D02*
D03*
X310000D02*
D03*
X300000Y529500D02*
D03*
X310000D02*
D03*
X270000Y499500D02*
D03*
Y529500D02*
D03*
X280000Y499500D02*
D03*
X250000D02*
D03*
X260000D02*
D03*
X250000Y529500D02*
D03*
X260000D02*
D03*
X220000Y499500D02*
D03*
Y529500D02*
D03*
X230000Y499500D02*
D03*
X200000D02*
D03*
X210000D02*
D03*
X200000Y529500D02*
D03*
X210000D02*
D03*
X170000Y499500D02*
D03*
Y529500D02*
D03*
X180000Y499500D02*
D03*
X150000D02*
D03*
X160000D02*
D03*
X150000Y529500D02*
D03*
X160000D02*
D03*
X120000Y499500D02*
D03*
Y529500D02*
D03*
X130000Y499500D02*
D03*
X100000D02*
D03*
X110000D02*
D03*
X100000Y529500D02*
D03*
X110000D02*
D03*
X70000Y499500D02*
D03*
Y529500D02*
D03*
X80000Y499500D02*
D03*
X50000D02*
D03*
X60000D02*
D03*
X50000Y529500D02*
D03*
X60000D02*
D03*
G54D46*
X235000Y575000D02*
D03*
X145000D02*
D03*
X55000D02*
D03*
X330000Y529500D02*
D03*
X280000D02*
D03*
X230000D02*
D03*
X180000D02*
D03*
X130000D02*
D03*
X80000D02*
D03*
G54D47*
X234213Y28400D02*
D03*
X273583D02*
D03*
X293268D02*
D03*
X253898D02*
D03*
X175158D02*
D03*
X116103D02*
D03*
X214528D02*
D03*
X194843D02*
D03*
X155473D02*
D03*
X135787D02*
D03*
X96417D02*
D03*
X76732D02*
D03*
G54D48*
X350000Y735000D02*
D03*
X20000D02*
D03*
X350000Y20000D02*
D03*
X20000D02*
D03*
G54D49*
X22000Y615500D02*
D03*
X357700Y398700D02*
D03*
G54D50*
X16000Y237500D02*
D03*
Y267500D02*
D03*
Y297500D02*
D03*
Y252500D02*
D03*
Y282500D02*
D03*
Y312500D02*
D03*
Y372500D02*
D03*
Y342500D02*
D03*
Y357500D02*
D03*
Y327500D02*
D03*
X354000Y237500D02*
D03*
Y267500D02*
D03*
Y297500D02*
D03*
Y252500D02*
D03*
Y282500D02*
D03*
Y312500D02*
D03*
Y372500D02*
D03*
Y342500D02*
D03*
Y357500D02*
D03*
Y327500D02*
D03*
G54D51*
X-2400Y425100D02*
D03*
X33000D02*
D03*
G54D52*
X218000Y203000D02*
D03*
G54D53*
X218300Y687800D02*
D03*
G54D54*
Y677800D02*
D03*
G54D55*
X88000Y678500D02*
D03*
X89000Y727500D02*
D03*
X90000Y745000D02*
D03*
X75500Y718500D02*
D03*
X169200Y651600D02*
D03*
X201500Y730500D02*
D03*
X187000Y745000D02*
D03*
X212500Y720500D02*
D03*
X233500Y743000D02*
D03*
X84000Y755000D02*
D03*
X181000Y741000D02*
D03*
X176000Y737000D02*
D03*
X336000Y544500D02*
D03*
X224500Y616700D02*
D03*
X146300Y723400D02*
D03*
X110400Y726000D02*
D03*
X184800Y434300D02*
D03*
X165300Y418000D02*
D03*
X170200Y417500D02*
D03*
X178000Y418300D02*
D03*
X60000Y645000D02*
D03*
X80000D02*
D03*
X100000D02*
D03*
X120000D02*
D03*
X150000D02*
D03*
X170000D02*
D03*
X190000D02*
D03*
X210000D02*
D03*
X240000D02*
D03*
X260000D02*
D03*
X280000D02*
D03*
X300000D02*
D03*
X247800Y730800D02*
D03*
X257800D02*
D03*
X267800D02*
D03*
X277800D02*
D03*
X287800D02*
D03*
X297800D02*
D03*
X307800D02*
D03*
X317800D02*
D03*
X170200Y380600D02*
D03*
X218300Y368800D02*
D03*
X16100Y622800D02*
D03*
X161900Y674000D02*
D03*
X166400Y672200D02*
D03*
X132000Y691900D02*
D03*
X176300Y716400D02*
D03*
X175100Y697579D02*
D03*
X178800Y693100D02*
D03*
X180984Y703500D02*
D03*
X166100Y688400D02*
D03*
X148600Y700700D02*
D03*
X169500Y705600D02*
D03*
X183200Y716200D02*
D03*
X192700Y703500D02*
D03*
X188200Y697500D02*
D03*
X119800Y677300D02*
D03*
X106700Y705000D02*
D03*
X117700Y705100D02*
D03*
X103200Y697500D02*
D03*
X117900Y698000D02*
D03*
X112600Y712700D02*
D03*
X109500Y720000D02*
D03*
X159300Y417400D02*
D03*
X148700Y424200D02*
D03*
X170800Y435100D02*
D03*
X175900Y434700D02*
D03*
X200900Y418800D02*
D03*
X184200Y421200D02*
D03*
X212810Y414390D02*
D03*
X205600Y420200D02*
D03*
X203500Y439100D02*
D03*
X215200Y434600D02*
D03*
X48500Y692500D02*
D03*
X42500Y699000D02*
D03*
X193200Y696600D02*
D03*
X158300Y723600D02*
D03*
X225000Y674700D02*
D03*
X213800Y710400D02*
D03*
X231700D02*
D03*
X228000Y701600D02*
D03*
G54D56*
X68300Y217400D02*
D03*
X79400Y196800D02*
D03*
X12400Y220900D02*
D03*
X325900Y221400D02*
D03*
X299600Y205700D02*
D03*
X368500Y208400D02*
D03*
G54D57*
X355000Y690000D02*
D03*
Y673000D02*
D03*
X301000D02*
D03*
Y690000D02*
D03*
G54D58*
X24750Y682500D02*
D03*
Y692500D02*
D03*
Y687500D02*
D03*
X3250Y682500D02*
D03*
Y692500D02*
D03*
Y687500D02*
D03*
X24750Y697500D02*
D03*
X3250D02*
D03*
G54D59*
X365500Y479750D02*
D03*
X355500D02*
D03*
X360500D02*
D03*
X365500Y458250D02*
D03*
X355500D02*
D03*
X360500D02*
D03*
X350500Y479750D02*
D03*
Y458250D02*
D03*
G54D60*
X170197Y389055D02*
D03*
Y370945D02*
D03*
G54D61*
X194803Y380000D02*
D03*
G54D62*
X170197Y336803D02*
X188200Y318800D01*
X170197Y336803D02*
Y370945D01*
X200750Y298000D02*
Y313250D01*
X207250Y313500D02*
X209250Y311500D01*
Y301500D02*
Y311500D01*
X200750Y313500D02*
X201000D01*
X197500D02*
X200750D01*
X192200Y318800D02*
X197500Y313500D01*
X199500Y332500D02*
X207250Y324750D01*
X188100Y332500D02*
X199500D01*
X207250Y313500D02*
Y324750D01*
X188200Y318800D02*
X192200D01*
X200750Y313250D02*
X201000Y313500D01*
M02*
