%FSLAX25Y25*%
%MOIN*%
G70*
G01*
G75*
G04 Layer_Physical_Order=1*
G04 Layer_Color=255*
%ADD10R,0.09000X0.06500*%
%ADD11R,0.07000X0.08000*%
%ADD12R,0.05906X0.05118*%
%ADD13R,0.12500X0.06000*%
%ADD14R,0.06000X0.12500*%
%ADD15R,0.05600X0.03600*%
%ADD16R,0.06299X0.07087*%
%ADD17R,0.10630X0.07087*%
%ADD18R,0.04331X0.03937*%
%ADD19R,0.05118X0.05906*%
%ADD20C,0.05000*%
%ADD21R,0.07087X0.06299*%
%ADD22R,0.03937X0.04331*%
%ADD23R,0.06000X0.08500*%
%ADD24R,0.01181X0.05118*%
%ADD25R,0.07087X0.08661*%
%ADD26O,0.01181X0.07087*%
%ADD27O,0.07087X0.01181*%
%ADD28R,0.14500X0.05000*%
%ADD29R,0.10000X0.07000*%
%ADD30R,0.20000X0.07000*%
%ADD31R,0.06000X0.05500*%
%ADD32C,0.00800*%
%ADD33C,0.01000*%
%ADD34C,0.05000*%
%ADD35C,0.02000*%
%ADD36C,0.08000*%
%ADD37C,0.02500*%
%ADD38C,0.01200*%
%ADD39C,0.13000*%
%ADD40C,0.10000*%
%ADD41C,0.06000*%
G04:AMPARAMS|DCode=42|XSize=60mil|YSize=60mil|CornerRadius=15mil|HoleSize=0mil|Usage=FLASHONLY|Rotation=90.000|XOffset=0mil|YOffset=0mil|HoleType=Round|Shape=RoundedRectangle|*
%AMROUNDEDRECTD42*
21,1,0.06000,0.03000,0,0,90.0*
21,1,0.03000,0.06000,0,0,90.0*
1,1,0.03000,0.01500,0.01500*
1,1,0.03000,0.01500,-0.01500*
1,1,0.03000,-0.01500,-0.01500*
1,1,0.03000,-0.01500,0.01500*
%
%ADD42ROUNDEDRECTD42*%
%ADD43R,0.06200X0.06200*%
%ADD44C,0.06200*%
%ADD45O,0.06000X0.06400*%
%ADD46R,0.06000X0.06400*%
%ADD47O,0.10000X0.12000*%
%ADD48C,0.23400*%
%ADD49R,0.06200X0.06200*%
%ADD50C,0.10000*%
%ADD51C,0.07500*%
G04:AMPARAMS|DCode=52|XSize=50mil|YSize=50mil|CornerRadius=12.5mil|HoleSize=0mil|Usage=FLASHONLY|Rotation=180.000|XOffset=0mil|YOffset=0mil|HoleType=Round|Shape=RoundedRectangle|*
%AMROUNDEDRECTD52*
21,1,0.05000,0.02500,0,0,180.0*
21,1,0.02500,0.05000,0,0,180.0*
1,1,0.02500,-0.01250,0.01250*
1,1,0.02500,0.01250,0.01250*
1,1,0.02500,0.01250,-0.01250*
1,1,0.02500,-0.01250,-0.01250*
%
%ADD52ROUNDEDRECTD52*%
%ADD53C,0.05500*%
G04:AMPARAMS|DCode=54|XSize=55mil|YSize=55mil|CornerRadius=13.75mil|HoleSize=0mil|Usage=FLASHONLY|Rotation=180.000|XOffset=0mil|YOffset=0mil|HoleType=Round|Shape=RoundedRectangle|*
%AMROUNDEDRECTD54*
21,1,0.05500,0.02750,0,0,180.0*
21,1,0.02750,0.05500,0,0,180.0*
1,1,0.02750,-0.01375,0.01375*
1,1,0.02750,0.01375,0.01375*
1,1,0.02750,0.01375,-0.01375*
1,1,0.02750,-0.01375,-0.01375*
%
%ADD54ROUNDEDRECTD54*%
%ADD55C,0.03000*%
%ADD56C,0.08000*%
G36*
X42878Y741811D02*
X44000Y741663D01*
X44649Y741748D01*
X44794Y741702D01*
X45385Y741166D01*
X45424Y741072D01*
Y730000D01*
Y709476D01*
X37500D01*
Y710700D01*
X19400D01*
Y702100D01*
X37500D01*
Y703324D01*
X45424D01*
Y703000D01*
Y701878D01*
X45360Y701819D01*
X44624Y701530D01*
X44164Y701883D01*
X43361Y702215D01*
X42500Y702328D01*
X41638Y702215D01*
X40836Y701883D01*
X40146Y701354D01*
X39617Y700664D01*
X39285Y699861D01*
X39171Y699000D01*
X39037Y698847D01*
X37500D01*
Y700700D01*
X19400D01*
Y692100D01*
X37500D01*
Y693953D01*
X41900D01*
X42681Y694108D01*
X42836Y694139D01*
X43630Y694670D01*
X44230Y695270D01*
X44624Y695858D01*
X45424Y695616D01*
Y693696D01*
X45285Y693362D01*
X45171Y692500D01*
X45285Y691639D01*
X45424Y691304D01*
Y679274D01*
X38300Y672151D01*
X37893Y672319D01*
X37893Y672319D01*
X37621Y672432D01*
X37565Y672455D01*
X37521Y672473D01*
X37500Y672482D01*
Y672543D01*
X37500Y672742D01*
Y672763D01*
Y672763D01*
Y680700D01*
X19400D01*
Y672100D01*
X36837D01*
X36837Y672100D01*
X36858D01*
X37057Y672100D01*
X37118D01*
X37127Y672079D01*
X37145Y672035D01*
X37168Y671979D01*
X37281Y671707D01*
X37281Y671707D01*
X37449Y671300D01*
X29825Y663675D01*
X29336Y663038D01*
X29028Y662296D01*
X28924Y661500D01*
Y658129D01*
X28124Y657701D01*
X27950Y657818D01*
Y663343D01*
X18050D01*
Y652657D01*
X20310D01*
X27066Y645900D01*
X24733Y643567D01*
X24491Y643324D01*
X21215D01*
Y644269D01*
X13285D01*
Y643469D01*
X11250D01*
Y640500D01*
Y637532D01*
X12719D01*
X12817Y637434D01*
X12578Y636541D01*
X12565Y636537D01*
X11100D01*
X9978Y636389D01*
X8931Y635956D01*
X8033Y635267D01*
X1633Y628867D01*
X944Y627969D01*
X800Y627621D01*
X0Y627780D01*
Y655623D01*
X496Y656004D01*
X1057Y656735D01*
X1410Y657586D01*
X1464Y658000D01*
X-2000D01*
Y659000D01*
X1464D01*
X1410Y659414D01*
X1057Y660265D01*
X496Y660996D01*
X0Y661377D01*
Y662954D01*
X665Y663399D01*
X878Y663311D01*
X2000Y663163D01*
X3122Y663311D01*
X4169Y663744D01*
X5067Y664433D01*
X5756Y665332D01*
X6189Y666377D01*
X6337Y667500D01*
X6189Y668622D01*
X5756Y669668D01*
X5067Y670567D01*
X4169Y671256D01*
X4062Y671300D01*
X4222Y672100D01*
X18000D01*
Y680700D01*
X243D01*
Y682100D01*
X18000D01*
Y690700D01*
X0D01*
Y692659D01*
X700Y692900D01*
X800Y692900D01*
X8450D01*
Y696400D01*
Y699900D01*
X800D01*
X700Y699900D01*
X0Y700141D01*
Y702100D01*
X18000D01*
Y710700D01*
X15111D01*
X14683Y711500D01*
X14718Y711553D01*
X29000D01*
X29781Y711708D01*
X29936Y711739D01*
X30730Y712270D01*
X40730Y722270D01*
X41261Y723064D01*
X41447Y724000D01*
Y741583D01*
X42247Y742072D01*
X42878Y741811D01*
D02*
G37*
G36*
X228557Y645871D02*
Y632300D01*
X228728Y631442D01*
X229214Y630714D01*
X231747Y628181D01*
Y625391D01*
X232785D01*
Y618731D01*
X242757D01*
Y609466D01*
X242579Y609393D01*
X241577Y608623D01*
X240807Y607621D01*
X240416Y606675D01*
X239584D01*
X239193Y607621D01*
X238423Y608623D01*
X237421Y609393D01*
X236253Y609876D01*
X235000Y610041D01*
X233747Y609876D01*
X232579Y609393D01*
X231577Y608623D01*
X230807Y607621D01*
X230324Y606453D01*
X230159Y605200D01*
Y604800D01*
X230324Y603547D01*
X230742Y602537D01*
X230404Y601737D01*
X219596D01*
X219258Y602537D01*
X219676Y603547D01*
X219841Y604800D01*
Y605200D01*
X219676Y606453D01*
X219193Y607621D01*
X218423Y608623D01*
X217421Y609393D01*
X217243Y609466D01*
Y620750D01*
X217215Y620890D01*
Y626268D01*
X217769Y626285D01*
X217769D01*
Y634215D01*
X216968D01*
Y636250D01*
X214000D01*
Y636750D01*
X213500D01*
Y639915D01*
X211032D01*
X210453Y640449D01*
Y640809D01*
X207000D01*
Y637250D01*
X206000D01*
Y640809D01*
X202547D01*
X202547Y640809D01*
Y640809D01*
X202547Y640809D01*
X201843Y641041D01*
Y642600D01*
X201672Y643458D01*
X201186Y644186D01*
X198515Y646857D01*
X198847Y647657D01*
X208036D01*
X208279Y646857D01*
X208198Y646802D01*
X207645Y645975D01*
X207551Y645500D01*
X212450D01*
X212355Y645975D01*
X211802Y646802D01*
X211721Y646857D01*
X211964Y647657D01*
X215771D01*
X222257Y641171D01*
Y619138D01*
X222146Y619054D01*
X221618Y618364D01*
X221285Y617561D01*
X221171Y616700D01*
X221285Y615838D01*
X221618Y615036D01*
X222146Y614346D01*
X222836Y613818D01*
X223639Y613485D01*
X224500Y613372D01*
X225361Y613485D01*
X226164Y613818D01*
X226854Y614346D01*
X227382Y615036D01*
X227715Y615838D01*
X227829Y616700D01*
X227715Y617561D01*
X227382Y618364D01*
X226854Y619054D01*
X226743Y619138D01*
Y642100D01*
X226572Y642958D01*
X226086Y643686D01*
X221254Y648518D01*
X221561Y649257D01*
X225171D01*
X228557Y645871D01*
D02*
G37*
G36*
X188578Y647057D02*
X188198Y646802D01*
X187645Y645975D01*
X187550Y645500D01*
X192587D01*
X193200Y645828D01*
X197357Y641671D01*
Y640555D01*
X196968Y639915D01*
X194500D01*
Y636750D01*
X193500D01*
Y639915D01*
X191032D01*
X190453Y640449D01*
Y640809D01*
X187000D01*
Y637250D01*
X186000D01*
Y640809D01*
X182547D01*
X182547Y640809D01*
Y640809D01*
X182547Y640809D01*
X181843Y641041D01*
Y647857D01*
X188336D01*
X188578Y647057D01*
D02*
G37*
G36*
X80046Y654218D02*
X68014Y642186D01*
X67528Y641458D01*
X67357Y640600D01*
Y640555D01*
X66969Y639915D01*
X64500D01*
Y636750D01*
X63500D01*
Y639915D01*
X61032D01*
X60453Y640449D01*
Y640809D01*
X57000D01*
Y637250D01*
X56000D01*
Y640809D01*
X52547D01*
X52343Y641525D01*
Y643871D01*
X63429Y654957D01*
X79739D01*
X80046Y654218D01*
D02*
G37*
G36*
X113650Y731066D02*
Y729900D01*
X113967D01*
X114450Y729300D01*
Y727000D01*
X118250D01*
Y726500D01*
X118750D01*
Y723700D01*
X120285D01*
Y722443D01*
X111737D01*
X111263Y722807D01*
X111261Y723233D01*
X111375Y723645D01*
X112202Y724198D01*
X112755Y725025D01*
X112849Y725500D01*
X110400D01*
Y726500D01*
X112849D01*
X112755Y726975D01*
X112202Y727802D01*
X111375Y728355D01*
X111195Y728391D01*
X110931Y729259D01*
X112850Y731178D01*
X113650Y731066D01*
D02*
G37*
G36*
X944Y463831D02*
X1633Y462933D01*
X9163Y455404D01*
Y453917D01*
X9117Y453875D01*
X8363Y453562D01*
X7775Y453955D01*
X6800Y454149D01*
X5800D01*
Y450100D01*
Y446051D01*
X6800D01*
X7775Y446245D01*
X8363Y446638D01*
X9117Y446325D01*
X9163Y446283D01*
Y403917D01*
X9117Y403875D01*
X8363Y403562D01*
X7775Y403955D01*
X6800Y404149D01*
X5800D01*
Y400100D01*
Y396051D01*
X6800D01*
X7775Y396245D01*
X8091Y396456D01*
X8601Y395834D01*
X1633Y388867D01*
X944Y387969D01*
X800Y387621D01*
X0Y387780D01*
Y420087D01*
X399Y420252D01*
X1558Y421142D01*
X2448Y422301D01*
X3007Y423651D01*
X3198Y425100D01*
X3007Y426549D01*
X2448Y427899D01*
X1558Y429058D01*
X399Y429948D01*
X0Y430113D01*
Y464020D01*
X800Y464179D01*
X944Y463831D01*
D02*
G37*
G36*
X308655Y644929D02*
Y624000D01*
X308833Y623103D01*
X309342Y622342D01*
X315335Y616348D01*
X315029Y615609D01*
X314747D01*
Y606891D01*
Y599391D01*
X317155D01*
Y590000D01*
X46279D01*
X45973Y590739D01*
X48296Y593063D01*
X291400D01*
X292523Y593211D01*
X293569Y593644D01*
X294467Y594333D01*
X298067Y597933D01*
X298756Y598832D01*
X299189Y599878D01*
X299337Y601000D01*
Y602728D01*
X299584Y603325D01*
X300416D01*
X300807Y602379D01*
X301577Y601377D01*
X302579Y600607D01*
X303747Y600124D01*
X305000Y599959D01*
X306253Y600124D01*
X307421Y600607D01*
X308423Y601377D01*
X309193Y602379D01*
X309677Y603547D01*
X309841Y604800D01*
Y605200D01*
X309677Y606453D01*
X309193Y607621D01*
X308423Y608623D01*
X307421Y609393D01*
X307243Y609466D01*
Y620750D01*
X307215Y620890D01*
Y626268D01*
X307769Y626285D01*
X307769D01*
Y634215D01*
X306968D01*
Y636250D01*
X304000D01*
Y636750D01*
X303500D01*
Y639915D01*
X301031D01*
X300453Y640449D01*
Y640809D01*
X297000D01*
Y637250D01*
X296500D01*
Y636750D01*
X292547D01*
Y634675D01*
X292485Y634613D01*
X291702Y634848D01*
X291643Y634902D01*
Y650000D01*
X291472Y650858D01*
X290986Y651586D01*
X287656Y654916D01*
X287963Y655655D01*
X297929D01*
X308655Y644929D01*
D02*
G37*
G36*
X189894Y719146D02*
X190827Y718960D01*
X191760Y719146D01*
X191811Y719180D01*
X191862Y719146D01*
X192206Y719078D01*
X192632Y718566D01*
X192689Y718186D01*
X192553Y717500D01*
Y712500D01*
X192708Y711719D01*
X192739Y711564D01*
X193270Y710770D01*
X194270Y709770D01*
X195064Y709239D01*
X195219Y709208D01*
X196000Y709053D01*
X196319D01*
X196524Y708614D01*
X196634Y708297D01*
X196460Y707421D01*
X196646Y706489D01*
X196680Y706437D01*
X196646Y706386D01*
X196460Y705453D01*
X196625Y704623D01*
X196639Y704508D01*
X196194Y703757D01*
X196020Y703722D01*
X195459Y703934D01*
X195115Y704174D01*
X195055Y704475D01*
X194502Y705302D01*
X193675Y705855D01*
X193200Y705949D01*
Y703500D01*
X192700D01*
Y703000D01*
X190251D01*
X190345Y702525D01*
X190898Y701698D01*
X191725Y701145D01*
X191869Y701116D01*
X192090Y700386D01*
X191585Y699750D01*
X190910Y699694D01*
X190628Y699766D01*
X190610Y699780D01*
X190554Y699854D01*
X189864Y700383D01*
X189061Y700715D01*
X188200Y700829D01*
X187338Y700715D01*
X186536Y700383D01*
X185938Y699924D01*
X177460D01*
X177454Y699932D01*
X176764Y700461D01*
X175961Y700794D01*
X175100Y700907D01*
X174239Y700794D01*
X173436Y700461D01*
X172746Y699932D01*
X172740Y699924D01*
X170872D01*
X170831Y699985D01*
X169611Y701205D01*
X168850Y701714D01*
X167953Y701892D01*
X163803D01*
X163382Y702692D01*
X163540Y703484D01*
X163354Y704417D01*
X163320Y704468D01*
X163354Y704520D01*
X163540Y705453D01*
X163375Y706282D01*
X163803Y707045D01*
X164190D01*
X165087Y707223D01*
X165848Y707732D01*
X167258Y709142D01*
X167767Y709903D01*
X167945Y710800D01*
X167945Y710800D01*
Y716300D01*
X167767Y717197D01*
X167258Y717958D01*
X167039Y718178D01*
X167116Y718543D01*
X167357Y718991D01*
X168138Y719146D01*
X168189Y719180D01*
X168240Y719146D01*
X169173Y718960D01*
X170106Y719146D01*
X170158Y719180D01*
X170209Y719146D01*
X171142Y718960D01*
X172074Y719146D01*
X172126Y719180D01*
X172178Y719146D01*
X173110Y718960D01*
X173546Y718231D01*
X173417Y718064D01*
X173085Y717262D01*
X172971Y716400D01*
X173085Y715539D01*
X173417Y714736D01*
X173946Y714046D01*
X174636Y713518D01*
X175438Y713185D01*
X176300Y713071D01*
X177162Y713185D01*
X177964Y713518D01*
X178654Y714046D01*
X179183Y714736D01*
X179515Y715539D01*
X179560Y715880D01*
X179870Y716065D01*
X180758Y715661D01*
X180845Y715225D01*
X181398Y714398D01*
X182225Y713845D01*
X182700Y713751D01*
Y716200D01*
X183200D01*
Y716700D01*
X185650D01*
X185555Y717175D01*
X185002Y718002D01*
X184734Y718182D01*
X184874Y718766D01*
X184989Y718974D01*
X185854Y719146D01*
X185906Y719180D01*
X185957Y719146D01*
X186890Y718960D01*
X187822Y719146D01*
X187874Y719180D01*
X187926Y719146D01*
X188858Y718960D01*
X189791Y719146D01*
X189842Y719180D01*
X189894Y719146D01*
D02*
G37*
G36*
X267157Y646371D02*
Y640637D01*
X266968Y639915D01*
X264500D01*
Y636750D01*
X263500D01*
Y639915D01*
X261032D01*
X260453Y640449D01*
Y640809D01*
X257000D01*
Y637250D01*
X256500D01*
Y636750D01*
X252547D01*
Y634675D01*
X252418Y634545D01*
X251404Y634646D01*
X251343Y634742D01*
Y648500D01*
X251172Y649358D01*
X250686Y650086D01*
X249054Y651718D01*
X249361Y652457D01*
X261071D01*
X267157Y646371D01*
D02*
G37*
G36*
X98546Y652618D02*
X88014Y642086D01*
X87528Y641358D01*
X87367Y640550D01*
X86968Y639915D01*
X84500D01*
Y636750D01*
X83500D01*
Y639915D01*
X81032D01*
X80453Y640449D01*
Y640809D01*
X77000D01*
Y637250D01*
X76000D01*
Y640809D01*
X74027D01*
X73720Y641548D01*
X76724Y644552D01*
X77592Y644289D01*
X77645Y644025D01*
X78198Y643198D01*
X79024Y642645D01*
X79500Y642551D01*
Y645000D01*
X80000D01*
Y645500D01*
X82450D01*
X82355Y645975D01*
X81802Y646802D01*
X80976Y647355D01*
X80711Y647407D01*
X80448Y648276D01*
X85529Y653357D01*
X98239D01*
X98546Y652618D01*
D02*
G37*
G36*
X172746Y695225D02*
X173436Y694696D01*
X174239Y694364D01*
X175100Y694250D01*
X175728Y694333D01*
X176241Y693876D01*
X176363Y693664D01*
X176350Y693600D01*
X178800D01*
Y693100D01*
X179300D01*
Y690651D01*
X179776Y690745D01*
X179808Y690767D01*
X180608Y690339D01*
Y686303D01*
X179808Y685882D01*
X179016Y686040D01*
X178083Y685854D01*
X178032Y685820D01*
X177980Y685854D01*
X177047Y686040D01*
X176114Y685854D01*
X176063Y685820D01*
X176012Y685854D01*
X175079Y686040D01*
X174146Y685854D01*
X174094Y685820D01*
X174043Y685854D01*
X173110Y686040D01*
X172318Y685882D01*
X171518Y686303D01*
Y695234D01*
X172740D01*
X172746Y695225D01*
D02*
G37*
G36*
X107157Y640637D02*
X106968Y639915D01*
X104500D01*
Y636750D01*
X103500D01*
Y639915D01*
X101031D01*
X100453Y640449D01*
Y640809D01*
X97000D01*
Y637250D01*
X96000D01*
Y640809D01*
X94126D01*
X93820Y641548D01*
X96741Y644469D01*
X97609Y644206D01*
X97645Y644025D01*
X98198Y643198D01*
X99024Y642645D01*
X99500Y642551D01*
Y645000D01*
X100000D01*
Y645500D01*
X102450D01*
X102355Y645975D01*
X101802Y646802D01*
X100976Y647355D01*
X100794Y647391D01*
X100531Y648259D01*
X104029Y651757D01*
X107157D01*
Y640637D01*
D02*
G37*
G36*
X163517Y670536D02*
X164046Y669846D01*
X164736Y669317D01*
X165539Y668985D01*
X166400Y668871D01*
X166855Y668472D01*
Y653960D01*
X166846Y653954D01*
X166317Y653264D01*
X165985Y652461D01*
X165872Y651600D01*
X165985Y650738D01*
X166317Y649936D01*
X166846Y649246D01*
X167536Y648717D01*
X168339Y648385D01*
X169200Y648272D01*
X170062Y648385D01*
X170864Y648717D01*
X171554Y649246D01*
X172082Y649936D01*
X172415Y650738D01*
X172525Y651572D01*
X172611Y651637D01*
X173291Y651937D01*
X177357Y647871D01*
Y640555D01*
X176969Y639915D01*
X174500D01*
Y636750D01*
X173500D01*
Y639915D01*
X171031D01*
X170453Y640449D01*
Y640809D01*
X167000D01*
Y637250D01*
X166500D01*
Y636750D01*
X162547D01*
Y634675D01*
X161982Y634109D01*
X161747D01*
X161143Y634582D01*
Y670164D01*
X161745Y670692D01*
X161900Y670672D01*
X162761Y670785D01*
X163319Y671016D01*
X163517Y670536D01*
D02*
G37*
G36*
X246857Y647571D02*
Y640481D01*
X246291Y639915D01*
X244500D01*
Y636750D01*
X243500D01*
Y639915D01*
X241032D01*
X240453Y640449D01*
Y640809D01*
X237000D01*
Y637250D01*
X236000D01*
Y640809D01*
X233043D01*
Y646800D01*
X232872Y647658D01*
X232386Y648386D01*
X230654Y650118D01*
X230961Y650857D01*
X243571D01*
X246857Y647571D01*
D02*
G37*
G36*
X287157Y649071D02*
Y640637D01*
X286968Y639915D01*
X284500D01*
Y636750D01*
X283500D01*
Y639915D01*
X281031D01*
X280453Y640449D01*
Y640809D01*
X277000D01*
Y637250D01*
X276500D01*
Y636750D01*
X272547D01*
Y634675D01*
X272485Y634613D01*
X271702Y634848D01*
X271643Y634902D01*
Y647300D01*
X271472Y648158D01*
X270986Y648886D01*
X266554Y653318D01*
X266861Y654057D01*
X282171D01*
X287157Y649071D01*
D02*
G37*
G36*
X125957Y665765D02*
Y640481D01*
X125391Y639915D01*
X124500D01*
Y636750D01*
X123500D01*
Y639915D01*
X121031D01*
X120453Y640449D01*
Y640809D01*
X117000D01*
Y637250D01*
X116500D01*
Y636750D01*
X112547D01*
Y634675D01*
X112486Y634613D01*
X111702Y634848D01*
X111643Y634902D01*
Y652496D01*
X125218Y666071D01*
X125957Y665765D01*
D02*
G37*
G36*
X152945Y686803D02*
X153473Y686013D01*
X154264Y685484D01*
X155197Y685299D01*
X156657D01*
Y640481D01*
X156091Y639915D01*
X154500D01*
Y636750D01*
X153500D01*
Y639915D01*
X151031D01*
X150453Y640449D01*
Y640809D01*
X147000D01*
Y637250D01*
X146000D01*
Y640809D01*
X143343D01*
Y679671D01*
X151134Y687462D01*
X152814D01*
X152945Y686803D01*
D02*
G37*
G36*
X370000Y339755D02*
Y300000D01*
X359467D01*
X359013Y300850D01*
X358263Y301763D01*
X357349Y302513D01*
X356307Y303070D01*
X355176Y303413D01*
X354500Y303480D01*
Y297500D01*
X353500D01*
Y303480D01*
X352824Y303413D01*
X351693Y303070D01*
X350651Y302513D01*
X349737Y301763D01*
X348987Y300850D01*
X348533Y300000D01*
X340000D01*
Y325667D01*
X346170D01*
X349168Y322668D01*
X350204Y321819D01*
X351385Y321187D01*
X352667Y320798D01*
X354000Y320667D01*
X355333Y320798D01*
X356615Y321187D01*
X357796Y321819D01*
X358832Y322668D01*
X359681Y323704D01*
X360313Y324885D01*
X360702Y326167D01*
X360833Y327500D01*
X360816Y327668D01*
X360812Y327717D01*
X360935Y327867D01*
X361705Y329308D01*
X362180Y330873D01*
X362340Y332500D01*
Y339424D01*
X367300D01*
X368096Y339528D01*
X368838Y339836D01*
X369200Y340113D01*
X370000Y339755D01*
D02*
G37*
G36*
X366000Y751000D02*
X370000Y749500D01*
Y710550D01*
X366200D01*
Y700450D01*
X370000D01*
Y680550D01*
X368084D01*
X367837Y680796D01*
Y690000D01*
X367689Y691122D01*
X367256Y692169D01*
X366567Y693067D01*
X365669Y693756D01*
X364622Y694189D01*
X363500Y694337D01*
X362378Y694189D01*
X361331Y693756D01*
X360433Y693067D01*
X359744Y692169D01*
X359311Y691122D01*
X359163Y690000D01*
Y679000D01*
X359311Y677878D01*
X359744Y676831D01*
X360433Y675933D01*
X363933Y672433D01*
X364831Y671744D01*
X365878Y671311D01*
X366200Y671268D01*
Y670450D01*
X368163D01*
Y657001D01*
X367363Y656607D01*
X367169Y656756D01*
X366123Y657189D01*
X365000Y657337D01*
X364947Y657384D01*
Y663000D01*
X364761Y663936D01*
X364230Y664730D01*
X341730Y687230D01*
X340936Y687761D01*
X340781Y687792D01*
X340000Y687947D01*
X327524D01*
X327079Y688612D01*
X327189Y688877D01*
X327337Y690000D01*
Y690450D01*
X338800D01*
Y700550D01*
X338241D01*
X338000Y701250D01*
X338000Y701350D01*
Y705000D01*
X327000D01*
Y701350D01*
X327000Y701250D01*
X326759Y700550D01*
X326200D01*
Y699837D01*
X324000D01*
X323008Y699707D01*
X322878Y699689D01*
X321831Y699256D01*
X320933Y698567D01*
X319933Y697567D01*
X319244Y696669D01*
X318811Y695622D01*
X318663Y694500D01*
Y690000D01*
X318811Y688877D01*
X319244Y687831D01*
X319933Y686933D01*
X320176Y686747D01*
X319904Y685947D01*
X238171D01*
X237744Y686458D01*
X238066Y687198D01*
X238923Y687311D01*
X239969Y687744D01*
X240867Y688433D01*
X241556Y689331D01*
X241989Y690378D01*
X242137Y691500D01*
Y700403D01*
X243584Y701850D01*
X252500D01*
Y701850D01*
X252900D01*
Y701850D01*
X262500D01*
Y701850D01*
X262900D01*
Y701850D01*
X272500D01*
Y701850D01*
X272900D01*
Y701850D01*
X282500D01*
Y701850D01*
X282900D01*
Y701850D01*
X292500D01*
Y701850D01*
X292900D01*
Y701850D01*
X302500D01*
Y701850D01*
X302900D01*
Y701850D01*
X312500D01*
Y701850D01*
X312900D01*
Y701850D01*
X322500D01*
Y713950D01*
X312900D01*
Y713950D01*
X312500D01*
Y713950D01*
X302900D01*
Y713950D01*
X302500D01*
Y713950D01*
X292900D01*
Y713950D01*
X292500D01*
Y713950D01*
X282900D01*
Y713950D01*
X282500D01*
Y713950D01*
X272900D01*
Y713950D01*
X272500D01*
Y713950D01*
X262900D01*
Y713950D01*
X262500D01*
Y713950D01*
X252900D01*
Y713950D01*
X252500D01*
Y713950D01*
X247784D01*
X240917Y720817D01*
X240019Y721506D01*
X238972Y721939D01*
X237850Y722087D01*
X226800D01*
Y725757D01*
X244800D01*
X245658Y725928D01*
X246386Y726414D01*
X247485Y727513D01*
X247800Y727471D01*
X248661Y727585D01*
X249464Y727917D01*
X250154Y728446D01*
X250682Y729136D01*
X251015Y729939D01*
X251129Y730800D01*
X251015Y731662D01*
X250682Y732464D01*
X250154Y733154D01*
X249943Y733315D01*
Y734350D01*
X252500D01*
Y734350D01*
X252900D01*
Y734350D01*
X255457D01*
Y733162D01*
X255446Y733154D01*
X254918Y732464D01*
X254585Y731662D01*
X254471Y730800D01*
X254585Y729939D01*
X254918Y729136D01*
X255446Y728446D01*
X256136Y727917D01*
X256939Y727585D01*
X257800Y727471D01*
X258662Y727585D01*
X259464Y727917D01*
X260154Y728446D01*
X260683Y729136D01*
X261015Y729939D01*
X261128Y730800D01*
X261015Y731662D01*
X260683Y732464D01*
X260154Y733154D01*
X259943Y733315D01*
Y734350D01*
X262500D01*
Y734350D01*
X262900D01*
Y734350D01*
X265457D01*
Y733162D01*
X265446Y733154D01*
X264917Y732464D01*
X264585Y731662D01*
X264472Y730800D01*
X264585Y729939D01*
X264917Y729136D01*
X265446Y728446D01*
X266136Y727917D01*
X266938Y727585D01*
X267800Y727471D01*
X268661Y727585D01*
X269464Y727917D01*
X270154Y728446D01*
X270683Y729136D01*
X271015Y729939D01*
X271129Y730800D01*
X271015Y731662D01*
X270683Y732464D01*
X270154Y733154D01*
X269943Y733315D01*
Y734350D01*
X272500D01*
Y734350D01*
X272900D01*
Y734350D01*
X275457D01*
Y733162D01*
X275446Y733154D01*
X274918Y732464D01*
X274585Y731662D01*
X274471Y730800D01*
X274585Y729939D01*
X274918Y729136D01*
X275446Y728446D01*
X276136Y727917D01*
X276939Y727585D01*
X277800Y727471D01*
X278661Y727585D01*
X279464Y727917D01*
X280154Y728446D01*
X280682Y729136D01*
X281015Y729939D01*
X281129Y730800D01*
X281015Y731662D01*
X280682Y732464D01*
X280154Y733154D01*
X279943Y733315D01*
Y734350D01*
X282500D01*
Y734350D01*
X282900D01*
Y734350D01*
X285457D01*
Y733162D01*
X285446Y733154D01*
X284917Y732464D01*
X284585Y731662D01*
X284472Y730800D01*
X284585Y729939D01*
X284917Y729136D01*
X285446Y728446D01*
X286136Y727917D01*
X286939Y727585D01*
X287800Y727471D01*
X288662Y727585D01*
X289464Y727917D01*
X290154Y728446D01*
X290683Y729136D01*
X291015Y729939D01*
X291128Y730800D01*
X291015Y731662D01*
X290683Y732464D01*
X290154Y733154D01*
X289943Y733315D01*
Y734350D01*
X292500D01*
Y734350D01*
X292900D01*
Y734350D01*
X295457D01*
Y733162D01*
X295446Y733154D01*
X294917Y732464D01*
X294585Y731662D01*
X294472Y730800D01*
X294585Y729939D01*
X294917Y729136D01*
X295446Y728446D01*
X296136Y727917D01*
X296938Y727585D01*
X297800Y727471D01*
X298661Y727585D01*
X299464Y727917D01*
X300154Y728446D01*
X300682Y729136D01*
X301015Y729939D01*
X301129Y730800D01*
X301015Y731662D01*
X300682Y732464D01*
X300154Y733154D01*
X299943Y733315D01*
Y734350D01*
X302500D01*
Y734350D01*
X302900D01*
Y734350D01*
X305457D01*
Y733162D01*
X305446Y733154D01*
X304918Y732464D01*
X304585Y731662D01*
X304471Y730800D01*
X304585Y729939D01*
X304918Y729136D01*
X305446Y728446D01*
X306136Y727917D01*
X306939Y727585D01*
X307800Y727471D01*
X308662Y727585D01*
X309464Y727917D01*
X310154Y728446D01*
X310683Y729136D01*
X311015Y729939D01*
X311128Y730800D01*
X311015Y731662D01*
X310683Y732464D01*
X310154Y733154D01*
X309943Y733315D01*
Y734350D01*
X312500D01*
Y734350D01*
X312900D01*
Y734350D01*
X315457D01*
Y733162D01*
X315446Y733154D01*
X314917Y732464D01*
X314585Y731662D01*
X314472Y730800D01*
X314585Y729939D01*
X314917Y729136D01*
X315446Y728446D01*
X316136Y727917D01*
X316938Y727585D01*
X317800Y727471D01*
X318661Y727585D01*
X319464Y727917D01*
X320154Y728446D01*
X320683Y729136D01*
X321015Y729939D01*
X321129Y730800D01*
X321015Y731662D01*
X320683Y732464D01*
X320154Y733154D01*
X319943Y733315D01*
Y734350D01*
X322500D01*
Y746450D01*
X320043D01*
Y746900D01*
X319872Y747758D01*
X319386Y748486D01*
X313611Y754261D01*
X313917Y755000D01*
X364500D01*
X366000Y751000D01*
D02*
G37*
G36*
X202012Y754261D02*
X190244Y742493D01*
X189641Y743021D01*
X189883Y743336D01*
X190215Y744138D01*
X190329Y745000D01*
X190215Y745861D01*
X189883Y746664D01*
X189354Y747354D01*
X188664Y747883D01*
X187862Y748215D01*
X187000Y748328D01*
X186138Y748215D01*
X185336Y747883D01*
X184768Y747447D01*
X104500D01*
X103564Y747261D01*
X102770Y746730D01*
X93270Y737230D01*
X92739Y736436D01*
X92708Y736281D01*
X92553Y735500D01*
Y680014D01*
X91311Y678771D01*
X90443Y679035D01*
X90355Y679475D01*
X89802Y680302D01*
X88976Y680855D01*
X88500Y680949D01*
Y678500D01*
X88000D01*
Y678000D01*
X85550D01*
X85601Y677747D01*
X85142Y676947D01*
X73843D01*
Y679450D01*
X63157D01*
Y669550D01*
X63157D01*
X63036Y668800D01*
X60462D01*
X59604Y668630D01*
X58876Y668144D01*
X40457Y649724D01*
X39970Y648996D01*
X39800Y648138D01*
Y612767D01*
X15963Y588930D01*
X15224Y589236D01*
Y604730D01*
X21094Y610600D01*
X26900D01*
Y612918D01*
X27700Y613077D01*
X27720Y613029D01*
X28505Y612005D01*
X29529Y611220D01*
X30721Y610726D01*
X32000Y610558D01*
X33279Y610726D01*
X34471Y611220D01*
X35495Y612005D01*
X36280Y613029D01*
X36774Y614221D01*
X36942Y615500D01*
X36774Y616779D01*
X36280Y617971D01*
X35495Y618995D01*
X34471Y619780D01*
X33279Y620274D01*
X32000Y620442D01*
X30721Y620274D01*
X29529Y619780D01*
X28505Y618995D01*
X27720Y617971D01*
X27700Y617923D01*
X26900Y618082D01*
Y620400D01*
X19426D01*
X19102Y620938D01*
X19009Y621200D01*
X19315Y621939D01*
X19429Y622800D01*
X19315Y623662D01*
X18983Y624464D01*
X18454Y625154D01*
X17764Y625682D01*
X16962Y626015D01*
X16100Y626128D01*
X15238Y626015D01*
X14436Y625682D01*
X14360Y625624D01*
X12300D01*
X11712Y625547D01*
X11441Y625879D01*
X11301Y626267D01*
X12897Y627863D01*
X19500D01*
X20622Y628011D01*
X21669Y628444D01*
X22567Y629133D01*
X30867Y637433D01*
X36267Y642833D01*
X36267Y642833D01*
X36956Y643731D01*
X37389Y644777D01*
X37537Y645900D01*
X37389Y647022D01*
X36956Y648069D01*
X36267Y648967D01*
X35076Y650157D01*
Y660226D01*
X49524Y674674D01*
X52247D01*
Y673391D01*
X61753D01*
Y680891D01*
Y682174D01*
X63157D01*
Y680550D01*
X73843D01*
Y690450D01*
X63157D01*
Y688326D01*
X61753D01*
Y689609D01*
X52247D01*
X52247Y689609D01*
Y689609D01*
X52247Y689609D01*
X51576Y689921D01*
Y691304D01*
X51715Y691639D01*
X51828Y692500D01*
X51715Y693362D01*
X51576Y693696D01*
Y698162D01*
X51747Y698891D01*
X61253D01*
Y706391D01*
Y707674D01*
X63157D01*
Y706050D01*
X73053D01*
Y704950D01*
X63157D01*
Y695050D01*
X73843D01*
Y698383D01*
X77230Y701770D01*
X77761Y702564D01*
X77947Y703500D01*
Y716268D01*
X78383Y716836D01*
X78715Y717638D01*
X78829Y718500D01*
X78715Y719361D01*
X78383Y720164D01*
X77854Y720854D01*
X77164Y721383D01*
X76362Y721715D01*
X75500Y721829D01*
X74638Y721715D01*
X73836Y721383D01*
X73146Y720854D01*
X72617Y720164D01*
X72285Y719361D01*
X72171Y718500D01*
X72285Y717638D01*
X72617Y716836D01*
X72684Y716750D01*
X72289Y715950D01*
X63157D01*
Y713826D01*
X61253D01*
Y715109D01*
X51747D01*
X51576Y715838D01*
Y725891D01*
X60253D01*
Y733391D01*
Y734674D01*
X62657D01*
Y733050D01*
X73343D01*
Y741924D01*
X88804D01*
X89139Y741785D01*
X90000Y741672D01*
X90861Y741785D01*
X91664Y742118D01*
X92354Y742646D01*
X92883Y743336D01*
X93215Y744138D01*
X93328Y745000D01*
X93215Y745861D01*
X92883Y746664D01*
X92354Y747354D01*
X91664Y747883D01*
X90861Y748215D01*
X90000Y748328D01*
X89139Y748215D01*
X88804Y748076D01*
X58715D01*
Y753231D01*
Y754757D01*
X80704D01*
X80785Y754139D01*
X81117Y753336D01*
X81646Y752646D01*
X82336Y752117D01*
X83139Y751785D01*
X84000Y751672D01*
X84861Y751785D01*
X85664Y752117D01*
X86354Y752646D01*
X86883Y753336D01*
X87215Y754139D01*
X87328Y755000D01*
X201706D01*
X202012Y754261D01*
D02*
G37*
G36*
X242900Y734350D02*
X245457D01*
Y733162D01*
X245446Y733154D01*
X244917Y732464D01*
X244585Y731662D01*
X244478Y730850D01*
X243871Y730243D01*
X226104D01*
X226000Y731000D01*
X226000Y731043D01*
Y737750D01*
X218000D01*
Y731043D01*
X218000Y731000D01*
X217896Y730243D01*
X209300D01*
X208442Y730072D01*
X207714Y729586D01*
X204686Y726558D01*
X203947Y726864D01*
Y728268D01*
X204382Y728836D01*
X204715Y729638D01*
X204829Y730500D01*
X204715Y731361D01*
X204382Y732164D01*
X203854Y732854D01*
X203164Y733383D01*
X202473Y733669D01*
X202126Y734454D01*
X214029Y746357D01*
X242900D01*
Y734350D01*
D02*
G37*
G36*
X944Y347131D02*
X1633Y346233D01*
X8433Y339433D01*
X9167Y338870D01*
Y335000D01*
X9298Y333667D01*
X9687Y332385D01*
X10294Y331250D01*
X9687Y330115D01*
X9298Y328833D01*
X9167Y327500D01*
X9298Y326167D01*
X9687Y324885D01*
X10319Y323704D01*
X11168Y322668D01*
X12204Y321819D01*
X13385Y321187D01*
X14667Y320798D01*
X16000Y320667D01*
X17333Y320798D01*
X18615Y321187D01*
X19796Y321819D01*
X20832Y322668D01*
X23830Y325667D01*
X40000D01*
Y300000D01*
X21467D01*
X21013Y300850D01*
X20263Y301763D01*
X19350Y302513D01*
X18307Y303070D01*
X17176Y303413D01*
X16500Y303480D01*
Y297500D01*
X15500D01*
Y303480D01*
X14824Y303413D01*
X13693Y303070D01*
X12650Y302513D01*
X11737Y301763D01*
X10987Y300850D01*
X10533Y300000D01*
X0D01*
Y347320D01*
X800Y347479D01*
X944Y347131D01*
D02*
G37*
%LPC*%
G36*
X152450Y644500D02*
X150500D01*
Y642551D01*
X150976Y642645D01*
X151802Y643198D01*
X152355Y644025D01*
X152450Y644500D01*
D02*
G37*
G36*
X172450D02*
X170500D01*
Y642551D01*
X170975Y642645D01*
X171802Y643198D01*
X172355Y644025D01*
X172450Y644500D01*
D02*
G37*
G36*
X169500D02*
X167551D01*
X167645Y644025D01*
X168198Y643198D01*
X169025Y642645D01*
X169500Y642551D01*
Y644500D01*
D02*
G37*
G36*
X102450D02*
X100500D01*
Y642551D01*
X100976Y642645D01*
X101802Y643198D01*
X102355Y644025D01*
X102450Y644500D01*
D02*
G37*
G36*
X82450D02*
X80500D01*
Y642551D01*
X80976Y642645D01*
X81802Y643198D01*
X82355Y644025D01*
X82450Y644500D01*
D02*
G37*
G36*
X119500D02*
X117551D01*
X117645Y644025D01*
X118198Y643198D01*
X119025Y642645D01*
X119500Y642551D01*
Y644500D01*
D02*
G37*
G36*
X149500D02*
X147550D01*
X147645Y644025D01*
X148198Y643198D01*
X149024Y642645D01*
X149500Y642551D01*
Y644500D01*
D02*
G37*
G36*
X122450D02*
X120500D01*
Y642551D01*
X120975Y642645D01*
X121802Y643198D01*
X122355Y644025D01*
X122450Y644500D01*
D02*
G37*
G36*
X189500D02*
X187550D01*
X187645Y644025D01*
X188198Y643198D01*
X189024Y642645D01*
X189500Y642551D01*
Y644500D01*
D02*
G37*
G36*
X279500D02*
X277551D01*
X277645Y644025D01*
X278198Y643198D01*
X279025Y642645D01*
X279500Y642551D01*
Y644500D01*
D02*
G37*
G36*
X262450D02*
X260500D01*
Y642551D01*
X260976Y642645D01*
X261802Y643198D01*
X262355Y644025D01*
X262450Y644500D01*
D02*
G37*
G36*
X282450D02*
X280500D01*
Y642551D01*
X280976Y642645D01*
X281802Y643198D01*
X282355Y644025D01*
X282450Y644500D01*
D02*
G37*
G36*
X302449D02*
X300500D01*
Y642551D01*
X300975Y642645D01*
X301802Y643198D01*
X302355Y644025D01*
X302449Y644500D01*
D02*
G37*
G36*
X299500D02*
X297551D01*
X297645Y644025D01*
X298198Y643198D01*
X299025Y642645D01*
X299500Y642551D01*
Y644500D01*
D02*
G37*
G36*
X259500D02*
X257551D01*
X257645Y644025D01*
X258198Y643198D01*
X259025Y642645D01*
X259500Y642551D01*
Y644500D01*
D02*
G37*
G36*
X209500D02*
X207551D01*
X207645Y644025D01*
X208198Y643198D01*
X209025Y642645D01*
X209500Y642551D01*
Y644500D01*
D02*
G37*
G36*
X192449D02*
X190500D01*
Y642551D01*
X190975Y642645D01*
X191802Y643198D01*
X192355Y644025D01*
X192449Y644500D01*
D02*
G37*
G36*
X212450D02*
X210500D01*
Y642551D01*
X210976Y642645D01*
X211802Y643198D01*
X212355Y644025D01*
X212450Y644500D01*
D02*
G37*
G36*
X242449D02*
X240500D01*
Y642551D01*
X240975Y642645D01*
X241802Y643198D01*
X242355Y644025D01*
X242449Y644500D01*
D02*
G37*
G36*
X239500D02*
X237550D01*
X237645Y644025D01*
X238198Y643198D01*
X239024Y642645D01*
X239500Y642551D01*
Y644500D01*
D02*
G37*
G36*
X15500Y312000D02*
X10020D01*
X10087Y311324D01*
X10430Y310193D01*
X10987Y309151D01*
X11737Y308237D01*
X12650Y307487D01*
X13693Y306930D01*
X14824Y306587D01*
X15500Y306520D01*
Y312000D01*
D02*
G37*
G36*
X116000Y640809D02*
X112547D01*
Y637750D01*
X116000D01*
Y640809D01*
D02*
G37*
G36*
X10250Y640000D02*
X7585D01*
Y637532D01*
X10250D01*
Y640000D01*
D02*
G37*
G36*
X166000Y640809D02*
X162547D01*
Y637750D01*
X166000D01*
Y640809D01*
D02*
G37*
G36*
X276000D02*
X272547D01*
Y637750D01*
X276000D01*
Y640809D01*
D02*
G37*
G36*
X256000D02*
X252547D01*
Y637750D01*
X256000D01*
Y640809D01*
D02*
G37*
G36*
X304500Y639915D02*
Y637250D01*
X306968D01*
Y639915D01*
X304500D01*
D02*
G37*
G36*
X4800Y449600D02*
X1251D01*
Y448600D01*
X1445Y447624D01*
X1998Y446798D01*
X2825Y446245D01*
X3800Y446051D01*
X4800D01*
Y449600D01*
D02*
G37*
G36*
Y454149D02*
X3800D01*
X2825Y453955D01*
X1998Y453402D01*
X1445Y452575D01*
X1251Y451600D01*
Y450600D01*
X4800D01*
Y454149D01*
D02*
G37*
G36*
Y404149D02*
X3800D01*
X2825Y403955D01*
X1998Y403402D01*
X1445Y402575D01*
X1251Y401600D01*
Y400600D01*
X4800D01*
Y404149D01*
D02*
G37*
G36*
X214500Y639915D02*
Y637250D01*
X216968D01*
Y639915D01*
X214500D01*
D02*
G37*
G36*
X4800Y399600D02*
X1251D01*
Y398600D01*
X1445Y397624D01*
X1998Y396798D01*
X2825Y396245D01*
X3800Y396051D01*
X4800D01*
Y399600D01*
D02*
G37*
G36*
X10250Y643469D02*
X7585D01*
Y641000D01*
X10250D01*
Y643469D01*
D02*
G37*
G36*
X353500Y312000D02*
X348020D01*
X348087Y311324D01*
X348430Y310193D01*
X348987Y309151D01*
X349737Y308237D01*
X350651Y307487D01*
X351693Y306930D01*
X352824Y306587D01*
X353500Y306520D01*
Y312000D01*
D02*
G37*
G36*
X59500Y644500D02*
X57551D01*
X57645Y644025D01*
X58198Y643198D01*
X59025Y642645D01*
X59500Y642551D01*
Y644500D01*
D02*
G37*
G36*
X21980Y312000D02*
X16500D01*
Y306520D01*
X17176Y306587D01*
X18307Y306930D01*
X19350Y307487D01*
X20263Y308237D01*
X21013Y309151D01*
X21570Y310193D01*
X21913Y311324D01*
X21980Y312000D01*
D02*
G37*
G36*
X62450Y644500D02*
X60500D01*
Y642551D01*
X60975Y642645D01*
X61802Y643198D01*
X62355Y644025D01*
X62450Y644500D01*
D02*
G37*
G36*
X359980Y312000D02*
X354500D01*
Y306520D01*
X355176Y306587D01*
X356307Y306930D01*
X357349Y307487D01*
X358263Y308237D01*
X359013Y309151D01*
X359570Y310193D01*
X359913Y311324D01*
X359980Y312000D01*
D02*
G37*
G36*
X354500Y318480D02*
Y313000D01*
X359980D01*
X359913Y313676D01*
X359570Y314807D01*
X359013Y315849D01*
X358263Y316763D01*
X357349Y317513D01*
X356307Y318070D01*
X355176Y318413D01*
X354500Y318480D01*
D02*
G37*
G36*
X296000Y640809D02*
X292547D01*
Y637750D01*
X296000D01*
Y640809D01*
D02*
G37*
G36*
X353500Y318480D02*
X352824Y318413D01*
X351693Y318070D01*
X350651Y317513D01*
X349737Y316763D01*
X348987Y315849D01*
X348430Y314807D01*
X348087Y313676D01*
X348020Y313000D01*
X353500D01*
Y318480D01*
D02*
G37*
G36*
X15500D02*
X14824Y318413D01*
X13693Y318070D01*
X12650Y317513D01*
X11737Y316763D01*
X10987Y315849D01*
X10430Y314807D01*
X10087Y313676D01*
X10020Y313000D01*
X15500D01*
Y318480D01*
D02*
G37*
G36*
X16500D02*
Y313000D01*
X21980D01*
X21913Y313676D01*
X21570Y314807D01*
X21013Y315849D01*
X20263Y316763D01*
X19350Y317513D01*
X18307Y318070D01*
X17176Y318413D01*
X16500Y318480D01*
D02*
G37*
G36*
X185650Y715700D02*
X183700D01*
Y713751D01*
X184176Y713845D01*
X185002Y714398D01*
X185555Y715225D01*
X185650Y715700D01*
D02*
G37*
G36*
X331964Y714750D02*
X329000D01*
Y711786D01*
X329414Y711840D01*
X330265Y712193D01*
X330996Y712754D01*
X331557Y713485D01*
X331910Y714336D01*
X331964Y714750D01*
D02*
G37*
G36*
X328000D02*
X325036D01*
X325090Y714336D01*
X325443Y713485D01*
X326004Y712754D01*
X326735Y712193D01*
X327586Y711840D01*
X328000Y711786D01*
Y714750D01*
D02*
G37*
G36*
Y718714D02*
X327586Y718660D01*
X326735Y718307D01*
X326004Y717746D01*
X325443Y717015D01*
X325090Y716164D01*
X325036Y715750D01*
X328000D01*
Y718714D01*
D02*
G37*
G36*
X67500Y726500D02*
X63457D01*
Y722850D01*
X67500D01*
Y726500D01*
D02*
G37*
G36*
X356464Y752500D02*
X343536D01*
X341768Y751768D01*
X333232Y743232D01*
X332500Y741465D01*
Y728536D01*
X333232Y726768D01*
X341768Y718232D01*
X343536Y717500D01*
X356464D01*
X358232Y718232D01*
X366768Y726768D01*
X367500Y728536D01*
Y741465D01*
X366768Y743232D01*
X358232Y751768D01*
X356464Y752500D01*
D02*
G37*
G36*
X329000Y718714D02*
Y715750D01*
X331964D01*
X331910Y716164D01*
X331557Y717015D01*
X330996Y717746D01*
X330265Y718307D01*
X329414Y718660D01*
X329000Y718714D01*
D02*
G37*
G36*
X192200Y705949D02*
X191725Y705855D01*
X190898Y705302D01*
X190345Y704475D01*
X190251Y704000D01*
X192200D01*
Y705949D01*
D02*
G37*
G36*
X181484D02*
Y704000D01*
X183434D01*
X183339Y704475D01*
X182787Y705302D01*
X181960Y705855D01*
X181484Y705949D01*
D02*
G37*
G36*
X180484D02*
X180009Y705855D01*
X179182Y705302D01*
X178629Y704475D01*
X178535Y704000D01*
X180484D01*
Y705949D01*
D02*
G37*
G36*
X332000Y709750D02*
X327000D01*
Y706000D01*
X332000D01*
Y709750D01*
D02*
G37*
G36*
X170000Y708049D02*
Y706100D01*
X171950D01*
X171855Y706575D01*
X171302Y707402D01*
X170475Y707955D01*
X170000Y708049D01*
D02*
G37*
G36*
X169000D02*
X168525Y707955D01*
X167698Y707402D01*
X167145Y706575D01*
X167051Y706100D01*
X169000D01*
Y708049D01*
D02*
G37*
G36*
X338000Y709750D02*
X333000D01*
Y706000D01*
X338000D01*
Y709750D01*
D02*
G37*
G36*
X226000Y745500D02*
X222500D01*
Y738750D01*
X226000D01*
Y745500D01*
D02*
G37*
G36*
X221500D02*
X218000D01*
Y738750D01*
X221500D01*
Y745500D01*
D02*
G37*
G36*
X89500Y729950D02*
Y728000D01*
X91449D01*
X91355Y728476D01*
X90802Y729302D01*
X89976Y729855D01*
X89500Y729950D01*
D02*
G37*
G36*
X233000Y742500D02*
X231050D01*
X231145Y742025D01*
X231698Y741198D01*
X232524Y740645D01*
X233000Y740551D01*
Y742500D01*
D02*
G37*
G36*
X234000Y745449D02*
Y743500D01*
X235949D01*
X235855Y743975D01*
X235302Y744802D01*
X234475Y745355D01*
X234000Y745449D01*
D02*
G37*
G36*
X233000D02*
X232524Y745355D01*
X231698Y744802D01*
X231145Y743975D01*
X231050Y743500D01*
X233000D01*
Y745449D01*
D02*
G37*
G36*
X235949Y742500D02*
X234000D01*
Y740551D01*
X234475Y740645D01*
X235302Y741198D01*
X235855Y742025D01*
X235949Y742500D01*
D02*
G37*
G36*
X88500Y727000D02*
X86550D01*
X86645Y726524D01*
X87198Y725698D01*
X88024Y725145D01*
X88500Y725050D01*
Y727000D01*
D02*
G37*
G36*
X117750Y726000D02*
X114450D01*
Y723700D01*
X117750D01*
Y726000D01*
D02*
G37*
G36*
X72543Y726500D02*
X68500D01*
Y722850D01*
X72543D01*
Y726500D01*
D02*
G37*
G36*
X91449Y727000D02*
X89500D01*
Y725050D01*
X89976Y725145D01*
X90802Y725698D01*
X91355Y726524D01*
X91449Y727000D01*
D02*
G37*
G36*
X88500Y729950D02*
X88024Y729855D01*
X87198Y729302D01*
X86645Y728476D01*
X86550Y728000D01*
X88500D01*
Y729950D01*
D02*
G37*
G36*
X72543Y731150D02*
X68500D01*
Y727500D01*
X72543D01*
Y731150D01*
D02*
G37*
G36*
X67500D02*
X63457D01*
Y727500D01*
X67500D01*
Y731150D01*
D02*
G37*
G36*
X171950Y705100D02*
X170000D01*
Y703151D01*
X170475Y703245D01*
X171302Y703798D01*
X171855Y704625D01*
X171950Y705100D01*
D02*
G37*
G36*
X240500Y647449D02*
Y645500D01*
X242449D01*
X242355Y645975D01*
X241802Y646802D01*
X240975Y647355D01*
X240500Y647449D01*
D02*
G37*
G36*
X239500D02*
X239024Y647355D01*
X238198Y646802D01*
X237645Y645975D01*
X237550Y645500D01*
X239500D01*
Y647449D01*
D02*
G37*
G36*
X170500D02*
Y645500D01*
X172450D01*
X172355Y645975D01*
X171802Y646802D01*
X170975Y647355D01*
X170500Y647449D01*
D02*
G37*
G36*
X259500D02*
X259025Y647355D01*
X258198Y646802D01*
X257645Y645975D01*
X257551Y645500D01*
X259500D01*
Y647449D01*
D02*
G37*
G36*
X280500D02*
Y645500D01*
X282450D01*
X282355Y645975D01*
X281802Y646802D01*
X280976Y647355D01*
X280500Y647449D01*
D02*
G37*
G36*
X279500D02*
X279025Y647355D01*
X278198Y646802D01*
X277645Y645975D01*
X277551Y645500D01*
X279500D01*
Y647449D01*
D02*
G37*
G36*
X260500D02*
Y645500D01*
X262450D01*
X262355Y645975D01*
X261802Y646802D01*
X260976Y647355D01*
X260500Y647449D01*
D02*
G37*
G36*
X119500D02*
X119025Y647355D01*
X118198Y646802D01*
X117645Y645975D01*
X117551Y645500D01*
X119500D01*
Y647449D01*
D02*
G37*
G36*
X60500D02*
Y645500D01*
X62450D01*
X62355Y645975D01*
X61802Y646802D01*
X60975Y647355D01*
X60500Y647449D01*
D02*
G37*
G36*
X59500D02*
X59025Y647355D01*
X58198Y646802D01*
X57645Y645975D01*
X57551Y645500D01*
X59500D01*
Y647449D01*
D02*
G37*
G36*
X120500D02*
Y645500D01*
X122450D01*
X122355Y645975D01*
X121802Y646802D01*
X120975Y647355D01*
X120500Y647449D01*
D02*
G37*
G36*
X169500D02*
X169025Y647355D01*
X168198Y646802D01*
X167645Y645975D01*
X167551Y645500D01*
X169500D01*
Y647449D01*
D02*
G37*
G36*
X150500D02*
Y645500D01*
X152450D01*
X152355Y645975D01*
X151802Y646802D01*
X150976Y647355D01*
X150500Y647449D01*
D02*
G37*
G36*
X149500D02*
X149024Y647355D01*
X148198Y646802D01*
X147645Y645975D01*
X147550Y645500D01*
X149500D01*
Y647449D01*
D02*
G37*
G36*
X17200Y695900D02*
X9450D01*
Y692900D01*
X17200D01*
Y695900D01*
D02*
G37*
G36*
X178300Y692600D02*
X176350D01*
X176445Y692125D01*
X176998Y691298D01*
X177824Y690745D01*
X178300Y690651D01*
Y692600D01*
D02*
G37*
G36*
X37500Y690700D02*
X19400D01*
Y682100D01*
X37500D01*
Y690700D01*
D02*
G37*
G36*
X9450Y699900D02*
Y696900D01*
X17200D01*
Y699900D01*
X9450D01*
D02*
G37*
G36*
X169000Y705100D02*
X167051D01*
X167145Y704625D01*
X167698Y703798D01*
X168525Y703245D01*
X169000Y703151D01*
Y705100D01*
D02*
G37*
G36*
X183434Y703000D02*
X181484D01*
Y701051D01*
X181960Y701145D01*
X182787Y701698D01*
X183339Y702525D01*
X183434Y703000D01*
D02*
G37*
G36*
X180484D02*
X178535D01*
X178629Y702525D01*
X179182Y701698D01*
X180009Y701145D01*
X180484Y701051D01*
Y703000D01*
D02*
G37*
G36*
X11500Y657500D02*
X7850D01*
Y653457D01*
X11500D01*
Y657500D01*
D02*
G37*
G36*
X300500Y647449D02*
Y645500D01*
X302449D01*
X302355Y645975D01*
X301802Y646802D01*
X300975Y647355D01*
X300500Y647449D01*
D02*
G37*
G36*
X299500D02*
X299025Y647355D01*
X298198Y646802D01*
X297645Y645975D01*
X297551Y645500D01*
X299500D01*
Y647449D01*
D02*
G37*
G36*
X16150Y657500D02*
X12500D01*
Y653457D01*
X16150D01*
Y657500D01*
D02*
G37*
G36*
X87500Y680949D02*
X87024Y680855D01*
X86198Y680302D01*
X85645Y679475D01*
X85550Y679000D01*
X87500D01*
Y680949D01*
D02*
G37*
G36*
X16150Y662543D02*
X12500D01*
Y658500D01*
X16150D01*
Y662543D01*
D02*
G37*
G36*
X11500D02*
X7850D01*
Y658500D01*
X11500D01*
Y662543D01*
D02*
G37*
%LPD*%
G54D10*
X372500Y675500D02*
D03*
Y705500D02*
D03*
X332500Y665500D02*
D03*
Y675500D02*
D03*
Y695500D02*
D03*
Y705500D02*
D03*
G54D11*
X364000Y542000D02*
D03*
X354000D02*
D03*
Y507000D02*
D03*
X344000Y542000D02*
D03*
X374000D02*
D03*
X344000Y507000D02*
D03*
X374000D02*
D03*
X364000D02*
D03*
Y490000D02*
D03*
X354000D02*
D03*
Y455000D02*
D03*
X344000Y490000D02*
D03*
X374000D02*
D03*
X344000Y455000D02*
D03*
X374000D02*
D03*
X364000D02*
D03*
G54D12*
X355500Y603750D02*
D03*
Y611250D02*
D03*
X346500D02*
D03*
Y603750D02*
D03*
X364500Y611250D02*
D03*
Y603750D02*
D03*
X369000Y592750D02*
D03*
Y585250D02*
D03*
X342000Y592750D02*
D03*
Y585250D02*
D03*
X324000Y592750D02*
D03*
Y585250D02*
D03*
X360000Y592750D02*
D03*
Y585250D02*
D03*
X328500Y611250D02*
D03*
Y603750D02*
D03*
X351000Y585250D02*
D03*
X337500Y603750D02*
D03*
X333000Y585250D02*
D03*
X57000Y685250D02*
D03*
Y677750D02*
D03*
X56500Y710750D02*
D03*
Y703250D02*
D03*
Y629750D02*
D03*
Y637250D02*
D03*
X76500Y629750D02*
D03*
Y637250D02*
D03*
X96500Y629750D02*
D03*
Y637250D02*
D03*
X116500Y629750D02*
D03*
Y637250D02*
D03*
X236500Y629750D02*
D03*
Y637250D02*
D03*
X256500Y629750D02*
D03*
Y637250D02*
D03*
X276500Y629750D02*
D03*
Y637250D02*
D03*
X296500Y629750D02*
D03*
Y637250D02*
D03*
X146500Y629750D02*
D03*
Y637250D02*
D03*
X166500Y629750D02*
D03*
Y637250D02*
D03*
X186500Y629750D02*
D03*
Y637250D02*
D03*
X206500Y629750D02*
D03*
Y637250D02*
D03*
X333000Y592750D02*
D03*
X337500Y611250D02*
D03*
X351000Y592750D02*
D03*
X55500Y730250D02*
D03*
Y737750D02*
D03*
X147500Y433550D02*
D03*
Y441050D02*
D03*
X319500Y611250D02*
D03*
Y603750D02*
D03*
G54D13*
X350250Y637000D02*
D03*
X370750D02*
D03*
G54D14*
X222000Y738250D02*
D03*
Y717750D02*
D03*
G54D15*
X118250Y733500D02*
D03*
X126750Y730000D02*
D03*
X118250Y726500D02*
D03*
G54D16*
X12000Y658000D02*
D03*
X23000D02*
D03*
X209500Y49900D02*
D03*
X220500D02*
D03*
X189500D02*
D03*
X200500D02*
D03*
X169500D02*
D03*
X180500D02*
D03*
X149500D02*
D03*
X160500D02*
D03*
X129500D02*
D03*
X140500D02*
D03*
X109500D02*
D03*
X120500D02*
D03*
X89500D02*
D03*
X100500D02*
D03*
X69500D02*
D03*
X80500D02*
D03*
X229500D02*
D03*
X240500D02*
D03*
X249500D02*
D03*
X260500D02*
D03*
X269500D02*
D03*
X280500D02*
D03*
X289500D02*
D03*
X300500D02*
D03*
G54D17*
X125000Y433750D02*
D03*
Y416250D02*
D03*
X110000Y433750D02*
D03*
Y416250D02*
D03*
X95000Y433750D02*
D03*
Y416250D02*
D03*
X80000Y433750D02*
D03*
Y416250D02*
D03*
X65000Y433750D02*
D03*
Y416250D02*
D03*
X50000Y433750D02*
D03*
Y416250D02*
D03*
X255000D02*
D03*
Y433750D02*
D03*
X240000D02*
D03*
Y416250D02*
D03*
X315000D02*
D03*
Y433750D02*
D03*
X300000Y416250D02*
D03*
Y433750D02*
D03*
X285000Y416250D02*
D03*
Y433750D02*
D03*
X270000D02*
D03*
Y416250D02*
D03*
G54D18*
X145750Y730000D02*
D03*
X216750Y442000D02*
D03*
X210250D02*
D03*
X146750Y622500D02*
D03*
X153250D02*
D03*
X166750D02*
D03*
X173250D02*
D03*
X186750D02*
D03*
X193250D02*
D03*
X206750D02*
D03*
X213250D02*
D03*
X236750D02*
D03*
X243250D02*
D03*
X256750D02*
D03*
X263250D02*
D03*
X276750D02*
D03*
X283250D02*
D03*
X296750D02*
D03*
X303250D02*
D03*
X56750D02*
D03*
X63250D02*
D03*
X76750D02*
D03*
X83250D02*
D03*
X96750D02*
D03*
X103250D02*
D03*
X116750D02*
D03*
X123250D02*
D03*
X119750Y682500D02*
D03*
X126250D02*
D03*
X124250Y697700D02*
D03*
X130750D02*
D03*
X124250Y705200D02*
D03*
X130750D02*
D03*
X10750Y640500D02*
D03*
X17250D02*
D03*
X139250Y730000D02*
D03*
X54750Y751000D02*
D03*
X48250D02*
D03*
Y757000D02*
D03*
X54750D02*
D03*
X124250Y720200D02*
D03*
X130750D02*
D03*
X124250Y712700D02*
D03*
X130750D02*
D03*
G54D19*
X206250Y560000D02*
D03*
X213750D02*
D03*
X186250D02*
D03*
X193750D02*
D03*
X166250D02*
D03*
X173750D02*
D03*
X146250D02*
D03*
X153750D02*
D03*
X303750D02*
D03*
X296250D02*
D03*
X283750D02*
D03*
X276250D02*
D03*
X263750D02*
D03*
X256250D02*
D03*
X243750D02*
D03*
X236250D02*
D03*
X123750D02*
D03*
X116250D02*
D03*
X103750D02*
D03*
X96250D02*
D03*
X83750D02*
D03*
X76250D02*
D03*
X63750D02*
D03*
X56250D02*
D03*
X157550Y440300D02*
D03*
X165050D02*
D03*
X174750Y441000D02*
D03*
X182250D02*
D03*
G54D20*
X370000Y755000D02*
D03*
X0D02*
D03*
X370000Y0D02*
D03*
X0Y0D02*
D03*
X168000Y203000D02*
D03*
X178000D02*
D03*
X188000D02*
D03*
X208000D02*
D03*
X146700Y385500D02*
D03*
X44000Y746000D02*
D03*
X323000Y690000D02*
D03*
X365000Y653000D02*
D03*
X360500Y645500D02*
D03*
X355500Y657000D02*
D03*
X374000Y567500D02*
D03*
X363500Y690000D02*
D03*
X371000Y498500D02*
D03*
X365000Y530000D02*
D03*
X357500Y530500D02*
D03*
X352000Y523000D02*
D03*
X347000Y555500D02*
D03*
X344000Y480000D02*
D03*
X364500Y518000D02*
D03*
X373500Y468500D02*
D03*
X328500Y715250D02*
D03*
X360500Y469500D02*
D03*
X350500D02*
D03*
X4700Y577700D02*
D03*
X188100Y358200D02*
D03*
Y332500D02*
D03*
X192200Y318800D02*
D03*
X86100Y14550D02*
D03*
X106100D02*
D03*
X126100D02*
D03*
X146100D02*
D03*
X166100Y14500D02*
D03*
X186100Y14550D02*
D03*
X206100Y14500D02*
D03*
X226100Y14550D02*
D03*
X246100Y14500D02*
D03*
X266100Y14550D02*
D03*
X286100Y14500D02*
D03*
X26800Y577700D02*
D03*
X-2000Y604500D02*
D03*
X33200Y645900D02*
D03*
X237800Y691500D02*
D03*
X68500Y447200D02*
D03*
X76500D02*
D03*
X46500D02*
D03*
X106500D02*
D03*
X98500D02*
D03*
X128500D02*
D03*
X330000Y442500D02*
D03*
X318500Y447200D02*
D03*
X288500D02*
D03*
X296500D02*
D03*
X236500D02*
D03*
X266500D02*
D03*
X258500D02*
D03*
X2000Y667500D02*
D03*
X-2000Y658500D02*
D03*
X23900Y387200D02*
D03*
X333700Y412000D02*
D03*
X355500Y436800D02*
D03*
X134900Y636900D02*
D03*
X134600Y663300D02*
D03*
X66300Y14000D02*
D03*
G54D21*
X68500Y674500D02*
D03*
Y685500D02*
D03*
Y700000D02*
D03*
Y711000D02*
D03*
X68000Y727000D02*
D03*
Y738000D02*
D03*
X139800Y203300D02*
D03*
Y214300D02*
D03*
G54D22*
X64000Y636750D02*
D03*
Y630250D02*
D03*
X84000Y636750D02*
D03*
Y630250D02*
D03*
X104000Y636750D02*
D03*
Y630250D02*
D03*
X124000Y636750D02*
D03*
Y630250D02*
D03*
X244000Y636750D02*
D03*
Y630250D02*
D03*
X264000Y636750D02*
D03*
Y630250D02*
D03*
X284000Y636750D02*
D03*
Y630250D02*
D03*
X304000Y636750D02*
D03*
Y630250D02*
D03*
X154000Y636750D02*
D03*
Y630250D02*
D03*
X174000Y636750D02*
D03*
Y630250D02*
D03*
X194000Y636750D02*
D03*
Y630250D02*
D03*
X214000Y636750D02*
D03*
Y630250D02*
D03*
G54D23*
X307700Y707900D02*
D03*
X317700D02*
D03*
X307700Y740400D02*
D03*
X317700D02*
D03*
X287700Y707900D02*
D03*
Y740400D02*
D03*
X297700Y707900D02*
D03*
Y740400D02*
D03*
X257700D02*
D03*
Y707900D02*
D03*
X247700Y740400D02*
D03*
Y707900D02*
D03*
X277700Y740400D02*
D03*
X267700D02*
D03*
X277700Y707900D02*
D03*
X267700D02*
D03*
G54D24*
X156457Y427798D02*
D03*
X158425D02*
D03*
X160394D02*
D03*
X162362D02*
D03*
X164331D02*
D03*
X166299D02*
D03*
X168268D02*
D03*
X170236D02*
D03*
X172205D02*
D03*
X174173D02*
D03*
X176142D02*
D03*
X178110D02*
D03*
X180079D02*
D03*
X182047D02*
D03*
X184016D02*
D03*
X185984D02*
D03*
X187953D02*
D03*
X189921D02*
D03*
X191890D02*
D03*
X193858D02*
D03*
X195827D02*
D03*
X197795D02*
D03*
X199764D02*
D03*
X201732D02*
D03*
X203701D02*
D03*
X205669D02*
D03*
X207638D02*
D03*
X209606D02*
D03*
X211575D02*
D03*
X213543D02*
D03*
G54D25*
X221024Y415002D02*
D03*
X148976D02*
D03*
G54D26*
X165236Y724350D02*
D03*
X167205D02*
D03*
X169173D02*
D03*
X171142D02*
D03*
X173110D02*
D03*
X175079D02*
D03*
X177047D02*
D03*
X179016D02*
D03*
X180984D02*
D03*
X182953D02*
D03*
X184921D02*
D03*
X186890D02*
D03*
X188858D02*
D03*
X190827D02*
D03*
X192795D02*
D03*
X194764D02*
D03*
Y680650D02*
D03*
X192795D02*
D03*
X190827D02*
D03*
X188858D02*
D03*
X186890D02*
D03*
X184921D02*
D03*
X182953D02*
D03*
X180984D02*
D03*
X179016D02*
D03*
X177047D02*
D03*
X175079D02*
D03*
X173110D02*
D03*
X171142D02*
D03*
X169173D02*
D03*
X167205D02*
D03*
X165236D02*
D03*
G54D27*
X201850Y717264D02*
D03*
Y715295D02*
D03*
Y713327D02*
D03*
Y711358D02*
D03*
Y709390D02*
D03*
Y707421D02*
D03*
Y705453D02*
D03*
Y703484D02*
D03*
Y701516D02*
D03*
Y699547D02*
D03*
Y697579D02*
D03*
Y695610D02*
D03*
Y693642D02*
D03*
Y691673D02*
D03*
Y689705D02*
D03*
Y687736D02*
D03*
X158150D02*
D03*
Y689705D02*
D03*
Y691673D02*
D03*
Y693642D02*
D03*
Y695610D02*
D03*
Y697579D02*
D03*
Y699547D02*
D03*
Y701516D02*
D03*
Y703484D02*
D03*
Y705453D02*
D03*
Y707421D02*
D03*
Y709390D02*
D03*
Y711358D02*
D03*
Y713327D02*
D03*
Y715295D02*
D03*
Y717264D02*
D03*
G54D28*
X28450Y696400D02*
D03*
Y706400D02*
D03*
Y676400D02*
D03*
Y686400D02*
D03*
X8950Y696400D02*
D03*
Y706400D02*
D03*
Y676400D02*
D03*
Y686400D02*
D03*
G54D29*
X107000Y203300D02*
D03*
X124000D02*
D03*
G54D30*
X283250Y211400D02*
D03*
X250750D02*
D03*
G54D31*
X57000Y213100D02*
D03*
Y193100D02*
D03*
X23000Y213100D02*
D03*
Y193100D02*
D03*
G54D32*
X216700Y649900D02*
X224500Y642100D01*
X195800Y649900D02*
X216700D01*
X193800Y651900D02*
X195800Y649900D01*
X179016Y671622D02*
X199137Y651500D01*
X226100D01*
X184921Y667979D02*
X199800Y653100D01*
X244500D01*
X186890Y668348D02*
X200537Y654700D01*
X262000D01*
X188858Y668642D02*
X201200Y656300D01*
X283100D01*
X179016Y671622D02*
Y680650D01*
X226100Y651500D02*
X230800Y646800D01*
X244500Y653100D02*
X249100Y648500D01*
X177047Y657353D02*
Y680650D01*
X182500Y651900D02*
X193800D01*
X177047Y657353D02*
X182500Y651900D01*
X199600Y631900D02*
Y642600D01*
X175079Y656421D02*
Y680650D01*
X192100Y650100D02*
X199600Y642600D01*
X181400Y650100D02*
X192100D01*
X175079Y656421D02*
X181400Y650100D01*
X184921Y667979D02*
Y680650D01*
X186890Y668348D02*
Y680650D01*
X188858Y668642D02*
Y680650D01*
X179600Y632300D02*
Y648800D01*
X173110Y655290D02*
X179600Y648800D01*
X173110Y655290D02*
Y680650D01*
X247700Y730900D02*
Y740400D01*
X297700Y730900D02*
Y740400D01*
X257700Y730900D02*
Y740400D01*
X287700Y730900D02*
Y740400D01*
X267700Y730900D02*
Y740400D01*
X277700Y730900D02*
Y740400D01*
X317700Y730900D02*
Y740400D01*
X307700Y730900D02*
Y740400D01*
X54750Y756000D02*
X55750Y757000D01*
X82000D02*
X84000Y755000D01*
X55750Y757000D02*
X82000D01*
X224500Y616700D02*
Y642100D01*
X179000Y680634D02*
X179016Y680650D01*
X215550Y438200D02*
X216750Y439400D01*
Y442000D01*
X139250Y721850D02*
X143836Y717264D01*
X139250Y721850D02*
Y730000D01*
X158900Y631800D02*
Y686986D01*
X161200Y629500D02*
X166750D01*
X158150Y687736D02*
X158900Y686986D01*
X141100Y630800D02*
Y680600D01*
X150205Y689705D02*
X158150D01*
X141100Y680600D02*
X150205Y689705D01*
X126750Y730000D02*
X139250D01*
X143836Y717264D02*
X158150D01*
X98100Y719600D02*
X112000Y733500D01*
X187953Y427798D02*
Y447147D01*
Y427000D02*
Y427798D01*
X112000Y733500D02*
X118250D01*
X166299Y418999D02*
Y427798D01*
X165300Y418000D02*
X166299Y418999D01*
X170200Y417500D02*
X172205Y419505D01*
X178110Y418410D02*
Y427798D01*
X178000Y418300D02*
X178110Y418410D01*
X211575Y427798D02*
Y432675D01*
Y426798D02*
Y427798D01*
Y432675D02*
X213500Y434600D01*
X215200D01*
X212700Y438200D02*
X215550D01*
X209606Y435106D02*
X212700Y438200D01*
X209606Y427798D02*
Y435106D01*
Y417594D02*
Y427798D01*
X207638D02*
Y439388D01*
Y426798D02*
Y427798D01*
Y439388D02*
X210250Y442000D01*
X162362Y427798D02*
Y429838D01*
Y426798D02*
Y427798D01*
X147500Y433550D02*
X149100Y431950D01*
X161837D01*
X162362Y431425D01*
Y427798D02*
Y431425D01*
X164331Y427798D02*
Y431719D01*
Y426798D02*
Y427798D01*
X153100Y436100D02*
X155650Y433550D01*
X162500D02*
X164331Y431719D01*
X155650Y433550D02*
X162500D01*
X153100Y436100D02*
Y438500D01*
X150550Y441050D02*
X153100Y438500D01*
X147500Y441050D02*
X150550D01*
X157350Y438300D02*
X160500Y435150D01*
X157300Y438300D02*
X157350D01*
X160500Y435150D02*
X164287D01*
X168268Y427798D02*
Y431170D01*
Y426798D02*
Y427798D01*
X164287Y435150D02*
X168268Y431170D01*
X176142Y427798D02*
Y434458D01*
Y427798D02*
Y430742D01*
Y426798D02*
Y427798D01*
X175900Y434700D02*
X176142Y434458D01*
X174173Y427798D02*
Y430027D01*
Y426798D02*
Y427798D01*
X170800Y435100D02*
X174173Y431727D01*
Y427798D02*
Y431727D01*
X170236Y427798D02*
Y431464D01*
Y426798D02*
Y427798D01*
X166050Y435650D02*
X170236Y431464D01*
X98100Y670400D02*
Y719600D01*
X94257Y666557D02*
X98100Y670400D01*
X60462Y666557D02*
X94257D01*
X42043Y648138D02*
X60462Y666557D01*
X42043Y611837D02*
Y648138D01*
X14600Y478105D02*
X36463Y456243D01*
X178857D01*
X187953Y447147D01*
X37125Y457843D02*
X179606D01*
X37788Y459443D02*
X180269D01*
X38451Y461043D02*
X180932D01*
X39114Y462643D02*
X181595D01*
X39800Y464300D02*
X182200D01*
X189921Y427000D02*
Y447528D01*
X191890Y427000D02*
Y447822D01*
X193858Y427000D02*
Y448116D01*
X195827Y427000D02*
Y448411D01*
X197795Y427000D02*
Y448705D01*
X182200Y464300D02*
X197795Y448705D01*
X181595Y462643D02*
X195827Y448411D01*
X180932Y461043D02*
X193858Y448116D01*
X180269Y459443D02*
X191890Y447822D01*
X179606Y457843D02*
X189921Y447528D01*
X22657Y481443D02*
X39800Y464300D01*
X21000Y480756D02*
X39114Y462643D01*
X19400Y480093D02*
X38451Y461043D01*
X17800Y479431D02*
X37788Y459443D01*
X16200Y478768D02*
X37125Y457843D01*
X63250Y622500D02*
X65000Y620750D01*
Y605000D02*
Y620750D01*
X56750Y622500D02*
Y629500D01*
X56500Y629750D02*
X56750Y629500D01*
X57000Y630250D02*
X64000D01*
X56500Y629750D02*
X57000Y630250D01*
X77000D02*
X84000D01*
X76750Y622500D02*
Y629500D01*
X85000Y605000D02*
Y620750D01*
X97000Y630250D02*
X104000D01*
X96750Y622500D02*
Y629500D01*
X105000Y605000D02*
Y620750D01*
X117000Y630250D02*
X124000D01*
X116750Y622500D02*
Y629500D01*
X125000Y605000D02*
Y620750D01*
X147000Y630250D02*
X154000D01*
X146750Y622500D02*
Y629500D01*
X155000Y605000D02*
Y620750D01*
X167000Y630250D02*
X174000D01*
X166750Y622500D02*
Y629500D01*
X175000Y605000D02*
Y620750D01*
X187000Y630250D02*
X194000D01*
X186750Y622500D02*
Y629500D01*
X195000Y605000D02*
Y620750D01*
X207000Y630250D02*
X214000D01*
X206750Y622500D02*
Y629500D01*
X215000Y605000D02*
Y620750D01*
X237000Y630250D02*
X244000D01*
X236750Y622500D02*
Y629500D01*
X245000Y605000D02*
Y620750D01*
X257000Y630250D02*
X264000D01*
X256750Y622500D02*
Y629500D01*
X265000Y605000D02*
Y620750D01*
X277000Y630250D02*
X284000D01*
X276750Y622500D02*
Y629500D01*
X285000Y605000D02*
Y620750D01*
X297000Y630250D02*
X304000D01*
X296750Y622500D02*
Y629500D01*
X305000Y605000D02*
Y620750D01*
X64000Y630250D02*
X67650D01*
X84000D02*
X86850D01*
X89600Y633000D01*
X104000Y630250D02*
X108050D01*
X109400Y631600D01*
X124000Y630250D02*
X126150D01*
X128200Y632300D01*
X142150Y629750D02*
X146500D01*
X141100Y630800D02*
X142150Y629750D01*
X158900Y631800D02*
X161200Y629500D01*
X182150Y629750D02*
X186500D01*
X179600Y632300D02*
X182150Y629750D01*
X199600Y631900D02*
X201750Y629750D01*
X206500D01*
X233350D02*
X236500D01*
X230800Y632300D02*
X233350Y629750D01*
X249100Y632000D02*
X251350Y629750D01*
X256500D01*
X271650D02*
X276500D01*
X269400Y632000D02*
X271650Y629750D01*
X289400Y632100D02*
X291750Y629750D01*
X296500D01*
X283100Y656300D02*
X289400Y650000D01*
X283100Y656300D02*
X283100Y656300D01*
X289400Y632100D02*
Y650000D01*
X262000Y654700D02*
X269400Y647300D01*
Y632000D02*
Y647300D01*
X249100Y632000D02*
Y648500D01*
X230800Y632300D02*
Y646800D01*
X128200Y632300D02*
Y669963D01*
X149910Y691673D01*
X158150D01*
X109400Y631600D02*
Y653426D01*
X149616Y693642D02*
X158150D01*
X109400Y653426D02*
X149616Y693642D01*
X149322Y695610D02*
X158150D01*
X103100Y654000D02*
X107712D01*
X89600Y640500D02*
X103100Y654000D01*
X89600Y633000D02*
Y640500D01*
X107712Y654000D02*
X149322Y695610D01*
X84600Y655600D02*
X107049D01*
X69600Y640600D02*
X84600Y655600D01*
X69600Y632200D02*
Y640600D01*
X107049Y655600D02*
X149028Y697579D01*
X67650Y630250D02*
X69600Y632200D01*
X149028Y697579D02*
X158150D01*
X257700Y730900D02*
X257800Y730800D01*
X267700Y730900D02*
X267800Y730800D01*
X277700Y730900D02*
X277800Y730800D01*
X287700Y730900D02*
X287800Y730800D01*
X307700Y730900D02*
X307800Y730800D01*
X317700Y730900D02*
X317800Y730800D01*
X257700Y740400D02*
Y747100D01*
X256200Y748600D02*
X257700Y747100D01*
X213100Y748600D02*
X256200D01*
X194764Y724350D02*
Y730264D01*
X213100Y748600D01*
X192795Y724350D02*
Y730558D01*
X212437Y750200D01*
X267700Y740400D02*
Y746400D01*
X263900Y750200D02*
X267700Y746400D01*
X212437Y750200D02*
X263900D01*
X277700Y740400D02*
Y746200D01*
X190827Y730852D02*
X211774Y751800D01*
X190827Y724350D02*
Y730852D01*
X211774Y751800D02*
X272100D01*
X277700Y746200D01*
X188858Y724350D02*
Y731146D01*
X211112Y753400D01*
X287700Y740400D02*
Y745900D01*
X280200Y753400D02*
X287700Y745900D01*
X211112Y753400D02*
X280200D01*
X297700Y740400D02*
Y746600D01*
X210449Y755000D02*
X289300D01*
X297700Y746600D01*
X186890Y724350D02*
Y731441D01*
X210449Y755000D01*
X184921Y724350D02*
Y731735D01*
X209786Y756600D02*
X297500D01*
X307400Y746700D01*
Y740700D02*
Y746700D01*
Y740700D02*
X307700Y740400D01*
X184921Y731735D02*
X209786Y756600D01*
X182953Y724350D02*
Y732029D01*
X209124Y758200D01*
X306500D02*
X317800Y746900D01*
Y740500D02*
Y746900D01*
X317700Y740400D02*
X317800Y740500D01*
X209124Y758200D02*
X306500D01*
X247700Y730900D02*
X247800Y730800D01*
X46843Y609849D02*
Y646149D01*
X45243Y610512D02*
Y646812D01*
X43643Y611175D02*
Y647475D01*
X48443Y645486D02*
X63113Y660157D01*
X46843Y646149D02*
X62451Y661757D01*
X45243Y646812D02*
X61788Y663357D01*
X43643Y647475D02*
X61125Y664957D01*
X62451Y661757D02*
X102395D01*
X161900Y674000D02*
X165236Y677336D01*
X167205Y673005D02*
Y680650D01*
X166400Y672200D02*
X167205Y673005D01*
X147403Y703484D02*
X158150D01*
X126250Y682500D02*
X126418D01*
X147403Y703484D01*
X50100Y608500D02*
Y644800D01*
X62500Y657200D01*
X106386D02*
X119800Y670614D01*
X62500Y657200D02*
X106386D01*
X119800Y670614D02*
Y676900D01*
Y677300D01*
X119750Y676950D02*
Y682500D01*
X157972Y711180D02*
X158150Y711358D01*
X157972Y713149D02*
X158150Y713327D01*
X157972Y715473D02*
X158150Y715295D01*
X131377Y713327D02*
X158150D01*
X130750Y712700D02*
X131377Y713327D01*
X137805Y715295D02*
X158150D01*
X131050Y719900D02*
X133200D01*
X130750Y720200D02*
X131050Y719900D01*
X133200D02*
X137805Y715295D01*
X124050Y712900D02*
X124250Y712700D01*
X63113Y660157D02*
X103057D01*
X117800Y705200D02*
X124250D01*
X61788Y663357D02*
X101457D01*
X103200Y671100D02*
Y697500D01*
X117900Y698000D02*
X123950D01*
X124250Y697700D01*
X61125Y664957D02*
X97057D01*
X103200Y671100D01*
X112600Y712700D02*
X124250D01*
X112600Y669700D02*
Y712700D01*
X103057Y660157D02*
X112600Y669700D01*
X101457Y663357D02*
X106700Y668600D01*
Y705000D01*
X109500Y720000D02*
X109700Y720200D01*
X109500Y668863D02*
Y720000D01*
X102395Y661757D02*
X109500Y668863D01*
X109700Y720200D02*
X124250D01*
X172205Y419505D02*
Y426798D01*
X148500Y439250D02*
X149350D01*
X166050Y435650D02*
Y438500D01*
X180079Y426798D02*
Y434521D01*
X175900Y438700D02*
X180079Y434521D01*
X182047Y426798D02*
Y438297D01*
X182250Y438500D01*
X184016Y421384D02*
Y426798D01*
Y421384D02*
X184200Y421200D01*
X205669Y420269D02*
Y426798D01*
X205600Y420200D02*
X205669Y420269D01*
X203500Y439100D02*
X203701Y438899D01*
Y426798D02*
Y438899D01*
X209606Y417594D02*
X212810Y414390D01*
X-100Y686400D02*
X8950D01*
X-2000Y671500D02*
X2000Y667500D01*
X-2000Y671500D02*
Y684500D01*
X-100Y686400D01*
X22657Y481443D02*
Y581057D01*
X50100Y608500D01*
X21000Y480756D02*
Y581744D01*
X48443Y609187D01*
Y645486D01*
X19400Y480093D02*
Y582407D01*
X46843Y609849D01*
X17800Y479431D02*
Y583069D01*
X45243Y610512D01*
X16200Y478768D02*
Y583732D01*
X43643Y611175D01*
X14600Y478105D02*
Y584395D01*
X42043Y611837D01*
X130750Y697700D02*
X135537D01*
X132000Y691900D02*
X145553Y705453D01*
X158150D01*
X135537Y697700D02*
X145258Y707421D01*
X158150D01*
X130750Y705200D02*
X133100D01*
X139258Y711358D01*
X158150D01*
X201850Y717264D02*
Y720550D01*
X209300Y728000D01*
X244800D01*
X247700Y730900D01*
G54D33*
X190827Y669077D02*
X201904Y658000D01*
X298900D01*
X192795Y669655D02*
X202650Y659800D01*
X299690D01*
X194764Y670231D02*
X203395Y661600D01*
X300435D01*
X201850Y670450D02*
X208900Y663400D01*
X301181D01*
X206700Y668600D02*
X210100Y665200D01*
X301926D01*
X208500Y669800D02*
X211300Y667000D01*
X219600D01*
X219600Y667000D01*
X302672D01*
X210300Y671500D02*
X213000Y668800D01*
X303418D01*
X212100Y673400D02*
X214900Y670600D01*
X304163D01*
X224600Y675200D02*
X227400Y672400D01*
X304909D01*
X223700Y684700D02*
X234200Y674200D01*
X305654D01*
X225800Y685600D02*
X235400Y676000D01*
X306400D01*
X298900Y658000D02*
X311000Y645900D01*
X304909Y672400D02*
X325400Y651909D01*
X305654Y674200D02*
X327200Y652654D01*
X306400Y676000D02*
X329000Y653400D01*
X190827Y669077D02*
Y680650D01*
X192795Y669655D02*
Y680650D01*
X194764Y670231D02*
Y680650D01*
X171142Y654854D02*
Y680650D01*
Y654854D02*
X173400Y652596D01*
Y648400D02*
Y652596D01*
X181000Y703484D02*
X201850D01*
X201772Y711436D02*
X201850Y711358D01*
X198115Y711436D02*
X201772D01*
X198051Y711500D02*
X198115Y711436D01*
X212500Y716500D02*
Y720500D01*
X209327Y713327D02*
X212500Y716500D01*
X201850Y713327D02*
X209327D01*
X44000Y746000D02*
X48250Y750250D01*
Y751000D01*
X44000Y745000D02*
Y746000D01*
X48250Y751000D02*
Y757000D01*
X173110Y724350D02*
Y729110D01*
X181000Y737000D01*
Y741000D01*
X171142Y724350D02*
Y732142D01*
X176000Y737000D01*
X364500Y530500D02*
X365000Y530000D01*
X364000Y542000D02*
X364500Y541500D01*
Y530500D02*
Y541500D01*
X369000Y592750D02*
Y616500D01*
X354500Y631000D02*
X369000Y616500D01*
X343000Y631000D02*
X354500D01*
X331100Y642900D02*
X343000Y631000D01*
X331100Y642900D02*
Y654226D01*
X342000Y629000D02*
X351000D01*
X329000Y642000D02*
X342000Y629000D01*
X329000Y642000D02*
Y653400D01*
X341000Y627000D02*
X349500D01*
X327200Y640800D02*
X341000Y627000D01*
X327200Y640800D02*
Y652654D01*
X340000Y625000D02*
X347000D01*
X325400Y639600D02*
X340000Y625000D01*
X325400Y639600D02*
Y651909D01*
X323600Y638400D02*
X339000Y623000D01*
X323600Y638400D02*
Y651163D01*
X339000Y623000D02*
X345500D01*
X338500Y620500D02*
X344000D01*
X321800Y637200D02*
X338500Y620500D01*
X321800Y637200D02*
Y650418D01*
X337500Y618000D02*
X341000D01*
X320000Y635500D02*
X337500Y618000D01*
X320000Y635500D02*
Y649672D01*
X337500Y611250D02*
Y614500D01*
X318200Y633800D02*
X337500Y614500D01*
X318200Y633800D02*
Y648926D01*
X342000Y592750D02*
Y617000D01*
X341000Y618000D02*
X342000Y617000D01*
X346500Y611250D02*
Y618000D01*
X344000Y620500D02*
X346500Y618000D01*
X351000Y592750D02*
Y617500D01*
X345500Y623000D02*
X351000Y617500D01*
X347000Y625000D02*
X355500Y616500D01*
X349500Y627000D02*
X360000Y616500D01*
X351000Y629000D02*
X364500Y615500D01*
X355500Y611250D02*
Y616500D01*
X360000Y592750D02*
Y616500D01*
X364500Y611250D02*
Y615500D01*
X333000Y592750D02*
Y616000D01*
X316400Y632600D02*
X333000Y616000D01*
X316400Y632600D02*
Y648181D01*
X328500Y611250D02*
Y616000D01*
X314600Y629900D02*
X328500Y616000D01*
X314600Y629900D02*
Y647435D01*
X324000Y592750D02*
Y616000D01*
X312800Y627200D02*
X324000Y616000D01*
X312800Y627200D02*
Y646690D01*
X319500Y611250D02*
Y615500D01*
X311000Y624000D02*
X319500Y615500D01*
X311000Y624000D02*
Y645900D01*
X328500Y566309D02*
Y603750D01*
X319500Y562400D02*
Y603750D01*
X337500Y610750D02*
Y611250D01*
X201850Y670450D02*
Y687736D01*
X110400Y726000D02*
X110900Y726500D01*
X118250D01*
X74100Y553600D02*
X310700D01*
X163100Y413600D02*
X195700D01*
X159300Y417400D02*
X163100Y413600D01*
X160394Y418494D02*
Y424100D01*
X159300Y417400D02*
X160394Y418494D01*
Y424100D02*
Y426798D01*
Y421994D02*
Y424100D01*
X195700Y413600D02*
X200900Y418800D01*
X151377Y421523D02*
X157377D01*
X148700Y424200D02*
X151377Y421523D01*
X50000Y529500D02*
X74100Y553600D01*
X92300Y551800D02*
X311446D01*
X70000Y529500D02*
X92300Y551800D01*
X100000Y529500D02*
X120500Y550000D01*
X312191D01*
X120000Y529500D02*
X138700Y548200D01*
X300000D02*
X312937D01*
X293400D02*
X300000D01*
X166900Y546400D02*
X313682D01*
X150000Y529500D02*
X166900Y546400D01*
X185100Y544600D02*
X314428D01*
X170000Y529500D02*
X185100Y544600D01*
X200000Y529500D02*
X213300Y542800D01*
X315174D01*
X231500Y541000D02*
X315919D01*
X220000Y529500D02*
X231500Y541000D01*
X259700Y539200D02*
X316665D01*
X250000Y529500D02*
X259700Y539200D01*
X277900Y537400D02*
X317410D01*
X270000Y529500D02*
X277900Y537400D01*
X320000Y534899D02*
X369000Y583899D01*
Y585250D01*
X320000Y529500D02*
Y534899D01*
X318156Y535600D02*
X364500Y581944D01*
X300000Y529500D02*
Y533600D01*
X302000Y535600D01*
X318156D01*
X364500Y581944D02*
Y603750D01*
X320000Y529500D02*
Y532100D01*
X317410Y537400D02*
X360000Y579990D01*
Y585250D01*
X316665Y539200D02*
X355500Y578035D01*
Y603750D01*
X315919Y541000D02*
X351000Y576081D01*
Y585250D01*
X315174Y542800D02*
X346500Y574126D01*
Y603750D01*
X314428Y544600D02*
X342000Y572172D01*
Y585250D01*
X313682Y546400D02*
X337500Y570218D01*
Y603250D01*
X312937Y548200D02*
X333000Y568263D01*
Y585250D01*
X312191Y550000D02*
X328500Y566309D01*
X311446Y551800D02*
X324000Y564354D01*
Y585250D01*
X310700Y553600D02*
X319500Y562400D01*
X299690Y659800D02*
X312800Y646690D01*
X300435Y661600D02*
X314600Y647435D01*
X301181Y663400D02*
X316400Y648181D01*
X301926Y665200D02*
X318200Y648926D01*
X302672Y667000D02*
X320000Y649672D01*
X303418Y668800D02*
X321800Y650418D01*
X304163Y670600D02*
X323600Y651163D01*
X169173Y680650D02*
Y698327D01*
X56500Y637250D02*
X57000Y636750D01*
X64000D01*
X56500Y637250D02*
Y641500D01*
X60000Y645000D01*
X76500Y641500D02*
X80000Y645000D01*
X76500Y637250D02*
Y641500D01*
X77000Y636750D02*
X84000D01*
X76500Y637250D02*
X77000Y636750D01*
X96500Y641500D02*
X100000Y645000D01*
X96500Y637250D02*
Y641500D01*
X97000Y636750D02*
X104000D01*
X96500Y637250D02*
X97000Y636750D01*
X116500Y641500D02*
X120000Y645000D01*
X116500Y637250D02*
Y641500D01*
X117000Y636750D02*
X124000D01*
X116500Y637250D02*
X117000Y636750D01*
X146500Y641500D02*
X150000Y645000D01*
X146500Y637250D02*
Y641500D01*
X147000Y636750D02*
X154000D01*
X146500Y637250D02*
X147000Y636750D01*
X166500Y641500D02*
X170000Y645000D01*
X166500Y637250D02*
Y641500D01*
X167000Y636750D02*
X174000D01*
X166500Y637250D02*
X167000Y636750D01*
X186500Y641500D02*
X190000Y645000D01*
X186500Y637250D02*
Y641500D01*
X187000Y636750D02*
X194000D01*
X186500Y637250D02*
X187000Y636750D01*
X206500Y641500D02*
X210000Y645000D01*
X206500Y637250D02*
Y641500D01*
X207000Y636750D02*
X214000D01*
X206500Y637250D02*
X207000Y636750D01*
X236500Y641500D02*
X240000Y645000D01*
X236500Y637250D02*
Y641500D01*
X237000Y636750D02*
X244000D01*
X236500Y637250D02*
X237000Y636750D01*
X256500Y641500D02*
X260000Y645000D01*
X256500Y637250D02*
Y641500D01*
X257000Y636750D02*
X264000D01*
X256500Y637250D02*
X257000Y636750D01*
X276500Y641500D02*
X280000Y645000D01*
X276500Y637250D02*
Y641500D01*
X277000Y636750D02*
X284000D01*
X276500Y637250D02*
X277000Y636750D01*
X296500Y641500D02*
X300000Y645000D01*
X296500Y637250D02*
Y641500D01*
X297000Y636750D02*
X304000D01*
X296500Y637250D02*
X297000Y636750D01*
X307226Y678100D02*
X331100Y654226D01*
X171142Y680650D02*
Y690342D01*
X180984Y680650D02*
Y689716D01*
X180000Y690700D02*
X180984Y689716D01*
X171142Y690342D02*
X171500Y690700D01*
X158150Y699547D02*
X167953D01*
X169173Y698327D01*
X182953Y680650D02*
Y697526D01*
X172016Y701516D02*
X173984Y703484D01*
X179016Y719016D02*
Y724350D01*
X176400Y716400D02*
X179016Y719016D01*
X171500Y690700D02*
X178800D01*
X180000D01*
X178800D02*
Y693100D01*
X169173Y680650D02*
X169200Y680623D01*
Y651600D02*
Y680623D01*
X170000Y645000D02*
X173400Y648400D01*
X166100Y688400D02*
X169073D01*
X169252Y697579D02*
X175100D01*
X150453Y699547D02*
X158150D01*
X149300Y700700D02*
X150453Y699547D01*
X148600Y700700D02*
X149300D01*
X158150Y701516D02*
X165416D01*
X169500Y705600D01*
X165416Y701516D02*
X172016D01*
X180984Y703500D02*
Y717000D01*
Y724350D01*
Y717000D02*
X182400D01*
X183200Y716200D01*
X119750Y676950D02*
X119800Y676900D01*
X158425Y422571D02*
Y426798D01*
X157377Y421523D02*
X158425Y422571D01*
X184800Y432400D02*
X185984Y431216D01*
X199764Y419936D02*
Y426798D01*
Y419936D02*
X200900Y418800D01*
X201732Y419632D02*
Y426798D01*
X200900Y418800D02*
X201732Y419632D01*
X185984Y426798D02*
Y427798D01*
Y431216D01*
X138700Y548200D02*
X300000D01*
X44000Y745000D02*
X45500D01*
X196716Y701516D02*
X201850D01*
X193100Y697900D02*
X196716Y701516D01*
X197279Y697579D02*
X201850D01*
X196500Y693700D02*
Y696800D01*
X195200Y692400D02*
X196500Y693700D01*
X189400Y692400D02*
X195200D01*
X188300Y693500D02*
X189400Y692400D01*
X196500Y696800D02*
X197279Y697579D01*
X193100Y696500D02*
Y697900D01*
X158300Y723600D02*
X165600Y716300D01*
Y710800D02*
Y716300D01*
X164190Y709390D02*
X165600Y710800D01*
X158150Y709390D02*
X164190D01*
X201850Y715295D02*
X206595D01*
X207600Y716300D01*
Y722300D01*
X209500Y724200D01*
X214600D01*
X217200Y721600D01*
X173984Y703484D02*
X180984D01*
X146300Y723400D02*
Y730000D01*
X175100Y697579D02*
X188300D01*
Y693500D02*
Y697579D01*
X201850Y689705D02*
X205795D01*
X201850Y691673D02*
X206727D01*
X201850Y693642D02*
X201928Y693564D01*
X207382D01*
X201850Y695610D02*
X208390D01*
X217200Y711400D02*
Y721600D01*
Y711400D02*
X218600Y710000D01*
X210410Y709390D02*
X214500Y705300D01*
X201850Y709390D02*
X210410D01*
X209479Y707421D02*
X213700Y703200D01*
X201850Y707421D02*
X209479D01*
X208647Y705453D02*
X212700Y701400D01*
X201850Y705453D02*
X208647D01*
X212700Y701400D02*
X216600D01*
X218200Y699800D01*
X213700Y703200D02*
X217600D01*
X220000Y700800D01*
X214500Y705300D02*
X218400D01*
X222200Y701500D01*
X218600Y710000D02*
X220000D01*
X227900Y702100D01*
Y701600D02*
Y702100D01*
X212100Y673400D02*
Y691900D01*
X208390Y695610D02*
X212100Y691900D01*
X207382Y693564D02*
X210300Y690646D01*
X206727Y691673D02*
X208500Y689900D01*
X205795Y689705D02*
X206700Y688800D01*
Y668600D02*
Y688800D01*
X208500Y669800D02*
Y689900D01*
X210300Y671500D02*
Y690646D01*
X222200Y699200D02*
Y701500D01*
Y699200D02*
X227700Y693700D01*
Y686600D02*
Y693700D01*
Y686600D02*
X236200Y678100D01*
X307226D01*
X218200Y697900D02*
Y699800D01*
X220000Y698646D02*
Y700800D01*
Y698646D02*
X225800Y692846D01*
Y685600D02*
Y692846D01*
X218200Y697900D02*
X223700Y692400D01*
Y684700D02*
Y692400D01*
X201850Y699547D02*
X211953D01*
X218400Y693100D01*
Y687900D02*
Y693100D01*
X218300Y687800D02*
X218400Y687900D01*
G54D34*
X54800Y390500D02*
Y395900D01*
X50000Y400700D02*
X54800Y395900D01*
X50000Y400700D02*
Y416250D01*
X69800Y390500D02*
Y395900D01*
X65000Y400700D02*
X69800Y395900D01*
X65000Y400700D02*
Y416250D01*
X84800Y390500D02*
Y395900D01*
X80000Y400700D02*
X84800Y395900D01*
X80000Y400700D02*
Y416250D01*
X99500Y390400D02*
Y395800D01*
X94700Y400600D02*
X99500Y395800D01*
X94700Y400600D02*
Y416150D01*
X114800Y390500D02*
Y395900D01*
X110000Y400700D02*
X114800Y395900D01*
X110000Y400700D02*
Y416250D01*
X125000Y400700D02*
Y416250D01*
Y400700D02*
X129800Y395900D01*
Y390500D02*
Y395900D01*
X332200Y191800D02*
X348100Y207700D01*
X236400Y191800D02*
X332200D01*
X225200Y203000D02*
X236400Y191800D01*
X41273Y177373D02*
X57000Y193100D01*
X41273Y157700D02*
Y177373D01*
X325700Y72700D02*
X337400Y84400D01*
Y143300D01*
X318100Y72700D02*
X325700D01*
X300500Y55100D02*
X318100Y72700D01*
X280500Y71500D02*
X305800Y96800D01*
X280500Y49900D02*
Y71500D01*
X260500Y68300D02*
X278200Y86000D01*
X260500Y49900D02*
Y68300D01*
X240500Y49900D02*
Y90600D01*
X246900Y97000D01*
X214900Y124400D02*
X220500Y118800D01*
Y49900D02*
Y118800D01*
X201100Y96800D02*
X206000Y91900D01*
Y65000D02*
Y91900D01*
X200500Y59500D02*
X206000Y65000D01*
X200500Y49900D02*
Y59500D01*
X173600Y72000D02*
Y143700D01*
Y72000D02*
X180500Y65100D01*
Y49900D02*
Y65100D01*
X144800Y82400D02*
Y93500D01*
Y82400D02*
X160500Y66700D01*
Y49900D02*
Y66700D01*
X113300Y87600D02*
X140500Y60400D01*
Y49900D02*
Y60400D01*
X82200Y96800D02*
X120500Y58500D01*
Y49900D02*
Y58500D01*
X51700Y82900D02*
X65800Y68800D01*
X94500D01*
X100500Y62800D01*
Y49900D02*
Y62800D01*
X19000Y96800D02*
X26000Y89800D01*
Y64100D02*
Y89800D01*
Y64100D02*
X30100Y60000D01*
X77700D01*
X80500Y57200D01*
Y49900D02*
Y57200D01*
X348100Y207700D02*
X368500D01*
X32300Y141200D02*
X35800Y137700D01*
X32300Y154327D02*
X35673Y157700D01*
X35800Y137700D02*
X41273D01*
X32300Y141200D02*
Y154327D01*
X35673Y157700D02*
X41273D01*
X195209Y106800D02*
Y157700D01*
X225909D01*
X164364D02*
X195209D01*
X256754Y106800D02*
Y157700D01*
X287455D01*
X225909D02*
X256754D01*
X318300Y106800D02*
Y157400D01*
X287455Y157700D02*
X349000D01*
X102818D02*
X164364D01*
X257700Y707900D02*
X267700D01*
X247700D02*
X257700D01*
X287700D02*
X297700D01*
X267700D02*
X277700D01*
X287700D01*
X297700D02*
X307700D01*
X317700D01*
X11500Y658500D02*
X12000Y658000D01*
X-2000Y658500D02*
X11500D01*
X23000Y656100D02*
X32000Y647100D01*
X33200Y645900D01*
X23000Y656100D02*
Y658000D01*
X-2000Y604500D02*
X-1800Y604300D01*
X222000Y717750D02*
X237850D01*
X247700Y707900D01*
X323000Y690000D02*
Y694500D01*
X350250Y651750D02*
X355500Y657000D01*
X376000Y580000D02*
Y631500D01*
X352000Y556000D02*
X376000Y580000D01*
X347500Y556000D02*
X352000D01*
X374000Y542000D02*
Y567500D01*
X367000Y675500D02*
X372500D01*
X363500Y679000D02*
X367000Y675500D01*
X363500Y679000D02*
Y690000D01*
X354000Y514500D02*
Y521000D01*
Y507000D02*
Y514500D01*
X352000Y523000D02*
X354000Y521000D01*
X347000Y555500D02*
X347500Y556000D01*
X375500Y632000D02*
X376000Y631500D01*
X375500Y632000D02*
Y632250D01*
X370750Y637000D02*
X375500Y632250D01*
X350250Y646250D02*
Y651750D01*
Y637000D02*
Y646250D01*
X332500Y664000D02*
X350250Y646250D01*
X370750Y637000D02*
X372500Y638750D01*
Y675500D01*
X332500Y665500D02*
Y675500D01*
Y664000D02*
Y665500D01*
X324000Y695500D02*
X332500D01*
X323000Y694500D02*
X324000Y695500D01*
X332500Y705500D02*
Y711250D01*
X328500Y715250D02*
X332500Y711250D01*
X26800Y577700D02*
X46500Y597400D01*
X4700Y577700D02*
Y625800D01*
X300000Y370000D02*
X315000D01*
X285000D02*
X300000D01*
X270000D02*
X285000D01*
X255000D02*
X270000D01*
X240000D02*
X255000D01*
X114800Y370500D02*
X129800D01*
X99800D02*
X114800D01*
X84800D02*
X99800D01*
X69800D02*
X84800D01*
X54800D02*
X69800D01*
X237800Y702200D02*
X243100Y707500D01*
X237800Y691500D02*
Y702200D01*
X243100Y707500D02*
X247300D01*
X175000Y30850D02*
Y36200D01*
X215000Y30850D02*
Y35750D01*
X195000Y30900D02*
Y35800D01*
X235000Y30900D02*
Y35500D01*
X255000Y30850D02*
Y35600D01*
X275000Y30900D02*
Y37000D01*
X60000Y519000D02*
X80000D01*
X37500D02*
X60000D01*
Y529500D01*
X80000Y519000D02*
X110500D01*
X80000D02*
Y529500D01*
X110000Y519500D02*
X110500Y519000D01*
X160000D02*
Y529500D01*
Y519000D02*
X180000D01*
Y529500D01*
Y519000D02*
X210500D01*
X210000Y519500D02*
X210500Y519000D01*
X229500D01*
X210000Y519500D02*
Y529500D01*
X229500Y519000D02*
X230000Y519500D01*
X229500Y519000D02*
X260000D01*
X230000Y519500D02*
Y529500D01*
X260000Y519000D02*
Y529500D01*
Y519000D02*
X279500D01*
X280000Y519500D01*
X279500Y519000D02*
X310500D01*
X280000Y519500D02*
Y529500D01*
X310000Y519500D02*
X310500Y519000D01*
X330000D01*
X310000Y519500D02*
Y529500D01*
X330000Y519000D02*
Y529500D01*
X26800Y529700D02*
Y577700D01*
Y529700D02*
X37500Y519000D01*
X309600Y507800D02*
X310000Y507400D01*
X309600Y507800D02*
X327600D01*
X279900D02*
X309600D01*
X310000Y499500D02*
Y507400D01*
X279900Y507800D02*
X280000Y507700D01*
X259800Y507800D02*
X279900D01*
X280000Y499500D02*
Y507700D01*
X259800Y507800D02*
X260000Y507600D01*
X229400Y507800D02*
X259800D01*
X260000Y499500D02*
Y507600D01*
X229400Y507800D02*
X230000Y507200D01*
X209600Y507800D02*
X229400D01*
X230000Y499500D02*
Y507200D01*
X179900Y507800D02*
X209600D01*
X210000Y507400D01*
Y499500D02*
Y507400D01*
X79900Y507800D02*
X80000Y507700D01*
X179900Y507800D02*
X180000Y507700D01*
X79900Y507800D02*
X109800D01*
X160000D02*
X179900D01*
X65294D02*
X79900D01*
X180000Y499500D02*
Y507700D01*
X129600Y507800D02*
X160000D01*
Y499500D02*
Y507800D01*
X129600D02*
X130000Y507400D01*
X109800Y507800D02*
X129600D01*
X130000Y499500D02*
Y507400D01*
X109800Y507800D02*
X110000Y507600D01*
Y499500D02*
Y507600D01*
X80000Y499500D02*
Y507700D01*
X60000Y499500D02*
Y502506D01*
X65294Y507800D01*
X327600D02*
X330000Y505400D01*
Y499500D02*
Y505400D01*
X309900Y499400D02*
X310000Y499500D01*
X260500Y41100D02*
Y49900D01*
X255000Y35600D02*
X260500Y41100D01*
X240500Y41000D02*
Y49900D01*
X235000Y35500D02*
X240500Y41000D01*
X175000Y36200D02*
X180500Y41700D01*
Y49900D01*
X195000Y35800D02*
X200500Y41300D01*
Y49900D01*
X215000Y35750D02*
X220500Y41250D01*
Y49900D01*
X275000Y37000D02*
X280500Y42500D01*
Y49900D01*
X295000Y30850D02*
X300500Y36350D01*
Y49900D01*
X65000Y575000D02*
Y579000D01*
X305000Y575000D02*
Y579300D01*
X301700Y582600D02*
X305000Y579300D01*
X65000Y579000D02*
X68600Y582600D01*
X285200D02*
X301700D01*
X215500D02*
X245000D01*
X195000D02*
X215500D01*
X104900D02*
X155500D01*
X195000D01*
X245000D02*
X285200D01*
X68600D02*
X85300D01*
X104900D01*
X204500Y597400D02*
X274700D01*
X291400D01*
X165000D02*
X204500D01*
X144500D02*
X165000D01*
X115000D02*
X144500D01*
X291400D02*
X295000Y601000D01*
Y605000D01*
X4700Y625800D02*
X11100Y632200D01*
X247300Y707500D02*
X247700Y707900D01*
X19500Y632200D02*
X27800Y640500D01*
X33200Y645900D01*
X11100Y632200D02*
X19500D01*
X330000Y442500D02*
Y499500D01*
X240000Y390000D02*
Y416250D01*
X255000Y390000D02*
Y416250D01*
X270000Y390000D02*
Y416250D01*
X285000Y390000D02*
Y416250D01*
X300000Y390000D02*
Y416250D01*
X315000Y390000D02*
Y416250D01*
X55000Y597400D02*
Y605000D01*
X46500Y597400D02*
X55000D01*
X74800D01*
X115000D01*
X38500Y356000D02*
X52000Y342500D01*
X57500Y349500D02*
X308500D01*
X330000Y371000D01*
X52000Y342500D02*
X314000D01*
X130000Y519000D02*
Y529500D01*
X110000Y519500D02*
Y529500D01*
X110500Y519000D02*
X130000D01*
X160000D01*
X4700Y349300D02*
X11500Y342500D01*
X16000D01*
X-1800Y307300D02*
X6500Y299000D01*
X34500Y372500D02*
X57500Y349500D01*
X16000Y372500D02*
X34500D01*
X314000Y342500D02*
X327500Y356000D01*
X353000D01*
X330000Y371000D02*
X352500D01*
X354000Y372500D01*
X14500Y356000D02*
X38500D01*
X13500Y394600D02*
Y457200D01*
X4700Y466000D02*
X13500Y457200D01*
X4700Y466000D02*
Y577700D01*
Y349300D02*
Y385800D01*
X13500Y394600D01*
X5300Y400100D02*
Y450100D01*
X-1800Y393000D02*
X5300Y400100D01*
X-1800Y457200D02*
X5300Y450100D01*
X-1800Y307300D02*
Y393000D01*
Y457200D02*
Y604300D01*
X25300Y400100D02*
Y450100D01*
X6500Y299000D02*
X16000D01*
X-1800Y604300D02*
Y658000D01*
X4973Y106927D02*
X10573D01*
X1600Y90427D02*
Y103555D01*
X5100Y86927D02*
X10573D01*
X1600Y103555D02*
X4973Y106927D01*
X1600Y90427D02*
X5100Y86927D01*
X66518Y106927D02*
X72118D01*
X63145Y90427D02*
Y103555D01*
X66645Y86927D02*
X72118D01*
X63145Y103555D02*
X66518Y106927D01*
X63145Y90427D02*
X66645Y86927D01*
X128064Y106927D02*
X133664D01*
X124691Y90427D02*
Y103555D01*
X128191Y86927D02*
X133664D01*
X124691Y103555D02*
X128064Y106927D01*
X124691Y90427D02*
X128191Y86927D01*
X189609Y106927D02*
X195209D01*
X186236Y90427D02*
Y103555D01*
X189736Y86927D02*
X195209D01*
X186236Y103555D02*
X189609Y106927D01*
X186236Y90427D02*
X189736Y86927D01*
X257009Y86673D02*
X262609D01*
X265982Y90045D02*
Y103173D01*
X257009Y106673D02*
X262482D01*
X262609Y86673D02*
X265982Y90045D01*
X262482Y106673D02*
X265982Y103173D01*
X318554Y86673D02*
X324154D01*
X327527Y90045D02*
Y103173D01*
X318554Y106673D02*
X324027D01*
X324154Y86673D02*
X327527Y90045D01*
X324027Y106673D02*
X327527Y103173D01*
X354473Y157700D02*
X357973Y154200D01*
X354600Y137700D02*
X357973Y141073D01*
Y154200D01*
X349000Y137700D02*
X354600D01*
X96800D02*
X102818D01*
X93000Y141500D02*
X96800Y137700D01*
X93000Y141500D02*
Y157700D01*
X41273D02*
X93000D01*
X154418Y141627D02*
Y157300D01*
Y141627D02*
X158218Y137827D01*
X164236D01*
X93000Y157700D02*
X102818D01*
X225909Y137700D02*
X231927D01*
X235727Y141500D01*
Y157173D01*
X287455Y137700D02*
X293473D01*
X297273Y141500D01*
Y157173D01*
X10700Y106800D02*
X34900D01*
X41273Y113173D01*
Y137700D01*
X102818Y113173D02*
Y137700D01*
X96445Y106800D02*
X102818Y113173D01*
X72245Y106800D02*
X96445D01*
X164364Y113173D02*
Y137700D01*
X157991Y106800D02*
X164364Y113173D01*
X133791Y106800D02*
X157991D01*
X76732Y28400D02*
Y38932D01*
X80300Y42500D01*
Y49700D01*
X80500Y49900D01*
X10700Y96800D02*
X19000D01*
X96417Y28400D02*
Y38017D01*
X100500Y42100D01*
Y49900D01*
X100500Y49900D01*
X48600Y147300D02*
X51700Y144200D01*
X41673Y147300D02*
X48600D01*
X41273Y147700D02*
X41673Y147300D01*
X116103Y28400D02*
Y36332D01*
X120500Y40730D01*
Y49900D01*
X135787Y28400D02*
Y36220D01*
X140368Y40800D02*
Y49768D01*
X140500Y49900D01*
X110100Y147600D02*
X113300Y144400D01*
X102918Y147600D02*
X110100D01*
X102818Y147700D02*
X102918Y147600D01*
X135787Y36220D02*
X140368Y40800D01*
X155473Y28400D02*
Y36105D01*
X141700Y96600D02*
X144800Y93500D01*
X133791Y96800D02*
X133991Y96600D01*
X141700D01*
X164364Y147700D02*
X169600D01*
X173600Y143700D01*
X195336Y96800D02*
X201100D01*
X214900Y124400D02*
Y143900D01*
X218700Y147700D01*
X225909D01*
X278200Y143400D02*
X282500Y147700D01*
X287455D01*
X305800Y96800D02*
X318427D01*
X337400Y143300D02*
X341800Y147700D01*
X349000D01*
X51700Y82900D02*
Y144200D01*
X113300Y87600D02*
Y144400D01*
X155473Y36105D02*
X160568Y41200D01*
X72245Y96800D02*
X82200D01*
X160568Y41200D02*
Y49832D01*
X160500Y49900D02*
X160568Y49832D01*
X246900Y97000D02*
X254800D01*
X278200Y86000D02*
Y143400D01*
X300500Y49900D02*
Y55100D01*
X500Y210400D02*
Y262900D01*
X5200Y267600D01*
X15900D01*
X16000Y267500D01*
X124000Y203300D02*
X139800D01*
X167700D01*
X168000Y203000D01*
X139800Y214300D02*
X184800D01*
X188000Y211100D01*
Y203000D02*
Y211100D01*
X191300Y214400D01*
X247750D01*
X250750Y211400D01*
X139000Y213500D02*
X139800Y214300D01*
X100200Y196500D02*
X107000Y203300D01*
X68695Y213500D02*
X139000D01*
X17800Y193100D02*
X23000D01*
X500Y210400D02*
X17800Y193100D01*
X20200Y213100D02*
X23000D01*
X12400Y220900D02*
X20200Y213100D01*
X57000D02*
X64000D01*
X68300Y217400D01*
X57000Y193100D02*
X76000D01*
X79400Y196500D01*
X100200D01*
X349000Y157700D02*
X354473D01*
X260750Y221400D02*
X325900D01*
X250750Y211400D02*
X260750Y221400D01*
X293900Y211400D02*
X299600Y205700D01*
X283250Y211400D02*
X293900D01*
X218000Y203000D02*
X225200D01*
X368500Y207700D02*
Y208400D01*
G54D35*
X40600Y394900D02*
Y448000D01*
X32900Y387200D02*
X40600Y394900D01*
X23900Y387200D02*
X32900D01*
X171400Y385500D02*
X188100Y368800D01*
X146700Y385500D02*
X171400D01*
X-1800Y658000D02*
X10750Y645450D01*
Y640500D02*
Y645450D01*
X222000Y738250D02*
X228750D01*
X233500Y743000D01*
X67750Y737750D02*
X68000Y738000D01*
X170200Y380600D02*
X188100Y362700D01*
Y358200D02*
Y362700D01*
Y368800D02*
X218300D01*
X17100Y640650D02*
X17250Y640500D01*
X27800D01*
X-600Y696400D02*
X8950D01*
X-6000Y662200D02*
Y691000D01*
X-600Y696400D01*
X12300Y622800D02*
X16100D01*
X12400Y605900D02*
X22000Y615500D01*
X9600Y620100D02*
X12300Y622800D01*
X346000Y436800D02*
X355500D01*
X342200Y433000D02*
X346000Y436800D01*
X12400Y476200D02*
Y605900D01*
Y476200D02*
X40600Y448000D01*
X9600Y470500D02*
Y620100D01*
Y470500D02*
X19200Y460900D01*
X16000Y372500D02*
Y388800D01*
X19200Y392000D01*
Y460900D01*
X-6000Y662200D02*
X-1800Y658000D01*
G54D36*
X16000Y252500D02*
X354000D01*
X16000Y237500D02*
X354000D01*
X16000Y282500D02*
X354000D01*
X16000Y267500D02*
X354000D01*
G54D37*
X88000Y678500D02*
X89000Y679500D01*
Y727500D01*
X68000Y727000D02*
X68500Y727500D01*
X89000D01*
X48500Y730000D02*
X48750Y730250D01*
X48500Y730000D02*
Y741500D01*
Y703000D02*
Y730000D01*
Y741500D02*
X52000Y745000D01*
X56000D01*
X54750Y746250D02*
Y751000D01*
Y746250D02*
X56000Y745000D01*
X90000D01*
X32000Y647100D02*
Y661500D01*
X68250Y685250D02*
X68500Y685500D01*
X57000Y685250D02*
X68250D01*
X55500Y737750D02*
X67750D01*
X56500Y710750D02*
X68250D01*
X48750Y730250D02*
X55500D01*
X48500Y703000D02*
X48750Y703250D01*
X48500Y692500D02*
Y703000D01*
X48750Y703250D02*
X56500D01*
X48500Y678000D02*
X48750Y677750D01*
X57000D01*
X367000Y498500D02*
X371000D01*
X364000Y495500D02*
X367000Y498500D01*
X364000Y490000D02*
Y495500D01*
X336000Y544500D02*
X341500D01*
X344000Y542000D01*
X346500Y530500D02*
X357500D01*
X344000Y533000D02*
X346500Y530500D01*
X344000Y533000D02*
Y542000D01*
X351000Y517500D02*
X354000Y514500D01*
X338500Y517500D02*
X351000D01*
X336500Y515500D02*
X338500Y517500D01*
X336500Y497500D02*
Y515500D01*
Y497500D02*
X344000Y490000D01*
Y480000D02*
Y490000D01*
X364000Y507000D02*
X364500Y507500D01*
Y518000D01*
X370500Y468500D02*
X373500D01*
X364000Y462000D02*
X370500Y468500D01*
X364000Y455000D02*
Y462000D01*
X374000Y479000D02*
Y490000D01*
X365500Y470500D02*
X374000Y479000D01*
X361500Y470500D02*
X365500D01*
X360500Y469500D02*
X361500Y470500D01*
X364000Y483000D02*
Y490000D01*
X350500Y469500D02*
X364000Y483000D01*
X205000Y15600D02*
X206100Y14500D01*
X205000Y15600D02*
Y31000D01*
Y35850D01*
Y25800D02*
Y31000D01*
Y35850D02*
X209500Y40350D01*
X224400Y35300D02*
X229500Y40400D01*
X224400Y16250D02*
Y35300D01*
Y16250D02*
X226100Y14550D01*
X244200Y35050D02*
X249500Y40350D01*
X244200Y16400D02*
Y35050D01*
Y16400D02*
X246100Y14500D01*
X263900Y34800D02*
X269500Y40400D01*
X263900Y16750D02*
Y34800D01*
Y16750D02*
X266100Y14550D01*
X284400Y16200D02*
Y35250D01*
Y16200D02*
X286100Y14500D01*
X286250Y14650D01*
X284400Y35250D02*
X289500Y40350D01*
X66250Y14700D02*
Y37150D01*
X86250Y14700D02*
Y37150D01*
X86100Y14550D02*
X86250Y14700D01*
X106250D02*
Y37150D01*
X106100Y14550D02*
X106250Y14700D01*
X126250D02*
Y37150D01*
X126100Y14550D02*
X126250Y14700D01*
X146250D02*
Y37150D01*
X146100Y14550D02*
X146250Y14700D01*
X166250Y14650D02*
Y37100D01*
X166100Y14500D02*
X166250Y14650D01*
X185000Y15650D02*
Y35900D01*
Y15650D02*
X186100Y14550D01*
X206100Y14500D02*
X206250Y14650D01*
X226100Y14550D02*
X226250Y14700D01*
X246100Y14500D02*
X246250Y14650D01*
X266100Y14550D02*
X266250Y14700D01*
X89500Y40400D02*
Y49900D01*
X86250Y37150D02*
X89500Y40400D01*
X66250Y37150D02*
X69500Y40400D01*
Y49900D01*
X106250Y37150D02*
X109500Y40400D01*
Y49900D01*
X126250Y37150D02*
X129500Y40400D01*
Y49900D01*
X146250Y37150D02*
X149500Y40400D01*
Y49900D01*
X166250Y37100D02*
X169500Y40350D01*
Y49900D01*
X185000Y35900D02*
X189500Y40400D01*
Y49900D01*
X209500Y40350D02*
Y49900D01*
X229500Y40400D02*
Y49900D01*
X249500Y40350D02*
Y49900D01*
X269500Y40400D02*
Y49900D01*
X289500Y40350D02*
Y49900D01*
X55000Y561250D02*
Y575000D01*
Y561250D02*
X56250Y560000D01*
X65000Y561250D02*
Y575000D01*
X63750Y560000D02*
X65000Y561250D01*
X85000D02*
Y575000D01*
X75000Y561250D02*
Y575000D01*
X105000Y561250D02*
Y575000D01*
X95000Y561250D02*
Y575000D01*
X125000Y561250D02*
Y575000D01*
X115000Y561250D02*
Y575000D01*
X155000Y561250D02*
Y575000D01*
X145000Y561250D02*
Y575000D01*
X175000Y561250D02*
Y575000D01*
X165000Y561250D02*
Y575000D01*
X195000Y561250D02*
Y575000D01*
X185000Y561250D02*
Y575000D01*
X215000Y561250D02*
Y575000D01*
X205000Y561250D02*
Y575000D01*
X245000Y561250D02*
Y575000D01*
X235000Y561250D02*
Y575000D01*
X265000Y561250D02*
Y575000D01*
X255000Y561250D02*
Y575000D01*
X285000Y561250D02*
Y575000D01*
X275000Y561250D02*
Y575000D01*
X305000Y561250D02*
Y575000D01*
X295000Y561250D02*
Y575000D01*
X285000D02*
Y582400D01*
X285200Y582600D01*
X265000Y575000D02*
Y582500D01*
X245000Y575000D02*
Y582600D01*
X215000Y575000D02*
Y582100D01*
X215500Y582600D01*
X195000Y575000D02*
Y582600D01*
X175000Y575000D02*
Y582500D01*
X155000Y575000D02*
Y582100D01*
X155500Y582600D01*
X125000Y575000D02*
Y582500D01*
X105000Y575000D02*
Y582500D01*
X104900Y582600D02*
X105000Y582500D01*
X85000Y575000D02*
Y582300D01*
X85300Y582600D01*
X274700Y597400D02*
X275000Y597700D01*
Y605000D01*
X255000Y597500D02*
Y605000D01*
X235000Y597500D02*
Y605000D01*
X204500Y597400D02*
X205000Y597900D01*
Y605000D01*
X185000Y597500D02*
Y605000D01*
X165000Y597400D02*
Y605000D01*
X144500Y597400D02*
X145000Y597900D01*
Y605000D01*
X115000Y597400D02*
Y605000D01*
X95000Y597500D02*
Y605000D01*
X65000Y433750D02*
Y443700D01*
X68500Y447200D01*
X80000Y433750D02*
Y443700D01*
X76500Y447200D02*
X80000Y443700D01*
X46500Y447200D02*
X50000Y443700D01*
Y433750D02*
Y443700D01*
X106500Y447200D02*
X110000Y443700D01*
Y433750D02*
Y443700D01*
X95000D02*
X98500Y447200D01*
X95000Y433750D02*
Y443700D01*
X125000D02*
X128500Y447200D01*
X125000Y433750D02*
Y443700D01*
X315000Y433750D02*
Y443700D01*
X318500Y447200D01*
X285000Y433750D02*
Y443700D01*
X288500Y447200D01*
X300000Y433750D02*
Y443700D01*
X296500Y447200D02*
X300000Y443700D01*
X240000Y433750D02*
Y443700D01*
X236500Y447200D02*
X240000Y443700D01*
X266500Y447200D02*
X270000Y443700D01*
Y433750D02*
Y443700D01*
X255000D02*
X258500Y447200D01*
X255000Y433750D02*
Y443700D01*
X74800Y597400D02*
X75000Y597600D01*
Y605000D01*
X28450Y706400D02*
X48400D01*
X32000Y661500D02*
X48500Y678000D01*
Y692500D01*
X354000Y342500D02*
X367300D01*
X373000Y348200D01*
X333700Y404800D02*
X339800Y398700D01*
X347700D01*
X333700Y404800D02*
Y412000D01*
X354000Y448500D02*
X356800Y445700D01*
X361300D01*
X363100Y443900D01*
X354000Y448500D02*
Y455000D01*
X363100Y414200D02*
Y443900D01*
Y414200D02*
X373000Y404300D01*
Y348200D02*
Y404300D01*
X10573Y86927D02*
X10700Y86800D01*
X72118Y86927D02*
X72245Y86800D01*
X133664Y86927D02*
X133791Y86800D01*
X195209Y86927D02*
X195336Y86800D01*
X256882Y106800D02*
X257009Y106673D01*
X318427Y106800D02*
X318554Y106673D01*
X156700Y27700D02*
Y28400D01*
X254800Y97000D02*
X256682D01*
X66250Y14700D02*
X66850Y14100D01*
X66750Y14000D02*
X66850Y14100D01*
X66300Y14000D02*
X66750D01*
G54D38*
X95000Y679000D02*
Y735500D01*
X90500Y674500D02*
X95000Y679000D01*
X68500Y674500D02*
X90500D01*
X75500Y703500D02*
Y718500D01*
X104500Y745000D02*
X187000D01*
X95000Y735500D02*
X104500Y745000D01*
X195000Y717500D02*
X201500Y724000D01*
X195000Y712500D02*
Y717500D01*
Y712500D02*
X196000Y711500D01*
X198051D01*
X201500Y724000D02*
Y730500D01*
X68500Y700000D02*
X72000D01*
X75500Y703500D01*
X39000Y757000D02*
X44000Y762000D01*
X39000Y724000D02*
Y757000D01*
X29000Y714000D02*
X39000Y724000D01*
X53000Y762000D02*
X54750Y760250D01*
X44000Y762000D02*
X53000D01*
X54750Y757000D02*
Y760250D01*
Y756000D02*
Y757000D01*
X232000Y688500D02*
X237000Y683500D01*
X323000D01*
X325000Y685500D01*
X327000Y683000D02*
X338000D01*
X325000Y681000D02*
X327000Y683000D01*
X340000Y685500D02*
X362500Y663000D01*
X325000Y685500D02*
X340000D01*
X338000Y683000D02*
X360500Y660500D01*
X362500Y655500D02*
Y663000D01*
Y655500D02*
X365000Y653000D01*
X360500Y645500D02*
Y660500D01*
X13000Y714000D02*
X29000D01*
X8950Y709950D02*
X13000Y714000D01*
X8950Y706400D02*
Y709950D01*
X41900Y696400D02*
X42500Y697000D01*
X28450Y696400D02*
X41900D01*
X42500Y697000D02*
Y699000D01*
X134900Y636900D02*
Y663000D01*
X134600Y663300D02*
X134900Y663000D01*
X231700Y710400D02*
X232000Y710100D01*
Y688500D02*
Y710100D01*
X213800Y710400D02*
X216800Y707400D01*
X219600D01*
X224350Y702650D01*
Y700350D02*
Y702650D01*
X236300Y681000D02*
X325000D01*
X224350Y700350D02*
X229700Y695000D01*
Y687600D02*
Y695000D01*
Y687600D02*
X236300Y681000D01*
G54D39*
X16000Y299000D02*
Y312500D01*
X35000Y311500D02*
X42000Y318500D01*
X17000Y311500D02*
X35000D01*
X330600Y318500D02*
X350600Y298500D01*
X354000D02*
Y311200D01*
Y332500D02*
Y342500D01*
X350600Y298500D02*
X354000D01*
X42000Y318500D02*
X330600D01*
G54D40*
X16000Y335000D02*
X18500Y332500D01*
X16000Y335000D02*
Y342500D01*
Y327500D02*
X21000Y332500D01*
X18500D02*
X21000D01*
X188100D01*
X349000D01*
X354000Y327500D01*
X349000Y332500D02*
X354000D01*
G54D41*
X10700Y96800D02*
D03*
Y106800D02*
D03*
X41273Y147700D02*
D03*
Y157700D02*
D03*
X102818Y147700D02*
D03*
Y157700D02*
D03*
X133791Y96800D02*
D03*
Y106800D02*
D03*
X164364Y147700D02*
D03*
Y157700D02*
D03*
X195336Y96800D02*
D03*
Y106800D02*
D03*
X225909Y147700D02*
D03*
Y157700D02*
D03*
X287455Y147700D02*
D03*
Y157700D02*
D03*
X318427Y96800D02*
D03*
Y106800D02*
D03*
X349000Y147700D02*
D03*
Y157700D02*
D03*
X256882Y96800D02*
D03*
Y106800D02*
D03*
X72245Y96800D02*
D03*
Y106800D02*
D03*
G54D42*
X10700Y86800D02*
D03*
X41273Y137700D02*
D03*
X102818D02*
D03*
X133791Y86800D02*
D03*
X164364Y137700D02*
D03*
X195336Y86800D02*
D03*
X225909Y137700D02*
D03*
X287455D02*
D03*
X318427Y86800D02*
D03*
X349000Y137700D02*
D03*
X256882Y86800D02*
D03*
X5300Y400100D02*
D03*
Y450100D02*
D03*
X25300Y400100D02*
D03*
Y450100D02*
D03*
X72245Y86800D02*
D03*
G54D43*
X371400Y423000D02*
D03*
X342200Y433000D02*
D03*
G54D44*
X371400D02*
D03*
X342200Y423000D02*
D03*
X315000Y390000D02*
D03*
Y370000D02*
D03*
X300000D02*
D03*
Y390000D02*
D03*
X285000D02*
D03*
Y370000D02*
D03*
X270000Y390000D02*
D03*
Y370000D02*
D03*
X255000Y390000D02*
D03*
Y370000D02*
D03*
X240000Y390000D02*
D03*
Y370000D02*
D03*
X54800Y370500D02*
D03*
Y390500D02*
D03*
X69800Y370500D02*
D03*
Y390500D02*
D03*
X84800Y370500D02*
D03*
Y390500D02*
D03*
X99800Y370500D02*
D03*
Y390500D02*
D03*
X114800Y370500D02*
D03*
Y390500D02*
D03*
X129800Y370500D02*
D03*
Y390500D02*
D03*
X32000Y615500D02*
D03*
X347700Y398700D02*
D03*
G54D45*
X235000Y605000D02*
D03*
X295000D02*
D03*
X265000D02*
D03*
X295000Y575000D02*
D03*
X265000D02*
D03*
X255000Y605000D02*
D03*
X245000D02*
D03*
X285000D02*
D03*
X275000D02*
D03*
X305000D02*
D03*
X245000Y575000D02*
D03*
X255000D02*
D03*
X285000D02*
D03*
X275000D02*
D03*
X305000D02*
D03*
X145000Y605000D02*
D03*
X205000D02*
D03*
X175000D02*
D03*
X205000Y575000D02*
D03*
X175000D02*
D03*
X165000Y605000D02*
D03*
X155000D02*
D03*
X195000D02*
D03*
X185000D02*
D03*
X215000D02*
D03*
X155000Y575000D02*
D03*
X165000D02*
D03*
X195000D02*
D03*
X185000D02*
D03*
X215000D02*
D03*
X55000Y605000D02*
D03*
X115000D02*
D03*
X85000D02*
D03*
X115000Y575000D02*
D03*
X85000D02*
D03*
X75000Y605000D02*
D03*
X65000D02*
D03*
X105000D02*
D03*
X95000D02*
D03*
X125000D02*
D03*
X65000Y575000D02*
D03*
X75000D02*
D03*
X105000D02*
D03*
X95000D02*
D03*
X125000D02*
D03*
X320000Y499500D02*
D03*
Y529500D02*
D03*
X330000Y499500D02*
D03*
X300000D02*
D03*
X310000D02*
D03*
X300000Y529500D02*
D03*
X310000D02*
D03*
X270000Y499500D02*
D03*
Y529500D02*
D03*
X280000Y499500D02*
D03*
X250000D02*
D03*
X260000D02*
D03*
X250000Y529500D02*
D03*
X260000D02*
D03*
X220000Y499500D02*
D03*
Y529500D02*
D03*
X230000Y499500D02*
D03*
X200000D02*
D03*
X210000D02*
D03*
X200000Y529500D02*
D03*
X210000D02*
D03*
X170000Y499500D02*
D03*
Y529500D02*
D03*
X180000Y499500D02*
D03*
X150000D02*
D03*
X160000D02*
D03*
X150000Y529500D02*
D03*
X160000D02*
D03*
X120000Y499500D02*
D03*
Y529500D02*
D03*
X130000Y499500D02*
D03*
X100000D02*
D03*
X110000D02*
D03*
X100000Y529500D02*
D03*
X110000D02*
D03*
X70000Y499500D02*
D03*
Y529500D02*
D03*
X80000Y499500D02*
D03*
X50000D02*
D03*
X60000D02*
D03*
X50000Y529500D02*
D03*
X60000D02*
D03*
G54D46*
X235000Y575000D02*
D03*
X145000D02*
D03*
X55000D02*
D03*
X330000Y529500D02*
D03*
X280000D02*
D03*
X230000D02*
D03*
X180000D02*
D03*
X130000D02*
D03*
X80000D02*
D03*
G54D47*
X234213Y28400D02*
D03*
X273583D02*
D03*
X293268D02*
D03*
X253898D02*
D03*
X175158D02*
D03*
X116103D02*
D03*
X214528D02*
D03*
X194843D02*
D03*
X155473D02*
D03*
X135787D02*
D03*
X96417D02*
D03*
X76732D02*
D03*
G54D48*
X350000Y735000D02*
D03*
X20000D02*
D03*
X350000Y20000D02*
D03*
X20000D02*
D03*
G54D49*
X22000Y615500D02*
D03*
X357700Y398700D02*
D03*
G54D50*
X16000Y237500D02*
D03*
Y267500D02*
D03*
Y297500D02*
D03*
Y252500D02*
D03*
Y282500D02*
D03*
Y312500D02*
D03*
Y372500D02*
D03*
Y342500D02*
D03*
Y357500D02*
D03*
Y327500D02*
D03*
X354000Y237500D02*
D03*
Y267500D02*
D03*
Y297500D02*
D03*
Y252500D02*
D03*
Y282500D02*
D03*
Y312500D02*
D03*
Y372500D02*
D03*
Y342500D02*
D03*
Y357500D02*
D03*
Y327500D02*
D03*
G54D51*
X-2400Y425100D02*
D03*
X33000D02*
D03*
G54D52*
X218000Y203000D02*
D03*
G54D53*
X218300Y687800D02*
D03*
G54D54*
Y677800D02*
D03*
G54D55*
X88000Y678500D02*
D03*
X89000Y727500D02*
D03*
X90000Y745000D02*
D03*
X75500Y718500D02*
D03*
X169200Y651600D02*
D03*
X201500Y730500D02*
D03*
X187000Y745000D02*
D03*
X212500Y720500D02*
D03*
X233500Y743000D02*
D03*
X84000Y755000D02*
D03*
X181000Y741000D02*
D03*
X176000Y737000D02*
D03*
X336000Y544500D02*
D03*
X224500Y616700D02*
D03*
X146300Y723400D02*
D03*
X110400Y726000D02*
D03*
X184800Y434300D02*
D03*
X165300Y418000D02*
D03*
X170200Y417500D02*
D03*
X178000Y418300D02*
D03*
X60000Y645000D02*
D03*
X80000D02*
D03*
X100000D02*
D03*
X120000D02*
D03*
X150000D02*
D03*
X170000D02*
D03*
X190000D02*
D03*
X210000D02*
D03*
X240000D02*
D03*
X260000D02*
D03*
X280000D02*
D03*
X300000D02*
D03*
X247800Y730800D02*
D03*
X257800D02*
D03*
X267800D02*
D03*
X277800D02*
D03*
X287800D02*
D03*
X297800D02*
D03*
X307800D02*
D03*
X317800D02*
D03*
X170200Y380600D02*
D03*
X218300Y368800D02*
D03*
X16100Y622800D02*
D03*
X161900Y674000D02*
D03*
X166400Y672200D02*
D03*
X132000Y691900D02*
D03*
X176300Y716400D02*
D03*
X175100Y697579D02*
D03*
X178800Y693100D02*
D03*
X180984Y703500D02*
D03*
X166100Y688400D02*
D03*
X148600Y700700D02*
D03*
X169500Y705600D02*
D03*
X183200Y716200D02*
D03*
X192700Y703500D02*
D03*
X188200Y697500D02*
D03*
X119800Y677300D02*
D03*
X106700Y705000D02*
D03*
X117700Y705100D02*
D03*
X103200Y697500D02*
D03*
X117900Y698000D02*
D03*
X112600Y712700D02*
D03*
X109500Y720000D02*
D03*
X159300Y417400D02*
D03*
X148700Y424200D02*
D03*
X170800Y435100D02*
D03*
X175900Y434700D02*
D03*
X200900Y418800D02*
D03*
X184200Y421200D02*
D03*
X212810Y414390D02*
D03*
X205600Y420200D02*
D03*
X203500Y439100D02*
D03*
X215200Y434600D02*
D03*
X48500Y692500D02*
D03*
X42500Y699000D02*
D03*
X193200Y696600D02*
D03*
X158300Y723600D02*
D03*
X225000Y674700D02*
D03*
X213800Y710400D02*
D03*
X231700D02*
D03*
X228000Y701600D02*
D03*
G54D56*
X68300Y217400D02*
D03*
X79400Y196800D02*
D03*
X12400Y220900D02*
D03*
X325900Y221400D02*
D03*
X299600Y205700D02*
D03*
X368500Y208400D02*
D03*
M02*
