%FSLAX25Y25*%
%MOIN*%
G70*
G01*
G75*
G04 Layer_Color=16711935*
%ADD10C,0.05000*%
%ADD11R,0.06000X0.05500*%
%ADD12R,0.20000X0.07000*%
%ADD13R,0.10000X0.07000*%
%ADD14R,0.07087X0.06299*%
%ADD15R,0.14500X0.05000*%
%ADD16O,0.07087X0.01181*%
%ADD17O,0.01181X0.07087*%
%ADD18R,0.07087X0.08661*%
%ADD19R,0.01181X0.05118*%
%ADD20R,0.05906X0.05118*%
%ADD21R,0.10630X0.07087*%
%ADD22R,0.05118X0.05906*%
%ADD23R,0.06000X0.08500*%
%ADD24R,0.04331X0.03937*%
%ADD25R,0.03937X0.04331*%
%ADD26R,0.06299X0.07087*%
%ADD27R,0.05600X0.03600*%
%ADD28R,0.06000X0.12500*%
%ADD29R,0.12500X0.06000*%
%ADD30R,0.07000X0.08000*%
%ADD31R,0.09000X0.06500*%
%ADD32C,0.10000*%
%ADD33C,0.05000*%
%ADD34C,0.13000*%
%ADD35C,0.08000*%
%ADD36C,0.01000*%
%ADD37C,0.01200*%
%ADD38C,0.02500*%
%ADD39C,0.02000*%
%ADD40C,0.00800*%
%ADD41C,0.12500*%
G04:AMPARAMS|DCode=42|XSize=55mil|YSize=55mil|CornerRadius=13.75mil|HoleSize=0mil|Usage=FLASHONLY|Rotation=180.000|XOffset=0mil|YOffset=0mil|HoleType=Round|Shape=RoundedRectangle|*
%AMROUNDEDRECTD42*
21,1,0.05500,0.02750,0,0,180.0*
21,1,0.02750,0.05500,0,0,180.0*
1,1,0.02750,-0.01375,0.01375*
1,1,0.02750,0.01375,0.01375*
1,1,0.02750,0.01375,-0.01375*
1,1,0.02750,-0.01375,-0.01375*
%
%ADD42ROUNDEDRECTD42*%
%ADD43C,0.05500*%
G04:AMPARAMS|DCode=44|XSize=50mil|YSize=50mil|CornerRadius=12.5mil|HoleSize=0mil|Usage=FLASHONLY|Rotation=180.000|XOffset=0mil|YOffset=0mil|HoleType=Round|Shape=RoundedRectangle|*
%AMROUNDEDRECTD44*
21,1,0.05000,0.02500,0,0,180.0*
21,1,0.02500,0.05000,0,0,180.0*
1,1,0.02500,-0.01250,0.01250*
1,1,0.02500,0.01250,0.01250*
1,1,0.02500,0.01250,-0.01250*
1,1,0.02500,-0.01250,-0.01250*
%
%ADD44ROUNDEDRECTD44*%
G04:AMPARAMS|DCode=45|XSize=60mil|YSize=60mil|CornerRadius=15mil|HoleSize=0mil|Usage=FLASHONLY|Rotation=90.000|XOffset=0mil|YOffset=0mil|HoleType=Round|Shape=RoundedRectangle|*
%AMROUNDEDRECTD45*
21,1,0.06000,0.03000,0,0,90.0*
21,1,0.03000,0.06000,0,0,90.0*
1,1,0.03000,0.01500,0.01500*
1,1,0.03000,0.01500,-0.01500*
1,1,0.03000,-0.01500,-0.01500*
1,1,0.03000,-0.01500,0.01500*
%
%ADD45ROUNDEDRECTD45*%
%ADD46C,0.06000*%
%ADD47C,0.07500*%
%ADD48C,0.06200*%
%ADD49R,0.06200X0.06200*%
%ADD50C,0.10000*%
%ADD51C,0.23400*%
%ADD52O,0.10000X0.12000*%
%ADD53O,0.06000X0.06400*%
%ADD54R,0.06000X0.06400*%
%ADD55R,0.06200X0.06200*%
%ADD56C,0.08000*%
%ADD57C,0.03000*%
%ADD58R,0.25590X0.23622*%
%ADD59R,0.11800X0.06300*%
%ADD60R,0.02500X0.06000*%
%ADD61R,0.06000X0.02500*%
%ADD62R,0.09000X0.10000*%
%ADD63C,0.03000*%
%ADD64C,0.00984*%
%ADD65C,0.02362*%
%ADD66C,0.01600*%
%ADD67C,0.00787*%
%ADD68C,0.00699*%
%ADD69C,0.01500*%
%ADD70C,0.00500*%
%ADD71R,0.19000X0.55500*%
G04:AMPARAMS|DCode=72|XSize=51.06mil|YSize=51.06mil|CornerRadius=12.77mil|HoleSize=0mil|Usage=FLASHONLY|Rotation=0.000|XOffset=0mil|YOffset=0mil|HoleType=Round|Shape=RoundedRectangle|*
%AMROUNDEDRECTD72*
21,1,0.05106,0.02553,0,0,0.0*
21,1,0.02553,0.05106,0,0,0.0*
1,1,0.02553,0.01277,-0.01277*
1,1,0.02553,-0.01277,-0.01277*
1,1,0.02553,-0.01277,0.01277*
1,1,0.02553,0.01277,0.01277*
%
%ADD72ROUNDEDRECTD72*%
%ADD73C,0.05106*%
%ADD74P,0.09051X4X270.0*%
%ADD75R,0.06000X0.06000*%
%ADD76O,0.10200X0.12200*%
%ADD77P,0.09051X4X360.0*%
%ADD78R,0.06890X0.08465*%
%ADD79R,0.06800X0.06300*%
%ADD80R,0.20800X0.07800*%
%ADD81R,0.10800X0.07800*%
%ADD82R,0.07887X0.07099*%
%ADD83R,0.15300X0.05800*%
%ADD84O,0.07387X0.01481*%
%ADD85O,0.01481X0.07387*%
%ADD86R,0.07874X0.09449*%
%ADD87R,0.01481X0.05418*%
%ADD88R,0.06706X0.05918*%
%ADD89R,0.11430X0.07887*%
%ADD90R,0.05918X0.06706*%
%ADD91R,0.06800X0.09300*%
%ADD92R,0.05131X0.04737*%
%ADD93R,0.04737X0.05131*%
%ADD94R,0.07099X0.07887*%
%ADD95R,0.06400X0.04400*%
%ADD96R,0.06800X0.13300*%
%ADD97R,0.13300X0.06800*%
%ADD98R,0.07800X0.08800*%
%ADD99R,0.09800X0.07300*%
%ADD100C,0.13300*%
G04:AMPARAMS|DCode=101|XSize=63mil|YSize=63mil|CornerRadius=17.75mil|HoleSize=0mil|Usage=FLASHONLY|Rotation=180.000|XOffset=0mil|YOffset=0mil|HoleType=Round|Shape=RoundedRectangle|*
%AMROUNDEDRECTD101*
21,1,0.06300,0.02750,0,0,180.0*
21,1,0.02750,0.06300,0,0,180.0*
1,1,0.03550,-0.01375,0.01375*
1,1,0.03550,0.01375,0.01375*
1,1,0.03550,0.01375,-0.01375*
1,1,0.03550,-0.01375,-0.01375*
%
%ADD101ROUNDEDRECTD101*%
%ADD102C,0.06300*%
%ADD103C,0.05800*%
G04:AMPARAMS|DCode=104|XSize=58mil|YSize=58mil|CornerRadius=16.5mil|HoleSize=0mil|Usage=FLASHONLY|Rotation=180.000|XOffset=0mil|YOffset=0mil|HoleType=Round|Shape=RoundedRectangle|*
%AMROUNDEDRECTD104*
21,1,0.05800,0.02500,0,0,180.0*
21,1,0.02500,0.05800,0,0,180.0*
1,1,0.03300,-0.01250,0.01250*
1,1,0.03300,0.01250,0.01250*
1,1,0.03300,0.01250,-0.01250*
1,1,0.03300,-0.01250,-0.01250*
%
%ADD104ROUNDEDRECTD104*%
G04:AMPARAMS|DCode=105|XSize=68mil|YSize=68mil|CornerRadius=19mil|HoleSize=0mil|Usage=FLASHONLY|Rotation=90.000|XOffset=0mil|YOffset=0mil|HoleType=Round|Shape=RoundedRectangle|*
%AMROUNDEDRECTD105*
21,1,0.06800,0.03000,0,0,90.0*
21,1,0.03000,0.06800,0,0,90.0*
1,1,0.03800,0.01500,0.01500*
1,1,0.03800,0.01500,-0.01500*
1,1,0.03800,-0.01500,-0.01500*
1,1,0.03800,-0.01500,0.01500*
%
%ADD105ROUNDEDRECTD105*%
%ADD106C,0.06800*%
%ADD107C,0.08300*%
%ADD108C,0.07000*%
%ADD109R,0.07000X0.07000*%
%ADD110C,0.10800*%
%ADD111C,0.24200*%
%ADD112O,0.10800X0.12800*%
%ADD113O,0.06800X0.07200*%
%ADD114R,0.06800X0.07200*%
%ADD115R,0.07000X0.07000*%
%ADD116R,0.26391X0.24422*%
%ADD117R,0.12600X0.07100*%
%ADD118R,0.03300X0.06800*%
%ADD119R,0.06800X0.03300*%
%ADD120R,0.09800X0.10800*%
%ADD121C,0.00600*%
G54D36*
X881400Y875000D02*
X919500D01*
X881400Y0D02*
X919500D01*
X918500Y456994D02*
Y875000D01*
Y0D02*
Y414806D01*
X916500Y869000D02*
X918500Y875000D01*
X920500Y869000D01*
X918500Y0D02*
X920500Y6000D01*
X916500D02*
X918500Y0D01*
X880000Y-46000D02*
Y-1400D01*
X0Y-46000D02*
Y-1400D01*
X459494Y-45000D02*
X880000D01*
X0D02*
X417306D01*
X874000Y-43000D02*
X880000Y-45000D01*
X874000Y-47000D02*
X880000Y-45000D01*
X0D02*
X6000Y-47000D01*
X0Y-45000D02*
X6000Y-43000D01*
G54D40*
X880000Y0D02*
Y875000D01*
X0Y0D02*
Y875000D01*
X880000D01*
X0Y0D02*
X880000D01*
G54D121*
X917101Y416406D02*
X916101Y417406D01*
Y419405D01*
X917101Y420405D01*
X918100D01*
X919100Y419405D01*
X920100Y420405D01*
X921099D01*
X922099Y419405D01*
Y417406D01*
X921099Y416406D01*
X920100D01*
X919100Y417406D01*
X918100Y416406D01*
X917101D01*
X919100Y417406D02*
Y419405D01*
X916101Y422404D02*
Y426403D01*
X917101D01*
X921099Y422404D01*
X922099D01*
X916101Y432401D02*
Y428402D01*
X919100D01*
X918100Y430402D01*
Y431401D01*
X919100Y432401D01*
X921099D01*
X922099Y431401D01*
Y429402D01*
X921099Y428402D01*
X917101Y434401D02*
X916101Y435400D01*
Y437399D01*
X917101Y438399D01*
X921099D01*
X922099Y437399D01*
Y435400D01*
X921099Y434401D01*
X917101D01*
X922099Y440399D02*
X921099D01*
Y441398D01*
X922099D01*
Y440399D01*
X917101Y445397D02*
X916101Y446397D01*
Y448396D01*
X917101Y449396D01*
X921099D01*
X922099Y448396D01*
Y446397D01*
X921099Y445397D01*
X917101D01*
Y451395D02*
X916101Y452395D01*
Y454394D01*
X917101Y455394D01*
X921099D01*
X922099Y454394D01*
Y452395D01*
X921099Y451395D01*
X917101D01*
X418906Y-43601D02*
X419906Y-42601D01*
X421905D01*
X422905Y-43601D01*
Y-44600D01*
X421905Y-45600D01*
X422905Y-46600D01*
Y-47599D01*
X421905Y-48599D01*
X419906D01*
X418906Y-47599D01*
Y-46600D01*
X419906Y-45600D01*
X418906Y-44600D01*
Y-43601D01*
X419906Y-45600D02*
X421905D01*
X424904Y-43601D02*
X425904Y-42601D01*
X427903D01*
X428903Y-43601D01*
Y-44600D01*
X427903Y-45600D01*
X428903Y-46600D01*
Y-47599D01*
X427903Y-48599D01*
X425904D01*
X424904Y-47599D01*
Y-46600D01*
X425904Y-45600D01*
X424904Y-44600D01*
Y-43601D01*
X425904Y-45600D02*
X427903D01*
X430902Y-43601D02*
X431902Y-42601D01*
X433902D01*
X434901Y-43601D01*
Y-47599D01*
X433902Y-48599D01*
X431902D01*
X430902Y-47599D01*
Y-43601D01*
X436901D02*
X437900Y-42601D01*
X439899D01*
X440899Y-43601D01*
Y-47599D01*
X439899Y-48599D01*
X437900D01*
X436901Y-47599D01*
Y-43601D01*
X442899Y-48599D02*
Y-47599D01*
X443898D01*
Y-48599D01*
X442899D01*
X447897Y-43601D02*
X448897Y-42601D01*
X450896D01*
X451896Y-43601D01*
Y-47599D01*
X450896Y-48599D01*
X448897D01*
X447897Y-47599D01*
Y-43601D01*
X453895D02*
X454895Y-42601D01*
X456894D01*
X457894Y-43601D01*
Y-47599D01*
X456894Y-48599D01*
X454895D01*
X453895Y-47599D01*
Y-43601D01*
M02*
