M48
;Layer_Color=9474304
;FILE_FORMAT=2:5
INCH,LZ
;TYPE=PLATED
T1F00S00C0.01500
T2F00S00C0.02800
T3F00S00C0.03200
T4F00S00C0.03800
T5F00S00C0.04000
T6F00S00C0.04200
T7F00S00C0.04600
T8F00S00C0.06000
T9F00S00C0.06200
%
T01
X06202Y04406
Y04775
X06153Y0478
X06093Y04774
X05987Y04842
X06208Y04951
X06259Y04947
X06348Y04943
X06342Y04812
X0628Y04783
X06509Y04788
X06556Y04802
X066281Y047439
X06652Y04946
X06535Y04991
X06683Y04288
X02783
X027281Y047439
X02656Y04802
X02609Y04788
X02442Y04812
X0238Y04783
X02302Y04775
X02253Y0478
X02193Y04774
X02308Y04951
X02359Y04947
X02448Y04943
X02635Y04991
X02752Y04946
X02302Y04406
X02087Y04842
X02845Y06767
X0396Y06045
X06745Y06767
X0786Y06045
X075Y0705
X073
X071
X069
X06817Y07704
X06835Y0803
X06978Y07908
X07078
X07178
X07278
X07378
X07478
X07578
X07678
X06625Y07805
X06638Y07704
X0678Y07616
X0675Y07347
X066Y0705
X064
X062
X06192Y07116
X06164Y07322
X06119Y0734
X06161Y07484
X06288Y07531
X06251Y0757579
X0630984Y07635
X06427
X06432Y07566
X06382Y07575
X06332Y07762
X06263Y07764
X06195Y07656
X05986Y07607
X05963Y07834
X06083Y07836
X0626Y0797
X0631Y0801
X0637Y0805
X06515Y07905
X05604Y0786
X05595Y078
X05626Y07727
X05677Y07651
X05679Y0758
X05532Y07575
X05567Y0765
X0582Y07519
X05698Y07373
X057Y0705
X055
X053
X0538Y07385
X0539Y07875
X054Y0805
X0534Y0815
X05255Y07785
X06Y0705
X051
X04985Y07525
X04925Y0759
X04661Y06828
X03778Y07908
X03678
X03578
X03478
X03378
X03278
X03178
X03078
X02935Y0803
X02917Y07704
X0288Y07616
X02738Y07704
X02725Y07805
X02615Y07905
X0247Y0805
X0241Y0801
X0236Y0797
X02363Y07764
X02432Y07762
X0240984Y07635
X02527
X02532Y07566
X02482Y07575
X02351Y0757579
X02388Y07531
X02261Y07484
X02264Y07322
X02219Y0734
X02292Y07116
X023Y0705
X025
X027
X03
X032
X034
X036
X0285Y07347
X02295Y07656
X02183Y07836
X02063Y07834
X02086Y07607
X0192Y07519
X01779Y0758
X01777Y07651
X01667Y0765
X01632Y07575
X01726Y07727
X01695Y078
X01704Y0786
X0149Y07875
X015Y0805
X0144Y0815
X01355Y07785
X01025Y0759
X01085Y07525
X0148Y07385
X01798Y07373
X018Y0705
X016
X014
X012
X00761Y06828
X021Y0705
T02
X06961Y00745
X07161Y007455
X07361Y00745
X06761Y007455
X06561Y00745
X06361Y007455
X06161Y00745
X05961Y007455
X05761
X05561
X05361
X05163Y0074
X03461Y00745
X03261Y007455
X03061Y00745
X02861Y007455
X02661Y00745
X02461Y007455
X02261Y00745
X02061Y007455
X01861
X01661
X01461
X01263Y0074
X0228Y0263
X0238
X0248
X0268
X0278
X0618
X0628
X0638
X0658
X0668
X06865Y05072
X07085
X07165
X07385
X07465
X07685
X078Y05025
X08055Y04968
X07837Y0472
X06381Y04182
Y03925
X06422Y03788
X05967Y04455
X05785Y05072
X05565
X05485
X05265
X05185
X04965
X04739Y04472
X03937Y0472
X039Y05025
X03785Y05072
X04155Y04968
X03565Y05072
X03485
X03265
X03185
X02965
X02481Y04182
Y03925
X02522Y03788
X02067Y04455
X01885Y05072
X01665
X01585
X01365
X01285
X01065
X00839Y04472
X00868Y06377
X00647
X0058Y06645
X0448
X04547Y06377
X04768
X0434Y06275
X0407Y06155
X04175Y05905
X0425Y059
X04245Y0578
X0412Y0583
X0431Y05585
X04335Y05285
X04205Y05295
X04105
X0404Y054
X0794
X08005Y05295
X08105
X08235Y05285
X0821Y05585
X08145Y0578
X0815Y059
X08075Y05905
X0802Y0583
X0797Y06155
X0824Y06275
X08105Y07055
X0815Y0713
X08055Y0717
X08135Y075
X0773
X07785Y077525
X06878Y07515
X05846Y07233
X05849Y06969
X04832Y07059
X0448Y07185
X0452Y07275
X0425Y0713
X04205Y07055
X04155Y0717
X04235Y075
X0383
X03885Y077525
X0494Y0806
X02978Y07515
X01946Y07233
X01949Y06969
X00932Y07059
X0058Y07185
X0062Y07275
X0104Y0806
T03
X0706882Y01468
Y01568
Y01668
X0737455Y01977
Y02077
X0799
Y01977
X0768427Y01668
Y01568
Y01468
X0645336
Y01568
Y01668
X0675909Y01977
Y02077
X0614364
Y01977
X0583791Y01668
Y01568
Y01468
X0552818Y01977
Y02077
X0491273
Y01977
X04607Y01668
Y01568
Y01468
X0522245
Y01568
Y01668
X0378427
Y01568
Y01468
X0409Y01977
Y02077
X0347455
Y01977
X0316882Y01668
Y01568
Y01468
X0255336
Y01568
Y01668
X0285909Y01977
Y02077
X0224364
Y01977
X0193791Y01668
Y01568
Y01468
X0132245
Y01568
Y01668
X0162818Y01977
Y02077
X0101273
Y01977
X00707Y01668
Y01568
Y01468
X0101273Y02177
X0162818
X01394Y02568
X01283Y02774
X00724Y02809
X0224364Y02177
X0285909
X0347455
X03596Y02657
X03859Y02814
X04285Y02684
X04624Y02809
X05183Y02774
X0491273Y02177
X0409
X0552818
X0614364
X0675909
X05294Y02568
X07496Y02657
X07759Y02814
X08185Y02684
X0799Y02177
X0737455
T04
X06683Y07378
Y07478
X02783
Y07378
T05
X069Y043
X0705
X072
X0735
X075
X0765
Y045
X075
X0735
X072
X0705
X069
X07977Y04587
X08077
X08214Y0483
Y0493
X07922
Y0483
X05798Y04505
X05648
X05498
X05348
Y04305
X05498
X05648
X05798
X05198
X05048
Y04505
X05198
X04177Y04587
X04077
X04022Y0483
Y0493
X04314
Y0483
X0375Y045
Y043
X036
X0345
X033
X0315
X03
Y045
X0315
X033
X0345
X036
X01898Y04505
X01748
X01598
X01448
X01298
X01148
Y04305
X01298
X01448
X01598
X01748
X01898
X0092Y06755
X0082
X0472
X0482
T06
X011Y05595
X012
X013
X014
X016
X017
X018
X019
X021
Y05895
X019
X018
X017
X016
X014
X013
X012
X011
X0115Y0635
X0125
X0135
X0145
X0155
X0165
X0175
X0185
X0205
Y0665
X0185
X0175
X0165
X0155
X0145
X0135
X0125
X0115
X0215
X0225
X0235
X0245
X0255
X0265
X0275
X0295
X0305
X0315
X0325
X0335
X0345
X0355
X0365
Y0635
X0355
X0345
X0335
X0325
X0315
X0305
X0295
X0275
X0265
X0255
X0245
X0235
X0225
X0215
X022Y05895
X023
X024
X026
X027
X028
X029
X031
X032
X033
X034
X036
Y05595
X034
X033
X032
X031
X029
X028
X027
X026
X024
X023
X022
X037
X038
X039
Y05895
X038
X037
X05
X051
X052
Y05595
X051
X05
X0505Y0635
X0515
Y0665
X0505
X0525
X0535
X0545
X0555
X0565
X0575
X0595
X0605
X0615
X0625
X0635
X0645
X0655
X0665
Y0635
X0655
X0645
X0635
X0625
X0615
X0605
X0595
X0575
X0565
X0555
X0545
X0535
X0525
X053Y05895
X055
X056
X057
X058
X06
X061
X062
X063
X065
X066
X067
X068
Y05595
X067
X066
X065
X063
X062
X061
X06
X058
X057
X056
X055
X053
X07
X071
X072
X073
X075
X076
X077
X078
Y05895
X077
X076
X075
X073
X072
X071
X07
X0705Y0635
X0695
X0685
X0715
X0725
X0735
X0745
X0755
Y0665
X0745
X0735
X0725
X0715
X0705
X0695
X0685
T07
X04553Y04601
X04753
Y05101
X04553
X00853
X00653
Y04601
X00853
T08
X0684213Y00884
X0703898
X0723583
X0743268
X0664528
X0644843
X0625158
X0605473
X0585787
X0566103
X0546417
X0526732
X0353268
X0333583
X0313898
X0294213
X0274528
X0254843
X0235158
X0215473
X0195788
X0176102
X0156417
X0136732
T09
X0076Y02975
Y03125
Y03275
Y03425
Y03575
X0414
Y03425
Y03275
Y03125
Y02975
X0466
Y03125
Y03275
Y03425
Y03575
X0804
Y03425
Y03275
Y03125
Y02975
Y03725
Y03875
Y04025
Y04175
Y04325
X0466
Y04175
Y04025
Y03875
Y03725
X0414
Y03875
Y04025
Y04175
Y04325
X0076
Y04175
Y04025
Y03875
Y03725
M30
