%FSLAX25Y25*%
%MOIN*%
G70*
G01*
G75*
G04 Layer_Physical_Order=1*
G04 Layer_Color=255*
%ADD10C,0.05000*%
%ADD11R,0.06000X0.05500*%
%ADD12R,0.20000X0.07000*%
%ADD13R,0.10000X0.07000*%
%ADD14R,0.07087X0.06299*%
%ADD15R,0.14500X0.05000*%
%ADD16O,0.07087X0.01181*%
%ADD17O,0.01181X0.07087*%
%ADD18R,0.07087X0.08661*%
%ADD19R,0.01181X0.05118*%
%ADD20R,0.05906X0.05118*%
%ADD21R,0.10630X0.07087*%
%ADD22R,0.05118X0.05906*%
%ADD23R,0.06000X0.08500*%
%ADD24R,0.04331X0.03937*%
%ADD25R,0.03937X0.04331*%
%ADD26R,0.06299X0.07087*%
%ADD27R,0.05600X0.03600*%
%ADD28R,0.06000X0.12500*%
%ADD29R,0.12500X0.06000*%
%ADD30R,0.07000X0.08000*%
%ADD31R,0.09000X0.06500*%
%ADD32C,0.10000*%
%ADD33C,0.05000*%
%ADD34C,0.13000*%
%ADD35C,0.08000*%
%ADD36C,0.01000*%
%ADD37C,0.01200*%
%ADD38C,0.02500*%
%ADD39C,0.02000*%
%ADD40C,0.00800*%
%ADD41C,0.12500*%
G04:AMPARAMS|DCode=42|XSize=55mil|YSize=55mil|CornerRadius=13.75mil|HoleSize=0mil|Usage=FLASHONLY|Rotation=180.000|XOffset=0mil|YOffset=0mil|HoleType=Round|Shape=RoundedRectangle|*
%AMROUNDEDRECTD42*
21,1,0.05500,0.02750,0,0,180.0*
21,1,0.02750,0.05500,0,0,180.0*
1,1,0.02750,-0.01375,0.01375*
1,1,0.02750,0.01375,0.01375*
1,1,0.02750,0.01375,-0.01375*
1,1,0.02750,-0.01375,-0.01375*
%
%ADD42ROUNDEDRECTD42*%
%ADD43C,0.05500*%
G04:AMPARAMS|DCode=44|XSize=50mil|YSize=50mil|CornerRadius=12.5mil|HoleSize=0mil|Usage=FLASHONLY|Rotation=180.000|XOffset=0mil|YOffset=0mil|HoleType=Round|Shape=RoundedRectangle|*
%AMROUNDEDRECTD44*
21,1,0.05000,0.02500,0,0,180.0*
21,1,0.02500,0.05000,0,0,180.0*
1,1,0.02500,-0.01250,0.01250*
1,1,0.02500,0.01250,0.01250*
1,1,0.02500,0.01250,-0.01250*
1,1,0.02500,-0.01250,-0.01250*
%
%ADD44ROUNDEDRECTD44*%
G04:AMPARAMS|DCode=45|XSize=60mil|YSize=60mil|CornerRadius=15mil|HoleSize=0mil|Usage=FLASHONLY|Rotation=90.000|XOffset=0mil|YOffset=0mil|HoleType=Round|Shape=RoundedRectangle|*
%AMROUNDEDRECTD45*
21,1,0.06000,0.03000,0,0,90.0*
21,1,0.03000,0.06000,0,0,90.0*
1,1,0.03000,0.01500,0.01500*
1,1,0.03000,0.01500,-0.01500*
1,1,0.03000,-0.01500,-0.01500*
1,1,0.03000,-0.01500,0.01500*
%
%ADD45ROUNDEDRECTD45*%
%ADD46C,0.06000*%
%ADD47C,0.07500*%
%ADD48C,0.06200*%
%ADD49R,0.06200X0.06200*%
%ADD50C,0.10000*%
%ADD51C,0.23400*%
%ADD52O,0.10000X0.12000*%
%ADD53O,0.06000X0.06400*%
%ADD54R,0.06000X0.06400*%
%ADD55R,0.06200X0.06200*%
%ADD56C,0.08000*%
%ADD57C,0.03000*%
G36*
X102877Y801811D02*
X104000Y801663D01*
X104649Y801748D01*
X104794Y801702D01*
X105385Y801166D01*
X105424Y801072D01*
Y790000D01*
Y769476D01*
X97500D01*
Y770700D01*
X79400D01*
Y762100D01*
X97500D01*
Y763324D01*
X105424D01*
Y763000D01*
Y761878D01*
X105360Y761819D01*
X104624Y761530D01*
X104164Y761882D01*
X103361Y762215D01*
X102500Y762328D01*
X101638Y762215D01*
X100836Y761882D01*
X100146Y761354D01*
X99617Y760664D01*
X99285Y759862D01*
X99172Y759000D01*
X99037Y758847D01*
X97500D01*
Y760700D01*
X79400D01*
Y752100D01*
X97500D01*
Y753953D01*
X101900D01*
X102681Y754108D01*
X102836Y754139D01*
X103630Y754670D01*
X104230Y755270D01*
X104624Y755858D01*
X105424Y755616D01*
Y753696D01*
X105285Y753362D01*
X105172Y752500D01*
X105285Y751639D01*
X105424Y751304D01*
Y739274D01*
X98300Y732151D01*
X97893Y732319D01*
X97893Y732319D01*
X97621Y732432D01*
X97565Y732455D01*
X97521Y732473D01*
X97500Y732482D01*
Y732543D01*
X97500Y732742D01*
Y732763D01*
Y732763D01*
Y740700D01*
X79400D01*
Y732100D01*
X96837D01*
X96837Y732100D01*
X96858D01*
X97057Y732100D01*
X97118D01*
X97127Y732079D01*
X97145Y732035D01*
X97168Y731979D01*
X97281Y731707D01*
X97281Y731707D01*
X97449Y731300D01*
X89825Y723675D01*
X89336Y723038D01*
X89029Y722296D01*
X88924Y721500D01*
Y718129D01*
X88124Y717701D01*
X87950Y717818D01*
Y723343D01*
X78050D01*
Y712657D01*
X80310D01*
X87066Y705900D01*
X84733Y703567D01*
X84491Y703324D01*
X81215D01*
Y704269D01*
X73285D01*
Y703469D01*
X71250D01*
Y700500D01*
Y697532D01*
X72719D01*
X72817Y697434D01*
X72578Y696541D01*
X72565Y696537D01*
X71100D01*
X69977Y696389D01*
X68931Y695956D01*
X68033Y695267D01*
X61633Y688867D01*
X60944Y687969D01*
X60800Y687621D01*
X60000Y687780D01*
Y715623D01*
X60496Y716004D01*
X61057Y716735D01*
X61410Y717586D01*
X61464Y718000D01*
X58000D01*
Y719000D01*
X61464D01*
X61410Y719414D01*
X61057Y720265D01*
X60496Y720996D01*
X60000Y721377D01*
Y722954D01*
X60665Y723399D01*
X60878Y723311D01*
X62000Y723163D01*
X63122Y723311D01*
X64169Y723744D01*
X65067Y724433D01*
X65756Y725331D01*
X66189Y726377D01*
X66337Y727500D01*
X66189Y728622D01*
X65756Y729669D01*
X65067Y730567D01*
X64169Y731256D01*
X64062Y731300D01*
X64222Y732100D01*
X78000D01*
Y740700D01*
X60243D01*
Y742100D01*
X78000D01*
Y750700D01*
X60000D01*
Y752659D01*
X60700Y752900D01*
X60800Y752900D01*
X68450D01*
Y756400D01*
Y759900D01*
X60800D01*
X60700Y759900D01*
X60000Y760141D01*
Y762100D01*
X78000D01*
Y770700D01*
X75111D01*
X74683Y771500D01*
X74718Y771553D01*
X89000D01*
X89781Y771708D01*
X89936Y771739D01*
X90730Y772270D01*
X100730Y782270D01*
X101261Y783064D01*
X101447Y784000D01*
Y801583D01*
X102247Y802072D01*
X102877Y801811D01*
D02*
G37*
G36*
X288557Y705871D02*
Y692300D01*
X288728Y691442D01*
X289214Y690714D01*
X291747Y688180D01*
Y685391D01*
X292785D01*
Y678731D01*
X302757D01*
Y669466D01*
X302579Y669393D01*
X301577Y668623D01*
X300807Y667621D01*
X300416Y666675D01*
X299584D01*
X299193Y667621D01*
X298423Y668623D01*
X297421Y669393D01*
X296253Y669876D01*
X295000Y670041D01*
X293747Y669876D01*
X292579Y669393D01*
X291577Y668623D01*
X290807Y667621D01*
X290323Y666453D01*
X290159Y665200D01*
Y664800D01*
X290323Y663547D01*
X290742Y662537D01*
X290404Y661737D01*
X279596D01*
X279258Y662537D01*
X279677Y663547D01*
X279841Y664800D01*
Y665200D01*
X279677Y666453D01*
X279193Y667621D01*
X278423Y668623D01*
X277421Y669393D01*
X277243Y669466D01*
Y680750D01*
X277215Y680890D01*
Y686269D01*
X277768Y686285D01*
X277768D01*
Y694215D01*
X276969D01*
Y696250D01*
X274000D01*
Y696750D01*
X273500D01*
Y699915D01*
X271031D01*
X270453Y700450D01*
Y700809D01*
X267000D01*
Y697250D01*
X266000D01*
Y700809D01*
X262547D01*
X262547Y700809D01*
Y700809D01*
X262547Y700809D01*
X261843Y701041D01*
Y702600D01*
X261672Y703458D01*
X261186Y704186D01*
X258515Y706857D01*
X258847Y707657D01*
X268037D01*
X268279Y706857D01*
X268198Y706802D01*
X267645Y705975D01*
X267550Y705500D01*
X272449D01*
X272355Y705975D01*
X271802Y706802D01*
X271721Y706857D01*
X271964Y707657D01*
X275771D01*
X282257Y701171D01*
Y679138D01*
X282146Y679054D01*
X281617Y678364D01*
X281285Y677562D01*
X281171Y676700D01*
X281285Y675839D01*
X281617Y675036D01*
X282146Y674346D01*
X282836Y673817D01*
X283639Y673485D01*
X284500Y673372D01*
X285362Y673485D01*
X286164Y673817D01*
X286854Y674346D01*
X287383Y675036D01*
X287715Y675839D01*
X287828Y676700D01*
X287715Y677562D01*
X287383Y678364D01*
X286854Y679054D01*
X286743Y679138D01*
Y702100D01*
X286572Y702958D01*
X286086Y703686D01*
X281254Y708518D01*
X281561Y709257D01*
X285171D01*
X288557Y705871D01*
D02*
G37*
G36*
X248579Y707057D02*
X248198Y706802D01*
X247645Y705975D01*
X247551Y705500D01*
X252587D01*
X253200Y705828D01*
X257357Y701671D01*
Y700555D01*
X256968Y699915D01*
X254500D01*
Y696750D01*
X253500D01*
Y699915D01*
X251031D01*
X250453Y700450D01*
Y700809D01*
X247000D01*
Y697250D01*
X246000D01*
Y700809D01*
X242547D01*
X242547Y700809D01*
Y700809D01*
X242547Y700809D01*
X241843Y701041D01*
Y707857D01*
X248336D01*
X248579Y707057D01*
D02*
G37*
G36*
X140046Y714218D02*
X128014Y702186D01*
X127528Y701458D01*
X127357Y700600D01*
Y700555D01*
X126969Y699915D01*
X124500D01*
Y696750D01*
X123500D01*
Y699915D01*
X121031D01*
X120453Y700450D01*
Y700809D01*
X117000D01*
Y697250D01*
X116000D01*
Y700809D01*
X112547D01*
X112343Y701524D01*
Y703871D01*
X123429Y714957D01*
X139739D01*
X140046Y714218D01*
D02*
G37*
G36*
X173650Y791066D02*
Y789900D01*
X173967D01*
X174450Y789300D01*
Y787000D01*
X178250D01*
Y786500D01*
X178750D01*
Y783700D01*
X180285D01*
Y782443D01*
X171737D01*
X171263Y782807D01*
X171261Y783233D01*
X171376Y783645D01*
X172202Y784198D01*
X172755Y785024D01*
X172850Y785500D01*
X170400D01*
Y786500D01*
X172850D01*
X172755Y786975D01*
X172202Y787802D01*
X171376Y788355D01*
X171195Y788391D01*
X170931Y789259D01*
X172850Y791178D01*
X173650Y791066D01*
D02*
G37*
G36*
X60944Y523831D02*
X61633Y522933D01*
X69163Y515404D01*
Y513917D01*
X69117Y513875D01*
X68363Y513562D01*
X67775Y513955D01*
X66800Y514149D01*
X65800D01*
Y510100D01*
Y506051D01*
X66800D01*
X67775Y506245D01*
X68363Y506638D01*
X69117Y506325D01*
X69163Y506283D01*
Y463917D01*
X69117Y463875D01*
X68363Y463562D01*
X67775Y463955D01*
X66800Y464149D01*
X65800D01*
Y460100D01*
Y456051D01*
X66800D01*
X67775Y456245D01*
X68091Y456456D01*
X68601Y455834D01*
X61633Y448867D01*
X60944Y447969D01*
X60800Y447621D01*
X60000Y447780D01*
Y480087D01*
X60399Y480252D01*
X61558Y481142D01*
X62448Y482301D01*
X63007Y483651D01*
X63198Y485100D01*
X63007Y486549D01*
X62448Y487899D01*
X61558Y489058D01*
X60399Y489948D01*
X60000Y490113D01*
Y524020D01*
X60800Y524179D01*
X60944Y523831D01*
D02*
G37*
G36*
X368655Y704929D02*
Y684000D01*
X368833Y683103D01*
X369342Y682342D01*
X375335Y676348D01*
X375029Y675609D01*
X374747D01*
Y666891D01*
Y659391D01*
X377155D01*
Y650000D01*
X106279D01*
X105973Y650739D01*
X108297Y653063D01*
X351400D01*
X352522Y653211D01*
X353569Y653644D01*
X354467Y654333D01*
X358067Y657933D01*
X358756Y658832D01*
X359189Y659877D01*
X359337Y661000D01*
Y662728D01*
X359584Y663325D01*
X360416D01*
X360807Y662379D01*
X361577Y661377D01*
X362579Y660607D01*
X363747Y660123D01*
X365000Y659959D01*
X366253Y660123D01*
X367421Y660607D01*
X368423Y661377D01*
X369193Y662379D01*
X369676Y663547D01*
X369841Y664800D01*
Y665200D01*
X369676Y666453D01*
X369193Y667621D01*
X368423Y668623D01*
X367421Y669393D01*
X367243Y669466D01*
Y680750D01*
X367215Y680890D01*
Y686269D01*
X367769Y686285D01*
X367769D01*
Y694215D01*
X366968D01*
Y696250D01*
X364000D01*
Y696750D01*
X363500D01*
Y699915D01*
X361032D01*
X360453Y700450D01*
Y700809D01*
X357000D01*
Y697250D01*
X356500D01*
Y696750D01*
X352547D01*
Y694675D01*
X352485Y694613D01*
X351702Y694848D01*
X351643Y694902D01*
Y710000D01*
X351472Y710858D01*
X350986Y711586D01*
X347656Y714916D01*
X347962Y715655D01*
X357929D01*
X368655Y704929D01*
D02*
G37*
G36*
X249894Y779146D02*
X250827Y778960D01*
X251760Y779146D01*
X251811Y779180D01*
X251863Y779146D01*
X252205Y779078D01*
X252632Y778566D01*
X252689Y778186D01*
X252553Y777500D01*
Y772500D01*
X252708Y771719D01*
X252739Y771564D01*
X253270Y770770D01*
X254270Y769770D01*
X255064Y769239D01*
X255219Y769208D01*
X256000Y769053D01*
X256319D01*
X256524Y768614D01*
X256634Y768297D01*
X256460Y767421D01*
X256646Y766489D01*
X256680Y766437D01*
X256646Y766386D01*
X256460Y765453D01*
X256625Y764623D01*
X256639Y764508D01*
X256193Y763757D01*
X256020Y763723D01*
X255459Y763934D01*
X255115Y764174D01*
X255055Y764475D01*
X254502Y765302D01*
X253676Y765855D01*
X253200Y765949D01*
Y763500D01*
X252700D01*
Y763000D01*
X250251D01*
X250345Y762525D01*
X250898Y761698D01*
X251725Y761145D01*
X251869Y761116D01*
X252090Y760386D01*
X251585Y759750D01*
X250910Y759694D01*
X250627Y759766D01*
X250610Y759780D01*
X250554Y759854D01*
X249864Y760383D01*
X249061Y760715D01*
X248200Y760828D01*
X247339Y760715D01*
X246536Y760383D01*
X245938Y759924D01*
X237460D01*
X237454Y759932D01*
X236764Y760461D01*
X235962Y760794D01*
X235100Y760907D01*
X234239Y760794D01*
X233436Y760461D01*
X232746Y759932D01*
X232740Y759924D01*
X230872D01*
X230831Y759985D01*
X229611Y761205D01*
X228850Y761714D01*
X227953Y761892D01*
X223803D01*
X223382Y762692D01*
X223540Y763484D01*
X223354Y764417D01*
X223320Y764468D01*
X223354Y764520D01*
X223540Y765453D01*
X223375Y766282D01*
X223803Y767045D01*
X224190D01*
X225087Y767223D01*
X225848Y767732D01*
X227258Y769142D01*
X227767Y769903D01*
X227945Y770800D01*
X227945Y770800D01*
Y776300D01*
X227767Y777197D01*
X227258Y777958D01*
X227039Y778178D01*
X227116Y778543D01*
X227357Y778991D01*
X228137Y779146D01*
X228189Y779180D01*
X228240Y779146D01*
X229173Y778960D01*
X230106Y779146D01*
X230157Y779180D01*
X230209Y779146D01*
X231142Y778960D01*
X232074Y779146D01*
X232126Y779180D01*
X232177Y779146D01*
X233110Y778960D01*
X233546Y778231D01*
X233418Y778064D01*
X233085Y777261D01*
X232972Y776400D01*
X233085Y775538D01*
X233418Y774736D01*
X233946Y774046D01*
X234636Y773518D01*
X235438Y773185D01*
X236300Y773071D01*
X237161Y773185D01*
X237964Y773518D01*
X238654Y774046D01*
X239182Y774736D01*
X239515Y775538D01*
X239560Y775880D01*
X239871Y776064D01*
X240758Y775661D01*
X240845Y775224D01*
X241398Y774398D01*
X242225Y773845D01*
X242700Y773750D01*
Y776200D01*
X243200D01*
Y776700D01*
X245650D01*
X245555Y777176D01*
X245002Y778002D01*
X244734Y778182D01*
X244875Y778766D01*
X244989Y778974D01*
X245854Y779146D01*
X245905Y779180D01*
X245957Y779146D01*
X246890Y778960D01*
X247822Y779146D01*
X247874Y779180D01*
X247925Y779146D01*
X248858Y778960D01*
X249791Y779146D01*
X249843Y779180D01*
X249894Y779146D01*
D02*
G37*
G36*
X327157Y706371D02*
Y700637D01*
X326969Y699915D01*
X324500D01*
Y696750D01*
X323500D01*
Y699915D01*
X321031D01*
X320453Y700450D01*
Y700809D01*
X317000D01*
Y697250D01*
X316500D01*
Y696750D01*
X312547D01*
Y694675D01*
X312418Y694545D01*
X311404Y694646D01*
X311343Y694742D01*
Y708500D01*
X311172Y709358D01*
X310686Y710086D01*
X309054Y711718D01*
X309361Y712457D01*
X321071D01*
X327157Y706371D01*
D02*
G37*
G36*
X158546Y712618D02*
X148014Y702086D01*
X147528Y701358D01*
X147367Y700550D01*
X146968Y699915D01*
X144500D01*
Y696750D01*
X143500D01*
Y699915D01*
X141032D01*
X140453Y700450D01*
Y700809D01*
X137000D01*
Y697250D01*
X136000D01*
Y700809D01*
X134027D01*
X133720Y701548D01*
X136724Y704552D01*
X137592Y704289D01*
X137645Y704025D01*
X138198Y703198D01*
X139024Y702645D01*
X139500Y702551D01*
Y705000D01*
X140000D01*
Y705500D01*
X142449D01*
X142355Y705975D01*
X141802Y706802D01*
X140975Y707355D01*
X140711Y707408D01*
X140448Y708276D01*
X145529Y713357D01*
X158239D01*
X158546Y712618D01*
D02*
G37*
G36*
X232746Y755225D02*
X233436Y754696D01*
X234239Y754364D01*
X235100Y754250D01*
X235728Y754333D01*
X236241Y753876D01*
X236363Y753664D01*
X236350Y753600D01*
X238800D01*
Y753100D01*
X239300D01*
Y750651D01*
X239775Y750745D01*
X239808Y750767D01*
X240608Y750339D01*
Y746303D01*
X239808Y745882D01*
X239016Y746040D01*
X238083Y745854D01*
X238032Y745820D01*
X237980Y745854D01*
X237047Y746040D01*
X236115Y745854D01*
X236063Y745820D01*
X236012Y745854D01*
X235079Y746040D01*
X234146Y745854D01*
X234095Y745820D01*
X234043Y745854D01*
X233110Y746040D01*
X232318Y745882D01*
X231518Y746303D01*
Y755234D01*
X232740D01*
X232746Y755225D01*
D02*
G37*
G36*
X167157Y700637D02*
X166969Y699915D01*
X164500D01*
Y696750D01*
X163500D01*
Y699915D01*
X161031D01*
X160453Y700450D01*
Y700809D01*
X157000D01*
Y697250D01*
X156000D01*
Y700809D01*
X154127D01*
X153820Y701548D01*
X156741Y704469D01*
X157609Y704206D01*
X157645Y704025D01*
X158198Y703198D01*
X159025Y702645D01*
X159500Y702551D01*
Y705000D01*
X160000D01*
Y705500D01*
X162450D01*
X162355Y705975D01*
X161802Y706802D01*
X160976Y707355D01*
X160794Y707391D01*
X160531Y708259D01*
X164029Y711757D01*
X167157D01*
Y700637D01*
D02*
G37*
G36*
X223517Y730536D02*
X224046Y729846D01*
X224736Y729318D01*
X225538Y728985D01*
X226400Y728871D01*
X226855Y728473D01*
Y713960D01*
X226846Y713954D01*
X226318Y713264D01*
X225985Y712462D01*
X225871Y711600D01*
X225985Y710739D01*
X226318Y709936D01*
X226846Y709246D01*
X227536Y708717D01*
X228339Y708385D01*
X229200Y708272D01*
X230062Y708385D01*
X230864Y708717D01*
X231554Y709246D01*
X232083Y709936D01*
X232415Y710739D01*
X232525Y711572D01*
X232611Y711637D01*
X233291Y711937D01*
X237357Y707871D01*
Y700555D01*
X236968Y699915D01*
X234500D01*
Y696750D01*
X233500D01*
Y699915D01*
X231031D01*
X230453Y700450D01*
Y700809D01*
X227000D01*
Y697250D01*
X226500D01*
Y696750D01*
X222547D01*
Y694675D01*
X221982Y694109D01*
X221747D01*
X221143Y694582D01*
Y730164D01*
X221745Y730692D01*
X221900Y730672D01*
X222762Y730785D01*
X223319Y731016D01*
X223517Y730536D01*
D02*
G37*
G36*
X306857Y707571D02*
Y700481D01*
X306291Y699915D01*
X304500D01*
Y696750D01*
X303500D01*
Y699915D01*
X301031D01*
X300453Y700450D01*
Y700809D01*
X297000D01*
Y697250D01*
X296000D01*
Y700809D01*
X293043D01*
Y706800D01*
X292872Y707658D01*
X292386Y708386D01*
X290654Y710118D01*
X290961Y710857D01*
X303571D01*
X306857Y707571D01*
D02*
G37*
G36*
X347157Y709071D02*
Y700637D01*
X346969Y699915D01*
X344500D01*
Y696750D01*
X343500D01*
Y699915D01*
X341032D01*
X340453Y700450D01*
Y700809D01*
X337000D01*
Y697250D01*
X336500D01*
Y696750D01*
X332547D01*
Y694675D01*
X332486Y694613D01*
X331702Y694848D01*
X331643Y694902D01*
Y707300D01*
X331472Y708158D01*
X330986Y708886D01*
X326554Y713318D01*
X326861Y714057D01*
X342171D01*
X347157Y709071D01*
D02*
G37*
G36*
X185957Y725765D02*
Y700481D01*
X185391Y699915D01*
X184500D01*
Y696750D01*
X183500D01*
Y699915D01*
X181032D01*
X180453Y700450D01*
Y700809D01*
X177000D01*
Y697250D01*
X176500D01*
Y696750D01*
X172547D01*
Y694675D01*
X172485Y694613D01*
X171702Y694848D01*
X171643Y694902D01*
Y712496D01*
X185218Y726071D01*
X185957Y725765D01*
D02*
G37*
G36*
X212945Y746804D02*
X213473Y746013D01*
X214264Y745484D01*
X215197Y745299D01*
X216657D01*
Y700481D01*
X216091Y699915D01*
X214500D01*
Y696750D01*
X213500D01*
Y699915D01*
X211032D01*
X210453Y700450D01*
Y700809D01*
X207000D01*
Y697250D01*
X206000D01*
Y700809D01*
X203343D01*
Y739671D01*
X211134Y747462D01*
X212814D01*
X212945Y746804D01*
D02*
G37*
G36*
X430000Y399755D02*
Y360000D01*
X419467D01*
X419013Y360849D01*
X418263Y361763D01*
X417349Y362513D01*
X416307Y363070D01*
X415176Y363413D01*
X414500Y363480D01*
Y357500D01*
X413500D01*
Y363480D01*
X412824Y363413D01*
X411693Y363070D01*
X410650Y362513D01*
X409737Y361763D01*
X408987Y360849D01*
X408533Y360000D01*
X400000D01*
Y385667D01*
X406170D01*
X409168Y382668D01*
X410204Y381819D01*
X411385Y381187D01*
X412667Y380798D01*
X414000Y380667D01*
X415333Y380798D01*
X416615Y381187D01*
X417796Y381819D01*
X418832Y382668D01*
X419681Y383704D01*
X420313Y384885D01*
X420702Y386167D01*
X420833Y387500D01*
X420816Y387668D01*
X420812Y387717D01*
X420935Y387866D01*
X421705Y389308D01*
X422180Y390873D01*
X422340Y392500D01*
Y399424D01*
X427300D01*
X428096Y399529D01*
X428838Y399836D01*
X429200Y400113D01*
X430000Y399755D01*
D02*
G37*
G36*
X426000Y811000D02*
X430000Y809500D01*
Y770550D01*
X426200D01*
Y760450D01*
X430000D01*
Y740550D01*
X428084D01*
X427837Y740797D01*
Y750000D01*
X427689Y751123D01*
X427256Y752169D01*
X426567Y753067D01*
X425668Y753756D01*
X424622Y754189D01*
X423500Y754337D01*
X422377Y754189D01*
X421332Y753756D01*
X420433Y753067D01*
X419744Y752169D01*
X419311Y751123D01*
X419163Y750000D01*
Y739000D01*
X419311Y737878D01*
X419744Y736831D01*
X420433Y735933D01*
X423933Y732433D01*
X424831Y731744D01*
X425878Y731311D01*
X426200Y731268D01*
Y730450D01*
X428163D01*
Y717001D01*
X427363Y716607D01*
X427169Y716756D01*
X426123Y717189D01*
X425000Y717337D01*
X424947Y717384D01*
Y723000D01*
X424761Y723936D01*
X424230Y724730D01*
X401730Y747230D01*
X400936Y747761D01*
X400781Y747792D01*
X400000Y747947D01*
X387524D01*
X387079Y748612D01*
X387189Y748877D01*
X387337Y750000D01*
Y750450D01*
X398800D01*
Y760550D01*
X398241D01*
X398000Y761250D01*
X398000Y761350D01*
Y765000D01*
X387000D01*
Y761350D01*
X387000Y761250D01*
X386759Y760550D01*
X386200D01*
Y759837D01*
X384000D01*
X383008Y759706D01*
X382877Y759689D01*
X381831Y759256D01*
X380933Y758567D01*
X379933Y757567D01*
X379244Y756669D01*
X378811Y755622D01*
X378663Y754500D01*
Y750000D01*
X378811Y748877D01*
X379244Y747831D01*
X379933Y746933D01*
X380176Y746747D01*
X379904Y745947D01*
X298171D01*
X297744Y746458D01*
X298066Y747198D01*
X298922Y747311D01*
X299969Y747744D01*
X300867Y748433D01*
X301556Y749332D01*
X301989Y750378D01*
X302137Y751500D01*
Y760403D01*
X303584Y761850D01*
X312500D01*
Y761850D01*
X312900D01*
Y761850D01*
X322500D01*
Y761850D01*
X322900D01*
Y761850D01*
X332500D01*
Y761850D01*
X332900D01*
Y761850D01*
X342500D01*
Y761850D01*
X342900D01*
Y761850D01*
X352500D01*
Y761850D01*
X352900D01*
Y761850D01*
X362500D01*
Y761850D01*
X362900D01*
Y761850D01*
X372500D01*
Y761850D01*
X372900D01*
Y761850D01*
X382500D01*
Y773950D01*
X372900D01*
Y773950D01*
X372500D01*
Y773950D01*
X362900D01*
Y773950D01*
X362500D01*
Y773950D01*
X352900D01*
Y773950D01*
X352500D01*
Y773950D01*
X342900D01*
Y773950D01*
X342500D01*
Y773950D01*
X332900D01*
Y773950D01*
X332500D01*
Y773950D01*
X322900D01*
Y773950D01*
X322500D01*
Y773950D01*
X312900D01*
Y773950D01*
X312500D01*
Y773950D01*
X307784D01*
X300917Y780817D01*
X300019Y781506D01*
X298973Y781939D01*
X297850Y782087D01*
X286800D01*
Y785757D01*
X304800D01*
X305658Y785928D01*
X306386Y786414D01*
X307485Y787513D01*
X307800Y787471D01*
X308662Y787585D01*
X309464Y787918D01*
X310154Y788446D01*
X310683Y789136D01*
X311015Y789938D01*
X311128Y790800D01*
X311015Y791662D01*
X310683Y792464D01*
X310154Y793154D01*
X309943Y793315D01*
Y794350D01*
X312500D01*
Y794350D01*
X312900D01*
Y794350D01*
X315457D01*
Y793162D01*
X315446Y793154D01*
X314917Y792464D01*
X314585Y791662D01*
X314472Y790800D01*
X314585Y789938D01*
X314917Y789136D01*
X315446Y788446D01*
X316136Y787918D01*
X316938Y787585D01*
X317800Y787471D01*
X318661Y787585D01*
X319464Y787918D01*
X320154Y788446D01*
X320683Y789136D01*
X321015Y789938D01*
X321129Y790800D01*
X321015Y791662D01*
X320683Y792464D01*
X320154Y793154D01*
X319943Y793315D01*
Y794350D01*
X322500D01*
Y794350D01*
X322900D01*
Y794350D01*
X325457D01*
Y793162D01*
X325446Y793154D01*
X324918Y792464D01*
X324585Y791662D01*
X324471Y790800D01*
X324585Y789938D01*
X324918Y789136D01*
X325446Y788446D01*
X326136Y787918D01*
X326939Y787585D01*
X327800Y787471D01*
X328661Y787585D01*
X329464Y787918D01*
X330154Y788446D01*
X330682Y789136D01*
X331015Y789938D01*
X331129Y790800D01*
X331015Y791662D01*
X330682Y792464D01*
X330154Y793154D01*
X329943Y793315D01*
Y794350D01*
X332500D01*
Y794350D01*
X332900D01*
Y794350D01*
X335457D01*
Y793162D01*
X335446Y793154D01*
X334917Y792464D01*
X334585Y791662D01*
X334472Y790800D01*
X334585Y789938D01*
X334917Y789136D01*
X335446Y788446D01*
X336136Y787918D01*
X336939Y787585D01*
X337800Y787471D01*
X338662Y787585D01*
X339464Y787918D01*
X340154Y788446D01*
X340683Y789136D01*
X341015Y789938D01*
X341128Y790800D01*
X341015Y791662D01*
X340683Y792464D01*
X340154Y793154D01*
X339943Y793315D01*
Y794350D01*
X342500D01*
Y794350D01*
X342900D01*
Y794350D01*
X345457D01*
Y793162D01*
X345446Y793154D01*
X344917Y792464D01*
X344585Y791662D01*
X344472Y790800D01*
X344585Y789938D01*
X344917Y789136D01*
X345446Y788446D01*
X346136Y787918D01*
X346938Y787585D01*
X347800Y787471D01*
X348661Y787585D01*
X349464Y787918D01*
X350154Y788446D01*
X350682Y789136D01*
X351015Y789938D01*
X351129Y790800D01*
X351015Y791662D01*
X350682Y792464D01*
X350154Y793154D01*
X349943Y793315D01*
Y794350D01*
X352500D01*
Y794350D01*
X352900D01*
Y794350D01*
X355457D01*
Y793162D01*
X355446Y793154D01*
X354918Y792464D01*
X354585Y791662D01*
X354471Y790800D01*
X354585Y789938D01*
X354918Y789136D01*
X355446Y788446D01*
X356136Y787918D01*
X356939Y787585D01*
X357800Y787471D01*
X358662Y787585D01*
X359464Y787918D01*
X360154Y788446D01*
X360683Y789136D01*
X361015Y789938D01*
X361128Y790800D01*
X361015Y791662D01*
X360683Y792464D01*
X360154Y793154D01*
X359943Y793315D01*
Y794350D01*
X362500D01*
Y794350D01*
X362900D01*
Y794350D01*
X365457D01*
Y793162D01*
X365446Y793154D01*
X364917Y792464D01*
X364585Y791662D01*
X364472Y790800D01*
X364585Y789938D01*
X364917Y789136D01*
X365446Y788446D01*
X366136Y787918D01*
X366938Y787585D01*
X367800Y787471D01*
X368661Y787585D01*
X369464Y787918D01*
X370154Y788446D01*
X370683Y789136D01*
X371015Y789938D01*
X371129Y790800D01*
X371015Y791662D01*
X370683Y792464D01*
X370154Y793154D01*
X369943Y793315D01*
Y794350D01*
X372500D01*
Y794350D01*
X372900D01*
Y794350D01*
X375457D01*
Y793162D01*
X375446Y793154D01*
X374918Y792464D01*
X374585Y791662D01*
X374471Y790800D01*
X374585Y789938D01*
X374918Y789136D01*
X375446Y788446D01*
X376136Y787918D01*
X376939Y787585D01*
X377800Y787471D01*
X378661Y787585D01*
X379464Y787918D01*
X380154Y788446D01*
X380682Y789136D01*
X381015Y789938D01*
X381129Y790800D01*
X381015Y791662D01*
X380682Y792464D01*
X380154Y793154D01*
X379943Y793315D01*
Y794350D01*
X382500D01*
Y806450D01*
X380043D01*
Y806900D01*
X379872Y807758D01*
X379386Y808486D01*
X373611Y814261D01*
X373918Y815000D01*
X424500D01*
X426000Y811000D01*
D02*
G37*
G36*
X262012Y814261D02*
X250244Y802493D01*
X249641Y803021D01*
X249883Y803336D01*
X250215Y804138D01*
X250328Y805000D01*
X250215Y805861D01*
X249883Y806664D01*
X249354Y807354D01*
X248664Y807882D01*
X247862Y808215D01*
X247000Y808329D01*
X246139Y808215D01*
X245336Y807882D01*
X244768Y807447D01*
X164500D01*
X163564Y807261D01*
X162770Y806730D01*
X153270Y797230D01*
X152739Y796436D01*
X152708Y796281D01*
X152553Y795500D01*
Y740014D01*
X151311Y738771D01*
X150443Y739035D01*
X150355Y739475D01*
X149802Y740302D01*
X148976Y740855D01*
X148500Y740949D01*
Y738500D01*
X148000D01*
Y738000D01*
X145551D01*
X145601Y737747D01*
X145142Y736947D01*
X133843D01*
Y739450D01*
X123157D01*
Y729550D01*
X123157D01*
X123036Y728800D01*
X120463D01*
X119604Y728630D01*
X118876Y728144D01*
X100457Y709724D01*
X99970Y708996D01*
X99800Y708138D01*
Y672767D01*
X75963Y648930D01*
X75224Y649236D01*
Y664730D01*
X81094Y670600D01*
X86900D01*
Y672918D01*
X87700Y673077D01*
X87720Y673029D01*
X88505Y672005D01*
X89529Y671220D01*
X90721Y670726D01*
X92000Y670558D01*
X93279Y670726D01*
X94471Y671220D01*
X95495Y672005D01*
X96280Y673029D01*
X96774Y674221D01*
X96942Y675500D01*
X96774Y676779D01*
X96280Y677971D01*
X95495Y678995D01*
X94471Y679780D01*
X93279Y680274D01*
X92000Y680442D01*
X90721Y680274D01*
X89529Y679780D01*
X88505Y678995D01*
X87720Y677971D01*
X87700Y677923D01*
X86900Y678082D01*
Y680400D01*
X79426D01*
X79102Y680938D01*
X79009Y681200D01*
X79315Y681939D01*
X79428Y682800D01*
X79315Y683662D01*
X78983Y684464D01*
X78454Y685154D01*
X77764Y685682D01*
X76961Y686015D01*
X76100Y686129D01*
X75239Y686015D01*
X74436Y685682D01*
X74360Y685624D01*
X72300D01*
X71712Y685547D01*
X71442Y685879D01*
X71301Y686267D01*
X72896Y687863D01*
X79500D01*
X80623Y688011D01*
X81669Y688444D01*
X82567Y689133D01*
X90867Y697433D01*
X96267Y702833D01*
X96267Y702833D01*
X96956Y703731D01*
X97389Y704777D01*
X97537Y705900D01*
X97389Y707022D01*
X96956Y708069D01*
X96267Y708967D01*
X95076Y710157D01*
Y720226D01*
X109524Y734674D01*
X112247D01*
Y733391D01*
X121753D01*
Y740891D01*
Y742174D01*
X123157D01*
Y740550D01*
X133843D01*
Y750450D01*
X123157D01*
Y748326D01*
X121753D01*
Y749609D01*
X112247D01*
X112247Y749609D01*
Y749609D01*
X112247Y749609D01*
X111576Y749921D01*
Y751304D01*
X111715Y751639D01*
X111828Y752500D01*
X111715Y753362D01*
X111576Y753696D01*
Y758162D01*
X111747Y758891D01*
X121253D01*
Y766391D01*
Y767674D01*
X123157D01*
Y766050D01*
X133053D01*
Y764950D01*
X123157D01*
Y755050D01*
X133843D01*
Y758383D01*
X137230Y761770D01*
X137761Y762564D01*
X137947Y763500D01*
Y776268D01*
X138382Y776836D01*
X138715Y777638D01*
X138829Y778500D01*
X138715Y779361D01*
X138382Y780164D01*
X137854Y780854D01*
X137164Y781383D01*
X136362Y781715D01*
X135500Y781828D01*
X134639Y781715D01*
X133836Y781383D01*
X133146Y780854D01*
X132617Y780164D01*
X132285Y779361D01*
X132171Y778500D01*
X132285Y777638D01*
X132617Y776836D01*
X132684Y776750D01*
X132289Y775950D01*
X123157D01*
Y773826D01*
X121253D01*
Y775109D01*
X111747D01*
X111576Y775838D01*
Y785891D01*
X120253D01*
Y793391D01*
Y794674D01*
X122657D01*
Y793050D01*
X133343D01*
Y801924D01*
X148804D01*
X149138Y801785D01*
X150000Y801672D01*
X150862Y801785D01*
X151664Y802118D01*
X152354Y802646D01*
X152883Y803336D01*
X153215Y804138D01*
X153329Y805000D01*
X153215Y805861D01*
X152883Y806664D01*
X152354Y807354D01*
X151664Y807882D01*
X150862Y808215D01*
X150000Y808329D01*
X149138Y808215D01*
X148804Y808076D01*
X118715D01*
Y813231D01*
Y814757D01*
X140703D01*
X140785Y814139D01*
X141118Y813336D01*
X141646Y812646D01*
X142336Y812117D01*
X143139Y811785D01*
X144000Y811672D01*
X144861Y811785D01*
X145664Y812117D01*
X146354Y812646D01*
X146882Y813336D01*
X147215Y814139D01*
X147328Y815000D01*
X261706D01*
X262012Y814261D01*
D02*
G37*
G36*
X302900Y794350D02*
X305457D01*
Y793162D01*
X305446Y793154D01*
X304918Y792464D01*
X304585Y791662D01*
X304478Y790850D01*
X303871Y790243D01*
X286104D01*
X286000Y791000D01*
X286000Y791043D01*
Y797750D01*
X278000D01*
Y791043D01*
X278000Y791000D01*
X277896Y790243D01*
X269300D01*
X268442Y790072D01*
X267714Y789586D01*
X264686Y786558D01*
X263947Y786865D01*
Y788268D01*
X264383Y788836D01*
X264715Y789639D01*
X264828Y790500D01*
X264715Y791362D01*
X264383Y792164D01*
X263854Y792854D01*
X263164Y793383D01*
X262473Y793669D01*
X262126Y794454D01*
X274029Y806357D01*
X302900D01*
Y794350D01*
D02*
G37*
G36*
X60944Y407131D02*
X61633Y406233D01*
X68433Y399433D01*
X69167Y398870D01*
Y395000D01*
X69298Y393667D01*
X69687Y392385D01*
X70294Y391250D01*
X69687Y390115D01*
X69298Y388833D01*
X69167Y387500D01*
X69298Y386167D01*
X69687Y384885D01*
X70319Y383704D01*
X71168Y382668D01*
X72204Y381819D01*
X73385Y381187D01*
X74667Y380798D01*
X76000Y380667D01*
X77333Y380798D01*
X78615Y381187D01*
X79796Y381819D01*
X80832Y382668D01*
X83830Y385667D01*
X100000D01*
Y360000D01*
X81467D01*
X81013Y360849D01*
X80263Y361763D01*
X79349Y362513D01*
X78307Y363070D01*
X77176Y363413D01*
X76500Y363480D01*
Y357500D01*
X75500D01*
Y363480D01*
X74824Y363413D01*
X73693Y363070D01*
X72650Y362513D01*
X71737Y361763D01*
X70987Y360849D01*
X70533Y360000D01*
X60000D01*
Y407320D01*
X60800Y407479D01*
X60944Y407131D01*
D02*
G37*
%LPC*%
G36*
X212450Y704500D02*
X210500D01*
Y702551D01*
X210976Y702645D01*
X211802Y703198D01*
X212355Y704025D01*
X212450Y704500D01*
D02*
G37*
G36*
X232450D02*
X230500D01*
Y702551D01*
X230976Y702645D01*
X231802Y703198D01*
X232355Y704025D01*
X232450Y704500D01*
D02*
G37*
G36*
X229500D02*
X227551D01*
X227645Y704025D01*
X228198Y703198D01*
X229025Y702645D01*
X229500Y702551D01*
Y704500D01*
D02*
G37*
G36*
X162450D02*
X160500D01*
Y702551D01*
X160976Y702645D01*
X161802Y703198D01*
X162355Y704025D01*
X162450Y704500D01*
D02*
G37*
G36*
X142449D02*
X140500D01*
Y702551D01*
X140975Y702645D01*
X141802Y703198D01*
X142355Y704025D01*
X142449Y704500D01*
D02*
G37*
G36*
X179500D02*
X177550D01*
X177645Y704025D01*
X178198Y703198D01*
X179025Y702645D01*
X179500Y702551D01*
Y704500D01*
D02*
G37*
G36*
X209500D02*
X207551D01*
X207645Y704025D01*
X208198Y703198D01*
X209025Y702645D01*
X209500Y702551D01*
Y704500D01*
D02*
G37*
G36*
X182449D02*
X180500D01*
Y702551D01*
X180975Y702645D01*
X181802Y703198D01*
X182355Y704025D01*
X182449Y704500D01*
D02*
G37*
G36*
X249500D02*
X247551D01*
X247645Y704025D01*
X248198Y703198D01*
X249025Y702645D01*
X249500Y702551D01*
Y704500D01*
D02*
G37*
G36*
X339500D02*
X337550D01*
X337645Y704025D01*
X338198Y703198D01*
X339024Y702645D01*
X339500Y702551D01*
Y704500D01*
D02*
G37*
G36*
X322449D02*
X320500D01*
Y702551D01*
X320975Y702645D01*
X321802Y703198D01*
X322355Y704025D01*
X322449Y704500D01*
D02*
G37*
G36*
X342449D02*
X340500D01*
Y702551D01*
X340975Y702645D01*
X341802Y703198D01*
X342355Y704025D01*
X342449Y704500D01*
D02*
G37*
G36*
X362450D02*
X360500D01*
Y702551D01*
X360976Y702645D01*
X361802Y703198D01*
X362355Y704025D01*
X362450Y704500D01*
D02*
G37*
G36*
X359500D02*
X357551D01*
X357645Y704025D01*
X358198Y703198D01*
X359025Y702645D01*
X359500Y702551D01*
Y704500D01*
D02*
G37*
G36*
X319500D02*
X317550D01*
X317645Y704025D01*
X318198Y703198D01*
X319024Y702645D01*
X319500Y702551D01*
Y704500D01*
D02*
G37*
G36*
X269500D02*
X267550D01*
X267645Y704025D01*
X268198Y703198D01*
X269024Y702645D01*
X269500Y702551D01*
Y704500D01*
D02*
G37*
G36*
X252449D02*
X250500D01*
Y702551D01*
X250975Y702645D01*
X251802Y703198D01*
X252355Y704025D01*
X252449Y704500D01*
D02*
G37*
G36*
X272449D02*
X270500D01*
Y702551D01*
X270975Y702645D01*
X271802Y703198D01*
X272355Y704025D01*
X272449Y704500D01*
D02*
G37*
G36*
X302449D02*
X300500D01*
Y702551D01*
X300975Y702645D01*
X301802Y703198D01*
X302355Y704025D01*
X302449Y704500D01*
D02*
G37*
G36*
X299500D02*
X297551D01*
X297645Y704025D01*
X298198Y703198D01*
X299025Y702645D01*
X299500Y702551D01*
Y704500D01*
D02*
G37*
G36*
X75500Y372000D02*
X70020D01*
X70087Y371324D01*
X70430Y370193D01*
X70987Y369150D01*
X71737Y368237D01*
X72650Y367487D01*
X73693Y366930D01*
X74824Y366587D01*
X75500Y366520D01*
Y372000D01*
D02*
G37*
G36*
X176000Y700809D02*
X172547D01*
Y697750D01*
X176000D01*
Y700809D01*
D02*
G37*
G36*
X70250Y700000D02*
X67585D01*
Y697532D01*
X70250D01*
Y700000D01*
D02*
G37*
G36*
X226000Y700809D02*
X222547D01*
Y697750D01*
X226000D01*
Y700809D01*
D02*
G37*
G36*
X336000D02*
X332547D01*
Y697750D01*
X336000D01*
Y700809D01*
D02*
G37*
G36*
X316000D02*
X312547D01*
Y697750D01*
X316000D01*
Y700809D01*
D02*
G37*
G36*
X364500Y699915D02*
Y697250D01*
X366968D01*
Y699915D01*
X364500D01*
D02*
G37*
G36*
X64800Y509600D02*
X61251D01*
Y508600D01*
X61445Y507624D01*
X61998Y506798D01*
X62824Y506245D01*
X63800Y506051D01*
X64800D01*
Y509600D01*
D02*
G37*
G36*
Y514149D02*
X63800D01*
X62824Y513955D01*
X61998Y513402D01*
X61445Y512575D01*
X61251Y511600D01*
Y510600D01*
X64800D01*
Y514149D01*
D02*
G37*
G36*
Y464149D02*
X63800D01*
X62824Y463955D01*
X61998Y463402D01*
X61445Y462575D01*
X61251Y461600D01*
Y460600D01*
X64800D01*
Y464149D01*
D02*
G37*
G36*
X274500Y699915D02*
Y697250D01*
X276969D01*
Y699915D01*
X274500D01*
D02*
G37*
G36*
X64800Y459600D02*
X61251D01*
Y458600D01*
X61445Y457624D01*
X61998Y456798D01*
X62824Y456245D01*
X63800Y456051D01*
X64800D01*
Y459600D01*
D02*
G37*
G36*
X70250Y703469D02*
X67585D01*
Y701000D01*
X70250D01*
Y703469D01*
D02*
G37*
G36*
X413500Y372000D02*
X408020D01*
X408087Y371324D01*
X408430Y370193D01*
X408987Y369150D01*
X409737Y368237D01*
X410650Y367487D01*
X411693Y366930D01*
X412824Y366587D01*
X413500Y366520D01*
Y372000D01*
D02*
G37*
G36*
X119500Y704500D02*
X117551D01*
X117645Y704025D01*
X118198Y703198D01*
X119025Y702645D01*
X119500Y702551D01*
Y704500D01*
D02*
G37*
G36*
X81980Y372000D02*
X76500D01*
Y366520D01*
X77176Y366587D01*
X78307Y366930D01*
X79349Y367487D01*
X80263Y368237D01*
X81013Y369150D01*
X81570Y370193D01*
X81913Y371324D01*
X81980Y372000D01*
D02*
G37*
G36*
X122450Y704500D02*
X120500D01*
Y702551D01*
X120975Y702645D01*
X121802Y703198D01*
X122355Y704025D01*
X122450Y704500D01*
D02*
G37*
G36*
X419980Y372000D02*
X414500D01*
Y366520D01*
X415176Y366587D01*
X416307Y366930D01*
X417349Y367487D01*
X418263Y368237D01*
X419013Y369150D01*
X419570Y370193D01*
X419913Y371324D01*
X419980Y372000D01*
D02*
G37*
G36*
X414500Y378480D02*
Y373000D01*
X419980D01*
X419913Y373676D01*
X419570Y374807D01*
X419013Y375850D01*
X418263Y376763D01*
X417349Y377513D01*
X416307Y378070D01*
X415176Y378413D01*
X414500Y378480D01*
D02*
G37*
G36*
X356000Y700809D02*
X352547D01*
Y697750D01*
X356000D01*
Y700809D01*
D02*
G37*
G36*
X413500Y378480D02*
X412824Y378413D01*
X411693Y378070D01*
X410650Y377513D01*
X409737Y376763D01*
X408987Y375850D01*
X408430Y374807D01*
X408087Y373676D01*
X408020Y373000D01*
X413500D01*
Y378480D01*
D02*
G37*
G36*
X75500D02*
X74824Y378413D01*
X73693Y378070D01*
X72650Y377513D01*
X71737Y376763D01*
X70987Y375850D01*
X70430Y374807D01*
X70087Y373676D01*
X70020Y373000D01*
X75500D01*
Y378480D01*
D02*
G37*
G36*
X76500D02*
Y373000D01*
X81980D01*
X81913Y373676D01*
X81570Y374807D01*
X81013Y375850D01*
X80263Y376763D01*
X79349Y377513D01*
X78307Y378070D01*
X77176Y378413D01*
X76500Y378480D01*
D02*
G37*
G36*
X245650Y775700D02*
X243700D01*
Y773750D01*
X244176Y773845D01*
X245002Y774398D01*
X245555Y775224D01*
X245650Y775700D01*
D02*
G37*
G36*
X391964Y774750D02*
X389000D01*
Y771786D01*
X389414Y771840D01*
X390265Y772193D01*
X390996Y772754D01*
X391557Y773485D01*
X391910Y774336D01*
X391964Y774750D01*
D02*
G37*
G36*
X388000D02*
X385036D01*
X385090Y774336D01*
X385443Y773485D01*
X386004Y772754D01*
X386735Y772193D01*
X387586Y771840D01*
X388000Y771786D01*
Y774750D01*
D02*
G37*
G36*
Y778714D02*
X387586Y778660D01*
X386735Y778307D01*
X386004Y777746D01*
X385443Y777015D01*
X385090Y776164D01*
X385036Y775750D01*
X388000D01*
Y778714D01*
D02*
G37*
G36*
X127500Y786500D02*
X123457D01*
Y782850D01*
X127500D01*
Y786500D01*
D02*
G37*
G36*
X416465Y812500D02*
X403536D01*
X401768Y811768D01*
X393232Y803232D01*
X392500Y801464D01*
Y788535D01*
X393232Y786768D01*
X401768Y778232D01*
X403536Y777500D01*
X416465D01*
X418232Y778232D01*
X426768Y786768D01*
X427500Y788535D01*
Y801464D01*
X426768Y803232D01*
X418232Y811768D01*
X416465Y812500D01*
D02*
G37*
G36*
X389000Y778714D02*
Y775750D01*
X391964D01*
X391910Y776164D01*
X391557Y777015D01*
X390996Y777746D01*
X390265Y778307D01*
X389414Y778660D01*
X389000Y778714D01*
D02*
G37*
G36*
X252200Y765949D02*
X251725Y765855D01*
X250898Y765302D01*
X250345Y764475D01*
X250251Y764000D01*
X252200D01*
Y765949D01*
D02*
G37*
G36*
X241484D02*
Y764000D01*
X243434D01*
X243339Y764475D01*
X242787Y765302D01*
X241960Y765855D01*
X241484Y765949D01*
D02*
G37*
G36*
X240484D02*
X240009Y765855D01*
X239182Y765302D01*
X238629Y764475D01*
X238535Y764000D01*
X240484D01*
Y765949D01*
D02*
G37*
G36*
X392000Y769750D02*
X387000D01*
Y766000D01*
X392000D01*
Y769750D01*
D02*
G37*
G36*
X230000Y768049D02*
Y766100D01*
X231949D01*
X231855Y766575D01*
X231302Y767402D01*
X230475Y767955D01*
X230000Y768049D01*
D02*
G37*
G36*
X229000D02*
X228524Y767955D01*
X227698Y767402D01*
X227145Y766575D01*
X227050Y766100D01*
X229000D01*
Y768049D01*
D02*
G37*
G36*
X398000Y769750D02*
X393000D01*
Y766000D01*
X398000D01*
Y769750D01*
D02*
G37*
G36*
X286000Y805500D02*
X282500D01*
Y798750D01*
X286000D01*
Y805500D01*
D02*
G37*
G36*
X281500D02*
X278000D01*
Y798750D01*
X281500D01*
Y805500D01*
D02*
G37*
G36*
X149500Y789950D02*
Y788000D01*
X151450D01*
X151355Y788476D01*
X150802Y789302D01*
X149976Y789855D01*
X149500Y789950D01*
D02*
G37*
G36*
X293000Y802500D02*
X291051D01*
X291145Y802024D01*
X291698Y801198D01*
X292525Y800645D01*
X293000Y800550D01*
Y802500D01*
D02*
G37*
G36*
X294000Y805449D02*
Y803500D01*
X295950D01*
X295855Y803975D01*
X295302Y804802D01*
X294476Y805355D01*
X294000Y805449D01*
D02*
G37*
G36*
X293000D02*
X292525Y805355D01*
X291698Y804802D01*
X291145Y803975D01*
X291051Y803500D01*
X293000D01*
Y805449D01*
D02*
G37*
G36*
X295950Y802500D02*
X294000D01*
Y800550D01*
X294476Y800645D01*
X295302Y801198D01*
X295855Y802024D01*
X295950Y802500D01*
D02*
G37*
G36*
X148500Y787000D02*
X146551D01*
X146645Y786524D01*
X147198Y785698D01*
X148024Y785145D01*
X148500Y785050D01*
Y787000D01*
D02*
G37*
G36*
X177750Y786000D02*
X174450D01*
Y783700D01*
X177750D01*
Y786000D01*
D02*
G37*
G36*
X132543Y786500D02*
X128500D01*
Y782850D01*
X132543D01*
Y786500D01*
D02*
G37*
G36*
X151450Y787000D02*
X149500D01*
Y785050D01*
X149976Y785145D01*
X150802Y785698D01*
X151355Y786524D01*
X151450Y787000D01*
D02*
G37*
G36*
X148500Y789950D02*
X148024Y789855D01*
X147198Y789302D01*
X146645Y788476D01*
X146551Y788000D01*
X148500D01*
Y789950D01*
D02*
G37*
G36*
X132543Y791150D02*
X128500D01*
Y787500D01*
X132543D01*
Y791150D01*
D02*
G37*
G36*
X127500D02*
X123457D01*
Y787500D01*
X127500D01*
Y791150D01*
D02*
G37*
G36*
X231949Y765100D02*
X230000D01*
Y763151D01*
X230475Y763245D01*
X231302Y763798D01*
X231855Y764625D01*
X231949Y765100D01*
D02*
G37*
G36*
X300500Y707449D02*
Y705500D01*
X302449D01*
X302355Y705975D01*
X301802Y706802D01*
X300975Y707355D01*
X300500Y707449D01*
D02*
G37*
G36*
X299500D02*
X299025Y707355D01*
X298198Y706802D01*
X297645Y705975D01*
X297551Y705500D01*
X299500D01*
Y707449D01*
D02*
G37*
G36*
X230500D02*
Y705500D01*
X232450D01*
X232355Y705975D01*
X231802Y706802D01*
X230976Y707355D01*
X230500Y707449D01*
D02*
G37*
G36*
X319500D02*
X319024Y707355D01*
X318198Y706802D01*
X317645Y705975D01*
X317550Y705500D01*
X319500D01*
Y707449D01*
D02*
G37*
G36*
X340500D02*
Y705500D01*
X342449D01*
X342355Y705975D01*
X341802Y706802D01*
X340975Y707355D01*
X340500Y707449D01*
D02*
G37*
G36*
X339500D02*
X339024Y707355D01*
X338198Y706802D01*
X337645Y705975D01*
X337550Y705500D01*
X339500D01*
Y707449D01*
D02*
G37*
G36*
X320500D02*
Y705500D01*
X322449D01*
X322355Y705975D01*
X321802Y706802D01*
X320975Y707355D01*
X320500Y707449D01*
D02*
G37*
G36*
X179500D02*
X179025Y707355D01*
X178198Y706802D01*
X177645Y705975D01*
X177550Y705500D01*
X179500D01*
Y707449D01*
D02*
G37*
G36*
X120500D02*
Y705500D01*
X122450D01*
X122355Y705975D01*
X121802Y706802D01*
X120975Y707355D01*
X120500Y707449D01*
D02*
G37*
G36*
X119500D02*
X119025Y707355D01*
X118198Y706802D01*
X117645Y705975D01*
X117551Y705500D01*
X119500D01*
Y707449D01*
D02*
G37*
G36*
X180500D02*
Y705500D01*
X182449D01*
X182355Y705975D01*
X181802Y706802D01*
X180975Y707355D01*
X180500Y707449D01*
D02*
G37*
G36*
X229500D02*
X229025Y707355D01*
X228198Y706802D01*
X227645Y705975D01*
X227551Y705500D01*
X229500D01*
Y707449D01*
D02*
G37*
G36*
X210500D02*
Y705500D01*
X212450D01*
X212355Y705975D01*
X211802Y706802D01*
X210976Y707355D01*
X210500Y707449D01*
D02*
G37*
G36*
X209500D02*
X209025Y707355D01*
X208198Y706802D01*
X207645Y705975D01*
X207551Y705500D01*
X209500D01*
Y707449D01*
D02*
G37*
G36*
X77200Y755900D02*
X69450D01*
Y752900D01*
X77200D01*
Y755900D01*
D02*
G37*
G36*
X238300Y752600D02*
X236350D01*
X236445Y752125D01*
X236998Y751298D01*
X237825Y750745D01*
X238300Y750651D01*
Y752600D01*
D02*
G37*
G36*
X97500Y750700D02*
X79400D01*
Y742100D01*
X97500D01*
Y750700D01*
D02*
G37*
G36*
X69450Y759900D02*
Y756900D01*
X77200D01*
Y759900D01*
X69450D01*
D02*
G37*
G36*
X229000Y765100D02*
X227050D01*
X227145Y764625D01*
X227698Y763798D01*
X228524Y763245D01*
X229000Y763151D01*
Y765100D01*
D02*
G37*
G36*
X243434Y763000D02*
X241484D01*
Y761051D01*
X241960Y761145D01*
X242787Y761698D01*
X243339Y762525D01*
X243434Y763000D01*
D02*
G37*
G36*
X240484D02*
X238535D01*
X238629Y762525D01*
X239182Y761698D01*
X240009Y761145D01*
X240484Y761051D01*
Y763000D01*
D02*
G37*
G36*
X71500Y717500D02*
X67850D01*
Y713457D01*
X71500D01*
Y717500D01*
D02*
G37*
G36*
X360500Y707449D02*
Y705500D01*
X362450D01*
X362355Y705975D01*
X361802Y706802D01*
X360976Y707355D01*
X360500Y707449D01*
D02*
G37*
G36*
X359500D02*
X359025Y707355D01*
X358198Y706802D01*
X357645Y705975D01*
X357551Y705500D01*
X359500D01*
Y707449D01*
D02*
G37*
G36*
X76150Y717500D02*
X72500D01*
Y713457D01*
X76150D01*
Y717500D01*
D02*
G37*
G36*
X147500Y740949D02*
X147025Y740855D01*
X146198Y740302D01*
X145645Y739475D01*
X145551Y739000D01*
X147500D01*
Y740949D01*
D02*
G37*
G36*
X76150Y722543D02*
X72500D01*
Y718500D01*
X76150D01*
Y722543D01*
D02*
G37*
G36*
X71500D02*
X67850D01*
Y718500D01*
X71500D01*
Y722543D01*
D02*
G37*
%LPD*%
G36*
X492877Y801811D02*
X494000Y801663D01*
X494650Y801748D01*
X494794Y801702D01*
X495385Y801166D01*
X495424Y801072D01*
Y790000D01*
Y769476D01*
X487500D01*
Y770700D01*
X469400D01*
Y762100D01*
X487500D01*
Y763324D01*
X495424D01*
Y763000D01*
Y761878D01*
X495360Y761819D01*
X494624Y761530D01*
X494164Y761882D01*
X493362Y762215D01*
X492500Y762328D01*
X491639Y762215D01*
X490836Y761882D01*
X490146Y761354D01*
X489617Y760664D01*
X489285Y759862D01*
X489172Y759000D01*
X489037Y758847D01*
X487500D01*
Y760700D01*
X469400D01*
Y752100D01*
X487500D01*
Y753953D01*
X491900D01*
X492681Y754108D01*
X492836Y754139D01*
X493630Y754670D01*
X494230Y755270D01*
X494624Y755858D01*
X495424Y755616D01*
Y753696D01*
X495285Y753362D01*
X495171Y752500D01*
X495285Y751639D01*
X495424Y751304D01*
Y739274D01*
X488300Y732151D01*
X487893Y732319D01*
X487893Y732319D01*
X487621Y732432D01*
X487565Y732455D01*
X487521Y732473D01*
X487500Y732482D01*
Y732543D01*
X487500Y732742D01*
Y732763D01*
Y732763D01*
Y740700D01*
X469400D01*
Y732100D01*
X486837D01*
X486837Y732100D01*
X486858D01*
X487057Y732100D01*
X487118D01*
X487127Y732079D01*
X487145Y732035D01*
X487168Y731979D01*
X487281Y731707D01*
X487281Y731707D01*
X487449Y731300D01*
X479825Y723675D01*
X479336Y723038D01*
X479029Y722296D01*
X478924Y721500D01*
Y718129D01*
X478124Y717701D01*
X477950Y717818D01*
Y723343D01*
X468050D01*
Y712657D01*
X470310D01*
X477066Y705900D01*
X474733Y703567D01*
X474491Y703324D01*
X471215D01*
Y704269D01*
X463285D01*
Y703469D01*
X461250D01*
Y700500D01*
Y697532D01*
X462719D01*
X462817Y697434D01*
X462578Y696541D01*
X462565Y696537D01*
X461100D01*
X459977Y696389D01*
X458931Y695956D01*
X458033Y695267D01*
X451633Y688867D01*
X450944Y687969D01*
X450800Y687621D01*
X450000Y687780D01*
Y715623D01*
X450496Y716004D01*
X451057Y716735D01*
X451410Y717586D01*
X451464Y718000D01*
X448000D01*
Y719000D01*
X451464D01*
X451410Y719414D01*
X451057Y720265D01*
X450496Y720996D01*
X450000Y721377D01*
Y722954D01*
X450665Y723399D01*
X450878Y723311D01*
X452000Y723163D01*
X453123Y723311D01*
X454169Y723744D01*
X455067Y724433D01*
X455756Y725331D01*
X456189Y726377D01*
X456337Y727500D01*
X456189Y728622D01*
X455756Y729669D01*
X455067Y730567D01*
X454169Y731256D01*
X454062Y731300D01*
X454222Y732100D01*
X468000D01*
Y740700D01*
X450243D01*
Y742100D01*
X468000D01*
Y750700D01*
X450000D01*
Y752659D01*
X450700Y752900D01*
X450800Y752900D01*
X458450D01*
Y756400D01*
Y759900D01*
X450800D01*
X450700Y759900D01*
X450000Y760141D01*
Y762100D01*
X468000D01*
Y770700D01*
X465111D01*
X464683Y771500D01*
X464718Y771553D01*
X479000D01*
X479781Y771708D01*
X479936Y771739D01*
X480730Y772270D01*
X490730Y782270D01*
X491261Y783064D01*
X491447Y784000D01*
Y801583D01*
X492247Y802072D01*
X492877Y801811D01*
D02*
G37*
G36*
X678557Y705871D02*
Y692300D01*
X678728Y691442D01*
X679214Y690714D01*
X681747Y688180D01*
Y685391D01*
X682785D01*
Y678731D01*
X692757D01*
Y669466D01*
X692579Y669393D01*
X691577Y668623D01*
X690807Y667621D01*
X690416Y666675D01*
X689584D01*
X689193Y667621D01*
X688423Y668623D01*
X687421Y669393D01*
X686253Y669876D01*
X685000Y670041D01*
X683747Y669876D01*
X682579Y669393D01*
X681577Y668623D01*
X680807Y667621D01*
X680324Y666453D01*
X680159Y665200D01*
Y664800D01*
X680324Y663547D01*
X680742Y662537D01*
X680404Y661737D01*
X669596D01*
X669258Y662537D01*
X669676Y663547D01*
X669841Y664800D01*
Y665200D01*
X669676Y666453D01*
X669193Y667621D01*
X668423Y668623D01*
X667421Y669393D01*
X667243Y669466D01*
Y680750D01*
X667215Y680890D01*
Y686269D01*
X667768Y686285D01*
X667768D01*
Y694215D01*
X666968D01*
Y696250D01*
X664000D01*
Y696750D01*
X663500D01*
Y699915D01*
X661031D01*
X660453Y700450D01*
Y700809D01*
X657000D01*
Y697250D01*
X656000D01*
Y700809D01*
X652547D01*
X652547Y700809D01*
Y700809D01*
X652547Y700809D01*
X651843Y701041D01*
Y702600D01*
X651672Y703458D01*
X651186Y704186D01*
X648515Y706857D01*
X648847Y707657D01*
X658037D01*
X658279Y706857D01*
X658198Y706802D01*
X657645Y705975D01*
X657550Y705500D01*
X662450D01*
X662355Y705975D01*
X661802Y706802D01*
X661721Y706857D01*
X661964Y707657D01*
X665771D01*
X672257Y701171D01*
Y679138D01*
X672146Y679054D01*
X671618Y678364D01*
X671285Y677562D01*
X671172Y676700D01*
X671285Y675839D01*
X671618Y675036D01*
X672146Y674346D01*
X672836Y673817D01*
X673638Y673485D01*
X674500Y673372D01*
X675361Y673485D01*
X676164Y673817D01*
X676854Y674346D01*
X677383Y675036D01*
X677715Y675839D01*
X677829Y676700D01*
X677715Y677562D01*
X677383Y678364D01*
X676854Y679054D01*
X676743Y679138D01*
Y702100D01*
X676572Y702958D01*
X676086Y703686D01*
X671254Y708518D01*
X671561Y709257D01*
X675171D01*
X678557Y705871D01*
D02*
G37*
G36*
X638579Y707057D02*
X638198Y706802D01*
X637645Y705975D01*
X637550Y705500D01*
X642587D01*
X643200Y705828D01*
X647357Y701671D01*
Y700555D01*
X646969Y699915D01*
X644500D01*
Y696750D01*
X643500D01*
Y699915D01*
X641032D01*
X640453Y700450D01*
Y700809D01*
X637000D01*
Y697250D01*
X636000D01*
Y700809D01*
X632547D01*
X632547Y700809D01*
Y700809D01*
X632547Y700809D01*
X631843Y701041D01*
Y707857D01*
X638336D01*
X638579Y707057D01*
D02*
G37*
G36*
X530046Y714218D02*
X518014Y702186D01*
X517528Y701458D01*
X517357Y700600D01*
Y700555D01*
X516968Y699915D01*
X514500D01*
Y696750D01*
X513500D01*
Y699915D01*
X511031D01*
X510453Y700450D01*
Y700809D01*
X507000D01*
Y697250D01*
X506000D01*
Y700809D01*
X502547D01*
X502343Y701524D01*
Y703871D01*
X513429Y714957D01*
X529739D01*
X530046Y714218D01*
D02*
G37*
G36*
X563650Y791066D02*
Y789900D01*
X563967D01*
X564450Y789300D01*
Y787000D01*
X568250D01*
Y786500D01*
X568750D01*
Y783700D01*
X570285D01*
Y782443D01*
X561737D01*
X561263Y782807D01*
X561261Y783233D01*
X561376Y783645D01*
X562202Y784198D01*
X562755Y785024D01*
X562850Y785500D01*
X560400D01*
Y786500D01*
X562850D01*
X562755Y786975D01*
X562202Y787802D01*
X561376Y788355D01*
X561195Y788391D01*
X560931Y789259D01*
X562850Y791178D01*
X563650Y791066D01*
D02*
G37*
G36*
X450944Y523831D02*
X451633Y522933D01*
X459163Y515404D01*
Y513917D01*
X459117Y513875D01*
X458363Y513562D01*
X457775Y513955D01*
X456800Y514149D01*
X455800D01*
Y510100D01*
Y506051D01*
X456800D01*
X457775Y506245D01*
X458363Y506638D01*
X459117Y506325D01*
X459163Y506283D01*
Y463917D01*
X459117Y463875D01*
X458363Y463562D01*
X457775Y463955D01*
X456800Y464149D01*
X455800D01*
Y460100D01*
Y456051D01*
X456800D01*
X457775Y456245D01*
X458091Y456456D01*
X458601Y455834D01*
X451633Y448867D01*
X450944Y447969D01*
X450800Y447621D01*
X450000Y447780D01*
Y480087D01*
X450399Y480252D01*
X451558Y481142D01*
X452448Y482301D01*
X453007Y483651D01*
X453198Y485100D01*
X453007Y486549D01*
X452448Y487899D01*
X451558Y489058D01*
X450399Y489948D01*
X450000Y490113D01*
Y524020D01*
X450800Y524179D01*
X450944Y523831D01*
D02*
G37*
G36*
X758655Y704929D02*
Y684000D01*
X758833Y683103D01*
X759342Y682342D01*
X765335Y676348D01*
X765029Y675609D01*
X764747D01*
Y666891D01*
Y659391D01*
X767155D01*
Y650000D01*
X496279D01*
X495973Y650739D01*
X498296Y653063D01*
X741400D01*
X742522Y653211D01*
X743569Y653644D01*
X744467Y654333D01*
X748067Y657933D01*
X748756Y658832D01*
X749189Y659877D01*
X749337Y661000D01*
Y662728D01*
X749584Y663325D01*
X750416D01*
X750807Y662379D01*
X751577Y661377D01*
X752579Y660607D01*
X753747Y660123D01*
X755000Y659959D01*
X756253Y660123D01*
X757421Y660607D01*
X758423Y661377D01*
X759193Y662379D01*
X759677Y663547D01*
X759841Y664800D01*
Y665200D01*
X759677Y666453D01*
X759193Y667621D01*
X758423Y668623D01*
X757421Y669393D01*
X757243Y669466D01*
Y680750D01*
X757215Y680890D01*
Y686269D01*
X757768Y686285D01*
X757768D01*
Y694215D01*
X756968D01*
Y696250D01*
X754000D01*
Y696750D01*
X753500D01*
Y699915D01*
X751031D01*
X750453Y700450D01*
Y700809D01*
X747000D01*
Y697250D01*
X746500D01*
Y696750D01*
X742547D01*
Y694675D01*
X742486Y694613D01*
X741702Y694848D01*
X741643Y694902D01*
Y710000D01*
X741472Y710858D01*
X740986Y711586D01*
X737656Y714916D01*
X737962Y715655D01*
X747929D01*
X758655Y704929D01*
D02*
G37*
G36*
X639894Y779146D02*
X640827Y778960D01*
X641759Y779146D01*
X641811Y779180D01*
X641862Y779146D01*
X642205Y779078D01*
X642632Y778566D01*
X642689Y778186D01*
X642553Y777500D01*
Y772500D01*
X642708Y771719D01*
X642739Y771564D01*
X643270Y770770D01*
X644270Y769770D01*
X645064Y769239D01*
X645219Y769208D01*
X646000Y769053D01*
X646319D01*
X646524Y768614D01*
X646634Y768297D01*
X646460Y767421D01*
X646646Y766489D01*
X646680Y766437D01*
X646646Y766386D01*
X646460Y765453D01*
X646625Y764623D01*
X646639Y764508D01*
X646194Y763757D01*
X646020Y763723D01*
X645459Y763934D01*
X645115Y764174D01*
X645055Y764475D01*
X644502Y765302D01*
X643676Y765855D01*
X643200Y765949D01*
Y763500D01*
X642700D01*
Y763000D01*
X640250D01*
X640345Y762525D01*
X640898Y761698D01*
X641724Y761145D01*
X641869Y761116D01*
X642090Y760386D01*
X641585Y759750D01*
X640910Y759694D01*
X640627Y759766D01*
X640610Y759780D01*
X640554Y759854D01*
X639864Y760383D01*
X639061Y760715D01*
X638200Y760828D01*
X637338Y760715D01*
X636536Y760383D01*
X635938Y759924D01*
X627460D01*
X627454Y759932D01*
X626764Y760461D01*
X625961Y760794D01*
X625100Y760907D01*
X624238Y760794D01*
X623436Y760461D01*
X622746Y759932D01*
X622740Y759924D01*
X620872D01*
X620831Y759985D01*
X619611Y761205D01*
X618850Y761714D01*
X617953Y761892D01*
X613803D01*
X613382Y762692D01*
X613540Y763484D01*
X613354Y764417D01*
X613320Y764468D01*
X613354Y764520D01*
X613540Y765453D01*
X613375Y766282D01*
X613803Y767045D01*
X614190D01*
X615087Y767223D01*
X615848Y767732D01*
X617258Y769142D01*
X617767Y769903D01*
X617945Y770800D01*
X617945Y770800D01*
Y776300D01*
X617767Y777197D01*
X617258Y777958D01*
X617039Y778178D01*
X617116Y778543D01*
X617357Y778991D01*
X618138Y779146D01*
X618189Y779180D01*
X618240Y779146D01*
X619173Y778960D01*
X620106Y779146D01*
X620157Y779180D01*
X620209Y779146D01*
X621142Y778960D01*
X622075Y779146D01*
X622126Y779180D01*
X622178Y779146D01*
X623110Y778960D01*
X623546Y778231D01*
X623418Y778064D01*
X623085Y777261D01*
X622971Y776400D01*
X623085Y775538D01*
X623418Y774736D01*
X623946Y774046D01*
X624636Y773518D01*
X625438Y773185D01*
X626300Y773071D01*
X627162Y773185D01*
X627964Y773518D01*
X628654Y774046D01*
X629182Y774736D01*
X629515Y775538D01*
X629560Y775880D01*
X629871Y776064D01*
X630758Y775661D01*
X630845Y775224D01*
X631398Y774398D01*
X632225Y773845D01*
X632700Y773750D01*
Y776200D01*
X633200D01*
Y776700D01*
X635649D01*
X635555Y777176D01*
X635002Y778002D01*
X634734Y778182D01*
X634874Y778766D01*
X634989Y778974D01*
X635854Y779146D01*
X635906Y779180D01*
X635957Y779146D01*
X636890Y778960D01*
X637822Y779146D01*
X637874Y779180D01*
X637925Y779146D01*
X638858Y778960D01*
X639791Y779146D01*
X639843Y779180D01*
X639894Y779146D01*
D02*
G37*
G36*
X717157Y706371D02*
Y700637D01*
X716968Y699915D01*
X714500D01*
Y696750D01*
X713500D01*
Y699915D01*
X711031D01*
X710453Y700450D01*
Y700809D01*
X707000D01*
Y697250D01*
X706500D01*
Y696750D01*
X702547D01*
Y694675D01*
X702418Y694545D01*
X701404Y694646D01*
X701343Y694742D01*
Y708500D01*
X701172Y709358D01*
X700686Y710086D01*
X699054Y711718D01*
X699361Y712457D01*
X711071D01*
X717157Y706371D01*
D02*
G37*
G36*
X548546Y712618D02*
X538014Y702086D01*
X537528Y701358D01*
X537367Y700550D01*
X536969Y699915D01*
X534500D01*
Y696750D01*
X533500D01*
Y699915D01*
X531032D01*
X530453Y700450D01*
Y700809D01*
X527000D01*
Y697250D01*
X526000D01*
Y700809D01*
X524026D01*
X523720Y701548D01*
X526724Y704552D01*
X527593Y704289D01*
X527645Y704025D01*
X528198Y703198D01*
X529025Y702645D01*
X529500Y702551D01*
Y705000D01*
X530000D01*
Y705500D01*
X532449D01*
X532355Y705975D01*
X531802Y706802D01*
X530975Y707355D01*
X530711Y707408D01*
X530448Y708276D01*
X535529Y713357D01*
X548239D01*
X548546Y712618D01*
D02*
G37*
G36*
X622746Y755225D02*
X623436Y754696D01*
X624238Y754364D01*
X625100Y754250D01*
X625728Y754333D01*
X626241Y753876D01*
X626363Y753664D01*
X626350Y753600D01*
X628800D01*
Y753100D01*
X629300D01*
Y750651D01*
X629775Y750745D01*
X629808Y750767D01*
X630608Y750339D01*
Y746303D01*
X629808Y745882D01*
X629016Y746040D01*
X628083Y745854D01*
X628031Y745820D01*
X627980Y745854D01*
X627047Y746040D01*
X626115Y745854D01*
X626063Y745820D01*
X626012Y745854D01*
X625079Y746040D01*
X624146Y745854D01*
X624094Y745820D01*
X624043Y745854D01*
X623110Y746040D01*
X622318Y745882D01*
X621518Y746303D01*
Y755234D01*
X622740D01*
X622746Y755225D01*
D02*
G37*
G36*
X557157Y700637D02*
X556968Y699915D01*
X554500D01*
Y696750D01*
X553500D01*
Y699915D01*
X551031D01*
X550453Y700450D01*
Y700809D01*
X547000D01*
Y697250D01*
X546000D01*
Y700809D01*
X544127D01*
X543820Y701548D01*
X546741Y704469D01*
X547609Y704206D01*
X547645Y704025D01*
X548198Y703198D01*
X549024Y702645D01*
X549500Y702551D01*
Y705000D01*
X550000D01*
Y705500D01*
X552450D01*
X552355Y705975D01*
X551802Y706802D01*
X550976Y707355D01*
X550795Y707391D01*
X550531Y708259D01*
X554029Y711757D01*
X557157D01*
Y700637D01*
D02*
G37*
G36*
X613518Y730536D02*
X614046Y729846D01*
X614736Y729318D01*
X615539Y728985D01*
X616400Y728871D01*
X616855Y728473D01*
Y713960D01*
X616846Y713954D01*
X616318Y713264D01*
X615985Y712462D01*
X615871Y711600D01*
X615985Y710739D01*
X616318Y709936D01*
X616846Y709246D01*
X617536Y708717D01*
X618338Y708385D01*
X619200Y708272D01*
X620061Y708385D01*
X620864Y708717D01*
X621554Y709246D01*
X622083Y709936D01*
X622415Y710739D01*
X622525Y711572D01*
X622611Y711637D01*
X623291Y711937D01*
X627357Y707871D01*
Y700555D01*
X626968Y699915D01*
X624500D01*
Y696750D01*
X623500D01*
Y699915D01*
X621032D01*
X620453Y700450D01*
Y700809D01*
X617000D01*
Y697250D01*
X616500D01*
Y696750D01*
X612547D01*
Y694675D01*
X611982Y694109D01*
X611747D01*
X611143Y694582D01*
Y730164D01*
X611745Y730692D01*
X611900Y730672D01*
X612761Y730785D01*
X613319Y731016D01*
X613518Y730536D01*
D02*
G37*
G36*
X696857Y707571D02*
Y700481D01*
X696291Y699915D01*
X694500D01*
Y696750D01*
X693500D01*
Y699915D01*
X691032D01*
X690453Y700450D01*
Y700809D01*
X687000D01*
Y697250D01*
X686000D01*
Y700809D01*
X683043D01*
Y706800D01*
X682872Y707658D01*
X682386Y708386D01*
X680654Y710118D01*
X680961Y710857D01*
X693571D01*
X696857Y707571D01*
D02*
G37*
G36*
X737157Y709071D02*
Y700637D01*
X736969Y699915D01*
X734500D01*
Y696750D01*
X733500D01*
Y699915D01*
X731032D01*
X730453Y700450D01*
Y700809D01*
X727000D01*
Y697250D01*
X726500D01*
Y696750D01*
X722547D01*
Y694675D01*
X722485Y694613D01*
X721702Y694848D01*
X721643Y694902D01*
Y707300D01*
X721472Y708158D01*
X720986Y708886D01*
X716554Y713318D01*
X716861Y714057D01*
X732171D01*
X737157Y709071D01*
D02*
G37*
G36*
X575957Y725765D02*
Y700481D01*
X575391Y699915D01*
X574500D01*
Y696750D01*
X573500D01*
Y699915D01*
X571032D01*
X570453Y700450D01*
Y700809D01*
X567000D01*
Y697250D01*
X566500D01*
Y696750D01*
X562547D01*
Y694675D01*
X562486Y694613D01*
X561702Y694848D01*
X561643Y694902D01*
Y712496D01*
X575218Y726071D01*
X575957Y725765D01*
D02*
G37*
G36*
X602945Y746804D02*
X603473Y746013D01*
X604264Y745484D01*
X605197Y745299D01*
X606657D01*
Y700481D01*
X606091Y699915D01*
X604500D01*
Y696750D01*
X603500D01*
Y699915D01*
X601031D01*
X600453Y700450D01*
Y700809D01*
X597000D01*
Y697250D01*
X596000D01*
Y700809D01*
X593343D01*
Y739671D01*
X601134Y747462D01*
X602814D01*
X602945Y746804D01*
D02*
G37*
G36*
X820000Y399755D02*
Y360000D01*
X809467D01*
X809013Y360849D01*
X808263Y361763D01*
X807349Y362513D01*
X806307Y363070D01*
X805176Y363413D01*
X804500Y363480D01*
Y357500D01*
X803500D01*
Y363480D01*
X802824Y363413D01*
X801693Y363070D01*
X800651Y362513D01*
X799737Y361763D01*
X798987Y360849D01*
X798533Y360000D01*
X790000D01*
Y385667D01*
X796170D01*
X799168Y382668D01*
X800204Y381819D01*
X801385Y381187D01*
X802667Y380798D01*
X804000Y380667D01*
X805333Y380798D01*
X806615Y381187D01*
X807796Y381819D01*
X808832Y382668D01*
X809681Y383704D01*
X810313Y384885D01*
X810702Y386167D01*
X810833Y387500D01*
X810816Y387668D01*
X810812Y387717D01*
X810935Y387866D01*
X811705Y389308D01*
X812180Y390873D01*
X812340Y392500D01*
Y399424D01*
X817300D01*
X818096Y399529D01*
X818838Y399836D01*
X819200Y400113D01*
X820000Y399755D01*
D02*
G37*
G36*
X816000Y811000D02*
X820000Y809500D01*
Y770550D01*
X816200D01*
Y760450D01*
X820000D01*
Y740550D01*
X818084D01*
X817837Y740797D01*
Y750000D01*
X817689Y751123D01*
X817256Y752169D01*
X816567Y753067D01*
X815668Y753756D01*
X814622Y754189D01*
X813500Y754337D01*
X812377Y754189D01*
X811331Y753756D01*
X810433Y753067D01*
X809744Y752169D01*
X809311Y751123D01*
X809163Y750000D01*
Y739000D01*
X809311Y737878D01*
X809744Y736831D01*
X810433Y735933D01*
X813933Y732433D01*
X814832Y731744D01*
X815878Y731311D01*
X816200Y731268D01*
Y730450D01*
X818163D01*
Y717001D01*
X817363Y716607D01*
X817169Y716756D01*
X816123Y717189D01*
X815000Y717337D01*
X814947Y717384D01*
Y723000D01*
X814761Y723936D01*
X814230Y724730D01*
X791730Y747230D01*
X790936Y747761D01*
X790781Y747792D01*
X790000Y747947D01*
X777524D01*
X777079Y748612D01*
X777189Y748877D01*
X777337Y750000D01*
Y750450D01*
X788800D01*
Y760550D01*
X788241D01*
X788000Y761250D01*
X788000Y761350D01*
Y765000D01*
X777000D01*
Y761350D01*
X777000Y761250D01*
X776759Y760550D01*
X776200D01*
Y759837D01*
X774000D01*
X773008Y759706D01*
X772878Y759689D01*
X771831Y759256D01*
X770933Y758567D01*
X769933Y757567D01*
X769244Y756669D01*
X768811Y755622D01*
X768663Y754500D01*
Y750000D01*
X768811Y748877D01*
X769244Y747831D01*
X769933Y746933D01*
X770176Y746747D01*
X769904Y745947D01*
X688171D01*
X687744Y746458D01*
X688066Y747198D01*
X688923Y747311D01*
X689968Y747744D01*
X690867Y748433D01*
X691556Y749332D01*
X691989Y750378D01*
X692137Y751500D01*
Y760403D01*
X693584Y761850D01*
X702500D01*
Y761850D01*
X702900D01*
Y761850D01*
X712500D01*
Y761850D01*
X712900D01*
Y761850D01*
X722500D01*
Y761850D01*
X722900D01*
Y761850D01*
X732500D01*
Y761850D01*
X732900D01*
Y761850D01*
X742500D01*
Y761850D01*
X742900D01*
Y761850D01*
X752500D01*
Y761850D01*
X752900D01*
Y761850D01*
X762500D01*
Y761850D01*
X762900D01*
Y761850D01*
X772500D01*
Y773950D01*
X762900D01*
Y773950D01*
X762500D01*
Y773950D01*
X752900D01*
Y773950D01*
X752500D01*
Y773950D01*
X742900D01*
Y773950D01*
X742500D01*
Y773950D01*
X732900D01*
Y773950D01*
X732500D01*
Y773950D01*
X722900D01*
Y773950D01*
X722500D01*
Y773950D01*
X712900D01*
Y773950D01*
X712500D01*
Y773950D01*
X702900D01*
Y773950D01*
X702500D01*
Y773950D01*
X697784D01*
X690917Y780817D01*
X690019Y781506D01*
X688973Y781939D01*
X687850Y782087D01*
X676800D01*
Y785757D01*
X694800D01*
X695658Y785928D01*
X696386Y786414D01*
X697485Y787513D01*
X697800Y787471D01*
X698662Y787585D01*
X699464Y787918D01*
X700154Y788446D01*
X700682Y789136D01*
X701015Y789938D01*
X701128Y790800D01*
X701015Y791662D01*
X700682Y792464D01*
X700154Y793154D01*
X699943Y793315D01*
Y794350D01*
X702500D01*
Y794350D01*
X702900D01*
Y794350D01*
X705457D01*
Y793162D01*
X705446Y793154D01*
X704917Y792464D01*
X704585Y791662D01*
X704471Y790800D01*
X704585Y789938D01*
X704917Y789136D01*
X705446Y788446D01*
X706136Y787918D01*
X706939Y787585D01*
X707800Y787471D01*
X708662Y787585D01*
X709464Y787918D01*
X710154Y788446D01*
X710682Y789136D01*
X711015Y789938D01*
X711129Y790800D01*
X711015Y791662D01*
X710682Y792464D01*
X710154Y793154D01*
X709943Y793315D01*
Y794350D01*
X712500D01*
Y794350D01*
X712900D01*
Y794350D01*
X715457D01*
Y793162D01*
X715446Y793154D01*
X714918Y792464D01*
X714585Y791662D01*
X714471Y790800D01*
X714585Y789938D01*
X714918Y789136D01*
X715446Y788446D01*
X716136Y787918D01*
X716938Y787585D01*
X717800Y787471D01*
X718661Y787585D01*
X719464Y787918D01*
X720154Y788446D01*
X720682Y789136D01*
X721015Y789938D01*
X721129Y790800D01*
X721015Y791662D01*
X720682Y792464D01*
X720154Y793154D01*
X719943Y793315D01*
Y794350D01*
X722500D01*
Y794350D01*
X722900D01*
Y794350D01*
X725457D01*
Y793162D01*
X725446Y793154D01*
X724918Y792464D01*
X724585Y791662D01*
X724472Y790800D01*
X724585Y789938D01*
X724918Y789136D01*
X725446Y788446D01*
X726136Y787918D01*
X726938Y787585D01*
X727800Y787471D01*
X728661Y787585D01*
X729464Y787918D01*
X730154Y788446D01*
X730683Y789136D01*
X731015Y789938D01*
X731129Y790800D01*
X731015Y791662D01*
X730683Y792464D01*
X730154Y793154D01*
X729943Y793315D01*
Y794350D01*
X732500D01*
Y794350D01*
X732900D01*
Y794350D01*
X735457D01*
Y793162D01*
X735446Y793154D01*
X734917Y792464D01*
X734585Y791662D01*
X734472Y790800D01*
X734585Y789938D01*
X734917Y789136D01*
X735446Y788446D01*
X736136Y787918D01*
X736938Y787585D01*
X737800Y787471D01*
X738661Y787585D01*
X739464Y787918D01*
X740154Y788446D01*
X740683Y789136D01*
X741015Y789938D01*
X741128Y790800D01*
X741015Y791662D01*
X740683Y792464D01*
X740154Y793154D01*
X739943Y793315D01*
Y794350D01*
X742500D01*
Y794350D01*
X742900D01*
Y794350D01*
X745457D01*
Y793162D01*
X745446Y793154D01*
X744917Y792464D01*
X744585Y791662D01*
X744472Y790800D01*
X744585Y789938D01*
X744917Y789136D01*
X745446Y788446D01*
X746136Y787918D01*
X746939Y787585D01*
X747800Y787471D01*
X748662Y787585D01*
X749464Y787918D01*
X750154Y788446D01*
X750682Y789136D01*
X751015Y789938D01*
X751128Y790800D01*
X751015Y791662D01*
X750682Y792464D01*
X750154Y793154D01*
X749943Y793315D01*
Y794350D01*
X752500D01*
Y794350D01*
X752900D01*
Y794350D01*
X755457D01*
Y793162D01*
X755446Y793154D01*
X754917Y792464D01*
X754585Y791662D01*
X754471Y790800D01*
X754585Y789938D01*
X754917Y789136D01*
X755446Y788446D01*
X756136Y787918D01*
X756939Y787585D01*
X757800Y787471D01*
X758662Y787585D01*
X759464Y787918D01*
X760154Y788446D01*
X760682Y789136D01*
X761015Y789938D01*
X761129Y790800D01*
X761015Y791662D01*
X760682Y792464D01*
X760154Y793154D01*
X759943Y793315D01*
Y794350D01*
X762500D01*
Y794350D01*
X762900D01*
Y794350D01*
X765457D01*
Y793162D01*
X765446Y793154D01*
X764918Y792464D01*
X764585Y791662D01*
X764471Y790800D01*
X764585Y789938D01*
X764918Y789136D01*
X765446Y788446D01*
X766136Y787918D01*
X766938Y787585D01*
X767800Y787471D01*
X768661Y787585D01*
X769464Y787918D01*
X770154Y788446D01*
X770682Y789136D01*
X771015Y789938D01*
X771129Y790800D01*
X771015Y791662D01*
X770682Y792464D01*
X770154Y793154D01*
X769943Y793315D01*
Y794350D01*
X772500D01*
Y806450D01*
X770043D01*
Y806900D01*
X769872Y807758D01*
X769386Y808486D01*
X763611Y814261D01*
X763917Y815000D01*
X814500D01*
X816000Y811000D01*
D02*
G37*
G36*
X652012Y814261D02*
X640244Y802493D01*
X639641Y803021D01*
X639883Y803336D01*
X640215Y804138D01*
X640329Y805000D01*
X640215Y805861D01*
X639883Y806664D01*
X639354Y807354D01*
X638664Y807882D01*
X637861Y808215D01*
X637000Y808329D01*
X636138Y808215D01*
X635336Y807882D01*
X634768Y807447D01*
X554500D01*
X553564Y807261D01*
X552770Y806730D01*
X543270Y797230D01*
X542739Y796436D01*
X542708Y796281D01*
X542553Y795500D01*
Y740014D01*
X541311Y738771D01*
X540443Y739035D01*
X540355Y739475D01*
X539802Y740302D01*
X538975Y740855D01*
X538500Y740949D01*
Y738500D01*
X538000D01*
Y738000D01*
X535550D01*
X535601Y737747D01*
X535142Y736947D01*
X523843D01*
Y739450D01*
X513157D01*
Y729550D01*
X513157D01*
X513036Y728800D01*
X510463D01*
X509604Y728630D01*
X508876Y728144D01*
X490456Y709724D01*
X489970Y708996D01*
X489800Y708138D01*
Y672767D01*
X465963Y648930D01*
X465224Y649236D01*
Y664730D01*
X471094Y670600D01*
X476900D01*
Y672918D01*
X477700Y673077D01*
X477720Y673029D01*
X478505Y672005D01*
X479529Y671220D01*
X480721Y670726D01*
X482000Y670558D01*
X483279Y670726D01*
X484471Y671220D01*
X485495Y672005D01*
X486280Y673029D01*
X486774Y674221D01*
X486942Y675500D01*
X486774Y676779D01*
X486280Y677971D01*
X485495Y678995D01*
X484471Y679780D01*
X483279Y680274D01*
X482000Y680442D01*
X480721Y680274D01*
X479529Y679780D01*
X478505Y678995D01*
X477720Y677971D01*
X477700Y677923D01*
X476900Y678082D01*
Y680400D01*
X469426D01*
X469102Y680938D01*
X469009Y681200D01*
X469315Y681939D01*
X469428Y682800D01*
X469315Y683662D01*
X468983Y684464D01*
X468454Y685154D01*
X467764Y685682D01*
X466961Y686015D01*
X466100Y686129D01*
X465239Y686015D01*
X464436Y685682D01*
X464360Y685624D01*
X462300D01*
X461712Y685547D01*
X461442Y685879D01*
X461301Y686267D01*
X462896Y687863D01*
X469500D01*
X470622Y688011D01*
X471669Y688444D01*
X472567Y689133D01*
X480867Y697433D01*
X486267Y702833D01*
X486267Y702833D01*
X486956Y703731D01*
X487389Y704777D01*
X487537Y705900D01*
X487389Y707022D01*
X486956Y708069D01*
X486267Y708967D01*
X485076Y710157D01*
Y720226D01*
X499524Y734674D01*
X502247D01*
Y733391D01*
X511753D01*
Y740891D01*
Y742174D01*
X513157D01*
Y740550D01*
X523843D01*
Y750450D01*
X513157D01*
Y748326D01*
X511753D01*
Y749609D01*
X502247D01*
X502247Y749609D01*
Y749609D01*
X502247Y749609D01*
X501576Y749921D01*
Y751304D01*
X501715Y751639D01*
X501828Y752500D01*
X501715Y753362D01*
X501576Y753696D01*
Y758162D01*
X501747Y758891D01*
X511253D01*
Y766391D01*
Y767674D01*
X513157D01*
Y766050D01*
X523053D01*
Y764950D01*
X513157D01*
Y755050D01*
X523843D01*
Y758383D01*
X527230Y761770D01*
X527761Y762564D01*
X527947Y763500D01*
Y776268D01*
X528382Y776836D01*
X528715Y777638D01*
X528828Y778500D01*
X528715Y779361D01*
X528382Y780164D01*
X527854Y780854D01*
X527164Y781383D01*
X526362Y781715D01*
X525500Y781828D01*
X524639Y781715D01*
X523836Y781383D01*
X523146Y780854D01*
X522617Y780164D01*
X522285Y779361D01*
X522171Y778500D01*
X522285Y777638D01*
X522617Y776836D01*
X522684Y776750D01*
X522289Y775950D01*
X513157D01*
Y773826D01*
X511253D01*
Y775109D01*
X501747D01*
X501576Y775838D01*
Y785891D01*
X510253D01*
Y793391D01*
Y794674D01*
X512657D01*
Y793050D01*
X523343D01*
Y801924D01*
X538804D01*
X539139Y801785D01*
X540000Y801672D01*
X540862Y801785D01*
X541664Y802118D01*
X542354Y802646D01*
X542882Y803336D01*
X543215Y804138D01*
X543329Y805000D01*
X543215Y805861D01*
X542882Y806664D01*
X542354Y807354D01*
X541664Y807882D01*
X540862Y808215D01*
X540000Y808329D01*
X539139Y808215D01*
X538804Y808076D01*
X508715D01*
Y813231D01*
Y814757D01*
X530703D01*
X530785Y814139D01*
X531117Y813336D01*
X531646Y812646D01*
X532336Y812117D01*
X533139Y811785D01*
X534000Y811672D01*
X534862Y811785D01*
X535664Y812117D01*
X536354Y812646D01*
X536882Y813336D01*
X537215Y814139D01*
X537328Y815000D01*
X651706D01*
X652012Y814261D01*
D02*
G37*
G36*
X692900Y794350D02*
X695457D01*
Y793162D01*
X695446Y793154D01*
X694917Y792464D01*
X694585Y791662D01*
X694478Y790850D01*
X693871Y790243D01*
X676104D01*
X676000Y791000D01*
X676000Y791043D01*
Y797750D01*
X668000D01*
Y791043D01*
X668000Y791000D01*
X667896Y790243D01*
X659300D01*
X658442Y790072D01*
X657714Y789586D01*
X654686Y786558D01*
X653947Y786865D01*
Y788268D01*
X654383Y788836D01*
X654715Y789639D01*
X654829Y790500D01*
X654715Y791362D01*
X654383Y792164D01*
X653854Y792854D01*
X653164Y793383D01*
X652473Y793669D01*
X652126Y794454D01*
X664029Y806357D01*
X692900D01*
Y794350D01*
D02*
G37*
G36*
X450944Y407131D02*
X451633Y406233D01*
X458433Y399433D01*
X459167Y398870D01*
Y395000D01*
X459298Y393667D01*
X459687Y392385D01*
X460294Y391250D01*
X459687Y390115D01*
X459298Y388833D01*
X459167Y387500D01*
X459298Y386167D01*
X459687Y384885D01*
X460319Y383704D01*
X461168Y382668D01*
X462204Y381819D01*
X463385Y381187D01*
X464667Y380798D01*
X466000Y380667D01*
X467333Y380798D01*
X468615Y381187D01*
X469796Y381819D01*
X470832Y382668D01*
X473830Y385667D01*
X490000D01*
Y360000D01*
X471467D01*
X471013Y360849D01*
X470263Y361763D01*
X469349Y362513D01*
X468307Y363070D01*
X467176Y363413D01*
X466500Y363480D01*
Y357500D01*
X465500D01*
Y363480D01*
X464824Y363413D01*
X463693Y363070D01*
X462650Y362513D01*
X461737Y361763D01*
X460987Y360849D01*
X460533Y360000D01*
X450000D01*
Y407320D01*
X450800Y407479D01*
X450944Y407131D01*
D02*
G37*
%LPC*%
G36*
X602450Y704500D02*
X600500D01*
Y702551D01*
X600976Y702645D01*
X601802Y703198D01*
X602355Y704025D01*
X602450Y704500D01*
D02*
G37*
G36*
X622449D02*
X620500D01*
Y702551D01*
X620975Y702645D01*
X621802Y703198D01*
X622355Y704025D01*
X622449Y704500D01*
D02*
G37*
G36*
X619500D02*
X617551D01*
X617645Y704025D01*
X618198Y703198D01*
X619025Y702645D01*
X619500Y702551D01*
Y704500D01*
D02*
G37*
G36*
X552450D02*
X550500D01*
Y702551D01*
X550976Y702645D01*
X551802Y703198D01*
X552355Y704025D01*
X552450Y704500D01*
D02*
G37*
G36*
X532449D02*
X530500D01*
Y702551D01*
X530975Y702645D01*
X531802Y703198D01*
X532355Y704025D01*
X532449Y704500D01*
D02*
G37*
G36*
X569500D02*
X567551D01*
X567645Y704025D01*
X568198Y703198D01*
X569025Y702645D01*
X569500Y702551D01*
Y704500D01*
D02*
G37*
G36*
X599500D02*
X597550D01*
X597645Y704025D01*
X598198Y703198D01*
X599024Y702645D01*
X599500Y702551D01*
Y704500D01*
D02*
G37*
G36*
X572449D02*
X570500D01*
Y702551D01*
X570975Y702645D01*
X571802Y703198D01*
X572355Y704025D01*
X572449Y704500D01*
D02*
G37*
G36*
X639500D02*
X637550D01*
X637645Y704025D01*
X638198Y703198D01*
X639024Y702645D01*
X639500Y702551D01*
Y704500D01*
D02*
G37*
G36*
X729500D02*
X727551D01*
X727645Y704025D01*
X728198Y703198D01*
X729025Y702645D01*
X729500Y702551D01*
Y704500D01*
D02*
G37*
G36*
X712450D02*
X710500D01*
Y702551D01*
X710976Y702645D01*
X711802Y703198D01*
X712355Y704025D01*
X712450Y704500D01*
D02*
G37*
G36*
X732449D02*
X730500D01*
Y702551D01*
X730975Y702645D01*
X731802Y703198D01*
X732355Y704025D01*
X732449Y704500D01*
D02*
G37*
G36*
X752450D02*
X750500D01*
Y702551D01*
X750976Y702645D01*
X751802Y703198D01*
X752355Y704025D01*
X752450Y704500D01*
D02*
G37*
G36*
X749500D02*
X747550D01*
X747645Y704025D01*
X748198Y703198D01*
X749024Y702645D01*
X749500Y702551D01*
Y704500D01*
D02*
G37*
G36*
X709500D02*
X707550D01*
X707645Y704025D01*
X708198Y703198D01*
X709024Y702645D01*
X709500Y702551D01*
Y704500D01*
D02*
G37*
G36*
X659500D02*
X657550D01*
X657645Y704025D01*
X658198Y703198D01*
X659024Y702645D01*
X659500Y702551D01*
Y704500D01*
D02*
G37*
G36*
X642450D02*
X640500D01*
Y702551D01*
X640976Y702645D01*
X641802Y703198D01*
X642355Y704025D01*
X642450Y704500D01*
D02*
G37*
G36*
X662450D02*
X660500D01*
Y702551D01*
X660976Y702645D01*
X661802Y703198D01*
X662355Y704025D01*
X662450Y704500D01*
D02*
G37*
G36*
X692450D02*
X690500D01*
Y702551D01*
X690976Y702645D01*
X691802Y703198D01*
X692355Y704025D01*
X692450Y704500D01*
D02*
G37*
G36*
X689500D02*
X687550D01*
X687645Y704025D01*
X688198Y703198D01*
X689024Y702645D01*
X689500Y702551D01*
Y704500D01*
D02*
G37*
G36*
X465500Y372000D02*
X460020D01*
X460087Y371324D01*
X460430Y370193D01*
X460987Y369150D01*
X461737Y368237D01*
X462650Y367487D01*
X463693Y366930D01*
X464824Y366587D01*
X465500Y366520D01*
Y372000D01*
D02*
G37*
G36*
X566000Y700809D02*
X562547D01*
Y697750D01*
X566000D01*
Y700809D01*
D02*
G37*
G36*
X460250Y700000D02*
X457585D01*
Y697532D01*
X460250D01*
Y700000D01*
D02*
G37*
G36*
X616000Y700809D02*
X612547D01*
Y697750D01*
X616000D01*
Y700809D01*
D02*
G37*
G36*
X726000D02*
X722547D01*
Y697750D01*
X726000D01*
Y700809D01*
D02*
G37*
G36*
X706000D02*
X702547D01*
Y697750D01*
X706000D01*
Y700809D01*
D02*
G37*
G36*
X754500Y699915D02*
Y697250D01*
X756968D01*
Y699915D01*
X754500D01*
D02*
G37*
G36*
X454800Y509600D02*
X451251D01*
Y508600D01*
X451445Y507624D01*
X451998Y506798D01*
X452824Y506245D01*
X453800Y506051D01*
X454800D01*
Y509600D01*
D02*
G37*
G36*
Y514149D02*
X453800D01*
X452824Y513955D01*
X451998Y513402D01*
X451445Y512575D01*
X451251Y511600D01*
Y510600D01*
X454800D01*
Y514149D01*
D02*
G37*
G36*
Y464149D02*
X453800D01*
X452824Y463955D01*
X451998Y463402D01*
X451445Y462575D01*
X451251Y461600D01*
Y460600D01*
X454800D01*
Y464149D01*
D02*
G37*
G36*
X664500Y699915D02*
Y697250D01*
X666968D01*
Y699915D01*
X664500D01*
D02*
G37*
G36*
X454800Y459600D02*
X451251D01*
Y458600D01*
X451445Y457624D01*
X451998Y456798D01*
X452824Y456245D01*
X453800Y456051D01*
X454800D01*
Y459600D01*
D02*
G37*
G36*
X460250Y703469D02*
X457585D01*
Y701000D01*
X460250D01*
Y703469D01*
D02*
G37*
G36*
X803500Y372000D02*
X798020D01*
X798087Y371324D01*
X798430Y370193D01*
X798987Y369150D01*
X799737Y368237D01*
X800651Y367487D01*
X801693Y366930D01*
X802824Y366587D01*
X803500Y366520D01*
Y372000D01*
D02*
G37*
G36*
X509500Y704500D02*
X507550D01*
X507645Y704025D01*
X508198Y703198D01*
X509024Y702645D01*
X509500Y702551D01*
Y704500D01*
D02*
G37*
G36*
X471980Y372000D02*
X466500D01*
Y366520D01*
X467176Y366587D01*
X468307Y366930D01*
X469349Y367487D01*
X470263Y368237D01*
X471013Y369150D01*
X471570Y370193D01*
X471913Y371324D01*
X471980Y372000D01*
D02*
G37*
G36*
X512450Y704500D02*
X510500D01*
Y702551D01*
X510976Y702645D01*
X511802Y703198D01*
X512355Y704025D01*
X512450Y704500D01*
D02*
G37*
G36*
X809980Y372000D02*
X804500D01*
Y366520D01*
X805176Y366587D01*
X806307Y366930D01*
X807349Y367487D01*
X808263Y368237D01*
X809013Y369150D01*
X809570Y370193D01*
X809913Y371324D01*
X809980Y372000D01*
D02*
G37*
G36*
X804500Y378480D02*
Y373000D01*
X809980D01*
X809913Y373676D01*
X809570Y374807D01*
X809013Y375850D01*
X808263Y376763D01*
X807349Y377513D01*
X806307Y378070D01*
X805176Y378413D01*
X804500Y378480D01*
D02*
G37*
G36*
X746000Y700809D02*
X742547D01*
Y697750D01*
X746000D01*
Y700809D01*
D02*
G37*
G36*
X803500Y378480D02*
X802824Y378413D01*
X801693Y378070D01*
X800651Y377513D01*
X799737Y376763D01*
X798987Y375850D01*
X798430Y374807D01*
X798087Y373676D01*
X798020Y373000D01*
X803500D01*
Y378480D01*
D02*
G37*
G36*
X465500D02*
X464824Y378413D01*
X463693Y378070D01*
X462650Y377513D01*
X461737Y376763D01*
X460987Y375850D01*
X460430Y374807D01*
X460087Y373676D01*
X460020Y373000D01*
X465500D01*
Y378480D01*
D02*
G37*
G36*
X466500D02*
Y373000D01*
X471980D01*
X471913Y373676D01*
X471570Y374807D01*
X471013Y375850D01*
X470263Y376763D01*
X469349Y377513D01*
X468307Y378070D01*
X467176Y378413D01*
X466500Y378480D01*
D02*
G37*
G36*
X635649Y775700D02*
X633700D01*
Y773750D01*
X634175Y773845D01*
X635002Y774398D01*
X635555Y775224D01*
X635649Y775700D01*
D02*
G37*
G36*
X781964Y774750D02*
X779000D01*
Y771786D01*
X779414Y771840D01*
X780265Y772193D01*
X780996Y772754D01*
X781557Y773485D01*
X781910Y774336D01*
X781964Y774750D01*
D02*
G37*
G36*
X778000D02*
X775036D01*
X775090Y774336D01*
X775443Y773485D01*
X776004Y772754D01*
X776735Y772193D01*
X777586Y771840D01*
X778000Y771786D01*
Y774750D01*
D02*
G37*
G36*
Y778714D02*
X777586Y778660D01*
X776735Y778307D01*
X776004Y777746D01*
X775443Y777015D01*
X775090Y776164D01*
X775036Y775750D01*
X778000D01*
Y778714D01*
D02*
G37*
G36*
X517500Y786500D02*
X513457D01*
Y782850D01*
X517500D01*
Y786500D01*
D02*
G37*
G36*
X806464Y812500D02*
X793536D01*
X791768Y811768D01*
X783232Y803232D01*
X782500Y801464D01*
Y788535D01*
X783232Y786768D01*
X791768Y778232D01*
X793536Y777500D01*
X806464D01*
X808232Y778232D01*
X816768Y786768D01*
X817500Y788535D01*
Y801464D01*
X816768Y803232D01*
X808232Y811768D01*
X806464Y812500D01*
D02*
G37*
G36*
X779000Y778714D02*
Y775750D01*
X781964D01*
X781910Y776164D01*
X781557Y777015D01*
X780996Y777746D01*
X780265Y778307D01*
X779414Y778660D01*
X779000Y778714D01*
D02*
G37*
G36*
X642200Y765949D02*
X641724Y765855D01*
X640898Y765302D01*
X640345Y764475D01*
X640250Y764000D01*
X642200D01*
Y765949D01*
D02*
G37*
G36*
X631484D02*
Y764000D01*
X633434D01*
X633339Y764475D01*
X632787Y765302D01*
X631960Y765855D01*
X631484Y765949D01*
D02*
G37*
G36*
X630484D02*
X630009Y765855D01*
X629182Y765302D01*
X628629Y764475D01*
X628535Y764000D01*
X630484D01*
Y765949D01*
D02*
G37*
G36*
X782000Y769750D02*
X777000D01*
Y766000D01*
X782000D01*
Y769750D01*
D02*
G37*
G36*
X620000Y768049D02*
Y766100D01*
X621949D01*
X621855Y766575D01*
X621302Y767402D01*
X620475Y767955D01*
X620000Y768049D01*
D02*
G37*
G36*
X619000D02*
X618525Y767955D01*
X617698Y767402D01*
X617145Y766575D01*
X617051Y766100D01*
X619000D01*
Y768049D01*
D02*
G37*
G36*
X788000Y769750D02*
X783000D01*
Y766000D01*
X788000D01*
Y769750D01*
D02*
G37*
G36*
X676000Y805500D02*
X672500D01*
Y798750D01*
X676000D01*
Y805500D01*
D02*
G37*
G36*
X671500D02*
X668000D01*
Y798750D01*
X671500D01*
Y805500D01*
D02*
G37*
G36*
X539500Y789950D02*
Y788000D01*
X541449D01*
X541355Y788476D01*
X540802Y789302D01*
X539976Y789855D01*
X539500Y789950D01*
D02*
G37*
G36*
X683000Y802500D02*
X681050D01*
X681145Y802024D01*
X681698Y801198D01*
X682524Y800645D01*
X683000Y800550D01*
Y802500D01*
D02*
G37*
G36*
X684000Y805449D02*
Y803500D01*
X685950D01*
X685855Y803975D01*
X685302Y804802D01*
X684476Y805355D01*
X684000Y805449D01*
D02*
G37*
G36*
X683000D02*
X682524Y805355D01*
X681698Y804802D01*
X681145Y803975D01*
X681050Y803500D01*
X683000D01*
Y805449D01*
D02*
G37*
G36*
X685950Y802500D02*
X684000D01*
Y800550D01*
X684476Y800645D01*
X685302Y801198D01*
X685855Y802024D01*
X685950Y802500D01*
D02*
G37*
G36*
X538500Y787000D02*
X536551D01*
X536645Y786524D01*
X537198Y785698D01*
X538025Y785145D01*
X538500Y785050D01*
Y787000D01*
D02*
G37*
G36*
X567750Y786000D02*
X564450D01*
Y783700D01*
X567750D01*
Y786000D01*
D02*
G37*
G36*
X522543Y786500D02*
X518500D01*
Y782850D01*
X522543D01*
Y786500D01*
D02*
G37*
G36*
X541449Y787000D02*
X539500D01*
Y785050D01*
X539976Y785145D01*
X540802Y785698D01*
X541355Y786524D01*
X541449Y787000D01*
D02*
G37*
G36*
X538500Y789950D02*
X538025Y789855D01*
X537198Y789302D01*
X536645Y788476D01*
X536551Y788000D01*
X538500D01*
Y789950D01*
D02*
G37*
G36*
X522543Y791150D02*
X518500D01*
Y787500D01*
X522543D01*
Y791150D01*
D02*
G37*
G36*
X517500D02*
X513457D01*
Y787500D01*
X517500D01*
Y791150D01*
D02*
G37*
G36*
X621949Y765100D02*
X620000D01*
Y763151D01*
X620475Y763245D01*
X621302Y763798D01*
X621855Y764625D01*
X621949Y765100D01*
D02*
G37*
G36*
X690500Y707449D02*
Y705500D01*
X692450D01*
X692355Y705975D01*
X691802Y706802D01*
X690976Y707355D01*
X690500Y707449D01*
D02*
G37*
G36*
X689500D02*
X689024Y707355D01*
X688198Y706802D01*
X687645Y705975D01*
X687550Y705500D01*
X689500D01*
Y707449D01*
D02*
G37*
G36*
X620500D02*
Y705500D01*
X622449D01*
X622355Y705975D01*
X621802Y706802D01*
X620975Y707355D01*
X620500Y707449D01*
D02*
G37*
G36*
X709500D02*
X709024Y707355D01*
X708198Y706802D01*
X707645Y705975D01*
X707550Y705500D01*
X709500D01*
Y707449D01*
D02*
G37*
G36*
X730500D02*
Y705500D01*
X732449D01*
X732355Y705975D01*
X731802Y706802D01*
X730975Y707355D01*
X730500Y707449D01*
D02*
G37*
G36*
X729500D02*
X729025Y707355D01*
X728198Y706802D01*
X727645Y705975D01*
X727551Y705500D01*
X729500D01*
Y707449D01*
D02*
G37*
G36*
X710500D02*
Y705500D01*
X712450D01*
X712355Y705975D01*
X711802Y706802D01*
X710976Y707355D01*
X710500Y707449D01*
D02*
G37*
G36*
X569500D02*
X569025Y707355D01*
X568198Y706802D01*
X567645Y705975D01*
X567551Y705500D01*
X569500D01*
Y707449D01*
D02*
G37*
G36*
X510500D02*
Y705500D01*
X512450D01*
X512355Y705975D01*
X511802Y706802D01*
X510976Y707355D01*
X510500Y707449D01*
D02*
G37*
G36*
X509500D02*
X509024Y707355D01*
X508198Y706802D01*
X507645Y705975D01*
X507550Y705500D01*
X509500D01*
Y707449D01*
D02*
G37*
G36*
X570500D02*
Y705500D01*
X572449D01*
X572355Y705975D01*
X571802Y706802D01*
X570975Y707355D01*
X570500Y707449D01*
D02*
G37*
G36*
X619500D02*
X619025Y707355D01*
X618198Y706802D01*
X617645Y705975D01*
X617551Y705500D01*
X619500D01*
Y707449D01*
D02*
G37*
G36*
X600500D02*
Y705500D01*
X602450D01*
X602355Y705975D01*
X601802Y706802D01*
X600976Y707355D01*
X600500Y707449D01*
D02*
G37*
G36*
X599500D02*
X599024Y707355D01*
X598198Y706802D01*
X597645Y705975D01*
X597550Y705500D01*
X599500D01*
Y707449D01*
D02*
G37*
G36*
X467200Y755900D02*
X459450D01*
Y752900D01*
X467200D01*
Y755900D01*
D02*
G37*
G36*
X628300Y752600D02*
X626350D01*
X626445Y752125D01*
X626998Y751298D01*
X627824Y750745D01*
X628300Y750651D01*
Y752600D01*
D02*
G37*
G36*
X487500Y750700D02*
X469400D01*
Y742100D01*
X487500D01*
Y750700D01*
D02*
G37*
G36*
X459450Y759900D02*
Y756900D01*
X467200D01*
Y759900D01*
X459450D01*
D02*
G37*
G36*
X619000Y765100D02*
X617051D01*
X617145Y764625D01*
X617698Y763798D01*
X618525Y763245D01*
X619000Y763151D01*
Y765100D01*
D02*
G37*
G36*
X633434Y763000D02*
X631484D01*
Y761051D01*
X631960Y761145D01*
X632787Y761698D01*
X633339Y762525D01*
X633434Y763000D01*
D02*
G37*
G36*
X630484D02*
X628535D01*
X628629Y762525D01*
X629182Y761698D01*
X630009Y761145D01*
X630484Y761051D01*
Y763000D01*
D02*
G37*
G36*
X461500Y717500D02*
X457850D01*
Y713457D01*
X461500D01*
Y717500D01*
D02*
G37*
G36*
X750500Y707449D02*
Y705500D01*
X752450D01*
X752355Y705975D01*
X751802Y706802D01*
X750976Y707355D01*
X750500Y707449D01*
D02*
G37*
G36*
X749500D02*
X749024Y707355D01*
X748198Y706802D01*
X747645Y705975D01*
X747550Y705500D01*
X749500D01*
Y707449D01*
D02*
G37*
G36*
X466150Y717500D02*
X462500D01*
Y713457D01*
X466150D01*
Y717500D01*
D02*
G37*
G36*
X537500Y740949D02*
X537024Y740855D01*
X536198Y740302D01*
X535645Y739475D01*
X535550Y739000D01*
X537500D01*
Y740949D01*
D02*
G37*
G36*
X466150Y722543D02*
X462500D01*
Y718500D01*
X466150D01*
Y722543D01*
D02*
G37*
G36*
X461500D02*
X457850D01*
Y718500D01*
X461500D01*
Y722543D01*
D02*
G37*
%LPD*%
G54D10*
X12500Y840000D02*
D03*
X867500Y35000D02*
D03*
X12500D02*
D03*
X60000Y60000D02*
D03*
X430000Y60000D02*
D03*
X60000Y815000D02*
D03*
X430000D02*
D03*
X450000Y60000D02*
D03*
X820000Y60000D02*
D03*
X450000Y815000D02*
D03*
X820000D02*
D03*
X268000Y263000D02*
D03*
X248000D02*
D03*
X238000D02*
D03*
X228000D02*
D03*
X126300Y74000D02*
D03*
X194600Y723300D02*
D03*
X194900Y696900D02*
D03*
X415500Y496800D02*
D03*
X393700Y472000D02*
D03*
X83900Y447200D02*
D03*
X58000Y718500D02*
D03*
X62000Y727500D02*
D03*
X318500Y507200D02*
D03*
X326500D02*
D03*
X296500D02*
D03*
X356500D02*
D03*
X348500D02*
D03*
X378500D02*
D03*
X390000Y502500D02*
D03*
X188500Y507200D02*
D03*
X158500D02*
D03*
X166500D02*
D03*
X106500D02*
D03*
X136500D02*
D03*
X128500D02*
D03*
X297800Y751500D02*
D03*
X93200Y705900D02*
D03*
X58000Y664500D02*
D03*
X86800Y637700D02*
D03*
X346100Y74500D02*
D03*
X326100Y74550D02*
D03*
X306100Y74500D02*
D03*
X286100Y74550D02*
D03*
X266100Y74500D02*
D03*
X246100Y74550D02*
D03*
X226100Y74500D02*
D03*
X206100Y74550D02*
D03*
X186100D02*
D03*
X166100D02*
D03*
X146100D02*
D03*
X252200Y378800D02*
D03*
X248100Y392500D02*
D03*
Y418200D02*
D03*
X64700Y637700D02*
D03*
X410500Y529500D02*
D03*
X420500D02*
D03*
X388500Y775250D02*
D03*
X433500Y528500D02*
D03*
X424500Y578000D02*
D03*
X404000Y540000D02*
D03*
X407000Y615500D02*
D03*
X412000Y583000D02*
D03*
X417500Y590500D02*
D03*
X425000Y590000D02*
D03*
X431000Y558500D02*
D03*
X423500Y750000D02*
D03*
X434000Y627500D02*
D03*
X415500Y717000D02*
D03*
X420500Y705500D02*
D03*
X425000Y713000D02*
D03*
X383000Y750000D02*
D03*
X104000Y806000D02*
D03*
X206700Y445500D02*
D03*
X658000Y263000D02*
D03*
X638000D02*
D03*
X628000D02*
D03*
X618000D02*
D03*
X516300Y74000D02*
D03*
X584600Y723300D02*
D03*
X584900Y696900D02*
D03*
X805500Y496800D02*
D03*
X783700Y472000D02*
D03*
X473900Y447200D02*
D03*
X448000Y718500D02*
D03*
X452000Y727500D02*
D03*
X708500Y507200D02*
D03*
X716500D02*
D03*
X686500D02*
D03*
X746500D02*
D03*
X738500D02*
D03*
X768500D02*
D03*
X780000Y502500D02*
D03*
X578500Y507200D02*
D03*
X548500D02*
D03*
X556500D02*
D03*
X496500D02*
D03*
X526500D02*
D03*
X518500D02*
D03*
X687800Y751500D02*
D03*
X483200Y705900D02*
D03*
X448000Y664500D02*
D03*
X476800Y637700D02*
D03*
X736100Y74500D02*
D03*
X716100Y74550D02*
D03*
X696100Y74500D02*
D03*
X676100Y74550D02*
D03*
X656100Y74500D02*
D03*
X636100Y74550D02*
D03*
X616100Y74500D02*
D03*
X596100Y74550D02*
D03*
X576100D02*
D03*
X556100D02*
D03*
X536100D02*
D03*
X642200Y378800D02*
D03*
X638100Y392500D02*
D03*
Y418200D02*
D03*
X454700Y637700D02*
D03*
X800500Y529500D02*
D03*
X810500D02*
D03*
X778500Y775250D02*
D03*
X823500Y528500D02*
D03*
X814500Y578000D02*
D03*
X794000Y540000D02*
D03*
X797000Y615500D02*
D03*
X802000Y583000D02*
D03*
X807500Y590500D02*
D03*
X815000Y590000D02*
D03*
X821000Y558500D02*
D03*
X813500Y750000D02*
D03*
X824000Y627500D02*
D03*
X805500Y717000D02*
D03*
X810500Y705500D02*
D03*
X815000Y713000D02*
D03*
X773000Y750000D02*
D03*
X494000Y806000D02*
D03*
X596700Y445500D02*
D03*
G54D11*
X83000Y253100D02*
D03*
Y273100D02*
D03*
X117000Y253100D02*
D03*
Y273100D02*
D03*
X473000Y253100D02*
D03*
Y273100D02*
D03*
X507000Y253100D02*
D03*
Y273100D02*
D03*
G54D12*
X310750Y271400D02*
D03*
X343250D02*
D03*
X700750D02*
D03*
X733250D02*
D03*
G54D13*
X184000Y263300D02*
D03*
X167000D02*
D03*
X574000D02*
D03*
X557000D02*
D03*
G54D14*
X199800Y274300D02*
D03*
Y263300D02*
D03*
X128000Y798000D02*
D03*
Y787000D02*
D03*
X128500Y771000D02*
D03*
Y760000D02*
D03*
Y745500D02*
D03*
Y734500D02*
D03*
X589800Y274300D02*
D03*
Y263300D02*
D03*
X518000Y798000D02*
D03*
Y787000D02*
D03*
X518500Y771000D02*
D03*
Y760000D02*
D03*
Y745500D02*
D03*
Y734500D02*
D03*
G54D15*
X68950Y746400D02*
D03*
Y736400D02*
D03*
Y766400D02*
D03*
Y756400D02*
D03*
X88450Y746400D02*
D03*
Y736400D02*
D03*
Y766400D02*
D03*
Y756400D02*
D03*
X458950Y746400D02*
D03*
Y736400D02*
D03*
Y766400D02*
D03*
Y756400D02*
D03*
X478450Y746400D02*
D03*
Y736400D02*
D03*
Y766400D02*
D03*
Y756400D02*
D03*
G54D16*
X218150Y777264D02*
D03*
Y775295D02*
D03*
Y773327D02*
D03*
Y771358D02*
D03*
Y769390D02*
D03*
Y767421D02*
D03*
Y765453D02*
D03*
Y763484D02*
D03*
Y761516D02*
D03*
Y759547D02*
D03*
Y757579D02*
D03*
Y755610D02*
D03*
Y753642D02*
D03*
Y751673D02*
D03*
Y749705D02*
D03*
Y747736D02*
D03*
X261850D02*
D03*
Y749705D02*
D03*
Y751673D02*
D03*
Y753642D02*
D03*
Y755610D02*
D03*
Y757579D02*
D03*
Y759547D02*
D03*
Y761516D02*
D03*
Y763484D02*
D03*
Y765453D02*
D03*
Y767421D02*
D03*
Y769390D02*
D03*
Y771358D02*
D03*
Y773327D02*
D03*
Y775295D02*
D03*
Y777264D02*
D03*
X608150D02*
D03*
Y775295D02*
D03*
Y773327D02*
D03*
Y771358D02*
D03*
Y769390D02*
D03*
Y767421D02*
D03*
Y765453D02*
D03*
Y763484D02*
D03*
Y761516D02*
D03*
Y759547D02*
D03*
Y757579D02*
D03*
Y755610D02*
D03*
Y753642D02*
D03*
Y751673D02*
D03*
Y749705D02*
D03*
Y747736D02*
D03*
X651850D02*
D03*
Y749705D02*
D03*
Y751673D02*
D03*
Y753642D02*
D03*
Y755610D02*
D03*
Y757579D02*
D03*
Y759547D02*
D03*
Y761516D02*
D03*
Y763484D02*
D03*
Y765453D02*
D03*
Y767421D02*
D03*
Y769390D02*
D03*
Y771358D02*
D03*
Y773327D02*
D03*
Y775295D02*
D03*
Y777264D02*
D03*
G54D17*
X225236Y740650D02*
D03*
X227205D02*
D03*
X229173D02*
D03*
X231142D02*
D03*
X233110D02*
D03*
X235079D02*
D03*
X237047D02*
D03*
X239016D02*
D03*
X240984D02*
D03*
X242953D02*
D03*
X244921D02*
D03*
X246890D02*
D03*
X248858D02*
D03*
X250827D02*
D03*
X252795D02*
D03*
X254764D02*
D03*
Y784350D02*
D03*
X252795D02*
D03*
X250827D02*
D03*
X248858D02*
D03*
X246890D02*
D03*
X244921D02*
D03*
X242953D02*
D03*
X240984D02*
D03*
X239016D02*
D03*
X237047D02*
D03*
X235079D02*
D03*
X233110D02*
D03*
X231142D02*
D03*
X229173D02*
D03*
X227205D02*
D03*
X225236D02*
D03*
X615236Y740650D02*
D03*
X617205D02*
D03*
X619173D02*
D03*
X621142D02*
D03*
X623110D02*
D03*
X625079D02*
D03*
X627047D02*
D03*
X629016D02*
D03*
X630984D02*
D03*
X632953D02*
D03*
X634921D02*
D03*
X636890D02*
D03*
X638858D02*
D03*
X640827D02*
D03*
X642795D02*
D03*
X644764D02*
D03*
Y784350D02*
D03*
X642795D02*
D03*
X640827D02*
D03*
X638858D02*
D03*
X636890D02*
D03*
X634921D02*
D03*
X632953D02*
D03*
X630984D02*
D03*
X629016D02*
D03*
X627047D02*
D03*
X625079D02*
D03*
X623110D02*
D03*
X621142D02*
D03*
X619173D02*
D03*
X617205D02*
D03*
X615236D02*
D03*
G54D18*
X208976Y475002D02*
D03*
X281024D02*
D03*
X598976D02*
D03*
X671024D02*
D03*
G54D19*
X273543Y487798D02*
D03*
X271575D02*
D03*
X269606D02*
D03*
X267638D02*
D03*
X265669D02*
D03*
X263701D02*
D03*
X261732D02*
D03*
X259764D02*
D03*
X257795D02*
D03*
X255827D02*
D03*
X253858D02*
D03*
X251890D02*
D03*
X249921D02*
D03*
X247953D02*
D03*
X245984D02*
D03*
X244016D02*
D03*
X242047D02*
D03*
X240079D02*
D03*
X238110D02*
D03*
X236142D02*
D03*
X234173D02*
D03*
X232205D02*
D03*
X230236D02*
D03*
X228268D02*
D03*
X226299D02*
D03*
X224331D02*
D03*
X222362D02*
D03*
X220394D02*
D03*
X218425D02*
D03*
X216457D02*
D03*
X663543D02*
D03*
X661575D02*
D03*
X659606D02*
D03*
X657638D02*
D03*
X655669D02*
D03*
X653701D02*
D03*
X651732D02*
D03*
X649764D02*
D03*
X647795D02*
D03*
X645827D02*
D03*
X643858D02*
D03*
X641890D02*
D03*
X639921D02*
D03*
X637953D02*
D03*
X635984D02*
D03*
X634016D02*
D03*
X632047D02*
D03*
X630079D02*
D03*
X628110D02*
D03*
X626142D02*
D03*
X624173D02*
D03*
X622205D02*
D03*
X620236D02*
D03*
X618268D02*
D03*
X616299D02*
D03*
X614331D02*
D03*
X612362D02*
D03*
X610394D02*
D03*
X608425D02*
D03*
X606457D02*
D03*
G54D20*
X379500Y663750D02*
D03*
Y671250D02*
D03*
X207500Y501050D02*
D03*
Y493550D02*
D03*
X115500Y797750D02*
D03*
Y790250D02*
D03*
X411000Y652750D02*
D03*
X397500Y671250D02*
D03*
X393000Y652750D02*
D03*
X266500Y697250D02*
D03*
Y689750D02*
D03*
X246500Y697250D02*
D03*
Y689750D02*
D03*
X226500Y697250D02*
D03*
Y689750D02*
D03*
X206500Y697250D02*
D03*
Y689750D02*
D03*
X356500Y697250D02*
D03*
Y689750D02*
D03*
X336500Y697250D02*
D03*
Y689750D02*
D03*
X316500Y697250D02*
D03*
Y689750D02*
D03*
X296500Y697250D02*
D03*
Y689750D02*
D03*
X176500Y697250D02*
D03*
Y689750D02*
D03*
X156500Y697250D02*
D03*
Y689750D02*
D03*
X136500Y697250D02*
D03*
Y689750D02*
D03*
X116500Y697250D02*
D03*
Y689750D02*
D03*
Y763250D02*
D03*
Y770750D02*
D03*
X117000Y737750D02*
D03*
Y745250D02*
D03*
X393000Y645250D02*
D03*
X397500Y663750D02*
D03*
X411000Y645250D02*
D03*
X388500Y663750D02*
D03*
Y671250D02*
D03*
X420000Y645250D02*
D03*
Y652750D02*
D03*
X384000Y645250D02*
D03*
Y652750D02*
D03*
X402000Y645250D02*
D03*
Y652750D02*
D03*
X429000Y645250D02*
D03*
Y652750D02*
D03*
X424500Y663750D02*
D03*
Y671250D02*
D03*
X406500Y663750D02*
D03*
Y671250D02*
D03*
X415500D02*
D03*
Y663750D02*
D03*
X769500D02*
D03*
Y671250D02*
D03*
X597500Y501050D02*
D03*
Y493550D02*
D03*
X505500Y797750D02*
D03*
Y790250D02*
D03*
X801000Y652750D02*
D03*
X787500Y671250D02*
D03*
X783000Y652750D02*
D03*
X656500Y697250D02*
D03*
Y689750D02*
D03*
X636500Y697250D02*
D03*
Y689750D02*
D03*
X616500Y697250D02*
D03*
Y689750D02*
D03*
X596500Y697250D02*
D03*
Y689750D02*
D03*
X746500Y697250D02*
D03*
Y689750D02*
D03*
X726500Y697250D02*
D03*
Y689750D02*
D03*
X706500Y697250D02*
D03*
Y689750D02*
D03*
X686500Y697250D02*
D03*
Y689750D02*
D03*
X566500Y697250D02*
D03*
Y689750D02*
D03*
X546500Y697250D02*
D03*
Y689750D02*
D03*
X526500Y697250D02*
D03*
Y689750D02*
D03*
X506500Y697250D02*
D03*
Y689750D02*
D03*
Y763250D02*
D03*
Y770750D02*
D03*
X507000Y737750D02*
D03*
Y745250D02*
D03*
X783000Y645250D02*
D03*
X787500Y663750D02*
D03*
X801000Y645250D02*
D03*
X778500Y663750D02*
D03*
Y671250D02*
D03*
X810000Y645250D02*
D03*
Y652750D02*
D03*
X774000Y645250D02*
D03*
Y652750D02*
D03*
X792000Y645250D02*
D03*
Y652750D02*
D03*
X819000Y645250D02*
D03*
Y652750D02*
D03*
X814500Y663750D02*
D03*
Y671250D02*
D03*
X796500Y663750D02*
D03*
Y671250D02*
D03*
X805500D02*
D03*
Y663750D02*
D03*
G54D21*
X330000Y476250D02*
D03*
Y493750D02*
D03*
X345000D02*
D03*
Y476250D02*
D03*
X360000Y493750D02*
D03*
Y476250D02*
D03*
X375000Y493750D02*
D03*
Y476250D02*
D03*
X300000D02*
D03*
Y493750D02*
D03*
X315000D02*
D03*
Y476250D02*
D03*
X110000D02*
D03*
Y493750D02*
D03*
X125000Y476250D02*
D03*
Y493750D02*
D03*
X140000Y476250D02*
D03*
Y493750D02*
D03*
X155000Y476250D02*
D03*
Y493750D02*
D03*
X170000Y476250D02*
D03*
Y493750D02*
D03*
X185000Y476250D02*
D03*
Y493750D02*
D03*
X720000Y476250D02*
D03*
Y493750D02*
D03*
X735000D02*
D03*
Y476250D02*
D03*
X750000Y493750D02*
D03*
Y476250D02*
D03*
X765000Y493750D02*
D03*
Y476250D02*
D03*
X690000D02*
D03*
Y493750D02*
D03*
X705000D02*
D03*
Y476250D02*
D03*
X500000D02*
D03*
Y493750D02*
D03*
X515000Y476250D02*
D03*
Y493750D02*
D03*
X530000Y476250D02*
D03*
Y493750D02*
D03*
X545000Y476250D02*
D03*
Y493750D02*
D03*
X560000Y476250D02*
D03*
Y493750D02*
D03*
X575000Y476250D02*
D03*
Y493750D02*
D03*
G54D22*
X242250Y501000D02*
D03*
X234750D02*
D03*
X225050Y500300D02*
D03*
X217550D02*
D03*
X116250Y620000D02*
D03*
X123750D02*
D03*
X136250D02*
D03*
X143750D02*
D03*
X156250D02*
D03*
X163750D02*
D03*
X176250D02*
D03*
X183750D02*
D03*
X296250D02*
D03*
X303750D02*
D03*
X316250D02*
D03*
X323750D02*
D03*
X336250D02*
D03*
X343750D02*
D03*
X356250D02*
D03*
X363750D02*
D03*
X213750D02*
D03*
X206250D02*
D03*
X233750D02*
D03*
X226250D02*
D03*
X253750D02*
D03*
X246250D02*
D03*
X273750D02*
D03*
X266250D02*
D03*
X632250Y501000D02*
D03*
X624750D02*
D03*
X615050Y500300D02*
D03*
X607550D02*
D03*
X506250Y620000D02*
D03*
X513750D02*
D03*
X526250D02*
D03*
X533750D02*
D03*
X546250D02*
D03*
X553750D02*
D03*
X566250D02*
D03*
X573750D02*
D03*
X686250D02*
D03*
X693750D02*
D03*
X706250D02*
D03*
X713750D02*
D03*
X726250D02*
D03*
X733750D02*
D03*
X746250D02*
D03*
X753750D02*
D03*
X603750D02*
D03*
X596250D02*
D03*
X623750D02*
D03*
X616250D02*
D03*
X643750D02*
D03*
X636250D02*
D03*
X663750D02*
D03*
X656250D02*
D03*
G54D23*
X327700Y767900D02*
D03*
X337700D02*
D03*
X327700Y800400D02*
D03*
X337700D02*
D03*
X307700Y767900D02*
D03*
Y800400D02*
D03*
X317700Y767900D02*
D03*
Y800400D02*
D03*
X357700D02*
D03*
Y767900D02*
D03*
X347700Y800400D02*
D03*
Y767900D02*
D03*
X377700Y800400D02*
D03*
X367700D02*
D03*
X377700Y767900D02*
D03*
X367700D02*
D03*
X717700D02*
D03*
X727700D02*
D03*
X717700Y800400D02*
D03*
X727700D02*
D03*
X697700Y767900D02*
D03*
Y800400D02*
D03*
X707700Y767900D02*
D03*
Y800400D02*
D03*
X747700D02*
D03*
Y767900D02*
D03*
X737700Y800400D02*
D03*
Y767900D02*
D03*
X767700Y800400D02*
D03*
X757700D02*
D03*
X767700Y767900D02*
D03*
X757700D02*
D03*
G54D24*
X190750Y772700D02*
D03*
X184250D02*
D03*
X190750Y780200D02*
D03*
X184250D02*
D03*
X114750Y817000D02*
D03*
X108250D02*
D03*
Y811000D02*
D03*
X114750D02*
D03*
X199250Y790000D02*
D03*
X77250Y700500D02*
D03*
X70750D02*
D03*
X190750Y765200D02*
D03*
X184250D02*
D03*
X190750Y757700D02*
D03*
X184250D02*
D03*
X186250Y742500D02*
D03*
X179750D02*
D03*
X183250Y682500D02*
D03*
X176750D02*
D03*
X163250D02*
D03*
X156750D02*
D03*
X143250D02*
D03*
X136750D02*
D03*
X123250D02*
D03*
X116750D02*
D03*
X363250D02*
D03*
X356750D02*
D03*
X343250D02*
D03*
X336750D02*
D03*
X323250D02*
D03*
X316750D02*
D03*
X303250D02*
D03*
X296750D02*
D03*
X273250D02*
D03*
X266750D02*
D03*
X253250D02*
D03*
X246750D02*
D03*
X233250D02*
D03*
X226750D02*
D03*
X213250D02*
D03*
X206750D02*
D03*
X270250Y502000D02*
D03*
X276750D02*
D03*
X205750Y790000D02*
D03*
X580750Y772700D02*
D03*
X574250D02*
D03*
X580750Y780200D02*
D03*
X574250D02*
D03*
X504750Y817000D02*
D03*
X498250D02*
D03*
Y811000D02*
D03*
X504750D02*
D03*
X589250Y790000D02*
D03*
X467250Y700500D02*
D03*
X460750D02*
D03*
X580750Y765200D02*
D03*
X574250D02*
D03*
X580750Y757700D02*
D03*
X574250D02*
D03*
X576250Y742500D02*
D03*
X569750D02*
D03*
X573250Y682500D02*
D03*
X566750D02*
D03*
X553250D02*
D03*
X546750D02*
D03*
X533250D02*
D03*
X526750D02*
D03*
X513250D02*
D03*
X506750D02*
D03*
X753250D02*
D03*
X746750D02*
D03*
X733250D02*
D03*
X726750D02*
D03*
X713250D02*
D03*
X706750D02*
D03*
X693250D02*
D03*
X686750D02*
D03*
X663250D02*
D03*
X656750D02*
D03*
X643250D02*
D03*
X636750D02*
D03*
X623250D02*
D03*
X616750D02*
D03*
X603250D02*
D03*
X596750D02*
D03*
X660250Y502000D02*
D03*
X666750D02*
D03*
X595750Y790000D02*
D03*
G54D25*
X274000Y690250D02*
D03*
Y696750D02*
D03*
X254000Y690250D02*
D03*
Y696750D02*
D03*
X234000Y690250D02*
D03*
Y696750D02*
D03*
X214000Y690250D02*
D03*
Y696750D02*
D03*
X364000Y690250D02*
D03*
Y696750D02*
D03*
X344000Y690250D02*
D03*
Y696750D02*
D03*
X324000Y690250D02*
D03*
Y696750D02*
D03*
X304000Y690250D02*
D03*
Y696750D02*
D03*
X184000Y690250D02*
D03*
Y696750D02*
D03*
X164000Y690250D02*
D03*
Y696750D02*
D03*
X144000Y690250D02*
D03*
Y696750D02*
D03*
X124000Y690250D02*
D03*
Y696750D02*
D03*
X664000Y690250D02*
D03*
Y696750D02*
D03*
X644000Y690250D02*
D03*
Y696750D02*
D03*
X624000Y690250D02*
D03*
Y696750D02*
D03*
X604000Y690250D02*
D03*
Y696750D02*
D03*
X754000Y690250D02*
D03*
Y696750D02*
D03*
X734000Y690250D02*
D03*
Y696750D02*
D03*
X714000Y690250D02*
D03*
Y696750D02*
D03*
X694000Y690250D02*
D03*
Y696750D02*
D03*
X574000Y690250D02*
D03*
Y696750D02*
D03*
X554000Y690250D02*
D03*
Y696750D02*
D03*
X534000Y690250D02*
D03*
Y696750D02*
D03*
X514000Y690250D02*
D03*
Y696750D02*
D03*
G54D26*
X360500Y109900D02*
D03*
X349500D02*
D03*
X340500D02*
D03*
X329500D02*
D03*
X320500D02*
D03*
X309500D02*
D03*
X300500D02*
D03*
X289500D02*
D03*
X140500D02*
D03*
X129500D02*
D03*
X160500D02*
D03*
X149500D02*
D03*
X180500D02*
D03*
X169500D02*
D03*
X200500D02*
D03*
X189500D02*
D03*
X220500D02*
D03*
X209500D02*
D03*
X240500D02*
D03*
X229500D02*
D03*
X260500D02*
D03*
X249500D02*
D03*
X280500D02*
D03*
X269500D02*
D03*
X83000Y718000D02*
D03*
X72000D02*
D03*
X750500Y109900D02*
D03*
X739500D02*
D03*
X730500D02*
D03*
X719500D02*
D03*
X710500D02*
D03*
X699500D02*
D03*
X690500D02*
D03*
X679500D02*
D03*
X530500D02*
D03*
X519500D02*
D03*
X550500D02*
D03*
X539500D02*
D03*
X570500D02*
D03*
X559500D02*
D03*
X590500D02*
D03*
X579500D02*
D03*
X610500D02*
D03*
X599500D02*
D03*
X630500D02*
D03*
X619500D02*
D03*
X650500D02*
D03*
X639500D02*
D03*
X670500D02*
D03*
X659500D02*
D03*
X473000Y718000D02*
D03*
X462000D02*
D03*
G54D27*
X178250Y786500D02*
D03*
X186750Y790000D02*
D03*
X178250Y793500D02*
D03*
X568250Y786500D02*
D03*
X576750Y790000D02*
D03*
X568250Y793500D02*
D03*
G54D28*
X282000Y777750D02*
D03*
Y798250D02*
D03*
X672000Y777750D02*
D03*
Y798250D02*
D03*
G54D29*
X430750Y697000D02*
D03*
X410250D02*
D03*
X820750D02*
D03*
X800250D02*
D03*
G54D30*
X424000Y515000D02*
D03*
X434000D02*
D03*
X404000D02*
D03*
X434000Y550000D02*
D03*
X404000D02*
D03*
X414000Y515000D02*
D03*
Y550000D02*
D03*
X424000D02*
D03*
Y567000D02*
D03*
X434000D02*
D03*
X404000D02*
D03*
X434000Y602000D02*
D03*
X404000D02*
D03*
X414000Y567000D02*
D03*
Y602000D02*
D03*
X424000D02*
D03*
X814000Y515000D02*
D03*
X824000D02*
D03*
X794000D02*
D03*
X824000Y550000D02*
D03*
X794000D02*
D03*
X804000Y515000D02*
D03*
Y550000D02*
D03*
X814000D02*
D03*
Y567000D02*
D03*
X824000D02*
D03*
X794000D02*
D03*
X824000Y602000D02*
D03*
X794000D02*
D03*
X804000Y567000D02*
D03*
Y602000D02*
D03*
X814000D02*
D03*
G54D31*
X392500Y765500D02*
D03*
Y755500D02*
D03*
Y735500D02*
D03*
Y725500D02*
D03*
X432500Y765500D02*
D03*
Y735500D02*
D03*
X782500Y765500D02*
D03*
Y755500D02*
D03*
Y735500D02*
D03*
Y725500D02*
D03*
X822500Y765500D02*
D03*
Y735500D02*
D03*
G54D32*
X409000Y392500D02*
X414000D01*
X409000D02*
X414000Y387500D01*
X248100Y392500D02*
X409000D01*
X81000D02*
X248100D01*
X78500D02*
X81000D01*
X76000Y387500D02*
X81000Y392500D01*
X76000Y395000D02*
Y402500D01*
Y395000D02*
X78500Y392500D01*
X799000D02*
X804000D01*
X799000D02*
X804000Y387500D01*
X638100Y392500D02*
X799000D01*
X471000D02*
X638100D01*
X468500D02*
X471000D01*
X466000Y387500D02*
X471000Y392500D01*
X466000Y395000D02*
Y402500D01*
Y395000D02*
X468500Y392500D01*
G54D33*
X428500Y267700D02*
Y268400D01*
X278000Y263000D02*
X285200D01*
X343250Y271400D02*
X353900D01*
X359600Y265700D01*
X310750Y271400D02*
X320750Y281400D01*
X385900D01*
X409000Y217700D02*
X414473D01*
X139400Y256500D02*
X160200D01*
X136000Y253100D02*
X139400Y256500D01*
X117000Y253100D02*
X136000D01*
X124000Y273100D02*
X128300Y277400D01*
X117000Y273100D02*
X124000D01*
X72400Y280900D02*
X80200Y273100D01*
X83000D01*
X60500Y270400D02*
X77800Y253100D01*
X83000D01*
X128695Y273500D02*
X199000D01*
X160200Y256500D02*
X167000Y263300D01*
X199000Y273500D02*
X199800Y274300D01*
X307750Y274400D02*
X310750Y271400D01*
X251300Y274400D02*
X307750D01*
X248000Y271100D02*
X251300Y274400D01*
X248000Y263000D02*
Y271100D01*
X244800Y274300D02*
X248000Y271100D01*
X199800Y274300D02*
X244800D01*
X227700Y263300D02*
X228000Y263000D01*
X199800Y263300D02*
X227700D01*
X184000D02*
X199800D01*
X75900Y327600D02*
X76000Y327500D01*
X65200Y327600D02*
X75900D01*
X60500Y322900D02*
X65200Y327600D01*
X60500Y270400D02*
Y322900D01*
X360500Y109900D02*
Y115100D01*
X338200Y146000D02*
Y203400D01*
X306900Y157000D02*
X314800D01*
X220500Y109900D02*
X220568Y109832D01*
Y101200D02*
Y109832D01*
X132245Y156800D02*
X142200D01*
X215473Y96105D02*
X220568Y101200D01*
X173300Y147600D02*
Y204400D01*
X111700Y142900D02*
Y204200D01*
X401800Y207700D02*
X409000D01*
X397400Y203300D02*
X401800Y207700D01*
X365800Y156800D02*
X378427D01*
X342500Y207700D02*
X347455D01*
X338200Y203400D02*
X342500Y207700D01*
X278700D02*
X285909D01*
X274900Y203900D02*
X278700Y207700D01*
X274900Y184400D02*
Y203900D01*
X255336Y156800D02*
X261100D01*
X229600Y207700D02*
X233600Y203700D01*
X224364Y207700D02*
X229600D01*
X193991Y156600D02*
X201700D01*
X193791Y156800D02*
X193991Y156600D01*
X201700D02*
X204800Y153500D01*
X215473Y88400D02*
Y96105D01*
X195788Y96220D02*
X200368Y100800D01*
X162818Y207700D02*
X162918Y207600D01*
X170100D01*
X173300Y204400D01*
X200368Y109768D02*
X200500Y109900D01*
X200368Y100800D02*
Y109768D01*
X195788Y88400D02*
Y96220D01*
X180500Y100730D02*
Y109900D01*
X176102Y96332D02*
X180500Y100730D01*
X176102Y88400D02*
Y96332D01*
X101273Y207700D02*
X101673Y207300D01*
X108600D01*
X111700Y204200D01*
X160500Y109900D02*
X160500Y109900D01*
X160500Y102100D02*
Y109900D01*
X156417Y98017D02*
X160500Y102100D01*
X156417Y88400D02*
Y98017D01*
X70700Y156800D02*
X79000D01*
X140300Y109700D02*
X140500Y109900D01*
X140300Y102500D02*
Y109700D01*
X136732Y98932D02*
X140300Y102500D01*
X136732Y88400D02*
Y98932D01*
X193791Y166800D02*
X217991D01*
X224364Y173173D01*
Y197700D01*
X132245Y166800D02*
X156445D01*
X162818Y173173D01*
Y197700D01*
X101273Y173173D02*
Y197700D01*
X94900Y166800D02*
X101273Y173173D01*
X70700Y166800D02*
X94900D01*
X357273Y201500D02*
Y217173D01*
X353473Y197700D02*
X357273Y201500D01*
X347455Y197700D02*
X353473D01*
X295727Y201500D02*
Y217173D01*
X291927Y197700D02*
X295727Y201500D01*
X285909Y197700D02*
X291927D01*
X153000Y217700D02*
X162818D01*
X218218Y197827D02*
X224236D01*
X214418Y201627D02*
X218218Y197827D01*
X214418Y201627D02*
Y217300D01*
X101273Y217700D02*
X153000D01*
Y201500D02*
Y217700D01*
Y201500D02*
X156800Y197700D01*
X162818D01*
X409000D02*
X414600D01*
X417973Y201073D02*
Y214200D01*
X414600Y197700D02*
X417973Y201073D01*
X414473Y217700D02*
X417973Y214200D01*
X384027Y166673D02*
X387527Y163173D01*
X384155Y146673D02*
X387527Y150045D01*
X378555Y166673D02*
X384027D01*
X387527Y150045D02*
Y163173D01*
X378555Y146673D02*
X384155D01*
X322482Y166673D02*
X325982Y163173D01*
X322609Y146673D02*
X325982Y150045D01*
X317009Y166673D02*
X322482D01*
X325982Y150045D02*
Y163173D01*
X317009Y146673D02*
X322609D01*
X246236Y150427D02*
X249736Y146927D01*
X246236Y163555D02*
X249609Y166927D01*
X249736Y146927D02*
X255209D01*
X246236Y150427D02*
Y163555D01*
X249609Y166927D02*
X255209D01*
X184691Y150427D02*
X188191Y146927D01*
X184691Y163555D02*
X188064Y166927D01*
X188191Y146927D02*
X193664D01*
X184691Y150427D02*
Y163555D01*
X188064Y166927D02*
X193664D01*
X123145Y150427D02*
X126645Y146927D01*
X123145Y163555D02*
X126518Y166927D01*
X126645Y146927D02*
X132118D01*
X123145Y150427D02*
Y163555D01*
X126518Y166927D02*
X132118D01*
X61600Y150427D02*
X65100Y146927D01*
X61600Y163555D02*
X64973Y166927D01*
X65100Y146927D02*
X70573D01*
X61600Y150427D02*
Y163555D01*
X64973Y166927D02*
X70573D01*
X58200Y664300D02*
Y718000D01*
X66500Y359000D02*
X76000D01*
X85300Y460100D02*
Y510100D01*
X58200Y517200D02*
Y664300D01*
Y367300D02*
Y453000D01*
Y517200D02*
X65300Y510100D01*
X58200Y453000D02*
X65300Y460100D01*
Y510100D01*
X64700Y445800D02*
X73500Y454600D01*
X64700Y409300D02*
Y445800D01*
Y526000D02*
Y637700D01*
Y526000D02*
X73500Y517200D01*
Y454600D02*
Y517200D01*
X74500Y416000D02*
X98500D01*
X412500Y431000D02*
X414000Y432500D01*
X390000Y431000D02*
X412500D01*
X387500Y416000D02*
X413000D01*
X374000Y402500D02*
X387500Y416000D01*
X76000Y432500D02*
X94500D01*
X117500Y409500D01*
X58200Y367300D02*
X66500Y359000D01*
X71500Y402500D02*
X76000D01*
X64700Y409300D02*
X71500Y402500D01*
X190000Y579000D02*
X220000D01*
X170500D02*
X190000D01*
X170000Y579500D02*
Y589500D01*
X190000Y579000D02*
Y589500D01*
X112000Y402500D02*
X374000D01*
X368500Y409500D02*
X390000Y431000D01*
X117500Y409500D02*
X368500D01*
X98500Y416000D02*
X112000Y402500D01*
X134800Y657400D02*
X175000D01*
X115000D02*
X134800D01*
X106500D02*
X115000D01*
Y665000D01*
X375000Y450000D02*
Y476250D01*
X360000Y450000D02*
Y476250D01*
X345000Y450000D02*
Y476250D01*
X330000Y450000D02*
Y476250D01*
X315000Y450000D02*
Y476250D01*
X300000Y450000D02*
Y476250D01*
X390000Y502500D02*
Y559500D01*
X71100Y692200D02*
X79500D01*
X87800Y700500D02*
X93200Y705900D01*
X79500Y692200D02*
X87800Y700500D01*
X307300Y767500D02*
X307700Y767900D01*
X64700Y685800D02*
X71100Y692200D01*
X355000Y661000D02*
Y665000D01*
X351400Y657400D02*
X355000Y661000D01*
X175000Y657400D02*
X204500D01*
X225000D01*
X264500D01*
X334700D02*
X351400D01*
X264500D02*
X334700D01*
X145300Y642600D02*
X164900D01*
X128600D02*
X145300D01*
X305000D02*
X345200D01*
X215500D02*
X255000D01*
X164900D02*
X215500D01*
X255000D02*
X275500D01*
X305000D01*
X345200D02*
X361700D01*
X125000Y639000D02*
X128600Y642600D01*
X361700D02*
X365000Y639300D01*
Y635000D02*
Y639300D01*
X125000Y635000D02*
Y639000D01*
X360500Y96350D02*
Y109900D01*
X355000Y90850D02*
X360500Y96350D01*
X340500Y102500D02*
Y109900D01*
X335000Y97000D02*
X340500Y102500D01*
X280500Y101250D02*
Y109900D01*
X275000Y95750D02*
X280500Y101250D01*
X260500Y101300D02*
Y109900D01*
X255000Y95800D02*
X260500Y101300D01*
X240500Y101700D02*
Y109900D01*
X235000Y96200D02*
X240500Y101700D01*
X295000Y95500D02*
X300500Y101000D01*
Y109900D01*
X315000Y95600D02*
X320500Y101100D01*
Y109900D01*
X369900Y559400D02*
X370000Y559500D01*
X390000D02*
Y565400D01*
X387600Y567800D02*
X390000Y565400D01*
X120000Y562506D02*
X125294Y567800D01*
X120000Y559500D02*
Y562506D01*
X140000Y559500D02*
Y567700D01*
X170000Y559500D02*
Y567600D01*
X169800Y567800D02*
X170000Y567600D01*
X190000Y559500D02*
Y567400D01*
X169800Y567800D02*
X189600D01*
X190000Y567400D01*
X220000Y559500D02*
Y567800D01*
X189600D02*
X220000D01*
X240000Y559500D02*
Y567700D01*
X125294Y567800D02*
X139900D01*
X220000D02*
X239900D01*
X139900D02*
X169800D01*
X239900D02*
X240000Y567700D01*
X139900Y567800D02*
X140000Y567700D01*
X270000Y559500D02*
Y567400D01*
X269600Y567800D02*
X270000Y567400D01*
X239900Y567800D02*
X269600D01*
X290000Y559500D02*
Y567200D01*
X269600Y567800D02*
X289400D01*
X290000Y567200D01*
X320000Y559500D02*
Y567600D01*
X289400Y567800D02*
X319800D01*
X320000Y567600D01*
X340000Y559500D02*
Y567700D01*
X319800Y567800D02*
X339900D01*
X340000Y567700D01*
X370000Y559500D02*
Y567400D01*
X339900Y567800D02*
X369600D01*
X387600D01*
X369600D02*
X370000Y567400D01*
X86800Y589700D02*
X97500Y579000D01*
X86800Y589700D02*
Y637700D01*
X390000Y579000D02*
Y589500D01*
X370000Y579500D02*
Y589500D01*
X370500Y579000D02*
X390000D01*
X370000Y579500D02*
X370500Y579000D01*
X340000Y579500D02*
Y589500D01*
X339500Y579000D02*
X370500D01*
X339500D02*
X340000Y579500D01*
X320000Y579000D02*
X339500D01*
X320000D02*
Y589500D01*
X290000Y579500D02*
Y589500D01*
X289500Y579000D02*
X320000D01*
X289500D02*
X290000Y579500D01*
X270000D02*
Y589500D01*
X270500Y579000D02*
X289500D01*
X270000Y579500D02*
X270500Y579000D01*
X240000D02*
X270500D01*
X240000D02*
Y589500D01*
X220000Y579000D02*
X240000D01*
X220000D02*
Y589500D01*
X170000Y579500D02*
X170500Y579000D01*
X140000D02*
Y589500D01*
Y579000D02*
X170500D01*
X120000D02*
Y589500D01*
X97500Y579000D02*
X120000D01*
X140000D01*
X335000Y90900D02*
Y97000D01*
X315000Y90850D02*
Y95600D01*
X295000Y90900D02*
Y95500D01*
X255000Y90900D02*
Y95800D01*
X275000Y90850D02*
Y95750D01*
X235000Y90850D02*
Y96200D01*
X303100Y767500D02*
X307300D01*
X297800Y751500D02*
Y762200D01*
X303100Y767500D01*
X114800Y430500D02*
X129800D01*
X144800D01*
X159800D01*
X174800D01*
X189800D01*
X300000Y430000D02*
X315000D01*
X330000D01*
X345000D01*
X360000D01*
X375000D01*
X64700Y637700D02*
Y685800D01*
X86800Y637700D02*
X106500Y657400D01*
X388500Y775250D02*
X392500Y771250D01*
Y765500D02*
Y771250D01*
X383000Y754500D02*
X384000Y755500D01*
X392500D01*
Y724000D02*
Y725500D01*
Y735500D01*
X432500Y698750D02*
Y735500D01*
X430750Y697000D02*
X432500Y698750D01*
X392500Y724000D02*
X410250Y706250D01*
Y697000D02*
Y706250D01*
Y711750D01*
X430750Y697000D02*
X435500Y692250D01*
Y692000D02*
Y692250D01*
Y692000D02*
X436000Y691500D01*
X407000Y615500D02*
X407500Y616000D01*
X412000Y583000D02*
X414000Y581000D01*
Y567000D02*
Y574500D01*
Y581000D01*
X423500Y739000D02*
Y750000D01*
Y739000D02*
X427000Y735500D01*
X432500D01*
X434000Y602000D02*
Y627500D01*
X407500Y616000D02*
X412000D01*
X436000Y640000D01*
Y691500D01*
X410250Y711750D02*
X415500Y717000D01*
X383000Y750000D02*
Y754500D01*
X297850Y777750D02*
X307700Y767900D01*
X282000Y777750D02*
X297850D01*
X58000Y664500D02*
X58200Y664300D01*
X83000Y716100D02*
Y718000D01*
X92000Y707100D02*
X93200Y705900D01*
X83000Y716100D02*
X92000Y707100D01*
X58000Y718500D02*
X71500D01*
X72000Y718000D01*
X367700Y767900D02*
X377700D01*
X357700D02*
X367700D01*
X337700D02*
X347700D01*
X327700D02*
X337700D01*
X347700D02*
X357700D01*
X307700D02*
X317700D01*
X327700D01*
X162818Y217700D02*
X224364D01*
X347455D02*
X409000D01*
X378300Y166800D02*
Y217400D01*
X285909Y217700D02*
X316755D01*
X347455D01*
X316755Y166800D02*
Y217700D01*
X224364D02*
X255209D01*
X285909D01*
X255209Y166800D02*
Y217700D01*
X95673D02*
X101273D01*
X92300Y201200D02*
Y214327D01*
X95800Y197700D02*
X101273D01*
X92300Y214327D02*
X95673Y217700D01*
X92300Y201200D02*
X95800Y197700D01*
X408100Y267700D02*
X428500D01*
X140500Y109900D02*
Y117200D01*
X137700Y120000D02*
X140500Y117200D01*
X90100Y120000D02*
X137700D01*
X86000Y124100D02*
X90100Y120000D01*
X86000Y124100D02*
Y149800D01*
X79000Y156800D02*
X86000Y149800D01*
X160500Y109900D02*
Y122800D01*
X154500Y128800D02*
X160500Y122800D01*
X125800Y128800D02*
X154500D01*
X111700Y142900D02*
X125800Y128800D01*
X180500Y109900D02*
Y118500D01*
X142200Y156800D02*
X180500Y118500D01*
X200500Y109900D02*
Y120400D01*
X173300Y147600D02*
X200500Y120400D01*
X220500Y109900D02*
Y126700D01*
X204800Y142400D02*
X220500Y126700D01*
X204800Y142400D02*
Y153500D01*
X240500Y109900D02*
Y125100D01*
X233600Y132000D02*
X240500Y125100D01*
X233600Y132000D02*
Y203700D01*
X260500Y109900D02*
Y119500D01*
X266000Y125000D01*
Y151900D01*
X261100Y156800D02*
X266000Y151900D01*
X280500Y109900D02*
Y178800D01*
X274900Y184400D02*
X280500Y178800D01*
X300500Y150600D02*
X306900Y157000D01*
X300500Y109900D02*
Y150600D01*
X320500Y109900D02*
Y128300D01*
X338200Y146000D01*
X340500Y109900D02*
Y131500D01*
X365800Y156800D01*
X360500Y115100D02*
X378100Y132700D01*
X385700D01*
X397400Y144400D02*
Y203300D01*
X385700Y132700D02*
X397400Y144400D01*
X101273Y217700D02*
Y237373D01*
X117000Y253100D01*
X285200Y263000D02*
X296400Y251800D01*
X392200D01*
X408100Y267700D01*
X189800Y450500D02*
Y455900D01*
X185000Y460700D02*
X189800Y455900D01*
X185000Y460700D02*
Y476250D01*
X170000Y460700D02*
Y476250D01*
Y460700D02*
X174800Y455900D01*
Y450500D02*
Y455900D01*
X154700Y460600D02*
Y476150D01*
Y460600D02*
X159500Y455800D01*
Y450400D02*
Y455800D01*
X140000Y460700D02*
Y476250D01*
Y460700D02*
X144800Y455900D01*
Y450500D02*
Y455900D01*
X125000Y460700D02*
Y476250D01*
Y460700D02*
X129800Y455900D01*
Y450500D02*
Y455900D01*
X110000Y460700D02*
Y476250D01*
Y460700D02*
X114800Y455900D01*
Y450500D02*
Y455900D01*
X818500Y267700D02*
Y268400D01*
X668000Y263000D02*
X675200D01*
X733250Y271400D02*
X743900D01*
X749600Y265700D01*
X700750Y271400D02*
X710750Y281400D01*
X775900D01*
X799000Y217700D02*
X804473D01*
X529400Y256500D02*
X550200D01*
X526000Y253100D02*
X529400Y256500D01*
X507000Y253100D02*
X526000D01*
X514000Y273100D02*
X518300Y277400D01*
X507000Y273100D02*
X514000D01*
X462400Y280900D02*
X470200Y273100D01*
X473000D01*
X450500Y270400D02*
X467800Y253100D01*
X473000D01*
X518695Y273500D02*
X589000D01*
X550200Y256500D02*
X557000Y263300D01*
X589000Y273500D02*
X589800Y274300D01*
X697750Y274400D02*
X700750Y271400D01*
X641300Y274400D02*
X697750D01*
X638000Y271100D02*
X641300Y274400D01*
X638000Y263000D02*
Y271100D01*
X634800Y274300D02*
X638000Y271100D01*
X589800Y274300D02*
X634800D01*
X617700Y263300D02*
X618000Y263000D01*
X589800Y263300D02*
X617700D01*
X574000D02*
X589800D01*
X465900Y327600D02*
X466000Y327500D01*
X455200Y327600D02*
X465900D01*
X450500Y322900D02*
X455200Y327600D01*
X450500Y270400D02*
Y322900D01*
X750500Y109900D02*
Y115100D01*
X728200Y146000D02*
Y203400D01*
X696900Y157000D02*
X704800D01*
X610500Y109900D02*
X610568Y109832D01*
Y101200D02*
Y109832D01*
X522245Y156800D02*
X532200D01*
X605473Y96105D02*
X610568Y101200D01*
X563300Y147600D02*
Y204400D01*
X501700Y142900D02*
Y204200D01*
X791800Y207700D02*
X799000D01*
X787400Y203300D02*
X791800Y207700D01*
X755800Y156800D02*
X768427D01*
X732500Y207700D02*
X737455D01*
X728200Y203400D02*
X732500Y207700D01*
X668700D02*
X675909D01*
X664900Y203900D02*
X668700Y207700D01*
X664900Y184400D02*
Y203900D01*
X645336Y156800D02*
X651100D01*
X619600Y207700D02*
X623600Y203700D01*
X614364Y207700D02*
X619600D01*
X583991Y156600D02*
X591700D01*
X583791Y156800D02*
X583991Y156600D01*
X591700D02*
X594800Y153500D01*
X605473Y88400D02*
Y96105D01*
X585787Y96220D02*
X590368Y100800D01*
X552818Y207700D02*
X552918Y207600D01*
X560100D01*
X563300Y204400D01*
X590368Y109768D02*
X590500Y109900D01*
X590368Y100800D02*
Y109768D01*
X585787Y88400D02*
Y96220D01*
X570500Y100730D02*
Y109900D01*
X566103Y96332D02*
X570500Y100730D01*
X566103Y88400D02*
Y96332D01*
X491273Y207700D02*
X491673Y207300D01*
X498600D01*
X501700Y204200D01*
X550500Y109900D02*
X550500Y109900D01*
X550500Y102100D02*
Y109900D01*
X546417Y98017D02*
X550500Y102100D01*
X546417Y88400D02*
Y98017D01*
X460700Y156800D02*
X469000D01*
X530300Y109700D02*
X530500Y109900D01*
X530300Y102500D02*
Y109700D01*
X526732Y98932D02*
X530300Y102500D01*
X526732Y88400D02*
Y98932D01*
X583791Y166800D02*
X607991D01*
X614364Y173173D01*
Y197700D01*
X522245Y166800D02*
X546445D01*
X552818Y173173D01*
Y197700D01*
X491273Y173173D02*
Y197700D01*
X484900Y166800D02*
X491273Y173173D01*
X460700Y166800D02*
X484900D01*
X747273Y201500D02*
Y217173D01*
X743473Y197700D02*
X747273Y201500D01*
X737455Y197700D02*
X743473D01*
X685727Y201500D02*
Y217173D01*
X681927Y197700D02*
X685727Y201500D01*
X675909Y197700D02*
X681927D01*
X543000Y217700D02*
X552818D01*
X608218Y197827D02*
X614236D01*
X604418Y201627D02*
X608218Y197827D01*
X604418Y201627D02*
Y217300D01*
X491273Y217700D02*
X543000D01*
Y201500D02*
Y217700D01*
Y201500D02*
X546800Y197700D01*
X552818D01*
X799000D02*
X804600D01*
X807973Y201073D02*
Y214200D01*
X804600Y197700D02*
X807973Y201073D01*
X804473Y217700D02*
X807973Y214200D01*
X774027Y166673D02*
X777527Y163173D01*
X774155Y146673D02*
X777527Y150045D01*
X768554Y166673D02*
X774027D01*
X777527Y150045D02*
Y163173D01*
X768554Y146673D02*
X774155D01*
X712482Y166673D02*
X715982Y163173D01*
X712609Y146673D02*
X715982Y150045D01*
X707009Y166673D02*
X712482D01*
X715982Y150045D02*
Y163173D01*
X707009Y146673D02*
X712609D01*
X636236Y150427D02*
X639736Y146927D01*
X636236Y163555D02*
X639609Y166927D01*
X639736Y146927D02*
X645209D01*
X636236Y150427D02*
Y163555D01*
X639609Y166927D02*
X645209D01*
X574691Y150427D02*
X578191Y146927D01*
X574691Y163555D02*
X578064Y166927D01*
X578191Y146927D02*
X583664D01*
X574691Y150427D02*
Y163555D01*
X578064Y166927D02*
X583664D01*
X513145Y150427D02*
X516645Y146927D01*
X513145Y163555D02*
X516518Y166927D01*
X516645Y146927D02*
X522118D01*
X513145Y150427D02*
Y163555D01*
X516518Y166927D02*
X522118D01*
X451600Y150427D02*
X455100Y146927D01*
X451600Y163555D02*
X454973Y166927D01*
X455100Y146927D02*
X460573D01*
X451600Y150427D02*
Y163555D01*
X454973Y166927D02*
X460573D01*
X448200Y664300D02*
Y718000D01*
X456500Y359000D02*
X466000D01*
X475300Y460100D02*
Y510100D01*
X448200Y517200D02*
Y664300D01*
Y367300D02*
Y453000D01*
Y517200D02*
X455300Y510100D01*
X448200Y453000D02*
X455300Y460100D01*
Y510100D01*
X454700Y445800D02*
X463500Y454600D01*
X454700Y409300D02*
Y445800D01*
Y526000D02*
Y637700D01*
Y526000D02*
X463500Y517200D01*
Y454600D02*
Y517200D01*
X464500Y416000D02*
X488500D01*
X802500Y431000D02*
X804000Y432500D01*
X780000Y431000D02*
X802500D01*
X777500Y416000D02*
X803000D01*
X764000Y402500D02*
X777500Y416000D01*
X466000Y432500D02*
X484500D01*
X507500Y409500D01*
X448200Y367300D02*
X456500Y359000D01*
X461500Y402500D02*
X466000D01*
X454700Y409300D02*
X461500Y402500D01*
X580000Y579000D02*
X610000D01*
X560500D02*
X580000D01*
X560000Y579500D02*
Y589500D01*
X580000Y579000D02*
Y589500D01*
X502000Y402500D02*
X764000D01*
X758500Y409500D02*
X780000Y431000D01*
X507500Y409500D02*
X758500D01*
X488500Y416000D02*
X502000Y402500D01*
X524800Y657400D02*
X565000D01*
X505000D02*
X524800D01*
X496500D02*
X505000D01*
Y665000D01*
X765000Y450000D02*
Y476250D01*
X750000Y450000D02*
Y476250D01*
X735000Y450000D02*
Y476250D01*
X720000Y450000D02*
Y476250D01*
X705000Y450000D02*
Y476250D01*
X690000Y450000D02*
Y476250D01*
X780000Y502500D02*
Y559500D01*
X461100Y692200D02*
X469500D01*
X477800Y700500D02*
X483200Y705900D01*
X469500Y692200D02*
X477800Y700500D01*
X697300Y767500D02*
X697700Y767900D01*
X454700Y685800D02*
X461100Y692200D01*
X745000Y661000D02*
Y665000D01*
X741400Y657400D02*
X745000Y661000D01*
X565000Y657400D02*
X594500D01*
X615000D01*
X654500D01*
X724700D02*
X741400D01*
X654500D02*
X724700D01*
X535300Y642600D02*
X554900D01*
X518600D02*
X535300D01*
X695000D02*
X735200D01*
X605500D02*
X645000D01*
X554900D02*
X605500D01*
X645000D02*
X665500D01*
X695000D01*
X735200D02*
X751700D01*
X515000Y639000D02*
X518600Y642600D01*
X751700D02*
X755000Y639300D01*
Y635000D02*
Y639300D01*
X515000Y635000D02*
Y639000D01*
X750500Y96350D02*
Y109900D01*
X745000Y90850D02*
X750500Y96350D01*
X730500Y102500D02*
Y109900D01*
X725000Y97000D02*
X730500Y102500D01*
X670500Y101250D02*
Y109900D01*
X665000Y95750D02*
X670500Y101250D01*
X650500Y101300D02*
Y109900D01*
X645000Y95800D02*
X650500Y101300D01*
X630500Y101700D02*
Y109900D01*
X625000Y96200D02*
X630500Y101700D01*
X685000Y95500D02*
X690500Y101000D01*
Y109900D01*
X705000Y95600D02*
X710500Y101100D01*
Y109900D01*
X759900Y559400D02*
X760000Y559500D01*
X780000D02*
Y565400D01*
X777600Y567800D02*
X780000Y565400D01*
X510000Y562506D02*
X515294Y567800D01*
X510000Y559500D02*
Y562506D01*
X530000Y559500D02*
Y567700D01*
X560000Y559500D02*
Y567600D01*
X559800Y567800D02*
X560000Y567600D01*
X580000Y559500D02*
Y567400D01*
X559800Y567800D02*
X579600D01*
X580000Y567400D01*
X610000Y559500D02*
Y567800D01*
X579600D02*
X610000D01*
X630000Y559500D02*
Y567700D01*
X515294Y567800D02*
X529900D01*
X610000D02*
X629900D01*
X529900D02*
X559800D01*
X629900D02*
X630000Y567700D01*
X529900Y567800D02*
X530000Y567700D01*
X660000Y559500D02*
Y567400D01*
X659600Y567800D02*
X660000Y567400D01*
X629900Y567800D02*
X659600D01*
X680000Y559500D02*
Y567200D01*
X659600Y567800D02*
X679400D01*
X680000Y567200D01*
X710000Y559500D02*
Y567600D01*
X679400Y567800D02*
X709800D01*
X710000Y567600D01*
X730000Y559500D02*
Y567700D01*
X709800Y567800D02*
X729900D01*
X730000Y567700D01*
X760000Y559500D02*
Y567400D01*
X729900Y567800D02*
X759600D01*
X777600D01*
X759600D02*
X760000Y567400D01*
X476800Y589700D02*
X487500Y579000D01*
X476800Y589700D02*
Y637700D01*
X780000Y579000D02*
Y589500D01*
X760000Y579500D02*
Y589500D01*
X760500Y579000D02*
X780000D01*
X760000Y579500D02*
X760500Y579000D01*
X730000Y579500D02*
Y589500D01*
X729500Y579000D02*
X760500D01*
X729500D02*
X730000Y579500D01*
X710000Y579000D02*
X729500D01*
X710000D02*
Y589500D01*
X680000Y579500D02*
Y589500D01*
X679500Y579000D02*
X710000D01*
X679500D02*
X680000Y579500D01*
X660000D02*
Y589500D01*
X660500Y579000D02*
X679500D01*
X660000Y579500D02*
X660500Y579000D01*
X630000D02*
X660500D01*
X630000D02*
Y589500D01*
X610000Y579000D02*
X630000D01*
X610000D02*
Y589500D01*
X560000Y579500D02*
X560500Y579000D01*
X530000D02*
Y589500D01*
Y579000D02*
X560500D01*
X510000D02*
Y589500D01*
X487500Y579000D02*
X510000D01*
X530000D01*
X725000Y90900D02*
Y97000D01*
X705000Y90850D02*
Y95600D01*
X685000Y90900D02*
Y95500D01*
X645000Y90900D02*
Y95800D01*
X665000Y90850D02*
Y95750D01*
X625000Y90850D02*
Y96200D01*
X693100Y767500D02*
X697300D01*
X687800Y751500D02*
Y762200D01*
X693100Y767500D01*
X504800Y430500D02*
X519800D01*
X534800D01*
X549800D01*
X564800D01*
X579800D01*
X690000Y430000D02*
X705000D01*
X720000D01*
X735000D01*
X750000D01*
X765000D01*
X454700Y637700D02*
Y685800D01*
X476800Y637700D02*
X496500Y657400D01*
X778500Y775250D02*
X782500Y771250D01*
Y765500D02*
Y771250D01*
X773000Y754500D02*
X774000Y755500D01*
X782500D01*
Y724000D02*
Y725500D01*
Y735500D01*
X822500Y698750D02*
Y735500D01*
X820750Y697000D02*
X822500Y698750D01*
X782500Y724000D02*
X800250Y706250D01*
Y697000D02*
Y706250D01*
Y711750D01*
X820750Y697000D02*
X825500Y692250D01*
Y692000D02*
Y692250D01*
Y692000D02*
X826000Y691500D01*
X797000Y615500D02*
X797500Y616000D01*
X802000Y583000D02*
X804000Y581000D01*
Y567000D02*
Y574500D01*
Y581000D01*
X813500Y739000D02*
Y750000D01*
Y739000D02*
X817000Y735500D01*
X822500D01*
X824000Y602000D02*
Y627500D01*
X797500Y616000D02*
X802000D01*
X826000Y640000D01*
Y691500D01*
X800250Y711750D02*
X805500Y717000D01*
X773000Y750000D02*
Y754500D01*
X687850Y777750D02*
X697700Y767900D01*
X672000Y777750D02*
X687850D01*
X448000Y664500D02*
X448200Y664300D01*
X473000Y716100D02*
Y718000D01*
X482000Y707100D02*
X483200Y705900D01*
X473000Y716100D02*
X482000Y707100D01*
X448000Y718500D02*
X461500D01*
X462000Y718000D01*
X757700Y767900D02*
X767700D01*
X747700D02*
X757700D01*
X727700D02*
X737700D01*
X717700D02*
X727700D01*
X737700D02*
X747700D01*
X697700D02*
X707700D01*
X717700D01*
X552818Y217700D02*
X614364D01*
X737455D02*
X799000D01*
X768300Y166800D02*
Y217400D01*
X675909Y217700D02*
X706754D01*
X737455D01*
X706754Y166800D02*
Y217700D01*
X614364D02*
X645209D01*
X675909D01*
X645209Y166800D02*
Y217700D01*
X485673D02*
X491273D01*
X482300Y201200D02*
Y214327D01*
X485800Y197700D02*
X491273D01*
X482300Y214327D02*
X485673Y217700D01*
X482300Y201200D02*
X485800Y197700D01*
X798100Y267700D02*
X818500D01*
X530500Y109900D02*
Y117200D01*
X527700Y120000D02*
X530500Y117200D01*
X480100Y120000D02*
X527700D01*
X476000Y124100D02*
X480100Y120000D01*
X476000Y124100D02*
Y149800D01*
X469000Y156800D02*
X476000Y149800D01*
X550500Y109900D02*
Y122800D01*
X544500Y128800D02*
X550500Y122800D01*
X515800Y128800D02*
X544500D01*
X501700Y142900D02*
X515800Y128800D01*
X570500Y109900D02*
Y118500D01*
X532200Y156800D02*
X570500Y118500D01*
X590500Y109900D02*
Y120400D01*
X563300Y147600D02*
X590500Y120400D01*
X610500Y109900D02*
Y126700D01*
X594800Y142400D02*
X610500Y126700D01*
X594800Y142400D02*
Y153500D01*
X630500Y109900D02*
Y125100D01*
X623600Y132000D02*
X630500Y125100D01*
X623600Y132000D02*
Y203700D01*
X650500Y109900D02*
Y119500D01*
X656000Y125000D01*
Y151900D01*
X651100Y156800D02*
X656000Y151900D01*
X670500Y109900D02*
Y178800D01*
X664900Y184400D02*
X670500Y178800D01*
X690500Y150600D02*
X696900Y157000D01*
X690500Y109900D02*
Y150600D01*
X710500Y109900D02*
Y128300D01*
X728200Y146000D01*
X730500Y109900D02*
Y131500D01*
X755800Y156800D01*
X750500Y115100D02*
X768100Y132700D01*
X775700D01*
X787400Y144400D02*
Y203300D01*
X775700Y132700D02*
X787400Y144400D01*
X491273Y217700D02*
Y237373D01*
X507000Y253100D01*
X675200Y263000D02*
X686400Y251800D01*
X782200D01*
X798100Y267700D01*
X579800Y450500D02*
Y455900D01*
X575000Y460700D02*
X579800Y455900D01*
X575000Y460700D02*
Y476250D01*
X560000Y460700D02*
Y476250D01*
Y460700D02*
X564800Y455900D01*
Y450500D02*
Y455900D01*
X544700Y460600D02*
Y476150D01*
Y460600D02*
X549500Y455800D01*
Y450400D02*
Y455800D01*
X530000Y460700D02*
Y476250D01*
Y460700D02*
X534800Y455900D01*
Y450500D02*
Y455900D01*
X515000Y460700D02*
Y476250D01*
Y460700D02*
X519800Y455900D01*
Y450500D02*
Y455900D01*
X500000Y460700D02*
Y476250D01*
Y460700D02*
X504800Y455900D01*
Y450500D02*
Y455900D01*
G54D34*
X102000Y378500D02*
X390600D01*
X410600Y358500D02*
X414000D01*
Y392500D02*
Y402500D01*
Y358500D02*
Y371200D01*
X390600Y378500D02*
X410600Y358500D01*
X77000Y371500D02*
X95000D01*
X102000Y378500D01*
X76000Y359000D02*
Y372500D01*
X492000Y378500D02*
X780600D01*
X800600Y358500D02*
X804000D01*
Y392500D02*
Y402500D01*
Y358500D02*
Y371200D01*
X780600Y378500D02*
X800600Y358500D01*
X467000Y371500D02*
X485000D01*
X492000Y378500D01*
X466000Y359000D02*
Y372500D01*
G54D35*
X76000Y327500D02*
X414000D01*
X76000Y342500D02*
X414000D01*
X76000Y297500D02*
X414000D01*
X76000Y312500D02*
X414000D01*
X466000Y327500D02*
X804000D01*
X466000Y342500D02*
X804000D01*
X466000Y297500D02*
X804000D01*
X466000Y312500D02*
X804000D01*
G54D36*
X278300Y747800D02*
X278400Y747900D01*
Y753100D01*
X271953Y759547D02*
X278400Y753100D01*
X261850Y759547D02*
X271953D01*
X283700Y744700D02*
Y752400D01*
X278200Y757900D02*
X283700Y752400D01*
X285800Y745600D02*
Y752846D01*
X280000Y758646D02*
X285800Y752846D01*
X280000Y758646D02*
Y760800D01*
X278200Y757900D02*
Y759800D01*
X296200Y738100D02*
X367226D01*
X287700Y746600D02*
X296200Y738100D01*
X287700Y746600D02*
Y753700D01*
X282200Y759200D02*
X287700Y753700D01*
X282200Y759200D02*
Y761500D01*
X270300Y731500D02*
Y750646D01*
X268500Y729800D02*
Y749900D01*
X266700Y728600D02*
Y748800D01*
X265795Y749705D02*
X266700Y748800D01*
X266727Y751673D02*
X268500Y749900D01*
X267382Y753564D02*
X270300Y750646D01*
X268390Y755610D02*
X272100Y751900D01*
Y733400D02*
Y751900D01*
X287900Y761600D02*
Y762100D01*
X280000Y770000D02*
X287900Y762100D01*
X278600Y770000D02*
X280000D01*
X278400Y765300D02*
X282200Y761500D01*
X274500Y765300D02*
X278400D01*
X277600Y763200D02*
X280000Y760800D01*
X273700Y763200D02*
X277600D01*
X276600Y761400D02*
X278200Y759800D01*
X272700Y761400D02*
X276600D01*
X261850Y765453D02*
X268647D01*
X272700Y761400D01*
X261850Y767421D02*
X269479D01*
X273700Y763200D01*
X261850Y769390D02*
X270410D01*
X274500Y765300D01*
X277200Y771400D02*
X278600Y770000D01*
X277200Y771400D02*
Y781600D01*
X261850Y755610D02*
X268390D01*
X261928Y753564D02*
X267382D01*
X261850Y753642D02*
X261928Y753564D01*
X261850Y751673D02*
X266727D01*
X261850Y749705D02*
X265795D01*
X248300Y753500D02*
Y757579D01*
X235100D02*
X248300D01*
X206300Y783400D02*
Y790000D01*
X233984Y763484D02*
X240984D01*
X274600Y784200D02*
X277200Y781600D01*
X269500Y784200D02*
X274600D01*
X267600Y782300D02*
X269500Y784200D01*
X267600Y776300D02*
Y782300D01*
X266595Y775295D02*
X267600Y776300D01*
X261850Y775295D02*
X266595D01*
X218150Y769390D02*
X224190D01*
X225600Y770800D01*
Y776300D01*
X218300Y783600D02*
X225600Y776300D01*
X253100Y756500D02*
Y757900D01*
X256500Y756800D02*
X257279Y757579D01*
X248300Y753500D02*
X249400Y752400D01*
X255200D01*
X256500Y753700D01*
Y756800D01*
X257279Y757579D02*
X261850D01*
X253100Y757900D02*
X256716Y761516D01*
X261850D01*
X104000Y805000D02*
X105500D01*
X198700Y608200D02*
X360000D01*
X245984Y487798D02*
Y491216D01*
Y486798D02*
Y487798D01*
X260900Y478800D02*
X261732Y479632D01*
Y486798D01*
X259764Y479936D02*
X260900Y478800D01*
X259764Y479936D02*
Y486798D01*
X244800Y492400D02*
X245984Y491216D01*
X217377Y481523D02*
X218425Y482571D01*
Y486798D01*
X179750Y736950D02*
X179800Y736900D01*
X242400Y777000D02*
X243200Y776200D01*
X240984Y777000D02*
X242400D01*
X240984D02*
Y784350D01*
Y763500D02*
Y777000D01*
X225416Y761516D02*
X232016D01*
X225416D02*
X229500Y765600D01*
X218150Y761516D02*
X225416D01*
X208600Y760700D02*
X209300D01*
X210453Y759547D01*
X218150D01*
X229252Y757579D02*
X235100D01*
X226100Y748400D02*
X229073D01*
X230000Y705000D02*
X233400Y708400D01*
X229200Y711600D02*
Y740623D01*
X229173Y740650D02*
X229200Y740623D01*
X238800Y750700D02*
Y753100D01*
Y750700D02*
X240000D01*
X231500D02*
X238800D01*
X236400Y776400D02*
X239016Y779016D01*
Y784350D01*
X232016Y761516D02*
X233984Y763484D01*
X242953Y740650D02*
Y757526D01*
X227953Y759547D02*
X229173Y758327D01*
X218150Y759547D02*
X227953D01*
X231142Y750342D02*
X231500Y750700D01*
X240000D02*
X240984Y749716D01*
Y740650D02*
Y749716D01*
X231142Y740650D02*
Y750342D01*
X367226Y738100D02*
X391100Y714226D01*
X356500Y697250D02*
X357000Y696750D01*
X364000D01*
X356500Y697250D02*
Y701500D01*
X360000Y705000D01*
X336500Y697250D02*
X337000Y696750D01*
X344000D01*
X336500Y697250D02*
Y701500D01*
X340000Y705000D01*
X316500Y697250D02*
X317000Y696750D01*
X324000D01*
X316500Y697250D02*
Y701500D01*
X320000Y705000D01*
X296500Y697250D02*
X297000Y696750D01*
X304000D01*
X296500Y697250D02*
Y701500D01*
X300000Y705000D01*
X266500Y697250D02*
X267000Y696750D01*
X274000D01*
X266500Y697250D02*
Y701500D01*
X270000Y705000D01*
X246500Y697250D02*
X247000Y696750D01*
X254000D01*
X246500Y697250D02*
Y701500D01*
X250000Y705000D01*
X226500Y697250D02*
X227000Y696750D01*
X234000D01*
X226500Y697250D02*
Y701500D01*
X230000Y705000D01*
X206500Y697250D02*
X207000Y696750D01*
X214000D01*
X206500Y697250D02*
Y701500D01*
X210000Y705000D01*
X176500Y697250D02*
X177000Y696750D01*
X184000D01*
X176500Y697250D02*
Y701500D01*
X180000Y705000D01*
X156500Y697250D02*
X157000Y696750D01*
X164000D01*
X156500Y697250D02*
Y701500D01*
X160000Y705000D01*
X136500Y697250D02*
X137000Y696750D01*
X144000D01*
X136500Y697250D02*
Y701500D01*
X140000Y705000D01*
X116500Y701500D02*
X120000Y705000D01*
X116500Y697250D02*
Y701500D01*
X117000Y696750D02*
X124000D01*
X116500Y697250D02*
X117000Y696750D01*
X229173Y740650D02*
Y758327D01*
X364163Y730600D02*
X383600Y711163D01*
X363418Y728800D02*
X381800Y710418D01*
X362672Y727000D02*
X380000Y709672D01*
X361927Y725200D02*
X378200Y708926D01*
X361181Y723400D02*
X376400Y708181D01*
X360435Y721600D02*
X374600Y707435D01*
X359690Y719800D02*
X372800Y706690D01*
X370700Y613600D02*
X379500Y622400D01*
X384000Y624354D02*
Y645250D01*
X371446Y611800D02*
X384000Y624354D01*
X372191Y610000D02*
X388500Y626309D01*
X393000Y628263D02*
Y645250D01*
X372937Y608200D02*
X393000Y628263D01*
X397500Y630218D02*
Y663250D01*
X373682Y606400D02*
X397500Y630218D01*
X402000Y632172D02*
Y645250D01*
X374428Y604600D02*
X402000Y632172D01*
X406500Y634127D02*
Y663750D01*
X375173Y602800D02*
X406500Y634127D01*
X411000Y636081D02*
Y645250D01*
X375919Y601000D02*
X411000Y636081D01*
X415500Y638035D02*
Y663750D01*
X376665Y599200D02*
X415500Y638035D01*
X420000Y639990D02*
Y645250D01*
X377410Y597400D02*
X420000Y639990D01*
X380000Y589500D02*
Y592100D01*
X424500Y641944D02*
Y663750D01*
X362000Y595600D02*
X378156D01*
X360000Y593600D02*
X362000Y595600D01*
X360000Y589500D02*
Y593600D01*
X378156Y595600D02*
X424500Y641944D01*
X380000Y589500D02*
Y594899D01*
X429000Y643899D02*
Y645250D01*
X380000Y594899D02*
X429000Y643899D01*
X330000Y589500D02*
X337900Y597400D01*
X377410D01*
X310000Y589500D02*
X319700Y599200D01*
X376665D01*
X280000Y589500D02*
X291500Y601000D01*
X375919D01*
X273300Y602800D02*
X375173D01*
X260000Y589500D02*
X273300Y602800D01*
X230000Y589500D02*
X245100Y604600D01*
X374428D01*
X210000Y589500D02*
X226900Y606400D01*
X373682D01*
X353400Y608200D02*
X360000D01*
X372937D01*
X180000Y589500D02*
X198700Y608200D01*
X180500Y610000D02*
X372191D01*
X160000Y589500D02*
X180500Y610000D01*
X130000Y589500D02*
X152300Y611800D01*
X371446D01*
X110000Y589500D02*
X134100Y613600D01*
X208700Y484200D02*
X211377Y481523D01*
X217377D01*
X255700Y473600D02*
X260900Y478800D01*
X220394Y481994D02*
Y484100D01*
Y486798D01*
X219300Y477400D02*
X220394Y478494D01*
Y484100D01*
X219300Y477400D02*
X223100Y473600D01*
X255700D01*
X134100Y613600D02*
X370700D01*
X170900Y786500D02*
X178250D01*
X170400Y786000D02*
X170900Y786500D01*
X261850Y730450D02*
Y747736D01*
X397500Y670750D02*
Y671250D01*
X379500Y622400D02*
Y663750D01*
X388500Y626309D02*
Y663750D01*
X371000Y684000D02*
Y705900D01*
Y684000D02*
X379500Y675500D01*
Y671250D02*
Y675500D01*
X372800Y687200D02*
Y706690D01*
Y687200D02*
X384000Y676000D01*
Y652750D02*
Y676000D01*
X374600Y689900D02*
Y707435D01*
Y689900D02*
X388500Y676000D01*
Y671250D02*
Y676000D01*
X376400Y692600D02*
Y708181D01*
Y692600D02*
X393000Y676000D01*
Y652750D02*
Y676000D01*
X424500Y671250D02*
Y675500D01*
X420000Y652750D02*
Y676500D01*
X415500Y671250D02*
Y676500D01*
X411000Y689000D02*
X424500Y675500D01*
X409500Y687000D02*
X420000Y676500D01*
X407000Y685000D02*
X415500Y676500D01*
X405500Y683000D02*
X411000Y677500D01*
Y652750D02*
Y677500D01*
X404000Y680500D02*
X406500Y678000D01*
Y671250D02*
Y678000D01*
X401000D02*
X402000Y677000D01*
Y652750D02*
Y677000D01*
X378200Y693800D02*
Y708926D01*
Y693800D02*
X397500Y674500D01*
Y671250D02*
Y674500D01*
X380000Y695500D02*
Y709672D01*
Y695500D02*
X397500Y678000D01*
X401000D01*
X381800Y697200D02*
Y710418D01*
Y697200D02*
X398500Y680500D01*
X404000D01*
X399000Y683000D02*
X405500D01*
X383600Y698400D02*
Y711163D01*
Y698400D02*
X399000Y683000D01*
X385400Y699600D02*
Y711909D01*
Y699600D02*
X400000Y685000D01*
X407000D01*
X387200Y700800D02*
Y712654D01*
Y700800D02*
X401000Y687000D01*
X409500D01*
X389000Y702000D02*
Y713400D01*
Y702000D02*
X402000Y689000D01*
X411000D01*
X391100Y702900D02*
Y714226D01*
Y702900D02*
X403000Y691000D01*
X414500D01*
X429000Y676500D01*
Y652750D02*
Y676500D01*
X424500Y590500D02*
Y601500D01*
X424000Y602000D02*
X424500Y601500D01*
Y590500D02*
X425000Y590000D01*
X231142Y792142D02*
X236000Y797000D01*
X231142Y784350D02*
Y792142D01*
X241000Y797000D02*
Y801000D01*
X233110Y789110D02*
X241000Y797000D01*
X233110Y784350D02*
Y789110D01*
X108250Y811000D02*
Y817000D01*
X104000Y805000D02*
Y806000D01*
X108250Y810250D02*
Y811000D01*
X104000Y806000D02*
X108250Y810250D01*
X261850Y773327D02*
X269327D01*
X272500Y776500D01*
Y780500D01*
X258051Y771500D02*
X258115Y771436D01*
X261772D01*
X261850Y771358D01*
X241000Y763484D02*
X261850D01*
X233400Y708400D02*
Y712596D01*
X231142Y714854D02*
X233400Y712596D01*
X231142Y714854D02*
Y740650D01*
X254764Y730232D02*
Y740650D01*
X252795Y729655D02*
Y740650D01*
X250827Y729077D02*
Y740650D01*
X366400Y736000D02*
X389000Y713400D01*
X365654Y734200D02*
X387200Y712654D01*
X364909Y732400D02*
X385400Y711909D01*
X358900Y718000D02*
X371000Y705900D01*
X295400Y736000D02*
X366400D01*
X285800Y745600D02*
X295400Y736000D01*
X294200Y734200D02*
X365654D01*
X283700Y744700D02*
X294200Y734200D01*
X287400Y732400D02*
X364909D01*
X284600Y735200D02*
X287400Y732400D01*
X274900Y730600D02*
X364163D01*
X272100Y733400D02*
X274900Y730600D01*
X273000Y728800D02*
X363418D01*
X270300Y731500D02*
X273000Y728800D01*
X279600Y727000D02*
X362672D01*
X279600Y727000D02*
X279600Y727000D01*
X271300Y727000D02*
X279600D01*
X268500Y729800D02*
X271300Y727000D01*
X270100Y725200D02*
X361927D01*
X266700Y728600D02*
X270100Y725200D01*
X268900Y723400D02*
X361181D01*
X261850Y730450D02*
X268900Y723400D01*
X263395Y721600D02*
X360435D01*
X254764Y730232D02*
X263395Y721600D01*
X262650Y719800D02*
X359690D01*
X252795Y729655D02*
X262650Y719800D01*
X261904Y718000D02*
X358900D01*
X250827Y729077D02*
X261904Y718000D01*
X668300Y747800D02*
X668400Y747900D01*
Y753100D01*
X661953Y759547D02*
X668400Y753100D01*
X651850Y759547D02*
X661953D01*
X673700Y744700D02*
Y752400D01*
X668200Y757900D02*
X673700Y752400D01*
X675800Y745600D02*
Y752846D01*
X670000Y758646D02*
X675800Y752846D01*
X670000Y758646D02*
Y760800D01*
X668200Y757900D02*
Y759800D01*
X686200Y738100D02*
X757226D01*
X677700Y746600D02*
X686200Y738100D01*
X677700Y746600D02*
Y753700D01*
X672200Y759200D02*
X677700Y753700D01*
X672200Y759200D02*
Y761500D01*
X660300Y731500D02*
Y750646D01*
X658500Y729800D02*
Y749900D01*
X656700Y728600D02*
Y748800D01*
X655795Y749705D02*
X656700Y748800D01*
X656727Y751673D02*
X658500Y749900D01*
X657382Y753564D02*
X660300Y750646D01*
X658390Y755610D02*
X662100Y751900D01*
Y733400D02*
Y751900D01*
X677900Y761600D02*
Y762100D01*
X670000Y770000D02*
X677900Y762100D01*
X668600Y770000D02*
X670000D01*
X668400Y765300D02*
X672200Y761500D01*
X664500Y765300D02*
X668400D01*
X667600Y763200D02*
X670000Y760800D01*
X663700Y763200D02*
X667600D01*
X666600Y761400D02*
X668200Y759800D01*
X662700Y761400D02*
X666600D01*
X651850Y765453D02*
X658647D01*
X662700Y761400D01*
X651850Y767421D02*
X659479D01*
X663700Y763200D01*
X651850Y769390D02*
X660410D01*
X664500Y765300D01*
X667200Y771400D02*
X668600Y770000D01*
X667200Y771400D02*
Y781600D01*
X651850Y755610D02*
X658390D01*
X651928Y753564D02*
X657382D01*
X651850Y753642D02*
X651928Y753564D01*
X651850Y751673D02*
X656727D01*
X651850Y749705D02*
X655795D01*
X638300Y753500D02*
Y757579D01*
X625100D02*
X638300D01*
X596300Y783400D02*
Y790000D01*
X623984Y763484D02*
X630984D01*
X664600Y784200D02*
X667200Y781600D01*
X659500Y784200D02*
X664600D01*
X657600Y782300D02*
X659500Y784200D01*
X657600Y776300D02*
Y782300D01*
X656595Y775295D02*
X657600Y776300D01*
X651850Y775295D02*
X656595D01*
X608150Y769390D02*
X614190D01*
X615600Y770800D01*
Y776300D01*
X608300Y783600D02*
X615600Y776300D01*
X643100Y756500D02*
Y757900D01*
X646500Y756800D02*
X647279Y757579D01*
X638300Y753500D02*
X639400Y752400D01*
X645200D01*
X646500Y753700D01*
Y756800D01*
X647279Y757579D02*
X651850D01*
X643100Y757900D02*
X646716Y761516D01*
X651850D01*
X494000Y805000D02*
X495500D01*
X588700Y608200D02*
X750000D01*
X635984Y487798D02*
Y491216D01*
Y486798D02*
Y487798D01*
X650900Y478800D02*
X651732Y479632D01*
Y486798D01*
X649764Y479936D02*
X650900Y478800D01*
X649764Y479936D02*
Y486798D01*
X634800Y492400D02*
X635984Y491216D01*
X607377Y481523D02*
X608425Y482571D01*
Y486798D01*
X569750Y736950D02*
X569800Y736900D01*
X632400Y777000D02*
X633200Y776200D01*
X630984Y777000D02*
X632400D01*
X630984D02*
Y784350D01*
Y763500D02*
Y777000D01*
X615416Y761516D02*
X622016D01*
X615416D02*
X619500Y765600D01*
X608150Y761516D02*
X615416D01*
X598600Y760700D02*
X599300D01*
X600453Y759547D01*
X608150D01*
X619252Y757579D02*
X625100D01*
X616100Y748400D02*
X619073D01*
X620000Y705000D02*
X623400Y708400D01*
X619200Y711600D02*
Y740623D01*
X619173Y740650D02*
X619200Y740623D01*
X628800Y750700D02*
Y753100D01*
Y750700D02*
X630000D01*
X621500D02*
X628800D01*
X626400Y776400D02*
X629016Y779016D01*
Y784350D01*
X622016Y761516D02*
X623984Y763484D01*
X632953Y740650D02*
Y757526D01*
X617953Y759547D02*
X619173Y758327D01*
X608150Y759547D02*
X617953D01*
X621142Y750342D02*
X621500Y750700D01*
X630000D02*
X630984Y749716D01*
Y740650D02*
Y749716D01*
X621142Y740650D02*
Y750342D01*
X757226Y738100D02*
X781100Y714226D01*
X746500Y697250D02*
X747000Y696750D01*
X754000D01*
X746500Y697250D02*
Y701500D01*
X750000Y705000D01*
X726500Y697250D02*
X727000Y696750D01*
X734000D01*
X726500Y697250D02*
Y701500D01*
X730000Y705000D01*
X706500Y697250D02*
X707000Y696750D01*
X714000D01*
X706500Y697250D02*
Y701500D01*
X710000Y705000D01*
X686500Y697250D02*
X687000Y696750D01*
X694000D01*
X686500Y697250D02*
Y701500D01*
X690000Y705000D01*
X656500Y697250D02*
X657000Y696750D01*
X664000D01*
X656500Y697250D02*
Y701500D01*
X660000Y705000D01*
X636500Y697250D02*
X637000Y696750D01*
X644000D01*
X636500Y697250D02*
Y701500D01*
X640000Y705000D01*
X616500Y697250D02*
X617000Y696750D01*
X624000D01*
X616500Y697250D02*
Y701500D01*
X620000Y705000D01*
X596500Y697250D02*
X597000Y696750D01*
X604000D01*
X596500Y697250D02*
Y701500D01*
X600000Y705000D01*
X566500Y697250D02*
X567000Y696750D01*
X574000D01*
X566500Y697250D02*
Y701500D01*
X570000Y705000D01*
X546500Y697250D02*
X547000Y696750D01*
X554000D01*
X546500Y697250D02*
Y701500D01*
X550000Y705000D01*
X526500Y697250D02*
X527000Y696750D01*
X534000D01*
X526500Y697250D02*
Y701500D01*
X530000Y705000D01*
X506500Y701500D02*
X510000Y705000D01*
X506500Y697250D02*
Y701500D01*
X507000Y696750D02*
X514000D01*
X506500Y697250D02*
X507000Y696750D01*
X619173Y740650D02*
Y758327D01*
X754163Y730600D02*
X773600Y711163D01*
X753418Y728800D02*
X771800Y710418D01*
X752672Y727000D02*
X770000Y709672D01*
X751927Y725200D02*
X768200Y708926D01*
X751181Y723400D02*
X766400Y708181D01*
X750435Y721600D02*
X764600Y707435D01*
X749690Y719800D02*
X762800Y706690D01*
X760700Y613600D02*
X769500Y622400D01*
X774000Y624354D02*
Y645250D01*
X761446Y611800D02*
X774000Y624354D01*
X762191Y610000D02*
X778500Y626309D01*
X783000Y628263D02*
Y645250D01*
X762937Y608200D02*
X783000Y628263D01*
X787500Y630218D02*
Y663250D01*
X763682Y606400D02*
X787500Y630218D01*
X792000Y632172D02*
Y645250D01*
X764428Y604600D02*
X792000Y632172D01*
X796500Y634127D02*
Y663750D01*
X765173Y602800D02*
X796500Y634127D01*
X801000Y636081D02*
Y645250D01*
X765919Y601000D02*
X801000Y636081D01*
X805500Y638035D02*
Y663750D01*
X766665Y599200D02*
X805500Y638035D01*
X810000Y639990D02*
Y645250D01*
X767410Y597400D02*
X810000Y639990D01*
X770000Y589500D02*
Y592100D01*
X814500Y641944D02*
Y663750D01*
X752000Y595600D02*
X768156D01*
X750000Y593600D02*
X752000Y595600D01*
X750000Y589500D02*
Y593600D01*
X768156Y595600D02*
X814500Y641944D01*
X770000Y589500D02*
Y594899D01*
X819000Y643899D02*
Y645250D01*
X770000Y594899D02*
X819000Y643899D01*
X720000Y589500D02*
X727900Y597400D01*
X767410D01*
X700000Y589500D02*
X709700Y599200D01*
X766665D01*
X670000Y589500D02*
X681500Y601000D01*
X765919D01*
X663300Y602800D02*
X765173D01*
X650000Y589500D02*
X663300Y602800D01*
X620000Y589500D02*
X635100Y604600D01*
X764428D01*
X600000Y589500D02*
X616900Y606400D01*
X763682D01*
X743400Y608200D02*
X750000D01*
X762937D01*
X570000Y589500D02*
X588700Y608200D01*
X570500Y610000D02*
X762191D01*
X550000Y589500D02*
X570500Y610000D01*
X520000Y589500D02*
X542300Y611800D01*
X761446D01*
X500000Y589500D02*
X524100Y613600D01*
X598700Y484200D02*
X601377Y481523D01*
X607377D01*
X645700Y473600D02*
X650900Y478800D01*
X610394Y481994D02*
Y484100D01*
Y486798D01*
X609300Y477400D02*
X610394Y478494D01*
Y484100D01*
X609300Y477400D02*
X613100Y473600D01*
X645700D01*
X524100Y613600D02*
X760700D01*
X560900Y786500D02*
X568250D01*
X560400Y786000D02*
X560900Y786500D01*
X651850Y730450D02*
Y747736D01*
X787500Y670750D02*
Y671250D01*
X769500Y622400D02*
Y663750D01*
X778500Y626309D02*
Y663750D01*
X761000Y684000D02*
Y705900D01*
Y684000D02*
X769500Y675500D01*
Y671250D02*
Y675500D01*
X762800Y687200D02*
Y706690D01*
Y687200D02*
X774000Y676000D01*
Y652750D02*
Y676000D01*
X764600Y689900D02*
Y707435D01*
Y689900D02*
X778500Y676000D01*
Y671250D02*
Y676000D01*
X766400Y692600D02*
Y708181D01*
Y692600D02*
X783000Y676000D01*
Y652750D02*
Y676000D01*
X814500Y671250D02*
Y675500D01*
X810000Y652750D02*
Y676500D01*
X805500Y671250D02*
Y676500D01*
X801000Y689000D02*
X814500Y675500D01*
X799500Y687000D02*
X810000Y676500D01*
X797000Y685000D02*
X805500Y676500D01*
X795500Y683000D02*
X801000Y677500D01*
Y652750D02*
Y677500D01*
X794000Y680500D02*
X796500Y678000D01*
Y671250D02*
Y678000D01*
X791000D02*
X792000Y677000D01*
Y652750D02*
Y677000D01*
X768200Y693800D02*
Y708926D01*
Y693800D02*
X787500Y674500D01*
Y671250D02*
Y674500D01*
X770000Y695500D02*
Y709672D01*
Y695500D02*
X787500Y678000D01*
X791000D01*
X771800Y697200D02*
Y710418D01*
Y697200D02*
X788500Y680500D01*
X794000D01*
X789000Y683000D02*
X795500D01*
X773600Y698400D02*
Y711163D01*
Y698400D02*
X789000Y683000D01*
X775400Y699600D02*
Y711909D01*
Y699600D02*
X790000Y685000D01*
X797000D01*
X777200Y700800D02*
Y712654D01*
Y700800D02*
X791000Y687000D01*
X799500D01*
X779000Y702000D02*
Y713400D01*
Y702000D02*
X792000Y689000D01*
X801000D01*
X781100Y702900D02*
Y714226D01*
Y702900D02*
X793000Y691000D01*
X804500D01*
X819000Y676500D01*
Y652750D02*
Y676500D01*
X814500Y590500D02*
Y601500D01*
X814000Y602000D02*
X814500Y601500D01*
Y590500D02*
X815000Y590000D01*
X621142Y792142D02*
X626000Y797000D01*
X621142Y784350D02*
Y792142D01*
X631000Y797000D02*
Y801000D01*
X623110Y789110D02*
X631000Y797000D01*
X623110Y784350D02*
Y789110D01*
X498250Y811000D02*
Y817000D01*
X494000Y805000D02*
Y806000D01*
X498250Y810250D02*
Y811000D01*
X494000Y806000D02*
X498250Y810250D01*
X651850Y773327D02*
X659327D01*
X662500Y776500D01*
Y780500D01*
X648051Y771500D02*
X648114Y771436D01*
X651772D01*
X651850Y771358D01*
X631000Y763484D02*
X651850D01*
X623400Y708400D02*
Y712596D01*
X621142Y714854D02*
X623400Y712596D01*
X621142Y714854D02*
Y740650D01*
X644764Y730232D02*
Y740650D01*
X642795Y729655D02*
Y740650D01*
X640827Y729077D02*
Y740650D01*
X756400Y736000D02*
X779000Y713400D01*
X755654Y734200D02*
X777200Y712654D01*
X754909Y732400D02*
X775400Y711909D01*
X748900Y718000D02*
X761000Y705900D01*
X685400Y736000D02*
X756400D01*
X675800Y745600D02*
X685400Y736000D01*
X684200Y734200D02*
X755654D01*
X673700Y744700D02*
X684200Y734200D01*
X677400Y732400D02*
X754909D01*
X674600Y735200D02*
X677400Y732400D01*
X664900Y730600D02*
X754163D01*
X662100Y733400D02*
X664900Y730600D01*
X663000Y728800D02*
X753418D01*
X660300Y731500D02*
X663000Y728800D01*
X669600Y727000D02*
X752672D01*
X669600Y727000D02*
X669600Y727000D01*
X661300Y727000D02*
X669600D01*
X658500Y729800D02*
X661300Y727000D01*
X660100Y725200D02*
X751927D01*
X656700Y728600D02*
X660100Y725200D01*
X658900Y723400D02*
X751181D01*
X651850Y730450D02*
X658900Y723400D01*
X653395Y721600D02*
X750435D01*
X644764Y730232D02*
X653395Y721600D01*
X652650Y719800D02*
X749690D01*
X642795Y729655D02*
X652650Y719800D01*
X651904Y718000D02*
X748900D01*
X640827Y729077D02*
X651904Y718000D01*
G54D37*
X289700Y747600D02*
X296300Y741000D01*
X289700Y747600D02*
Y755000D01*
X284350Y760350D02*
X289700Y755000D01*
X296300Y741000D02*
X385000D01*
X284350Y760350D02*
Y762650D01*
X279600Y767400D02*
X284350Y762650D01*
X276800Y767400D02*
X279600D01*
X273800Y770400D02*
X276800Y767400D01*
X292000Y748500D02*
Y770100D01*
X291700Y770400D02*
X292000Y770100D01*
X194600Y723300D02*
X194900Y723000D01*
Y696900D02*
Y723000D01*
X102500Y757000D02*
Y759000D01*
X88450Y756400D02*
X101900D01*
X102500Y757000D01*
X68950Y766400D02*
Y769950D01*
X73000Y774000D01*
X89000D01*
X420500Y705500D02*
Y720500D01*
X422500Y715500D02*
X425000Y713000D01*
X422500Y715500D02*
Y723000D01*
X398000Y743000D02*
X420500Y720500D01*
X385000Y745500D02*
X400000D01*
X422500Y723000D01*
X385000Y741000D02*
X387000Y743000D01*
X398000D01*
X383000Y743500D02*
X385000Y745500D01*
X297000Y743500D02*
X383000D01*
X292000Y748500D02*
X297000Y743500D01*
X114750Y816000D02*
Y817000D01*
Y820250D01*
X104000Y822000D02*
X113000D01*
X114750Y820250D01*
X89000Y774000D02*
X99000Y784000D01*
Y817000D01*
X104000Y822000D01*
X132000Y760000D02*
X135500Y763500D01*
X128500Y760000D02*
X132000D01*
X261500Y784000D02*
Y790500D01*
X256000Y771500D02*
X258051D01*
X255000Y772500D02*
X256000Y771500D01*
X255000Y772500D02*
Y777500D01*
X261500Y784000D01*
X155000Y795500D02*
X164500Y805000D01*
X247000D01*
X135500Y763500D02*
Y778500D01*
X128500Y734500D02*
X150500D01*
X155000Y739000D01*
Y795500D01*
X679700Y747600D02*
X686300Y741000D01*
X679700Y747600D02*
Y755000D01*
X674350Y760350D02*
X679700Y755000D01*
X686300Y741000D02*
X775000D01*
X674350Y760350D02*
Y762650D01*
X669600Y767400D02*
X674350Y762650D01*
X666800Y767400D02*
X669600D01*
X663800Y770400D02*
X666800Y767400D01*
X682000Y748500D02*
Y770100D01*
X681700Y770400D02*
X682000Y770100D01*
X584600Y723300D02*
X584900Y723000D01*
Y696900D02*
Y723000D01*
X492500Y757000D02*
Y759000D01*
X478450Y756400D02*
X491900D01*
X492500Y757000D01*
X458950Y766400D02*
Y769950D01*
X463000Y774000D01*
X479000D01*
X810500Y705500D02*
Y720500D01*
X812500Y715500D02*
X815000Y713000D01*
X812500Y715500D02*
Y723000D01*
X788000Y743000D02*
X810500Y720500D01*
X775000Y745500D02*
X790000D01*
X812500Y723000D01*
X775000Y741000D02*
X777000Y743000D01*
X788000D01*
X773000Y743500D02*
X775000Y745500D01*
X687000Y743500D02*
X773000D01*
X682000Y748500D02*
X687000Y743500D01*
X504750Y816000D02*
Y817000D01*
Y820250D01*
X494000Y822000D02*
X503000D01*
X504750Y820250D01*
X479000Y774000D02*
X489000Y784000D01*
Y817000D01*
X494000Y822000D01*
X522000Y760000D02*
X525500Y763500D01*
X518500Y760000D02*
X522000D01*
X651500Y784000D02*
Y790500D01*
X646000Y771500D02*
X648051D01*
X645000Y772500D02*
X646000Y771500D01*
X645000Y772500D02*
Y777500D01*
X651500Y784000D01*
X545000Y795500D02*
X554500Y805000D01*
X637000D01*
X525500Y763500D02*
Y778500D01*
X518500Y734500D02*
X540500D01*
X545000Y739000D01*
Y795500D01*
G54D38*
X126300Y74000D02*
X126750D01*
X126850Y74100D01*
X126250Y74700D02*
X126850Y74100D01*
X314800Y157000D02*
X316682D01*
X216700Y87700D02*
Y88400D01*
X378427Y166800D02*
X378555Y166673D01*
X316882Y166800D02*
X317009Y166673D01*
X255209Y146927D02*
X255336Y146800D01*
X193664Y146927D02*
X193791Y146800D01*
X132118Y146927D02*
X132245Y146800D01*
X70573Y146927D02*
X70700Y146800D01*
X433000Y408200D02*
Y464300D01*
X423100Y474200D02*
X433000Y464300D01*
X423100Y474200D02*
Y503900D01*
X414000Y508500D02*
Y515000D01*
X421300Y505700D02*
X423100Y503900D01*
X416800Y505700D02*
X421300D01*
X414000Y508500D02*
X416800Y505700D01*
X393700Y464800D02*
Y472000D01*
X399800Y458700D02*
X407700D01*
X393700Y464800D02*
X399800Y458700D01*
X427300Y402500D02*
X433000Y408200D01*
X414000Y402500D02*
X427300D01*
X108500Y738000D02*
Y752500D01*
X92000Y721500D02*
X108500Y738000D01*
X88450Y766400D02*
X108400D01*
X135000Y657600D02*
Y665000D01*
X134800Y657400D02*
X135000Y657600D01*
X315000Y493750D02*
Y503700D01*
X318500Y507200D01*
X330000Y493750D02*
Y503700D01*
X326500Y507200D02*
X330000Y503700D01*
X296500Y507200D02*
X300000Y503700D01*
Y493750D02*
Y503700D01*
X356500Y507200D02*
X360000Y503700D01*
Y493750D02*
Y503700D01*
X345000D02*
X348500Y507200D01*
X345000Y493750D02*
Y503700D01*
X375000D02*
X378500Y507200D01*
X375000Y493750D02*
Y503700D01*
X185000Y493750D02*
Y503700D01*
X188500Y507200D01*
X155000Y493750D02*
Y503700D01*
X158500Y507200D01*
X170000Y493750D02*
Y503700D01*
X166500Y507200D02*
X170000Y503700D01*
X110000Y493750D02*
Y503700D01*
X106500Y507200D02*
X110000Y503700D01*
X136500Y507200D02*
X140000Y503700D01*
Y493750D02*
Y503700D01*
X125000D02*
X128500Y507200D01*
X125000Y493750D02*
Y503700D01*
X155000Y657500D02*
Y665000D01*
X175000Y657400D02*
Y665000D01*
X205000Y657900D02*
Y665000D01*
X204500Y657400D02*
X205000Y657900D01*
X225000Y657400D02*
Y665000D01*
X245000Y657500D02*
Y665000D01*
X265000Y657900D02*
Y665000D01*
X264500Y657400D02*
X265000Y657900D01*
X295000Y657500D02*
Y665000D01*
X315000Y657500D02*
Y665000D01*
X335000Y657700D02*
Y665000D01*
X334700Y657400D02*
X335000Y657700D01*
X145000Y642300D02*
X145300Y642600D01*
X145000Y635000D02*
Y642300D01*
X164900Y642600D02*
X165000Y642500D01*
Y635000D02*
Y642500D01*
X185000Y635000D02*
Y642500D01*
X215000Y642100D02*
X215500Y642600D01*
X215000Y635000D02*
Y642100D01*
X235000Y635000D02*
Y642500D01*
X255000Y635000D02*
Y642600D01*
X275000Y642100D02*
X275500Y642600D01*
X275000Y635000D02*
Y642100D01*
X305000Y635000D02*
Y642600D01*
X325000Y635000D02*
Y642500D01*
X345000Y642400D02*
X345200Y642600D01*
X345000Y635000D02*
Y642400D01*
X355000Y621250D02*
Y635000D01*
X365000Y621250D02*
Y635000D01*
X335000Y621250D02*
Y635000D01*
X345000Y621250D02*
Y635000D01*
X315000Y621250D02*
Y635000D01*
X325000Y621250D02*
Y635000D01*
X295000Y621250D02*
Y635000D01*
X305000Y621250D02*
Y635000D01*
X265000Y621250D02*
Y635000D01*
X275000Y621250D02*
Y635000D01*
X245000Y621250D02*
Y635000D01*
X255000Y621250D02*
Y635000D01*
X225000Y621250D02*
Y635000D01*
X235000Y621250D02*
Y635000D01*
X205000Y621250D02*
Y635000D01*
X215000Y621250D02*
Y635000D01*
X175000Y621250D02*
Y635000D01*
X185000Y621250D02*
Y635000D01*
X155000Y621250D02*
Y635000D01*
X165000Y621250D02*
Y635000D01*
X135000Y621250D02*
Y635000D01*
X145000Y621250D02*
Y635000D01*
X123750Y620000D02*
X125000Y621250D01*
Y635000D01*
X115000Y621250D02*
X116250Y620000D01*
X115000Y621250D02*
Y635000D01*
X349500Y100350D02*
Y109900D01*
X329500Y100400D02*
Y109900D01*
X309500Y100350D02*
Y109900D01*
X289500Y100400D02*
Y109900D01*
X269500Y100350D02*
Y109900D01*
X249500Y100400D02*
Y109900D01*
X245000Y95900D02*
X249500Y100400D01*
X229500Y100350D02*
Y109900D01*
X226250Y97100D02*
X229500Y100350D01*
X209500Y100400D02*
Y109900D01*
X206250Y97150D02*
X209500Y100400D01*
X189500D02*
Y109900D01*
X186250Y97150D02*
X189500Y100400D01*
X169500D02*
Y109900D01*
X166250Y97150D02*
X169500Y100400D01*
X129500D02*
Y109900D01*
X126250Y97150D02*
X129500Y100400D01*
X146250Y97150D02*
X149500Y100400D01*
Y109900D01*
X326100Y74550D02*
X326250Y74700D01*
X306100Y74500D02*
X306250Y74650D01*
X286100Y74550D02*
X286250Y74700D01*
X266100Y74500D02*
X266250Y74650D01*
X245000Y75650D02*
X246100Y74550D01*
X245000Y75650D02*
Y95900D01*
X226100Y74500D02*
X226250Y74650D01*
Y97100D01*
X206100Y74550D02*
X206250Y74700D01*
Y97150D01*
X186100Y74550D02*
X186250Y74700D01*
Y97150D01*
X166100Y74550D02*
X166250Y74700D01*
Y97150D01*
X146100Y74550D02*
X146250Y74700D01*
Y97150D01*
X126250Y74700D02*
Y97150D01*
X344400Y95250D02*
X349500Y100350D01*
X346100Y74500D02*
X346250Y74650D01*
X344400Y76200D02*
X346100Y74500D01*
X344400Y76200D02*
Y95250D01*
X323900Y76750D02*
X326100Y74550D01*
X323900Y76750D02*
Y94800D01*
X329500Y100400D01*
X304200Y76400D02*
X306100Y74500D01*
X304200Y76400D02*
Y95050D01*
X309500Y100350D01*
X284400Y76250D02*
X286100Y74550D01*
X284400Y76250D02*
Y95300D01*
X289500Y100400D01*
X265000Y95850D02*
X269500Y100350D01*
X265000Y85800D02*
Y91000D01*
Y95850D01*
Y75600D02*
Y91000D01*
Y75600D02*
X266100Y74500D01*
X410500Y529500D02*
X424000Y543000D01*
Y550000D01*
X420500Y529500D02*
X421500Y530500D01*
X425500D01*
X434000Y539000D01*
Y550000D01*
X424000Y515000D02*
Y522000D01*
X430500Y528500D01*
X433500D01*
X424500Y567500D02*
Y578000D01*
X424000Y567000D02*
X424500Y567500D01*
X404000Y540000D02*
Y550000D01*
X396500Y557500D02*
X404000Y550000D01*
X396500Y557500D02*
Y575500D01*
X398500Y577500D01*
X411000D01*
X414000Y574500D01*
X404000Y593000D02*
Y602000D01*
Y593000D02*
X406500Y590500D01*
X417500D01*
X401500Y604500D02*
X404000Y602000D01*
X396000Y604500D02*
X401500D01*
X424000Y550000D02*
Y555500D01*
X427000Y558500D01*
X431000D01*
X108750Y737750D02*
X117000D01*
X108500Y738000D02*
X108750Y737750D01*
Y763250D02*
X116500D01*
X108500Y752500D02*
Y763000D01*
X108750Y763250D01*
Y790250D02*
X115500D01*
X116500Y770750D02*
X128250D01*
X115500Y797750D02*
X127750D01*
X117000Y745250D02*
X128250D01*
X128500Y745500D01*
X92000Y707100D02*
Y721500D01*
X116000Y805000D02*
X150000D01*
X114750Y806250D02*
X116000Y805000D01*
X114750Y806250D02*
Y811000D01*
X112000Y805000D02*
X116000D01*
X108500Y801500D02*
X112000Y805000D01*
X108500Y763000D02*
Y790000D01*
Y801500D01*
Y790000D02*
X108750Y790250D01*
X128500Y787500D02*
X149000D01*
X128000Y787000D02*
X128500Y787500D01*
X149000Y739500D02*
Y787500D01*
X148000Y738500D02*
X149000Y739500D01*
X516300Y74000D02*
X516750D01*
X516850Y74100D01*
X516250Y74700D02*
X516850Y74100D01*
X704800Y157000D02*
X706682D01*
X606700Y87700D02*
Y88400D01*
X768427Y166800D02*
X768554Y166673D01*
X706882Y166800D02*
X707009Y166673D01*
X645209Y146927D02*
X645336Y146800D01*
X583664Y146927D02*
X583791Y146800D01*
X522118Y146927D02*
X522245Y146800D01*
X460573Y146927D02*
X460700Y146800D01*
X823000Y408200D02*
Y464300D01*
X813100Y474200D02*
X823000Y464300D01*
X813100Y474200D02*
Y503900D01*
X804000Y508500D02*
Y515000D01*
X811300Y505700D02*
X813100Y503900D01*
X806800Y505700D02*
X811300D01*
X804000Y508500D02*
X806800Y505700D01*
X783700Y464800D02*
Y472000D01*
X789800Y458700D02*
X797700D01*
X783700Y464800D02*
X789800Y458700D01*
X817300Y402500D02*
X823000Y408200D01*
X804000Y402500D02*
X817300D01*
X498500Y738000D02*
Y752500D01*
X482000Y721500D02*
X498500Y738000D01*
X478450Y766400D02*
X498400D01*
X525000Y657600D02*
Y665000D01*
X524800Y657400D02*
X525000Y657600D01*
X705000Y493750D02*
Y503700D01*
X708500Y507200D01*
X720000Y493750D02*
Y503700D01*
X716500Y507200D02*
X720000Y503700D01*
X686500Y507200D02*
X690000Y503700D01*
Y493750D02*
Y503700D01*
X746500Y507200D02*
X750000Y503700D01*
Y493750D02*
Y503700D01*
X735000D02*
X738500Y507200D01*
X735000Y493750D02*
Y503700D01*
X765000D02*
X768500Y507200D01*
X765000Y493750D02*
Y503700D01*
X575000Y493750D02*
Y503700D01*
X578500Y507200D01*
X545000Y493750D02*
Y503700D01*
X548500Y507200D01*
X560000Y493750D02*
Y503700D01*
X556500Y507200D02*
X560000Y503700D01*
X500000Y493750D02*
Y503700D01*
X496500Y507200D02*
X500000Y503700D01*
X526500Y507200D02*
X530000Y503700D01*
Y493750D02*
Y503700D01*
X515000D02*
X518500Y507200D01*
X515000Y493750D02*
Y503700D01*
X545000Y657500D02*
Y665000D01*
X565000Y657400D02*
Y665000D01*
X595000Y657900D02*
Y665000D01*
X594500Y657400D02*
X595000Y657900D01*
X615000Y657400D02*
Y665000D01*
X635000Y657500D02*
Y665000D01*
X655000Y657900D02*
Y665000D01*
X654500Y657400D02*
X655000Y657900D01*
X685000Y657500D02*
Y665000D01*
X705000Y657500D02*
Y665000D01*
X725000Y657700D02*
Y665000D01*
X724700Y657400D02*
X725000Y657700D01*
X535000Y642300D02*
X535300Y642600D01*
X535000Y635000D02*
Y642300D01*
X554900Y642600D02*
X555000Y642500D01*
Y635000D02*
Y642500D01*
X575000Y635000D02*
Y642500D01*
X605000Y642100D02*
X605500Y642600D01*
X605000Y635000D02*
Y642100D01*
X625000Y635000D02*
Y642500D01*
X645000Y635000D02*
Y642600D01*
X665000Y642100D02*
X665500Y642600D01*
X665000Y635000D02*
Y642100D01*
X695000Y635000D02*
Y642600D01*
X715000Y635000D02*
Y642500D01*
X735000Y642400D02*
X735200Y642600D01*
X735000Y635000D02*
Y642400D01*
X745000Y621250D02*
Y635000D01*
X755000Y621250D02*
Y635000D01*
X725000Y621250D02*
Y635000D01*
X735000Y621250D02*
Y635000D01*
X705000Y621250D02*
Y635000D01*
X715000Y621250D02*
Y635000D01*
X685000Y621250D02*
Y635000D01*
X695000Y621250D02*
Y635000D01*
X655000Y621250D02*
Y635000D01*
X665000Y621250D02*
Y635000D01*
X635000Y621250D02*
Y635000D01*
X645000Y621250D02*
Y635000D01*
X615000Y621250D02*
Y635000D01*
X625000Y621250D02*
Y635000D01*
X595000Y621250D02*
Y635000D01*
X605000Y621250D02*
Y635000D01*
X565000Y621250D02*
Y635000D01*
X575000Y621250D02*
Y635000D01*
X545000Y621250D02*
Y635000D01*
X555000Y621250D02*
Y635000D01*
X525000Y621250D02*
Y635000D01*
X535000Y621250D02*
Y635000D01*
X513750Y620000D02*
X515000Y621250D01*
Y635000D01*
X505000Y621250D02*
X506250Y620000D01*
X505000Y621250D02*
Y635000D01*
X739500Y100350D02*
Y109900D01*
X719500Y100400D02*
Y109900D01*
X699500Y100350D02*
Y109900D01*
X679500Y100400D02*
Y109900D01*
X659500Y100350D02*
Y109900D01*
X639500Y100400D02*
Y109900D01*
X635000Y95900D02*
X639500Y100400D01*
X619500Y100350D02*
Y109900D01*
X616250Y97100D02*
X619500Y100350D01*
X599500Y100400D02*
Y109900D01*
X596250Y97150D02*
X599500Y100400D01*
X579500D02*
Y109900D01*
X576250Y97150D02*
X579500Y100400D01*
X559500D02*
Y109900D01*
X556250Y97150D02*
X559500Y100400D01*
X519500D02*
Y109900D01*
X516250Y97150D02*
X519500Y100400D01*
X536250Y97150D02*
X539500Y100400D01*
Y109900D01*
X716100Y74550D02*
X716250Y74700D01*
X696100Y74500D02*
X696250Y74650D01*
X676100Y74550D02*
X676250Y74700D01*
X656100Y74500D02*
X656250Y74650D01*
X635000Y75650D02*
X636100Y74550D01*
X635000Y75650D02*
Y95900D01*
X616100Y74500D02*
X616250Y74650D01*
Y97100D01*
X596100Y74550D02*
X596250Y74700D01*
Y97150D01*
X576100Y74550D02*
X576250Y74700D01*
Y97150D01*
X556100Y74550D02*
X556250Y74700D01*
Y97150D01*
X536100Y74550D02*
X536250Y74700D01*
Y97150D01*
X516250Y74700D02*
Y97150D01*
X734400Y95250D02*
X739500Y100350D01*
X736100Y74500D02*
X736250Y74650D01*
X734400Y76200D02*
X736100Y74500D01*
X734400Y76200D02*
Y95250D01*
X713900Y76750D02*
X716100Y74550D01*
X713900Y76750D02*
Y94800D01*
X719500Y100400D01*
X694200Y76400D02*
X696100Y74500D01*
X694200Y76400D02*
Y95050D01*
X699500Y100350D01*
X674400Y76250D02*
X676100Y74550D01*
X674400Y76250D02*
Y95300D01*
X679500Y100400D01*
X655000Y95850D02*
X659500Y100350D01*
X655000Y85800D02*
Y91000D01*
Y95850D01*
Y75600D02*
Y91000D01*
Y75600D02*
X656100Y74500D01*
X800500Y529500D02*
X814000Y543000D01*
Y550000D01*
X810500Y529500D02*
X811500Y530500D01*
X815500D01*
X824000Y539000D01*
Y550000D01*
X814000Y515000D02*
Y522000D01*
X820500Y528500D01*
X823500D01*
X814500Y567500D02*
Y578000D01*
X814000Y567000D02*
X814500Y567500D01*
X794000Y540000D02*
Y550000D01*
X786500Y557500D02*
X794000Y550000D01*
X786500Y557500D02*
Y575500D01*
X788500Y577500D01*
X801000D01*
X804000Y574500D01*
X794000Y593000D02*
Y602000D01*
Y593000D02*
X796500Y590500D01*
X807500D01*
X791500Y604500D02*
X794000Y602000D01*
X786000Y604500D02*
X791500D01*
X814000Y550000D02*
Y555500D01*
X817000Y558500D01*
X821000D01*
X498750Y737750D02*
X507000D01*
X498500Y738000D02*
X498750Y737750D01*
Y763250D02*
X506500D01*
X498500Y752500D02*
Y763000D01*
X498750Y763250D01*
Y790250D02*
X505500D01*
X506500Y770750D02*
X518250D01*
X505500Y797750D02*
X517750D01*
X507000Y745250D02*
X518250D01*
X518500Y745500D01*
X482000Y707100D02*
Y721500D01*
X506000Y805000D02*
X540000D01*
X504750Y806250D02*
X506000Y805000D01*
X504750Y806250D02*
Y811000D01*
X502000Y805000D02*
X506000D01*
X498500Y801500D02*
X502000Y805000D01*
X498500Y763000D02*
Y790000D01*
Y801500D01*
Y790000D02*
X498750Y790250D01*
X518500Y787500D02*
X539000D01*
X518000Y787000D02*
X518500Y787500D01*
X539000Y739500D02*
Y787500D01*
X538000Y738500D02*
X539000Y739500D01*
G54D39*
X54000Y722200D02*
X58200Y718000D01*
X79200Y452000D02*
Y520900D01*
X76000Y448800D02*
X79200Y452000D01*
X76000Y432500D02*
Y448800D01*
X69600Y530500D02*
X79200Y520900D01*
X69600Y530500D02*
Y680100D01*
X72400Y536200D02*
X100600Y508000D01*
X72400Y536200D02*
Y665900D01*
X402200Y493000D02*
X406000Y496800D01*
X415500D01*
X69600Y680100D02*
X72300Y682800D01*
X72400Y665900D02*
X82000Y675500D01*
X72300Y682800D02*
X76100D01*
X54000Y751000D02*
X59400Y756400D01*
X54000Y722200D02*
Y751000D01*
X59400Y756400D02*
X68950D01*
X77250Y700500D02*
X87800D01*
X77100Y700650D02*
X77250Y700500D01*
X248100Y428800D02*
X278300D01*
X248100Y418200D02*
Y422700D01*
X230200Y440600D02*
X248100Y422700D01*
X127750Y797750D02*
X128000Y798000D01*
X288750Y798250D02*
X293500Y803000D01*
X282000Y798250D02*
X288750D01*
X70750Y700500D02*
Y705450D01*
X58200Y718000D02*
X70750Y705450D01*
X206700Y445500D02*
X231400D01*
X248100Y428800D01*
X83900Y447200D02*
X92900D01*
X100600Y454900D01*
Y508000D01*
X444000Y722200D02*
X448200Y718000D01*
X469200Y452000D02*
Y520900D01*
X466000Y448800D02*
X469200Y452000D01*
X466000Y432500D02*
Y448800D01*
X459600Y530500D02*
X469200Y520900D01*
X459600Y530500D02*
Y680100D01*
X462400Y536200D02*
X490600Y508000D01*
X462400Y536200D02*
Y665900D01*
X792200Y493000D02*
X796000Y496800D01*
X805500D01*
X459600Y680100D02*
X462300Y682800D01*
X462400Y665900D02*
X472000Y675500D01*
X462300Y682800D02*
X466100D01*
X444000Y751000D02*
X449400Y756400D01*
X444000Y722200D02*
Y751000D01*
X449400Y756400D02*
X458950D01*
X467250Y700500D02*
X477800D01*
X467100Y700650D02*
X467250Y700500D01*
X638100Y428800D02*
X668300D01*
X638100Y418200D02*
Y422700D01*
X620200Y440600D02*
X638100Y422700D01*
X517750Y797750D02*
X518000Y798000D01*
X678750Y798250D02*
X683500Y803000D01*
X672000Y798250D02*
X678750D01*
X460750Y700500D02*
Y705450D01*
X448200Y718000D02*
X460750Y705450D01*
X596700Y445500D02*
X621400D01*
X638100Y428800D01*
X473900Y447200D02*
X482900D01*
X490600Y454900D01*
Y508000D01*
G54D40*
X304800Y788000D02*
X307700Y790900D01*
X269300Y788000D02*
X304800D01*
X261850Y780550D02*
X269300Y788000D01*
X261850Y777264D02*
Y780550D01*
X199258Y771358D02*
X218150D01*
X193100Y765200D02*
X199258Y771358D01*
X190750Y765200D02*
X193100D01*
X205258Y767421D02*
X218150D01*
X195537Y757700D02*
X205258Y767421D01*
X205553Y765453D02*
X218150D01*
X192000Y751900D02*
X205553Y765453D01*
X190750Y757700D02*
X195537D01*
X74600Y644395D02*
X102043Y671838D01*
X74600Y538105D02*
Y644395D01*
X76200Y643732D02*
X103643Y671175D01*
X76200Y538768D02*
Y643732D01*
X77800Y643069D02*
X105243Y670512D01*
X77800Y539431D02*
Y643069D01*
X79400Y642407D02*
X106843Y669849D01*
X79400Y540093D02*
Y642407D01*
X108443Y669186D02*
Y705486D01*
X81000Y641744D02*
X108443Y669186D01*
X81000Y540756D02*
Y641744D01*
X82657Y641057D02*
X110100Y668500D01*
X82657Y541443D02*
Y641057D01*
X58000Y744500D02*
X59900Y746400D01*
X58000Y731500D02*
Y744500D01*
Y731500D02*
X62000Y727500D01*
X59900Y746400D02*
X68950D01*
X269606Y477594D02*
X272810Y474390D01*
X263701Y486798D02*
Y498899D01*
X263500Y499100D02*
X263701Y498899D01*
X265600Y480200D02*
X265669Y480269D01*
Y486798D01*
X244016Y481384D02*
X244200Y481200D01*
X244016Y481384D02*
Y486798D01*
X242047Y498297D02*
X242250Y498500D01*
X242047Y486798D02*
Y498297D01*
X235900Y498700D02*
X240079Y494521D01*
Y486798D02*
Y494521D01*
X226050Y495650D02*
Y498500D01*
X208500Y499250D02*
X209350D01*
X232205Y479505D02*
Y486798D01*
X169700Y780200D02*
X184250D01*
X162395Y721757D02*
X169500Y728863D01*
Y780000D01*
X169700Y780200D01*
X166700Y728600D02*
Y765000D01*
X161457Y723357D02*
X166700Y728600D01*
X163057Y720157D02*
X172600Y729700D01*
Y772700D01*
X184250D01*
X157057Y724957D02*
X163200Y731100D01*
X121125Y724957D02*
X157057D01*
X183950Y758000D02*
X184250Y757700D01*
X177900Y758000D02*
X183950D01*
X163200Y731100D02*
Y757500D01*
X121788Y723357D02*
X161457D01*
X177800Y765200D02*
X184250D01*
X123114Y720157D02*
X163057D01*
X184050Y772900D02*
X184250Y772700D01*
X193200Y779900D02*
X197805Y775295D01*
X190750Y780200D02*
X191050Y779900D01*
X193200D01*
X197805Y775295D02*
X218150D01*
X190750Y772700D02*
X191377Y773327D01*
X218150D01*
X217972Y775473D02*
X218150Y775295D01*
X217972Y773149D02*
X218150Y773327D01*
X217972Y771180D02*
X218150Y771358D01*
X179750Y736950D02*
Y742500D01*
X179800Y736900D02*
Y737300D01*
Y730614D02*
Y736900D01*
X122500Y717200D02*
X166386D01*
X179800Y730614D01*
X110100Y704800D02*
X122500Y717200D01*
X110100Y668500D02*
Y704800D01*
X186418Y742500D02*
X207403Y763484D01*
X186250Y742500D02*
X186418D01*
X207403Y763484D02*
X218150D01*
X226400Y732200D02*
X227205Y733005D01*
Y740650D01*
X221900Y734000D02*
X225236Y737336D01*
X122451Y721757D02*
X162395D01*
X103643Y707475D02*
X121125Y724957D01*
X105243Y706812D02*
X121788Y723357D01*
X106843Y706149D02*
X122451Y721757D01*
X108443Y705486D02*
X123114Y720157D01*
X103643Y671175D02*
Y707475D01*
X105243Y670512D02*
Y706812D01*
X106843Y669849D02*
Y706149D01*
X307700Y790900D02*
X307800Y790800D01*
X269124Y818200D02*
X366500D01*
X377700Y800400D02*
X377800Y800500D01*
Y806900D01*
X366500Y818200D02*
X377800Y806900D01*
X242953Y792029D02*
X269124Y818200D01*
X242953Y784350D02*
Y792029D01*
X244921Y791735D02*
X269786Y816600D01*
X367400Y800700D02*
X367700Y800400D01*
X367400Y800700D02*
Y806700D01*
X357500Y816600D02*
X367400Y806700D01*
X269786Y816600D02*
X357500D01*
X244921Y784350D02*
Y791735D01*
X246890Y791441D02*
X270449Y815000D01*
X246890Y784350D02*
Y791441D01*
X349300Y815000D02*
X357700Y806600D01*
X270449Y815000D02*
X349300D01*
X357700Y800400D02*
Y806600D01*
X271112Y813400D02*
X340200D01*
X347700Y805900D01*
Y800400D02*
Y805900D01*
X248858Y791147D02*
X271112Y813400D01*
X248858Y784350D02*
Y791147D01*
X332100Y811800D02*
X337700Y806200D01*
X271775Y811800D02*
X332100D01*
X250827Y784350D02*
Y790852D01*
X271775Y811800D01*
X337700Y800400D02*
Y806200D01*
X272437Y810200D02*
X323900D01*
X327700Y806400D01*
Y800400D02*
Y806400D01*
X252795Y790558D02*
X272437Y810200D01*
X252795Y784350D02*
Y790558D01*
X254764Y790264D02*
X273100Y808600D01*
X254764Y784350D02*
Y790264D01*
X273100Y808600D02*
X316200D01*
X317700Y807100D01*
Y800400D02*
Y807100D01*
X377700Y790900D02*
X377800Y790800D01*
X367700Y790900D02*
X367800Y790800D01*
X347700Y790900D02*
X347800Y790800D01*
X337700Y790900D02*
X337800Y790800D01*
X327700Y790900D02*
X327800Y790800D01*
X317700Y790900D02*
X317800Y790800D01*
X209028Y757579D02*
X218150D01*
X127650Y690250D02*
X129600Y692200D01*
X167049Y715600D02*
X209028Y757579D01*
X129600Y692200D02*
Y700600D01*
X144600Y715600D01*
X167049D01*
X167712Y714000D02*
X209322Y755610D01*
X149600Y693000D02*
Y700500D01*
X163100Y714000D01*
X167712D01*
X209322Y755610D02*
X218150D01*
X169400Y713425D02*
X209616Y753642D01*
X218150D01*
X169400Y691600D02*
Y713425D01*
X209910Y751673D02*
X218150D01*
X188200Y729963D02*
X209910Y751673D01*
X188200Y692300D02*
Y729963D01*
X290800Y692300D02*
Y706800D01*
X309100Y692000D02*
Y708500D01*
X329400Y692000D02*
Y707300D01*
X322000Y714700D02*
X329400Y707300D01*
X349400Y692100D02*
Y710000D01*
X343100Y716300D02*
X343100Y716300D01*
X349400Y710000D01*
X351750Y689750D02*
X356500D01*
X349400Y692100D02*
X351750Y689750D01*
X329400Y692000D02*
X331650Y689750D01*
X336500D01*
X311350D02*
X316500D01*
X309100Y692000D02*
X311350Y689750D01*
X290800Y692300D02*
X293350Y689750D01*
X296500D01*
X261750D02*
X266500D01*
X259600Y691900D02*
X261750Y689750D01*
X239600Y692300D02*
X242150Y689750D01*
X246500D01*
X218900Y691800D02*
X221200Y689500D01*
X201100Y690800D02*
X202150Y689750D01*
X206500D01*
X186150Y690250D02*
X188200Y692300D01*
X184000Y690250D02*
X186150D01*
X168050D02*
X169400Y691600D01*
X164000Y690250D02*
X168050D01*
X146850D02*
X149600Y693000D01*
X144000Y690250D02*
X146850D01*
X124000D02*
X127650D01*
X365000Y665000D02*
Y680750D01*
X356750Y682500D02*
Y689500D01*
X357000Y690250D02*
X364000D01*
X345000Y665000D02*
Y680750D01*
X336750Y682500D02*
Y689500D01*
X337000Y690250D02*
X344000D01*
X325000Y665000D02*
Y680750D01*
X316750Y682500D02*
Y689500D01*
X317000Y690250D02*
X324000D01*
X305000Y665000D02*
Y680750D01*
X296750Y682500D02*
Y689500D01*
X297000Y690250D02*
X304000D01*
X275000Y665000D02*
Y680750D01*
X266750Y682500D02*
Y689500D01*
X267000Y690250D02*
X274000D01*
X255000Y665000D02*
Y680750D01*
X246750Y682500D02*
Y689500D01*
X247000Y690250D02*
X254000D01*
X235000Y665000D02*
Y680750D01*
X226750Y682500D02*
Y689500D01*
X227000Y690250D02*
X234000D01*
X215000Y665000D02*
Y680750D01*
X206750Y682500D02*
Y689500D01*
X207000Y690250D02*
X214000D01*
X185000Y665000D02*
Y680750D01*
X176750Y682500D02*
Y689500D01*
X177000Y690250D02*
X184000D01*
X165000Y665000D02*
Y680750D01*
X156750Y682500D02*
Y689500D01*
X157000Y690250D02*
X164000D01*
X145000Y665000D02*
Y680750D01*
X136750Y682500D02*
Y689500D01*
X137000Y690250D02*
X144000D01*
X116500Y689750D02*
X117000Y690250D01*
X124000D01*
X116500Y689750D02*
X116750Y689500D01*
Y682500D02*
Y689500D01*
X125000Y665000D02*
Y680750D01*
X123250Y682500D02*
X125000Y680750D01*
X76200Y538768D02*
X97125Y517843D01*
X77800Y539431D02*
X97788Y519443D01*
X79400Y540093D02*
X98451Y521043D01*
X81000Y540756D02*
X99114Y522643D01*
X82657Y541443D02*
X99800Y524300D01*
X239606Y517843D02*
X249921Y507528D01*
X240269Y519443D02*
X251890Y507822D01*
X240932Y521043D02*
X253858Y508116D01*
X241595Y522643D02*
X255827Y508411D01*
X242200Y524300D02*
X257795Y508705D01*
Y487000D02*
Y508705D01*
X255827Y487000D02*
Y508411D01*
X253858Y487000D02*
Y508116D01*
X251890Y487000D02*
Y507822D01*
X249921Y487000D02*
Y507528D01*
X99800Y524300D02*
X242200D01*
X99114Y522643D02*
X241595D01*
X98451Y521043D02*
X240932D01*
X97788Y519443D02*
X240269D01*
X97125Y517843D02*
X239606D01*
X238857Y516243D02*
X247953Y507147D01*
X96463Y516243D02*
X238857D01*
X74600Y538105D02*
X96463Y516243D01*
X102043Y671838D02*
Y708138D01*
X120463Y726557D01*
X154257D01*
X158100Y730400D01*
Y779600D01*
X226050Y495650D02*
X230236Y491464D01*
Y486798D02*
Y487798D01*
Y491464D01*
X234173Y487798D02*
Y491727D01*
X230800Y495100D02*
X234173Y491727D01*
Y486798D02*
Y487798D01*
Y490027D01*
X235900Y494700D02*
X236142Y494458D01*
Y486798D02*
Y487798D01*
Y490742D01*
Y487798D02*
Y494458D01*
X224287Y495150D02*
X228268Y491170D01*
Y486798D02*
Y487798D01*
Y491170D01*
X220500Y495150D02*
X224287D01*
X217300Y498300D02*
X217350D01*
X220500Y495150D01*
X207500Y501050D02*
X210550D01*
X213100Y498500D01*
Y496100D02*
Y498500D01*
X215650Y493550D02*
X222500D01*
X224331Y491719D01*
X213100Y496100D02*
X215650Y493550D01*
X224331Y486798D02*
Y487798D01*
Y491719D01*
X222362Y487798D02*
Y491425D01*
X221837Y491950D02*
X222362Y491425D01*
X209100Y491950D02*
X221837D01*
X207500Y493550D02*
X209100Y491950D01*
X222362Y486798D02*
Y487798D01*
Y489838D01*
X267638Y499388D02*
X270250Y502000D01*
X267638Y486798D02*
Y487798D01*
Y499388D01*
X269606Y477594D02*
Y487798D01*
Y495106D01*
X272700Y498200D01*
X275550D01*
X273500Y494600D02*
X275200D01*
X271575Y492675D02*
X273500Y494600D01*
X271575Y486798D02*
Y487798D01*
Y492675D01*
X238000Y478300D02*
X238110Y478410D01*
Y487798D01*
X230200Y477500D02*
X232205Y479505D01*
X225300Y478000D02*
X226299Y478999D01*
Y487798D01*
X172000Y793500D02*
X178250D01*
X247953Y487000D02*
Y487798D01*
Y507147D01*
X158100Y779600D02*
X172000Y793500D01*
X203836Y777264D02*
X218150D01*
X186750Y790000D02*
X199250D01*
X201100Y740600D02*
X210205Y749705D01*
X218150D01*
X201100Y690800D02*
Y740600D01*
X218150Y747736D02*
X218900Y746986D01*
X221200Y689500D02*
X226750D01*
X218900Y691800D02*
Y746986D01*
X199250Y781850D02*
Y790000D01*
Y781850D02*
X203836Y777264D01*
X276750Y499400D02*
Y502000D01*
X275550Y498200D02*
X276750Y499400D01*
X239000Y740634D02*
X239016Y740650D01*
X284500Y676700D02*
Y702100D01*
X115750Y817000D02*
X142000D01*
X144000Y815000D01*
X114750Y816000D02*
X115750Y817000D01*
X367700Y790900D02*
Y800400D01*
X377700Y790900D02*
Y800400D01*
X337700Y790900D02*
Y800400D01*
X327700Y790900D02*
Y800400D01*
X347700Y790900D02*
Y800400D01*
X317700Y790900D02*
Y800400D01*
X357700Y790900D02*
Y800400D01*
X307700Y790900D02*
Y800400D01*
X233110Y715290D02*
Y740650D01*
Y715290D02*
X239600Y708800D01*
Y692300D02*
Y708800D01*
X248858Y728642D02*
Y740650D01*
X246890Y728347D02*
Y740650D01*
X244921Y727979D02*
Y740650D01*
X235079Y716421D02*
X241400Y710100D01*
X252100D01*
X259600Y702600D01*
X235079Y716421D02*
Y740650D01*
X259600Y691900D02*
Y702600D01*
X237047Y717353D02*
X242500Y711900D01*
X253800D01*
X237047Y717353D02*
Y740650D01*
X304500Y713100D02*
X309100Y708500D01*
X286100Y711500D02*
X290800Y706800D01*
X239016Y731622D02*
Y740650D01*
X261200Y716300D02*
X343100D01*
X248858Y728642D02*
X261200Y716300D01*
X260537Y714700D02*
X322000D01*
X246890Y728347D02*
X260537Y714700D01*
X259800Y713100D02*
X304500D01*
X244921Y727979D02*
X259800Y713100D01*
X259137Y711500D02*
X286100D01*
X239016Y731622D02*
X259137Y711500D01*
X253800Y711900D02*
X255800Y709900D01*
X276700D01*
X284500Y702100D01*
X694800Y788000D02*
X697700Y790900D01*
X659300Y788000D02*
X694800D01*
X651850Y780550D02*
X659300Y788000D01*
X651850Y777264D02*
Y780550D01*
X589258Y771358D02*
X608150D01*
X583100Y765200D02*
X589258Y771358D01*
X580750Y765200D02*
X583100D01*
X595259Y767421D02*
X608150D01*
X585537Y757700D02*
X595259Y767421D01*
X595553Y765453D02*
X608150D01*
X582000Y751900D02*
X595553Y765453D01*
X580750Y757700D02*
X585537D01*
X464600Y644395D02*
X492043Y671838D01*
X464600Y538105D02*
Y644395D01*
X466200Y643732D02*
X493643Y671175D01*
X466200Y538768D02*
Y643732D01*
X467800Y643069D02*
X495243Y670512D01*
X467800Y539431D02*
Y643069D01*
X469400Y642407D02*
X496843Y669849D01*
X469400Y540093D02*
Y642407D01*
X498443Y669186D02*
Y705486D01*
X471000Y641744D02*
X498443Y669186D01*
X471000Y540756D02*
Y641744D01*
X472657Y641057D02*
X500100Y668500D01*
X472657Y541443D02*
Y641057D01*
X448000Y744500D02*
X449900Y746400D01*
X448000Y731500D02*
Y744500D01*
Y731500D02*
X452000Y727500D01*
X449900Y746400D02*
X458950D01*
X659606Y477594D02*
X662810Y474390D01*
X653701Y486798D02*
Y498899D01*
X653500Y499100D02*
X653701Y498899D01*
X655600Y480200D02*
X655669Y480269D01*
Y486798D01*
X634016Y481384D02*
X634200Y481200D01*
X634016Y481384D02*
Y486798D01*
X632047Y498297D02*
X632250Y498500D01*
X632047Y486798D02*
Y498297D01*
X625900Y498700D02*
X630079Y494521D01*
Y486798D02*
Y494521D01*
X616050Y495650D02*
Y498500D01*
X598500Y499250D02*
X599350D01*
X622205Y479505D02*
Y486798D01*
X559700Y780200D02*
X574250D01*
X552395Y721757D02*
X559500Y728863D01*
Y780000D01*
X559700Y780200D01*
X556700Y728600D02*
Y765000D01*
X551457Y723357D02*
X556700Y728600D01*
X553057Y720157D02*
X562600Y729700D01*
Y772700D01*
X574250D01*
X547057Y724957D02*
X553200Y731100D01*
X511125Y724957D02*
X547057D01*
X573950Y758000D02*
X574250Y757700D01*
X567900Y758000D02*
X573950D01*
X553200Y731100D02*
Y757500D01*
X511788Y723357D02*
X551457D01*
X567800Y765200D02*
X574250D01*
X513113Y720157D02*
X553057D01*
X574050Y772900D02*
X574250Y772700D01*
X583200Y779900D02*
X587805Y775295D01*
X580750Y780200D02*
X581050Y779900D01*
X583200D01*
X587805Y775295D02*
X608150D01*
X580750Y772700D02*
X581377Y773327D01*
X608150D01*
X607972Y775473D02*
X608150Y775295D01*
X607972Y773149D02*
X608150Y773327D01*
X607972Y771180D02*
X608150Y771358D01*
X569750Y736950D02*
Y742500D01*
X569800Y736900D02*
Y737300D01*
Y730614D02*
Y736900D01*
X512500Y717200D02*
X556386D01*
X569800Y730614D01*
X500100Y704800D02*
X512500Y717200D01*
X500100Y668500D02*
Y704800D01*
X576418Y742500D02*
X597403Y763484D01*
X576250Y742500D02*
X576418D01*
X597403Y763484D02*
X608150D01*
X616400Y732200D02*
X617205Y733005D01*
Y740650D01*
X611900Y734000D02*
X615236Y737336D01*
X512451Y721757D02*
X552395D01*
X493643Y707475D02*
X511125Y724957D01*
X495243Y706812D02*
X511788Y723357D01*
X496843Y706149D02*
X512451Y721757D01*
X498443Y705486D02*
X513113Y720157D01*
X493643Y671175D02*
Y707475D01*
X495243Y670512D02*
Y706812D01*
X496843Y669849D02*
Y706149D01*
X697700Y790900D02*
X697800Y790800D01*
X659124Y818200D02*
X756500D01*
X767700Y800400D02*
X767800Y800500D01*
Y806900D01*
X756500Y818200D02*
X767800Y806900D01*
X632953Y792029D02*
X659124Y818200D01*
X632953Y784350D02*
Y792029D01*
X634921Y791735D02*
X659786Y816600D01*
X757400Y800700D02*
X757700Y800400D01*
X757400Y800700D02*
Y806700D01*
X747500Y816600D02*
X757400Y806700D01*
X659786Y816600D02*
X747500D01*
X634921Y784350D02*
Y791735D01*
X636890Y791441D02*
X660449Y815000D01*
X636890Y784350D02*
Y791441D01*
X739300Y815000D02*
X747700Y806600D01*
X660449Y815000D02*
X739300D01*
X747700Y800400D02*
Y806600D01*
X661112Y813400D02*
X730200D01*
X737700Y805900D01*
Y800400D02*
Y805900D01*
X638858Y791147D02*
X661112Y813400D01*
X638858Y784350D02*
Y791147D01*
X722100Y811800D02*
X727700Y806200D01*
X661774Y811800D02*
X722100D01*
X640827Y784350D02*
Y790852D01*
X661774Y811800D01*
X727700Y800400D02*
Y806200D01*
X662437Y810200D02*
X713900D01*
X717700Y806400D01*
Y800400D02*
Y806400D01*
X642795Y790558D02*
X662437Y810200D01*
X642795Y784350D02*
Y790558D01*
X644764Y790264D02*
X663100Y808600D01*
X644764Y784350D02*
Y790264D01*
X663100Y808600D02*
X706200D01*
X707700Y807100D01*
Y800400D02*
Y807100D01*
X767700Y790900D02*
X767800Y790800D01*
X757700Y790900D02*
X757800Y790800D01*
X737700Y790900D02*
X737800Y790800D01*
X727700Y790900D02*
X727800Y790800D01*
X717700Y790900D02*
X717800Y790800D01*
X707700Y790900D02*
X707800Y790800D01*
X599028Y757579D02*
X608150D01*
X517650Y690250D02*
X519600Y692200D01*
X557049Y715600D02*
X599028Y757579D01*
X519600Y692200D02*
Y700600D01*
X534600Y715600D01*
X557049D01*
X557712Y714000D02*
X599322Y755610D01*
X539600Y693000D02*
Y700500D01*
X553100Y714000D01*
X557712D01*
X599322Y755610D02*
X608150D01*
X559400Y713425D02*
X599616Y753642D01*
X608150D01*
X559400Y691600D02*
Y713425D01*
X599910Y751673D02*
X608150D01*
X578200Y729963D02*
X599910Y751673D01*
X578200Y692300D02*
Y729963D01*
X680800Y692300D02*
Y706800D01*
X699100Y692000D02*
Y708500D01*
X719400Y692000D02*
Y707300D01*
X712000Y714700D02*
X719400Y707300D01*
X739400Y692100D02*
Y710000D01*
X733100Y716300D02*
X733100Y716300D01*
X739400Y710000D01*
X741750Y689750D02*
X746500D01*
X739400Y692100D02*
X741750Y689750D01*
X719400Y692000D02*
X721650Y689750D01*
X726500D01*
X701350D02*
X706500D01*
X699100Y692000D02*
X701350Y689750D01*
X680800Y692300D02*
X683350Y689750D01*
X686500D01*
X651750D02*
X656500D01*
X649600Y691900D02*
X651750Y689750D01*
X629600Y692300D02*
X632150Y689750D01*
X636500D01*
X608900Y691800D02*
X611200Y689500D01*
X591100Y690800D02*
X592150Y689750D01*
X596500D01*
X576150Y690250D02*
X578200Y692300D01*
X574000Y690250D02*
X576150D01*
X558050D02*
X559400Y691600D01*
X554000Y690250D02*
X558050D01*
X536850D02*
X539600Y693000D01*
X534000Y690250D02*
X536850D01*
X514000D02*
X517650D01*
X755000Y665000D02*
Y680750D01*
X746750Y682500D02*
Y689500D01*
X747000Y690250D02*
X754000D01*
X735000Y665000D02*
Y680750D01*
X726750Y682500D02*
Y689500D01*
X727000Y690250D02*
X734000D01*
X715000Y665000D02*
Y680750D01*
X706750Y682500D02*
Y689500D01*
X707000Y690250D02*
X714000D01*
X695000Y665000D02*
Y680750D01*
X686750Y682500D02*
Y689500D01*
X687000Y690250D02*
X694000D01*
X665000Y665000D02*
Y680750D01*
X656750Y682500D02*
Y689500D01*
X657000Y690250D02*
X664000D01*
X645000Y665000D02*
Y680750D01*
X636750Y682500D02*
Y689500D01*
X637000Y690250D02*
X644000D01*
X625000Y665000D02*
Y680750D01*
X616750Y682500D02*
Y689500D01*
X617000Y690250D02*
X624000D01*
X605000Y665000D02*
Y680750D01*
X596750Y682500D02*
Y689500D01*
X597000Y690250D02*
X604000D01*
X575000Y665000D02*
Y680750D01*
X566750Y682500D02*
Y689500D01*
X567000Y690250D02*
X574000D01*
X555000Y665000D02*
Y680750D01*
X546750Y682500D02*
Y689500D01*
X547000Y690250D02*
X554000D01*
X535000Y665000D02*
Y680750D01*
X526750Y682500D02*
Y689500D01*
X527000Y690250D02*
X534000D01*
X506500Y689750D02*
X507000Y690250D01*
X514000D01*
X506500Y689750D02*
X506750Y689500D01*
Y682500D02*
Y689500D01*
X515000Y665000D02*
Y680750D01*
X513250Y682500D02*
X515000Y680750D01*
X466200Y538768D02*
X487125Y517843D01*
X467800Y539431D02*
X487788Y519443D01*
X469400Y540093D02*
X488451Y521043D01*
X471000Y540756D02*
X489114Y522643D01*
X472657Y541443D02*
X489800Y524300D01*
X629606Y517843D02*
X639921Y507528D01*
X630269Y519443D02*
X641890Y507822D01*
X630932Y521043D02*
X643858Y508116D01*
X631595Y522643D02*
X645827Y508411D01*
X632200Y524300D02*
X647795Y508705D01*
Y487000D02*
Y508705D01*
X645827Y487000D02*
Y508411D01*
X643858Y487000D02*
Y508116D01*
X641890Y487000D02*
Y507822D01*
X639921Y487000D02*
Y507528D01*
X489800Y524300D02*
X632200D01*
X489114Y522643D02*
X631595D01*
X488451Y521043D02*
X630932D01*
X487788Y519443D02*
X630269D01*
X487125Y517843D02*
X629606D01*
X628857Y516243D02*
X637953Y507147D01*
X486462Y516243D02*
X628857D01*
X464600Y538105D02*
X486462Y516243D01*
X492043Y671838D02*
Y708138D01*
X510463Y726557D01*
X544257D01*
X548100Y730400D01*
Y779600D01*
X616050Y495650D02*
X620236Y491464D01*
Y486798D02*
Y487798D01*
Y491464D01*
X624173Y487798D02*
Y491727D01*
X620800Y495100D02*
X624173Y491727D01*
Y486798D02*
Y487798D01*
Y490027D01*
X625900Y494700D02*
X626142Y494458D01*
Y486798D02*
Y487798D01*
Y490742D01*
Y487798D02*
Y494458D01*
X614287Y495150D02*
X618268Y491170D01*
Y486798D02*
Y487798D01*
Y491170D01*
X610500Y495150D02*
X614287D01*
X607300Y498300D02*
X607350D01*
X610500Y495150D01*
X597500Y501050D02*
X600550D01*
X603100Y498500D01*
Y496100D02*
Y498500D01*
X605650Y493550D02*
X612500D01*
X614331Y491719D01*
X603100Y496100D02*
X605650Y493550D01*
X614331Y486798D02*
Y487798D01*
Y491719D01*
X612362Y487798D02*
Y491425D01*
X611837Y491950D02*
X612362Y491425D01*
X599100Y491950D02*
X611837D01*
X597500Y493550D02*
X599100Y491950D01*
X612362Y486798D02*
Y487798D01*
Y489838D01*
X657638Y499388D02*
X660250Y502000D01*
X657638Y486798D02*
Y487798D01*
Y499388D01*
X659606Y477594D02*
Y487798D01*
Y495106D01*
X662700Y498200D01*
X665550D01*
X663500Y494600D02*
X665200D01*
X661575Y492675D02*
X663500Y494600D01*
X661575Y486798D02*
Y487798D01*
Y492675D01*
X628000Y478300D02*
X628110Y478410D01*
Y487798D01*
X620200Y477500D02*
X622205Y479505D01*
X615300Y478000D02*
X616299Y478999D01*
Y487798D01*
X562000Y793500D02*
X568250D01*
X637953Y487000D02*
Y487798D01*
Y507147D01*
X548100Y779600D02*
X562000Y793500D01*
X593836Y777264D02*
X608150D01*
X576750Y790000D02*
X589250D01*
X591100Y740600D02*
X600205Y749705D01*
X608150D01*
X591100Y690800D02*
Y740600D01*
X608150Y747736D02*
X608900Y746986D01*
X611200Y689500D02*
X616750D01*
X608900Y691800D02*
Y746986D01*
X589250Y781850D02*
Y790000D01*
Y781850D02*
X593836Y777264D01*
X666750Y499400D02*
Y502000D01*
X665550Y498200D02*
X666750Y499400D01*
X629000Y740634D02*
X629016Y740650D01*
X674500Y676700D02*
Y702100D01*
X505750Y817000D02*
X532000D01*
X534000Y815000D01*
X504750Y816000D02*
X505750Y817000D01*
X757700Y790900D02*
Y800400D01*
X767700Y790900D02*
Y800400D01*
X727700Y790900D02*
Y800400D01*
X717700Y790900D02*
Y800400D01*
X737700Y790900D02*
Y800400D01*
X707700Y790900D02*
Y800400D01*
X747700Y790900D02*
Y800400D01*
X697700Y790900D02*
Y800400D01*
X623110Y715290D02*
Y740650D01*
Y715290D02*
X629600Y708800D01*
Y692300D02*
Y708800D01*
X638858Y728642D02*
Y740650D01*
X636890Y728347D02*
Y740650D01*
X634921Y727979D02*
Y740650D01*
X625079Y716421D02*
X631400Y710100D01*
X642100D01*
X649600Y702600D01*
X625079Y716421D02*
Y740650D01*
X649600Y691900D02*
Y702600D01*
X627047Y717353D02*
X632500Y711900D01*
X643800D01*
X627047Y717353D02*
Y740650D01*
X694500Y713100D02*
X699100Y708500D01*
X676100Y711500D02*
X680800Y706800D01*
X629016Y731622D02*
Y740650D01*
X651200Y716300D02*
X733100D01*
X638858Y728642D02*
X651200Y716300D01*
X650537Y714700D02*
X712000D01*
X636890Y728347D02*
X650537Y714700D01*
X649800Y713100D02*
X694500D01*
X634921Y727979D02*
X649800Y713100D01*
X649137Y711500D02*
X676100D01*
X629016Y731622D02*
X649137Y711500D01*
X643800Y711900D02*
X645800Y709900D01*
X666700D01*
X674500Y702100D01*
G54D41*
X12500Y437500D02*
D03*
X867500D02*
D03*
Y862500D02*
D03*
X12500D02*
D03*
X867500Y12500D02*
D03*
X12500D02*
D03*
G54D42*
X278300Y737800D02*
D03*
X668300D02*
D03*
G54D43*
X278300Y747800D02*
D03*
X668300D02*
D03*
G54D44*
X278000Y263000D02*
D03*
X668000D02*
D03*
G54D45*
X132245Y146800D02*
D03*
X85300Y510100D02*
D03*
Y460100D02*
D03*
X65300Y510100D02*
D03*
Y460100D02*
D03*
X316882Y146800D02*
D03*
X409000Y197700D02*
D03*
X378427Y146800D02*
D03*
X347455Y197700D02*
D03*
X285909D02*
D03*
X255336Y146800D02*
D03*
X224364Y197700D02*
D03*
X193791Y146800D02*
D03*
X162818Y197700D02*
D03*
X101273D02*
D03*
X70700Y146800D02*
D03*
X522245D02*
D03*
X475300Y510100D02*
D03*
Y460100D02*
D03*
X455300Y510100D02*
D03*
Y460100D02*
D03*
X706882Y146800D02*
D03*
X799000Y197700D02*
D03*
X768427Y146800D02*
D03*
X737455Y197700D02*
D03*
X675909D02*
D03*
X645336Y146800D02*
D03*
X614364Y197700D02*
D03*
X583791Y146800D02*
D03*
X552818Y197700D02*
D03*
X491273D02*
D03*
X460700Y146800D02*
D03*
G54D46*
X132245Y166800D02*
D03*
Y156800D02*
D03*
X316882Y166800D02*
D03*
Y156800D02*
D03*
X409000Y217700D02*
D03*
Y207700D02*
D03*
X378427Y166800D02*
D03*
Y156800D02*
D03*
X347455Y217700D02*
D03*
Y207700D02*
D03*
X285909Y217700D02*
D03*
Y207700D02*
D03*
X255336Y166800D02*
D03*
Y156800D02*
D03*
X224364Y217700D02*
D03*
Y207700D02*
D03*
X193791Y166800D02*
D03*
Y156800D02*
D03*
X162818Y217700D02*
D03*
Y207700D02*
D03*
X101273Y217700D02*
D03*
Y207700D02*
D03*
X70700Y166800D02*
D03*
Y156800D02*
D03*
X522245Y166800D02*
D03*
Y156800D02*
D03*
X706882Y166800D02*
D03*
Y156800D02*
D03*
X799000Y217700D02*
D03*
Y207700D02*
D03*
X768427Y166800D02*
D03*
Y156800D02*
D03*
X737455Y217700D02*
D03*
Y207700D02*
D03*
X675909Y217700D02*
D03*
Y207700D02*
D03*
X645336Y166800D02*
D03*
Y156800D02*
D03*
X614364Y217700D02*
D03*
Y207700D02*
D03*
X583791Y166800D02*
D03*
Y156800D02*
D03*
X552818Y217700D02*
D03*
Y207700D02*
D03*
X491273Y217700D02*
D03*
Y207700D02*
D03*
X460700Y166800D02*
D03*
Y156800D02*
D03*
G54D47*
X93000Y485100D02*
D03*
X57600D02*
D03*
X483000D02*
D03*
X447600D02*
D03*
G54D48*
X407700Y458700D02*
D03*
X92000Y675500D02*
D03*
X189800Y450500D02*
D03*
Y430500D02*
D03*
X174800Y450500D02*
D03*
Y430500D02*
D03*
X159800Y450500D02*
D03*
Y430500D02*
D03*
X144800Y450500D02*
D03*
Y430500D02*
D03*
X129800Y450500D02*
D03*
Y430500D02*
D03*
X114800Y450500D02*
D03*
Y430500D02*
D03*
X300000Y430000D02*
D03*
Y450000D02*
D03*
X315000Y430000D02*
D03*
Y450000D02*
D03*
X330000Y430000D02*
D03*
Y450000D02*
D03*
X345000Y430000D02*
D03*
Y450000D02*
D03*
X360000D02*
D03*
Y430000D02*
D03*
X375000D02*
D03*
Y450000D02*
D03*
X402200Y483000D02*
D03*
X431400Y493000D02*
D03*
X797700Y458700D02*
D03*
X482000Y675500D02*
D03*
X579800Y450500D02*
D03*
Y430500D02*
D03*
X564800Y450500D02*
D03*
Y430500D02*
D03*
X549800Y450500D02*
D03*
Y430500D02*
D03*
X534800Y450500D02*
D03*
Y430500D02*
D03*
X519800Y450500D02*
D03*
Y430500D02*
D03*
X504800Y450500D02*
D03*
Y430500D02*
D03*
X690000Y430000D02*
D03*
Y450000D02*
D03*
X705000Y430000D02*
D03*
Y450000D02*
D03*
X720000Y430000D02*
D03*
Y450000D02*
D03*
X735000Y430000D02*
D03*
Y450000D02*
D03*
X750000D02*
D03*
Y430000D02*
D03*
X765000D02*
D03*
Y450000D02*
D03*
X792200Y483000D02*
D03*
X821400Y493000D02*
D03*
G54D49*
X417700Y458700D02*
D03*
X82000Y675500D02*
D03*
X807700Y458700D02*
D03*
X472000Y675500D02*
D03*
G54D50*
X414000Y387500D02*
D03*
Y417500D02*
D03*
Y402500D02*
D03*
Y432500D02*
D03*
Y372500D02*
D03*
Y342500D02*
D03*
Y312500D02*
D03*
Y357500D02*
D03*
Y327500D02*
D03*
Y297500D02*
D03*
X76000Y387500D02*
D03*
Y417500D02*
D03*
Y402500D02*
D03*
Y432500D02*
D03*
Y372500D02*
D03*
Y342500D02*
D03*
Y312500D02*
D03*
Y357500D02*
D03*
Y327500D02*
D03*
Y297500D02*
D03*
X804000Y387500D02*
D03*
Y417500D02*
D03*
Y402500D02*
D03*
Y432500D02*
D03*
Y372500D02*
D03*
Y342500D02*
D03*
Y312500D02*
D03*
Y357500D02*
D03*
Y327500D02*
D03*
Y297500D02*
D03*
X466000Y387500D02*
D03*
Y417500D02*
D03*
Y402500D02*
D03*
Y432500D02*
D03*
Y372500D02*
D03*
Y342500D02*
D03*
Y312500D02*
D03*
Y357500D02*
D03*
Y327500D02*
D03*
Y297500D02*
D03*
G54D51*
X80000Y80000D02*
D03*
X410000D02*
D03*
X80000Y795000D02*
D03*
X410000D02*
D03*
X470000Y80000D02*
D03*
X800000D02*
D03*
X470000Y795000D02*
D03*
X800000D02*
D03*
G54D52*
X136732Y88400D02*
D03*
X156417D02*
D03*
X195788D02*
D03*
X215473D02*
D03*
X254843D02*
D03*
X274528D02*
D03*
X176102D02*
D03*
X235158D02*
D03*
X313898D02*
D03*
X353268D02*
D03*
X333583D02*
D03*
X294213D02*
D03*
X526732D02*
D03*
X546417D02*
D03*
X585787D02*
D03*
X605473D02*
D03*
X644843D02*
D03*
X664528D02*
D03*
X566103D02*
D03*
X625158D02*
D03*
X703898D02*
D03*
X743268D02*
D03*
X723583D02*
D03*
X684213D02*
D03*
G54D53*
X120000Y589500D02*
D03*
X110000D02*
D03*
X120000Y559500D02*
D03*
X110000D02*
D03*
X140000D02*
D03*
X130000Y589500D02*
D03*
Y559500D02*
D03*
X170000Y589500D02*
D03*
X160000D02*
D03*
X170000Y559500D02*
D03*
X160000D02*
D03*
X190000D02*
D03*
X180000Y589500D02*
D03*
Y559500D02*
D03*
X220000Y589500D02*
D03*
X210000D02*
D03*
X220000Y559500D02*
D03*
X210000D02*
D03*
X240000D02*
D03*
X230000Y589500D02*
D03*
Y559500D02*
D03*
X270000Y589500D02*
D03*
X260000D02*
D03*
X270000Y559500D02*
D03*
X260000D02*
D03*
X290000D02*
D03*
X280000Y589500D02*
D03*
Y559500D02*
D03*
X320000Y589500D02*
D03*
X310000D02*
D03*
X320000Y559500D02*
D03*
X310000D02*
D03*
X340000D02*
D03*
X330000Y589500D02*
D03*
Y559500D02*
D03*
X370000Y589500D02*
D03*
X360000D02*
D03*
X370000Y559500D02*
D03*
X360000D02*
D03*
X390000D02*
D03*
X380000Y589500D02*
D03*
Y559500D02*
D03*
X185000Y635000D02*
D03*
X155000D02*
D03*
X165000D02*
D03*
X135000D02*
D03*
X125000D02*
D03*
X185000Y665000D02*
D03*
X155000D02*
D03*
X165000D02*
D03*
X125000D02*
D03*
X135000D02*
D03*
X145000Y635000D02*
D03*
X175000D02*
D03*
X145000Y665000D02*
D03*
X175000D02*
D03*
X115000D02*
D03*
X275000Y635000D02*
D03*
X245000D02*
D03*
X255000D02*
D03*
X225000D02*
D03*
X215000D02*
D03*
X275000Y665000D02*
D03*
X245000D02*
D03*
X255000D02*
D03*
X215000D02*
D03*
X225000D02*
D03*
X235000Y635000D02*
D03*
X265000D02*
D03*
X235000Y665000D02*
D03*
X265000D02*
D03*
X205000D02*
D03*
X365000Y635000D02*
D03*
X335000D02*
D03*
X345000D02*
D03*
X315000D02*
D03*
X305000D02*
D03*
X365000Y665000D02*
D03*
X335000D02*
D03*
X345000D02*
D03*
X305000D02*
D03*
X315000D02*
D03*
X325000Y635000D02*
D03*
X355000D02*
D03*
X325000Y665000D02*
D03*
X355000D02*
D03*
X295000D02*
D03*
X510000Y589500D02*
D03*
X500000D02*
D03*
X510000Y559500D02*
D03*
X500000D02*
D03*
X530000D02*
D03*
X520000Y589500D02*
D03*
Y559500D02*
D03*
X560000Y589500D02*
D03*
X550000D02*
D03*
X560000Y559500D02*
D03*
X550000D02*
D03*
X580000D02*
D03*
X570000Y589500D02*
D03*
Y559500D02*
D03*
X610000Y589500D02*
D03*
X600000D02*
D03*
X610000Y559500D02*
D03*
X600000D02*
D03*
X630000D02*
D03*
X620000Y589500D02*
D03*
Y559500D02*
D03*
X660000Y589500D02*
D03*
X650000D02*
D03*
X660000Y559500D02*
D03*
X650000D02*
D03*
X680000D02*
D03*
X670000Y589500D02*
D03*
Y559500D02*
D03*
X710000Y589500D02*
D03*
X700000D02*
D03*
X710000Y559500D02*
D03*
X700000D02*
D03*
X730000D02*
D03*
X720000Y589500D02*
D03*
Y559500D02*
D03*
X760000Y589500D02*
D03*
X750000D02*
D03*
X760000Y559500D02*
D03*
X750000D02*
D03*
X780000D02*
D03*
X770000Y589500D02*
D03*
Y559500D02*
D03*
X575000Y635000D02*
D03*
X545000D02*
D03*
X555000D02*
D03*
X525000D02*
D03*
X515000D02*
D03*
X575000Y665000D02*
D03*
X545000D02*
D03*
X555000D02*
D03*
X515000D02*
D03*
X525000D02*
D03*
X535000Y635000D02*
D03*
X565000D02*
D03*
X535000Y665000D02*
D03*
X565000D02*
D03*
X505000D02*
D03*
X665000Y635000D02*
D03*
X635000D02*
D03*
X645000D02*
D03*
X615000D02*
D03*
X605000D02*
D03*
X665000Y665000D02*
D03*
X635000D02*
D03*
X645000D02*
D03*
X605000D02*
D03*
X615000D02*
D03*
X625000Y635000D02*
D03*
X655000D02*
D03*
X625000Y665000D02*
D03*
X655000D02*
D03*
X595000D02*
D03*
X755000Y635000D02*
D03*
X725000D02*
D03*
X735000D02*
D03*
X705000D02*
D03*
X695000D02*
D03*
X755000Y665000D02*
D03*
X725000D02*
D03*
X735000D02*
D03*
X695000D02*
D03*
X705000D02*
D03*
X715000Y635000D02*
D03*
X745000D02*
D03*
X715000Y665000D02*
D03*
X745000D02*
D03*
X685000D02*
D03*
G54D54*
X140000Y589500D02*
D03*
X190000D02*
D03*
X240000D02*
D03*
X290000D02*
D03*
X340000D02*
D03*
X390000D02*
D03*
X115000Y635000D02*
D03*
X205000D02*
D03*
X295000D02*
D03*
X530000Y589500D02*
D03*
X580000D02*
D03*
X630000D02*
D03*
X680000D02*
D03*
X730000D02*
D03*
X780000D02*
D03*
X505000Y635000D02*
D03*
X595000D02*
D03*
X685000D02*
D03*
G54D55*
X402200Y493000D02*
D03*
X431400Y483000D02*
D03*
X792200Y493000D02*
D03*
X821400Y483000D02*
D03*
G54D56*
X428500Y268400D02*
D03*
X359600Y265700D02*
D03*
X385900Y281400D02*
D03*
X72400Y280900D02*
D03*
X139400Y256800D02*
D03*
X128300Y277400D02*
D03*
X818500Y268400D02*
D03*
X749600Y265700D02*
D03*
X775900Y281400D02*
D03*
X462400Y280900D02*
D03*
X529400Y256800D02*
D03*
X518300Y277400D02*
D03*
G54D57*
X288000Y761600D02*
D03*
X291700Y770400D02*
D03*
X273800D02*
D03*
X285000Y734700D02*
D03*
X218300Y783600D02*
D03*
X253200Y756600D02*
D03*
X102500Y759000D02*
D03*
X108500Y752500D02*
D03*
X275200Y494600D02*
D03*
X263500Y499100D02*
D03*
X265600Y480200D02*
D03*
X272810Y474390D02*
D03*
X244200Y481200D02*
D03*
X260900Y478800D02*
D03*
X235900Y494700D02*
D03*
X230800Y495100D02*
D03*
X208700Y484200D02*
D03*
X219300Y477400D02*
D03*
X169500Y780000D02*
D03*
X172600Y772700D02*
D03*
X177900Y758000D02*
D03*
X163200Y757500D02*
D03*
X177700Y765100D02*
D03*
X166700Y765000D02*
D03*
X179800Y737300D02*
D03*
X248200Y757500D02*
D03*
X252700Y763500D02*
D03*
X243200Y776200D02*
D03*
X229500Y765600D02*
D03*
X208600Y760700D02*
D03*
X226100Y748400D02*
D03*
X240984Y763500D02*
D03*
X238800Y753100D02*
D03*
X235100Y757579D02*
D03*
X236300Y776400D02*
D03*
X192000Y751900D02*
D03*
X226400Y732200D02*
D03*
X221900Y734000D02*
D03*
X76100Y682800D02*
D03*
X278300Y428800D02*
D03*
X230200Y440600D02*
D03*
X377800Y790800D02*
D03*
X367800D02*
D03*
X357800D02*
D03*
X347800D02*
D03*
X337800D02*
D03*
X327800D02*
D03*
X317800D02*
D03*
X307800D02*
D03*
X360000Y705000D02*
D03*
X340000D02*
D03*
X320000D02*
D03*
X300000D02*
D03*
X270000D02*
D03*
X250000D02*
D03*
X230000D02*
D03*
X210000D02*
D03*
X180000D02*
D03*
X160000D02*
D03*
X140000D02*
D03*
X120000D02*
D03*
X238000Y478300D02*
D03*
X230200Y477500D02*
D03*
X225300Y478000D02*
D03*
X244800Y494300D02*
D03*
X170400Y786000D02*
D03*
X206300Y783400D02*
D03*
X284500Y676700D02*
D03*
X396000Y604500D02*
D03*
X236000Y797000D02*
D03*
X241000Y801000D02*
D03*
X144000Y815000D02*
D03*
X293500Y803000D02*
D03*
X272500Y780500D02*
D03*
X247000Y805000D02*
D03*
X261500Y790500D02*
D03*
X229200Y711600D02*
D03*
X135500Y778500D02*
D03*
X150000Y805000D02*
D03*
X149000Y787500D02*
D03*
X148000Y738500D02*
D03*
X678000Y761600D02*
D03*
X681700Y770400D02*
D03*
X663800D02*
D03*
X675000Y734700D02*
D03*
X608300Y783600D02*
D03*
X643200Y756600D02*
D03*
X492500Y759000D02*
D03*
X498500Y752500D02*
D03*
X665200Y494600D02*
D03*
X653500Y499100D02*
D03*
X655600Y480200D02*
D03*
X662810Y474390D02*
D03*
X634200Y481200D02*
D03*
X650900Y478800D02*
D03*
X625900Y494700D02*
D03*
X620800Y495100D02*
D03*
X598700Y484200D02*
D03*
X609300Y477400D02*
D03*
X559500Y780000D02*
D03*
X562600Y772700D02*
D03*
X567900Y758000D02*
D03*
X553200Y757500D02*
D03*
X567700Y765100D02*
D03*
X556700Y765000D02*
D03*
X569800Y737300D02*
D03*
X638200Y757500D02*
D03*
X642700Y763500D02*
D03*
X633200Y776200D02*
D03*
X619500Y765600D02*
D03*
X598600Y760700D02*
D03*
X616100Y748400D02*
D03*
X630984Y763500D02*
D03*
X628800Y753100D02*
D03*
X625100Y757579D02*
D03*
X626300Y776400D02*
D03*
X582000Y751900D02*
D03*
X616400Y732200D02*
D03*
X611900Y734000D02*
D03*
X466100Y682800D02*
D03*
X668300Y428800D02*
D03*
X620200Y440600D02*
D03*
X767800Y790800D02*
D03*
X757800D02*
D03*
X747800D02*
D03*
X737800D02*
D03*
X727800D02*
D03*
X717800D02*
D03*
X707800D02*
D03*
X697800D02*
D03*
X750000Y705000D02*
D03*
X730000D02*
D03*
X710000D02*
D03*
X690000D02*
D03*
X660000D02*
D03*
X640000D02*
D03*
X620000D02*
D03*
X600000D02*
D03*
X570000D02*
D03*
X550000D02*
D03*
X530000D02*
D03*
X510000D02*
D03*
X628000Y478300D02*
D03*
X620200Y477500D02*
D03*
X615300Y478000D02*
D03*
X634800Y494300D02*
D03*
X560400Y786000D02*
D03*
X596300Y783400D02*
D03*
X674500Y676700D02*
D03*
X786000Y604500D02*
D03*
X626000Y797000D02*
D03*
X631000Y801000D02*
D03*
X534000Y815000D02*
D03*
X683500Y803000D02*
D03*
X662500Y780500D02*
D03*
X637000Y805000D02*
D03*
X651500Y790500D02*
D03*
X619200Y711600D02*
D03*
X525500Y778500D02*
D03*
X540000Y805000D02*
D03*
X539000Y787500D02*
D03*
X538000Y738500D02*
D03*
M02*
