%FSLAX25Y25*%
%MOIN*%
G70*
G01*
G75*
G04 Layer_Color=255*
%ADD10C,0.05000*%
%ADD11R,0.06000X0.05500*%
%ADD12R,0.20000X0.07000*%
%ADD13R,0.10000X0.07000*%
%ADD14R,0.07087X0.06299*%
%ADD15R,0.14500X0.05000*%
%ADD16O,0.07087X0.01181*%
%ADD17O,0.01181X0.07087*%
%ADD18R,0.07087X0.08661*%
%ADD19R,0.01181X0.05118*%
%ADD20R,0.05906X0.05118*%
%ADD21R,0.10630X0.07087*%
%ADD22R,0.05118X0.05906*%
%ADD23R,0.06000X0.08500*%
%ADD24R,0.04331X0.03937*%
%ADD25R,0.03937X0.04331*%
%ADD26R,0.06299X0.07087*%
%ADD27R,0.05600X0.03600*%
%ADD28R,0.06000X0.12500*%
%ADD29R,0.12500X0.06000*%
%ADD30R,0.07000X0.08000*%
%ADD31R,0.09000X0.06500*%
%ADD32C,0.10000*%
%ADD33C,0.05000*%
%ADD34C,0.13000*%
%ADD35C,0.08000*%
%ADD36C,0.01000*%
%ADD37C,0.01200*%
%ADD38C,0.02500*%
%ADD39C,0.02000*%
%ADD40C,0.00800*%
%ADD41C,0.12500*%
G04:AMPARAMS|DCode=42|XSize=55mil|YSize=55mil|CornerRadius=13.75mil|HoleSize=0mil|Usage=FLASHONLY|Rotation=180.000|XOffset=0mil|YOffset=0mil|HoleType=Round|Shape=RoundedRectangle|*
%AMROUNDEDRECTD42*
21,1,0.05500,0.02750,0,0,180.0*
21,1,0.02750,0.05500,0,0,180.0*
1,1,0.02750,-0.01375,0.01375*
1,1,0.02750,0.01375,0.01375*
1,1,0.02750,0.01375,-0.01375*
1,1,0.02750,-0.01375,-0.01375*
%
%ADD42ROUNDEDRECTD42*%
%ADD43C,0.05500*%
G04:AMPARAMS|DCode=44|XSize=50mil|YSize=50mil|CornerRadius=12.5mil|HoleSize=0mil|Usage=FLASHONLY|Rotation=180.000|XOffset=0mil|YOffset=0mil|HoleType=Round|Shape=RoundedRectangle|*
%AMROUNDEDRECTD44*
21,1,0.05000,0.02500,0,0,180.0*
21,1,0.02500,0.05000,0,0,180.0*
1,1,0.02500,-0.01250,0.01250*
1,1,0.02500,0.01250,0.01250*
1,1,0.02500,0.01250,-0.01250*
1,1,0.02500,-0.01250,-0.01250*
%
%ADD44ROUNDEDRECTD44*%
G04:AMPARAMS|DCode=45|XSize=60mil|YSize=60mil|CornerRadius=15mil|HoleSize=0mil|Usage=FLASHONLY|Rotation=90.000|XOffset=0mil|YOffset=0mil|HoleType=Round|Shape=RoundedRectangle|*
%AMROUNDEDRECTD45*
21,1,0.06000,0.03000,0,0,90.0*
21,1,0.03000,0.06000,0,0,90.0*
1,1,0.03000,0.01500,0.01500*
1,1,0.03000,0.01500,-0.01500*
1,1,0.03000,-0.01500,-0.01500*
1,1,0.03000,-0.01500,0.01500*
%
%ADD45ROUNDEDRECTD45*%
%ADD46C,0.06000*%
%ADD47C,0.07500*%
%ADD48C,0.06200*%
%ADD49R,0.06200X0.06200*%
%ADD50C,0.10000*%
%ADD51C,0.23400*%
%ADD52O,0.10000X0.12000*%
%ADD53O,0.06000X0.06400*%
%ADD54R,0.06000X0.06400*%
%ADD55R,0.06200X0.06200*%
%ADD56C,0.08000*%
%ADD57C,0.03000*%
%ADD58R,0.25590X0.23622*%
%ADD59R,0.11800X0.06300*%
%ADD60R,0.02500X0.06000*%
%ADD61R,0.06000X0.02500*%
%ADD62R,0.09000X0.10000*%
%ADD63C,0.03000*%
G54D10*
X12500Y840000D02*
D03*
X867500Y35000D02*
D03*
X12500D02*
D03*
X60000Y60000D02*
D03*
X430000D02*
D03*
X60000Y815000D02*
D03*
X430000D02*
D03*
X450000Y60000D02*
D03*
X820000D02*
D03*
X450000Y815000D02*
D03*
X820000D02*
D03*
X268000Y263000D02*
D03*
X248000D02*
D03*
X238000D02*
D03*
X228000D02*
D03*
X658000D02*
D03*
X638000D02*
D03*
X628000D02*
D03*
X618000D02*
D03*
G54D14*
X211000Y471500D02*
D03*
Y460500D02*
D03*
X228000Y471000D02*
D03*
Y460000D02*
D03*
X237000Y471000D02*
D03*
Y460000D02*
D03*
X265500Y470500D02*
D03*
Y459500D02*
D03*
X255000Y470500D02*
D03*
Y459500D02*
D03*
X279000Y449000D02*
D03*
Y438000D02*
D03*
X92000Y686000D02*
D03*
Y697000D02*
D03*
X355000Y692500D02*
D03*
Y681500D02*
D03*
X135500Y62900D02*
D03*
Y73900D02*
D03*
X155500Y62900D02*
D03*
Y73900D02*
D03*
X175500Y62900D02*
D03*
Y73900D02*
D03*
X195500Y62900D02*
D03*
Y73900D02*
D03*
X275500Y62900D02*
D03*
Y73900D02*
D03*
X255500Y62900D02*
D03*
Y73900D02*
D03*
X235500Y62900D02*
D03*
Y73900D02*
D03*
X215500Y62900D02*
D03*
Y73900D02*
D03*
X295500Y62900D02*
D03*
Y73900D02*
D03*
X315500Y62900D02*
D03*
Y73900D02*
D03*
X335500Y62900D02*
D03*
Y73900D02*
D03*
X355500Y62900D02*
D03*
Y73900D02*
D03*
X75000Y642000D02*
D03*
Y653000D02*
D03*
X601000Y471500D02*
D03*
Y460500D02*
D03*
X618000Y471000D02*
D03*
Y460000D02*
D03*
X627000Y471000D02*
D03*
Y460000D02*
D03*
X655500Y470500D02*
D03*
Y459500D02*
D03*
X645000Y470500D02*
D03*
Y459500D02*
D03*
X669000Y449000D02*
D03*
Y438000D02*
D03*
X482000Y686000D02*
D03*
Y697000D02*
D03*
X745000Y692500D02*
D03*
Y681500D02*
D03*
X525500Y62900D02*
D03*
Y73900D02*
D03*
X545500Y62900D02*
D03*
Y73900D02*
D03*
X565500Y62900D02*
D03*
Y73900D02*
D03*
X585500Y62900D02*
D03*
Y73900D02*
D03*
X665500Y62900D02*
D03*
Y73900D02*
D03*
X645500Y62900D02*
D03*
Y73900D02*
D03*
X625500Y62900D02*
D03*
Y73900D02*
D03*
X605500Y62900D02*
D03*
Y73900D02*
D03*
X685500Y62900D02*
D03*
Y73900D02*
D03*
X705500Y62900D02*
D03*
Y73900D02*
D03*
X725500Y62900D02*
D03*
Y73900D02*
D03*
X745500Y62900D02*
D03*
Y73900D02*
D03*
X465000Y642000D02*
D03*
Y653000D02*
D03*
G54D20*
X424000Y563250D02*
D03*
Y555750D02*
D03*
X414000Y563250D02*
D03*
Y555750D02*
D03*
X219500Y467250D02*
D03*
Y459750D02*
D03*
X401500Y507750D02*
D03*
Y515250D02*
D03*
X428000Y620250D02*
D03*
Y612750D02*
D03*
X417000Y620250D02*
D03*
Y612750D02*
D03*
X814000Y563250D02*
D03*
Y555750D02*
D03*
X804000Y563250D02*
D03*
Y555750D02*
D03*
X609500Y467250D02*
D03*
Y459750D02*
D03*
X791500Y507750D02*
D03*
Y515250D02*
D03*
X818000Y620250D02*
D03*
Y612750D02*
D03*
X807000Y620250D02*
D03*
Y612750D02*
D03*
G54D22*
X255550Y750100D02*
D03*
X248050D02*
D03*
X82050Y473600D02*
D03*
X74550D02*
D03*
X249250Y487000D02*
D03*
X256750D02*
D03*
X224750Y801500D02*
D03*
X217250D02*
D03*
X645550Y750100D02*
D03*
X638050D02*
D03*
X472050Y473600D02*
D03*
X464550D02*
D03*
X639250Y487000D02*
D03*
X646750D02*
D03*
X614750Y801500D02*
D03*
X607250D02*
D03*
G54D24*
X248750Y499000D02*
D03*
X255250D02*
D03*
X155750Y757500D02*
D03*
X149250D02*
D03*
X155750Y765000D02*
D03*
X149250D02*
D03*
X155750Y780000D02*
D03*
X149250D02*
D03*
X155750Y772500D02*
D03*
X149250D02*
D03*
X232750Y746000D02*
D03*
X239250D02*
D03*
X217250Y760500D02*
D03*
X223750D02*
D03*
X236250Y784000D02*
D03*
X242750D02*
D03*
X260750Y373500D02*
D03*
X267250D02*
D03*
X638750Y499000D02*
D03*
X645250D02*
D03*
X545750Y757500D02*
D03*
X539250D02*
D03*
X545750Y765000D02*
D03*
X539250D02*
D03*
X545750Y780000D02*
D03*
X539250D02*
D03*
X545750Y772500D02*
D03*
X539250D02*
D03*
X622750Y746000D02*
D03*
X629250D02*
D03*
X607250Y760500D02*
D03*
X613750D02*
D03*
X626250Y784000D02*
D03*
X632750D02*
D03*
X650750Y373500D02*
D03*
X657250D02*
D03*
G54D25*
X274500Y461750D02*
D03*
Y468250D02*
D03*
X217000Y440250D02*
D03*
Y433750D02*
D03*
X337900Y799750D02*
D03*
Y806250D02*
D03*
X327900Y799750D02*
D03*
Y806250D02*
D03*
X317900Y799750D02*
D03*
Y806250D02*
D03*
X307900Y799750D02*
D03*
Y806250D02*
D03*
X377900Y799750D02*
D03*
Y806250D02*
D03*
X367900Y799750D02*
D03*
Y806250D02*
D03*
X357900Y799750D02*
D03*
Y806250D02*
D03*
X347900Y799750D02*
D03*
Y806250D02*
D03*
X179500Y731750D02*
D03*
Y725250D02*
D03*
X263500Y487250D02*
D03*
Y493750D02*
D03*
X268000Y757250D02*
D03*
Y763750D02*
D03*
X94000Y750750D02*
D03*
Y744250D02*
D03*
X664500Y461750D02*
D03*
Y468250D02*
D03*
X607000Y440250D02*
D03*
Y433750D02*
D03*
X727900Y799750D02*
D03*
Y806250D02*
D03*
X717900Y799750D02*
D03*
Y806250D02*
D03*
X707900Y799750D02*
D03*
Y806250D02*
D03*
X697900Y799750D02*
D03*
Y806250D02*
D03*
X767900Y799750D02*
D03*
Y806250D02*
D03*
X757900Y799750D02*
D03*
Y806250D02*
D03*
X747900Y799750D02*
D03*
Y806250D02*
D03*
X737900Y799750D02*
D03*
Y806250D02*
D03*
X569500Y731750D02*
D03*
Y725250D02*
D03*
X653500Y487250D02*
D03*
Y493750D02*
D03*
X658000Y757250D02*
D03*
Y763750D02*
D03*
X484000Y750750D02*
D03*
Y744250D02*
D03*
G54D26*
X231000Y488000D02*
D03*
X220000D02*
D03*
X621000D02*
D03*
X610000D02*
D03*
G54D27*
X269250Y354500D02*
D03*
X260750Y358000D02*
D03*
X269250Y361500D02*
D03*
X659250Y354500D02*
D03*
X650750Y358000D02*
D03*
X659250Y361500D02*
D03*
G54D28*
X327500Y754750D02*
D03*
Y775250D02*
D03*
X717500Y754750D02*
D03*
Y775250D02*
D03*
G54D41*
X12500Y437500D02*
D03*
X867500D02*
D03*
Y862500D02*
D03*
X12500D02*
D03*
X867500Y12500D02*
D03*
X12500D02*
D03*
G54D42*
X278300Y737800D02*
D03*
X668300D02*
D03*
G54D43*
X278300Y747800D02*
D03*
X668300D02*
D03*
G54D44*
X278000Y263000D02*
D03*
X668000D02*
D03*
G54D45*
X132245Y146800D02*
D03*
X85300Y510100D02*
D03*
Y460100D02*
D03*
X65300Y510100D02*
D03*
Y460100D02*
D03*
X316882Y146800D02*
D03*
X409000Y197700D02*
D03*
X378427Y146800D02*
D03*
X347455Y197700D02*
D03*
X285909D02*
D03*
X255336Y146800D02*
D03*
X224364Y197700D02*
D03*
X193791Y146800D02*
D03*
X162818Y197700D02*
D03*
X101273D02*
D03*
X70700Y146800D02*
D03*
X522245D02*
D03*
X475300Y510100D02*
D03*
Y460100D02*
D03*
X455300Y510100D02*
D03*
Y460100D02*
D03*
X706882Y146800D02*
D03*
X799000Y197700D02*
D03*
X768427Y146800D02*
D03*
X737455Y197700D02*
D03*
X675909D02*
D03*
X645336Y146800D02*
D03*
X614364Y197700D02*
D03*
X583791Y146800D02*
D03*
X552818Y197700D02*
D03*
X491273D02*
D03*
X460700Y146800D02*
D03*
G54D46*
X132245Y166800D02*
D03*
Y156800D02*
D03*
X316882Y166800D02*
D03*
Y156800D02*
D03*
X409000Y217700D02*
D03*
Y207700D02*
D03*
X378427Y166800D02*
D03*
Y156800D02*
D03*
X347455Y217700D02*
D03*
Y207700D02*
D03*
X285909Y217700D02*
D03*
Y207700D02*
D03*
X255336Y166800D02*
D03*
Y156800D02*
D03*
X224364Y217700D02*
D03*
Y207700D02*
D03*
X193791Y166800D02*
D03*
Y156800D02*
D03*
X162818Y217700D02*
D03*
Y207700D02*
D03*
X101273Y217700D02*
D03*
Y207700D02*
D03*
X70700Y166800D02*
D03*
Y156800D02*
D03*
X522245Y166800D02*
D03*
Y156800D02*
D03*
X706882Y166800D02*
D03*
Y156800D02*
D03*
X799000Y217700D02*
D03*
Y207700D02*
D03*
X768427Y166800D02*
D03*
Y156800D02*
D03*
X737455Y217700D02*
D03*
Y207700D02*
D03*
X675909Y217700D02*
D03*
Y207700D02*
D03*
X645336Y166800D02*
D03*
Y156800D02*
D03*
X614364Y217700D02*
D03*
Y207700D02*
D03*
X583791Y166800D02*
D03*
Y156800D02*
D03*
X552818Y217700D02*
D03*
Y207700D02*
D03*
X491273Y217700D02*
D03*
Y207700D02*
D03*
X460700Y166800D02*
D03*
Y156800D02*
D03*
G54D47*
X93000Y485100D02*
D03*
X57600D02*
D03*
X483000D02*
D03*
X447600D02*
D03*
G54D48*
X407700Y458700D02*
D03*
X92000Y675500D02*
D03*
X189800Y450500D02*
D03*
Y430500D02*
D03*
X174800Y450500D02*
D03*
Y430500D02*
D03*
X159800Y450500D02*
D03*
Y430500D02*
D03*
X144800Y450500D02*
D03*
Y430500D02*
D03*
X129800Y450500D02*
D03*
Y430500D02*
D03*
X114800Y450500D02*
D03*
Y430500D02*
D03*
X300000Y430000D02*
D03*
Y450000D02*
D03*
X315000Y430000D02*
D03*
Y450000D02*
D03*
X330000Y430000D02*
D03*
Y450000D02*
D03*
X345000Y430000D02*
D03*
Y450000D02*
D03*
X360000D02*
D03*
Y430000D02*
D03*
X375000D02*
D03*
Y450000D02*
D03*
X402200Y483000D02*
D03*
X431400Y493000D02*
D03*
X797700Y458700D02*
D03*
X482000Y675500D02*
D03*
X579800Y450500D02*
D03*
Y430500D02*
D03*
X564800Y450500D02*
D03*
Y430500D02*
D03*
X549800Y450500D02*
D03*
Y430500D02*
D03*
X534800Y450500D02*
D03*
Y430500D02*
D03*
X519800Y450500D02*
D03*
Y430500D02*
D03*
X504800Y450500D02*
D03*
Y430500D02*
D03*
X690000Y430000D02*
D03*
Y450000D02*
D03*
X705000Y430000D02*
D03*
Y450000D02*
D03*
X720000Y430000D02*
D03*
Y450000D02*
D03*
X735000Y430000D02*
D03*
Y450000D02*
D03*
X750000D02*
D03*
Y430000D02*
D03*
X765000D02*
D03*
Y450000D02*
D03*
X792200Y483000D02*
D03*
X821400Y493000D02*
D03*
G54D49*
X417700Y458700D02*
D03*
X82000Y675500D02*
D03*
X807700Y458700D02*
D03*
X472000Y675500D02*
D03*
G54D50*
X414000Y387500D02*
D03*
Y417500D02*
D03*
Y402500D02*
D03*
Y432500D02*
D03*
Y372500D02*
D03*
Y342500D02*
D03*
Y312500D02*
D03*
Y357500D02*
D03*
Y327500D02*
D03*
Y297500D02*
D03*
X76000Y387500D02*
D03*
Y417500D02*
D03*
Y402500D02*
D03*
Y432500D02*
D03*
Y372500D02*
D03*
Y342500D02*
D03*
Y312500D02*
D03*
Y357500D02*
D03*
Y327500D02*
D03*
Y297500D02*
D03*
X804000Y387500D02*
D03*
Y417500D02*
D03*
Y402500D02*
D03*
Y432500D02*
D03*
Y372500D02*
D03*
Y342500D02*
D03*
Y312500D02*
D03*
Y357500D02*
D03*
Y327500D02*
D03*
Y297500D02*
D03*
X466000Y387500D02*
D03*
Y417500D02*
D03*
Y402500D02*
D03*
Y432500D02*
D03*
Y372500D02*
D03*
Y342500D02*
D03*
Y312500D02*
D03*
Y357500D02*
D03*
Y327500D02*
D03*
Y297500D02*
D03*
G54D51*
X80000Y80000D02*
D03*
X410000D02*
D03*
X80000Y795000D02*
D03*
X410000D02*
D03*
X470000Y80000D02*
D03*
X800000D02*
D03*
X470000Y795000D02*
D03*
X800000D02*
D03*
G54D52*
X136732Y88400D02*
D03*
X156417D02*
D03*
X195788D02*
D03*
X215473D02*
D03*
X254843D02*
D03*
X274528D02*
D03*
X176102D02*
D03*
X235158D02*
D03*
X313898D02*
D03*
X353268D02*
D03*
X333583D02*
D03*
X294213D02*
D03*
X526732D02*
D03*
X546417D02*
D03*
X585787D02*
D03*
X605473D02*
D03*
X644843D02*
D03*
X664528D02*
D03*
X566103D02*
D03*
X625158D02*
D03*
X703898D02*
D03*
X743268D02*
D03*
X723583D02*
D03*
X684213D02*
D03*
G54D53*
X120000Y589500D02*
D03*
X110000D02*
D03*
X120000Y559500D02*
D03*
X110000D02*
D03*
X140000D02*
D03*
X130000Y589500D02*
D03*
Y559500D02*
D03*
X170000Y589500D02*
D03*
X160000D02*
D03*
X170000Y559500D02*
D03*
X160000D02*
D03*
X190000D02*
D03*
X180000Y589500D02*
D03*
Y559500D02*
D03*
X220000Y589500D02*
D03*
X210000D02*
D03*
X220000Y559500D02*
D03*
X210000D02*
D03*
X240000D02*
D03*
X230000Y589500D02*
D03*
Y559500D02*
D03*
X270000Y589500D02*
D03*
X260000D02*
D03*
X270000Y559500D02*
D03*
X260000D02*
D03*
X290000D02*
D03*
X280000Y589500D02*
D03*
Y559500D02*
D03*
X320000Y589500D02*
D03*
X310000D02*
D03*
X320000Y559500D02*
D03*
X310000D02*
D03*
X340000D02*
D03*
X330000Y589500D02*
D03*
Y559500D02*
D03*
X370000Y589500D02*
D03*
X360000D02*
D03*
X370000Y559500D02*
D03*
X360000D02*
D03*
X390000D02*
D03*
X380000Y589500D02*
D03*
Y559500D02*
D03*
X185000Y635000D02*
D03*
X155000D02*
D03*
X165000D02*
D03*
X135000D02*
D03*
X125000D02*
D03*
X185000Y665000D02*
D03*
X155000D02*
D03*
X165000D02*
D03*
X125000D02*
D03*
X135000D02*
D03*
X145000Y635000D02*
D03*
X175000D02*
D03*
X145000Y665000D02*
D03*
X175000D02*
D03*
X115000D02*
D03*
X275000Y635000D02*
D03*
X245000D02*
D03*
X255000D02*
D03*
X225000D02*
D03*
X215000D02*
D03*
X275000Y665000D02*
D03*
X245000D02*
D03*
X255000D02*
D03*
X215000D02*
D03*
X225000D02*
D03*
X235000Y635000D02*
D03*
X265000D02*
D03*
X235000Y665000D02*
D03*
X265000D02*
D03*
X205000D02*
D03*
X365000Y635000D02*
D03*
X335000D02*
D03*
X345000D02*
D03*
X315000D02*
D03*
X305000D02*
D03*
X365000Y665000D02*
D03*
X335000D02*
D03*
X345000D02*
D03*
X305000D02*
D03*
X315000D02*
D03*
X325000Y635000D02*
D03*
X355000D02*
D03*
X325000Y665000D02*
D03*
X355000D02*
D03*
X295000D02*
D03*
X510000Y589500D02*
D03*
X500000D02*
D03*
X510000Y559500D02*
D03*
X500000D02*
D03*
X530000D02*
D03*
X520000Y589500D02*
D03*
Y559500D02*
D03*
X560000Y589500D02*
D03*
X550000D02*
D03*
X560000Y559500D02*
D03*
X550000D02*
D03*
X580000D02*
D03*
X570000Y589500D02*
D03*
Y559500D02*
D03*
X610000Y589500D02*
D03*
X600000D02*
D03*
X610000Y559500D02*
D03*
X600000D02*
D03*
X630000D02*
D03*
X620000Y589500D02*
D03*
Y559500D02*
D03*
X660000Y589500D02*
D03*
X650000D02*
D03*
X660000Y559500D02*
D03*
X650000D02*
D03*
X680000D02*
D03*
X670000Y589500D02*
D03*
Y559500D02*
D03*
X710000Y589500D02*
D03*
X700000D02*
D03*
X710000Y559500D02*
D03*
X700000D02*
D03*
X730000D02*
D03*
X720000Y589500D02*
D03*
Y559500D02*
D03*
X760000Y589500D02*
D03*
X750000D02*
D03*
X760000Y559500D02*
D03*
X750000D02*
D03*
X780000D02*
D03*
X770000Y589500D02*
D03*
Y559500D02*
D03*
X575000Y635000D02*
D03*
X545000D02*
D03*
X555000D02*
D03*
X525000D02*
D03*
X515000D02*
D03*
X575000Y665000D02*
D03*
X545000D02*
D03*
X555000D02*
D03*
X515000D02*
D03*
X525000D02*
D03*
X535000Y635000D02*
D03*
X565000D02*
D03*
X535000Y665000D02*
D03*
X565000D02*
D03*
X505000D02*
D03*
X665000Y635000D02*
D03*
X635000D02*
D03*
X645000D02*
D03*
X615000D02*
D03*
X605000D02*
D03*
X665000Y665000D02*
D03*
X635000D02*
D03*
X645000D02*
D03*
X605000D02*
D03*
X615000D02*
D03*
X625000Y635000D02*
D03*
X655000D02*
D03*
X625000Y665000D02*
D03*
X655000D02*
D03*
X595000D02*
D03*
X755000Y635000D02*
D03*
X725000D02*
D03*
X735000D02*
D03*
X705000D02*
D03*
X695000D02*
D03*
X755000Y665000D02*
D03*
X725000D02*
D03*
X735000D02*
D03*
X695000D02*
D03*
X705000D02*
D03*
X715000Y635000D02*
D03*
X745000D02*
D03*
X715000Y665000D02*
D03*
X745000D02*
D03*
X685000D02*
D03*
G54D54*
X140000Y589500D02*
D03*
X190000D02*
D03*
X240000D02*
D03*
X290000D02*
D03*
X340000D02*
D03*
X390000D02*
D03*
X115000Y635000D02*
D03*
X205000D02*
D03*
X295000D02*
D03*
X530000Y589500D02*
D03*
X580000D02*
D03*
X630000D02*
D03*
X680000D02*
D03*
X730000D02*
D03*
X780000D02*
D03*
X505000Y635000D02*
D03*
X595000D02*
D03*
X685000D02*
D03*
G54D55*
X402200Y493000D02*
D03*
X431400Y483000D02*
D03*
X792200Y493000D02*
D03*
X821400Y483000D02*
D03*
G54D58*
X254803Y440000D02*
D03*
X644803D02*
D03*
G54D59*
X230197Y430945D02*
D03*
Y449055D02*
D03*
X620197Y430945D02*
D03*
Y449055D02*
D03*
G54D60*
X410500Y518250D02*
D03*
Y539750D02*
D03*
X420500Y518250D02*
D03*
X415500D02*
D03*
X425500D02*
D03*
X420500Y539750D02*
D03*
X415500D02*
D03*
X425500D02*
D03*
X800500Y518250D02*
D03*
Y539750D02*
D03*
X810500Y518250D02*
D03*
X805500D02*
D03*
X815500D02*
D03*
X810500Y539750D02*
D03*
X805500D02*
D03*
X815500D02*
D03*
G54D61*
X63250Y757500D02*
D03*
X84750D02*
D03*
X63250Y747500D02*
D03*
Y752500D02*
D03*
Y742500D02*
D03*
X84750Y747500D02*
D03*
Y752500D02*
D03*
Y742500D02*
D03*
X453250Y757500D02*
D03*
X474750D02*
D03*
X453250Y747500D02*
D03*
Y752500D02*
D03*
Y742500D02*
D03*
X474750Y747500D02*
D03*
Y752500D02*
D03*
Y742500D02*
D03*
G54D62*
X361000Y750000D02*
D03*
Y733000D02*
D03*
X415000D02*
D03*
Y750000D02*
D03*
X751000D02*
D03*
Y733000D02*
D03*
X805000D02*
D03*
Y750000D02*
D03*
M02*
