%FSLAX25Y25*%
%MOIN*%
G70*
G01*
G75*
G04 Layer_Color=2752767*
%ADD10C,0.05000*%
%ADD11R,0.06000X0.05500*%
%ADD12R,0.20000X0.07000*%
%ADD13R,0.10000X0.07000*%
%ADD14R,0.07087X0.06299*%
%ADD15R,0.14500X0.05000*%
%ADD16O,0.07087X0.01181*%
%ADD17O,0.01181X0.07087*%
%ADD18R,0.07087X0.08661*%
%ADD19R,0.01181X0.05118*%
%ADD20R,0.05906X0.05118*%
%ADD21R,0.10630X0.07087*%
%ADD22R,0.05118X0.05906*%
%ADD23R,0.06000X0.08500*%
%ADD24R,0.04331X0.03937*%
%ADD25R,0.03937X0.04331*%
%ADD26R,0.06299X0.07087*%
%ADD27R,0.05600X0.03600*%
%ADD28R,0.06000X0.12500*%
%ADD29R,0.12500X0.06000*%
%ADD30R,0.07000X0.08000*%
%ADD31R,0.09000X0.06500*%
%ADD32C,0.10000*%
%ADD33C,0.05000*%
%ADD34C,0.13000*%
%ADD35C,0.08000*%
%ADD36C,0.01000*%
%ADD37C,0.01200*%
%ADD38C,0.02500*%
%ADD39C,0.02000*%
%ADD40C,0.00800*%
%ADD41C,0.12500*%
G04:AMPARAMS|DCode=42|XSize=55mil|YSize=55mil|CornerRadius=13.75mil|HoleSize=0mil|Usage=FLASHONLY|Rotation=180.000|XOffset=0mil|YOffset=0mil|HoleType=Round|Shape=RoundedRectangle|*
%AMROUNDEDRECTD42*
21,1,0.05500,0.02750,0,0,180.0*
21,1,0.02750,0.05500,0,0,180.0*
1,1,0.02750,-0.01375,0.01375*
1,1,0.02750,0.01375,0.01375*
1,1,0.02750,0.01375,-0.01375*
1,1,0.02750,-0.01375,-0.01375*
%
%ADD42ROUNDEDRECTD42*%
%ADD43C,0.05500*%
G04:AMPARAMS|DCode=44|XSize=50mil|YSize=50mil|CornerRadius=12.5mil|HoleSize=0mil|Usage=FLASHONLY|Rotation=180.000|XOffset=0mil|YOffset=0mil|HoleType=Round|Shape=RoundedRectangle|*
%AMROUNDEDRECTD44*
21,1,0.05000,0.02500,0,0,180.0*
21,1,0.02500,0.05000,0,0,180.0*
1,1,0.02500,-0.01250,0.01250*
1,1,0.02500,0.01250,0.01250*
1,1,0.02500,0.01250,-0.01250*
1,1,0.02500,-0.01250,-0.01250*
%
%ADD44ROUNDEDRECTD44*%
G04:AMPARAMS|DCode=45|XSize=60mil|YSize=60mil|CornerRadius=15mil|HoleSize=0mil|Usage=FLASHONLY|Rotation=90.000|XOffset=0mil|YOffset=0mil|HoleType=Round|Shape=RoundedRectangle|*
%AMROUNDEDRECTD45*
21,1,0.06000,0.03000,0,0,90.0*
21,1,0.03000,0.06000,0,0,90.0*
1,1,0.03000,0.01500,0.01500*
1,1,0.03000,0.01500,-0.01500*
1,1,0.03000,-0.01500,-0.01500*
1,1,0.03000,-0.01500,0.01500*
%
%ADD45ROUNDEDRECTD45*%
%ADD46C,0.06000*%
%ADD47C,0.07500*%
%ADD48C,0.06200*%
%ADD49R,0.06200X0.06200*%
%ADD50C,0.10000*%
%ADD51C,0.23400*%
%ADD52O,0.10000X0.12000*%
%ADD53O,0.06000X0.06400*%
%ADD54R,0.06000X0.06400*%
%ADD55R,0.06200X0.06200*%
%ADD56C,0.08000*%
%ADD57C,0.03000*%
%ADD58R,0.25590X0.23622*%
%ADD59R,0.11800X0.06300*%
%ADD60R,0.02500X0.06000*%
%ADD61R,0.06000X0.02500*%
%ADD62R,0.09000X0.10000*%
%ADD63C,0.03000*%
%ADD64C,0.00984*%
%ADD65C,0.02362*%
%ADD66C,0.01600*%
%ADD67C,0.00787*%
%ADD68C,0.00699*%
%ADD69C,0.01500*%
%ADD70C,0.00500*%
%ADD71R,0.19000X0.55500*%
G04:AMPARAMS|DCode=72|XSize=51.06mil|YSize=51.06mil|CornerRadius=12.77mil|HoleSize=0mil|Usage=FLASHONLY|Rotation=0.000|XOffset=0mil|YOffset=0mil|HoleType=Round|Shape=RoundedRectangle|*
%AMROUNDEDRECTD72*
21,1,0.05106,0.02553,0,0,0.0*
21,1,0.02553,0.05106,0,0,0.0*
1,1,0.02553,0.01277,-0.01277*
1,1,0.02553,-0.01277,-0.01277*
1,1,0.02553,-0.01277,0.01277*
1,1,0.02553,0.01277,0.01277*
%
%ADD72ROUNDEDRECTD72*%
%ADD73C,0.05106*%
%ADD74P,0.09051X4X270.0*%
%ADD75R,0.06000X0.06000*%
%ADD76O,0.10200X0.12200*%
%ADD77P,0.09051X4X360.0*%
%ADD78R,0.06890X0.08465*%
%ADD79R,0.06800X0.06300*%
%ADD80R,0.20800X0.07800*%
%ADD81R,0.10800X0.07800*%
%ADD82R,0.07887X0.07099*%
%ADD83R,0.15300X0.05800*%
%ADD84O,0.07387X0.01481*%
%ADD85O,0.01481X0.07387*%
%ADD86R,0.07874X0.09449*%
%ADD87R,0.01481X0.05418*%
%ADD88R,0.06706X0.05918*%
%ADD89R,0.11430X0.07887*%
%ADD90R,0.05918X0.06706*%
%ADD91R,0.06800X0.09300*%
%ADD92R,0.05131X0.04737*%
%ADD93R,0.04737X0.05131*%
%ADD94R,0.07099X0.07887*%
%ADD95R,0.06400X0.04400*%
%ADD96R,0.06800X0.13300*%
%ADD97R,0.13300X0.06800*%
%ADD98R,0.07800X0.08800*%
%ADD99R,0.09800X0.07300*%
%ADD100C,0.13300*%
G04:AMPARAMS|DCode=101|XSize=63mil|YSize=63mil|CornerRadius=17.75mil|HoleSize=0mil|Usage=FLASHONLY|Rotation=180.000|XOffset=0mil|YOffset=0mil|HoleType=Round|Shape=RoundedRectangle|*
%AMROUNDEDRECTD101*
21,1,0.06300,0.02750,0,0,180.0*
21,1,0.02750,0.06300,0,0,180.0*
1,1,0.03550,-0.01375,0.01375*
1,1,0.03550,0.01375,0.01375*
1,1,0.03550,0.01375,-0.01375*
1,1,0.03550,-0.01375,-0.01375*
%
%ADD101ROUNDEDRECTD101*%
%ADD102C,0.06300*%
%ADD103C,0.05800*%
G04:AMPARAMS|DCode=104|XSize=58mil|YSize=58mil|CornerRadius=16.5mil|HoleSize=0mil|Usage=FLASHONLY|Rotation=180.000|XOffset=0mil|YOffset=0mil|HoleType=Round|Shape=RoundedRectangle|*
%AMROUNDEDRECTD104*
21,1,0.05800,0.02500,0,0,180.0*
21,1,0.02500,0.05800,0,0,180.0*
1,1,0.03300,-0.01250,0.01250*
1,1,0.03300,0.01250,0.01250*
1,1,0.03300,0.01250,-0.01250*
1,1,0.03300,-0.01250,-0.01250*
%
%ADD104ROUNDEDRECTD104*%
G04:AMPARAMS|DCode=105|XSize=68mil|YSize=68mil|CornerRadius=19mil|HoleSize=0mil|Usage=FLASHONLY|Rotation=90.000|XOffset=0mil|YOffset=0mil|HoleType=Round|Shape=RoundedRectangle|*
%AMROUNDEDRECTD105*
21,1,0.06800,0.03000,0,0,90.0*
21,1,0.03000,0.06800,0,0,90.0*
1,1,0.03800,0.01500,0.01500*
1,1,0.03800,0.01500,-0.01500*
1,1,0.03800,-0.01500,-0.01500*
1,1,0.03800,-0.01500,0.01500*
%
%ADD105ROUNDEDRECTD105*%
%ADD106C,0.06800*%
%ADD107C,0.08300*%
%ADD108C,0.07000*%
%ADD109R,0.07000X0.07000*%
%ADD110C,0.10800*%
%ADD111C,0.24200*%
%ADD112O,0.10800X0.12800*%
%ADD113O,0.06800X0.07200*%
%ADD114R,0.06800X0.07200*%
%ADD115R,0.07000X0.07000*%
%ADD116R,0.26391X0.24422*%
%ADD117R,0.12600X0.07100*%
%ADD118R,0.03300X0.06800*%
%ADD119R,0.06800X0.03300*%
%ADD120R,0.09800X0.10800*%
%ADD121C,0.00600*%
%ADD122C,0.00100*%
%ADD123C,0.00667*%
%ADD124C,0.00400*%
%ADD125C,0.00467*%
G54D36*
X1090888Y292000D02*
X1092887D01*
X1091887D01*
Y297998D01*
X1090888Y296998D01*
X1099885Y297998D02*
X1097885Y296998D01*
X1095886Y294999D01*
Y293000D01*
X1096886Y292000D01*
X1098885D01*
X1099885Y293000D01*
Y293999D01*
X1098885Y294999D01*
X1095886D01*
X1105883Y292000D02*
X1101884D01*
X1105883Y295999D01*
Y296998D01*
X1104883Y297998D01*
X1102884D01*
X1101884Y296998D01*
X1160469Y292000D02*
X1162468D01*
X1161469D01*
Y297998D01*
X1160469Y296998D01*
X1169466Y297998D02*
X1165467D01*
Y294999D01*
X1167467Y295999D01*
X1168466D01*
X1169466Y294999D01*
Y293000D01*
X1168466Y292000D01*
X1166467D01*
X1165467Y293000D01*
X1171465Y292000D02*
Y295999D01*
X1172465D01*
X1173465Y294999D01*
Y292000D01*
Y294999D01*
X1174464Y295999D01*
X1175464Y294999D01*
Y292000D01*
X1177463D02*
X1179463D01*
X1178463D01*
Y295999D01*
X1177463D01*
X1182462Y292000D02*
X1184461D01*
X1183461D01*
Y297998D01*
X1182462D01*
X1195458Y292000D02*
X1193458Y293999D01*
Y295999D01*
X1195458Y297998D01*
X1198457Y296998D02*
X1199456Y297998D01*
X1201456D01*
X1202455Y296998D01*
Y293000D01*
X1201456Y292000D01*
X1199456D01*
X1198457Y293000D01*
Y296998D01*
X1204455Y292000D02*
Y293000D01*
X1205454D01*
Y292000D01*
X1204455D01*
X1209453Y296998D02*
X1210453Y297998D01*
X1212452D01*
X1213452Y296998D01*
Y295999D01*
X1212452Y294999D01*
X1211452D01*
X1212452D01*
X1213452Y293999D01*
Y293000D01*
X1212452Y292000D01*
X1210453D01*
X1209453Y293000D01*
X1215451Y296998D02*
X1216451Y297998D01*
X1218450D01*
X1219450Y296998D01*
Y295999D01*
X1218450Y294999D01*
X1219450Y293999D01*
Y293000D01*
X1218450Y292000D01*
X1216451D01*
X1215451Y293000D01*
Y293999D01*
X1216451Y294999D01*
X1215451Y295999D01*
Y296998D01*
X1216451Y294999D02*
X1218450D01*
X1221449Y292000D02*
X1223448D01*
X1222449D01*
Y297998D01*
X1221449Y296998D01*
X1226448Y292000D02*
Y295999D01*
X1227447D01*
X1228447Y294999D01*
Y292000D01*
Y294999D01*
X1229447Y295999D01*
X1230446Y294999D01*
Y292000D01*
X1232446D02*
Y295999D01*
X1233445D01*
X1234445Y294999D01*
Y292000D01*
Y294999D01*
X1235445Y295999D01*
X1236444Y294999D01*
Y292000D01*
X1238444D02*
X1240443Y293999D01*
Y295999D01*
X1238444Y297998D01*
X1294829Y292000D02*
Y297998D01*
X1297828D01*
X1298828Y296998D01*
Y294999D01*
X1297828Y293999D01*
X1294829D01*
X1300827Y297998D02*
X1304826D01*
X1302827D01*
Y292000D01*
X1306825Y297998D02*
Y292000D01*
Y294999D01*
X1310824D01*
Y297998D01*
Y292000D01*
X1345217D02*
Y297998D01*
X1348216D01*
X1349216Y296998D01*
Y294999D01*
X1348216Y293999D01*
X1345217D01*
X1347216D02*
X1349216Y292000D01*
X1352215D02*
X1354214D01*
X1355214Y293000D01*
Y294999D01*
X1354214Y295999D01*
X1352215D01*
X1351215Y294999D01*
Y293000D01*
X1352215Y292000D01*
X1357213Y295999D02*
Y293000D01*
X1358213Y292000D01*
X1361212D01*
Y295999D01*
X1363211Y292000D02*
Y295999D01*
X1366210D01*
X1367210Y294999D01*
Y292000D01*
X1373208Y297998D02*
Y292000D01*
X1370209D01*
X1369209Y293000D01*
Y294999D01*
X1370209Y295999D01*
X1373208D01*
X1090888Y280000D02*
X1092887D01*
X1091887D01*
Y285998D01*
X1090888Y284998D01*
X1099885Y280000D02*
X1095886D01*
X1099885Y283999D01*
Y284998D01*
X1098885Y285998D01*
X1096886D01*
X1095886Y284998D01*
X1101884D02*
X1102884Y285998D01*
X1104883D01*
X1105883Y284998D01*
Y283999D01*
X1104883Y282999D01*
X1105883Y281999D01*
Y281000D01*
X1104883Y280000D01*
X1102884D01*
X1101884Y281000D01*
Y281999D01*
X1102884Y282999D01*
X1101884Y283999D01*
Y284998D01*
X1102884Y282999D02*
X1104883D01*
X1164468Y280000D02*
X1160469D01*
X1164468Y283999D01*
Y284998D01*
X1163468Y285998D01*
X1161469D01*
X1160469Y284998D01*
X1166467D02*
X1167467Y285998D01*
X1169466D01*
X1170466Y284998D01*
Y283999D01*
X1169466Y282999D01*
X1170466Y281999D01*
Y281000D01*
X1169466Y280000D01*
X1167467D01*
X1166467Y281000D01*
Y281999D01*
X1167467Y282999D01*
X1166467Y283999D01*
Y284998D01*
X1167467Y282999D02*
X1169466D01*
X1172465Y280000D02*
Y283999D01*
X1173465D01*
X1174464Y282999D01*
Y280000D01*
Y282999D01*
X1175464Y283999D01*
X1176464Y282999D01*
Y280000D01*
X1178463D02*
X1180462D01*
X1179463D01*
Y283999D01*
X1178463D01*
X1183461Y280000D02*
X1185461D01*
X1184461D01*
Y285998D01*
X1183461D01*
X1196457Y280000D02*
X1194458Y281999D01*
Y283999D01*
X1196457Y285998D01*
X1199456Y284998D02*
X1200456Y285998D01*
X1202455D01*
X1203455Y284998D01*
Y281000D01*
X1202455Y280000D01*
X1200456D01*
X1199456Y281000D01*
Y284998D01*
X1205454Y280000D02*
Y281000D01*
X1206454D01*
Y280000D01*
X1205454D01*
X1210453Y285998D02*
X1214452D01*
Y284998D01*
X1210453Y281000D01*
Y280000D01*
X1216451D02*
X1218450D01*
X1217451D01*
Y285998D01*
X1216451Y284998D01*
X1221449Y280000D02*
X1223448D01*
X1222449D01*
Y285998D01*
X1221449Y284998D01*
X1230446Y280000D02*
X1226448D01*
X1230446Y283999D01*
Y284998D01*
X1229447Y285998D01*
X1227447D01*
X1226448Y284998D01*
X1232446Y280000D02*
Y283999D01*
X1233445D01*
X1234445Y282999D01*
Y280000D01*
Y282999D01*
X1235445Y283999D01*
X1236444Y282999D01*
Y280000D01*
X1238444D02*
Y283999D01*
X1239443D01*
X1240443Y282999D01*
Y280000D01*
Y282999D01*
X1241443Y283999D01*
X1242442Y282999D01*
Y280000D01*
X1244442D02*
X1246441Y281999D01*
Y283999D01*
X1244442Y285998D01*
X1294829Y280000D02*
Y285998D01*
X1297828D01*
X1298828Y284998D01*
Y282999D01*
X1297828Y281999D01*
X1294829D01*
X1300827Y285998D02*
X1304826D01*
X1302827D01*
Y280000D01*
X1306825Y285998D02*
Y280000D01*
Y282999D01*
X1310824D01*
Y285998D01*
Y280000D01*
X1345217D02*
Y285998D01*
X1348216D01*
X1349216Y284998D01*
Y282999D01*
X1348216Y281999D01*
X1345217D01*
X1347216D02*
X1349216Y280000D01*
X1352215D02*
X1354214D01*
X1355214Y281000D01*
Y282999D01*
X1354214Y283999D01*
X1352215D01*
X1351215Y282999D01*
Y281000D01*
X1352215Y280000D01*
X1357213Y283999D02*
Y281000D01*
X1358213Y280000D01*
X1361212D01*
Y283999D01*
X1363211Y280000D02*
Y283999D01*
X1366210D01*
X1367210Y282999D01*
Y280000D01*
X1373208Y285998D02*
Y280000D01*
X1370209D01*
X1369209Y281000D01*
Y282999D01*
X1370209Y283999D01*
X1373208D01*
X1090888Y272998D02*
X1091887Y273998D01*
X1093887D01*
X1094886Y272998D01*
Y271999D01*
X1093887Y270999D01*
X1094886Y269999D01*
Y269000D01*
X1093887Y268000D01*
X1091887D01*
X1090888Y269000D01*
Y269999D01*
X1091887Y270999D01*
X1090888Y271999D01*
Y272998D01*
X1091887Y270999D02*
X1093887D01*
X1099885Y268000D02*
Y273998D01*
X1096886Y270999D01*
X1100884D01*
X1160469Y272998D02*
X1161469Y273998D01*
X1163468D01*
X1164468Y272998D01*
Y271999D01*
X1163468Y270999D01*
X1162468D01*
X1163468D01*
X1164468Y269999D01*
Y269000D01*
X1163468Y268000D01*
X1161469D01*
X1160469Y269000D01*
X1170466Y268000D02*
X1166467D01*
X1170466Y271999D01*
Y272998D01*
X1169466Y273998D01*
X1167467D01*
X1166467Y272998D01*
X1172465Y268000D02*
Y271999D01*
X1173465D01*
X1174464Y270999D01*
Y268000D01*
Y270999D01*
X1175464Y271999D01*
X1176464Y270999D01*
Y268000D01*
X1178463D02*
X1180462D01*
X1179463D01*
Y271999D01*
X1178463D01*
X1183461Y268000D02*
X1185461D01*
X1184461D01*
Y273998D01*
X1183461D01*
X1196457Y268000D02*
X1194458Y269999D01*
Y271999D01*
X1196457Y273998D01*
X1199456Y272998D02*
X1200456Y273998D01*
X1202455D01*
X1203455Y272998D01*
Y269000D01*
X1202455Y268000D01*
X1200456D01*
X1199456Y269000D01*
Y272998D01*
X1205454Y268000D02*
Y269000D01*
X1206454D01*
Y268000D01*
X1205454D01*
X1210453Y272998D02*
X1211452Y273998D01*
X1213452D01*
X1214452Y272998D01*
Y271999D01*
X1213452Y270999D01*
X1214452Y269999D01*
Y269000D01*
X1213452Y268000D01*
X1211452D01*
X1210453Y269000D01*
Y269999D01*
X1211452Y270999D01*
X1210453Y271999D01*
Y272998D01*
X1211452Y270999D02*
X1213452D01*
X1216451Y268000D02*
X1218450D01*
X1217451D01*
Y273998D01*
X1216451Y272998D01*
X1225448Y268000D02*
X1221449D01*
X1225448Y271999D01*
Y272998D01*
X1224448Y273998D01*
X1222449D01*
X1221449Y272998D01*
X1227447D02*
X1228447Y273998D01*
X1230446D01*
X1231446Y272998D01*
Y271999D01*
X1230446Y270999D01*
X1231446Y269999D01*
Y269000D01*
X1230446Y268000D01*
X1228447D01*
X1227447Y269000D01*
Y269999D01*
X1228447Y270999D01*
X1227447Y271999D01*
Y272998D01*
X1228447Y270999D02*
X1230446D01*
X1233445Y268000D02*
Y271999D01*
X1234445D01*
X1235445Y270999D01*
Y268000D01*
Y270999D01*
X1236444Y271999D01*
X1237444Y270999D01*
Y268000D01*
X1239443D02*
Y271999D01*
X1240443D01*
X1241443Y270999D01*
Y268000D01*
Y270999D01*
X1242442Y271999D01*
X1243442Y270999D01*
Y268000D01*
X1245441D02*
X1247441Y269999D01*
Y271999D01*
X1245441Y273998D01*
X1294829Y268000D02*
Y273998D01*
X1297828D01*
X1298828Y272998D01*
Y270999D01*
X1297828Y269999D01*
X1294829D01*
X1300827Y273998D02*
X1304826D01*
X1302827D01*
Y268000D01*
X1306825Y273998D02*
Y268000D01*
Y270999D01*
X1310824D01*
Y273998D01*
Y268000D01*
X1345217D02*
Y273998D01*
X1348216D01*
X1349216Y272998D01*
Y270999D01*
X1348216Y269999D01*
X1345217D01*
X1347216D02*
X1349216Y268000D01*
X1352215D02*
X1354214D01*
X1355214Y269000D01*
Y270999D01*
X1354214Y271999D01*
X1352215D01*
X1351215Y270999D01*
Y269000D01*
X1352215Y268000D01*
X1357213Y271999D02*
Y269000D01*
X1358213Y268000D01*
X1361212D01*
Y271999D01*
X1363211Y268000D02*
Y271999D01*
X1366210D01*
X1367210Y270999D01*
Y268000D01*
X1373208Y273998D02*
Y268000D01*
X1370209D01*
X1369209Y269000D01*
Y270999D01*
X1370209Y271999D01*
X1373208D01*
X1093887Y256000D02*
Y261998D01*
X1090888Y258999D01*
X1094886D01*
X1160469Y260998D02*
X1161469Y261998D01*
X1163468D01*
X1164468Y260998D01*
Y259999D01*
X1163468Y258999D01*
X1162468D01*
X1163468D01*
X1164468Y257999D01*
Y257000D01*
X1163468Y256000D01*
X1161469D01*
X1160469Y257000D01*
X1166467Y260998D02*
X1167467Y261998D01*
X1169466D01*
X1170466Y260998D01*
Y259999D01*
X1169466Y258999D01*
X1170466Y257999D01*
Y257000D01*
X1169466Y256000D01*
X1167467D01*
X1166467Y257000D01*
Y257999D01*
X1167467Y258999D01*
X1166467Y259999D01*
Y260998D01*
X1167467Y258999D02*
X1169466D01*
X1172465Y256000D02*
Y259999D01*
X1173465D01*
X1174464Y258999D01*
Y256000D01*
Y258999D01*
X1175464Y259999D01*
X1176464Y258999D01*
Y256000D01*
X1178463D02*
X1180462D01*
X1179463D01*
Y259999D01*
X1178463D01*
X1183461Y256000D02*
X1185461D01*
X1184461D01*
Y261998D01*
X1183461D01*
X1196457Y256000D02*
X1194458Y257999D01*
Y259999D01*
X1196457Y261998D01*
X1199456Y260998D02*
X1200456Y261998D01*
X1202455D01*
X1203455Y260998D01*
Y257000D01*
X1202455Y256000D01*
X1200456D01*
X1199456Y257000D01*
Y260998D01*
X1205454Y256000D02*
Y257000D01*
X1206454D01*
Y256000D01*
X1205454D01*
X1210453Y257000D02*
X1211452Y256000D01*
X1213452D01*
X1214452Y257000D01*
Y260998D01*
X1213452Y261998D01*
X1211452D01*
X1210453Y260998D01*
Y259999D01*
X1211452Y258999D01*
X1214452D01*
X1220450Y261998D02*
X1218450Y260998D01*
X1216451Y258999D01*
Y257000D01*
X1217451Y256000D01*
X1219450D01*
X1220450Y257000D01*
Y257999D01*
X1219450Y258999D01*
X1216451D01*
X1226448Y261998D02*
X1222449D01*
Y258999D01*
X1224448Y259999D01*
X1225448D01*
X1226448Y258999D01*
Y257000D01*
X1225448Y256000D01*
X1223449D01*
X1222449Y257000D01*
X1232446Y256000D02*
X1228447D01*
X1232446Y259999D01*
Y260998D01*
X1231446Y261998D01*
X1229447D01*
X1228447Y260998D01*
X1234445Y256000D02*
Y259999D01*
X1235445D01*
X1236444Y258999D01*
Y256000D01*
Y258999D01*
X1237444Y259999D01*
X1238444Y258999D01*
Y256000D01*
X1240443D02*
Y259999D01*
X1241443D01*
X1242442Y258999D01*
Y256000D01*
Y258999D01*
X1243442Y259999D01*
X1244442Y258999D01*
Y256000D01*
X1246441D02*
X1248440Y257999D01*
Y259999D01*
X1246441Y261998D01*
X1294829Y256000D02*
Y261998D01*
X1297828D01*
X1298828Y260998D01*
Y258999D01*
X1297828Y257999D01*
X1294829D01*
X1300827Y261998D02*
X1304826D01*
X1302827D01*
Y256000D01*
X1306825Y261998D02*
Y256000D01*
Y258999D01*
X1310824D01*
Y261998D01*
Y256000D01*
X1345217D02*
Y261998D01*
X1348216D01*
X1349216Y260998D01*
Y258999D01*
X1348216Y257999D01*
X1345217D01*
X1347216D02*
X1349216Y256000D01*
X1352215D02*
X1354214D01*
X1355214Y257000D01*
Y258999D01*
X1354214Y259999D01*
X1352215D01*
X1351215Y258999D01*
Y257000D01*
X1352215Y256000D01*
X1357213Y259999D02*
Y257000D01*
X1358213Y256000D01*
X1361212D01*
Y259999D01*
X1363211Y256000D02*
Y259999D01*
X1366210D01*
X1367210Y258999D01*
Y256000D01*
X1373208Y261998D02*
Y256000D01*
X1370209D01*
X1369209Y257000D01*
Y258999D01*
X1370209Y259999D01*
X1373208D01*
X1094886Y249998D02*
X1092887Y248998D01*
X1090888Y246999D01*
Y245000D01*
X1091887Y244000D01*
X1093887D01*
X1094886Y245000D01*
Y245999D01*
X1093887Y246999D01*
X1090888D01*
X1099885Y244000D02*
Y249998D01*
X1096886Y246999D01*
X1100884D01*
X1163468Y244000D02*
Y249998D01*
X1160469Y246999D01*
X1164468D01*
X1166467Y248998D02*
X1167467Y249998D01*
X1169466D01*
X1170466Y248998D01*
Y245000D01*
X1169466Y244000D01*
X1167467D01*
X1166467Y245000D01*
Y248998D01*
X1172465Y244000D02*
Y247999D01*
X1173465D01*
X1174464Y246999D01*
Y244000D01*
Y246999D01*
X1175464Y247999D01*
X1176464Y246999D01*
Y244000D01*
X1178463D02*
X1180462D01*
X1179463D01*
Y247999D01*
X1178463D01*
X1183461Y244000D02*
X1185461D01*
X1184461D01*
Y249998D01*
X1183461D01*
X1196457Y244000D02*
X1194458Y245999D01*
Y247999D01*
X1196457Y249998D01*
X1199456Y244000D02*
X1201456D01*
X1200456D01*
Y249998D01*
X1199456Y248998D01*
X1204455Y244000D02*
Y245000D01*
X1205454D01*
Y244000D01*
X1204455D01*
X1209453Y248998D02*
X1210453Y249998D01*
X1212452D01*
X1213452Y248998D01*
Y245000D01*
X1212452Y244000D01*
X1210453D01*
X1209453Y245000D01*
Y248998D01*
X1215451Y244000D02*
X1217451D01*
X1216451D01*
Y249998D01*
X1215451Y248998D01*
X1224448Y249998D02*
X1222449Y248998D01*
X1220450Y246999D01*
Y245000D01*
X1221449Y244000D01*
X1223448D01*
X1224448Y245000D01*
Y245999D01*
X1223448Y246999D01*
X1220450D01*
X1226448Y244000D02*
Y247999D01*
X1227447D01*
X1228447Y246999D01*
Y244000D01*
Y246999D01*
X1229447Y247999D01*
X1230446Y246999D01*
Y244000D01*
X1232446D02*
Y247999D01*
X1233445D01*
X1234445Y246999D01*
Y244000D01*
Y246999D01*
X1235445Y247999D01*
X1236444Y246999D01*
Y244000D01*
X1238444D02*
X1240443Y245999D01*
Y247999D01*
X1238444Y249998D01*
X1294829Y244000D02*
Y249998D01*
X1297828D01*
X1298828Y248998D01*
Y246999D01*
X1297828Y245999D01*
X1294829D01*
X1300827Y249998D02*
X1304826D01*
X1302827D01*
Y244000D01*
X1306825Y249998D02*
Y244000D01*
Y246999D01*
X1310824D01*
Y249998D01*
Y244000D01*
X1345217D02*
Y249998D01*
X1348216D01*
X1349216Y248998D01*
Y246999D01*
X1348216Y245999D01*
X1345217D01*
X1347216D02*
X1349216Y244000D01*
X1352215D02*
X1354214D01*
X1355214Y245000D01*
Y246999D01*
X1354214Y247999D01*
X1352215D01*
X1351215Y246999D01*
Y245000D01*
X1352215Y244000D01*
X1357213Y247999D02*
Y245000D01*
X1358213Y244000D01*
X1361212D01*
Y247999D01*
X1363211Y244000D02*
Y247999D01*
X1366210D01*
X1367210Y246999D01*
Y244000D01*
X1373208Y249998D02*
Y244000D01*
X1370209D01*
X1369209Y245000D01*
Y246999D01*
X1370209Y247999D01*
X1373208D01*
X1090888Y232000D02*
X1092887D01*
X1091887D01*
Y237998D01*
X1090888Y236998D01*
X1095886Y233000D02*
X1096886Y232000D01*
X1098885D01*
X1099885Y233000D01*
Y236998D01*
X1098885Y237998D01*
X1096886D01*
X1095886Y236998D01*
Y235999D01*
X1096886Y234999D01*
X1099885D01*
X1105883Y232000D02*
X1101884D01*
X1105883Y235999D01*
Y236998D01*
X1104883Y237998D01*
X1102884D01*
X1101884Y236998D01*
X1163468Y232000D02*
Y237998D01*
X1160469Y234999D01*
X1164468D01*
X1170466Y232000D02*
X1166467D01*
X1170466Y235999D01*
Y236998D01*
X1169466Y237998D01*
X1167467D01*
X1166467Y236998D01*
X1172465Y232000D02*
Y235999D01*
X1173465D01*
X1174464Y234999D01*
Y232000D01*
Y234999D01*
X1175464Y235999D01*
X1176464Y234999D01*
Y232000D01*
X1178463D02*
X1180462D01*
X1179463D01*
Y235999D01*
X1178463D01*
X1183461Y232000D02*
X1185461D01*
X1184461D01*
Y237998D01*
X1183461D01*
X1196457Y232000D02*
X1194458Y233999D01*
Y235999D01*
X1196457Y237998D01*
X1199456Y232000D02*
X1201456D01*
X1200456D01*
Y237998D01*
X1199456Y236998D01*
X1204455Y232000D02*
Y233000D01*
X1205454D01*
Y232000D01*
X1204455D01*
X1209453Y236998D02*
X1210453Y237998D01*
X1212452D01*
X1213452Y236998D01*
Y233000D01*
X1212452Y232000D01*
X1210453D01*
X1209453Y233000D01*
Y236998D01*
X1219450Y237998D02*
X1217451Y236998D01*
X1215451Y234999D01*
Y233000D01*
X1216451Y232000D01*
X1218450D01*
X1219450Y233000D01*
Y233999D01*
X1218450Y234999D01*
X1215451D01*
X1225448Y237998D02*
X1223448Y236998D01*
X1221449Y234999D01*
Y233000D01*
X1222449Y232000D01*
X1224448D01*
X1225448Y233000D01*
Y233999D01*
X1224448Y234999D01*
X1221449D01*
X1227447Y236998D02*
X1228447Y237998D01*
X1230446D01*
X1231446Y236998D01*
Y235999D01*
X1230446Y234999D01*
X1231446Y233999D01*
Y233000D01*
X1230446Y232000D01*
X1228447D01*
X1227447Y233000D01*
Y233999D01*
X1228447Y234999D01*
X1227447Y235999D01*
Y236998D01*
X1228447Y234999D02*
X1230446D01*
X1233445Y232000D02*
Y235999D01*
X1234445D01*
X1235445Y234999D01*
Y232000D01*
Y234999D01*
X1236444Y235999D01*
X1237444Y234999D01*
Y232000D01*
X1239443D02*
Y235999D01*
X1240443D01*
X1241443Y234999D01*
Y232000D01*
Y234999D01*
X1242442Y235999D01*
X1243442Y234999D01*
Y232000D01*
X1245441D02*
X1247441Y233999D01*
Y235999D01*
X1245441Y237998D01*
X1294829Y232000D02*
Y237998D01*
X1297828D01*
X1298828Y236998D01*
Y234999D01*
X1297828Y233999D01*
X1294829D01*
X1300827Y237998D02*
X1304826D01*
X1302827D01*
Y232000D01*
X1306825Y237998D02*
Y232000D01*
Y234999D01*
X1310824D01*
Y237998D01*
Y232000D01*
X1345217D02*
Y237998D01*
X1348216D01*
X1349216Y236998D01*
Y234999D01*
X1348216Y233999D01*
X1345217D01*
X1347216D02*
X1349216Y232000D01*
X1352215D02*
X1354214D01*
X1355214Y233000D01*
Y234999D01*
X1354214Y235999D01*
X1352215D01*
X1351215Y234999D01*
Y233000D01*
X1352215Y232000D01*
X1357213Y235999D02*
Y233000D01*
X1358213Y232000D01*
X1361212D01*
Y235999D01*
X1363211Y232000D02*
Y235999D01*
X1366210D01*
X1367210Y234999D01*
Y232000D01*
X1373208Y237998D02*
Y232000D01*
X1370209D01*
X1369209Y233000D01*
Y234999D01*
X1370209Y235999D01*
X1373208D01*
X1090888Y224998D02*
X1091887Y225998D01*
X1093887D01*
X1094886Y224998D01*
Y223999D01*
X1093887Y222999D01*
X1094886Y221999D01*
Y221000D01*
X1093887Y220000D01*
X1091887D01*
X1090888Y221000D01*
Y221999D01*
X1091887Y222999D01*
X1090888Y223999D01*
Y224998D01*
X1091887Y222999D02*
X1093887D01*
X1163468Y220000D02*
Y225998D01*
X1160469Y222999D01*
X1164468D01*
X1170466Y225998D02*
X1168466Y224998D01*
X1166467Y222999D01*
Y221000D01*
X1167467Y220000D01*
X1169466D01*
X1170466Y221000D01*
Y221999D01*
X1169466Y222999D01*
X1166467D01*
X1172465Y220000D02*
Y223999D01*
X1173465D01*
X1174464Y222999D01*
Y220000D01*
Y222999D01*
X1175464Y223999D01*
X1176464Y222999D01*
Y220000D01*
X1178463D02*
X1180462D01*
X1179463D01*
Y223999D01*
X1178463D01*
X1183461Y220000D02*
X1185461D01*
X1184461D01*
Y225998D01*
X1183461D01*
X1196457Y220000D02*
X1194458Y221999D01*
Y223999D01*
X1196457Y225998D01*
X1199456Y220000D02*
X1201456D01*
X1200456D01*
Y225998D01*
X1199456Y224998D01*
X1204455Y220000D02*
Y221000D01*
X1205454D01*
Y220000D01*
X1204455D01*
X1209453D02*
X1211452D01*
X1210453D01*
Y225998D01*
X1209453Y224998D01*
X1218450Y225998D02*
X1216451Y224998D01*
X1214451Y222999D01*
Y221000D01*
X1215451Y220000D01*
X1217451D01*
X1218450Y221000D01*
Y221999D01*
X1217451Y222999D01*
X1214451D01*
X1220450Y224998D02*
X1221449Y225998D01*
X1223448D01*
X1224448Y224998D01*
Y223999D01*
X1223448Y222999D01*
X1224448Y221999D01*
Y221000D01*
X1223448Y220000D01*
X1221449D01*
X1220450Y221000D01*
Y221999D01*
X1221449Y222999D01*
X1220450Y223999D01*
Y224998D01*
X1221449Y222999D02*
X1223448D01*
X1229447Y220000D02*
Y225998D01*
X1226448Y222999D01*
X1230446D01*
X1232446Y220000D02*
Y223999D01*
X1233445D01*
X1234445Y222999D01*
Y220000D01*
Y222999D01*
X1235445Y223999D01*
X1236444Y222999D01*
Y220000D01*
X1238444D02*
Y223999D01*
X1239443D01*
X1240443Y222999D01*
Y220000D01*
Y222999D01*
X1241443Y223999D01*
X1242442Y222999D01*
Y220000D01*
X1244442D02*
X1246441Y221999D01*
Y223999D01*
X1244442Y225998D01*
X1294829Y220000D02*
Y225998D01*
X1297828D01*
X1298828Y224998D01*
Y222999D01*
X1297828Y221999D01*
X1294829D01*
X1300827Y225998D02*
X1304826D01*
X1302827D01*
Y220000D01*
X1306825Y225998D02*
Y220000D01*
Y222999D01*
X1310824D01*
Y225998D01*
Y220000D01*
X1345217D02*
Y225998D01*
X1348216D01*
X1349216Y224998D01*
Y222999D01*
X1348216Y221999D01*
X1345217D01*
X1347216D02*
X1349216Y220000D01*
X1352215D02*
X1354214D01*
X1355214Y221000D01*
Y222999D01*
X1354214Y223999D01*
X1352215D01*
X1351215Y222999D01*
Y221000D01*
X1352215Y220000D01*
X1357213Y223999D02*
Y221000D01*
X1358213Y220000D01*
X1361212D01*
Y223999D01*
X1363211Y220000D02*
Y223999D01*
X1366210D01*
X1367210Y222999D01*
Y220000D01*
X1373208Y225998D02*
Y220000D01*
X1370209D01*
X1369209Y221000D01*
Y222999D01*
X1370209Y223999D01*
X1373208D01*
X1094886Y208000D02*
X1090888D01*
X1094886Y211999D01*
Y212998D01*
X1093887Y213998D01*
X1091887D01*
X1090888Y212998D01*
X1099885Y208000D02*
Y213998D01*
X1096886Y210999D01*
X1100884D01*
X1164468Y213998D02*
X1162468Y212998D01*
X1160469Y210999D01*
Y209000D01*
X1161469Y208000D01*
X1163468D01*
X1164468Y209000D01*
Y209999D01*
X1163468Y210999D01*
X1160469D01*
X1166467Y212998D02*
X1167467Y213998D01*
X1169466D01*
X1170466Y212998D01*
Y209000D01*
X1169466Y208000D01*
X1167467D01*
X1166467Y209000D01*
Y212998D01*
X1172465Y208000D02*
Y211999D01*
X1173465D01*
X1174464Y210999D01*
Y208000D01*
Y210999D01*
X1175464Y211999D01*
X1176464Y210999D01*
Y208000D01*
X1178463D02*
X1180462D01*
X1179463D01*
Y211999D01*
X1178463D01*
X1183461Y208000D02*
X1185461D01*
X1184461D01*
Y213998D01*
X1183461D01*
X1196457Y208000D02*
X1194458Y209999D01*
Y211999D01*
X1196457Y213998D01*
X1199456Y208000D02*
X1201456D01*
X1200456D01*
Y213998D01*
X1199456Y212998D01*
X1204455Y208000D02*
Y209000D01*
X1205454D01*
Y208000D01*
X1204455D01*
X1213452Y213998D02*
X1209453D01*
Y210999D01*
X1211452Y211999D01*
X1212452D01*
X1213452Y210999D01*
Y209000D01*
X1212452Y208000D01*
X1210453D01*
X1209453Y209000D01*
X1219450Y208000D02*
X1215451D01*
X1219450Y211999D01*
Y212998D01*
X1218450Y213998D01*
X1216451D01*
X1215451Y212998D01*
X1224448Y208000D02*
Y213998D01*
X1221449Y210999D01*
X1225448D01*
X1227447Y208000D02*
Y211999D01*
X1228447D01*
X1229447Y210999D01*
Y208000D01*
Y210999D01*
X1230446Y211999D01*
X1231446Y210999D01*
Y208000D01*
X1233445D02*
Y211999D01*
X1234445D01*
X1235445Y210999D01*
Y208000D01*
Y210999D01*
X1236444Y211999D01*
X1237444Y210999D01*
Y208000D01*
X1239443D02*
X1241443Y209999D01*
Y211999D01*
X1239443Y213998D01*
X1294829Y208000D02*
Y213998D01*
X1297828D01*
X1298828Y212998D01*
Y210999D01*
X1297828Y209999D01*
X1294829D01*
X1300827Y213998D02*
X1304826D01*
X1302827D01*
Y208000D01*
X1306825Y213998D02*
Y208000D01*
Y210999D01*
X1310824D01*
Y213998D01*
Y208000D01*
X1345217D02*
Y213998D01*
X1348216D01*
X1349216Y212998D01*
Y210999D01*
X1348216Y209999D01*
X1345217D01*
X1347216D02*
X1349216Y208000D01*
X1352215D02*
X1354214D01*
X1355214Y209000D01*
Y210999D01*
X1354214Y211999D01*
X1352215D01*
X1351215Y210999D01*
Y209000D01*
X1352215Y208000D01*
X1357213Y211999D02*
Y209000D01*
X1358213Y208000D01*
X1361212D01*
Y211999D01*
X1363211Y208000D02*
Y211999D01*
X1366210D01*
X1367210Y210999D01*
Y208000D01*
X1373208Y213998D02*
Y208000D01*
X1370209D01*
X1369209Y209000D01*
Y210999D01*
X1370209Y211999D01*
X1373208D01*
X1093887Y196000D02*
Y201998D01*
X1090888Y198999D01*
X1094886D01*
X1096886Y200998D02*
X1097885Y201998D01*
X1099885D01*
X1100884Y200998D01*
Y197000D01*
X1099885Y196000D01*
X1097885D01*
X1096886Y197000D01*
Y200998D01*
X1164468Y201998D02*
X1162468Y200998D01*
X1160469Y198999D01*
Y197000D01*
X1161469Y196000D01*
X1163468D01*
X1164468Y197000D01*
Y197999D01*
X1163468Y198999D01*
X1160469D01*
X1170466Y196000D02*
X1166467D01*
X1170466Y199999D01*
Y200998D01*
X1169466Y201998D01*
X1167467D01*
X1166467Y200998D01*
X1172465Y196000D02*
Y199999D01*
X1173465D01*
X1174464Y198999D01*
Y196000D01*
Y198999D01*
X1175464Y199999D01*
X1176464Y198999D01*
Y196000D01*
X1178463D02*
X1180462D01*
X1179463D01*
Y199999D01*
X1178463D01*
X1183461Y196000D02*
X1185461D01*
X1184461D01*
Y201998D01*
X1183461D01*
X1196457Y196000D02*
X1194458Y197999D01*
Y199999D01*
X1196457Y201998D01*
X1199456Y196000D02*
X1201456D01*
X1200456D01*
Y201998D01*
X1199456Y200998D01*
X1204455Y196000D02*
Y197000D01*
X1205454D01*
Y196000D01*
X1204455D01*
X1213452Y201998D02*
X1209453D01*
Y198999D01*
X1211452Y199999D01*
X1212452D01*
X1213452Y198999D01*
Y197000D01*
X1212452Y196000D01*
X1210453D01*
X1209453Y197000D01*
X1215451Y201998D02*
X1219450D01*
Y200998D01*
X1215451Y197000D01*
Y196000D01*
X1224448D02*
Y201998D01*
X1221449Y198999D01*
X1225448D01*
X1227447Y200998D02*
X1228447Y201998D01*
X1230446D01*
X1231446Y200998D01*
Y199999D01*
X1230446Y198999D01*
X1231446Y197999D01*
Y197000D01*
X1230446Y196000D01*
X1228447D01*
X1227447Y197000D01*
Y197999D01*
X1228447Y198999D01*
X1227447Y199999D01*
Y200998D01*
X1228447Y198999D02*
X1230446D01*
X1233445Y196000D02*
Y199999D01*
X1234445D01*
X1235445Y198999D01*
Y196000D01*
Y198999D01*
X1236444Y199999D01*
X1237444Y198999D01*
Y196000D01*
X1239443D02*
Y199999D01*
X1240443D01*
X1241443Y198999D01*
Y196000D01*
Y198999D01*
X1242442Y199999D01*
X1243442Y198999D01*
Y196000D01*
X1245441D02*
X1247441Y197999D01*
Y199999D01*
X1245441Y201998D01*
X1294829Y196000D02*
Y201998D01*
X1297828D01*
X1298828Y200998D01*
Y198999D01*
X1297828Y197999D01*
X1294829D01*
X1300827Y201998D02*
X1304826D01*
X1302827D01*
Y196000D01*
X1306825Y201998D02*
Y196000D01*
Y198999D01*
X1310824D01*
Y201998D01*
Y196000D01*
X1345217D02*
Y201998D01*
X1348216D01*
X1349216Y200998D01*
Y198999D01*
X1348216Y197999D01*
X1345217D01*
X1347216D02*
X1349216Y196000D01*
X1352215D02*
X1354214D01*
X1355214Y197000D01*
Y198999D01*
X1354214Y199999D01*
X1352215D01*
X1351215Y198999D01*
Y197000D01*
X1352215Y196000D01*
X1357213Y199999D02*
Y197000D01*
X1358213Y196000D01*
X1361212D01*
Y199999D01*
X1363211Y196000D02*
Y199999D01*
X1366210D01*
X1367210Y198999D01*
Y196000D01*
X1373208Y201998D02*
Y196000D01*
X1370209D01*
X1369209Y197000D01*
Y198999D01*
X1370209Y199999D01*
X1373208D01*
X1093887Y184000D02*
Y189998D01*
X1090888Y186999D01*
X1094886D01*
X1160469Y189998D02*
X1164468D01*
Y188998D01*
X1160469Y185000D01*
Y184000D01*
X1170466Y189998D02*
X1166467D01*
Y186999D01*
X1168466Y187999D01*
X1169466D01*
X1170466Y186999D01*
Y185000D01*
X1169466Y184000D01*
X1167467D01*
X1166467Y185000D01*
X1172465Y184000D02*
Y187999D01*
X1173465D01*
X1174464Y186999D01*
Y184000D01*
Y186999D01*
X1175464Y187999D01*
X1176464Y186999D01*
Y184000D01*
X1178463D02*
X1180462D01*
X1179463D01*
Y187999D01*
X1178463D01*
X1183461Y184000D02*
X1185461D01*
X1184461D01*
Y189998D01*
X1183461D01*
X1196457Y184000D02*
X1194458Y185999D01*
Y187999D01*
X1196457Y189998D01*
X1199456Y184000D02*
X1201456D01*
X1200456D01*
Y189998D01*
X1199456Y188998D01*
X1204455Y184000D02*
Y185000D01*
X1205454D01*
Y184000D01*
X1204455D01*
X1209453Y185000D02*
X1210453Y184000D01*
X1212452D01*
X1213452Y185000D01*
Y188998D01*
X1212452Y189998D01*
X1210453D01*
X1209453Y188998D01*
Y187999D01*
X1210453Y186999D01*
X1213452D01*
X1215451Y188998D02*
X1216451Y189998D01*
X1218450D01*
X1219450Y188998D01*
Y185000D01*
X1218450Y184000D01*
X1216451D01*
X1215451Y185000D01*
Y188998D01*
X1225448Y189998D02*
X1221449D01*
Y186999D01*
X1223448Y187999D01*
X1224448D01*
X1225448Y186999D01*
Y185000D01*
X1224448Y184000D01*
X1222449D01*
X1221449Y185000D01*
X1227447Y184000D02*
Y187999D01*
X1228447D01*
X1229447Y186999D01*
Y184000D01*
Y186999D01*
X1230446Y187999D01*
X1231446Y186999D01*
Y184000D01*
X1233445D02*
Y187999D01*
X1234445D01*
X1235445Y186999D01*
Y184000D01*
Y186999D01*
X1236444Y187999D01*
X1237444Y186999D01*
Y184000D01*
X1239443D02*
X1241443Y185999D01*
Y187999D01*
X1239443Y189998D01*
X1294829Y184000D02*
Y189998D01*
X1298828Y184000D01*
Y189998D01*
X1300827Y184000D02*
Y189998D01*
X1303826D01*
X1304826Y188998D01*
Y186999D01*
X1303826Y185999D01*
X1300827D01*
X1306825Y189998D02*
X1310824D01*
X1308825D01*
Y184000D01*
X1312823Y189998D02*
Y184000D01*
Y186999D01*
X1316822D01*
Y189998D01*
Y184000D01*
X1345217D02*
Y189998D01*
X1348216D01*
X1349216Y188998D01*
Y186999D01*
X1348216Y185999D01*
X1345217D01*
X1347216D02*
X1349216Y184000D01*
X1352215D02*
X1354214D01*
X1355214Y185000D01*
Y186999D01*
X1354214Y187999D01*
X1352215D01*
X1351215Y186999D01*
Y185000D01*
X1352215Y184000D01*
X1357213Y187999D02*
Y185000D01*
X1358213Y184000D01*
X1361212D01*
Y187999D01*
X1363211Y184000D02*
Y187999D01*
X1366210D01*
X1367210Y186999D01*
Y184000D01*
X1373208Y189998D02*
Y184000D01*
X1370209D01*
X1369209Y185000D01*
Y186999D01*
X1370209Y187999D01*
X1373208D01*
X1094886Y177998D02*
X1092887Y176998D01*
X1090888Y174999D01*
Y173000D01*
X1091887Y172000D01*
X1093887D01*
X1094886Y173000D01*
Y173999D01*
X1093887Y174999D01*
X1090888D01*
X1160469Y172000D02*
X1162468D01*
X1161469D01*
Y177998D01*
X1160469Y176998D01*
X1169466Y172000D02*
X1165467D01*
X1169466Y175999D01*
Y176998D01*
X1168466Y177998D01*
X1166467D01*
X1165467Y176998D01*
X1175464Y177998D02*
X1171465D01*
Y174999D01*
X1173465Y175999D01*
X1174464D01*
X1175464Y174999D01*
Y173000D01*
X1174464Y172000D01*
X1172465D01*
X1171465Y173000D01*
X1177463Y172000D02*
Y175999D01*
X1178463D01*
X1179463Y174999D01*
Y172000D01*
Y174999D01*
X1180462Y175999D01*
X1181462Y174999D01*
Y172000D01*
X1183461D02*
X1185461D01*
X1184461D01*
Y175999D01*
X1183461D01*
X1188460Y172000D02*
X1190459D01*
X1189460D01*
Y177998D01*
X1188460D01*
X1201456Y172000D02*
X1199456Y173999D01*
Y175999D01*
X1201456Y177998D01*
X1204455Y176998D02*
X1205454Y177998D01*
X1207454D01*
X1208453Y176998D01*
Y175999D01*
X1207454Y174999D01*
X1206454D01*
X1207454D01*
X1208453Y173999D01*
Y173000D01*
X1207454Y172000D01*
X1205454D01*
X1204455Y173000D01*
X1210453Y172000D02*
Y173000D01*
X1211452D01*
Y172000D01*
X1210453D01*
X1215451D02*
X1217451D01*
X1216451D01*
Y177998D01*
X1215451Y176998D01*
X1220450Y177998D02*
X1224448D01*
Y176998D01*
X1220450Y173000D01*
Y172000D01*
X1230446Y177998D02*
X1226448D01*
Y174999D01*
X1228447Y175999D01*
X1229447D01*
X1230446Y174999D01*
Y173000D01*
X1229447Y172000D01*
X1227447D01*
X1226448Y173000D01*
X1232446Y172000D02*
Y175999D01*
X1233445D01*
X1234445Y174999D01*
Y172000D01*
Y174999D01*
X1235445Y175999D01*
X1236444Y174999D01*
Y172000D01*
X1238444D02*
Y175999D01*
X1239443D01*
X1240443Y174999D01*
Y172000D01*
Y174999D01*
X1241443Y175999D01*
X1242442Y174999D01*
Y172000D01*
X1244442D02*
X1246441Y173999D01*
Y175999D01*
X1244442Y177998D01*
X1294829Y172000D02*
Y177998D01*
X1298828Y172000D01*
Y177998D01*
X1300827Y172000D02*
Y177998D01*
X1303826D01*
X1304826Y176998D01*
Y174999D01*
X1303826Y173999D01*
X1300827D01*
X1306825Y177998D02*
X1310824D01*
X1308825D01*
Y172000D01*
X1312823Y177998D02*
Y172000D01*
Y174999D01*
X1316822D01*
Y177998D01*
Y172000D01*
X1345217D02*
Y177998D01*
X1348216D01*
X1349216Y176998D01*
Y174999D01*
X1348216Y173999D01*
X1345217D01*
X1347216D02*
X1349216Y172000D01*
X1352215D02*
X1354214D01*
X1355214Y173000D01*
Y174999D01*
X1354214Y175999D01*
X1352215D01*
X1351215Y174999D01*
Y173000D01*
X1352215Y172000D01*
X1357213Y175999D02*
Y173000D01*
X1358213Y172000D01*
X1361212D01*
Y175999D01*
X1363211Y172000D02*
Y175999D01*
X1366210D01*
X1367210Y174999D01*
Y172000D01*
X1373208Y177998D02*
Y172000D01*
X1370209D01*
X1369209Y173000D01*
Y174999D01*
X1370209Y175999D01*
X1373208D01*
X1090888Y164998D02*
X1091887Y165998D01*
X1093887D01*
X1094886Y164998D01*
Y163999D01*
X1093887Y162999D01*
X1094886Y161999D01*
Y161000D01*
X1093887Y160000D01*
X1091887D01*
X1090888Y161000D01*
Y161999D01*
X1091887Y162999D01*
X1090888Y163999D01*
Y164998D01*
X1091887Y162999D02*
X1093887D01*
X1164468Y160000D02*
X1160469D01*
X1164468Y163999D01*
Y164998D01*
X1163468Y165998D01*
X1161469D01*
X1160469Y164998D01*
X1166467D02*
X1167467Y165998D01*
X1169466D01*
X1170466Y164998D01*
Y163999D01*
X1169466Y162999D01*
X1168466D01*
X1169466D01*
X1170466Y161999D01*
Y161000D01*
X1169466Y160000D01*
X1167467D01*
X1166467Y161000D01*
X1175464Y160000D02*
Y165998D01*
X1172465Y162999D01*
X1176464D01*
X1178463Y160000D02*
Y163999D01*
X1179463D01*
X1180462Y162999D01*
Y160000D01*
Y162999D01*
X1181462Y163999D01*
X1182462Y162999D01*
Y160000D01*
X1184461D02*
X1186460D01*
X1185461D01*
Y163999D01*
X1184461D01*
X1189460Y160000D02*
X1191459D01*
X1190459D01*
Y165998D01*
X1189460D01*
X1202455Y160000D02*
X1200456Y161999D01*
Y163999D01*
X1202455Y165998D01*
X1209453D02*
X1205454D01*
Y162999D01*
X1207454Y163999D01*
X1208453D01*
X1209453Y162999D01*
Y161000D01*
X1208453Y160000D01*
X1206454D01*
X1205454Y161000D01*
X1211452Y160000D02*
Y161000D01*
X1212452D01*
Y160000D01*
X1211452D01*
X1216451Y161000D02*
X1217451Y160000D01*
X1219450D01*
X1220450Y161000D01*
Y164998D01*
X1219450Y165998D01*
X1217451D01*
X1216451Y164998D01*
Y163999D01*
X1217451Y162999D01*
X1220450D01*
X1225448Y160000D02*
Y165998D01*
X1222449Y162999D01*
X1226448D01*
X1228447Y164998D02*
X1229447Y165998D01*
X1231446D01*
X1232446Y164998D01*
Y163999D01*
X1231446Y162999D01*
X1230446D01*
X1231446D01*
X1232446Y161999D01*
Y161000D01*
X1231446Y160000D01*
X1229447D01*
X1228447Y161000D01*
X1238444Y165998D02*
X1236444Y164998D01*
X1234445Y162999D01*
Y161000D01*
X1235445Y160000D01*
X1237444D01*
X1238444Y161000D01*
Y161999D01*
X1237444Y162999D01*
X1234445D01*
X1240443Y160000D02*
Y163999D01*
X1241443D01*
X1242442Y162999D01*
Y160000D01*
Y162999D01*
X1243442Y163999D01*
X1244442Y162999D01*
Y160000D01*
X1246441D02*
Y163999D01*
X1247441D01*
X1248440Y162999D01*
Y160000D01*
Y162999D01*
X1249440Y163999D01*
X1250440Y162999D01*
Y160000D01*
X1252439D02*
X1254438Y161999D01*
Y163999D01*
X1252439Y165998D01*
X1294829Y160000D02*
Y165998D01*
X1298828Y160000D01*
Y165998D01*
X1300827Y160000D02*
Y165998D01*
X1303826D01*
X1304826Y164998D01*
Y162999D01*
X1303826Y161999D01*
X1300827D01*
X1306825Y165998D02*
X1310824D01*
X1308825D01*
Y160000D01*
X1312823Y165998D02*
Y160000D01*
Y162999D01*
X1316822D01*
Y165998D01*
Y160000D01*
X1345217D02*
Y165998D01*
X1348216D01*
X1349216Y164998D01*
Y162999D01*
X1348216Y161999D01*
X1345217D01*
X1347216D02*
X1349216Y160000D01*
X1352215D02*
X1354214D01*
X1355214Y161000D01*
Y162999D01*
X1354214Y163999D01*
X1352215D01*
X1351215Y162999D01*
Y161000D01*
X1352215Y160000D01*
X1357213Y163999D02*
Y161000D01*
X1358213Y160000D01*
X1361212D01*
Y163999D01*
X1363211Y160000D02*
Y163999D01*
X1366210D01*
X1367210Y162999D01*
Y160000D01*
X1373208Y165998D02*
Y160000D01*
X1370209D01*
X1369209Y161000D01*
Y162999D01*
X1370209Y163999D01*
X1373208D01*
X1090888Y153998D02*
X1094886D01*
Y152998D01*
X1090888Y149000D01*
Y148000D01*
X1100884D02*
X1096886D01*
X1100884Y151999D01*
Y152998D01*
X1099885Y153998D01*
X1097885D01*
X1096886Y152998D01*
X1105883Y148000D02*
Y153998D01*
X1102884Y150999D01*
X1106882D01*
X1117682Y153998D02*
X1121681D01*
X1119682D01*
Y148000D01*
X1124680D02*
X1126680D01*
X1127679Y149000D01*
Y150999D01*
X1126680Y151999D01*
X1124680D01*
X1123680Y150999D01*
Y149000D01*
X1124680Y148000D01*
X1130678Y152998D02*
Y151999D01*
X1129679D01*
X1131678D01*
X1130678D01*
Y149000D01*
X1131678Y148000D01*
X1135677Y151999D02*
X1137676D01*
X1138676Y150999D01*
Y148000D01*
X1135677D01*
X1134677Y149000D01*
X1135677Y149999D01*
X1138676D01*
X1140675Y148000D02*
X1142674D01*
X1141675D01*
Y153998D01*
X1140675D01*
G54D40*
X1045300Y259000D02*
G03*
X1045300Y259000I-2400J0D01*
G01*
Y211000D02*
G03*
X1045300Y211000I-2400J0D01*
G01*
G54D66*
X1045298Y312398D02*
X1044099Y313598D01*
X1041700D01*
X1040500Y312398D01*
Y311198D01*
X1041700Y309999D01*
X1044099D01*
X1045298Y308799D01*
Y307600D01*
X1044099Y306400D01*
X1041700D01*
X1040500Y307600D01*
X1047698Y311198D02*
Y307600D01*
X1048897Y306400D01*
X1052496D01*
Y305200D01*
X1051297Y304001D01*
X1050097D01*
X1052496Y306400D02*
Y311198D01*
X1054895Y306400D02*
Y311198D01*
X1056095D01*
X1057295Y309999D01*
Y306400D01*
Y309999D01*
X1058494Y311198D01*
X1059694Y309999D01*
Y306400D01*
X1062093Y313598D02*
Y306400D01*
X1065692D01*
X1066891Y307600D01*
Y308799D01*
Y309999D01*
X1065692Y311198D01*
X1062093D01*
X1070490Y306400D02*
X1072890D01*
X1074089Y307600D01*
Y309999D01*
X1072890Y311198D01*
X1070490D01*
X1069291Y309999D01*
Y307600D01*
X1070490Y306400D01*
X1076488D02*
X1078888D01*
X1077688D01*
Y313598D01*
X1076488D01*
X1090888D02*
Y306400D01*
Y309999D01*
X1095686D01*
Y313598D01*
Y306400D01*
X1098085D02*
X1100484D01*
X1099285D01*
Y311198D01*
X1098085D01*
X1105283Y312398D02*
Y311198D01*
X1104083D01*
X1106483D01*
X1105283D01*
Y307600D01*
X1106483Y306400D01*
X1122077Y312398D02*
X1120878Y313598D01*
X1118479D01*
X1117279Y312398D01*
Y307600D01*
X1118479Y306400D01*
X1120878D01*
X1122077Y307600D01*
X1125676Y306400D02*
X1128076D01*
X1129275Y307600D01*
Y309999D01*
X1128076Y311198D01*
X1125676D01*
X1124477Y309999D01*
Y307600D01*
X1125676Y306400D01*
X1131674Y311198D02*
Y307600D01*
X1132874Y306400D01*
X1136473D01*
Y311198D01*
X1138872Y306400D02*
Y311198D01*
X1142471D01*
X1143670Y309999D01*
Y306400D01*
X1147269Y312398D02*
Y311198D01*
X1146070D01*
X1148469D01*
X1147269D01*
Y307600D01*
X1148469Y306400D01*
X1165267Y313598D02*
X1160469D01*
Y309999D01*
X1162868D01*
X1160469D01*
Y306400D01*
X1167667D02*
X1170066D01*
X1168866D01*
Y311198D01*
X1167667D01*
X1173665Y306400D02*
Y311198D01*
X1177264D01*
X1178463Y309999D01*
Y306400D01*
X1180862D02*
X1183261D01*
X1182062D01*
Y311198D01*
X1180862D01*
X1186860Y306400D02*
X1190459D01*
X1191659Y307600D01*
X1190459Y308799D01*
X1188060D01*
X1186860Y309999D01*
X1188060Y311198D01*
X1191659D01*
X1194058Y313598D02*
Y306400D01*
Y309999D01*
X1195258Y311198D01*
X1197657D01*
X1198857Y309999D01*
Y306400D01*
X1204855D02*
X1202455D01*
X1201256Y307600D01*
Y309999D01*
X1202455Y311198D01*
X1204855D01*
X1206054Y309999D01*
Y308799D01*
X1201256D01*
X1213252Y313598D02*
Y306400D01*
X1209653D01*
X1208453Y307600D01*
Y309999D01*
X1209653Y311198D01*
X1213252D01*
X1222849Y313598D02*
Y306400D01*
Y309999D01*
X1227647D01*
Y313598D01*
Y306400D01*
X1231246D02*
X1233645D01*
X1234845Y307600D01*
Y309999D01*
X1233645Y311198D01*
X1231246D01*
X1230046Y309999D01*
Y307600D01*
X1231246Y306400D01*
X1237244D02*
X1239643D01*
X1238444D01*
Y313598D01*
X1237244D01*
X1246841Y306400D02*
X1244442D01*
X1243242Y307600D01*
Y309999D01*
X1244442Y311198D01*
X1246841D01*
X1248041Y309999D01*
Y308799D01*
X1243242D01*
X1262436Y312398D02*
X1261236Y313598D01*
X1258837D01*
X1257638Y312398D01*
Y311198D01*
X1258837Y309999D01*
X1261236D01*
X1262436Y308799D01*
Y307600D01*
X1261236Y306400D01*
X1258837D01*
X1257638Y307600D01*
X1264835Y306400D02*
X1267234D01*
X1266035D01*
Y311198D01*
X1264835D01*
X1270833D02*
X1275632D01*
X1270833Y306400D01*
X1275632D01*
X1281630D02*
X1279230D01*
X1278031Y307600D01*
Y309999D01*
X1279230Y311198D01*
X1281630D01*
X1282829Y309999D01*
Y308799D01*
X1278031D01*
X1294829Y306400D02*
Y313598D01*
X1298428D01*
X1299628Y312398D01*
Y309999D01*
X1298428Y308799D01*
X1294829D01*
X1302027Y306400D02*
X1304426D01*
X1303227D01*
Y313598D01*
X1302027D01*
X1309225Y311198D02*
X1311624D01*
X1312823Y309999D01*
Y306400D01*
X1309225D01*
X1308025Y307600D01*
X1309225Y308799D01*
X1312823D01*
X1316422Y312398D02*
Y311198D01*
X1315223D01*
X1317622D01*
X1316422D01*
Y307600D01*
X1317622Y306400D01*
X1324820D02*
X1322420D01*
X1321221Y307600D01*
Y309999D01*
X1322420Y311198D01*
X1324820D01*
X1326019Y309999D01*
Y308799D01*
X1321221D01*
X1333217Y313598D02*
Y306400D01*
X1329618D01*
X1328419Y307600D01*
Y309999D01*
X1329618Y311198D01*
X1333217D01*
X1345217Y313598D02*
Y306400D01*
Y309999D01*
X1350015D01*
Y313598D01*
Y306400D01*
X1353614D02*
X1356013D01*
X1357213Y307600D01*
Y309999D01*
X1356013Y311198D01*
X1353614D01*
X1352415Y309999D01*
Y307600D01*
X1353614Y306400D01*
X1359612D02*
X1362012D01*
X1360812D01*
Y313598D01*
X1359612D01*
X1369209Y306400D02*
X1366810D01*
X1365610Y307600D01*
Y309999D01*
X1366810Y311198D01*
X1369209D01*
X1370409Y309999D01*
Y308799D01*
X1365610D01*
X1380006Y313598D02*
X1384804D01*
X1382405D01*
Y306400D01*
X1387203Y311198D02*
Y307600D01*
X1388403Y306400D01*
X1392002D01*
Y305200D01*
X1390802Y304001D01*
X1389602D01*
X1392002Y306400D02*
Y311198D01*
X1394401Y304001D02*
Y311198D01*
X1398000D01*
X1399199Y309999D01*
Y307600D01*
X1398000Y306400D01*
X1394401D01*
X1405198D02*
X1402798D01*
X1401599Y307600D01*
Y309999D01*
X1402798Y311198D01*
X1405198D01*
X1406397Y309999D01*
Y308799D01*
X1401599D01*
X1031700Y317200D02*
X1418397D01*
X1031700Y301000D02*
X1418397D01*
X1031700Y317200D02*
Y145000D01*
X1418397Y317200D02*
Y145000D01*
X1086488Y317200D02*
Y145000D01*
X1156069Y317200D02*
Y145000D01*
X1290429Y317200D02*
Y145000D01*
X1340817Y317200D02*
Y145000D01*
X1031700Y157000D02*
X1418397D01*
X1031700Y145000D02*
X1418397D01*
G54D70*
X10500Y435500D02*
Y439500D01*
X14500D01*
Y435500D01*
X10500D01*
X865500D02*
Y439500D01*
X869500D01*
Y435500D01*
X865500D01*
Y860500D02*
Y864500D01*
X869500D01*
Y860500D01*
X865500D01*
X10500D02*
Y864500D01*
X14500D01*
Y860500D01*
X10500D01*
X865500Y10500D02*
Y14500D01*
X869500D01*
Y10500D01*
X865500D01*
X10500D02*
Y14500D01*
X14500D01*
Y10500D01*
X10500D01*
X268000Y261000D02*
X266000Y265000D01*
X270000D01*
X268000Y261000D01*
X278000D02*
X276000Y265000D01*
X280000D01*
X278000Y261000D01*
X248000D02*
X246000Y265000D01*
X250000D01*
X248000Y261000D01*
X238000D02*
X236000Y265000D01*
X240000D01*
X238000Y261000D01*
X228000D02*
X226000Y265000D01*
X230000D01*
X228000Y261000D01*
X132245Y144800D02*
X133245Y145800D01*
X134245D01*
X133245Y146800D01*
X134245Y147800D01*
X133245D01*
X132245Y148800D01*
X131245Y147800D01*
X130245D01*
X131245Y146800D01*
X130245Y145800D01*
X131245D01*
X132245Y144800D01*
Y164800D02*
X133245Y165800D01*
X134245D01*
X133245Y166800D01*
X134245Y167800D01*
X133245D01*
X132245Y168800D01*
X131245Y167800D01*
X130245D01*
X131245Y166800D01*
X130245Y165800D01*
X131245D01*
X132245Y164800D01*
Y154800D02*
X133245Y155800D01*
X134245D01*
X133245Y156800D01*
X134245Y157800D01*
X133245D01*
X132245Y158800D01*
X131245Y157800D01*
X130245D01*
X131245Y156800D01*
X130245Y155800D01*
X131245D01*
X132245Y154800D01*
X83300Y508100D02*
X84300Y510100D01*
X83300Y512100D01*
X85300Y511100D01*
X87300Y512100D01*
X86300Y510100D01*
X87300Y508100D01*
X85300Y509100D01*
X83300Y508100D01*
Y458100D02*
X84300Y460100D01*
X83300Y462100D01*
X85300Y461100D01*
X87300Y462100D01*
X86300Y460100D01*
X87300Y458100D01*
X85300Y459100D01*
X83300Y458100D01*
X63300Y508100D02*
X64300Y510100D01*
X63300Y512100D01*
X65300Y511100D01*
X67300Y512100D01*
X66300Y510100D01*
X67300Y508100D01*
X65300Y509100D01*
X63300Y508100D01*
Y458100D02*
X64300Y460100D01*
X63300Y462100D01*
X65300Y461100D01*
X67300Y462100D01*
X66300Y460100D01*
X67300Y458100D01*
X65300Y459100D01*
X63300Y458100D01*
X92000Y484100D02*
Y483100D01*
X94000D01*
Y484100D01*
X95000D01*
Y486100D01*
X94000D01*
Y487100D01*
X92000D01*
Y486100D01*
X91000D01*
Y484100D01*
X92000D01*
X56600D02*
Y483100D01*
X58600D01*
Y484100D01*
X59600D01*
Y486100D01*
X58600D01*
Y487100D01*
X56600D01*
Y486100D01*
X55600D01*
Y484100D01*
X56600D01*
X405700Y456700D02*
X406700D01*
X407700Y457700D01*
X408700Y456700D01*
X409700D01*
Y457700D01*
X408700Y458700D01*
X409700Y459700D01*
Y460700D01*
X408700D01*
X407700Y459700D01*
X406700Y460700D01*
X405700D01*
Y459700D01*
X406700Y458700D01*
X405700Y457700D01*
Y456700D01*
X415700D02*
X416700D01*
X417700Y457700D01*
X418700Y456700D01*
X419700D01*
Y457700D01*
X418700Y458700D01*
X419700Y459700D01*
Y460700D01*
X418700D01*
X417700Y459700D01*
X416700Y460700D01*
X415700D01*
Y459700D01*
X416700Y458700D01*
X415700Y457700D01*
Y456700D01*
X412000Y387500D02*
X414000Y389500D01*
X416000Y387500D01*
X414000Y385500D01*
X412000Y387500D01*
Y417500D02*
X414000Y419500D01*
X416000Y417500D01*
X414000Y415500D01*
X412000Y417500D01*
Y402500D02*
X414000Y404500D01*
X416000Y402500D01*
X414000Y400500D01*
X412000Y402500D01*
Y432500D02*
X414000Y434500D01*
X416000Y432500D01*
X414000Y430500D01*
X412000Y432500D01*
Y372500D02*
X414000Y374500D01*
X416000Y372500D01*
X414000Y370500D01*
X412000Y372500D01*
Y342500D02*
X414000Y344500D01*
X416000Y342500D01*
X414000Y340500D01*
X412000Y342500D01*
Y312500D02*
X414000Y314500D01*
X416000Y312500D01*
X414000Y310500D01*
X412000Y312500D01*
Y357500D02*
X414000Y359500D01*
X416000Y357500D01*
X414000Y355500D01*
X412000Y357500D01*
Y327500D02*
X414000Y329500D01*
X416000Y327500D01*
X414000Y325500D01*
X412000Y327500D01*
Y297500D02*
X414000Y299500D01*
X416000Y297500D01*
X414000Y295500D01*
X412000Y297500D01*
X74000Y387500D02*
X76000Y389500D01*
X78000Y387500D01*
X76000Y385500D01*
X74000Y387500D01*
Y417500D02*
X76000Y419500D01*
X78000Y417500D01*
X76000Y415500D01*
X74000Y417500D01*
Y402500D02*
X76000Y404500D01*
X78000Y402500D01*
X76000Y400500D01*
X74000Y402500D01*
Y432500D02*
X76000Y434500D01*
X78000Y432500D01*
X76000Y430500D01*
X74000Y432500D01*
Y372500D02*
X76000Y374500D01*
X78000Y372500D01*
X76000Y370500D01*
X74000Y372500D01*
Y342500D02*
X76000Y344500D01*
X78000Y342500D01*
X76000Y340500D01*
X74000Y342500D01*
Y312500D02*
X76000Y314500D01*
X78000Y312500D01*
X76000Y310500D01*
X74000Y312500D01*
Y357500D02*
X76000Y359500D01*
X78000Y357500D01*
X76000Y355500D01*
X74000Y357500D01*
Y327500D02*
X76000Y329500D01*
X78000Y327500D01*
X76000Y325500D01*
X74000Y327500D01*
Y297500D02*
X76000Y299500D01*
X78000Y297500D01*
X76000Y295500D01*
X74000Y297500D01*
X90000Y673500D02*
X91000D01*
X92000Y674500D01*
X93000Y673500D01*
X94000D01*
Y674500D01*
X93000Y675500D01*
X94000Y676500D01*
Y677500D01*
X93000D01*
X92000Y676500D01*
X91000Y677500D01*
X90000D01*
Y676500D01*
X91000Y675500D01*
X90000Y674500D01*
Y673500D01*
X80000D02*
X81000D01*
X82000Y674500D01*
X83000Y673500D01*
X84000D01*
Y674500D01*
X83000Y675500D01*
X84000Y676500D01*
Y677500D01*
X83000D01*
X82000Y676500D01*
X81000Y677500D01*
X80000D01*
Y676500D01*
X81000Y675500D01*
X80000Y674500D01*
Y673500D01*
X78000Y78000D02*
Y82000D01*
X82000D01*
Y78000D01*
X78000D01*
X78800Y78800D02*
Y81200D01*
X81200D01*
Y78800D01*
X78800D01*
X187800Y448500D02*
X188800D01*
X189800Y449500D01*
X190800Y448500D01*
X191800D01*
Y449500D01*
X190800Y450500D01*
X191800Y451500D01*
Y452500D01*
X190800D01*
X189800Y451500D01*
X188800Y452500D01*
X187800D01*
Y451500D01*
X188800Y450500D01*
X187800Y449500D01*
Y448500D01*
Y428500D02*
X188800D01*
X189800Y429500D01*
X190800Y428500D01*
X191800D01*
Y429500D01*
X190800Y430500D01*
X191800Y431500D01*
Y432500D01*
X190800D01*
X189800Y431500D01*
X188800Y432500D01*
X187800D01*
Y431500D01*
X188800Y430500D01*
X187800Y429500D01*
Y428500D01*
X172800Y448500D02*
X173800D01*
X174800Y449500D01*
X175800Y448500D01*
X176800D01*
Y449500D01*
X175800Y450500D01*
X176800Y451500D01*
Y452500D01*
X175800D01*
X174800Y451500D01*
X173800Y452500D01*
X172800D01*
Y451500D01*
X173800Y450500D01*
X172800Y449500D01*
Y448500D01*
Y428500D02*
X173800D01*
X174800Y429500D01*
X175800Y428500D01*
X176800D01*
Y429500D01*
X175800Y430500D01*
X176800Y431500D01*
Y432500D01*
X175800D01*
X174800Y431500D01*
X173800Y432500D01*
X172800D01*
Y431500D01*
X173800Y430500D01*
X172800Y429500D01*
Y428500D01*
X157800Y448500D02*
X158800D01*
X159800Y449500D01*
X160800Y448500D01*
X161800D01*
Y449500D01*
X160800Y450500D01*
X161800Y451500D01*
Y452500D01*
X160800D01*
X159800Y451500D01*
X158800Y452500D01*
X157800D01*
Y451500D01*
X158800Y450500D01*
X157800Y449500D01*
Y448500D01*
Y428500D02*
X158800D01*
X159800Y429500D01*
X160800Y428500D01*
X161800D01*
Y429500D01*
X160800Y430500D01*
X161800Y431500D01*
Y432500D01*
X160800D01*
X159800Y431500D01*
X158800Y432500D01*
X157800D01*
Y431500D01*
X158800Y430500D01*
X157800Y429500D01*
Y428500D01*
X142800Y448500D02*
X143800D01*
X144800Y449500D01*
X145800Y448500D01*
X146800D01*
Y449500D01*
X145800Y450500D01*
X146800Y451500D01*
Y452500D01*
X145800D01*
X144800Y451500D01*
X143800Y452500D01*
X142800D01*
Y451500D01*
X143800Y450500D01*
X142800Y449500D01*
Y448500D01*
Y428500D02*
X143800D01*
X144800Y429500D01*
X145800Y428500D01*
X146800D01*
Y429500D01*
X145800Y430500D01*
X146800Y431500D01*
Y432500D01*
X145800D01*
X144800Y431500D01*
X143800Y432500D01*
X142800D01*
Y431500D01*
X143800Y430500D01*
X142800Y429500D01*
Y428500D01*
X127800Y448500D02*
X128800D01*
X129800Y449500D01*
X130800Y448500D01*
X131800D01*
Y449500D01*
X130800Y450500D01*
X131800Y451500D01*
Y452500D01*
X130800D01*
X129800Y451500D01*
X128800Y452500D01*
X127800D01*
Y451500D01*
X128800Y450500D01*
X127800Y449500D01*
Y448500D01*
Y428500D02*
X128800D01*
X129800Y429500D01*
X130800Y428500D01*
X131800D01*
Y429500D01*
X130800Y430500D01*
X131800Y431500D01*
Y432500D01*
X130800D01*
X129800Y431500D01*
X128800Y432500D01*
X127800D01*
Y431500D01*
X128800Y430500D01*
X127800Y429500D01*
Y428500D01*
X112800Y448500D02*
X113800D01*
X114800Y449500D01*
X115800Y448500D01*
X116800D01*
Y449500D01*
X115800Y450500D01*
X116800Y451500D01*
Y452500D01*
X115800D01*
X114800Y451500D01*
X113800Y452500D01*
X112800D01*
Y451500D01*
X113800Y450500D01*
X112800Y449500D01*
Y448500D01*
Y428500D02*
X113800D01*
X114800Y429500D01*
X115800Y428500D01*
X116800D01*
Y429500D01*
X115800Y430500D01*
X116800Y431500D01*
Y432500D01*
X115800D01*
X114800Y431500D01*
X113800Y432500D01*
X112800D01*
Y431500D01*
X113800Y430500D01*
X112800Y429500D01*
Y428500D01*
X408000Y78000D02*
Y82000D01*
X412000D01*
Y78000D01*
X408000D01*
X408800Y78800D02*
Y81200D01*
X411200D01*
Y78800D01*
X408800D01*
X78000Y793000D02*
Y797000D01*
X82000D01*
Y793000D01*
X78000D01*
X78800Y793800D02*
Y796200D01*
X81200D01*
Y793800D01*
X78800D01*
X408000Y793000D02*
Y797000D01*
X412000D01*
Y793000D01*
X408000D01*
X408800Y793800D02*
Y796200D01*
X411200D01*
Y793800D01*
X408800D01*
X120000Y587500D02*
X118000Y591500D01*
X122000D01*
X120000Y587500D01*
Y588300D02*
X118800Y590700D01*
X121200D01*
X120000Y588300D01*
X110000Y587500D02*
X108000Y591500D01*
X112000D01*
X110000Y587500D01*
Y588300D02*
X108800Y590700D01*
X111200D01*
X110000Y588300D01*
X140000Y587500D02*
X138000Y591500D01*
X142000D01*
X140000Y587500D01*
Y588300D02*
X138800Y590700D01*
X141200D01*
X140000Y588300D01*
X120000Y557500D02*
X118000Y561500D01*
X122000D01*
X120000Y557500D01*
Y558300D02*
X118800Y560700D01*
X121200D01*
X120000Y558300D01*
X110000Y557500D02*
X108000Y561500D01*
X112000D01*
X110000Y557500D01*
Y558300D02*
X108800Y560700D01*
X111200D01*
X110000Y558300D01*
X140000Y557500D02*
X138000Y561500D01*
X142000D01*
X140000Y557500D01*
Y558300D02*
X138800Y560700D01*
X141200D01*
X140000Y558300D01*
X130000Y587500D02*
X128000Y591500D01*
X132000D01*
X130000Y587500D01*
Y588300D02*
X128800Y590700D01*
X131200D01*
X130000Y588300D01*
Y557500D02*
X128000Y561500D01*
X132000D01*
X130000Y557500D01*
Y558300D02*
X128800Y560700D01*
X131200D01*
X130000Y558300D01*
X170000Y587500D02*
X168000Y591500D01*
X172000D01*
X170000Y587500D01*
Y588300D02*
X168800Y590700D01*
X171200D01*
X170000Y588300D01*
X160000Y587500D02*
X158000Y591500D01*
X162000D01*
X160000Y587500D01*
Y588300D02*
X158800Y590700D01*
X161200D01*
X160000Y588300D01*
X190000Y587500D02*
X188000Y591500D01*
X192000D01*
X190000Y587500D01*
Y588300D02*
X188800Y590700D01*
X191200D01*
X190000Y588300D01*
X170000Y557500D02*
X168000Y561500D01*
X172000D01*
X170000Y557500D01*
Y558300D02*
X168800Y560700D01*
X171200D01*
X170000Y558300D01*
X160000Y557500D02*
X158000Y561500D01*
X162000D01*
X160000Y557500D01*
Y558300D02*
X158800Y560700D01*
X161200D01*
X160000Y558300D01*
X190000Y557500D02*
X188000Y561500D01*
X192000D01*
X190000Y557500D01*
Y558300D02*
X188800Y560700D01*
X191200D01*
X190000Y558300D01*
X180000Y587500D02*
X178000Y591500D01*
X182000D01*
X180000Y587500D01*
Y588300D02*
X178800Y590700D01*
X181200D01*
X180000Y588300D01*
Y557500D02*
X178000Y561500D01*
X182000D01*
X180000Y557500D01*
Y558300D02*
X178800Y560700D01*
X181200D01*
X180000Y558300D01*
X220000Y587500D02*
X218000Y591500D01*
X222000D01*
X220000Y587500D01*
Y588300D02*
X218800Y590700D01*
X221200D01*
X220000Y588300D01*
X210000Y587500D02*
X208000Y591500D01*
X212000D01*
X210000Y587500D01*
Y588300D02*
X208800Y590700D01*
X211200D01*
X210000Y588300D01*
X240000Y587500D02*
X238000Y591500D01*
X242000D01*
X240000Y587500D01*
Y588300D02*
X238800Y590700D01*
X241200D01*
X240000Y588300D01*
X220000Y557500D02*
X218000Y561500D01*
X222000D01*
X220000Y557500D01*
Y558300D02*
X218800Y560700D01*
X221200D01*
X220000Y558300D01*
X210000Y557500D02*
X208000Y561500D01*
X212000D01*
X210000Y557500D01*
Y558300D02*
X208800Y560700D01*
X211200D01*
X210000Y558300D01*
X240000Y557500D02*
X238000Y561500D01*
X242000D01*
X240000Y557500D01*
Y558300D02*
X238800Y560700D01*
X241200D01*
X240000Y558300D01*
X230000Y587500D02*
X228000Y591500D01*
X232000D01*
X230000Y587500D01*
Y588300D02*
X228800Y590700D01*
X231200D01*
X230000Y588300D01*
Y557500D02*
X228000Y561500D01*
X232000D01*
X230000Y557500D01*
Y558300D02*
X228800Y560700D01*
X231200D01*
X230000Y558300D01*
X270000Y587500D02*
X268000Y591500D01*
X272000D01*
X270000Y587500D01*
Y588300D02*
X268800Y590700D01*
X271200D01*
X270000Y588300D01*
X260000Y587500D02*
X258000Y591500D01*
X262000D01*
X260000Y587500D01*
Y588300D02*
X258800Y590700D01*
X261200D01*
X260000Y588300D01*
X290000Y587500D02*
X288000Y591500D01*
X292000D01*
X290000Y587500D01*
Y588300D02*
X288800Y590700D01*
X291200D01*
X290000Y588300D01*
X270000Y557500D02*
X268000Y561500D01*
X272000D01*
X270000Y557500D01*
Y558300D02*
X268800Y560700D01*
X271200D01*
X270000Y558300D01*
X260000Y557500D02*
X258000Y561500D01*
X262000D01*
X260000Y557500D01*
Y558300D02*
X258800Y560700D01*
X261200D01*
X260000Y558300D01*
X290000Y557500D02*
X288000Y561500D01*
X292000D01*
X290000Y557500D01*
Y558300D02*
X288800Y560700D01*
X291200D01*
X290000Y558300D01*
X280000Y587500D02*
X278000Y591500D01*
X282000D01*
X280000Y587500D01*
Y588300D02*
X278800Y590700D01*
X281200D01*
X280000Y588300D01*
Y557500D02*
X278000Y561500D01*
X282000D01*
X280000Y557500D01*
Y558300D02*
X278800Y560700D01*
X281200D01*
X280000Y558300D01*
X320000Y587500D02*
X318000Y591500D01*
X322000D01*
X320000Y587500D01*
Y588300D02*
X318800Y590700D01*
X321200D01*
X320000Y588300D01*
X310000Y587500D02*
X308000Y591500D01*
X312000D01*
X310000Y587500D01*
Y588300D02*
X308800Y590700D01*
X311200D01*
X310000Y588300D01*
X340000Y587500D02*
X338000Y591500D01*
X342000D01*
X340000Y587500D01*
Y588300D02*
X338800Y590700D01*
X341200D01*
X340000Y588300D01*
X320000Y557500D02*
X318000Y561500D01*
X322000D01*
X320000Y557500D01*
Y558300D02*
X318800Y560700D01*
X321200D01*
X320000Y558300D01*
X310000Y557500D02*
X308000Y561500D01*
X312000D01*
X310000Y557500D01*
Y558300D02*
X308800Y560700D01*
X311200D01*
X310000Y558300D01*
X340000Y557500D02*
X338000Y561500D01*
X342000D01*
X340000Y557500D01*
Y558300D02*
X338800Y560700D01*
X341200D01*
X340000Y558300D01*
X330000Y587500D02*
X328000Y591500D01*
X332000D01*
X330000Y587500D01*
Y588300D02*
X328800Y590700D01*
X331200D01*
X330000Y588300D01*
Y557500D02*
X328000Y561500D01*
X332000D01*
X330000Y557500D01*
Y558300D02*
X328800Y560700D01*
X331200D01*
X330000Y558300D01*
X370000Y587500D02*
X368000Y591500D01*
X372000D01*
X370000Y587500D01*
Y588300D02*
X368800Y590700D01*
X371200D01*
X370000Y588300D01*
X360000Y587500D02*
X358000Y591500D01*
X362000D01*
X360000Y587500D01*
Y588300D02*
X358800Y590700D01*
X361200D01*
X360000Y588300D01*
X390000Y587500D02*
X388000Y591500D01*
X392000D01*
X390000Y587500D01*
Y588300D02*
X388800Y590700D01*
X391200D01*
X390000Y588300D01*
X370000Y557500D02*
X368000Y561500D01*
X372000D01*
X370000Y557500D01*
Y558300D02*
X368800Y560700D01*
X371200D01*
X370000Y558300D01*
X360000Y557500D02*
X358000Y561500D01*
X362000D01*
X360000Y557500D01*
Y558300D02*
X358800Y560700D01*
X361200D01*
X360000Y558300D01*
X390000Y557500D02*
X388000Y561500D01*
X392000D01*
X390000Y557500D01*
Y558300D02*
X388800Y560700D01*
X391200D01*
X390000Y558300D01*
X380000Y587500D02*
X378000Y591500D01*
X382000D01*
X380000Y587500D01*
Y588300D02*
X378800Y590700D01*
X381200D01*
X380000Y588300D01*
Y557500D02*
X378000Y561500D01*
X382000D01*
X380000Y557500D01*
Y558300D02*
X378800Y560700D01*
X381200D01*
X380000Y558300D01*
X185000Y633000D02*
X183000Y637000D01*
X187000D01*
X185000Y633000D01*
Y633800D02*
X183800Y636200D01*
X186200D01*
X185000Y633800D01*
X155000Y633000D02*
X153000Y637000D01*
X157000D01*
X155000Y633000D01*
Y633800D02*
X153800Y636200D01*
X156200D01*
X155000Y633800D01*
X165000Y633000D02*
X163000Y637000D01*
X167000D01*
X165000Y633000D01*
Y633800D02*
X163800Y636200D01*
X166200D01*
X165000Y633800D01*
X135000Y633000D02*
X133000Y637000D01*
X137000D01*
X135000Y633000D01*
Y633800D02*
X133800Y636200D01*
X136200D01*
X135000Y633800D01*
X125000Y633000D02*
X123000Y637000D01*
X127000D01*
X125000Y633000D01*
Y633800D02*
X123800Y636200D01*
X126200D01*
X125000Y633800D01*
X185000Y663000D02*
X183000Y667000D01*
X187000D01*
X185000Y663000D01*
Y663800D02*
X183800Y666200D01*
X186200D01*
X185000Y663800D01*
X155000Y663000D02*
X153000Y667000D01*
X157000D01*
X155000Y663000D01*
Y663800D02*
X153800Y666200D01*
X156200D01*
X155000Y663800D01*
X165000Y663000D02*
X163000Y667000D01*
X167000D01*
X165000Y663000D01*
Y663800D02*
X163800Y666200D01*
X166200D01*
X165000Y663800D01*
X125000Y663000D02*
X123000Y667000D01*
X127000D01*
X125000Y663000D01*
Y663800D02*
X123800Y666200D01*
X126200D01*
X125000Y663800D01*
X135000Y663000D02*
X133000Y667000D01*
X137000D01*
X135000Y663000D01*
Y663800D02*
X133800Y666200D01*
X136200D01*
X135000Y663800D01*
X145000Y633000D02*
X143000Y637000D01*
X147000D01*
X145000Y633000D01*
Y633800D02*
X143800Y636200D01*
X146200D01*
X145000Y633800D01*
X175000Y633000D02*
X173000Y637000D01*
X177000D01*
X175000Y633000D01*
Y633800D02*
X173800Y636200D01*
X176200D01*
X175000Y633800D01*
X115000Y633000D02*
X113000Y637000D01*
X117000D01*
X115000Y633000D01*
Y633800D02*
X113800Y636200D01*
X116200D01*
X115000Y633800D01*
X145000Y663000D02*
X143000Y667000D01*
X147000D01*
X145000Y663000D01*
Y663800D02*
X143800Y666200D01*
X146200D01*
X145000Y663800D01*
X175000Y663000D02*
X173000Y667000D01*
X177000D01*
X175000Y663000D01*
Y663800D02*
X173800Y666200D01*
X176200D01*
X175000Y663800D01*
X115000Y663000D02*
X113000Y667000D01*
X117000D01*
X115000Y663000D01*
Y663800D02*
X113800Y666200D01*
X116200D01*
X115000Y663800D01*
X275000Y633000D02*
X273000Y637000D01*
X277000D01*
X275000Y633000D01*
Y633800D02*
X273800Y636200D01*
X276200D01*
X275000Y633800D01*
X245000Y633000D02*
X243000Y637000D01*
X247000D01*
X245000Y633000D01*
Y633800D02*
X243800Y636200D01*
X246200D01*
X245000Y633800D01*
X255000Y633000D02*
X253000Y637000D01*
X257000D01*
X255000Y633000D01*
Y633800D02*
X253800Y636200D01*
X256200D01*
X255000Y633800D01*
X225000Y633000D02*
X223000Y637000D01*
X227000D01*
X225000Y633000D01*
Y633800D02*
X223800Y636200D01*
X226200D01*
X225000Y633800D01*
X215000Y633000D02*
X213000Y637000D01*
X217000D01*
X215000Y633000D01*
Y633800D02*
X213800Y636200D01*
X216200D01*
X215000Y633800D01*
X275000Y663000D02*
X273000Y667000D01*
X277000D01*
X275000Y663000D01*
Y663800D02*
X273800Y666200D01*
X276200D01*
X275000Y663800D01*
X245000Y663000D02*
X243000Y667000D01*
X247000D01*
X245000Y663000D01*
Y663800D02*
X243800Y666200D01*
X246200D01*
X245000Y663800D01*
X255000Y663000D02*
X253000Y667000D01*
X257000D01*
X255000Y663000D01*
Y663800D02*
X253800Y666200D01*
X256200D01*
X255000Y663800D01*
X215000Y663000D02*
X213000Y667000D01*
X217000D01*
X215000Y663000D01*
Y663800D02*
X213800Y666200D01*
X216200D01*
X215000Y663800D01*
X225000Y663000D02*
X223000Y667000D01*
X227000D01*
X225000Y663000D01*
Y663800D02*
X223800Y666200D01*
X226200D01*
X225000Y663800D01*
X235000Y633000D02*
X233000Y637000D01*
X237000D01*
X235000Y633000D01*
Y633800D02*
X233800Y636200D01*
X236200D01*
X235000Y633800D01*
X265000Y633000D02*
X263000Y637000D01*
X267000D01*
X265000Y633000D01*
Y633800D02*
X263800Y636200D01*
X266200D01*
X265000Y633800D01*
X205000Y633000D02*
X203000Y637000D01*
X207000D01*
X205000Y633000D01*
Y633800D02*
X203800Y636200D01*
X206200D01*
X205000Y633800D01*
X235000Y663000D02*
X233000Y667000D01*
X237000D01*
X235000Y663000D01*
Y663800D02*
X233800Y666200D01*
X236200D01*
X235000Y663800D01*
X265000Y663000D02*
X263000Y667000D01*
X267000D01*
X265000Y663000D01*
Y663800D02*
X263800Y666200D01*
X266200D01*
X265000Y663800D01*
X205000Y663000D02*
X203000Y667000D01*
X207000D01*
X205000Y663000D01*
Y663800D02*
X203800Y666200D01*
X206200D01*
X205000Y663800D01*
X365000Y633000D02*
X363000Y637000D01*
X367000D01*
X365000Y633000D01*
Y633800D02*
X363800Y636200D01*
X366200D01*
X365000Y633800D01*
X335000Y633000D02*
X333000Y637000D01*
X337000D01*
X335000Y633000D01*
Y633800D02*
X333800Y636200D01*
X336200D01*
X335000Y633800D01*
X345000Y633000D02*
X343000Y637000D01*
X347000D01*
X345000Y633000D01*
Y633800D02*
X343800Y636200D01*
X346200D01*
X345000Y633800D01*
X315000Y633000D02*
X313000Y637000D01*
X317000D01*
X315000Y633000D01*
Y633800D02*
X313800Y636200D01*
X316200D01*
X315000Y633800D01*
X305000Y633000D02*
X303000Y637000D01*
X307000D01*
X305000Y633000D01*
Y633800D02*
X303800Y636200D01*
X306200D01*
X305000Y633800D01*
X365000Y663000D02*
X363000Y667000D01*
X367000D01*
X365000Y663000D01*
Y663800D02*
X363800Y666200D01*
X366200D01*
X365000Y663800D01*
X335000Y663000D02*
X333000Y667000D01*
X337000D01*
X335000Y663000D01*
Y663800D02*
X333800Y666200D01*
X336200D01*
X335000Y663800D01*
X345000Y663000D02*
X343000Y667000D01*
X347000D01*
X345000Y663000D01*
Y663800D02*
X343800Y666200D01*
X346200D01*
X345000Y663800D01*
X305000Y663000D02*
X303000Y667000D01*
X307000D01*
X305000Y663000D01*
Y663800D02*
X303800Y666200D01*
X306200D01*
X305000Y663800D01*
X315000Y663000D02*
X313000Y667000D01*
X317000D01*
X315000Y663000D01*
Y663800D02*
X313800Y666200D01*
X316200D01*
X315000Y663800D01*
X325000Y633000D02*
X323000Y637000D01*
X327000D01*
X325000Y633000D01*
Y633800D02*
X323800Y636200D01*
X326200D01*
X325000Y633800D01*
X355000Y633000D02*
X353000Y637000D01*
X357000D01*
X355000Y633000D01*
Y633800D02*
X353800Y636200D01*
X356200D01*
X355000Y633800D01*
X295000Y633000D02*
X293000Y637000D01*
X297000D01*
X295000Y633000D01*
Y633800D02*
X293800Y636200D01*
X296200D01*
X295000Y633800D01*
X325000Y663000D02*
X323000Y667000D01*
X327000D01*
X325000Y663000D01*
Y663800D02*
X323800Y666200D01*
X326200D01*
X325000Y663800D01*
X355000Y663000D02*
X353000Y667000D01*
X357000D01*
X355000Y663000D01*
Y663800D02*
X353800Y666200D01*
X356200D01*
X355000Y663800D01*
X295000Y663000D02*
X293000Y667000D01*
X297000D01*
X295000Y663000D01*
Y663800D02*
X293800Y666200D01*
X296200D01*
X295000Y663800D01*
X298000Y428000D02*
X299000D01*
X300000Y429000D01*
X301000Y428000D01*
X302000D01*
Y429000D01*
X301000Y430000D01*
X302000Y431000D01*
Y432000D01*
X301000D01*
X300000Y431000D01*
X299000Y432000D01*
X298000D01*
Y431000D01*
X299000Y430000D01*
X298000Y429000D01*
Y428000D01*
Y448000D02*
X299000D01*
X300000Y449000D01*
X301000Y448000D01*
X302000D01*
Y449000D01*
X301000Y450000D01*
X302000Y451000D01*
Y452000D01*
X301000D01*
X300000Y451000D01*
X299000Y452000D01*
X298000D01*
Y451000D01*
X299000Y450000D01*
X298000Y449000D01*
Y448000D01*
X313000Y428000D02*
X314000D01*
X315000Y429000D01*
X316000Y428000D01*
X317000D01*
Y429000D01*
X316000Y430000D01*
X317000Y431000D01*
Y432000D01*
X316000D01*
X315000Y431000D01*
X314000Y432000D01*
X313000D01*
Y431000D01*
X314000Y430000D01*
X313000Y429000D01*
Y428000D01*
Y448000D02*
X314000D01*
X315000Y449000D01*
X316000Y448000D01*
X317000D01*
Y449000D01*
X316000Y450000D01*
X317000Y451000D01*
Y452000D01*
X316000D01*
X315000Y451000D01*
X314000Y452000D01*
X313000D01*
Y451000D01*
X314000Y450000D01*
X313000Y449000D01*
Y448000D01*
X328000Y428000D02*
X329000D01*
X330000Y429000D01*
X331000Y428000D01*
X332000D01*
Y429000D01*
X331000Y430000D01*
X332000Y431000D01*
Y432000D01*
X331000D01*
X330000Y431000D01*
X329000Y432000D01*
X328000D01*
Y431000D01*
X329000Y430000D01*
X328000Y429000D01*
Y428000D01*
Y448000D02*
X329000D01*
X330000Y449000D01*
X331000Y448000D01*
X332000D01*
Y449000D01*
X331000Y450000D01*
X332000Y451000D01*
Y452000D01*
X331000D01*
X330000Y451000D01*
X329000Y452000D01*
X328000D01*
Y451000D01*
X329000Y450000D01*
X328000Y449000D01*
Y448000D01*
X343000Y428000D02*
X344000D01*
X345000Y429000D01*
X346000Y428000D01*
X347000D01*
Y429000D01*
X346000Y430000D01*
X347000Y431000D01*
Y432000D01*
X346000D01*
X345000Y431000D01*
X344000Y432000D01*
X343000D01*
Y431000D01*
X344000Y430000D01*
X343000Y429000D01*
Y428000D01*
Y448000D02*
X344000D01*
X345000Y449000D01*
X346000Y448000D01*
X347000D01*
Y449000D01*
X346000Y450000D01*
X347000Y451000D01*
Y452000D01*
X346000D01*
X345000Y451000D01*
X344000Y452000D01*
X343000D01*
Y451000D01*
X344000Y450000D01*
X343000Y449000D01*
Y448000D01*
X358000D02*
X359000D01*
X360000Y449000D01*
X361000Y448000D01*
X362000D01*
Y449000D01*
X361000Y450000D01*
X362000Y451000D01*
Y452000D01*
X361000D01*
X360000Y451000D01*
X359000Y452000D01*
X358000D01*
Y451000D01*
X359000Y450000D01*
X358000Y449000D01*
Y448000D01*
Y428000D02*
X359000D01*
X360000Y429000D01*
X361000Y428000D01*
X362000D01*
Y429000D01*
X361000Y430000D01*
X362000Y431000D01*
Y432000D01*
X361000D01*
X360000Y431000D01*
X359000Y432000D01*
X358000D01*
Y431000D01*
X359000Y430000D01*
X358000Y429000D01*
Y428000D01*
X373000D02*
X374000D01*
X375000Y429000D01*
X376000Y428000D01*
X377000D01*
Y429000D01*
X376000Y430000D01*
X377000Y431000D01*
Y432000D01*
X376000D01*
X375000Y431000D01*
X374000Y432000D01*
X373000D01*
Y431000D01*
X374000Y430000D01*
X373000Y429000D01*
Y428000D01*
Y448000D02*
X374000D01*
X375000Y449000D01*
X376000Y448000D01*
X377000D01*
Y449000D01*
X376000Y450000D01*
X377000Y451000D01*
Y452000D01*
X376000D01*
X375000Y451000D01*
X374000Y452000D01*
X373000D01*
Y451000D01*
X374000Y450000D01*
X373000Y449000D01*
Y448000D01*
X400200Y481000D02*
X401200D01*
X402200Y482000D01*
X403200Y481000D01*
X404200D01*
Y482000D01*
X403200Y483000D01*
X404200Y484000D01*
Y485000D01*
X403200D01*
X402200Y484000D01*
X401200Y485000D01*
X400200D01*
Y484000D01*
X401200Y483000D01*
X400200Y482000D01*
Y481000D01*
Y491000D02*
X401200D01*
X402200Y492000D01*
X403200Y491000D01*
X404200D01*
Y492000D01*
X403200Y493000D01*
X404200Y494000D01*
Y495000D01*
X403200D01*
X402200Y494000D01*
X401200Y495000D01*
X400200D01*
Y494000D01*
X401200Y493000D01*
X400200Y492000D01*
Y491000D01*
X429400D02*
X430400D01*
X431400Y492000D01*
X432400Y491000D01*
X433400D01*
Y492000D01*
X432400Y493000D01*
X433400Y494000D01*
Y495000D01*
X432400D01*
X431400Y494000D01*
X430400Y495000D01*
X429400D01*
Y494000D01*
X430400Y493000D01*
X429400Y492000D01*
Y491000D01*
Y481000D02*
X430400D01*
X431400Y482000D01*
X432400Y481000D01*
X433400D01*
Y482000D01*
X432400Y483000D01*
X433400Y484000D01*
Y485000D01*
X432400D01*
X431400Y484000D01*
X430400Y485000D01*
X429400D01*
Y484000D01*
X430400Y483000D01*
X429400Y482000D01*
Y481000D01*
X316882Y144800D02*
X317882Y145800D01*
X318882D01*
X317882Y146800D01*
X318882Y147800D01*
X317882D01*
X316882Y148800D01*
X315882Y147800D01*
X314882D01*
X315882Y146800D01*
X314882Y145800D01*
X315882D01*
X316882Y144800D01*
Y164800D02*
X317882Y165800D01*
X318882D01*
X317882Y166800D01*
X318882Y167800D01*
X317882D01*
X316882Y168800D01*
X315882Y167800D01*
X314882D01*
X315882Y166800D01*
X314882Y165800D01*
X315882D01*
X316882Y164800D01*
Y154800D02*
X317882Y155800D01*
X318882D01*
X317882Y156800D01*
X318882Y157800D01*
X317882D01*
X316882Y158800D01*
X315882Y157800D01*
X314882D01*
X315882Y156800D01*
X314882Y155800D01*
X315882D01*
X316882Y154800D01*
X409000Y195700D02*
X410000Y196700D01*
X411000D01*
X410000Y197700D01*
X411000Y198700D01*
X410000D01*
X409000Y199700D01*
X408000Y198700D01*
X407000D01*
X408000Y197700D01*
X407000Y196700D01*
X408000D01*
X409000Y195700D01*
Y215700D02*
X410000Y216700D01*
X411000D01*
X410000Y217700D01*
X411000Y218700D01*
X410000D01*
X409000Y219700D01*
X408000Y218700D01*
X407000D01*
X408000Y217700D01*
X407000Y216700D01*
X408000D01*
X409000Y215700D01*
Y205700D02*
X410000Y206700D01*
X411000D01*
X410000Y207700D01*
X411000Y208700D01*
X410000D01*
X409000Y209700D01*
X408000Y208700D01*
X407000D01*
X408000Y207700D01*
X407000Y206700D01*
X408000D01*
X409000Y205700D01*
X378427Y144800D02*
X379427Y145800D01*
X380427D01*
X379427Y146800D01*
X380427Y147800D01*
X379427D01*
X378427Y148800D01*
X377427Y147800D01*
X376427D01*
X377427Y146800D01*
X376427Y145800D01*
X377427D01*
X378427Y144800D01*
Y164800D02*
X379427Y165800D01*
X380427D01*
X379427Y166800D01*
X380427Y167800D01*
X379427D01*
X378427Y168800D01*
X377427Y167800D01*
X376427D01*
X377427Y166800D01*
X376427Y165800D01*
X377427D01*
X378427Y164800D01*
Y154800D02*
X379427Y155800D01*
X380427D01*
X379427Y156800D01*
X380427Y157800D01*
X379427D01*
X378427Y158800D01*
X377427Y157800D01*
X376427D01*
X377427Y156800D01*
X376427Y155800D01*
X377427D01*
X378427Y154800D01*
X347455Y195700D02*
X348454Y196700D01*
X349454D01*
X348454Y197700D01*
X349454Y198700D01*
X348454D01*
X347455Y199700D01*
X346455Y198700D01*
X345455D01*
X346455Y197700D01*
X345455Y196700D01*
X346455D01*
X347455Y195700D01*
Y215700D02*
X348454Y216700D01*
X349454D01*
X348454Y217700D01*
X349454Y218700D01*
X348454D01*
X347455Y219700D01*
X346455Y218700D01*
X345455D01*
X346455Y217700D01*
X345455Y216700D01*
X346455D01*
X347455Y215700D01*
Y205700D02*
X348454Y206700D01*
X349454D01*
X348454Y207700D01*
X349454Y208700D01*
X348454D01*
X347455Y209700D01*
X346455Y208700D01*
X345455D01*
X346455Y207700D01*
X345455Y206700D01*
X346455D01*
X347455Y205700D01*
X285909Y195700D02*
X286909Y196700D01*
X287909D01*
X286909Y197700D01*
X287909Y198700D01*
X286909D01*
X285909Y199700D01*
X284909Y198700D01*
X283909D01*
X284909Y197700D01*
X283909Y196700D01*
X284909D01*
X285909Y195700D01*
Y215700D02*
X286909Y216700D01*
X287909D01*
X286909Y217700D01*
X287909Y218700D01*
X286909D01*
X285909Y219700D01*
X284909Y218700D01*
X283909D01*
X284909Y217700D01*
X283909Y216700D01*
X284909D01*
X285909Y215700D01*
Y205700D02*
X286909Y206700D01*
X287909D01*
X286909Y207700D01*
X287909Y208700D01*
X286909D01*
X285909Y209700D01*
X284909Y208700D01*
X283909D01*
X284909Y207700D01*
X283909Y206700D01*
X284909D01*
X285909Y205700D01*
X255336Y144800D02*
X256336Y145800D01*
X257336D01*
X256336Y146800D01*
X257336Y147800D01*
X256336D01*
X255336Y148800D01*
X254336Y147800D01*
X253336D01*
X254336Y146800D01*
X253336Y145800D01*
X254336D01*
X255336Y144800D01*
Y164800D02*
X256336Y165800D01*
X257336D01*
X256336Y166800D01*
X257336Y167800D01*
X256336D01*
X255336Y168800D01*
X254336Y167800D01*
X253336D01*
X254336Y166800D01*
X253336Y165800D01*
X254336D01*
X255336Y164800D01*
Y154800D02*
X256336Y155800D01*
X257336D01*
X256336Y156800D01*
X257336Y157800D01*
X256336D01*
X255336Y158800D01*
X254336Y157800D01*
X253336D01*
X254336Y156800D01*
X253336Y155800D01*
X254336D01*
X255336Y154800D01*
X224364Y195700D02*
X225364Y196700D01*
X226364D01*
X225364Y197700D01*
X226364Y198700D01*
X225364D01*
X224364Y199700D01*
X223364Y198700D01*
X222364D01*
X223364Y197700D01*
X222364Y196700D01*
X223364D01*
X224364Y195700D01*
Y215700D02*
X225364Y216700D01*
X226364D01*
X225364Y217700D01*
X226364Y218700D01*
X225364D01*
X224364Y219700D01*
X223364Y218700D01*
X222364D01*
X223364Y217700D01*
X222364Y216700D01*
X223364D01*
X224364Y215700D01*
Y205700D02*
X225364Y206700D01*
X226364D01*
X225364Y207700D01*
X226364Y208700D01*
X225364D01*
X224364Y209700D01*
X223364Y208700D01*
X222364D01*
X223364Y207700D01*
X222364Y206700D01*
X223364D01*
X224364Y205700D01*
X193791Y144800D02*
X194791Y145800D01*
X195791D01*
X194791Y146800D01*
X195791Y147800D01*
X194791D01*
X193791Y148800D01*
X192791Y147800D01*
X191791D01*
X192791Y146800D01*
X191791Y145800D01*
X192791D01*
X193791Y144800D01*
Y164800D02*
X194791Y165800D01*
X195791D01*
X194791Y166800D01*
X195791Y167800D01*
X194791D01*
X193791Y168800D01*
X192791Y167800D01*
X191791D01*
X192791Y166800D01*
X191791Y165800D01*
X192791D01*
X193791Y164800D01*
Y154800D02*
X194791Y155800D01*
X195791D01*
X194791Y156800D01*
X195791Y157800D01*
X194791D01*
X193791Y158800D01*
X192791Y157800D01*
X191791D01*
X192791Y156800D01*
X191791Y155800D01*
X192791D01*
X193791Y154800D01*
X162818Y195700D02*
X163818Y196700D01*
X164818D01*
X163818Y197700D01*
X164818Y198700D01*
X163818D01*
X162818Y199700D01*
X161818Y198700D01*
X160818D01*
X161818Y197700D01*
X160818Y196700D01*
X161818D01*
X162818Y195700D01*
Y215700D02*
X163818Y216700D01*
X164818D01*
X163818Y217700D01*
X164818Y218700D01*
X163818D01*
X162818Y219700D01*
X161818Y218700D01*
X160818D01*
X161818Y217700D01*
X160818Y216700D01*
X161818D01*
X162818Y215700D01*
Y205700D02*
X163818Y206700D01*
X164818D01*
X163818Y207700D01*
X164818Y208700D01*
X163818D01*
X162818Y209700D01*
X161818Y208700D01*
X160818D01*
X161818Y207700D01*
X160818Y206700D01*
X161818D01*
X162818Y205700D01*
X101273Y195700D02*
X102273Y196700D01*
X103273D01*
X102273Y197700D01*
X103273Y198700D01*
X102273D01*
X101273Y199700D01*
X100273Y198700D01*
X99273D01*
X100273Y197700D01*
X99273Y196700D01*
X100273D01*
X101273Y195700D01*
Y215700D02*
X102273Y216700D01*
X103273D01*
X102273Y217700D01*
X103273Y218700D01*
X102273D01*
X101273Y219700D01*
X100273Y218700D01*
X99273D01*
X100273Y217700D01*
X99273Y216700D01*
X100273D01*
X101273Y215700D01*
Y205700D02*
X102273Y206700D01*
X103273D01*
X102273Y207700D01*
X103273Y208700D01*
X102273D01*
X101273Y209700D01*
X100273Y208700D01*
X99273D01*
X100273Y207700D01*
X99273Y206700D01*
X100273D01*
X101273Y205700D01*
X70700Y144800D02*
X71700Y145800D01*
X72700D01*
X71700Y146800D01*
X72700Y147800D01*
X71700D01*
X70700Y148800D01*
X69700Y147800D01*
X68700D01*
X69700Y146800D01*
X68700Y145800D01*
X69700D01*
X70700Y144800D01*
Y164800D02*
X71700Y165800D01*
X72700D01*
X71700Y166800D01*
X72700Y167800D01*
X71700D01*
X70700Y168800D01*
X69700Y167800D01*
X68700D01*
X69700Y166800D01*
X68700Y165800D01*
X69700D01*
X70700Y164800D01*
Y154800D02*
X71700Y155800D01*
X72700D01*
X71700Y156800D01*
X72700Y157800D01*
X71700D01*
X70700Y158800D01*
X69700Y157800D01*
X68700D01*
X69700Y156800D01*
X68700Y155800D01*
X69700D01*
X70700Y154800D01*
X428500Y266400D02*
X429500Y267400D01*
X430500D01*
X429500Y268400D01*
X430500Y269400D01*
X429500D01*
X428500Y270400D01*
X427500Y269400D01*
X426500D01*
X427500Y268400D01*
X426500Y267400D01*
X427500D01*
X428500Y266400D01*
X359600Y263700D02*
X360600Y264700D01*
X361600D01*
X360600Y265700D01*
X361600Y266700D01*
X360600D01*
X359600Y267700D01*
X358600Y266700D01*
X357600D01*
X358600Y265700D01*
X357600Y264700D01*
X358600D01*
X359600Y263700D01*
X385900Y279400D02*
X386900Y280400D01*
X387900D01*
X386900Y281400D01*
X387900Y282400D01*
X386900D01*
X385900Y283400D01*
X384900Y282400D01*
X383900D01*
X384900Y281400D01*
X383900Y280400D01*
X384900D01*
X385900Y279400D01*
X72400Y278900D02*
X73400Y279900D01*
X74400D01*
X73400Y280900D01*
X74400Y281900D01*
X73400D01*
X72400Y282900D01*
X71400Y281900D01*
X70400D01*
X71400Y280900D01*
X70400Y279900D01*
X71400D01*
X72400Y278900D01*
X139400Y254800D02*
X140400Y255800D01*
X141400D01*
X140400Y256800D01*
X141400Y257800D01*
X140400D01*
X139400Y258800D01*
X138400Y257800D01*
X137400D01*
X138400Y256800D01*
X137400Y255800D01*
X138400D01*
X139400Y254800D01*
X128300Y275400D02*
X129300Y276400D01*
X130300D01*
X129300Y277400D01*
X130300Y278400D01*
X129300D01*
X128300Y279400D01*
X127300Y278400D01*
X126300D01*
X127300Y277400D01*
X126300Y276400D01*
X127300D01*
X128300Y275400D01*
X126300Y72000D02*
X124300Y76000D01*
X128300D01*
X126300Y72000D01*
X288000Y759600D02*
X289000Y760600D01*
X290000D01*
X289000Y761600D01*
X290000Y762600D01*
X289000D01*
X288000Y763600D01*
X287000Y762600D01*
X286000D01*
X287000Y761600D01*
X286000Y760600D01*
X287000D01*
X288000Y759600D01*
Y760400D02*
X288600Y761000D01*
X289200D01*
X288600Y761600D01*
X289200Y762200D01*
X288600D01*
X288000Y762800D01*
X287400Y762200D01*
X286800D01*
X287400Y761600D01*
X286800Y761000D01*
X287400D01*
X288000Y760400D01*
X291700Y768400D02*
X292700Y769400D01*
X293700D01*
X292700Y770400D01*
X293700Y771400D01*
X292700D01*
X291700Y772400D01*
X290700Y771400D01*
X289700D01*
X290700Y770400D01*
X289700Y769400D01*
X290700D01*
X291700Y768400D01*
Y769200D02*
X292300Y769800D01*
X292900D01*
X292300Y770400D01*
X292900Y771000D01*
X292300D01*
X291700Y771600D01*
X291100Y771000D01*
X290500D01*
X291100Y770400D01*
X290500Y769800D01*
X291100D01*
X291700Y769200D01*
X273800Y768400D02*
X274800Y769400D01*
X275800D01*
X274800Y770400D01*
X275800Y771400D01*
X274800D01*
X273800Y772400D01*
X272800Y771400D01*
X271800D01*
X272800Y770400D01*
X271800Y769400D01*
X272800D01*
X273800Y768400D01*
Y769200D02*
X274400Y769800D01*
X275000D01*
X274400Y770400D01*
X275000Y771000D01*
X274400D01*
X273800Y771600D01*
X273200Y771000D01*
X272600D01*
X273200Y770400D01*
X272600Y769800D01*
X273200D01*
X273800Y769200D01*
X285000Y732700D02*
X286000Y733700D01*
X287000D01*
X286000Y734700D01*
X287000Y735700D01*
X286000D01*
X285000Y736700D01*
X284000Y735700D01*
X283000D01*
X284000Y734700D01*
X283000Y733700D01*
X284000D01*
X285000Y732700D01*
Y733500D02*
X285600Y734100D01*
X286200D01*
X285600Y734700D01*
X286200Y735300D01*
X285600D01*
X285000Y735900D01*
X284400Y735300D01*
X283800D01*
X284400Y734700D01*
X283800Y734100D01*
X284400D01*
X285000Y733500D01*
X218300Y781600D02*
X219300Y782600D01*
X220300D01*
X219300Y783600D01*
X220300Y784600D01*
X219300D01*
X218300Y785600D01*
X217300Y784600D01*
X216300D01*
X217300Y783600D01*
X216300Y782600D01*
X217300D01*
X218300Y781600D01*
Y782400D02*
X218900Y783000D01*
X219500D01*
X218900Y783600D01*
X219500Y784200D01*
X218900D01*
X218300Y784800D01*
X217700Y784200D01*
X217100D01*
X217700Y783600D01*
X217100Y783000D01*
X217700D01*
X218300Y782400D01*
X194600Y721300D02*
X192600Y725300D01*
X196600D01*
X194600Y721300D01*
X194900Y694900D02*
X192900Y698900D01*
X196900D01*
X194900Y694900D01*
X253200Y754600D02*
X254200Y755600D01*
X255200D01*
X254200Y756600D01*
X255200Y757600D01*
X254200D01*
X253200Y758600D01*
X252200Y757600D01*
X251200D01*
X252200Y756600D01*
X251200Y755600D01*
X252200D01*
X253200Y754600D01*
Y755400D02*
X253800Y756000D01*
X254400D01*
X253800Y756600D01*
X254400Y757200D01*
X253800D01*
X253200Y757800D01*
X252600Y757200D01*
X252000D01*
X252600Y756600D01*
X252000Y756000D01*
X252600D01*
X253200Y755400D01*
X415500Y494800D02*
X413500Y498800D01*
X417500D01*
X415500Y494800D01*
X393700Y470000D02*
X391700Y474000D01*
X395700D01*
X393700Y470000D01*
X83900Y445200D02*
X81900Y449200D01*
X85900D01*
X83900Y445200D01*
X58000Y716500D02*
X56000Y720500D01*
X60000D01*
X58000Y716500D01*
X62000Y725500D02*
X60000Y729500D01*
X64000D01*
X62000Y725500D01*
X102500Y757000D02*
X103500Y758000D01*
X104500D01*
X103500Y759000D01*
X104500Y760000D01*
X103500D01*
X102500Y761000D01*
X101500Y760000D01*
X100500D01*
X101500Y759000D01*
X100500Y758000D01*
X101500D01*
X102500Y757000D01*
Y757800D02*
X103100Y758400D01*
X103700D01*
X103100Y759000D01*
X103700Y759600D01*
X103100D01*
X102500Y760200D01*
X101900Y759600D01*
X101300D01*
X101900Y759000D01*
X101300Y758400D01*
X101900D01*
X102500Y757800D01*
X108500Y750500D02*
X109500Y751500D01*
X110500D01*
X109500Y752500D01*
X110500Y753500D01*
X109500D01*
X108500Y754500D01*
X107500Y753500D01*
X106500D01*
X107500Y752500D01*
X106500Y751500D01*
X107500D01*
X108500Y750500D01*
Y751300D02*
X109100Y751900D01*
X109700D01*
X109100Y752500D01*
X109700Y753100D01*
X109100D01*
X108500Y753700D01*
X107900Y753100D01*
X107300D01*
X107900Y752500D01*
X107300Y751900D01*
X107900D01*
X108500Y751300D01*
X318500Y505200D02*
X316500Y509200D01*
X320500D01*
X318500Y505200D01*
X326500D02*
X324500Y509200D01*
X328500D01*
X326500Y505200D01*
X296500D02*
X294500Y509200D01*
X298500D01*
X296500Y505200D01*
X356500D02*
X354500Y509200D01*
X358500D01*
X356500Y505200D01*
X348500D02*
X346500Y509200D01*
X350500D01*
X348500Y505200D01*
X378500D02*
X376500Y509200D01*
X380500D01*
X378500Y505200D01*
X390000Y500500D02*
X388000Y504500D01*
X392000D01*
X390000Y500500D01*
X188500Y505200D02*
X186500Y509200D01*
X190500D01*
X188500Y505200D01*
X158500D02*
X156500Y509200D01*
X160500D01*
X158500Y505200D01*
X166500D02*
X164500Y509200D01*
X168500D01*
X166500Y505200D01*
X106500D02*
X104500Y509200D01*
X108500D01*
X106500Y505200D01*
X136500D02*
X134500Y509200D01*
X138500D01*
X136500Y505200D01*
X128500D02*
X126500Y509200D01*
X130500D01*
X128500Y505200D01*
X275200Y492600D02*
X276200Y493600D01*
X277200D01*
X276200Y494600D01*
X277200Y495600D01*
X276200D01*
X275200Y496600D01*
X274200Y495600D01*
X273200D01*
X274200Y494600D01*
X273200Y493600D01*
X274200D01*
X275200Y492600D01*
Y493400D02*
X275800Y494000D01*
X276400D01*
X275800Y494600D01*
X276400Y495200D01*
X275800D01*
X275200Y495800D01*
X274600Y495200D01*
X274000D01*
X274600Y494600D01*
X274000Y494000D01*
X274600D01*
X275200Y493400D01*
X263500Y497100D02*
X264500Y498100D01*
X265500D01*
X264500Y499100D01*
X265500Y500100D01*
X264500D01*
X263500Y501100D01*
X262500Y500100D01*
X261500D01*
X262500Y499100D01*
X261500Y498100D01*
X262500D01*
X263500Y497100D01*
Y497900D02*
X264100Y498500D01*
X264700D01*
X264100Y499100D01*
X264700Y499700D01*
X264100D01*
X263500Y500300D01*
X262900Y499700D01*
X262300D01*
X262900Y499100D01*
X262300Y498500D01*
X262900D01*
X263500Y497900D01*
X265600Y478200D02*
X266600Y479200D01*
X267600D01*
X266600Y480200D01*
X267600Y481200D01*
X266600D01*
X265600Y482200D01*
X264600Y481200D01*
X263600D01*
X264600Y480200D01*
X263600Y479200D01*
X264600D01*
X265600Y478200D01*
Y479000D02*
X266200Y479600D01*
X266800D01*
X266200Y480200D01*
X266800Y480800D01*
X266200D01*
X265600Y481400D01*
X265000Y480800D01*
X264400D01*
X265000Y480200D01*
X264400Y479600D01*
X265000D01*
X265600Y479000D01*
X272810Y472390D02*
X273810Y473390D01*
X274810D01*
X273810Y474390D01*
X274810Y475390D01*
X273810D01*
X272810Y476390D01*
X271810Y475390D01*
X270810D01*
X271810Y474390D01*
X270810Y473390D01*
X271810D01*
X272810Y472390D01*
Y473190D02*
X273410Y473790D01*
X274010D01*
X273410Y474390D01*
X274010Y474990D01*
X273410D01*
X272810Y475590D01*
X272210Y474990D01*
X271610D01*
X272210Y474390D01*
X271610Y473790D01*
X272210D01*
X272810Y473190D01*
X244200Y479200D02*
X245200Y480200D01*
X246200D01*
X245200Y481200D01*
X246200Y482200D01*
X245200D01*
X244200Y483200D01*
X243200Y482200D01*
X242200D01*
X243200Y481200D01*
X242200Y480200D01*
X243200D01*
X244200Y479200D01*
Y480000D02*
X244800Y480600D01*
X245400D01*
X244800Y481200D01*
X245400Y481800D01*
X244800D01*
X244200Y482400D01*
X243600Y481800D01*
X243000D01*
X243600Y481200D01*
X243000Y480600D01*
X243600D01*
X244200Y480000D01*
X260900Y476800D02*
X261900Y477800D01*
X262900D01*
X261900Y478800D01*
X262900Y479800D01*
X261900D01*
X260900Y480800D01*
X259900Y479800D01*
X258900D01*
X259900Y478800D01*
X258900Y477800D01*
X259900D01*
X260900Y476800D01*
Y477600D02*
X261500Y478200D01*
X262100D01*
X261500Y478800D01*
X262100Y479400D01*
X261500D01*
X260900Y480000D01*
X260300Y479400D01*
X259700D01*
X260300Y478800D01*
X259700Y478200D01*
X260300D01*
X260900Y477600D01*
X235900Y492700D02*
X236900Y493700D01*
X237900D01*
X236900Y494700D01*
X237900Y495700D01*
X236900D01*
X235900Y496700D01*
X234900Y495700D01*
X233900D01*
X234900Y494700D01*
X233900Y493700D01*
X234900D01*
X235900Y492700D01*
Y493500D02*
X236500Y494100D01*
X237100D01*
X236500Y494700D01*
X237100Y495300D01*
X236500D01*
X235900Y495900D01*
X235300Y495300D01*
X234700D01*
X235300Y494700D01*
X234700Y494100D01*
X235300D01*
X235900Y493500D01*
X230800Y493100D02*
X231800Y494100D01*
X232800D01*
X231800Y495100D01*
X232800Y496100D01*
X231800D01*
X230800Y497100D01*
X229800Y496100D01*
X228800D01*
X229800Y495100D01*
X228800Y494100D01*
X229800D01*
X230800Y493100D01*
Y493900D02*
X231400Y494500D01*
X232000D01*
X231400Y495100D01*
X232000Y495700D01*
X231400D01*
X230800Y496300D01*
X230200Y495700D01*
X229600D01*
X230200Y495100D01*
X229600Y494500D01*
X230200D01*
X230800Y493900D01*
X208700Y482200D02*
X209700Y483200D01*
X210700D01*
X209700Y484200D01*
X210700Y485200D01*
X209700D01*
X208700Y486200D01*
X207700Y485200D01*
X206700D01*
X207700Y484200D01*
X206700Y483200D01*
X207700D01*
X208700Y482200D01*
Y483000D02*
X209300Y483600D01*
X209900D01*
X209300Y484200D01*
X209900Y484800D01*
X209300D01*
X208700Y485400D01*
X208100Y484800D01*
X207500D01*
X208100Y484200D01*
X207500Y483600D01*
X208100D01*
X208700Y483000D01*
X219300Y475400D02*
X220300Y476400D01*
X221300D01*
X220300Y477400D01*
X221300Y478400D01*
X220300D01*
X219300Y479400D01*
X218300Y478400D01*
X217300D01*
X218300Y477400D01*
X217300Y476400D01*
X218300D01*
X219300Y475400D01*
Y476200D02*
X219900Y476800D01*
X220500D01*
X219900Y477400D01*
X220500Y478000D01*
X219900D01*
X219300Y478600D01*
X218700Y478000D01*
X218100D01*
X218700Y477400D01*
X218100Y476800D01*
X218700D01*
X219300Y476200D01*
X169500Y778000D02*
X170500Y779000D01*
X171500D01*
X170500Y780000D01*
X171500Y781000D01*
X170500D01*
X169500Y782000D01*
X168500Y781000D01*
X167500D01*
X168500Y780000D01*
X167500Y779000D01*
X168500D01*
X169500Y778000D01*
Y778800D02*
X170100Y779400D01*
X170700D01*
X170100Y780000D01*
X170700Y780600D01*
X170100D01*
X169500Y781200D01*
X168900Y780600D01*
X168300D01*
X168900Y780000D01*
X168300Y779400D01*
X168900D01*
X169500Y778800D01*
X172600Y770700D02*
X173600Y771700D01*
X174600D01*
X173600Y772700D01*
X174600Y773700D01*
X173600D01*
X172600Y774700D01*
X171600Y773700D01*
X170600D01*
X171600Y772700D01*
X170600Y771700D01*
X171600D01*
X172600Y770700D01*
Y771500D02*
X173200Y772100D01*
X173800D01*
X173200Y772700D01*
X173800Y773300D01*
X173200D01*
X172600Y773900D01*
X172000Y773300D01*
X171400D01*
X172000Y772700D01*
X171400Y772100D01*
X172000D01*
X172600Y771500D01*
X177900Y756000D02*
X178900Y757000D01*
X179900D01*
X178900Y758000D01*
X179900Y759000D01*
X178900D01*
X177900Y760000D01*
X176900Y759000D01*
X175900D01*
X176900Y758000D01*
X175900Y757000D01*
X176900D01*
X177900Y756000D01*
Y756800D02*
X178500Y757400D01*
X179100D01*
X178500Y758000D01*
X179100Y758600D01*
X178500D01*
X177900Y759200D01*
X177300Y758600D01*
X176700D01*
X177300Y758000D01*
X176700Y757400D01*
X177300D01*
X177900Y756800D01*
X163200Y755500D02*
X164200Y756500D01*
X165200D01*
X164200Y757500D01*
X165200Y758500D01*
X164200D01*
X163200Y759500D01*
X162200Y758500D01*
X161200D01*
X162200Y757500D01*
X161200Y756500D01*
X162200D01*
X163200Y755500D01*
Y756300D02*
X163800Y756900D01*
X164400D01*
X163800Y757500D01*
X164400Y758100D01*
X163800D01*
X163200Y758700D01*
X162600Y758100D01*
X162000D01*
X162600Y757500D01*
X162000Y756900D01*
X162600D01*
X163200Y756300D01*
X177700Y763100D02*
X178700Y764100D01*
X179700D01*
X178700Y765100D01*
X179700Y766100D01*
X178700D01*
X177700Y767100D01*
X176700Y766100D01*
X175700D01*
X176700Y765100D01*
X175700Y764100D01*
X176700D01*
X177700Y763100D01*
Y763900D02*
X178300Y764500D01*
X178900D01*
X178300Y765100D01*
X178900Y765700D01*
X178300D01*
X177700Y766300D01*
X177100Y765700D01*
X176500D01*
X177100Y765100D01*
X176500Y764500D01*
X177100D01*
X177700Y763900D01*
X166700Y763000D02*
X167700Y764000D01*
X168700D01*
X167700Y765000D01*
X168700Y766000D01*
X167700D01*
X166700Y767000D01*
X165700Y766000D01*
X164700D01*
X165700Y765000D01*
X164700Y764000D01*
X165700D01*
X166700Y763000D01*
Y763800D02*
X167300Y764400D01*
X167900D01*
X167300Y765000D01*
X167900Y765600D01*
X167300D01*
X166700Y766200D01*
X166100Y765600D01*
X165500D01*
X166100Y765000D01*
X165500Y764400D01*
X166100D01*
X166700Y763800D01*
X179800Y735300D02*
X180800Y736300D01*
X181800D01*
X180800Y737300D01*
X181800Y738300D01*
X180800D01*
X179800Y739300D01*
X178800Y738300D01*
X177800D01*
X178800Y737300D01*
X177800Y736300D01*
X178800D01*
X179800Y735300D01*
Y736100D02*
X180400Y736700D01*
X181000D01*
X180400Y737300D01*
X181000Y737900D01*
X180400D01*
X179800Y738500D01*
X179200Y737900D01*
X178600D01*
X179200Y737300D01*
X178600Y736700D01*
X179200D01*
X179800Y736100D01*
X248200Y755500D02*
X249200Y756500D01*
X250200D01*
X249200Y757500D01*
X250200Y758500D01*
X249200D01*
X248200Y759500D01*
X247200Y758500D01*
X246200D01*
X247200Y757500D01*
X246200Y756500D01*
X247200D01*
X248200Y755500D01*
Y756300D02*
X248800Y756900D01*
X249400D01*
X248800Y757500D01*
X249400Y758100D01*
X248800D01*
X248200Y758700D01*
X247600Y758100D01*
X247000D01*
X247600Y757500D01*
X247000Y756900D01*
X247600D01*
X248200Y756300D01*
X252700Y761500D02*
X253700Y762500D01*
X254700D01*
X253700Y763500D01*
X254700Y764500D01*
X253700D01*
X252700Y765500D01*
X251700Y764500D01*
X250700D01*
X251700Y763500D01*
X250700Y762500D01*
X251700D01*
X252700Y761500D01*
Y762300D02*
X253300Y762900D01*
X253900D01*
X253300Y763500D01*
X253900Y764100D01*
X253300D01*
X252700Y764700D01*
X252100Y764100D01*
X251500D01*
X252100Y763500D01*
X251500Y762900D01*
X252100D01*
X252700Y762300D01*
X243200Y774200D02*
X244200Y775200D01*
X245200D01*
X244200Y776200D01*
X245200Y777200D01*
X244200D01*
X243200Y778200D01*
X242200Y777200D01*
X241200D01*
X242200Y776200D01*
X241200Y775200D01*
X242200D01*
X243200Y774200D01*
Y775000D02*
X243800Y775600D01*
X244400D01*
X243800Y776200D01*
X244400Y776800D01*
X243800D01*
X243200Y777400D01*
X242600Y776800D01*
X242000D01*
X242600Y776200D01*
X242000Y775600D01*
X242600D01*
X243200Y775000D01*
X229500Y763600D02*
X230500Y764600D01*
X231500D01*
X230500Y765600D01*
X231500Y766600D01*
X230500D01*
X229500Y767600D01*
X228500Y766600D01*
X227500D01*
X228500Y765600D01*
X227500Y764600D01*
X228500D01*
X229500Y763600D01*
Y764400D02*
X230100Y765000D01*
X230700D01*
X230100Y765600D01*
X230700Y766200D01*
X230100D01*
X229500Y766800D01*
X228900Y766200D01*
X228300D01*
X228900Y765600D01*
X228300Y765000D01*
X228900D01*
X229500Y764400D01*
X208600Y758700D02*
X209600Y759700D01*
X210600D01*
X209600Y760700D01*
X210600Y761700D01*
X209600D01*
X208600Y762700D01*
X207600Y761700D01*
X206600D01*
X207600Y760700D01*
X206600Y759700D01*
X207600D01*
X208600Y758700D01*
Y759500D02*
X209200Y760100D01*
X209800D01*
X209200Y760700D01*
X209800Y761300D01*
X209200D01*
X208600Y761900D01*
X208000Y761300D01*
X207400D01*
X208000Y760700D01*
X207400Y760100D01*
X208000D01*
X208600Y759500D01*
X226100Y746400D02*
X227100Y747400D01*
X228100D01*
X227100Y748400D01*
X228100Y749400D01*
X227100D01*
X226100Y750400D01*
X225100Y749400D01*
X224100D01*
X225100Y748400D01*
X224100Y747400D01*
X225100D01*
X226100Y746400D01*
Y747200D02*
X226700Y747800D01*
X227300D01*
X226700Y748400D01*
X227300Y749000D01*
X226700D01*
X226100Y749600D01*
X225500Y749000D01*
X224900D01*
X225500Y748400D01*
X224900Y747800D01*
X225500D01*
X226100Y747200D01*
X240984Y761500D02*
X241984Y762500D01*
X242984D01*
X241984Y763500D01*
X242984Y764500D01*
X241984D01*
X240984Y765500D01*
X239984Y764500D01*
X238984D01*
X239984Y763500D01*
X238984Y762500D01*
X239984D01*
X240984Y761500D01*
Y762300D02*
X241584Y762900D01*
X242184D01*
X241584Y763500D01*
X242184Y764100D01*
X241584D01*
X240984Y764700D01*
X240384Y764100D01*
X239784D01*
X240384Y763500D01*
X239784Y762900D01*
X240384D01*
X240984Y762300D01*
X238800Y751100D02*
X239800Y752100D01*
X240800D01*
X239800Y753100D01*
X240800Y754100D01*
X239800D01*
X238800Y755100D01*
X237800Y754100D01*
X236800D01*
X237800Y753100D01*
X236800Y752100D01*
X237800D01*
X238800Y751100D01*
Y751900D02*
X239400Y752500D01*
X240000D01*
X239400Y753100D01*
X240000Y753700D01*
X239400D01*
X238800Y754300D01*
X238200Y753700D01*
X237600D01*
X238200Y753100D01*
X237600Y752500D01*
X238200D01*
X238800Y751900D01*
X235100Y755579D02*
X236100Y756579D01*
X237100D01*
X236100Y757579D01*
X237100Y758579D01*
X236100D01*
X235100Y759579D01*
X234100Y758579D01*
X233100D01*
X234100Y757579D01*
X233100Y756579D01*
X234100D01*
X235100Y755579D01*
Y756379D02*
X235700Y756979D01*
X236300D01*
X235700Y757579D01*
X236300Y758179D01*
X235700D01*
X235100Y758779D01*
X234500Y758179D01*
X233900D01*
X234500Y757579D01*
X233900Y756979D01*
X234500D01*
X235100Y756379D01*
X236300Y774400D02*
X237300Y775400D01*
X238300D01*
X237300Y776400D01*
X238300Y777400D01*
X237300D01*
X236300Y778400D01*
X235300Y777400D01*
X234300D01*
X235300Y776400D01*
X234300Y775400D01*
X235300D01*
X236300Y774400D01*
Y775200D02*
X236900Y775800D01*
X237500D01*
X236900Y776400D01*
X237500Y777000D01*
X236900D01*
X236300Y777600D01*
X235700Y777000D01*
X235100D01*
X235700Y776400D01*
X235100Y775800D01*
X235700D01*
X236300Y775200D01*
X192000Y749900D02*
X193000Y750900D01*
X194000D01*
X193000Y751900D01*
X194000Y752900D01*
X193000D01*
X192000Y753900D01*
X191000Y752900D01*
X190000D01*
X191000Y751900D01*
X190000Y750900D01*
X191000D01*
X192000Y749900D01*
Y750700D02*
X192600Y751300D01*
X193200D01*
X192600Y751900D01*
X193200Y752500D01*
X192600D01*
X192000Y753100D01*
X191400Y752500D01*
X190800D01*
X191400Y751900D01*
X190800Y751300D01*
X191400D01*
X192000Y750700D01*
X226400Y730200D02*
X227400Y731200D01*
X228400D01*
X227400Y732200D01*
X228400Y733200D01*
X227400D01*
X226400Y734200D01*
X225400Y733200D01*
X224400D01*
X225400Y732200D01*
X224400Y731200D01*
X225400D01*
X226400Y730200D01*
Y731000D02*
X227000Y731600D01*
X227600D01*
X227000Y732200D01*
X227600Y732800D01*
X227000D01*
X226400Y733400D01*
X225800Y732800D01*
X225200D01*
X225800Y732200D01*
X225200Y731600D01*
X225800D01*
X226400Y731000D01*
X221900Y732000D02*
X222900Y733000D01*
X223900D01*
X222900Y734000D01*
X223900Y735000D01*
X222900D01*
X221900Y736000D01*
X220900Y735000D01*
X219900D01*
X220900Y734000D01*
X219900Y733000D01*
X220900D01*
X221900Y732000D01*
Y732800D02*
X222500Y733400D01*
X223100D01*
X222500Y734000D01*
X223100Y734600D01*
X222500D01*
X221900Y735200D01*
X221300Y734600D01*
X220700D01*
X221300Y734000D01*
X220700Y733400D01*
X221300D01*
X221900Y732800D01*
X297800Y749500D02*
X295800Y753500D01*
X299800D01*
X297800Y749500D01*
X93200Y703900D02*
X91200Y707900D01*
X95200D01*
X93200Y703900D01*
X76100Y680800D02*
X77100Y681800D01*
X78100D01*
X77100Y682800D01*
X78100Y683800D01*
X77100D01*
X76100Y684800D01*
X75100Y683800D01*
X74100D01*
X75100Y682800D01*
X74100Y681800D01*
X75100D01*
X76100Y680800D01*
Y681600D02*
X76700Y682200D01*
X77300D01*
X76700Y682800D01*
X77300Y683400D01*
X76700D01*
X76100Y684000D01*
X75500Y683400D01*
X74900D01*
X75500Y682800D01*
X74900Y682200D01*
X75500D01*
X76100Y681600D01*
X58000Y662500D02*
X56000Y666500D01*
X60000D01*
X58000Y662500D01*
X278300Y426800D02*
X279300Y427800D01*
X280300D01*
X279300Y428800D01*
X280300Y429800D01*
X279300D01*
X278300Y430800D01*
X277300Y429800D01*
X276300D01*
X277300Y428800D01*
X276300Y427800D01*
X277300D01*
X278300Y426800D01*
Y427600D02*
X278900Y428200D01*
X279500D01*
X278900Y428800D01*
X279500Y429400D01*
X278900D01*
X278300Y430000D01*
X277700Y429400D01*
X277100D01*
X277700Y428800D01*
X277100Y428200D01*
X277700D01*
X278300Y427600D01*
X230200Y438600D02*
X231200Y439600D01*
X232200D01*
X231200Y440600D01*
X232200Y441600D01*
X231200D01*
X230200Y442600D01*
X229200Y441600D01*
X228200D01*
X229200Y440600D01*
X228200Y439600D01*
X229200D01*
X230200Y438600D01*
Y439400D02*
X230800Y440000D01*
X231400D01*
X230800Y440600D01*
X231400Y441200D01*
X230800D01*
X230200Y441800D01*
X229600Y441200D01*
X229000D01*
X229600Y440600D01*
X229000Y440000D01*
X229600D01*
X230200Y439400D01*
X377800Y788800D02*
X378800Y789800D01*
X379800D01*
X378800Y790800D01*
X379800Y791800D01*
X378800D01*
X377800Y792800D01*
X376800Y791800D01*
X375800D01*
X376800Y790800D01*
X375800Y789800D01*
X376800D01*
X377800Y788800D01*
Y789600D02*
X378400Y790200D01*
X379000D01*
X378400Y790800D01*
X379000Y791400D01*
X378400D01*
X377800Y792000D01*
X377200Y791400D01*
X376600D01*
X377200Y790800D01*
X376600Y790200D01*
X377200D01*
X377800Y789600D01*
X367800Y788800D02*
X368800Y789800D01*
X369800D01*
X368800Y790800D01*
X369800Y791800D01*
X368800D01*
X367800Y792800D01*
X366800Y791800D01*
X365800D01*
X366800Y790800D01*
X365800Y789800D01*
X366800D01*
X367800Y788800D01*
Y789600D02*
X368400Y790200D01*
X369000D01*
X368400Y790800D01*
X369000Y791400D01*
X368400D01*
X367800Y792000D01*
X367200Y791400D01*
X366600D01*
X367200Y790800D01*
X366600Y790200D01*
X367200D01*
X367800Y789600D01*
X357800Y788800D02*
X358800Y789800D01*
X359800D01*
X358800Y790800D01*
X359800Y791800D01*
X358800D01*
X357800Y792800D01*
X356800Y791800D01*
X355800D01*
X356800Y790800D01*
X355800Y789800D01*
X356800D01*
X357800Y788800D01*
Y789600D02*
X358400Y790200D01*
X359000D01*
X358400Y790800D01*
X359000Y791400D01*
X358400D01*
X357800Y792000D01*
X357200Y791400D01*
X356600D01*
X357200Y790800D01*
X356600Y790200D01*
X357200D01*
X357800Y789600D01*
X347800Y788800D02*
X348800Y789800D01*
X349800D01*
X348800Y790800D01*
X349800Y791800D01*
X348800D01*
X347800Y792800D01*
X346800Y791800D01*
X345800D01*
X346800Y790800D01*
X345800Y789800D01*
X346800D01*
X347800Y788800D01*
Y789600D02*
X348400Y790200D01*
X349000D01*
X348400Y790800D01*
X349000Y791400D01*
X348400D01*
X347800Y792000D01*
X347200Y791400D01*
X346600D01*
X347200Y790800D01*
X346600Y790200D01*
X347200D01*
X347800Y789600D01*
X337800Y788800D02*
X338800Y789800D01*
X339800D01*
X338800Y790800D01*
X339800Y791800D01*
X338800D01*
X337800Y792800D01*
X336800Y791800D01*
X335800D01*
X336800Y790800D01*
X335800Y789800D01*
X336800D01*
X337800Y788800D01*
Y789600D02*
X338400Y790200D01*
X339000D01*
X338400Y790800D01*
X339000Y791400D01*
X338400D01*
X337800Y792000D01*
X337200Y791400D01*
X336600D01*
X337200Y790800D01*
X336600Y790200D01*
X337200D01*
X337800Y789600D01*
X327800Y788800D02*
X328800Y789800D01*
X329800D01*
X328800Y790800D01*
X329800Y791800D01*
X328800D01*
X327800Y792800D01*
X326800Y791800D01*
X325800D01*
X326800Y790800D01*
X325800Y789800D01*
X326800D01*
X327800Y788800D01*
Y789600D02*
X328400Y790200D01*
X329000D01*
X328400Y790800D01*
X329000Y791400D01*
X328400D01*
X327800Y792000D01*
X327200Y791400D01*
X326600D01*
X327200Y790800D01*
X326600Y790200D01*
X327200D01*
X327800Y789600D01*
X317800Y788800D02*
X318800Y789800D01*
X319800D01*
X318800Y790800D01*
X319800Y791800D01*
X318800D01*
X317800Y792800D01*
X316800Y791800D01*
X315800D01*
X316800Y790800D01*
X315800Y789800D01*
X316800D01*
X317800Y788800D01*
Y789600D02*
X318400Y790200D01*
X319000D01*
X318400Y790800D01*
X319000Y791400D01*
X318400D01*
X317800Y792000D01*
X317200Y791400D01*
X316600D01*
X317200Y790800D01*
X316600Y790200D01*
X317200D01*
X317800Y789600D01*
X307800Y788800D02*
X308800Y789800D01*
X309800D01*
X308800Y790800D01*
X309800Y791800D01*
X308800D01*
X307800Y792800D01*
X306800Y791800D01*
X305800D01*
X306800Y790800D01*
X305800Y789800D01*
X306800D01*
X307800Y788800D01*
Y789600D02*
X308400Y790200D01*
X309000D01*
X308400Y790800D01*
X309000Y791400D01*
X308400D01*
X307800Y792000D01*
X307200Y791400D01*
X306600D01*
X307200Y790800D01*
X306600Y790200D01*
X307200D01*
X307800Y789600D01*
X360000Y703000D02*
X361000Y704000D01*
X362000D01*
X361000Y705000D01*
X362000Y706000D01*
X361000D01*
X360000Y707000D01*
X359000Y706000D01*
X358000D01*
X359000Y705000D01*
X358000Y704000D01*
X359000D01*
X360000Y703000D01*
Y703800D02*
X360600Y704400D01*
X361200D01*
X360600Y705000D01*
X361200Y705600D01*
X360600D01*
X360000Y706200D01*
X359400Y705600D01*
X358800D01*
X359400Y705000D01*
X358800Y704400D01*
X359400D01*
X360000Y703800D01*
X340000Y703000D02*
X341000Y704000D01*
X342000D01*
X341000Y705000D01*
X342000Y706000D01*
X341000D01*
X340000Y707000D01*
X339000Y706000D01*
X338000D01*
X339000Y705000D01*
X338000Y704000D01*
X339000D01*
X340000Y703000D01*
Y703800D02*
X340600Y704400D01*
X341200D01*
X340600Y705000D01*
X341200Y705600D01*
X340600D01*
X340000Y706200D01*
X339400Y705600D01*
X338800D01*
X339400Y705000D01*
X338800Y704400D01*
X339400D01*
X340000Y703800D01*
X320000Y703000D02*
X321000Y704000D01*
X322000D01*
X321000Y705000D01*
X322000Y706000D01*
X321000D01*
X320000Y707000D01*
X319000Y706000D01*
X318000D01*
X319000Y705000D01*
X318000Y704000D01*
X319000D01*
X320000Y703000D01*
Y703800D02*
X320600Y704400D01*
X321200D01*
X320600Y705000D01*
X321200Y705600D01*
X320600D01*
X320000Y706200D01*
X319400Y705600D01*
X318800D01*
X319400Y705000D01*
X318800Y704400D01*
X319400D01*
X320000Y703800D01*
X300000Y703000D02*
X301000Y704000D01*
X302000D01*
X301000Y705000D01*
X302000Y706000D01*
X301000D01*
X300000Y707000D01*
X299000Y706000D01*
X298000D01*
X299000Y705000D01*
X298000Y704000D01*
X299000D01*
X300000Y703000D01*
Y703800D02*
X300600Y704400D01*
X301200D01*
X300600Y705000D01*
X301200Y705600D01*
X300600D01*
X300000Y706200D01*
X299400Y705600D01*
X298800D01*
X299400Y705000D01*
X298800Y704400D01*
X299400D01*
X300000Y703800D01*
X270000Y703000D02*
X271000Y704000D01*
X272000D01*
X271000Y705000D01*
X272000Y706000D01*
X271000D01*
X270000Y707000D01*
X269000Y706000D01*
X268000D01*
X269000Y705000D01*
X268000Y704000D01*
X269000D01*
X270000Y703000D01*
Y703800D02*
X270600Y704400D01*
X271200D01*
X270600Y705000D01*
X271200Y705600D01*
X270600D01*
X270000Y706200D01*
X269400Y705600D01*
X268800D01*
X269400Y705000D01*
X268800Y704400D01*
X269400D01*
X270000Y703800D01*
X250000Y703000D02*
X251000Y704000D01*
X252000D01*
X251000Y705000D01*
X252000Y706000D01*
X251000D01*
X250000Y707000D01*
X249000Y706000D01*
X248000D01*
X249000Y705000D01*
X248000Y704000D01*
X249000D01*
X250000Y703000D01*
Y703800D02*
X250600Y704400D01*
X251200D01*
X250600Y705000D01*
X251200Y705600D01*
X250600D01*
X250000Y706200D01*
X249400Y705600D01*
X248800D01*
X249400Y705000D01*
X248800Y704400D01*
X249400D01*
X250000Y703800D01*
X230000Y703000D02*
X231000Y704000D01*
X232000D01*
X231000Y705000D01*
X232000Y706000D01*
X231000D01*
X230000Y707000D01*
X229000Y706000D01*
X228000D01*
X229000Y705000D01*
X228000Y704000D01*
X229000D01*
X230000Y703000D01*
Y703800D02*
X230600Y704400D01*
X231200D01*
X230600Y705000D01*
X231200Y705600D01*
X230600D01*
X230000Y706200D01*
X229400Y705600D01*
X228800D01*
X229400Y705000D01*
X228800Y704400D01*
X229400D01*
X230000Y703800D01*
X210000Y703000D02*
X211000Y704000D01*
X212000D01*
X211000Y705000D01*
X212000Y706000D01*
X211000D01*
X210000Y707000D01*
X209000Y706000D01*
X208000D01*
X209000Y705000D01*
X208000Y704000D01*
X209000D01*
X210000Y703000D01*
Y703800D02*
X210600Y704400D01*
X211200D01*
X210600Y705000D01*
X211200Y705600D01*
X210600D01*
X210000Y706200D01*
X209400Y705600D01*
X208800D01*
X209400Y705000D01*
X208800Y704400D01*
X209400D01*
X210000Y703800D01*
X180000Y703000D02*
X181000Y704000D01*
X182000D01*
X181000Y705000D01*
X182000Y706000D01*
X181000D01*
X180000Y707000D01*
X179000Y706000D01*
X178000D01*
X179000Y705000D01*
X178000Y704000D01*
X179000D01*
X180000Y703000D01*
Y703800D02*
X180600Y704400D01*
X181200D01*
X180600Y705000D01*
X181200Y705600D01*
X180600D01*
X180000Y706200D01*
X179400Y705600D01*
X178800D01*
X179400Y705000D01*
X178800Y704400D01*
X179400D01*
X180000Y703800D01*
X160000Y703000D02*
X161000Y704000D01*
X162000D01*
X161000Y705000D01*
X162000Y706000D01*
X161000D01*
X160000Y707000D01*
X159000Y706000D01*
X158000D01*
X159000Y705000D01*
X158000Y704000D01*
X159000D01*
X160000Y703000D01*
Y703800D02*
X160600Y704400D01*
X161200D01*
X160600Y705000D01*
X161200Y705600D01*
X160600D01*
X160000Y706200D01*
X159400Y705600D01*
X158800D01*
X159400Y705000D01*
X158800Y704400D01*
X159400D01*
X160000Y703800D01*
X140000Y703000D02*
X141000Y704000D01*
X142000D01*
X141000Y705000D01*
X142000Y706000D01*
X141000D01*
X140000Y707000D01*
X139000Y706000D01*
X138000D01*
X139000Y705000D01*
X138000Y704000D01*
X139000D01*
X140000Y703000D01*
Y703800D02*
X140600Y704400D01*
X141200D01*
X140600Y705000D01*
X141200Y705600D01*
X140600D01*
X140000Y706200D01*
X139400Y705600D01*
X138800D01*
X139400Y705000D01*
X138800Y704400D01*
X139400D01*
X140000Y703800D01*
X120000Y703000D02*
X121000Y704000D01*
X122000D01*
X121000Y705000D01*
X122000Y706000D01*
X121000D01*
X120000Y707000D01*
X119000Y706000D01*
X118000D01*
X119000Y705000D01*
X118000Y704000D01*
X119000D01*
X120000Y703000D01*
Y703800D02*
X120600Y704400D01*
X121200D01*
X120600Y705000D01*
X121200Y705600D01*
X120600D01*
X120000Y706200D01*
X119400Y705600D01*
X118800D01*
X119400Y705000D01*
X118800Y704400D01*
X119400D01*
X120000Y703800D01*
X86800Y635700D02*
X84800Y639700D01*
X88800D01*
X86800Y635700D01*
X346100Y72500D02*
X344100Y76500D01*
X348100D01*
X346100Y72500D01*
X326100Y72550D02*
X324100Y76550D01*
X328100D01*
X326100Y72550D01*
X306100Y72500D02*
X304100Y76500D01*
X308100D01*
X306100Y72500D01*
X286100Y72550D02*
X284100Y76550D01*
X288100D01*
X286100Y72550D01*
X266100Y72500D02*
X264100Y76500D01*
X268100D01*
X266100Y72500D01*
X246100Y72550D02*
X244100Y76550D01*
X248100D01*
X246100Y72550D01*
X226100Y72500D02*
X224100Y76500D01*
X228100D01*
X226100Y72500D01*
X206100Y72550D02*
X204100Y76550D01*
X208100D01*
X206100Y72550D01*
X186100D02*
X184100Y76550D01*
X188100D01*
X186100Y72550D01*
X166100D02*
X164100Y76550D01*
X168100D01*
X166100Y72550D01*
X146100D02*
X144100Y76550D01*
X148100D01*
X146100Y72550D01*
X252200Y376800D02*
X250200Y380800D01*
X254200D01*
X252200Y376800D01*
X238000Y476300D02*
X239000Y477300D01*
X240000D01*
X239000Y478300D01*
X240000Y479300D01*
X239000D01*
X238000Y480300D01*
X237000Y479300D01*
X236000D01*
X237000Y478300D01*
X236000Y477300D01*
X237000D01*
X238000Y476300D01*
Y477100D02*
X238600Y477700D01*
X239200D01*
X238600Y478300D01*
X239200Y478900D01*
X238600D01*
X238000Y479500D01*
X237400Y478900D01*
X236800D01*
X237400Y478300D01*
X236800Y477700D01*
X237400D01*
X238000Y477100D01*
X230200Y475500D02*
X231200Y476500D01*
X232200D01*
X231200Y477500D01*
X232200Y478500D01*
X231200D01*
X230200Y479500D01*
X229200Y478500D01*
X228200D01*
X229200Y477500D01*
X228200Y476500D01*
X229200D01*
X230200Y475500D01*
Y476300D02*
X230800Y476900D01*
X231400D01*
X230800Y477500D01*
X231400Y478100D01*
X230800D01*
X230200Y478700D01*
X229600Y478100D01*
X229000D01*
X229600Y477500D01*
X229000Y476900D01*
X229600D01*
X230200Y476300D01*
X225300Y476000D02*
X226300Y477000D01*
X227300D01*
X226300Y478000D01*
X227300Y479000D01*
X226300D01*
X225300Y480000D01*
X224300Y479000D01*
X223300D01*
X224300Y478000D01*
X223300Y477000D01*
X224300D01*
X225300Y476000D01*
Y476800D02*
X225900Y477400D01*
X226500D01*
X225900Y478000D01*
X226500Y478600D01*
X225900D01*
X225300Y479200D01*
X224700Y478600D01*
X224100D01*
X224700Y478000D01*
X224100Y477400D01*
X224700D01*
X225300Y476800D01*
X244800Y492300D02*
X245800Y493300D01*
X246800D01*
X245800Y494300D01*
X246800Y495300D01*
X245800D01*
X244800Y496300D01*
X243800Y495300D01*
X242800D01*
X243800Y494300D01*
X242800Y493300D01*
X243800D01*
X244800Y492300D01*
Y493100D02*
X245400Y493700D01*
X246000D01*
X245400Y494300D01*
X246000Y494900D01*
X245400D01*
X244800Y495500D01*
X244200Y494900D01*
X243600D01*
X244200Y494300D01*
X243600Y493700D01*
X244200D01*
X244800Y493100D01*
X248100Y390500D02*
X246100Y394500D01*
X250100D01*
X248100Y390500D01*
Y416200D02*
X246100Y420200D01*
X250100D01*
X248100Y416200D01*
X170400Y784000D02*
X171400Y785000D01*
X172400D01*
X171400Y786000D01*
X172400Y787000D01*
X171400D01*
X170400Y788000D01*
X169400Y787000D01*
X168400D01*
X169400Y786000D01*
X168400Y785000D01*
X169400D01*
X170400Y784000D01*
Y784800D02*
X171000Y785400D01*
X171600D01*
X171000Y786000D01*
X171600Y786600D01*
X171000D01*
X170400Y787200D01*
X169800Y786600D01*
X169200D01*
X169800Y786000D01*
X169200Y785400D01*
X169800D01*
X170400Y784800D01*
X206300Y781400D02*
X207300Y782400D01*
X208300D01*
X207300Y783400D01*
X208300Y784400D01*
X207300D01*
X206300Y785400D01*
X205300Y784400D01*
X204300D01*
X205300Y783400D01*
X204300Y782400D01*
X205300D01*
X206300Y781400D01*
Y782200D02*
X206900Y782800D01*
X207500D01*
X206900Y783400D01*
X207500Y784000D01*
X206900D01*
X206300Y784600D01*
X205700Y784000D01*
X205100D01*
X205700Y783400D01*
X205100Y782800D01*
X205700D01*
X206300Y782200D01*
X64700Y635700D02*
X62700Y639700D01*
X66700D01*
X64700Y635700D01*
X284500Y674700D02*
X285500Y675700D01*
X286500D01*
X285500Y676700D01*
X286500Y677700D01*
X285500D01*
X284500Y678700D01*
X283500Y677700D01*
X282500D01*
X283500Y676700D01*
X282500Y675700D01*
X283500D01*
X284500Y674700D01*
Y675500D02*
X285100Y676100D01*
X285700D01*
X285100Y676700D01*
X285700Y677300D01*
X285100D01*
X284500Y677900D01*
X283900Y677300D01*
X283300D01*
X283900Y676700D01*
X283300Y676100D01*
X283900D01*
X284500Y675500D01*
X410500Y527500D02*
X408500Y531500D01*
X412500D01*
X410500Y527500D01*
X420500D02*
X418500Y531500D01*
X422500D01*
X420500Y527500D01*
X388500Y773250D02*
X386500Y777250D01*
X390500D01*
X388500Y773250D01*
X433500Y526500D02*
X431500Y530500D01*
X435500D01*
X433500Y526500D01*
X424500Y576000D02*
X422500Y580000D01*
X426500D01*
X424500Y576000D01*
X404000Y538000D02*
X402000Y542000D01*
X406000D01*
X404000Y538000D01*
X407000Y613500D02*
X405000Y617500D01*
X409000D01*
X407000Y613500D01*
X412000Y581000D02*
X410000Y585000D01*
X414000D01*
X412000Y581000D01*
X417500Y588500D02*
X415500Y592500D01*
X419500D01*
X417500Y588500D01*
X425000Y588000D02*
X423000Y592000D01*
X427000D01*
X425000Y588000D01*
X396000Y602500D02*
X397000Y603500D01*
X398000D01*
X397000Y604500D01*
X398000Y605500D01*
X397000D01*
X396000Y606500D01*
X395000Y605500D01*
X394000D01*
X395000Y604500D01*
X394000Y603500D01*
X395000D01*
X396000Y602500D01*
Y603300D02*
X396600Y603900D01*
X397200D01*
X396600Y604500D01*
X397200Y605100D01*
X396600D01*
X396000Y605700D01*
X395400Y605100D01*
X394800D01*
X395400Y604500D01*
X394800Y603900D01*
X395400D01*
X396000Y603300D01*
X431000Y556500D02*
X429000Y560500D01*
X433000D01*
X431000Y556500D01*
X423500Y748000D02*
X421500Y752000D01*
X425500D01*
X423500Y748000D01*
X434000Y625500D02*
X432000Y629500D01*
X436000D01*
X434000Y625500D01*
X415500Y715000D02*
X413500Y719000D01*
X417500D01*
X415500Y715000D01*
X420500Y703500D02*
X418500Y707500D01*
X422500D01*
X420500Y703500D01*
X425000Y711000D02*
X423000Y715000D01*
X427000D01*
X425000Y711000D01*
X383000Y748000D02*
X381000Y752000D01*
X385000D01*
X383000Y748000D01*
X236000Y795000D02*
X237000Y796000D01*
X238000D01*
X237000Y797000D01*
X238000Y798000D01*
X237000D01*
X236000Y799000D01*
X235000Y798000D01*
X234000D01*
X235000Y797000D01*
X234000Y796000D01*
X235000D01*
X236000Y795000D01*
Y795800D02*
X236600Y796400D01*
X237200D01*
X236600Y797000D01*
X237200Y797600D01*
X236600D01*
X236000Y798200D01*
X235400Y797600D01*
X234800D01*
X235400Y797000D01*
X234800Y796400D01*
X235400D01*
X236000Y795800D01*
X241000Y799000D02*
X242000Y800000D01*
X243000D01*
X242000Y801000D01*
X243000Y802000D01*
X242000D01*
X241000Y803000D01*
X240000Y802000D01*
X239000D01*
X240000Y801000D01*
X239000Y800000D01*
X240000D01*
X241000Y799000D01*
Y799800D02*
X241600Y800400D01*
X242200D01*
X241600Y801000D01*
X242200Y801600D01*
X241600D01*
X241000Y802200D01*
X240400Y801600D01*
X239800D01*
X240400Y801000D01*
X239800Y800400D01*
X240400D01*
X241000Y799800D01*
X144000Y813000D02*
X145000Y814000D01*
X146000D01*
X145000Y815000D01*
X146000Y816000D01*
X145000D01*
X144000Y817000D01*
X143000Y816000D01*
X142000D01*
X143000Y815000D01*
X142000Y814000D01*
X143000D01*
X144000Y813000D01*
Y813800D02*
X144600Y814400D01*
X145200D01*
X144600Y815000D01*
X145200Y815600D01*
X144600D01*
X144000Y816200D01*
X143400Y815600D01*
X142800D01*
X143400Y815000D01*
X142800Y814400D01*
X143400D01*
X144000Y813800D01*
X104000Y804000D02*
X102000Y808000D01*
X106000D01*
X104000Y804000D01*
X293500Y801000D02*
X294500Y802000D01*
X295500D01*
X294500Y803000D01*
X295500Y804000D01*
X294500D01*
X293500Y805000D01*
X292500Y804000D01*
X291500D01*
X292500Y803000D01*
X291500Y802000D01*
X292500D01*
X293500Y801000D01*
Y801800D02*
X294100Y802400D01*
X294700D01*
X294100Y803000D01*
X294700Y803600D01*
X294100D01*
X293500Y804200D01*
X292900Y803600D01*
X292300D01*
X292900Y803000D01*
X292300Y802400D01*
X292900D01*
X293500Y801800D01*
X272500Y778500D02*
X273500Y779500D01*
X274500D01*
X273500Y780500D01*
X274500Y781500D01*
X273500D01*
X272500Y782500D01*
X271500Y781500D01*
X270500D01*
X271500Y780500D01*
X270500Y779500D01*
X271500D01*
X272500Y778500D01*
Y779300D02*
X273100Y779900D01*
X273700D01*
X273100Y780500D01*
X273700Y781100D01*
X273100D01*
X272500Y781700D01*
X271900Y781100D01*
X271300D01*
X271900Y780500D01*
X271300Y779900D01*
X271900D01*
X272500Y779300D01*
X247000Y803000D02*
X248000Y804000D01*
X249000D01*
X248000Y805000D01*
X249000Y806000D01*
X248000D01*
X247000Y807000D01*
X246000Y806000D01*
X245000D01*
X246000Y805000D01*
X245000Y804000D01*
X246000D01*
X247000Y803000D01*
Y803800D02*
X247600Y804400D01*
X248200D01*
X247600Y805000D01*
X248200Y805600D01*
X247600D01*
X247000Y806200D01*
X246400Y805600D01*
X245800D01*
X246400Y805000D01*
X245800Y804400D01*
X246400D01*
X247000Y803800D01*
X261500Y788500D02*
X262500Y789500D01*
X263500D01*
X262500Y790500D01*
X263500Y791500D01*
X262500D01*
X261500Y792500D01*
X260500Y791500D01*
X259500D01*
X260500Y790500D01*
X259500Y789500D01*
X260500D01*
X261500Y788500D01*
Y789300D02*
X262100Y789900D01*
X262700D01*
X262100Y790500D01*
X262700Y791100D01*
X262100D01*
X261500Y791700D01*
X260900Y791100D01*
X260300D01*
X260900Y790500D01*
X260300Y789900D01*
X260900D01*
X261500Y789300D01*
X229200Y709600D02*
X230200Y710600D01*
X231200D01*
X230200Y711600D01*
X231200Y712600D01*
X230200D01*
X229200Y713600D01*
X228200Y712600D01*
X227200D01*
X228200Y711600D01*
X227200Y710600D01*
X228200D01*
X229200Y709600D01*
Y710400D02*
X229800Y711000D01*
X230400D01*
X229800Y711600D01*
X230400Y712200D01*
X229800D01*
X229200Y712800D01*
X228600Y712200D01*
X228000D01*
X228600Y711600D01*
X228000Y711000D01*
X228600D01*
X229200Y710400D01*
X135500Y776500D02*
X136500Y777500D01*
X137500D01*
X136500Y778500D01*
X137500Y779500D01*
X136500D01*
X135500Y780500D01*
X134500Y779500D01*
X133500D01*
X134500Y778500D01*
X133500Y777500D01*
X134500D01*
X135500Y776500D01*
Y777300D02*
X136100Y777900D01*
X136700D01*
X136100Y778500D01*
X136700Y779100D01*
X136100D01*
X135500Y779700D01*
X134900Y779100D01*
X134300D01*
X134900Y778500D01*
X134300Y777900D01*
X134900D01*
X135500Y777300D01*
X150000Y803000D02*
X151000Y804000D01*
X152000D01*
X151000Y805000D01*
X152000Y806000D01*
X151000D01*
X150000Y807000D01*
X149000Y806000D01*
X148000D01*
X149000Y805000D01*
X148000Y804000D01*
X149000D01*
X150000Y803000D01*
Y803800D02*
X150600Y804400D01*
X151200D01*
X150600Y805000D01*
X151200Y805600D01*
X150600D01*
X150000Y806200D01*
X149400Y805600D01*
X148800D01*
X149400Y805000D01*
X148800Y804400D01*
X149400D01*
X150000Y803800D01*
X149000Y785500D02*
X150000Y786500D01*
X151000D01*
X150000Y787500D01*
X151000Y788500D01*
X150000D01*
X149000Y789500D01*
X148000Y788500D01*
X147000D01*
X148000Y787500D01*
X147000Y786500D01*
X148000D01*
X149000Y785500D01*
Y786300D02*
X149600Y786900D01*
X150200D01*
X149600Y787500D01*
X150200Y788100D01*
X149600D01*
X149000Y788700D01*
X148400Y788100D01*
X147800D01*
X148400Y787500D01*
X147800Y786900D01*
X148400D01*
X149000Y786300D01*
X148000Y736500D02*
X149000Y737500D01*
X150000D01*
X149000Y738500D01*
X150000Y739500D01*
X149000D01*
X148000Y740500D01*
X147000Y739500D01*
X146000D01*
X147000Y738500D01*
X146000Y737500D01*
X147000D01*
X148000Y736500D01*
Y737300D02*
X148600Y737900D01*
X149200D01*
X148600Y738500D01*
X149200Y739100D01*
X148600D01*
X148000Y739700D01*
X147400Y739100D01*
X146800D01*
X147400Y738500D01*
X146800Y737900D01*
X147400D01*
X148000Y737300D01*
X206700Y443500D02*
X204700Y447500D01*
X208700D01*
X206700Y443500D01*
X658000Y261000D02*
X656000Y265000D01*
X660000D01*
X658000Y261000D01*
X668000D02*
X666000Y265000D01*
X670000D01*
X668000Y261000D01*
X638000D02*
X636000Y265000D01*
X640000D01*
X638000Y261000D01*
X628000D02*
X626000Y265000D01*
X630000D01*
X628000Y261000D01*
X618000D02*
X616000Y265000D01*
X620000D01*
X618000Y261000D01*
X522245Y144800D02*
X523245Y145800D01*
X524245D01*
X523245Y146800D01*
X524245Y147800D01*
X523245D01*
X522245Y148800D01*
X521245Y147800D01*
X520245D01*
X521245Y146800D01*
X520245Y145800D01*
X521245D01*
X522245Y144800D01*
Y164800D02*
X523245Y165800D01*
X524245D01*
X523245Y166800D01*
X524245Y167800D01*
X523245D01*
X522245Y168800D01*
X521245Y167800D01*
X520245D01*
X521245Y166800D01*
X520245Y165800D01*
X521245D01*
X522245Y164800D01*
Y154800D02*
X523245Y155800D01*
X524245D01*
X523245Y156800D01*
X524245Y157800D01*
X523245D01*
X522245Y158800D01*
X521245Y157800D01*
X520245D01*
X521245Y156800D01*
X520245Y155800D01*
X521245D01*
X522245Y154800D01*
X473300Y508100D02*
X474300Y510100D01*
X473300Y512100D01*
X475300Y511100D01*
X477300Y512100D01*
X476300Y510100D01*
X477300Y508100D01*
X475300Y509100D01*
X473300Y508100D01*
Y458100D02*
X474300Y460100D01*
X473300Y462100D01*
X475300Y461100D01*
X477300Y462100D01*
X476300Y460100D01*
X477300Y458100D01*
X475300Y459100D01*
X473300Y458100D01*
X453300Y508100D02*
X454300Y510100D01*
X453300Y512100D01*
X455300Y511100D01*
X457300Y512100D01*
X456300Y510100D01*
X457300Y508100D01*
X455300Y509100D01*
X453300Y508100D01*
Y458100D02*
X454300Y460100D01*
X453300Y462100D01*
X455300Y461100D01*
X457300Y462100D01*
X456300Y460100D01*
X457300Y458100D01*
X455300Y459100D01*
X453300Y458100D01*
X482000Y484100D02*
Y483100D01*
X484000D01*
Y484100D01*
X485000D01*
Y486100D01*
X484000D01*
Y487100D01*
X482000D01*
Y486100D01*
X481000D01*
Y484100D01*
X482000D01*
X446600D02*
Y483100D01*
X448600D01*
Y484100D01*
X449600D01*
Y486100D01*
X448600D01*
Y487100D01*
X446600D01*
Y486100D01*
X445600D01*
Y484100D01*
X446600D01*
X795700Y456700D02*
X796700D01*
X797700Y457700D01*
X798700Y456700D01*
X799700D01*
Y457700D01*
X798700Y458700D01*
X799700Y459700D01*
Y460700D01*
X798700D01*
X797700Y459700D01*
X796700Y460700D01*
X795700D01*
Y459700D01*
X796700Y458700D01*
X795700Y457700D01*
Y456700D01*
X805700D02*
X806700D01*
X807700Y457700D01*
X808700Y456700D01*
X809700D01*
Y457700D01*
X808700Y458700D01*
X809700Y459700D01*
Y460700D01*
X808700D01*
X807700Y459700D01*
X806700Y460700D01*
X805700D01*
Y459700D01*
X806700Y458700D01*
X805700Y457700D01*
Y456700D01*
X802000Y387500D02*
X804000Y389500D01*
X806000Y387500D01*
X804000Y385500D01*
X802000Y387500D01*
Y417500D02*
X804000Y419500D01*
X806000Y417500D01*
X804000Y415500D01*
X802000Y417500D01*
Y402500D02*
X804000Y404500D01*
X806000Y402500D01*
X804000Y400500D01*
X802000Y402500D01*
Y432500D02*
X804000Y434500D01*
X806000Y432500D01*
X804000Y430500D01*
X802000Y432500D01*
Y372500D02*
X804000Y374500D01*
X806000Y372500D01*
X804000Y370500D01*
X802000Y372500D01*
Y342500D02*
X804000Y344500D01*
X806000Y342500D01*
X804000Y340500D01*
X802000Y342500D01*
Y312500D02*
X804000Y314500D01*
X806000Y312500D01*
X804000Y310500D01*
X802000Y312500D01*
Y357500D02*
X804000Y359500D01*
X806000Y357500D01*
X804000Y355500D01*
X802000Y357500D01*
Y327500D02*
X804000Y329500D01*
X806000Y327500D01*
X804000Y325500D01*
X802000Y327500D01*
Y297500D02*
X804000Y299500D01*
X806000Y297500D01*
X804000Y295500D01*
X802000Y297500D01*
X464000Y387500D02*
X466000Y389500D01*
X468000Y387500D01*
X466000Y385500D01*
X464000Y387500D01*
Y417500D02*
X466000Y419500D01*
X468000Y417500D01*
X466000Y415500D01*
X464000Y417500D01*
Y402500D02*
X466000Y404500D01*
X468000Y402500D01*
X466000Y400500D01*
X464000Y402500D01*
Y432500D02*
X466000Y434500D01*
X468000Y432500D01*
X466000Y430500D01*
X464000Y432500D01*
Y372500D02*
X466000Y374500D01*
X468000Y372500D01*
X466000Y370500D01*
X464000Y372500D01*
Y342500D02*
X466000Y344500D01*
X468000Y342500D01*
X466000Y340500D01*
X464000Y342500D01*
Y312500D02*
X466000Y314500D01*
X468000Y312500D01*
X466000Y310500D01*
X464000Y312500D01*
Y357500D02*
X466000Y359500D01*
X468000Y357500D01*
X466000Y355500D01*
X464000Y357500D01*
Y327500D02*
X466000Y329500D01*
X468000Y327500D01*
X466000Y325500D01*
X464000Y327500D01*
Y297500D02*
X466000Y299500D01*
X468000Y297500D01*
X466000Y295500D01*
X464000Y297500D01*
X480000Y673500D02*
X481000D01*
X482000Y674500D01*
X483000Y673500D01*
X484000D01*
Y674500D01*
X483000Y675500D01*
X484000Y676500D01*
Y677500D01*
X483000D01*
X482000Y676500D01*
X481000Y677500D01*
X480000D01*
Y676500D01*
X481000Y675500D01*
X480000Y674500D01*
Y673500D01*
X470000D02*
X471000D01*
X472000Y674500D01*
X473000Y673500D01*
X474000D01*
Y674500D01*
X473000Y675500D01*
X474000Y676500D01*
Y677500D01*
X473000D01*
X472000Y676500D01*
X471000Y677500D01*
X470000D01*
Y676500D01*
X471000Y675500D01*
X470000Y674500D01*
Y673500D01*
X468000Y78000D02*
Y82000D01*
X472000D01*
Y78000D01*
X468000D01*
X468800Y78800D02*
Y81200D01*
X471200D01*
Y78800D01*
X468800D01*
X577800Y448500D02*
X578800D01*
X579800Y449500D01*
X580800Y448500D01*
X581800D01*
Y449500D01*
X580800Y450500D01*
X581800Y451500D01*
Y452500D01*
X580800D01*
X579800Y451500D01*
X578800Y452500D01*
X577800D01*
Y451500D01*
X578800Y450500D01*
X577800Y449500D01*
Y448500D01*
Y428500D02*
X578800D01*
X579800Y429500D01*
X580800Y428500D01*
X581800D01*
Y429500D01*
X580800Y430500D01*
X581800Y431500D01*
Y432500D01*
X580800D01*
X579800Y431500D01*
X578800Y432500D01*
X577800D01*
Y431500D01*
X578800Y430500D01*
X577800Y429500D01*
Y428500D01*
X562800Y448500D02*
X563800D01*
X564800Y449500D01*
X565800Y448500D01*
X566800D01*
Y449500D01*
X565800Y450500D01*
X566800Y451500D01*
Y452500D01*
X565800D01*
X564800Y451500D01*
X563800Y452500D01*
X562800D01*
Y451500D01*
X563800Y450500D01*
X562800Y449500D01*
Y448500D01*
Y428500D02*
X563800D01*
X564800Y429500D01*
X565800Y428500D01*
X566800D01*
Y429500D01*
X565800Y430500D01*
X566800Y431500D01*
Y432500D01*
X565800D01*
X564800Y431500D01*
X563800Y432500D01*
X562800D01*
Y431500D01*
X563800Y430500D01*
X562800Y429500D01*
Y428500D01*
X547800Y448500D02*
X548800D01*
X549800Y449500D01*
X550800Y448500D01*
X551800D01*
Y449500D01*
X550800Y450500D01*
X551800Y451500D01*
Y452500D01*
X550800D01*
X549800Y451500D01*
X548800Y452500D01*
X547800D01*
Y451500D01*
X548800Y450500D01*
X547800Y449500D01*
Y448500D01*
Y428500D02*
X548800D01*
X549800Y429500D01*
X550800Y428500D01*
X551800D01*
Y429500D01*
X550800Y430500D01*
X551800Y431500D01*
Y432500D01*
X550800D01*
X549800Y431500D01*
X548800Y432500D01*
X547800D01*
Y431500D01*
X548800Y430500D01*
X547800Y429500D01*
Y428500D01*
X532800Y448500D02*
X533800D01*
X534800Y449500D01*
X535800Y448500D01*
X536800D01*
Y449500D01*
X535800Y450500D01*
X536800Y451500D01*
Y452500D01*
X535800D01*
X534800Y451500D01*
X533800Y452500D01*
X532800D01*
Y451500D01*
X533800Y450500D01*
X532800Y449500D01*
Y448500D01*
Y428500D02*
X533800D01*
X534800Y429500D01*
X535800Y428500D01*
X536800D01*
Y429500D01*
X535800Y430500D01*
X536800Y431500D01*
Y432500D01*
X535800D01*
X534800Y431500D01*
X533800Y432500D01*
X532800D01*
Y431500D01*
X533800Y430500D01*
X532800Y429500D01*
Y428500D01*
X517800Y448500D02*
X518800D01*
X519800Y449500D01*
X520800Y448500D01*
X521800D01*
Y449500D01*
X520800Y450500D01*
X521800Y451500D01*
Y452500D01*
X520800D01*
X519800Y451500D01*
X518800Y452500D01*
X517800D01*
Y451500D01*
X518800Y450500D01*
X517800Y449500D01*
Y448500D01*
Y428500D02*
X518800D01*
X519800Y429500D01*
X520800Y428500D01*
X521800D01*
Y429500D01*
X520800Y430500D01*
X521800Y431500D01*
Y432500D01*
X520800D01*
X519800Y431500D01*
X518800Y432500D01*
X517800D01*
Y431500D01*
X518800Y430500D01*
X517800Y429500D01*
Y428500D01*
X502800Y448500D02*
X503800D01*
X504800Y449500D01*
X505800Y448500D01*
X506800D01*
Y449500D01*
X505800Y450500D01*
X506800Y451500D01*
Y452500D01*
X505800D01*
X504800Y451500D01*
X503800Y452500D01*
X502800D01*
Y451500D01*
X503800Y450500D01*
X502800Y449500D01*
Y448500D01*
Y428500D02*
X503800D01*
X504800Y429500D01*
X505800Y428500D01*
X506800D01*
Y429500D01*
X505800Y430500D01*
X506800Y431500D01*
Y432500D01*
X505800D01*
X504800Y431500D01*
X503800Y432500D01*
X502800D01*
Y431500D01*
X503800Y430500D01*
X502800Y429500D01*
Y428500D01*
X798000Y78000D02*
Y82000D01*
X802000D01*
Y78000D01*
X798000D01*
X798800Y78800D02*
Y81200D01*
X801200D01*
Y78800D01*
X798800D01*
X468000Y793000D02*
Y797000D01*
X472000D01*
Y793000D01*
X468000D01*
X468800Y793800D02*
Y796200D01*
X471200D01*
Y793800D01*
X468800D01*
X798000Y793000D02*
Y797000D01*
X802000D01*
Y793000D01*
X798000D01*
X798800Y793800D02*
Y796200D01*
X801200D01*
Y793800D01*
X798800D01*
X510000Y587500D02*
X508000Y591500D01*
X512000D01*
X510000Y587500D01*
Y588300D02*
X508800Y590700D01*
X511200D01*
X510000Y588300D01*
X500000Y587500D02*
X498000Y591500D01*
X502000D01*
X500000Y587500D01*
Y588300D02*
X498800Y590700D01*
X501200D01*
X500000Y588300D01*
X530000Y587500D02*
X528000Y591500D01*
X532000D01*
X530000Y587500D01*
Y588300D02*
X528800Y590700D01*
X531200D01*
X530000Y588300D01*
X510000Y557500D02*
X508000Y561500D01*
X512000D01*
X510000Y557500D01*
Y558300D02*
X508800Y560700D01*
X511200D01*
X510000Y558300D01*
X500000Y557500D02*
X498000Y561500D01*
X502000D01*
X500000Y557500D01*
Y558300D02*
X498800Y560700D01*
X501200D01*
X500000Y558300D01*
X530000Y557500D02*
X528000Y561500D01*
X532000D01*
X530000Y557500D01*
Y558300D02*
X528800Y560700D01*
X531200D01*
X530000Y558300D01*
X520000Y587500D02*
X518000Y591500D01*
X522000D01*
X520000Y587500D01*
Y588300D02*
X518800Y590700D01*
X521200D01*
X520000Y588300D01*
Y557500D02*
X518000Y561500D01*
X522000D01*
X520000Y557500D01*
Y558300D02*
X518800Y560700D01*
X521200D01*
X520000Y558300D01*
X560000Y587500D02*
X558000Y591500D01*
X562000D01*
X560000Y587500D01*
Y588300D02*
X558800Y590700D01*
X561200D01*
X560000Y588300D01*
X550000Y587500D02*
X548000Y591500D01*
X552000D01*
X550000Y587500D01*
Y588300D02*
X548800Y590700D01*
X551200D01*
X550000Y588300D01*
X580000Y587500D02*
X578000Y591500D01*
X582000D01*
X580000Y587500D01*
Y588300D02*
X578800Y590700D01*
X581200D01*
X580000Y588300D01*
X560000Y557500D02*
X558000Y561500D01*
X562000D01*
X560000Y557500D01*
Y558300D02*
X558800Y560700D01*
X561200D01*
X560000Y558300D01*
X550000Y557500D02*
X548000Y561500D01*
X552000D01*
X550000Y557500D01*
Y558300D02*
X548800Y560700D01*
X551200D01*
X550000Y558300D01*
X580000Y557500D02*
X578000Y561500D01*
X582000D01*
X580000Y557500D01*
Y558300D02*
X578800Y560700D01*
X581200D01*
X580000Y558300D01*
X570000Y587500D02*
X568000Y591500D01*
X572000D01*
X570000Y587500D01*
Y588300D02*
X568800Y590700D01*
X571200D01*
X570000Y588300D01*
Y557500D02*
X568000Y561500D01*
X572000D01*
X570000Y557500D01*
Y558300D02*
X568800Y560700D01*
X571200D01*
X570000Y558300D01*
X610000Y587500D02*
X608000Y591500D01*
X612000D01*
X610000Y587500D01*
Y588300D02*
X608800Y590700D01*
X611200D01*
X610000Y588300D01*
X600000Y587500D02*
X598000Y591500D01*
X602000D01*
X600000Y587500D01*
Y588300D02*
X598800Y590700D01*
X601200D01*
X600000Y588300D01*
X630000Y587500D02*
X628000Y591500D01*
X632000D01*
X630000Y587500D01*
Y588300D02*
X628800Y590700D01*
X631200D01*
X630000Y588300D01*
X610000Y557500D02*
X608000Y561500D01*
X612000D01*
X610000Y557500D01*
Y558300D02*
X608800Y560700D01*
X611200D01*
X610000Y558300D01*
X600000Y557500D02*
X598000Y561500D01*
X602000D01*
X600000Y557500D01*
Y558300D02*
X598800Y560700D01*
X601200D01*
X600000Y558300D01*
X630000Y557500D02*
X628000Y561500D01*
X632000D01*
X630000Y557500D01*
Y558300D02*
X628800Y560700D01*
X631200D01*
X630000Y558300D01*
X620000Y587500D02*
X618000Y591500D01*
X622000D01*
X620000Y587500D01*
Y588300D02*
X618800Y590700D01*
X621200D01*
X620000Y588300D01*
Y557500D02*
X618000Y561500D01*
X622000D01*
X620000Y557500D01*
Y558300D02*
X618800Y560700D01*
X621200D01*
X620000Y558300D01*
X660000Y587500D02*
X658000Y591500D01*
X662000D01*
X660000Y587500D01*
Y588300D02*
X658800Y590700D01*
X661200D01*
X660000Y588300D01*
X650000Y587500D02*
X648000Y591500D01*
X652000D01*
X650000Y587500D01*
Y588300D02*
X648800Y590700D01*
X651200D01*
X650000Y588300D01*
X680000Y587500D02*
X678000Y591500D01*
X682000D01*
X680000Y587500D01*
Y588300D02*
X678800Y590700D01*
X681200D01*
X680000Y588300D01*
X660000Y557500D02*
X658000Y561500D01*
X662000D01*
X660000Y557500D01*
Y558300D02*
X658800Y560700D01*
X661200D01*
X660000Y558300D01*
X650000Y557500D02*
X648000Y561500D01*
X652000D01*
X650000Y557500D01*
Y558300D02*
X648800Y560700D01*
X651200D01*
X650000Y558300D01*
X680000Y557500D02*
X678000Y561500D01*
X682000D01*
X680000Y557500D01*
Y558300D02*
X678800Y560700D01*
X681200D01*
X680000Y558300D01*
X670000Y587500D02*
X668000Y591500D01*
X672000D01*
X670000Y587500D01*
Y588300D02*
X668800Y590700D01*
X671200D01*
X670000Y588300D01*
Y557500D02*
X668000Y561500D01*
X672000D01*
X670000Y557500D01*
Y558300D02*
X668800Y560700D01*
X671200D01*
X670000Y558300D01*
X710000Y587500D02*
X708000Y591500D01*
X712000D01*
X710000Y587500D01*
Y588300D02*
X708800Y590700D01*
X711200D01*
X710000Y588300D01*
X700000Y587500D02*
X698000Y591500D01*
X702000D01*
X700000Y587500D01*
Y588300D02*
X698800Y590700D01*
X701200D01*
X700000Y588300D01*
X730000Y587500D02*
X728000Y591500D01*
X732000D01*
X730000Y587500D01*
Y588300D02*
X728800Y590700D01*
X731200D01*
X730000Y588300D01*
X710000Y557500D02*
X708000Y561500D01*
X712000D01*
X710000Y557500D01*
Y558300D02*
X708800Y560700D01*
X711200D01*
X710000Y558300D01*
X700000Y557500D02*
X698000Y561500D01*
X702000D01*
X700000Y557500D01*
Y558300D02*
X698800Y560700D01*
X701200D01*
X700000Y558300D01*
X730000Y557500D02*
X728000Y561500D01*
X732000D01*
X730000Y557500D01*
Y558300D02*
X728800Y560700D01*
X731200D01*
X730000Y558300D01*
X720000Y587500D02*
X718000Y591500D01*
X722000D01*
X720000Y587500D01*
Y588300D02*
X718800Y590700D01*
X721200D01*
X720000Y588300D01*
Y557500D02*
X718000Y561500D01*
X722000D01*
X720000Y557500D01*
Y558300D02*
X718800Y560700D01*
X721200D01*
X720000Y558300D01*
X760000Y587500D02*
X758000Y591500D01*
X762000D01*
X760000Y587500D01*
Y588300D02*
X758800Y590700D01*
X761200D01*
X760000Y588300D01*
X750000Y587500D02*
X748000Y591500D01*
X752000D01*
X750000Y587500D01*
Y588300D02*
X748800Y590700D01*
X751200D01*
X750000Y588300D01*
X780000Y587500D02*
X778000Y591500D01*
X782000D01*
X780000Y587500D01*
Y588300D02*
X778800Y590700D01*
X781200D01*
X780000Y588300D01*
X760000Y557500D02*
X758000Y561500D01*
X762000D01*
X760000Y557500D01*
Y558300D02*
X758800Y560700D01*
X761200D01*
X760000Y558300D01*
X750000Y557500D02*
X748000Y561500D01*
X752000D01*
X750000Y557500D01*
Y558300D02*
X748800Y560700D01*
X751200D01*
X750000Y558300D01*
X780000Y557500D02*
X778000Y561500D01*
X782000D01*
X780000Y557500D01*
Y558300D02*
X778800Y560700D01*
X781200D01*
X780000Y558300D01*
X770000Y587500D02*
X768000Y591500D01*
X772000D01*
X770000Y587500D01*
Y588300D02*
X768800Y590700D01*
X771200D01*
X770000Y588300D01*
Y557500D02*
X768000Y561500D01*
X772000D01*
X770000Y557500D01*
Y558300D02*
X768800Y560700D01*
X771200D01*
X770000Y558300D01*
X575000Y633000D02*
X573000Y637000D01*
X577000D01*
X575000Y633000D01*
Y633800D02*
X573800Y636200D01*
X576200D01*
X575000Y633800D01*
X545000Y633000D02*
X543000Y637000D01*
X547000D01*
X545000Y633000D01*
Y633800D02*
X543800Y636200D01*
X546200D01*
X545000Y633800D01*
X555000Y633000D02*
X553000Y637000D01*
X557000D01*
X555000Y633000D01*
Y633800D02*
X553800Y636200D01*
X556200D01*
X555000Y633800D01*
X525000Y633000D02*
X523000Y637000D01*
X527000D01*
X525000Y633000D01*
Y633800D02*
X523800Y636200D01*
X526200D01*
X525000Y633800D01*
X515000Y633000D02*
X513000Y637000D01*
X517000D01*
X515000Y633000D01*
Y633800D02*
X513800Y636200D01*
X516200D01*
X515000Y633800D01*
X575000Y663000D02*
X573000Y667000D01*
X577000D01*
X575000Y663000D01*
Y663800D02*
X573800Y666200D01*
X576200D01*
X575000Y663800D01*
X545000Y663000D02*
X543000Y667000D01*
X547000D01*
X545000Y663000D01*
Y663800D02*
X543800Y666200D01*
X546200D01*
X545000Y663800D01*
X555000Y663000D02*
X553000Y667000D01*
X557000D01*
X555000Y663000D01*
Y663800D02*
X553800Y666200D01*
X556200D01*
X555000Y663800D01*
X515000Y663000D02*
X513000Y667000D01*
X517000D01*
X515000Y663000D01*
Y663800D02*
X513800Y666200D01*
X516200D01*
X515000Y663800D01*
X525000Y663000D02*
X523000Y667000D01*
X527000D01*
X525000Y663000D01*
Y663800D02*
X523800Y666200D01*
X526200D01*
X525000Y663800D01*
X535000Y633000D02*
X533000Y637000D01*
X537000D01*
X535000Y633000D01*
Y633800D02*
X533800Y636200D01*
X536200D01*
X535000Y633800D01*
X565000Y633000D02*
X563000Y637000D01*
X567000D01*
X565000Y633000D01*
Y633800D02*
X563800Y636200D01*
X566200D01*
X565000Y633800D01*
X505000Y633000D02*
X503000Y637000D01*
X507000D01*
X505000Y633000D01*
Y633800D02*
X503800Y636200D01*
X506200D01*
X505000Y633800D01*
X535000Y663000D02*
X533000Y667000D01*
X537000D01*
X535000Y663000D01*
Y663800D02*
X533800Y666200D01*
X536200D01*
X535000Y663800D01*
X565000Y663000D02*
X563000Y667000D01*
X567000D01*
X565000Y663000D01*
Y663800D02*
X563800Y666200D01*
X566200D01*
X565000Y663800D01*
X505000Y663000D02*
X503000Y667000D01*
X507000D01*
X505000Y663000D01*
Y663800D02*
X503800Y666200D01*
X506200D01*
X505000Y663800D01*
X665000Y633000D02*
X663000Y637000D01*
X667000D01*
X665000Y633000D01*
Y633800D02*
X663800Y636200D01*
X666200D01*
X665000Y633800D01*
X635000Y633000D02*
X633000Y637000D01*
X637000D01*
X635000Y633000D01*
Y633800D02*
X633800Y636200D01*
X636200D01*
X635000Y633800D01*
X645000Y633000D02*
X643000Y637000D01*
X647000D01*
X645000Y633000D01*
Y633800D02*
X643800Y636200D01*
X646200D01*
X645000Y633800D01*
X615000Y633000D02*
X613000Y637000D01*
X617000D01*
X615000Y633000D01*
Y633800D02*
X613800Y636200D01*
X616200D01*
X615000Y633800D01*
X605000Y633000D02*
X603000Y637000D01*
X607000D01*
X605000Y633000D01*
Y633800D02*
X603800Y636200D01*
X606200D01*
X605000Y633800D01*
X665000Y663000D02*
X663000Y667000D01*
X667000D01*
X665000Y663000D01*
Y663800D02*
X663800Y666200D01*
X666200D01*
X665000Y663800D01*
X635000Y663000D02*
X633000Y667000D01*
X637000D01*
X635000Y663000D01*
Y663800D02*
X633800Y666200D01*
X636200D01*
X635000Y663800D01*
X645000Y663000D02*
X643000Y667000D01*
X647000D01*
X645000Y663000D01*
Y663800D02*
X643800Y666200D01*
X646200D01*
X645000Y663800D01*
X605000Y663000D02*
X603000Y667000D01*
X607000D01*
X605000Y663000D01*
Y663800D02*
X603800Y666200D01*
X606200D01*
X605000Y663800D01*
X615000Y663000D02*
X613000Y667000D01*
X617000D01*
X615000Y663000D01*
Y663800D02*
X613800Y666200D01*
X616200D01*
X615000Y663800D01*
X625000Y633000D02*
X623000Y637000D01*
X627000D01*
X625000Y633000D01*
Y633800D02*
X623800Y636200D01*
X626200D01*
X625000Y633800D01*
X655000Y633000D02*
X653000Y637000D01*
X657000D01*
X655000Y633000D01*
Y633800D02*
X653800Y636200D01*
X656200D01*
X655000Y633800D01*
X595000Y633000D02*
X593000Y637000D01*
X597000D01*
X595000Y633000D01*
Y633800D02*
X593800Y636200D01*
X596200D01*
X595000Y633800D01*
X625000Y663000D02*
X623000Y667000D01*
X627000D01*
X625000Y663000D01*
Y663800D02*
X623800Y666200D01*
X626200D01*
X625000Y663800D01*
X655000Y663000D02*
X653000Y667000D01*
X657000D01*
X655000Y663000D01*
Y663800D02*
X653800Y666200D01*
X656200D01*
X655000Y663800D01*
X595000Y663000D02*
X593000Y667000D01*
X597000D01*
X595000Y663000D01*
Y663800D02*
X593800Y666200D01*
X596200D01*
X595000Y663800D01*
X755000Y633000D02*
X753000Y637000D01*
X757000D01*
X755000Y633000D01*
Y633800D02*
X753800Y636200D01*
X756200D01*
X755000Y633800D01*
X725000Y633000D02*
X723000Y637000D01*
X727000D01*
X725000Y633000D01*
Y633800D02*
X723800Y636200D01*
X726200D01*
X725000Y633800D01*
X735000Y633000D02*
X733000Y637000D01*
X737000D01*
X735000Y633000D01*
Y633800D02*
X733800Y636200D01*
X736200D01*
X735000Y633800D01*
X705000Y633000D02*
X703000Y637000D01*
X707000D01*
X705000Y633000D01*
Y633800D02*
X703800Y636200D01*
X706200D01*
X705000Y633800D01*
X695000Y633000D02*
X693000Y637000D01*
X697000D01*
X695000Y633000D01*
Y633800D02*
X693800Y636200D01*
X696200D01*
X695000Y633800D01*
X755000Y663000D02*
X753000Y667000D01*
X757000D01*
X755000Y663000D01*
Y663800D02*
X753800Y666200D01*
X756200D01*
X755000Y663800D01*
X725000Y663000D02*
X723000Y667000D01*
X727000D01*
X725000Y663000D01*
Y663800D02*
X723800Y666200D01*
X726200D01*
X725000Y663800D01*
X735000Y663000D02*
X733000Y667000D01*
X737000D01*
X735000Y663000D01*
Y663800D02*
X733800Y666200D01*
X736200D01*
X735000Y663800D01*
X695000Y663000D02*
X693000Y667000D01*
X697000D01*
X695000Y663000D01*
Y663800D02*
X693800Y666200D01*
X696200D01*
X695000Y663800D01*
X705000Y663000D02*
X703000Y667000D01*
X707000D01*
X705000Y663000D01*
Y663800D02*
X703800Y666200D01*
X706200D01*
X705000Y663800D01*
X715000Y633000D02*
X713000Y637000D01*
X717000D01*
X715000Y633000D01*
Y633800D02*
X713800Y636200D01*
X716200D01*
X715000Y633800D01*
X745000Y633000D02*
X743000Y637000D01*
X747000D01*
X745000Y633000D01*
Y633800D02*
X743800Y636200D01*
X746200D01*
X745000Y633800D01*
X685000Y633000D02*
X683000Y637000D01*
X687000D01*
X685000Y633000D01*
Y633800D02*
X683800Y636200D01*
X686200D01*
X685000Y633800D01*
X715000Y663000D02*
X713000Y667000D01*
X717000D01*
X715000Y663000D01*
Y663800D02*
X713800Y666200D01*
X716200D01*
X715000Y663800D01*
X745000Y663000D02*
X743000Y667000D01*
X747000D01*
X745000Y663000D01*
Y663800D02*
X743800Y666200D01*
X746200D01*
X745000Y663800D01*
X685000Y663000D02*
X683000Y667000D01*
X687000D01*
X685000Y663000D01*
Y663800D02*
X683800Y666200D01*
X686200D01*
X685000Y663800D01*
X688000Y428000D02*
X689000D01*
X690000Y429000D01*
X691000Y428000D01*
X692000D01*
Y429000D01*
X691000Y430000D01*
X692000Y431000D01*
Y432000D01*
X691000D01*
X690000Y431000D01*
X689000Y432000D01*
X688000D01*
Y431000D01*
X689000Y430000D01*
X688000Y429000D01*
Y428000D01*
Y448000D02*
X689000D01*
X690000Y449000D01*
X691000Y448000D01*
X692000D01*
Y449000D01*
X691000Y450000D01*
X692000Y451000D01*
Y452000D01*
X691000D01*
X690000Y451000D01*
X689000Y452000D01*
X688000D01*
Y451000D01*
X689000Y450000D01*
X688000Y449000D01*
Y448000D01*
X703000Y428000D02*
X704000D01*
X705000Y429000D01*
X706000Y428000D01*
X707000D01*
Y429000D01*
X706000Y430000D01*
X707000Y431000D01*
Y432000D01*
X706000D01*
X705000Y431000D01*
X704000Y432000D01*
X703000D01*
Y431000D01*
X704000Y430000D01*
X703000Y429000D01*
Y428000D01*
Y448000D02*
X704000D01*
X705000Y449000D01*
X706000Y448000D01*
X707000D01*
Y449000D01*
X706000Y450000D01*
X707000Y451000D01*
Y452000D01*
X706000D01*
X705000Y451000D01*
X704000Y452000D01*
X703000D01*
Y451000D01*
X704000Y450000D01*
X703000Y449000D01*
Y448000D01*
X718000Y428000D02*
X719000D01*
X720000Y429000D01*
X721000Y428000D01*
X722000D01*
Y429000D01*
X721000Y430000D01*
X722000Y431000D01*
Y432000D01*
X721000D01*
X720000Y431000D01*
X719000Y432000D01*
X718000D01*
Y431000D01*
X719000Y430000D01*
X718000Y429000D01*
Y428000D01*
Y448000D02*
X719000D01*
X720000Y449000D01*
X721000Y448000D01*
X722000D01*
Y449000D01*
X721000Y450000D01*
X722000Y451000D01*
Y452000D01*
X721000D01*
X720000Y451000D01*
X719000Y452000D01*
X718000D01*
Y451000D01*
X719000Y450000D01*
X718000Y449000D01*
Y448000D01*
X733000Y428000D02*
X734000D01*
X735000Y429000D01*
X736000Y428000D01*
X737000D01*
Y429000D01*
X736000Y430000D01*
X737000Y431000D01*
Y432000D01*
X736000D01*
X735000Y431000D01*
X734000Y432000D01*
X733000D01*
Y431000D01*
X734000Y430000D01*
X733000Y429000D01*
Y428000D01*
Y448000D02*
X734000D01*
X735000Y449000D01*
X736000Y448000D01*
X737000D01*
Y449000D01*
X736000Y450000D01*
X737000Y451000D01*
Y452000D01*
X736000D01*
X735000Y451000D01*
X734000Y452000D01*
X733000D01*
Y451000D01*
X734000Y450000D01*
X733000Y449000D01*
Y448000D01*
X748000D02*
X749000D01*
X750000Y449000D01*
X751000Y448000D01*
X752000D01*
Y449000D01*
X751000Y450000D01*
X752000Y451000D01*
Y452000D01*
X751000D01*
X750000Y451000D01*
X749000Y452000D01*
X748000D01*
Y451000D01*
X749000Y450000D01*
X748000Y449000D01*
Y448000D01*
Y428000D02*
X749000D01*
X750000Y429000D01*
X751000Y428000D01*
X752000D01*
Y429000D01*
X751000Y430000D01*
X752000Y431000D01*
Y432000D01*
X751000D01*
X750000Y431000D01*
X749000Y432000D01*
X748000D01*
Y431000D01*
X749000Y430000D01*
X748000Y429000D01*
Y428000D01*
X763000D02*
X764000D01*
X765000Y429000D01*
X766000Y428000D01*
X767000D01*
Y429000D01*
X766000Y430000D01*
X767000Y431000D01*
Y432000D01*
X766000D01*
X765000Y431000D01*
X764000Y432000D01*
X763000D01*
Y431000D01*
X764000Y430000D01*
X763000Y429000D01*
Y428000D01*
Y448000D02*
X764000D01*
X765000Y449000D01*
X766000Y448000D01*
X767000D01*
Y449000D01*
X766000Y450000D01*
X767000Y451000D01*
Y452000D01*
X766000D01*
X765000Y451000D01*
X764000Y452000D01*
X763000D01*
Y451000D01*
X764000Y450000D01*
X763000Y449000D01*
Y448000D01*
X790200Y481000D02*
X791200D01*
X792200Y482000D01*
X793200Y481000D01*
X794200D01*
Y482000D01*
X793200Y483000D01*
X794200Y484000D01*
Y485000D01*
X793200D01*
X792200Y484000D01*
X791200Y485000D01*
X790200D01*
Y484000D01*
X791200Y483000D01*
X790200Y482000D01*
Y481000D01*
Y491000D02*
X791200D01*
X792200Y492000D01*
X793200Y491000D01*
X794200D01*
Y492000D01*
X793200Y493000D01*
X794200Y494000D01*
Y495000D01*
X793200D01*
X792200Y494000D01*
X791200Y495000D01*
X790200D01*
Y494000D01*
X791200Y493000D01*
X790200Y492000D01*
Y491000D01*
X819400D02*
X820400D01*
X821400Y492000D01*
X822400Y491000D01*
X823400D01*
Y492000D01*
X822400Y493000D01*
X823400Y494000D01*
Y495000D01*
X822400D01*
X821400Y494000D01*
X820400Y495000D01*
X819400D01*
Y494000D01*
X820400Y493000D01*
X819400Y492000D01*
Y491000D01*
Y481000D02*
X820400D01*
X821400Y482000D01*
X822400Y481000D01*
X823400D01*
Y482000D01*
X822400Y483000D01*
X823400Y484000D01*
Y485000D01*
X822400D01*
X821400Y484000D01*
X820400Y485000D01*
X819400D01*
Y484000D01*
X820400Y483000D01*
X819400Y482000D01*
Y481000D01*
X706882Y144800D02*
X707882Y145800D01*
X708882D01*
X707882Y146800D01*
X708882Y147800D01*
X707882D01*
X706882Y148800D01*
X705882Y147800D01*
X704882D01*
X705882Y146800D01*
X704882Y145800D01*
X705882D01*
X706882Y144800D01*
Y164800D02*
X707882Y165800D01*
X708882D01*
X707882Y166800D01*
X708882Y167800D01*
X707882D01*
X706882Y168800D01*
X705882Y167800D01*
X704882D01*
X705882Y166800D01*
X704882Y165800D01*
X705882D01*
X706882Y164800D01*
Y154800D02*
X707882Y155800D01*
X708882D01*
X707882Y156800D01*
X708882Y157800D01*
X707882D01*
X706882Y158800D01*
X705882Y157800D01*
X704882D01*
X705882Y156800D01*
X704882Y155800D01*
X705882D01*
X706882Y154800D01*
X799000Y195700D02*
X800000Y196700D01*
X801000D01*
X800000Y197700D01*
X801000Y198700D01*
X800000D01*
X799000Y199700D01*
X798000Y198700D01*
X797000D01*
X798000Y197700D01*
X797000Y196700D01*
X798000D01*
X799000Y195700D01*
Y215700D02*
X800000Y216700D01*
X801000D01*
X800000Y217700D01*
X801000Y218700D01*
X800000D01*
X799000Y219700D01*
X798000Y218700D01*
X797000D01*
X798000Y217700D01*
X797000Y216700D01*
X798000D01*
X799000Y215700D01*
Y205700D02*
X800000Y206700D01*
X801000D01*
X800000Y207700D01*
X801000Y208700D01*
X800000D01*
X799000Y209700D01*
X798000Y208700D01*
X797000D01*
X798000Y207700D01*
X797000Y206700D01*
X798000D01*
X799000Y205700D01*
X768427Y144800D02*
X769427Y145800D01*
X770427D01*
X769427Y146800D01*
X770427Y147800D01*
X769427D01*
X768427Y148800D01*
X767427Y147800D01*
X766427D01*
X767427Y146800D01*
X766427Y145800D01*
X767427D01*
X768427Y144800D01*
Y164800D02*
X769427Y165800D01*
X770427D01*
X769427Y166800D01*
X770427Y167800D01*
X769427D01*
X768427Y168800D01*
X767427Y167800D01*
X766427D01*
X767427Y166800D01*
X766427Y165800D01*
X767427D01*
X768427Y164800D01*
Y154800D02*
X769427Y155800D01*
X770427D01*
X769427Y156800D01*
X770427Y157800D01*
X769427D01*
X768427Y158800D01*
X767427Y157800D01*
X766427D01*
X767427Y156800D01*
X766427Y155800D01*
X767427D01*
X768427Y154800D01*
X737455Y195700D02*
X738454Y196700D01*
X739455D01*
X738454Y197700D01*
X739455Y198700D01*
X738454D01*
X737455Y199700D01*
X736454Y198700D01*
X735455D01*
X736454Y197700D01*
X735455Y196700D01*
X736454D01*
X737455Y195700D01*
Y215700D02*
X738454Y216700D01*
X739455D01*
X738454Y217700D01*
X739455Y218700D01*
X738454D01*
X737455Y219700D01*
X736454Y218700D01*
X735455D01*
X736454Y217700D01*
X735455Y216700D01*
X736454D01*
X737455Y215700D01*
Y205700D02*
X738454Y206700D01*
X739455D01*
X738454Y207700D01*
X739455Y208700D01*
X738454D01*
X737455Y209700D01*
X736454Y208700D01*
X735455D01*
X736454Y207700D01*
X735455Y206700D01*
X736454D01*
X737455Y205700D01*
X675909Y195700D02*
X676909Y196700D01*
X677909D01*
X676909Y197700D01*
X677909Y198700D01*
X676909D01*
X675909Y199700D01*
X674909Y198700D01*
X673909D01*
X674909Y197700D01*
X673909Y196700D01*
X674909D01*
X675909Y195700D01*
Y215700D02*
X676909Y216700D01*
X677909D01*
X676909Y217700D01*
X677909Y218700D01*
X676909D01*
X675909Y219700D01*
X674909Y218700D01*
X673909D01*
X674909Y217700D01*
X673909Y216700D01*
X674909D01*
X675909Y215700D01*
Y205700D02*
X676909Y206700D01*
X677909D01*
X676909Y207700D01*
X677909Y208700D01*
X676909D01*
X675909Y209700D01*
X674909Y208700D01*
X673909D01*
X674909Y207700D01*
X673909Y206700D01*
X674909D01*
X675909Y205700D01*
X645336Y144800D02*
X646336Y145800D01*
X647336D01*
X646336Y146800D01*
X647336Y147800D01*
X646336D01*
X645336Y148800D01*
X644336Y147800D01*
X643336D01*
X644336Y146800D01*
X643336Y145800D01*
X644336D01*
X645336Y144800D01*
Y164800D02*
X646336Y165800D01*
X647336D01*
X646336Y166800D01*
X647336Y167800D01*
X646336D01*
X645336Y168800D01*
X644336Y167800D01*
X643336D01*
X644336Y166800D01*
X643336Y165800D01*
X644336D01*
X645336Y164800D01*
Y154800D02*
X646336Y155800D01*
X647336D01*
X646336Y156800D01*
X647336Y157800D01*
X646336D01*
X645336Y158800D01*
X644336Y157800D01*
X643336D01*
X644336Y156800D01*
X643336Y155800D01*
X644336D01*
X645336Y154800D01*
X614364Y195700D02*
X615364Y196700D01*
X616364D01*
X615364Y197700D01*
X616364Y198700D01*
X615364D01*
X614364Y199700D01*
X613364Y198700D01*
X612364D01*
X613364Y197700D01*
X612364Y196700D01*
X613364D01*
X614364Y195700D01*
Y215700D02*
X615364Y216700D01*
X616364D01*
X615364Y217700D01*
X616364Y218700D01*
X615364D01*
X614364Y219700D01*
X613364Y218700D01*
X612364D01*
X613364Y217700D01*
X612364Y216700D01*
X613364D01*
X614364Y215700D01*
Y205700D02*
X615364Y206700D01*
X616364D01*
X615364Y207700D01*
X616364Y208700D01*
X615364D01*
X614364Y209700D01*
X613364Y208700D01*
X612364D01*
X613364Y207700D01*
X612364Y206700D01*
X613364D01*
X614364Y205700D01*
X583791Y144800D02*
X584791Y145800D01*
X585791D01*
X584791Y146800D01*
X585791Y147800D01*
X584791D01*
X583791Y148800D01*
X582791Y147800D01*
X581791D01*
X582791Y146800D01*
X581791Y145800D01*
X582791D01*
X583791Y144800D01*
Y164800D02*
X584791Y165800D01*
X585791D01*
X584791Y166800D01*
X585791Y167800D01*
X584791D01*
X583791Y168800D01*
X582791Y167800D01*
X581791D01*
X582791Y166800D01*
X581791Y165800D01*
X582791D01*
X583791Y164800D01*
Y154800D02*
X584791Y155800D01*
X585791D01*
X584791Y156800D01*
X585791Y157800D01*
X584791D01*
X583791Y158800D01*
X582791Y157800D01*
X581791D01*
X582791Y156800D01*
X581791Y155800D01*
X582791D01*
X583791Y154800D01*
X552818Y195700D02*
X553818Y196700D01*
X554818D01*
X553818Y197700D01*
X554818Y198700D01*
X553818D01*
X552818Y199700D01*
X551818Y198700D01*
X550818D01*
X551818Y197700D01*
X550818Y196700D01*
X551818D01*
X552818Y195700D01*
Y215700D02*
X553818Y216700D01*
X554818D01*
X553818Y217700D01*
X554818Y218700D01*
X553818D01*
X552818Y219700D01*
X551818Y218700D01*
X550818D01*
X551818Y217700D01*
X550818Y216700D01*
X551818D01*
X552818Y215700D01*
Y205700D02*
X553818Y206700D01*
X554818D01*
X553818Y207700D01*
X554818Y208700D01*
X553818D01*
X552818Y209700D01*
X551818Y208700D01*
X550818D01*
X551818Y207700D01*
X550818Y206700D01*
X551818D01*
X552818Y205700D01*
X491273Y195700D02*
X492273Y196700D01*
X493273D01*
X492273Y197700D01*
X493273Y198700D01*
X492273D01*
X491273Y199700D01*
X490273Y198700D01*
X489273D01*
X490273Y197700D01*
X489273Y196700D01*
X490273D01*
X491273Y195700D01*
Y215700D02*
X492273Y216700D01*
X493273D01*
X492273Y217700D01*
X493273Y218700D01*
X492273D01*
X491273Y219700D01*
X490273Y218700D01*
X489273D01*
X490273Y217700D01*
X489273Y216700D01*
X490273D01*
X491273Y215700D01*
Y205700D02*
X492273Y206700D01*
X493273D01*
X492273Y207700D01*
X493273Y208700D01*
X492273D01*
X491273Y209700D01*
X490273Y208700D01*
X489273D01*
X490273Y207700D01*
X489273Y206700D01*
X490273D01*
X491273Y205700D01*
X460700Y144800D02*
X461700Y145800D01*
X462700D01*
X461700Y146800D01*
X462700Y147800D01*
X461700D01*
X460700Y148800D01*
X459700Y147800D01*
X458700D01*
X459700Y146800D01*
X458700Y145800D01*
X459700D01*
X460700Y144800D01*
Y164800D02*
X461700Y165800D01*
X462700D01*
X461700Y166800D01*
X462700Y167800D01*
X461700D01*
X460700Y168800D01*
X459700Y167800D01*
X458700D01*
X459700Y166800D01*
X458700Y165800D01*
X459700D01*
X460700Y164800D01*
Y154800D02*
X461700Y155800D01*
X462700D01*
X461700Y156800D01*
X462700Y157800D01*
X461700D01*
X460700Y158800D01*
X459700Y157800D01*
X458700D01*
X459700Y156800D01*
X458700Y155800D01*
X459700D01*
X460700Y154800D01*
X818500Y266400D02*
X819500Y267400D01*
X820500D01*
X819500Y268400D01*
X820500Y269400D01*
X819500D01*
X818500Y270400D01*
X817500Y269400D01*
X816500D01*
X817500Y268400D01*
X816500Y267400D01*
X817500D01*
X818500Y266400D01*
X749600Y263700D02*
X750600Y264700D01*
X751600D01*
X750600Y265700D01*
X751600Y266700D01*
X750600D01*
X749600Y267700D01*
X748600Y266700D01*
X747600D01*
X748600Y265700D01*
X747600Y264700D01*
X748600D01*
X749600Y263700D01*
X775900Y279400D02*
X776900Y280400D01*
X777900D01*
X776900Y281400D01*
X777900Y282400D01*
X776900D01*
X775900Y283400D01*
X774900Y282400D01*
X773900D01*
X774900Y281400D01*
X773900Y280400D01*
X774900D01*
X775900Y279400D01*
X462400Y278900D02*
X463400Y279900D01*
X464400D01*
X463400Y280900D01*
X464400Y281900D01*
X463400D01*
X462400Y282900D01*
X461400Y281900D01*
X460400D01*
X461400Y280900D01*
X460400Y279900D01*
X461400D01*
X462400Y278900D01*
X529400Y254800D02*
X530400Y255800D01*
X531400D01*
X530400Y256800D01*
X531400Y257800D01*
X530400D01*
X529400Y258800D01*
X528400Y257800D01*
X527400D01*
X528400Y256800D01*
X527400Y255800D01*
X528400D01*
X529400Y254800D01*
X518300Y275400D02*
X519300Y276400D01*
X520300D01*
X519300Y277400D01*
X520300Y278400D01*
X519300D01*
X518300Y279400D01*
X517300Y278400D01*
X516300D01*
X517300Y277400D01*
X516300Y276400D01*
X517300D01*
X518300Y275400D01*
X516300Y72000D02*
X514300Y76000D01*
X518300D01*
X516300Y72000D01*
X678000Y759600D02*
X679000Y760600D01*
X680000D01*
X679000Y761600D01*
X680000Y762600D01*
X679000D01*
X678000Y763600D01*
X677000Y762600D01*
X676000D01*
X677000Y761600D01*
X676000Y760600D01*
X677000D01*
X678000Y759600D01*
Y760400D02*
X678600Y761000D01*
X679200D01*
X678600Y761600D01*
X679200Y762200D01*
X678600D01*
X678000Y762800D01*
X677400Y762200D01*
X676800D01*
X677400Y761600D01*
X676800Y761000D01*
X677400D01*
X678000Y760400D01*
X681700Y768400D02*
X682700Y769400D01*
X683700D01*
X682700Y770400D01*
X683700Y771400D01*
X682700D01*
X681700Y772400D01*
X680700Y771400D01*
X679700D01*
X680700Y770400D01*
X679700Y769400D01*
X680700D01*
X681700Y768400D01*
Y769200D02*
X682300Y769800D01*
X682900D01*
X682300Y770400D01*
X682900Y771000D01*
X682300D01*
X681700Y771600D01*
X681100Y771000D01*
X680500D01*
X681100Y770400D01*
X680500Y769800D01*
X681100D01*
X681700Y769200D01*
X663800Y768400D02*
X664800Y769400D01*
X665800D01*
X664800Y770400D01*
X665800Y771400D01*
X664800D01*
X663800Y772400D01*
X662800Y771400D01*
X661800D01*
X662800Y770400D01*
X661800Y769400D01*
X662800D01*
X663800Y768400D01*
Y769200D02*
X664400Y769800D01*
X665000D01*
X664400Y770400D01*
X665000Y771000D01*
X664400D01*
X663800Y771600D01*
X663200Y771000D01*
X662600D01*
X663200Y770400D01*
X662600Y769800D01*
X663200D01*
X663800Y769200D01*
X675000Y732700D02*
X676000Y733700D01*
X677000D01*
X676000Y734700D01*
X677000Y735700D01*
X676000D01*
X675000Y736700D01*
X674000Y735700D01*
X673000D01*
X674000Y734700D01*
X673000Y733700D01*
X674000D01*
X675000Y732700D01*
Y733500D02*
X675600Y734100D01*
X676200D01*
X675600Y734700D01*
X676200Y735300D01*
X675600D01*
X675000Y735900D01*
X674400Y735300D01*
X673800D01*
X674400Y734700D01*
X673800Y734100D01*
X674400D01*
X675000Y733500D01*
X608300Y781600D02*
X609300Y782600D01*
X610300D01*
X609300Y783600D01*
X610300Y784600D01*
X609300D01*
X608300Y785600D01*
X607300Y784600D01*
X606300D01*
X607300Y783600D01*
X606300Y782600D01*
X607300D01*
X608300Y781600D01*
Y782400D02*
X608900Y783000D01*
X609500D01*
X608900Y783600D01*
X609500Y784200D01*
X608900D01*
X608300Y784800D01*
X607700Y784200D01*
X607100D01*
X607700Y783600D01*
X607100Y783000D01*
X607700D01*
X608300Y782400D01*
X584600Y721300D02*
X582600Y725300D01*
X586600D01*
X584600Y721300D01*
X584900Y694900D02*
X582900Y698900D01*
X586900D01*
X584900Y694900D01*
X643200Y754600D02*
X644200Y755600D01*
X645200D01*
X644200Y756600D01*
X645200Y757600D01*
X644200D01*
X643200Y758600D01*
X642200Y757600D01*
X641200D01*
X642200Y756600D01*
X641200Y755600D01*
X642200D01*
X643200Y754600D01*
Y755400D02*
X643800Y756000D01*
X644400D01*
X643800Y756600D01*
X644400Y757200D01*
X643800D01*
X643200Y757800D01*
X642600Y757200D01*
X642000D01*
X642600Y756600D01*
X642000Y756000D01*
X642600D01*
X643200Y755400D01*
X805500Y494800D02*
X803500Y498800D01*
X807500D01*
X805500Y494800D01*
X783700Y470000D02*
X781700Y474000D01*
X785700D01*
X783700Y470000D01*
X473900Y445200D02*
X471900Y449200D01*
X475900D01*
X473900Y445200D01*
X448000Y716500D02*
X446000Y720500D01*
X450000D01*
X448000Y716500D01*
X452000Y725500D02*
X450000Y729500D01*
X454000D01*
X452000Y725500D01*
X492500Y757000D02*
X493500Y758000D01*
X494500D01*
X493500Y759000D01*
X494500Y760000D01*
X493500D01*
X492500Y761000D01*
X491500Y760000D01*
X490500D01*
X491500Y759000D01*
X490500Y758000D01*
X491500D01*
X492500Y757000D01*
Y757800D02*
X493100Y758400D01*
X493700D01*
X493100Y759000D01*
X493700Y759600D01*
X493100D01*
X492500Y760200D01*
X491900Y759600D01*
X491300D01*
X491900Y759000D01*
X491300Y758400D01*
X491900D01*
X492500Y757800D01*
X498500Y750500D02*
X499500Y751500D01*
X500500D01*
X499500Y752500D01*
X500500Y753500D01*
X499500D01*
X498500Y754500D01*
X497500Y753500D01*
X496500D01*
X497500Y752500D01*
X496500Y751500D01*
X497500D01*
X498500Y750500D01*
Y751300D02*
X499100Y751900D01*
X499700D01*
X499100Y752500D01*
X499700Y753100D01*
X499100D01*
X498500Y753700D01*
X497900Y753100D01*
X497300D01*
X497900Y752500D01*
X497300Y751900D01*
X497900D01*
X498500Y751300D01*
X708500Y505200D02*
X706500Y509200D01*
X710500D01*
X708500Y505200D01*
X716500D02*
X714500Y509200D01*
X718500D01*
X716500Y505200D01*
X686500D02*
X684500Y509200D01*
X688500D01*
X686500Y505200D01*
X746500D02*
X744500Y509200D01*
X748500D01*
X746500Y505200D01*
X738500D02*
X736500Y509200D01*
X740500D01*
X738500Y505200D01*
X768500D02*
X766500Y509200D01*
X770500D01*
X768500Y505200D01*
X780000Y500500D02*
X778000Y504500D01*
X782000D01*
X780000Y500500D01*
X578500Y505200D02*
X576500Y509200D01*
X580500D01*
X578500Y505200D01*
X548500D02*
X546500Y509200D01*
X550500D01*
X548500Y505200D01*
X556500D02*
X554500Y509200D01*
X558500D01*
X556500Y505200D01*
X496500D02*
X494500Y509200D01*
X498500D01*
X496500Y505200D01*
X526500D02*
X524500Y509200D01*
X528500D01*
X526500Y505200D01*
X518500D02*
X516500Y509200D01*
X520500D01*
X518500Y505200D01*
X665200Y492600D02*
X666200Y493600D01*
X667200D01*
X666200Y494600D01*
X667200Y495600D01*
X666200D01*
X665200Y496600D01*
X664200Y495600D01*
X663200D01*
X664200Y494600D01*
X663200Y493600D01*
X664200D01*
X665200Y492600D01*
Y493400D02*
X665800Y494000D01*
X666400D01*
X665800Y494600D01*
X666400Y495200D01*
X665800D01*
X665200Y495800D01*
X664600Y495200D01*
X664000D01*
X664600Y494600D01*
X664000Y494000D01*
X664600D01*
X665200Y493400D01*
X653500Y497100D02*
X654500Y498100D01*
X655500D01*
X654500Y499100D01*
X655500Y500100D01*
X654500D01*
X653500Y501100D01*
X652500Y500100D01*
X651500D01*
X652500Y499100D01*
X651500Y498100D01*
X652500D01*
X653500Y497100D01*
Y497900D02*
X654100Y498500D01*
X654700D01*
X654100Y499100D01*
X654700Y499700D01*
X654100D01*
X653500Y500300D01*
X652900Y499700D01*
X652300D01*
X652900Y499100D01*
X652300Y498500D01*
X652900D01*
X653500Y497900D01*
X655600Y478200D02*
X656600Y479200D01*
X657600D01*
X656600Y480200D01*
X657600Y481200D01*
X656600D01*
X655600Y482200D01*
X654600Y481200D01*
X653600D01*
X654600Y480200D01*
X653600Y479200D01*
X654600D01*
X655600Y478200D01*
Y479000D02*
X656200Y479600D01*
X656800D01*
X656200Y480200D01*
X656800Y480800D01*
X656200D01*
X655600Y481400D01*
X655000Y480800D01*
X654400D01*
X655000Y480200D01*
X654400Y479600D01*
X655000D01*
X655600Y479000D01*
X662810Y472390D02*
X663810Y473390D01*
X664810D01*
X663810Y474390D01*
X664810Y475390D01*
X663810D01*
X662810Y476390D01*
X661810Y475390D01*
X660810D01*
X661810Y474390D01*
X660810Y473390D01*
X661810D01*
X662810Y472390D01*
Y473190D02*
X663410Y473790D01*
X664010D01*
X663410Y474390D01*
X664010Y474990D01*
X663410D01*
X662810Y475590D01*
X662210Y474990D01*
X661610D01*
X662210Y474390D01*
X661610Y473790D01*
X662210D01*
X662810Y473190D01*
X634200Y479200D02*
X635200Y480200D01*
X636200D01*
X635200Y481200D01*
X636200Y482200D01*
X635200D01*
X634200Y483200D01*
X633200Y482200D01*
X632200D01*
X633200Y481200D01*
X632200Y480200D01*
X633200D01*
X634200Y479200D01*
Y480000D02*
X634800Y480600D01*
X635400D01*
X634800Y481200D01*
X635400Y481800D01*
X634800D01*
X634200Y482400D01*
X633600Y481800D01*
X633000D01*
X633600Y481200D01*
X633000Y480600D01*
X633600D01*
X634200Y480000D01*
X650900Y476800D02*
X651900Y477800D01*
X652900D01*
X651900Y478800D01*
X652900Y479800D01*
X651900D01*
X650900Y480800D01*
X649900Y479800D01*
X648900D01*
X649900Y478800D01*
X648900Y477800D01*
X649900D01*
X650900Y476800D01*
Y477600D02*
X651500Y478200D01*
X652100D01*
X651500Y478800D01*
X652100Y479400D01*
X651500D01*
X650900Y480000D01*
X650300Y479400D01*
X649700D01*
X650300Y478800D01*
X649700Y478200D01*
X650300D01*
X650900Y477600D01*
X625900Y492700D02*
X626900Y493700D01*
X627900D01*
X626900Y494700D01*
X627900Y495700D01*
X626900D01*
X625900Y496700D01*
X624900Y495700D01*
X623900D01*
X624900Y494700D01*
X623900Y493700D01*
X624900D01*
X625900Y492700D01*
Y493500D02*
X626500Y494100D01*
X627100D01*
X626500Y494700D01*
X627100Y495300D01*
X626500D01*
X625900Y495900D01*
X625300Y495300D01*
X624700D01*
X625300Y494700D01*
X624700Y494100D01*
X625300D01*
X625900Y493500D01*
X620800Y493100D02*
X621800Y494100D01*
X622800D01*
X621800Y495100D01*
X622800Y496100D01*
X621800D01*
X620800Y497100D01*
X619800Y496100D01*
X618800D01*
X619800Y495100D01*
X618800Y494100D01*
X619800D01*
X620800Y493100D01*
Y493900D02*
X621400Y494500D01*
X622000D01*
X621400Y495100D01*
X622000Y495700D01*
X621400D01*
X620800Y496300D01*
X620200Y495700D01*
X619600D01*
X620200Y495100D01*
X619600Y494500D01*
X620200D01*
X620800Y493900D01*
X598700Y482200D02*
X599700Y483200D01*
X600700D01*
X599700Y484200D01*
X600700Y485200D01*
X599700D01*
X598700Y486200D01*
X597700Y485200D01*
X596700D01*
X597700Y484200D01*
X596700Y483200D01*
X597700D01*
X598700Y482200D01*
Y483000D02*
X599300Y483600D01*
X599900D01*
X599300Y484200D01*
X599900Y484800D01*
X599300D01*
X598700Y485400D01*
X598100Y484800D01*
X597500D01*
X598100Y484200D01*
X597500Y483600D01*
X598100D01*
X598700Y483000D01*
X609300Y475400D02*
X610300Y476400D01*
X611300D01*
X610300Y477400D01*
X611300Y478400D01*
X610300D01*
X609300Y479400D01*
X608300Y478400D01*
X607300D01*
X608300Y477400D01*
X607300Y476400D01*
X608300D01*
X609300Y475400D01*
Y476200D02*
X609900Y476800D01*
X610500D01*
X609900Y477400D01*
X610500Y478000D01*
X609900D01*
X609300Y478600D01*
X608700Y478000D01*
X608100D01*
X608700Y477400D01*
X608100Y476800D01*
X608700D01*
X609300Y476200D01*
X559500Y778000D02*
X560500Y779000D01*
X561500D01*
X560500Y780000D01*
X561500Y781000D01*
X560500D01*
X559500Y782000D01*
X558500Y781000D01*
X557500D01*
X558500Y780000D01*
X557500Y779000D01*
X558500D01*
X559500Y778000D01*
Y778800D02*
X560100Y779400D01*
X560700D01*
X560100Y780000D01*
X560700Y780600D01*
X560100D01*
X559500Y781200D01*
X558900Y780600D01*
X558300D01*
X558900Y780000D01*
X558300Y779400D01*
X558900D01*
X559500Y778800D01*
X562600Y770700D02*
X563600Y771700D01*
X564600D01*
X563600Y772700D01*
X564600Y773700D01*
X563600D01*
X562600Y774700D01*
X561600Y773700D01*
X560600D01*
X561600Y772700D01*
X560600Y771700D01*
X561600D01*
X562600Y770700D01*
Y771500D02*
X563200Y772100D01*
X563800D01*
X563200Y772700D01*
X563800Y773300D01*
X563200D01*
X562600Y773900D01*
X562000Y773300D01*
X561400D01*
X562000Y772700D01*
X561400Y772100D01*
X562000D01*
X562600Y771500D01*
X567900Y756000D02*
X568900Y757000D01*
X569900D01*
X568900Y758000D01*
X569900Y759000D01*
X568900D01*
X567900Y760000D01*
X566900Y759000D01*
X565900D01*
X566900Y758000D01*
X565900Y757000D01*
X566900D01*
X567900Y756000D01*
Y756800D02*
X568500Y757400D01*
X569100D01*
X568500Y758000D01*
X569100Y758600D01*
X568500D01*
X567900Y759200D01*
X567300Y758600D01*
X566700D01*
X567300Y758000D01*
X566700Y757400D01*
X567300D01*
X567900Y756800D01*
X553200Y755500D02*
X554200Y756500D01*
X555200D01*
X554200Y757500D01*
X555200Y758500D01*
X554200D01*
X553200Y759500D01*
X552200Y758500D01*
X551200D01*
X552200Y757500D01*
X551200Y756500D01*
X552200D01*
X553200Y755500D01*
Y756300D02*
X553800Y756900D01*
X554400D01*
X553800Y757500D01*
X554400Y758100D01*
X553800D01*
X553200Y758700D01*
X552600Y758100D01*
X552000D01*
X552600Y757500D01*
X552000Y756900D01*
X552600D01*
X553200Y756300D01*
X567700Y763100D02*
X568700Y764100D01*
X569700D01*
X568700Y765100D01*
X569700Y766100D01*
X568700D01*
X567700Y767100D01*
X566700Y766100D01*
X565700D01*
X566700Y765100D01*
X565700Y764100D01*
X566700D01*
X567700Y763100D01*
Y763900D02*
X568300Y764500D01*
X568900D01*
X568300Y765100D01*
X568900Y765700D01*
X568300D01*
X567700Y766300D01*
X567100Y765700D01*
X566500D01*
X567100Y765100D01*
X566500Y764500D01*
X567100D01*
X567700Y763900D01*
X556700Y763000D02*
X557700Y764000D01*
X558700D01*
X557700Y765000D01*
X558700Y766000D01*
X557700D01*
X556700Y767000D01*
X555700Y766000D01*
X554700D01*
X555700Y765000D01*
X554700Y764000D01*
X555700D01*
X556700Y763000D01*
Y763800D02*
X557300Y764400D01*
X557900D01*
X557300Y765000D01*
X557900Y765600D01*
X557300D01*
X556700Y766200D01*
X556100Y765600D01*
X555500D01*
X556100Y765000D01*
X555500Y764400D01*
X556100D01*
X556700Y763800D01*
X569800Y735300D02*
X570800Y736300D01*
X571800D01*
X570800Y737300D01*
X571800Y738300D01*
X570800D01*
X569800Y739300D01*
X568800Y738300D01*
X567800D01*
X568800Y737300D01*
X567800Y736300D01*
X568800D01*
X569800Y735300D01*
Y736100D02*
X570400Y736700D01*
X571000D01*
X570400Y737300D01*
X571000Y737900D01*
X570400D01*
X569800Y738500D01*
X569200Y737900D01*
X568600D01*
X569200Y737300D01*
X568600Y736700D01*
X569200D01*
X569800Y736100D01*
X638200Y755500D02*
X639200Y756500D01*
X640200D01*
X639200Y757500D01*
X640200Y758500D01*
X639200D01*
X638200Y759500D01*
X637200Y758500D01*
X636200D01*
X637200Y757500D01*
X636200Y756500D01*
X637200D01*
X638200Y755500D01*
Y756300D02*
X638800Y756900D01*
X639400D01*
X638800Y757500D01*
X639400Y758100D01*
X638800D01*
X638200Y758700D01*
X637600Y758100D01*
X637000D01*
X637600Y757500D01*
X637000Y756900D01*
X637600D01*
X638200Y756300D01*
X642700Y761500D02*
X643700Y762500D01*
X644700D01*
X643700Y763500D01*
X644700Y764500D01*
X643700D01*
X642700Y765500D01*
X641700Y764500D01*
X640700D01*
X641700Y763500D01*
X640700Y762500D01*
X641700D01*
X642700Y761500D01*
Y762300D02*
X643300Y762900D01*
X643900D01*
X643300Y763500D01*
X643900Y764100D01*
X643300D01*
X642700Y764700D01*
X642100Y764100D01*
X641500D01*
X642100Y763500D01*
X641500Y762900D01*
X642100D01*
X642700Y762300D01*
X633200Y774200D02*
X634200Y775200D01*
X635200D01*
X634200Y776200D01*
X635200Y777200D01*
X634200D01*
X633200Y778200D01*
X632200Y777200D01*
X631200D01*
X632200Y776200D01*
X631200Y775200D01*
X632200D01*
X633200Y774200D01*
Y775000D02*
X633800Y775600D01*
X634400D01*
X633800Y776200D01*
X634400Y776800D01*
X633800D01*
X633200Y777400D01*
X632600Y776800D01*
X632000D01*
X632600Y776200D01*
X632000Y775600D01*
X632600D01*
X633200Y775000D01*
X619500Y763600D02*
X620500Y764600D01*
X621500D01*
X620500Y765600D01*
X621500Y766600D01*
X620500D01*
X619500Y767600D01*
X618500Y766600D01*
X617500D01*
X618500Y765600D01*
X617500Y764600D01*
X618500D01*
X619500Y763600D01*
Y764400D02*
X620100Y765000D01*
X620700D01*
X620100Y765600D01*
X620700Y766200D01*
X620100D01*
X619500Y766800D01*
X618900Y766200D01*
X618300D01*
X618900Y765600D01*
X618300Y765000D01*
X618900D01*
X619500Y764400D01*
X598600Y758700D02*
X599600Y759700D01*
X600600D01*
X599600Y760700D01*
X600600Y761700D01*
X599600D01*
X598600Y762700D01*
X597600Y761700D01*
X596600D01*
X597600Y760700D01*
X596600Y759700D01*
X597600D01*
X598600Y758700D01*
Y759500D02*
X599200Y760100D01*
X599800D01*
X599200Y760700D01*
X599800Y761300D01*
X599200D01*
X598600Y761900D01*
X598000Y761300D01*
X597400D01*
X598000Y760700D01*
X597400Y760100D01*
X598000D01*
X598600Y759500D01*
X616100Y746400D02*
X617100Y747400D01*
X618100D01*
X617100Y748400D01*
X618100Y749400D01*
X617100D01*
X616100Y750400D01*
X615100Y749400D01*
X614100D01*
X615100Y748400D01*
X614100Y747400D01*
X615100D01*
X616100Y746400D01*
Y747200D02*
X616700Y747800D01*
X617300D01*
X616700Y748400D01*
X617300Y749000D01*
X616700D01*
X616100Y749600D01*
X615500Y749000D01*
X614900D01*
X615500Y748400D01*
X614900Y747800D01*
X615500D01*
X616100Y747200D01*
X630984Y761500D02*
X631984Y762500D01*
X632984D01*
X631984Y763500D01*
X632984Y764500D01*
X631984D01*
X630984Y765500D01*
X629984Y764500D01*
X628984D01*
X629984Y763500D01*
X628984Y762500D01*
X629984D01*
X630984Y761500D01*
Y762300D02*
X631584Y762900D01*
X632184D01*
X631584Y763500D01*
X632184Y764100D01*
X631584D01*
X630984Y764700D01*
X630384Y764100D01*
X629784D01*
X630384Y763500D01*
X629784Y762900D01*
X630384D01*
X630984Y762300D01*
X628800Y751100D02*
X629800Y752100D01*
X630800D01*
X629800Y753100D01*
X630800Y754100D01*
X629800D01*
X628800Y755100D01*
X627800Y754100D01*
X626800D01*
X627800Y753100D01*
X626800Y752100D01*
X627800D01*
X628800Y751100D01*
Y751900D02*
X629400Y752500D01*
X630000D01*
X629400Y753100D01*
X630000Y753700D01*
X629400D01*
X628800Y754300D01*
X628200Y753700D01*
X627600D01*
X628200Y753100D01*
X627600Y752500D01*
X628200D01*
X628800Y751900D01*
X625100Y755579D02*
X626100Y756579D01*
X627100D01*
X626100Y757579D01*
X627100Y758579D01*
X626100D01*
X625100Y759579D01*
X624100Y758579D01*
X623100D01*
X624100Y757579D01*
X623100Y756579D01*
X624100D01*
X625100Y755579D01*
Y756379D02*
X625700Y756979D01*
X626300D01*
X625700Y757579D01*
X626300Y758179D01*
X625700D01*
X625100Y758779D01*
X624500Y758179D01*
X623900D01*
X624500Y757579D01*
X623900Y756979D01*
X624500D01*
X625100Y756379D01*
X626300Y774400D02*
X627300Y775400D01*
X628300D01*
X627300Y776400D01*
X628300Y777400D01*
X627300D01*
X626300Y778400D01*
X625300Y777400D01*
X624300D01*
X625300Y776400D01*
X624300Y775400D01*
X625300D01*
X626300Y774400D01*
Y775200D02*
X626900Y775800D01*
X627500D01*
X626900Y776400D01*
X627500Y777000D01*
X626900D01*
X626300Y777600D01*
X625700Y777000D01*
X625100D01*
X625700Y776400D01*
X625100Y775800D01*
X625700D01*
X626300Y775200D01*
X582000Y749900D02*
X583000Y750900D01*
X584000D01*
X583000Y751900D01*
X584000Y752900D01*
X583000D01*
X582000Y753900D01*
X581000Y752900D01*
X580000D01*
X581000Y751900D01*
X580000Y750900D01*
X581000D01*
X582000Y749900D01*
Y750700D02*
X582600Y751300D01*
X583200D01*
X582600Y751900D01*
X583200Y752500D01*
X582600D01*
X582000Y753100D01*
X581400Y752500D01*
X580800D01*
X581400Y751900D01*
X580800Y751300D01*
X581400D01*
X582000Y750700D01*
X616400Y730200D02*
X617400Y731200D01*
X618400D01*
X617400Y732200D01*
X618400Y733200D01*
X617400D01*
X616400Y734200D01*
X615400Y733200D01*
X614400D01*
X615400Y732200D01*
X614400Y731200D01*
X615400D01*
X616400Y730200D01*
Y731000D02*
X617000Y731600D01*
X617600D01*
X617000Y732200D01*
X617600Y732800D01*
X617000D01*
X616400Y733400D01*
X615800Y732800D01*
X615200D01*
X615800Y732200D01*
X615200Y731600D01*
X615800D01*
X616400Y731000D01*
X611900Y732000D02*
X612900Y733000D01*
X613900D01*
X612900Y734000D01*
X613900Y735000D01*
X612900D01*
X611900Y736000D01*
X610900Y735000D01*
X609900D01*
X610900Y734000D01*
X609900Y733000D01*
X610900D01*
X611900Y732000D01*
Y732800D02*
X612500Y733400D01*
X613100D01*
X612500Y734000D01*
X613100Y734600D01*
X612500D01*
X611900Y735200D01*
X611300Y734600D01*
X610700D01*
X611300Y734000D01*
X610700Y733400D01*
X611300D01*
X611900Y732800D01*
X687800Y749500D02*
X685800Y753500D01*
X689800D01*
X687800Y749500D01*
X483200Y703900D02*
X481200Y707900D01*
X485200D01*
X483200Y703900D01*
X466100Y680800D02*
X467100Y681800D01*
X468100D01*
X467100Y682800D01*
X468100Y683800D01*
X467100D01*
X466100Y684800D01*
X465100Y683800D01*
X464100D01*
X465100Y682800D01*
X464100Y681800D01*
X465100D01*
X466100Y680800D01*
Y681600D02*
X466700Y682200D01*
X467300D01*
X466700Y682800D01*
X467300Y683400D01*
X466700D01*
X466100Y684000D01*
X465500Y683400D01*
X464900D01*
X465500Y682800D01*
X464900Y682200D01*
X465500D01*
X466100Y681600D01*
X448000Y662500D02*
X446000Y666500D01*
X450000D01*
X448000Y662500D01*
X668300Y426800D02*
X669300Y427800D01*
X670300D01*
X669300Y428800D01*
X670300Y429800D01*
X669300D01*
X668300Y430800D01*
X667300Y429800D01*
X666300D01*
X667300Y428800D01*
X666300Y427800D01*
X667300D01*
X668300Y426800D01*
Y427600D02*
X668900Y428200D01*
X669500D01*
X668900Y428800D01*
X669500Y429400D01*
X668900D01*
X668300Y430000D01*
X667700Y429400D01*
X667100D01*
X667700Y428800D01*
X667100Y428200D01*
X667700D01*
X668300Y427600D01*
X620200Y438600D02*
X621200Y439600D01*
X622200D01*
X621200Y440600D01*
X622200Y441600D01*
X621200D01*
X620200Y442600D01*
X619200Y441600D01*
X618200D01*
X619200Y440600D01*
X618200Y439600D01*
X619200D01*
X620200Y438600D01*
Y439400D02*
X620800Y440000D01*
X621400D01*
X620800Y440600D01*
X621400Y441200D01*
X620800D01*
X620200Y441800D01*
X619600Y441200D01*
X619000D01*
X619600Y440600D01*
X619000Y440000D01*
X619600D01*
X620200Y439400D01*
X767800Y788800D02*
X768800Y789800D01*
X769800D01*
X768800Y790800D01*
X769800Y791800D01*
X768800D01*
X767800Y792800D01*
X766800Y791800D01*
X765800D01*
X766800Y790800D01*
X765800Y789800D01*
X766800D01*
X767800Y788800D01*
Y789600D02*
X768400Y790200D01*
X769000D01*
X768400Y790800D01*
X769000Y791400D01*
X768400D01*
X767800Y792000D01*
X767200Y791400D01*
X766600D01*
X767200Y790800D01*
X766600Y790200D01*
X767200D01*
X767800Y789600D01*
X757800Y788800D02*
X758800Y789800D01*
X759800D01*
X758800Y790800D01*
X759800Y791800D01*
X758800D01*
X757800Y792800D01*
X756800Y791800D01*
X755800D01*
X756800Y790800D01*
X755800Y789800D01*
X756800D01*
X757800Y788800D01*
Y789600D02*
X758400Y790200D01*
X759000D01*
X758400Y790800D01*
X759000Y791400D01*
X758400D01*
X757800Y792000D01*
X757200Y791400D01*
X756600D01*
X757200Y790800D01*
X756600Y790200D01*
X757200D01*
X757800Y789600D01*
X747800Y788800D02*
X748800Y789800D01*
X749800D01*
X748800Y790800D01*
X749800Y791800D01*
X748800D01*
X747800Y792800D01*
X746800Y791800D01*
X745800D01*
X746800Y790800D01*
X745800Y789800D01*
X746800D01*
X747800Y788800D01*
Y789600D02*
X748400Y790200D01*
X749000D01*
X748400Y790800D01*
X749000Y791400D01*
X748400D01*
X747800Y792000D01*
X747200Y791400D01*
X746600D01*
X747200Y790800D01*
X746600Y790200D01*
X747200D01*
X747800Y789600D01*
X737800Y788800D02*
X738800Y789800D01*
X739800D01*
X738800Y790800D01*
X739800Y791800D01*
X738800D01*
X737800Y792800D01*
X736800Y791800D01*
X735800D01*
X736800Y790800D01*
X735800Y789800D01*
X736800D01*
X737800Y788800D01*
Y789600D02*
X738400Y790200D01*
X739000D01*
X738400Y790800D01*
X739000Y791400D01*
X738400D01*
X737800Y792000D01*
X737200Y791400D01*
X736600D01*
X737200Y790800D01*
X736600Y790200D01*
X737200D01*
X737800Y789600D01*
X727800Y788800D02*
X728800Y789800D01*
X729800D01*
X728800Y790800D01*
X729800Y791800D01*
X728800D01*
X727800Y792800D01*
X726800Y791800D01*
X725800D01*
X726800Y790800D01*
X725800Y789800D01*
X726800D01*
X727800Y788800D01*
Y789600D02*
X728400Y790200D01*
X729000D01*
X728400Y790800D01*
X729000Y791400D01*
X728400D01*
X727800Y792000D01*
X727200Y791400D01*
X726600D01*
X727200Y790800D01*
X726600Y790200D01*
X727200D01*
X727800Y789600D01*
X717800Y788800D02*
X718800Y789800D01*
X719800D01*
X718800Y790800D01*
X719800Y791800D01*
X718800D01*
X717800Y792800D01*
X716800Y791800D01*
X715800D01*
X716800Y790800D01*
X715800Y789800D01*
X716800D01*
X717800Y788800D01*
Y789600D02*
X718400Y790200D01*
X719000D01*
X718400Y790800D01*
X719000Y791400D01*
X718400D01*
X717800Y792000D01*
X717200Y791400D01*
X716600D01*
X717200Y790800D01*
X716600Y790200D01*
X717200D01*
X717800Y789600D01*
X707800Y788800D02*
X708800Y789800D01*
X709800D01*
X708800Y790800D01*
X709800Y791800D01*
X708800D01*
X707800Y792800D01*
X706800Y791800D01*
X705800D01*
X706800Y790800D01*
X705800Y789800D01*
X706800D01*
X707800Y788800D01*
Y789600D02*
X708400Y790200D01*
X709000D01*
X708400Y790800D01*
X709000Y791400D01*
X708400D01*
X707800Y792000D01*
X707200Y791400D01*
X706600D01*
X707200Y790800D01*
X706600Y790200D01*
X707200D01*
X707800Y789600D01*
X697800Y788800D02*
X698800Y789800D01*
X699800D01*
X698800Y790800D01*
X699800Y791800D01*
X698800D01*
X697800Y792800D01*
X696800Y791800D01*
X695800D01*
X696800Y790800D01*
X695800Y789800D01*
X696800D01*
X697800Y788800D01*
Y789600D02*
X698400Y790200D01*
X699000D01*
X698400Y790800D01*
X699000Y791400D01*
X698400D01*
X697800Y792000D01*
X697200Y791400D01*
X696600D01*
X697200Y790800D01*
X696600Y790200D01*
X697200D01*
X697800Y789600D01*
X750000Y703000D02*
X751000Y704000D01*
X752000D01*
X751000Y705000D01*
X752000Y706000D01*
X751000D01*
X750000Y707000D01*
X749000Y706000D01*
X748000D01*
X749000Y705000D01*
X748000Y704000D01*
X749000D01*
X750000Y703000D01*
Y703800D02*
X750600Y704400D01*
X751200D01*
X750600Y705000D01*
X751200Y705600D01*
X750600D01*
X750000Y706200D01*
X749400Y705600D01*
X748800D01*
X749400Y705000D01*
X748800Y704400D01*
X749400D01*
X750000Y703800D01*
X730000Y703000D02*
X731000Y704000D01*
X732000D01*
X731000Y705000D01*
X732000Y706000D01*
X731000D01*
X730000Y707000D01*
X729000Y706000D01*
X728000D01*
X729000Y705000D01*
X728000Y704000D01*
X729000D01*
X730000Y703000D01*
Y703800D02*
X730600Y704400D01*
X731200D01*
X730600Y705000D01*
X731200Y705600D01*
X730600D01*
X730000Y706200D01*
X729400Y705600D01*
X728800D01*
X729400Y705000D01*
X728800Y704400D01*
X729400D01*
X730000Y703800D01*
X710000Y703000D02*
X711000Y704000D01*
X712000D01*
X711000Y705000D01*
X712000Y706000D01*
X711000D01*
X710000Y707000D01*
X709000Y706000D01*
X708000D01*
X709000Y705000D01*
X708000Y704000D01*
X709000D01*
X710000Y703000D01*
Y703800D02*
X710600Y704400D01*
X711200D01*
X710600Y705000D01*
X711200Y705600D01*
X710600D01*
X710000Y706200D01*
X709400Y705600D01*
X708800D01*
X709400Y705000D01*
X708800Y704400D01*
X709400D01*
X710000Y703800D01*
X690000Y703000D02*
X691000Y704000D01*
X692000D01*
X691000Y705000D01*
X692000Y706000D01*
X691000D01*
X690000Y707000D01*
X689000Y706000D01*
X688000D01*
X689000Y705000D01*
X688000Y704000D01*
X689000D01*
X690000Y703000D01*
Y703800D02*
X690600Y704400D01*
X691200D01*
X690600Y705000D01*
X691200Y705600D01*
X690600D01*
X690000Y706200D01*
X689400Y705600D01*
X688800D01*
X689400Y705000D01*
X688800Y704400D01*
X689400D01*
X690000Y703800D01*
X660000Y703000D02*
X661000Y704000D01*
X662000D01*
X661000Y705000D01*
X662000Y706000D01*
X661000D01*
X660000Y707000D01*
X659000Y706000D01*
X658000D01*
X659000Y705000D01*
X658000Y704000D01*
X659000D01*
X660000Y703000D01*
Y703800D02*
X660600Y704400D01*
X661200D01*
X660600Y705000D01*
X661200Y705600D01*
X660600D01*
X660000Y706200D01*
X659400Y705600D01*
X658800D01*
X659400Y705000D01*
X658800Y704400D01*
X659400D01*
X660000Y703800D01*
X640000Y703000D02*
X641000Y704000D01*
X642000D01*
X641000Y705000D01*
X642000Y706000D01*
X641000D01*
X640000Y707000D01*
X639000Y706000D01*
X638000D01*
X639000Y705000D01*
X638000Y704000D01*
X639000D01*
X640000Y703000D01*
Y703800D02*
X640600Y704400D01*
X641200D01*
X640600Y705000D01*
X641200Y705600D01*
X640600D01*
X640000Y706200D01*
X639400Y705600D01*
X638800D01*
X639400Y705000D01*
X638800Y704400D01*
X639400D01*
X640000Y703800D01*
X620000Y703000D02*
X621000Y704000D01*
X622000D01*
X621000Y705000D01*
X622000Y706000D01*
X621000D01*
X620000Y707000D01*
X619000Y706000D01*
X618000D01*
X619000Y705000D01*
X618000Y704000D01*
X619000D01*
X620000Y703000D01*
Y703800D02*
X620600Y704400D01*
X621200D01*
X620600Y705000D01*
X621200Y705600D01*
X620600D01*
X620000Y706200D01*
X619400Y705600D01*
X618800D01*
X619400Y705000D01*
X618800Y704400D01*
X619400D01*
X620000Y703800D01*
X600000Y703000D02*
X601000Y704000D01*
X602000D01*
X601000Y705000D01*
X602000Y706000D01*
X601000D01*
X600000Y707000D01*
X599000Y706000D01*
X598000D01*
X599000Y705000D01*
X598000Y704000D01*
X599000D01*
X600000Y703000D01*
Y703800D02*
X600600Y704400D01*
X601200D01*
X600600Y705000D01*
X601200Y705600D01*
X600600D01*
X600000Y706200D01*
X599400Y705600D01*
X598800D01*
X599400Y705000D01*
X598800Y704400D01*
X599400D01*
X600000Y703800D01*
X570000Y703000D02*
X571000Y704000D01*
X572000D01*
X571000Y705000D01*
X572000Y706000D01*
X571000D01*
X570000Y707000D01*
X569000Y706000D01*
X568000D01*
X569000Y705000D01*
X568000Y704000D01*
X569000D01*
X570000Y703000D01*
Y703800D02*
X570600Y704400D01*
X571200D01*
X570600Y705000D01*
X571200Y705600D01*
X570600D01*
X570000Y706200D01*
X569400Y705600D01*
X568800D01*
X569400Y705000D01*
X568800Y704400D01*
X569400D01*
X570000Y703800D01*
X550000Y703000D02*
X551000Y704000D01*
X552000D01*
X551000Y705000D01*
X552000Y706000D01*
X551000D01*
X550000Y707000D01*
X549000Y706000D01*
X548000D01*
X549000Y705000D01*
X548000Y704000D01*
X549000D01*
X550000Y703000D01*
Y703800D02*
X550600Y704400D01*
X551200D01*
X550600Y705000D01*
X551200Y705600D01*
X550600D01*
X550000Y706200D01*
X549400Y705600D01*
X548800D01*
X549400Y705000D01*
X548800Y704400D01*
X549400D01*
X550000Y703800D01*
X530000Y703000D02*
X531000Y704000D01*
X532000D01*
X531000Y705000D01*
X532000Y706000D01*
X531000D01*
X530000Y707000D01*
X529000Y706000D01*
X528000D01*
X529000Y705000D01*
X528000Y704000D01*
X529000D01*
X530000Y703000D01*
Y703800D02*
X530600Y704400D01*
X531200D01*
X530600Y705000D01*
X531200Y705600D01*
X530600D01*
X530000Y706200D01*
X529400Y705600D01*
X528800D01*
X529400Y705000D01*
X528800Y704400D01*
X529400D01*
X530000Y703800D01*
X510000Y703000D02*
X511000Y704000D01*
X512000D01*
X511000Y705000D01*
X512000Y706000D01*
X511000D01*
X510000Y707000D01*
X509000Y706000D01*
X508000D01*
X509000Y705000D01*
X508000Y704000D01*
X509000D01*
X510000Y703000D01*
Y703800D02*
X510600Y704400D01*
X511200D01*
X510600Y705000D01*
X511200Y705600D01*
X510600D01*
X510000Y706200D01*
X509400Y705600D01*
X508800D01*
X509400Y705000D01*
X508800Y704400D01*
X509400D01*
X510000Y703800D01*
X476800Y635700D02*
X474800Y639700D01*
X478800D01*
X476800Y635700D01*
X736100Y72500D02*
X734100Y76500D01*
X738100D01*
X736100Y72500D01*
X716100Y72550D02*
X714100Y76550D01*
X718100D01*
X716100Y72550D01*
X696100Y72500D02*
X694100Y76500D01*
X698100D01*
X696100Y72500D01*
X676100Y72550D02*
X674100Y76550D01*
X678100D01*
X676100Y72550D01*
X656100Y72500D02*
X654100Y76500D01*
X658100D01*
X656100Y72500D01*
X636100Y72550D02*
X634100Y76550D01*
X638100D01*
X636100Y72550D01*
X616100Y72500D02*
X614100Y76500D01*
X618100D01*
X616100Y72500D01*
X596100Y72550D02*
X594100Y76550D01*
X598100D01*
X596100Y72550D01*
X576100D02*
X574100Y76550D01*
X578100D01*
X576100Y72550D01*
X556100D02*
X554100Y76550D01*
X558100D01*
X556100Y72550D01*
X536100D02*
X534100Y76550D01*
X538100D01*
X536100Y72550D01*
X642200Y376800D02*
X640200Y380800D01*
X644200D01*
X642200Y376800D01*
X628000Y476300D02*
X629000Y477300D01*
X630000D01*
X629000Y478300D01*
X630000Y479300D01*
X629000D01*
X628000Y480300D01*
X627000Y479300D01*
X626000D01*
X627000Y478300D01*
X626000Y477300D01*
X627000D01*
X628000Y476300D01*
Y477100D02*
X628600Y477700D01*
X629200D01*
X628600Y478300D01*
X629200Y478900D01*
X628600D01*
X628000Y479500D01*
X627400Y478900D01*
X626800D01*
X627400Y478300D01*
X626800Y477700D01*
X627400D01*
X628000Y477100D01*
X620200Y475500D02*
X621200Y476500D01*
X622200D01*
X621200Y477500D01*
X622200Y478500D01*
X621200D01*
X620200Y479500D01*
X619200Y478500D01*
X618200D01*
X619200Y477500D01*
X618200Y476500D01*
X619200D01*
X620200Y475500D01*
Y476300D02*
X620800Y476900D01*
X621400D01*
X620800Y477500D01*
X621400Y478100D01*
X620800D01*
X620200Y478700D01*
X619600Y478100D01*
X619000D01*
X619600Y477500D01*
X619000Y476900D01*
X619600D01*
X620200Y476300D01*
X615300Y476000D02*
X616300Y477000D01*
X617300D01*
X616300Y478000D01*
X617300Y479000D01*
X616300D01*
X615300Y480000D01*
X614300Y479000D01*
X613300D01*
X614300Y478000D01*
X613300Y477000D01*
X614300D01*
X615300Y476000D01*
Y476800D02*
X615900Y477400D01*
X616500D01*
X615900Y478000D01*
X616500Y478600D01*
X615900D01*
X615300Y479200D01*
X614700Y478600D01*
X614100D01*
X614700Y478000D01*
X614100Y477400D01*
X614700D01*
X615300Y476800D01*
X634800Y492300D02*
X635800Y493300D01*
X636800D01*
X635800Y494300D01*
X636800Y495300D01*
X635800D01*
X634800Y496300D01*
X633800Y495300D01*
X632800D01*
X633800Y494300D01*
X632800Y493300D01*
X633800D01*
X634800Y492300D01*
Y493100D02*
X635400Y493700D01*
X636000D01*
X635400Y494300D01*
X636000Y494900D01*
X635400D01*
X634800Y495500D01*
X634200Y494900D01*
X633600D01*
X634200Y494300D01*
X633600Y493700D01*
X634200D01*
X634800Y493100D01*
X638100Y390500D02*
X636100Y394500D01*
X640100D01*
X638100Y390500D01*
Y416200D02*
X636100Y420200D01*
X640100D01*
X638100Y416200D01*
X560400Y784000D02*
X561400Y785000D01*
X562400D01*
X561400Y786000D01*
X562400Y787000D01*
X561400D01*
X560400Y788000D01*
X559400Y787000D01*
X558400D01*
X559400Y786000D01*
X558400Y785000D01*
X559400D01*
X560400Y784000D01*
Y784800D02*
X561000Y785400D01*
X561600D01*
X561000Y786000D01*
X561600Y786600D01*
X561000D01*
X560400Y787200D01*
X559800Y786600D01*
X559200D01*
X559800Y786000D01*
X559200Y785400D01*
X559800D01*
X560400Y784800D01*
X596300Y781400D02*
X597300Y782400D01*
X598300D01*
X597300Y783400D01*
X598300Y784400D01*
X597300D01*
X596300Y785400D01*
X595300Y784400D01*
X594300D01*
X595300Y783400D01*
X594300Y782400D01*
X595300D01*
X596300Y781400D01*
Y782200D02*
X596900Y782800D01*
X597500D01*
X596900Y783400D01*
X597500Y784000D01*
X596900D01*
X596300Y784600D01*
X595700Y784000D01*
X595100D01*
X595700Y783400D01*
X595100Y782800D01*
X595700D01*
X596300Y782200D01*
X454700Y635700D02*
X452700Y639700D01*
X456700D01*
X454700Y635700D01*
X674500Y674700D02*
X675500Y675700D01*
X676500D01*
X675500Y676700D01*
X676500Y677700D01*
X675500D01*
X674500Y678700D01*
X673500Y677700D01*
X672500D01*
X673500Y676700D01*
X672500Y675700D01*
X673500D01*
X674500Y674700D01*
Y675500D02*
X675100Y676100D01*
X675700D01*
X675100Y676700D01*
X675700Y677300D01*
X675100D01*
X674500Y677900D01*
X673900Y677300D01*
X673300D01*
X673900Y676700D01*
X673300Y676100D01*
X673900D01*
X674500Y675500D01*
X800500Y527500D02*
X798500Y531500D01*
X802500D01*
X800500Y527500D01*
X810500D02*
X808500Y531500D01*
X812500D01*
X810500Y527500D01*
X778500Y773250D02*
X776500Y777250D01*
X780500D01*
X778500Y773250D01*
X823500Y526500D02*
X821500Y530500D01*
X825500D01*
X823500Y526500D01*
X814500Y576000D02*
X812500Y580000D01*
X816500D01*
X814500Y576000D01*
X794000Y538000D02*
X792000Y542000D01*
X796000D01*
X794000Y538000D01*
X797000Y613500D02*
X795000Y617500D01*
X799000D01*
X797000Y613500D01*
X802000Y581000D02*
X800000Y585000D01*
X804000D01*
X802000Y581000D01*
X807500Y588500D02*
X805500Y592500D01*
X809500D01*
X807500Y588500D01*
X815000Y588000D02*
X813000Y592000D01*
X817000D01*
X815000Y588000D01*
X786000Y602500D02*
X787000Y603500D01*
X788000D01*
X787000Y604500D01*
X788000Y605500D01*
X787000D01*
X786000Y606500D01*
X785000Y605500D01*
X784000D01*
X785000Y604500D01*
X784000Y603500D01*
X785000D01*
X786000Y602500D01*
Y603300D02*
X786600Y603900D01*
X787200D01*
X786600Y604500D01*
X787200Y605100D01*
X786600D01*
X786000Y605700D01*
X785400Y605100D01*
X784800D01*
X785400Y604500D01*
X784800Y603900D01*
X785400D01*
X786000Y603300D01*
X821000Y556500D02*
X819000Y560500D01*
X823000D01*
X821000Y556500D01*
X813500Y748000D02*
X811500Y752000D01*
X815500D01*
X813500Y748000D01*
X824000Y625500D02*
X822000Y629500D01*
X826000D01*
X824000Y625500D01*
X805500Y715000D02*
X803500Y719000D01*
X807500D01*
X805500Y715000D01*
X810500Y703500D02*
X808500Y707500D01*
X812500D01*
X810500Y703500D01*
X815000Y711000D02*
X813000Y715000D01*
X817000D01*
X815000Y711000D01*
X773000Y748000D02*
X771000Y752000D01*
X775000D01*
X773000Y748000D01*
X626000Y795000D02*
X627000Y796000D01*
X628000D01*
X627000Y797000D01*
X628000Y798000D01*
X627000D01*
X626000Y799000D01*
X625000Y798000D01*
X624000D01*
X625000Y797000D01*
X624000Y796000D01*
X625000D01*
X626000Y795000D01*
Y795800D02*
X626600Y796400D01*
X627200D01*
X626600Y797000D01*
X627200Y797600D01*
X626600D01*
X626000Y798200D01*
X625400Y797600D01*
X624800D01*
X625400Y797000D01*
X624800Y796400D01*
X625400D01*
X626000Y795800D01*
X631000Y799000D02*
X632000Y800000D01*
X633000D01*
X632000Y801000D01*
X633000Y802000D01*
X632000D01*
X631000Y803000D01*
X630000Y802000D01*
X629000D01*
X630000Y801000D01*
X629000Y800000D01*
X630000D01*
X631000Y799000D01*
Y799800D02*
X631600Y800400D01*
X632200D01*
X631600Y801000D01*
X632200Y801600D01*
X631600D01*
X631000Y802200D01*
X630400Y801600D01*
X629800D01*
X630400Y801000D01*
X629800Y800400D01*
X630400D01*
X631000Y799800D01*
X534000Y813000D02*
X535000Y814000D01*
X536000D01*
X535000Y815000D01*
X536000Y816000D01*
X535000D01*
X534000Y817000D01*
X533000Y816000D01*
X532000D01*
X533000Y815000D01*
X532000Y814000D01*
X533000D01*
X534000Y813000D01*
Y813800D02*
X534600Y814400D01*
X535200D01*
X534600Y815000D01*
X535200Y815600D01*
X534600D01*
X534000Y816200D01*
X533400Y815600D01*
X532800D01*
X533400Y815000D01*
X532800Y814400D01*
X533400D01*
X534000Y813800D01*
X494000Y804000D02*
X492000Y808000D01*
X496000D01*
X494000Y804000D01*
X683500Y801000D02*
X684500Y802000D01*
X685500D01*
X684500Y803000D01*
X685500Y804000D01*
X684500D01*
X683500Y805000D01*
X682500Y804000D01*
X681500D01*
X682500Y803000D01*
X681500Y802000D01*
X682500D01*
X683500Y801000D01*
Y801800D02*
X684100Y802400D01*
X684700D01*
X684100Y803000D01*
X684700Y803600D01*
X684100D01*
X683500Y804200D01*
X682900Y803600D01*
X682300D01*
X682900Y803000D01*
X682300Y802400D01*
X682900D01*
X683500Y801800D01*
X662500Y778500D02*
X663500Y779500D01*
X664500D01*
X663500Y780500D01*
X664500Y781500D01*
X663500D01*
X662500Y782500D01*
X661500Y781500D01*
X660500D01*
X661500Y780500D01*
X660500Y779500D01*
X661500D01*
X662500Y778500D01*
Y779300D02*
X663100Y779900D01*
X663700D01*
X663100Y780500D01*
X663700Y781100D01*
X663100D01*
X662500Y781700D01*
X661900Y781100D01*
X661300D01*
X661900Y780500D01*
X661300Y779900D01*
X661900D01*
X662500Y779300D01*
X637000Y803000D02*
X638000Y804000D01*
X639000D01*
X638000Y805000D01*
X639000Y806000D01*
X638000D01*
X637000Y807000D01*
X636000Y806000D01*
X635000D01*
X636000Y805000D01*
X635000Y804000D01*
X636000D01*
X637000Y803000D01*
Y803800D02*
X637600Y804400D01*
X638200D01*
X637600Y805000D01*
X638200Y805600D01*
X637600D01*
X637000Y806200D01*
X636400Y805600D01*
X635800D01*
X636400Y805000D01*
X635800Y804400D01*
X636400D01*
X637000Y803800D01*
X651500Y788500D02*
X652500Y789500D01*
X653500D01*
X652500Y790500D01*
X653500Y791500D01*
X652500D01*
X651500Y792500D01*
X650500Y791500D01*
X649500D01*
X650500Y790500D01*
X649500Y789500D01*
X650500D01*
X651500Y788500D01*
Y789300D02*
X652100Y789900D01*
X652700D01*
X652100Y790500D01*
X652700Y791100D01*
X652100D01*
X651500Y791700D01*
X650900Y791100D01*
X650300D01*
X650900Y790500D01*
X650300Y789900D01*
X650900D01*
X651500Y789300D01*
X619200Y709600D02*
X620200Y710600D01*
X621200D01*
X620200Y711600D01*
X621200Y712600D01*
X620200D01*
X619200Y713600D01*
X618200Y712600D01*
X617200D01*
X618200Y711600D01*
X617200Y710600D01*
X618200D01*
X619200Y709600D01*
Y710400D02*
X619800Y711000D01*
X620400D01*
X619800Y711600D01*
X620400Y712200D01*
X619800D01*
X619200Y712800D01*
X618600Y712200D01*
X618000D01*
X618600Y711600D01*
X618000Y711000D01*
X618600D01*
X619200Y710400D01*
X525500Y776500D02*
X526500Y777500D01*
X527500D01*
X526500Y778500D01*
X527500Y779500D01*
X526500D01*
X525500Y780500D01*
X524500Y779500D01*
X523500D01*
X524500Y778500D01*
X523500Y777500D01*
X524500D01*
X525500Y776500D01*
Y777300D02*
X526100Y777900D01*
X526700D01*
X526100Y778500D01*
X526700Y779100D01*
X526100D01*
X525500Y779700D01*
X524900Y779100D01*
X524300D01*
X524900Y778500D01*
X524300Y777900D01*
X524900D01*
X525500Y777300D01*
X540000Y803000D02*
X541000Y804000D01*
X542000D01*
X541000Y805000D01*
X542000Y806000D01*
X541000D01*
X540000Y807000D01*
X539000Y806000D01*
X538000D01*
X539000Y805000D01*
X538000Y804000D01*
X539000D01*
X540000Y803000D01*
Y803800D02*
X540600Y804400D01*
X541200D01*
X540600Y805000D01*
X541200Y805600D01*
X540600D01*
X540000Y806200D01*
X539400Y805600D01*
X538800D01*
X539400Y805000D01*
X538800Y804400D01*
X539400D01*
X540000Y803800D01*
X539000Y785500D02*
X540000Y786500D01*
X541000D01*
X540000Y787500D01*
X541000Y788500D01*
X540000D01*
X539000Y789500D01*
X538000Y788500D01*
X537000D01*
X538000Y787500D01*
X537000Y786500D01*
X538000D01*
X539000Y785500D01*
Y786300D02*
X539600Y786900D01*
X540200D01*
X539600Y787500D01*
X540200Y788100D01*
X539600D01*
X539000Y788700D01*
X538400Y788100D01*
X537800D01*
X538400Y787500D01*
X537800Y786900D01*
X538400D01*
X539000Y786300D01*
X538000Y736500D02*
X539000Y737500D01*
X540000D01*
X539000Y738500D01*
X540000Y739500D01*
X539000D01*
X538000Y740500D01*
X537000Y739500D01*
X536000D01*
X537000Y738500D01*
X536000Y737500D01*
X537000D01*
X538000Y736500D01*
Y737300D02*
X538600Y737900D01*
X539200D01*
X538600Y738500D01*
X539200Y739100D01*
X538600D01*
X538000Y739700D01*
X537400Y739100D01*
X536800D01*
X537400Y738500D01*
X536800Y737900D01*
X537400D01*
X538000Y737300D01*
X596700Y443500D02*
X594700Y447500D01*
X598700D01*
X596700Y443500D01*
X1042900Y292600D02*
X1044100Y293800D01*
X1045300D01*
X1044100Y295000D01*
X1045300Y296200D01*
X1044100D01*
X1042900Y297400D01*
X1041700Y296200D01*
X1040500D01*
X1041700Y295000D01*
X1040500Y293800D01*
X1041700D01*
X1042900Y292600D01*
Y293600D02*
X1043600Y294300D01*
X1044300D01*
X1043600Y295000D01*
X1044300Y295700D01*
X1043600D01*
X1042900Y296400D01*
X1042200Y295700D01*
X1041500D01*
X1042200Y295000D01*
X1041500Y294300D01*
X1042200D01*
X1042900Y293600D01*
Y280600D02*
X1040500Y285400D01*
X1045300D01*
X1042900Y280600D01*
Y268600D02*
X1044100Y269800D01*
X1045300D01*
X1044100Y271000D01*
X1045300Y272200D01*
X1044100D01*
X1042900Y273400D01*
X1041700Y272200D01*
X1040500D01*
X1041700Y271000D01*
X1040500Y269800D01*
X1041700D01*
X1042900Y268600D01*
X1040500Y244600D02*
X1041700D01*
X1042900Y245800D01*
X1044100Y244600D01*
X1045300D01*
Y245800D01*
X1044100Y247000D01*
X1045300Y248200D01*
Y249400D01*
X1044100D01*
X1042900Y248200D01*
X1041700Y249400D01*
X1040500D01*
Y248200D01*
X1041700Y247000D01*
X1040500Y245800D01*
Y244600D01*
X1042900Y232600D02*
X1040500Y237400D01*
X1045300D01*
X1042900Y232600D01*
Y233600D02*
X1041500Y236400D01*
X1044300D01*
X1042900Y233600D01*
X1040500Y220600D02*
X1041700Y223000D01*
X1040500Y225400D01*
X1042900Y224200D01*
X1045300Y225400D01*
X1044100Y223000D01*
X1045300Y220600D01*
X1042900Y221800D01*
X1040500Y220600D01*
Y199000D02*
X1042900Y201400D01*
X1045300Y199000D01*
X1042900Y196600D01*
X1040500Y199000D01*
X1041700Y185800D02*
Y184600D01*
X1044100D01*
Y185800D01*
X1045300D01*
Y188200D01*
X1044100D01*
Y189400D01*
X1041700D01*
Y188200D01*
X1040500D01*
Y185800D01*
X1041700D01*
X1040500Y172600D02*
Y177400D01*
X1045300D01*
Y172600D01*
X1040500D01*
Y160600D02*
Y165400D01*
X1045300D01*
Y160600D01*
X1040500D01*
X1041500Y161600D02*
Y164400D01*
X1044300D01*
Y161600D01*
X1041500D01*
G54D123*
X280300Y737800D02*
G03*
X280300Y737800I-2000J0D01*
G01*
Y747800D02*
G03*
X280300Y747800I-2000J0D01*
G01*
X138732Y88400D02*
G03*
X138732Y88400I-2000J0D01*
G01*
X158417D02*
G03*
X158417Y88400I-2000J0D01*
G01*
X197787D02*
G03*
X197787Y88400I-2000J0D01*
G01*
X217473D02*
G03*
X217473Y88400I-2000J0D01*
G01*
X256843D02*
G03*
X256843Y88400I-2000J0D01*
G01*
X276528D02*
G03*
X276528Y88400I-2000J0D01*
G01*
X178103D02*
G03*
X178103Y88400I-2000J0D01*
G01*
X237158D02*
G03*
X237158Y88400I-2000J0D01*
G01*
X315898D02*
G03*
X315898Y88400I-2000J0D01*
G01*
X355268D02*
G03*
X355268Y88400I-2000J0D01*
G01*
X335583D02*
G03*
X335583Y88400I-2000J0D01*
G01*
X296213D02*
G03*
X296213Y88400I-2000J0D01*
G01*
X670300Y737800D02*
G03*
X670300Y737800I-2000J0D01*
G01*
Y747800D02*
G03*
X670300Y747800I-2000J0D01*
G01*
X528732Y88400D02*
G03*
X528732Y88400I-2000J0D01*
G01*
X548417D02*
G03*
X548417Y88400I-2000J0D01*
G01*
X587787D02*
G03*
X587787Y88400I-2000J0D01*
G01*
X607473D02*
G03*
X607473Y88400I-2000J0D01*
G01*
X646843D02*
G03*
X646843Y88400I-2000J0D01*
G01*
X666528D02*
G03*
X666528Y88400I-2000J0D01*
G01*
X568103D02*
G03*
X568103Y88400I-2000J0D01*
G01*
X627158D02*
G03*
X627158Y88400I-2000J0D01*
G01*
X705898D02*
G03*
X705898Y88400I-2000J0D01*
G01*
X745268D02*
G03*
X745268Y88400I-2000J0D01*
G01*
X725583D02*
G03*
X725583Y88400I-2000J0D01*
G01*
X686213D02*
G03*
X686213Y88400I-2000J0D01*
G01*
G54D124*
X137932D02*
G03*
X137932Y88400I-1200J0D01*
G01*
X157617D02*
G03*
X157617Y88400I-1200J0D01*
G01*
X196987D02*
G03*
X196987Y88400I-1200J0D01*
G01*
X216673D02*
G03*
X216673Y88400I-1200J0D01*
G01*
X256043D02*
G03*
X256043Y88400I-1200J0D01*
G01*
X275728D02*
G03*
X275728Y88400I-1200J0D01*
G01*
X177303D02*
G03*
X177303Y88400I-1200J0D01*
G01*
X236358D02*
G03*
X236358Y88400I-1200J0D01*
G01*
X315098D02*
G03*
X315098Y88400I-1200J0D01*
G01*
X354468D02*
G03*
X354468Y88400I-1200J0D01*
G01*
X334783D02*
G03*
X334783Y88400I-1200J0D01*
G01*
X295413D02*
G03*
X295413Y88400I-1200J0D01*
G01*
X527932D02*
G03*
X527932Y88400I-1200J0D01*
G01*
X547617D02*
G03*
X547617Y88400I-1200J0D01*
G01*
X586987D02*
G03*
X586987Y88400I-1200J0D01*
G01*
X606673D02*
G03*
X606673Y88400I-1200J0D01*
G01*
X646043D02*
G03*
X646043Y88400I-1200J0D01*
G01*
X665728D02*
G03*
X665728Y88400I-1200J0D01*
G01*
X567303D02*
G03*
X567303Y88400I-1200J0D01*
G01*
X626358D02*
G03*
X626358Y88400I-1200J0D01*
G01*
X705098D02*
G03*
X705098Y88400I-1200J0D01*
G01*
X744468D02*
G03*
X744468Y88400I-1200J0D01*
G01*
X724783D02*
G03*
X724783Y88400I-1200J0D01*
G01*
X685413D02*
G03*
X685413Y88400I-1200J0D01*
G01*
G54D125*
X1044300Y211000D02*
G03*
X1044300Y211000I-1400J0D01*
G01*
M02*
